<?xml version="1.0" encoding="utf-8"?>
<svg width="1340px" height="548px" viewBox="0 0 1340 548" version="1.1" xmlns:xlink="http://www.w3.org/1999/xlink" xmlns="http://www.w3.org/2000/svg">
  <defs>
    <path d="M1340 0L1340 0L1340 548L0 548L0 0L1340 0Z" id="path_1" />
    <path d="M0 0L0 100L100 100L100 0L0 0Z" id="path_2" />
    <path d="M100 0L100 0L100 100L0 100L0 0L100 0Z" id="path_3" />
    <path d="M0 0L21 0L21 38L0 38L0 0Z" id="path_4" />
    <path d="M0 51.5C0 42.9396 7.61116 36 17 36C26.3888 36 34 42.9396 34 51.5C34 60.0604 26.3888 67 17 67C7.61116 67 0 60.0604 0 51.5Z" id="path_5" />
    <path d="M7.5 28C7.5 23.0294 11.5294 19 16.5 19C21.4706 19 25.5 23.0294 25.5 28C25.5 32.9706 21.4706 37 16.5 37C11.5294 37 7.5 32.9706 7.5 28Z" id="path_6" />
    <path d="M0 0L34 0L34 27L0 27L0 0Z" id="path_7" />
    <path d="M0 0L19 0L19 25L0 25L0 0Z" id="path_8" />
    <path d="M0 0L17 0L17 27L0 27L0 0Z" id="path_9" />
    <clipPath id="clip_1">
      <use xlink:href="#path_1" clip-rule="evenodd" fill-rule="evenodd" />
    </clipPath>
    <clipPath id="clip_2">
      <use xlink:href="#path_2" clip-rule="evenodd" fill-rule="evenodd" />
    </clipPath>
    <clipPath id="clip_3">
      <use xlink:href="#path_3" clip-rule="evenodd" fill-rule="evenodd" />
    </clipPath>
    <clipPath id="clip_4">
      <use xlink:href="#path_4" clip-rule="evenodd" fill-rule="evenodd" />
    </clipPath>
    <clipPath id="clip_5">
      <use xlink:href="#path_5" />
    </clipPath>
    <clipPath id="clip_6">
      <use xlink:href="#path_6" />
    </clipPath>
    <clipPath id="clip_7">
      <use xlink:href="#path_7" clip-rule="evenodd" fill-rule="evenodd" />
    </clipPath>
    <clipPath id="clip_8">
      <use xlink:href="#path_8" clip-rule="evenodd" fill-rule="evenodd" />
    </clipPath>
    <clipPath id="clip_9">
      <use xlink:href="#path_9" clip-rule="evenodd" fill-rule="evenodd" />
    </clipPath>
  </defs>
  <g id="The alphabet with labels">
    <path d="M1340 0L1340 0L1340 548L0 548L0 0L1340 0Z" id="The-alphabet-with-labels" fill="#FFFFFF" stroke="none" />
    <g id="Y" clip-path="url(#clip_1)">
      <path d="M0 0L0 100L100 100L100 0L0 0Z" id="Y" fill="#FFFFFF" fill-opacity="0" stroke="none" transform="matrix(-1 0 0 1 1267 369)" />
      <path d="M47.5238 15L47.5238 85L47.524 62.2118C47.524 62.2118 105.468 74.9665 31 73.6546" id="Line" fill="none" fill-rule="evenodd" stroke="#000000" stroke-width="3" stroke-linecap="square" clip-path="url(#clip_2)" transform="matrix(-1 0 0 1 1267 369)" />
      <g id="Y" clip-path="url(#clip_2)" transform="matrix(-1 0 0 1 1267 369), matrix(-1 0 0 1 100 0)">
        <g transform="translate(0, 5.7954545)" id="Y" fill="#757575">
          <path d="M0.613636 5.79545L3.03409 5.79545L7.875 13.9432L8.07955 13.9432L12.9205 5.79545L15.3409 5.79545L9.03409 16.0568L9.03409 23.25L6.92045 23.25L6.92045 16.0568L0.613636 5.79545Z" />
        </g>
      </g>
    </g>
    <g id="و" clip-path="url(#clip_1)">
      <path d="M0 0L0 100L100 100L100 0L0 0Z" id="و" fill="#FFFFFF" fill-opacity="0" stroke="none" transform="matrix(-1 0 0 1 1167 369)" />
      <path d="M35.0975 33.3641C31.4074 35.9369 25.0043 33.4691 29.5976 26.8641C34.1908 20.2592 61.7226 29.1141 67.5976 26.8641C67.6873 26.8298 67.783 26.8108 67.861 26.7609C70.9078 24.8119 71.58 20.9737 70.0976 17.8607C68.6152 14.7476 56.4726 5.36405 54.5976 25.8641C54.5976 46.5583 54.5975 86.8641 54.5975 86.8641" id="Line" fill="none" fill-rule="evenodd" stroke="#000000" stroke-width="3" stroke-linecap="square" clip-path="url(#clip_2)" transform="matrix(-1 0 0 1 1167 369)" />
      <g id="و" clip-path="url(#clip_2)" transform="matrix(-1 0 0 1 1167 369), matrix(-1 0 0 1 100 -8)">
        <g transform="translate(0, 6.0234375)" id="و" fill="#757575">
          <path d="M0 28.9805Q1.26562 29.4961 2.2793 29.7012Q3.29297 29.9063 4.25391 29.9063Q5.42578 29.9063 6.14648 29.5195Q6.86719 29.1328 7.27148 28.5234Q7.67578 27.9141 7.82813 27.1523Q7.98047 26.3906 8.00391 25.6289Q7.03125 26.0625 5.98828 26.0625Q5.21484 26.0625 4.49414 25.8223Q3.77344 25.582 3.22266 25.1191Q2.67187 24.6563 2.33789 23.9883Q2.00391 23.3203 2.00391 22.4531Q2.00391 21.7031 2.28516 20.877Q2.56641 20.0508 3.06445 19.3535Q3.5625 18.6563 4.24219 18.2051Q4.92187 17.7539 5.71875 17.7539Q6.5625 17.7539 7.25977 18.2461Q7.95703 18.7383 8.58984 19.7344Q9.22266 20.7305 9.53906 22.1191Q9.85547 23.5078 9.85547 25.0547Q9.85547 26.4141 9.55078 27.6504Q9.24609 28.8867 8.57813 29.8359Q7.91016 30.7852 6.84375 31.3477Q5.77734 31.9102 4.25391 31.9102Q3.1875 31.9102 2.17969 31.6875Q1.17187 31.4648 0 30.9258L0 28.9805ZM7.98047 23.7305Q7.96875 23.4375 7.875 23.0332Q7.78125 22.6289 7.62305 22.1895Q7.46484 21.75 7.25391 21.3223Q7.04297 20.8945 6.7793 20.5488Q6.51563 20.2031 6.22266 19.9922Q5.92969 19.7813 5.61328 19.7813Q5.27344 19.7813 4.95117 20.0039Q4.62891 20.2266 4.37109 20.5781Q4.11328 20.9297 3.95508 21.375Q3.79688 21.8203 3.79688 22.2656Q3.79688 22.6992 3.99609 23.0449Q4.19531 23.3906 4.5293 23.625Q4.86328 23.8594 5.29688 23.9883Q5.73047 24.1172 6.19922 24.1172Q6.65625 24.1172 7.11328 24.041Q7.57031 23.9648 7.98047 23.7305Z" />
        </g>
      </g>
    </g>
    <g id="ه" clip-path="url(#clip_1)">
      <path d="M100 0L100 0L100 100L0 100L0 0L100 0Z" id="ه" fill="#FFFFFF" fill-opacity="0" stroke="none" transform="translate(967 369)" />
      <path d="M30 32.5348C36.125 34.6598 52.625 34.4098 60 32.5348C67.375 30.6598 72.625 22.7849 68 18.0349C63.375 13.2848 46.125 11.0349 44 21.0348C44 29.0348 44 85.5347 44 85.5347L44 77.0348L44 68.0349L58.5 68.035L30 68.0348" id="Line" fill="none" fill-rule="evenodd" stroke="#000000" stroke-width="3" stroke-linecap="square" clip-path="url(#clip_3)" transform="translate(967 369)" />
      <g id="ه" clip-path="url(#clip_3)" transform="translate(967 369), translate(0 -11)">
        <g transform="translate(0, 7.529297)" id="ه" fill="#757575">
          <path d="M4.67285 19.9658L6.0791 18.1055Q7.80762 19.248 9.03076 20.4126Q10.2539 21.5771 11.0303 22.7856Q11.8066 23.9941 12.1655 25.2393Q12.5244 26.4844 12.5244 27.7881Q12.5244 28.8867 12.1729 29.7876Q11.8213 30.6885 11.1621 31.3403Q10.5029 31.9922 9.54346 32.3438Q8.58398 32.6953 7.36816 32.6953Q6.18164 32.6953 5.27344 32.3804Q4.36523 32.0654 3.75 31.4795Q3.13477 30.8936 2.81982 30.0732Q2.50488 29.2529 2.50488 28.2422Q2.50488 27.0264 2.8125 25.9277Q3.12012 24.8291 3.61084 23.8989Q4.10156 22.9688 4.73145 22.229Q5.36133 21.4893 6.00586 20.9766Q5.69824 20.7275 5.36865 20.4785Q5.03906 20.2295 4.67285 19.9658ZM4.76074 27.8027Q4.76074 28.4619 4.97314 28.916Q5.18555 29.3701 5.55176 29.6631Q5.91797 29.9561 6.40137 30.0879Q6.88477 30.2197 7.42676 30.2197Q8.9209 30.2197 9.59473 29.5752Q10.2686 28.9307 10.2686 27.832Q10.2686 27.1582 10.1367 26.499Q10.0049 25.8398 9.68994 25.166Q9.375 24.4922 8.8623 23.7964Q8.34961 23.1006 7.58789 22.3535Q6.9873 22.7783 6.46729 23.3789Q5.94727 23.9795 5.56641 24.6826Q5.18555 25.3857 4.97314 26.1841Q4.76074 26.9824 4.76074 27.8027Z" />
        </g>
      </g>
    </g>
    <g id="N" clip-path="url(#clip_1)">
      <path d="M0 0L0 100L100 100L100 0L0 0Z" id="N" fill="#FFFFFF" fill-opacity="0" stroke="none" transform="matrix(-1 0 0 1 967 369)" />
      <path d="M41.9993 35.1736C40.5951 32.474 38.3074 27.1773 41.9993 20.896C45.6912 14.6148 57.9777 11.5979 59.9993 20.896C59.9993 35.1425 59.9994 67.8268 59.9993 78.452C56.8939 89.514 44.6971 84.4981 41.9994 78.452C39.3016 72.4059 41.9994 67.7439 41.9994 67.7439" id="Line" fill="none" fill-rule="evenodd" stroke="#000000" stroke-width="3" stroke-linecap="square" clip-path="url(#clip_2)" transform="matrix(-1 0 0 1 967 369)" />
      <path d="M52 50L67.5 50" id="Line-2" fill="none" fill-rule="evenodd" stroke="#000000" stroke-width="3" stroke-linecap="square" clip-path="url(#clip_2)" transform="matrix(-1 0 0 1 967 369)" />
      <g id="N" clip-path="url(#clip_2)" transform="matrix(-1 0 0 1 967 369), matrix(-1 0 0 1 100 0)">
        <g transform="translate(0, 5.7954545)" id="N" fill="#757575">
          <path d="M15.9545 5.79545L15.9545 23.25L13.9091 23.25L4.39773 9.54545L4.22727 9.54545L4.22727 23.25L2.11364 23.25L2.11364 5.79545L4.15909 5.79545L13.7045 19.5341L13.875 19.5341L13.875 5.79545L15.9545 5.79545Z" />
        </g>
      </g>
    </g>
    <g id="M" clip-path="url(#clip_1)">
      <path d="M0 0L0 100L100 100L100 0L0 0Z" id="M" fill="#FFFFFF" fill-opacity="0" stroke="none" transform="matrix(-1 0 0 1 867 369)" />
      <path d="M41.9993 35.1736C40.5951 32.474 38.3074 27.1773 41.9993 20.896C45.6912 14.6148 57.9777 11.5979 59.9993 20.896C59.9993 35.1425 59.9994 67.8268 59.9993 78.452C56.8939 89.514 44.6971 84.4981 41.9994 78.452C39.3016 72.4059 41.9994 67.7439 41.9994 67.7439" id="Line" fill="none" fill-rule="evenodd" stroke="#000000" stroke-width="3" stroke-linecap="square" clip-path="url(#clip_2)" transform="matrix(-1 0 0 1 867 369)" />
      <g id="M" clip-path="url(#clip_4)" transform="matrix(-1 0 0 1 867 369), matrix(-1 0 0 1 100 0)">
        <g transform="translate(0, 5.7954545)" id="M" fill="#757575">
          <path d="M2.11364 5.79545L4.63636 5.79545L10.5682 20.2841L10.7727 20.2841L16.7045 5.79545L19.2273 5.79545L19.2273 23.25L17.25 23.25L17.25 9.98864L17.0795 9.98864L11.625 23.25L9.71591 23.25L4.26136 9.98864L4.09091 9.98864L4.09091 23.25L2.11364 23.25L2.11364 5.79545Z" />
        </g>
      </g>
    </g>
    <g id="L" clip-path="url(#clip_1)">
      <path d="M0 0L0 100L100 100L100 0L0 0Z" id="L" fill="#FFFFFF" fill-opacity="0" stroke="none" transform="matrix(-1 0 0 1 767 369)" />
      <path d="M62 17L62 68.3553C62 68.3553 61.4113 76.7022 60.9405 77.6927C58.6449 85.5969 45.6076 83.4636 40.8105 79.0933C36.0133 74.7229 35.454 67.2919 40.8104 65.5541C46.1668 63.8163 47.697 68.3553 47.697 68.3553" id="Line" fill="none" fill-rule="evenodd" stroke="#000000" stroke-width="3" stroke-linecap="square" clip-path="url(#clip_2)" transform="matrix(-1 0 0 1 767 369)" />
      <g id="L" clip-path="url(#clip_2)" transform="matrix(-1 0 0 1 767 369), matrix(-1 0 0 1 102 0)">
        <g transform="translate(0, 5.7954545)" id="L" fill="#757575">
          <path d="M2.11364 23.25L2.11364 5.79545L4.22727 5.79545L4.22727 21.375L12.3409 21.375L12.3409 23.25L2.11364 23.25Z" />
        </g>
      </g>
    </g>
    <g id="G" clip-path="url(#clip_1)">
      <path d="M0 0L0 100L100 100L100 0L0 0Z" id="G" fill="#FFFFFF" fill-opacity="0" stroke="none" transform="matrix(-1 0 0 1 667 369)" />
      <g id="Group" clip-path="url(#clip_2)" transform="matrix(-1 0 0 1 667 369), translate(32.500977 18)">
        <path d="M5.49902 23L33.499 23" id="Line-2" fill="none" fill-rule="evenodd" stroke="#000000" stroke-width="3" stroke-linecap="square" />
        <path d="M3.49304 0L19.993 1.34707e-06C19.993 1.34707e-06 20.007 53.2358 19.993 58.9998C18.8681 69.6527 7.34025 62.972 3.493 58.9998C-0.354241 55.0276 -1.90991 49.8617 3.49297 45.9998C8.89586 42.1378 18.493 47.4999 18.493 47.4999" id="Line-3" fill="none" fill-rule="evenodd" stroke="#000000" stroke-width="3" stroke-linecap="square" />
      </g>
      <g id="G" clip-path="url(#clip_2)" transform="matrix(-1 0 0 1 667 369), matrix(-1 0 0 1 100 0)">
        <g transform="translate(0, 5.7954545)" id="G" fill="#757575">
          <path d="M14.0455 11.25Q13.4915 9.52841 12.2259 8.53125Q10.9602 7.53409 9.06818 7.53409Q7.51705 7.53409 6.24716 8.33523Q4.97727 9.13636 4.22727 10.696Q3.47727 12.2557 3.47727 14.5227Q3.47727 16.7898 4.2358 18.3494Q4.99432 19.9091 6.28977 20.7102Q7.58523 21.5114 9.20455 21.5114Q10.679 21.5114 11.8168 20.8849Q12.9545 20.2585 13.6023 19.1122Q14.25 17.9659 14.2841 16.3977L9.68182 16.3977L9.68182 14.5227L16.3295 14.5227L16.3295 16.3977Q16.3295 18.554 15.4134 20.1477Q14.4972 21.7415 12.8906 22.6151Q11.2841 23.4886 9.20455 23.4886Q6.88636 23.4886 5.13494 22.3977Q3.38352 21.3068 2.40767 19.2955Q1.43182 17.2841 1.43182 14.5227Q1.43182 11.7614 2.40767 9.75Q3.38352 7.73864 5.10938 6.64773Q6.83523 5.55682 9.06818 5.55682Q10.9091 5.55682 12.4091 6.27699Q13.9091 6.99716 14.9063 8.27983Q15.9034 9.5625 16.2273 11.25L14.0455 11.25Z" />
        </g>
      </g>
    </g>
    <g id="K" clip-path="url(#clip_1)">
      <path d="M0 0L0 100L100 100L100 0L0 0Z" id="K" fill="#FFFFFF" fill-opacity="0" stroke="none" transform="matrix(-1 0 0 1 567 369)" />
      <path d="M43.493 17L59.993 17C59.993 17 60.007 70.2358 59.993 75.9998C58.8681 86.6527 47.3403 79.972 43.493 75.9998C39.6458 72.0276 38.0901 66.8617 43.493 62.9998C48.8959 59.1378 58.493 64.4999 58.493 64.4999" id="Line" fill="none" fill-rule="evenodd" stroke="#000000" stroke-width="3" stroke-linecap="square" clip-path="url(#clip_2)" transform="matrix(-1 0 0 1 567 369)" />
      <g id="K" clip-path="url(#clip_2)" transform="matrix(-1 0 0 1 567 369), matrix(-1 0 0 1 100 0)">
        <g transform="translate(0, 5.7954545)" id="K" fill="#757575">
          <path d="M2.11364 23.25L2.11364 5.79545L4.22727 5.79545L4.22727 14.4545L4.43182 14.4545L12.2727 5.79545L15.0341 5.79545L7.70455 13.6705L15.0341 23.25L12.4773 23.25L6.40909 15.1364L4.22727 17.5909L4.22727 23.25L2.11364 23.25Z" />
        </g>
      </g>
    </g>
    <g id="V" clip-path="url(#clip_1)">
      <path d="M0 0L0 100L100 100L100 0L0 0Z" id="V" fill="#FFFFFF" fill-opacity="0" stroke="none" transform="matrix(-1 0 0 1 467 369)" />
      <g id="Group" clip-path="url(#clip_2)" transform="matrix(-1 0 0 1 467 369), translate(31 11)">
        <path d="M12.5002 11.5001C12.5002 11.5001 15 12.5684 18.0001 11.5001C21.0002 10.4318 23.5002 8.52322 23.5001 4.50005C23.5001 0.476868 19.7675 5.66247e-07 18.0001 5.66247e-07C16.2328 5.66247e-07 11.5 1.15844 11.5 4.50007C11.5 10.0452 11.5 25.7988 11.5 25.7988C11.5 25.7988 17.8058 13.4446 26 13.4446C34.1942 13.4446 39.1012 19.6774 36 27.4447C32.8988 35.212 11.5 38.2723 11.5 43.4449C11.5 54.5059 11.5 76.0003 11.5 76.0003" id="Line" fill="none" fill-rule="evenodd" stroke="#000000" stroke-width="3" stroke-linecap="square" />
        <path d="M0 60L23.5 60" id="Line-2" fill="none" fill-rule="evenodd" stroke="#000000" stroke-width="3" stroke-linecap="square" />
      </g>
      <g id="V" clip-path="url(#clip_2)" transform="matrix(-1 0 0 1 467 369), matrix(-1 0 0 1 100 0)">
        <g transform="translate(0, 5.7954545)" id="V" fill="#757575">
          <path d="M2.82955 5.79545L8.01136 20.4886L8.21591 20.4886L13.3977 5.79545L15.6136 5.79545L9.20455 23.25L7.02273 23.25L0.613636 5.79545L2.82955 5.79545Z" />
        </g>
      </g>
    </g>
    <g id="ق" clip-path="url(#clip_1)">
      <path d="M0 0L0 100L100 100L100 0L0 0Z" id="ق" fill="#FFFFFF" fill-opacity="0" stroke="none" transform="matrix(-1 0 0 1 367 369)" />
      <path d="M38.0002 22.5001C38.0002 22.5001 40.5 23.5684 43.5001 22.5001C46.5002 21.4318 49.0002 19.5232 49.0001 15.5C49.0001 11.4769 45.2675 11 43.5001 11C41.7328 11 37 12.1584 37 15.5001C37 21.0452 37 36.7988 37 36.7988C37 36.7988 43.3058 24.4446 51.5 24.4446C59.6942 24.4446 64.6012 30.6774 61.5 38.4447C58.3988 46.212 37 49.2723 37 54.4449C37 65.5059 37 87.0003 37 87.0003" id="Line" fill="none" fill-rule="evenodd" stroke="#000000" stroke-width="3" stroke-linecap="square" clip-path="url(#clip_2)" transform="matrix(-1 0 0 1 367 369)" />
      <g id="ق" clip-path="url(#clip_2)" transform="matrix(-1 0 0 1 367 369), matrix(-1 0 0 1 100 -8)">
        <g transform="translate(0, 6.0234375)" id="ق" fill="#757575">
          <path d="M14.0273 25.6289Q13.0898 26.0625 12.0117 26.0625Q11.2383 26.0625 10.5176 25.8223Q9.79688 25.582 9.24609 25.1191Q8.69531 24.6563 8.36133 23.9883Q8.02734 23.3203 8.02734 22.4531Q8.02734 21.7031 8.30859 20.877Q8.58984 20.0508 9.08789 19.3535Q9.58594 18.6563 10.2656 18.2051Q10.9453 17.7539 11.7422 17.7539Q12.5859 17.7539 13.2832 18.2461Q13.9805 18.7383 14.6133 19.7344Q14.9297 20.2266 15.1641 20.8359Q15.3984 21.4453 15.5566 22.1309Q15.7148 22.8164 15.7969 23.5605Q15.8789 24.3047 15.8789 25.0547Q15.8789 26.8008 15.4453 28.0898Q15.0117 29.3789 14.1211 30.2285Q13.2305 31.0781 11.8418 31.4941Q10.4531 31.9102 8.54297 31.9102Q6.65625 31.9102 5.37305 31.5293Q4.08984 31.1484 3.29883 30.4219Q2.50781 29.6953 2.16211 28.623Q1.81641 27.5508 1.81641 26.1563Q1.81641 25.418 1.9043 24.5977Q1.99219 23.7773 2.15625 22.8633L3.92578 22.8633Q3.79688 23.7422 3.72656 24.4746Q3.65625 25.207 3.65625 25.8398Q3.65625 26.9531 3.9082 27.7266Q4.16016 28.5 4.74609 28.9922Q5.33203 29.4844 6.29883 29.707Q7.26563 29.9297 8.69531 29.9297Q9.90234 29.9297 10.7637 29.7598Q11.625 29.5898 12.2109 29.2969Q12.7969 29.0039 13.1426 28.5938Q13.4883 28.1836 13.6816 27.709Q13.875 27.2344 13.9395 26.7012Q14.0039 26.168 14.0273 25.6289ZM14.0039 23.7305Q13.9922 23.4375 13.8984 23.0332Q13.8047 22.6289 13.6465 22.1895Q13.4883 21.75 13.2773 21.3223Q13.0664 20.8945 12.8027 20.5488Q12.5391 20.2031 12.2461 19.9922Q11.9531 19.7813 11.6367 19.7813Q11.2969 19.7813 10.9746 20.0039Q10.6523 20.2266 10.3945 20.5781Q10.1367 20.9297 9.97852 21.375Q9.82031 21.8203 9.82031 22.2656Q9.82031 22.6992 10.0195 23.0449Q10.2188 23.3906 10.5527 23.625Q10.8867 23.8594 11.3203 23.9883Q11.7539 24.1172 12.2227 24.1172Q12.6797 24.1172 13.1367 24.041Q13.5938 23.9648 14.0039 23.7305ZM10.6875 14.6016L8.51953 14.6016L8.51953 12.4805L10.6875 12.4805L10.6875 14.6016ZM14.4609 14.6016L12.293 14.6016L12.293 12.4805L14.4609 12.4805L14.4609 14.6016Z" />
        </g>
      </g>
    </g>
    <g id="F" clip-path="url(#clip_1)">
      <path d="M0 0L0 100L100 100L100 0L0 0Z" id="F" fill="#FFFFFF" fill-opacity="0" stroke="none" transform="matrix(-1 0 0 1 267 369)" />
      <path d="M37 14L37 35.2986C37 35.2986 43.3058 22.9445 51.5 22.9445C59.6942 22.9445 64.6011 29.1772 61.5 36.9445C58.3988 44.7117 37 47.7719 37 52.9444C37 64.0053 37 85.5 37 85.5" id="Line" fill="none" fill-rule="evenodd" stroke="#000000" stroke-width="3" stroke-linecap="square" clip-path="url(#clip_2)" transform="matrix(-1 0 0 1 267 369)" />
      <g id="F" clip-path="url(#clip_2)" transform="matrix(-1 0 0 1 267 369), matrix(-1 0 0 1 100 0)">
        <g transform="translate(0, 5.7954545)" id="F" fill="#757575">
          <path d="M2.11364 23.25L2.11364 5.79545L12.5795 5.79545L12.5795 7.67045L4.22727 7.67045L4.22727 13.5682L11.7955 13.5682L11.7955 15.4432L4.22727 15.4432L4.22727 23.25L2.11364 23.25Z" />
        </g>
      </g>
    </g>
    <g id="غ" clip-path="url(#clip_1)">
      <path d="M100 0L100 0L100 100L0 100L0 0L100 0Z" id="غ" fill="#FFFFFF" fill-opacity="0" stroke="none" transform="translate(67 369)" />
      <path d="M62.6491 18.037C61.9547 17.9537 57.5993 18.037 47.6491 18.037C40.4965 18.4935 34.3788 24.4957 38.1491 31.537C41.9194 38.5784 59.2422 35.841 60.8395 36.9856C60.9355 37.6298 47.8389 32.1406 47.8389 46.9858C47.8389 55.1228 47.8389 81.9857 47.8389 81.9857" id="Line" fill="none" fill-rule="evenodd" stroke="#000000" stroke-width="3" stroke-linecap="square" clip-path="url(#clip_3)" transform="translate(67 369)" />
      <path d="M37 62.5L62 62.5" id="Line-2" fill="none" fill-rule="evenodd" stroke="#000000" stroke-width="3" stroke-linecap="square" clip-path="url(#clip_3)" transform="translate(67 369)" />
      <g id="غ" clip-path="url(#clip_3)" transform="translate(67 369), translate(0 -7)">
        <g transform="translate(0, 6.0234375)" id="غ" fill="#757575">
          <path d="M10.0781 21.0938Q8.02734 21.6328 6.66797 22.2305Q5.30859 22.8281 4.49414 23.4961Q3.67969 24.1641 3.3457 24.8965Q3.01172 25.6289 3.01172 26.4375Q3.01172 27.1875 3.28125 27.8555Q3.55078 28.5234 4.13086 29.0215Q4.71094 29.5195 5.63672 29.8125Q6.5625 30.1055 7.88672 30.1055Q9.02344 30.1055 10.1895 29.8828Q11.3555 29.6602 12.5273 29.25L12.5273 31.0547Q11.25 31.5 10.1309 31.7051Q9.01172 31.9102 7.83984 31.9102Q6.05859 31.9102 4.79883 31.4883Q3.53906 31.0664 2.73633 30.3457Q1.93359 29.625 1.55859 28.6699Q1.18359 27.7148 1.18359 26.6484Q1.18359 26.0742 1.30078 25.4883Q1.41797 24.9023 1.70508 24.3105Q1.99219 23.7188 2.47852 23.1328Q2.96484 22.5469 3.70313 21.9844Q3.25781 21.5625 2.93555 21.0879Q2.61328 20.6133 2.4082 20.1152Q2.20313 19.6172 2.10352 19.1133Q2.00391 18.6094 2.00391 18.1289Q2.00391 17.2031 2.36133 16.3477Q2.71875 15.4922 3.38672 14.8359Q4.05469 14.1797 5.02734 13.793Q6 13.4063 7.23047 13.4063Q7.64063 13.4063 8.10352 13.4531Q8.56641 13.5 9.05859 13.6055L9.05859 15.5977Q8.60156 15.5039 8.09766 15.4395Q7.59375 15.375 7.10156 15.375Q6.46875 15.375 5.87695 15.5039Q5.28516 15.6328 4.83398 15.9609Q4.38281 16.2891 4.10742 16.834Q3.83203 17.3789 3.83203 18.1992Q3.83203 19.0898 4.1543 19.834Q4.47656 20.5781 5.07422 21.082Q6.02344 20.5547 7.24805 20.0742Q8.47266 19.5938 10.0781 19.1719L10.0781 21.0938ZM6.76172 11.3438L4.59375 11.3438L4.59375 9.22266L6.76172 9.22266L6.76172 11.3438Z" />
        </g>
      </g>
    </g>
    <g id="ع" clip-path="url(#clip_1)">
      <path d="M100 0L100 0L100 100L0 100L0 0L100 0Z" id="ع" fill="#FFFFFF" fill-opacity="0" stroke="none" transform="translate(1167 205)" />
      <path d="M62.6491 18.037C61.9547 17.9537 57.5993 18.037 47.6491 18.037C40.4965 18.4935 34.3788 24.4957 38.1491 31.537C41.9194 38.5784 59.2422 35.841 60.8395 36.9856C60.9355 37.6298 47.8389 32.1406 47.8389 46.9858C47.8389 55.1228 47.8389 81.9857 47.8389 81.9857" id="Line" fill="none" fill-rule="evenodd" stroke="#000000" stroke-width="3" stroke-linecap="square" clip-path="url(#clip_3)" transform="translate(1167 205)" />
      <g id="ع" clip-path="url(#clip_3)" transform="translate(1167 205), translate(0 -8)">
        <g transform="translate(0, 6.0234375)" id="ع" fill="#757575">
          <path d="M10.0781 21.0938Q8.02734 21.6328 6.66797 22.2305Q5.30859 22.8281 4.49414 23.4961Q3.67969 24.1641 3.3457 24.8965Q3.01172 25.6289 3.01172 26.4375Q3.01172 27.1875 3.28125 27.8555Q3.55078 28.5234 4.13086 29.0215Q4.71094 29.5195 5.63672 29.8125Q6.5625 30.1055 7.88672 30.1055Q9.02344 30.1055 10.1895 29.8828Q11.3555 29.6602 12.5273 29.25L12.5273 31.0547Q11.25 31.5 10.1309 31.7051Q9.01172 31.9102 7.83984 31.9102Q6.05859 31.9102 4.79883 31.4883Q3.53906 31.0664 2.73633 30.3457Q1.93359 29.625 1.55859 28.6699Q1.18359 27.7148 1.18359 26.6484Q1.18359 26.0742 1.30078 25.4883Q1.41797 24.9023 1.70508 24.3105Q1.99219 23.7188 2.47852 23.1328Q2.96484 22.5469 3.70313 21.9844Q3.25781 21.5625 2.93555 21.0879Q2.61328 20.6133 2.4082 20.1152Q2.20313 19.6172 2.10352 19.1133Q2.00391 18.6094 2.00391 18.1289Q2.00391 17.2031 2.36133 16.3477Q2.71875 15.4922 3.38672 14.8359Q4.05469 14.1797 5.02734 13.793Q6 13.4063 7.23047 13.4063Q7.64063 13.4063 8.10352 13.4531Q8.56641 13.5 9.05859 13.6055L9.05859 15.5977Q8.60156 15.5039 8.09766 15.4395Q7.59375 15.375 7.10156 15.375Q6.46875 15.375 5.87695 15.5039Q5.28516 15.6328 4.83398 15.9609Q4.38281 16.2891 4.10742 16.834Q3.83203 17.3789 3.83203 18.1992Q3.83203 19.0898 4.1543 19.834Q4.47656 20.5781 5.07422 21.082Q6.02344 20.5547 7.24805 20.0742Q8.47266 19.5938 10.0781 19.1719L10.0781 21.0938Z" />
        </g>
      </g>
    </g>
    <g id="ظ" clip-path="url(#clip_1)">
      <path d="M0 0L0 100L100 100L100 0L0 0Z" id="ظ" fill="#FFFFFF" fill-opacity="0" stroke="none" transform="matrix(-1 0 0 1 1167 205)" />
      <g id="Group" clip-path="url(#clip_2)" transform="matrix(-1 0 0 1 1167 205), translate(27 16)">
        <g id="Oval">
          <g clip-path="url(#clip_5)">
            <use xlink:href="#path_5" fill="none" stroke="#000000" stroke-width="6" />
          </g>
        </g>
        <path d="M33.999 0C33.999 0 33.999 24.1731 33.999 37.5036C34.047 44.3087 32.499 54 32.499 54" id="Line" fill="none" fill-rule="evenodd" stroke="#000000" stroke-width="3" stroke-linecap="square" />
        <path d="M22 10L46 10" id="Line" fill="none" fill-rule="evenodd" stroke="#000000" stroke-width="3" stroke-linecap="square" />
      </g>
      <g id="ظ" clip-path="url(#clip_2)" transform="matrix(-1 0 0 1 1167 205), matrix(-1 0 0 1 100 -3)">
        <g transform="translate(0, 6.0234375)" id="ظ" fill="#757575">
          <path d="M3.99609 8.13281L5.84766 8.13281L5.84766 19.793L5.88281 19.8047Q6.42187 19.0195 7.11914 18.3047Q7.81641 17.5898 8.6543 17.0449Q9.49219 16.5 10.4531 16.1836Q11.4141 15.8672 12.4688 15.8672Q13.8867 15.8672 14.9063 16.3301Q15.9258 16.793 16.582 17.5898Q17.2383 18.3867 17.5547 19.4473Q17.8711 20.5078 17.8711 21.7031Q17.8711 22.793 17.6074 23.543Q17.3438 24.293 16.8633 24.791Q16.3828 25.2891 15.7207 25.5645Q15.0586 25.8398 14.2617 25.9688Q13.4648 26.0977 12.5625 26.127Q11.6602 26.1563 10.6992 26.1563Q8.55469 26.1563 6.99023 26.1387Q5.42578 26.1211 4.26563 26.0859Q3.10547 26.0508 2.25 25.998Q1.39453 25.9453 0.667969 25.875L0.292969 23.918Q0.820313 23.9883 1.66992 24.0293Q2.51953 24.0703 3.55078 24.082Q3.64453 23.8242 3.75586 23.5547Q3.86719 23.2852 3.99609 22.9805L3.99609 8.13281ZM10.957 24.1758Q12.2109 24.1758 13.1602 24.1172Q14.1094 24.0586 14.748 23.8301Q15.3867 23.6016 15.709 23.1387Q16.0312 22.6758 16.0313 21.8672Q16.0313 20.7656 15.7383 20.0039Q15.4453 19.2422 14.9297 18.7617Q14.4141 18.2813 13.7051 18.0645Q12.9961 17.8477 12.1641 17.8477Q11.3086 17.8477 10.5352 18.1113Q9.76172 18.375 9.08203 18.8262Q8.40234 19.2773 7.82227 19.8867Q7.24219 20.4961 6.76172 21.1934Q6.28125 21.8906 5.91797 22.6465Q5.55469 23.4023 5.30859 24.1406Q6.38672 24.1641 7.75195 24.1699Q9.11719 24.1758 10.957 24.1758ZM12.7734 13.9336L10.6055 13.9336L10.6055 11.8125L12.7734 11.8125L12.7734 13.9336Z" />
        </g>
      </g>
    </g>
    <g id="ط" clip-path="url(#clip_1)">
      <path d="M0 0L0 100L100 100L100 0L0 0Z" id="ط" fill="#FFFFFF" fill-opacity="0" stroke="none" transform="matrix(-1 0 0 1 1067 205)" />
      <g id="Group" clip-path="url(#clip_2)" transform="matrix(-1 0 0 1 1067 205), translate(33 16)">
        <g id="Oval">
          <g clip-path="url(#clip_5)">
            <use xlink:href="#path_5" fill="none" stroke="#000000" stroke-width="6" />
          </g>
        </g>
        <path d="M33.0002 0C33.0002 0 33.5 24.1731 33.5 37.5037C33.5479 44.3087 32 54 32 54" id="Line" fill="none" fill-rule="evenodd" stroke="#000000" stroke-width="3" stroke-linecap="square" />
      </g>
      <g id="ط" clip-path="url(#clip_2)" transform="matrix(-1 0 0 1 1067 205), matrix(-1 0 0 1 100 -2)">
        <g transform="translate(0, 6.0234375)" id="ط" fill="#757575">
          <path d="M3.99609 8.13281L5.84766 8.13281L5.84766 19.793L5.88281 19.8047Q6.42187 19.0195 7.11914 18.3047Q7.81641 17.5898 8.6543 17.0449Q9.49219 16.5 10.4531 16.1836Q11.4141 15.8672 12.4688 15.8672Q13.8867 15.8672 14.9063 16.3301Q15.9258 16.793 16.582 17.5898Q17.2383 18.3867 17.5547 19.4473Q17.8711 20.5078 17.8711 21.7031Q17.8711 22.793 17.6074 23.543Q17.3438 24.293 16.8633 24.791Q16.3828 25.2891 15.7207 25.5645Q15.0586 25.8398 14.2617 25.9688Q13.4648 26.0977 12.5625 26.127Q11.6602 26.1563 10.6992 26.1563Q8.55469 26.1563 6.99023 26.1387Q5.42578 26.1211 4.26563 26.0859Q3.10547 26.0508 2.25 25.998Q1.39453 25.9453 0.667969 25.875L0.292969 23.918Q0.820313 23.9883 1.66992 24.0293Q2.51953 24.0703 3.55078 24.082Q3.64453 23.8242 3.75586 23.5547Q3.86719 23.2852 3.99609 22.9805L3.99609 8.13281ZM10.957 24.1758Q12.2109 24.1758 13.1602 24.1172Q14.1094 24.0586 14.748 23.8301Q15.3867 23.6016 15.709 23.1387Q16.0312 22.6758 16.0313 21.8672Q16.0313 20.7656 15.7383 20.0039Q15.4453 19.2422 14.9297 18.7617Q14.4141 18.2813 13.7051 18.0645Q12.9961 17.8477 12.1641 17.8477Q11.3086 17.8477 10.5352 18.1113Q9.76172 18.375 9.08203 18.8262Q8.40234 19.2773 7.82227 19.8867Q7.24219 20.4961 6.76172 21.1934Q6.28125 21.8906 5.91797 22.6465Q5.55469 23.4023 5.30859 24.1406Q6.38672 24.1641 7.75195 24.1699Q9.11719 24.1758 10.957 24.1758Z" />
        </g>
      </g>
    </g>
    <g id="ض" clip-path="url(#clip_1)">
      <path d="M0 0L0 100L100 100L100 0L0 0Z" id="ض" fill="#FFFFFF" fill-opacity="0" stroke="none" transform="matrix(-1 0 0 1 967 205)" />
      <g id="Group" clip-path="url(#clip_2)" transform="matrix(-1 0 0 1 967 205), translate(27 19)">
        <g id="Oval">
          <g clip-path="url(#clip_6)">
            <use xlink:href="#path_6" fill="none" stroke="#000000" stroke-width="6" />
          </g>
        </g>
        <path d="M24.5002 0L24.5002 32.5363C24.5002 32.5363 24.8183 49.2837 22 55.8888C18.3954 64.3367 1.46097e-06 61.5649 1.46097e-06 61.5649" id="Line" fill="none" fill-rule="evenodd" stroke="#000000" stroke-width="3" stroke-linecap="square" />
        <path d="M12 5L36 5" id="Line" fill="none" fill-rule="evenodd" stroke="#000000" stroke-width="3" stroke-linecap="square" />
      </g>
      <g id="ض" clip-path="url(#clip_2)" transform="matrix(-1 0 0 1 967 205), matrix(-1 0 0 1 100 -8)">
        <g transform="translate(0, 6.0234375)" id="ض" fill="#757575">
          <path d="M22.7227 26.1563Q20.8359 26.1563 19.4824 26.1504Q18.1289 26.1445 17.209 26.127Q16.2891 26.1094 15.7383 26.0625Q15.1875 26.0156 14.9063 25.9336Q14.543 25.8281 14.3086 25.6582Q14.0742 25.4883 13.8633 25.2422L13.8047 25.2539Q13.7695 26.8008 13.4121 28.0371Q13.0547 29.2734 12.2988 30.1348Q11.543 30.9961 10.3418 31.4531Q9.14062 31.9102 7.40625 31.9102Q5.8125 31.9102 4.74023 31.5059Q3.66797 31.1016 3.01758 30.3574Q2.36719 29.6133 2.0918 28.541Q1.81641 27.4688 1.81641 26.1328Q1.81641 25.3828 1.9043 24.5801Q1.99219 23.7773 2.15625 22.8633L3.92578 22.8633Q3.79688 23.7422 3.72656 24.4863Q3.65625 25.2305 3.65625 25.8984Q3.65625 27.0117 3.86719 27.7852Q4.07813 28.5586 4.54102 29.0332Q5.00391 29.5078 5.74219 29.7188Q6.48047 29.9297 7.53516 29.9297Q8.76563 29.9297 9.62695 29.6426Q10.4883 29.3555 11.0332 28.7109Q11.5781 28.0664 11.8301 27.0176Q12.082 25.9688 12.082 24.457Q12.082 23.4844 11.9766 22.3301Q11.8711 21.1758 11.6016 19.8867L13.4063 19.8867Q13.5352 20.625 13.6113 21.293Q13.6875 21.9609 13.7813 22.6406Q13.8164 22.9102 13.916 23.1621Q14.0156 23.4141 14.209 23.6133Q14.4023 23.8125 14.7188 23.9355Q15.0352 24.0586 15.5039 24.082Q15.7852 23.3203 16.2305 22.4414Q16.6758 21.5625 17.2793 20.6895Q17.8828 19.8164 18.6387 19.002Q19.3945 18.1875 20.2969 17.5664Q21.1992 16.9453 22.2539 16.5703Q23.3086 16.1953 24.4922 16.1953Q25.9102 16.1953 26.9297 16.6348Q27.9492 17.0742 28.6055 17.8242Q29.2617 18.5742 29.5781 19.5762Q29.8945 20.5781 29.8945 21.7031Q29.8945 22.793 29.6309 23.543Q29.3672 24.293 28.8867 24.791Q28.4062 25.2891 27.7441 25.5645Q27.082 25.8398 26.2852 25.9688Q25.4883 26.0977 24.5801 26.127Q23.6719 26.1563 22.7227 26.1563ZM22.9805 24.1758Q24.2344 24.1758 25.1836 24.1172Q26.1328 24.0586 26.7715 23.8301Q27.4102 23.6016 27.7324 23.1387Q28.0547 22.6758 28.0547 21.8672Q28.0547 20.8594 27.7617 20.1563Q27.4688 19.4531 26.9531 19.0137Q26.4375 18.5742 25.7285 18.375Q25.0195 18.1758 24.1875 18.1758Q23.332 18.1758 22.5527 18.4219Q21.7734 18.668 21.0879 19.0957Q20.4023 19.5234 19.8105 20.1035Q19.2187 20.6836 18.7383 21.3457Q18.2578 22.0078 17.8887 22.7227Q17.5195 23.4375 17.2734 24.1406Q18.3516 24.1641 19.7461 24.1699Q21.1406 24.1758 22.9805 24.1758ZM21.457 13.9336L19.2891 13.9336L19.2891 11.8125L21.457 11.8125L21.457 13.9336Z" />
        </g>
      </g>
    </g>
    <g id="ص" clip-path="url(#clip_1)">
      <path d="M0 0L0 100L100 100L100 0L0 0Z" id="ص" fill="#FFFFFF" fill-opacity="0" stroke="none" transform="matrix(-1 0 0 1 867 205)" />
      <g id="Group" clip-path="url(#clip_2)" transform="matrix(-1 0 0 1 867 205), translate(37 19)">
        <g id="Oval">
          <g clip-path="url(#clip_6)">
            <use xlink:href="#path_6" fill="none" stroke="#000000" stroke-width="6" />
          </g>
        </g>
        <path d="M24.5002 0L24.5002 32.5363C24.5002 32.5363 24.8183 49.2837 22 55.8888C18.3954 64.3367 1.46097e-06 61.5649 1.46097e-06 61.5649" id="Line" fill="none" fill-rule="evenodd" stroke="#000000" stroke-width="3" stroke-linecap="square" />
      </g>
      <g id="ص" clip-path="url(#clip_2)" transform="matrix(-1 0 0 1 867 205), matrix(-1 0 0 1 100 -9)">
        <g transform="translate(0, 6.0234375)" id="ص" fill="#757575">
          <path d="M22.7227 26.1563Q20.8359 26.1563 19.4824 26.1504Q18.1289 26.1445 17.209 26.127Q16.2891 26.1094 15.7383 26.0625Q15.1875 26.0156 14.9063 25.9336Q14.543 25.8281 14.3086 25.6582Q14.0742 25.4883 13.8633 25.2422L13.8047 25.2539Q13.7695 26.8008 13.4121 28.0371Q13.0547 29.2734 12.2988 30.1348Q11.543 30.9961 10.3418 31.4531Q9.14062 31.9102 7.40625 31.9102Q5.8125 31.9102 4.74023 31.5059Q3.66797 31.1016 3.01758 30.3574Q2.36719 29.6133 2.0918 28.541Q1.81641 27.4688 1.81641 26.1328Q1.81641 25.3828 1.9043 24.5801Q1.99219 23.7773 2.15625 22.8633L3.92578 22.8633Q3.79688 23.7422 3.72656 24.4863Q3.65625 25.2305 3.65625 25.8984Q3.65625 27.0117 3.86719 27.7852Q4.07813 28.5586 4.54102 29.0332Q5.00391 29.5078 5.74219 29.7188Q6.48047 29.9297 7.53516 29.9297Q8.76563 29.9297 9.62695 29.6426Q10.4883 29.3555 11.0332 28.7109Q11.5781 28.0664 11.8301 27.0176Q12.082 25.9688 12.082 24.457Q12.082 23.4844 11.9766 22.3301Q11.8711 21.1758 11.6016 19.8867L13.4063 19.8867Q13.5352 20.625 13.6113 21.293Q13.6875 21.9609 13.7813 22.6406Q13.8164 22.9102 13.916 23.1621Q14.0156 23.4141 14.209 23.6133Q14.4023 23.8125 14.7188 23.9355Q15.0352 24.0586 15.5039 24.082Q15.7852 23.3203 16.2305 22.4414Q16.6758 21.5625 17.2793 20.6895Q17.8828 19.8164 18.6387 19.002Q19.3945 18.1875 20.2969 17.5664Q21.1992 16.9453 22.2539 16.5703Q23.3086 16.1953 24.4922 16.1953Q25.9102 16.1953 26.9297 16.6348Q27.9492 17.0742 28.6055 17.8242Q29.2617 18.5742 29.5781 19.5762Q29.8945 20.5781 29.8945 21.7031Q29.8945 22.793 29.6309 23.543Q29.3672 24.293 28.8867 24.791Q28.4062 25.2891 27.7441 25.5645Q27.082 25.8398 26.2852 25.9688Q25.4883 26.0977 24.5801 26.127Q23.6719 26.1563 22.7227 26.1563ZM22.9805 24.1758Q24.2344 24.1758 25.1836 24.1172Q26.1328 24.0586 26.7715 23.8301Q27.4102 23.6016 27.7324 23.1387Q28.0547 22.6758 28.0547 21.8672Q28.0547 20.8594 27.7617 20.1563Q27.4688 19.4531 26.9531 19.0137Q26.4375 18.5742 25.7285 18.375Q25.0195 18.1758 24.1875 18.1758Q23.332 18.1758 22.5527 18.4219Q21.7734 18.668 21.0879 19.0957Q20.4023 19.5234 19.8105 20.1035Q19.2187 20.6836 18.7383 21.3457Q18.2578 22.0078 17.8887 22.7227Q17.5195 23.4375 17.2734 24.1406Q18.3516 24.1641 19.7461 24.1699Q21.1406 24.1758 22.9805 24.1758Z" />
        </g>
      </g>
    </g>
    <g id="ش" clip-path="url(#clip_1)">
      <path d="M0 0L0 100L100 100L100 0L0 0Z" id="ش" fill="#FFFFFF" fill-opacity="0" stroke="none" transform="matrix(-1 0 0 1 767 205)" />
      <g id="Group" clip-path="url(#clip_2)" transform="matrix(-1 0 0 1 767 205), translate(30.000097 19)">
        <path d="M24.9999 13.6597C24.9999 13.6597 31.3749 17.2847 34.9999 15.1597C38.6249 13.0347 40.8677 9.37272 39.4999 5.15968C38.1322 0.946652 28.8247 -3.21531 25.433 3.65971C22.0413 10.5347 27.9331 31.123 22.4331 37.4981C16.9331 43.8731 1.43308 38.4981 1.43308 38.4981" id="Line" fill="none" fill-rule="evenodd" stroke="#000000" stroke-width="3" stroke-linecap="square" />
        <path d="M25.0001 28.5132C25.0001 28.5132 26.5001 51.1382 21.0001 57.5132C15.5 63.8882 0 61.0132 0 61.0132" id="Line-Copy" fill="none" fill-rule="evenodd" stroke="#000000" stroke-width="3" stroke-linecap="square" />
      </g>
      <g id="ش" clip-path="url(#clip_2)" transform="matrix(-1 0 0 1 767 205), matrix(-1 0 0 1 100 -9)">
        <g transform="translate(0, 6.0234375)" id="ش" fill="#757575">
          <path d="M13.5 19.8867Q13.5937 20.625 13.6641 21.2813Q13.7344 21.9375 13.793 22.5938Q13.8633 23.3672 14.3789 23.7363Q14.8945 24.1055 15.9961 24.1055Q16.3945 24.1055 16.7637 24.0117Q17.1328 23.918 17.4141 23.6719Q17.6953 23.4258 17.8652 23.0039Q18.0352 22.582 18.0352 21.9258L18.0352 18.7969L19.8633 18.7969L19.8633 21.1172Q19.8633 21.9023 19.9277 22.4648Q19.9922 23.0273 20.2207 23.3906Q20.4492 23.7539 20.8711 23.9297Q21.293 24.1055 22.0195 24.1055Q22.4648 24.1055 22.8398 24.0176Q23.2148 23.9297 23.4844 23.6836Q23.7539 23.4375 23.9004 23.0156Q24.0469 22.5938 24.0469 21.9258L24.0469 16.7227L25.875 16.7227L25.875 22.0781Q25.875 23.3438 25.5469 24.123Q25.2188 24.9023 24.6738 25.3359Q24.1289 25.7695 23.4258 25.916Q22.7227 26.0625 21.9844 26.0625Q21.4688 26.0625 21.0059 25.9863Q20.543 25.9102 20.1563 25.7461Q19.7695 25.582 19.4648 25.3066Q19.1602 25.0313 18.9492 24.6211L18.9023 24.6211Q18.6094 25.0313 18.2402 25.3066Q17.8711 25.582 17.4727 25.752Q17.0742 25.9219 16.6641 25.9922Q16.2539 26.0625 15.8906 26.0625Q15.1172 26.0625 14.6367 25.8398Q14.1563 25.6172 13.8633 25.2422L13.8047 25.2539Q13.7695 26.8008 13.4121 28.0371Q13.0547 29.2734 12.3047 30.1348Q11.5547 30.9961 10.3594 31.4531Q9.16406 31.9102 7.46484 31.9102Q5.84766 31.9102 4.76367 31.5059Q3.67969 31.1016 3.02344 30.3574Q2.36719 29.6133 2.0918 28.541Q1.81641 27.4688 1.81641 26.1328Q1.81641 25.3828 1.9043 24.5801Q1.99219 23.7773 2.15625 22.8633L3.92578 22.8633Q3.79688 23.7422 3.72656 24.4863Q3.65625 25.2305 3.65625 25.8984Q3.65625 27.0117 3.86719 27.7852Q4.07813 28.5586 4.54102 29.0332Q5.00391 29.5078 5.74219 29.7188Q6.48047 29.9297 7.53516 29.9297Q8.76563 29.9297 9.62695 29.6426Q10.4883 29.3555 11.0332 28.7109Q11.5781 28.0664 11.8301 27.0176Q12.082 25.9688 12.082 24.457Q12.082 23.4844 11.9766 22.3887Q11.8711 21.293 11.6836 19.8867L13.5 19.8867ZM18.0234 15.9375L15.8555 15.9375L15.8555 13.8164L18.0234 13.8164L18.0234 15.9375ZM21.7969 15.9375L19.6289 15.9375L19.6289 13.8164L21.7969 13.8164L21.7969 15.9375ZM19.9102 12.6563L17.7422 12.6563L17.7422 10.5352L19.9102 10.5352L19.9102 12.6563Z" />
        </g>
      </g>
    </g>
    <g id="S" clip-path="url(#clip_1)">
      <path d="M0 0L0 100L100 100L100 0L0 0Z" id="S" fill="#FFFFFF" fill-opacity="0" stroke="none" transform="matrix(-1 0 0 1 667 205)" />
      <g id="Group" clip-path="url(#clip_2)" transform="matrix(-1 0 0 1 667 205), translate(30.000097 19)">
        <path d="M39.4999 5.85355C39.4999 5.85355 28.8247 -4.52145 25.4329 2.35356C22.0412 9.22858 27.9331 29.8169 22.4331 36.1919C16.9331 42.5669 1.43302 37.1919 1.43302 37.1919" id="Line" fill="none" fill-rule="evenodd" stroke="#000000" stroke-width="3" stroke-linecap="square" />
        <path d="M25.0001 27.207C25.0001 27.207 26.5001 49.832 21.0001 56.207C15.5 62.5821 0 59.7071 0 59.7071" id="Line-Copy" fill="none" fill-rule="evenodd" stroke="#000000" stroke-width="3" stroke-linecap="square" />
      </g>
      <g id="S" clip-path="url(#clip_2)" transform="matrix(-1 0 0 1 667 205), matrix(-1 0 0 1 100 0)">
        <g transform="translate(0, 5.7954545)" id="S" fill="#757575">
          <path d="M11.6591 10.1591Q11.5057 8.86364 10.4148 8.14773Q9.32386 7.43182 7.73864 7.43182Q6 7.43182 4.94318 8.25426Q3.88636 9.0767 3.88636 10.3295Q3.88636 11.267 4.46165 11.8423Q5.03693 12.4176 5.82528 12.7372Q6.61364 13.0568 7.26136 13.2273L9.03409 13.7045Q9.71591 13.8835 10.5554 14.1989Q11.3949 14.5142 12.1662 15.0554Q12.9375 15.5966 13.4403 16.4403Q13.9432 17.2841 13.9432 18.5114Q13.9432 19.9261 13.206 21.0682Q12.4688 22.2102 11.0582 22.8835Q9.64773 23.5568 7.63636 23.5568Q4.82386 23.5568 3.17045 22.2273Q1.51705 20.8977 1.36364 18.75L3.54545 18.75Q3.63068 19.7386 4.21449 20.3821Q4.7983 21.0256 5.69744 21.3366Q6.59659 21.6477 7.63636 21.6477Q8.84659 21.6477 9.80966 21.2514Q10.7727 20.8551 11.3352 20.1435Q11.8977 19.4318 11.8977 18.4773Q11.8977 17.608 11.4119 17.0625Q10.9261 16.517 10.1335 16.1761Q9.34091 15.8352 8.42045 15.5795L6.27273 14.9659Q4.22727 14.3778 3.03409 13.2869Q1.84091 12.196 1.84091 10.4318Q1.84091 8.96591 2.63778 7.87074Q3.43466 6.77557 4.78551 6.16619Q6.13636 5.55682 7.80682 5.55682Q9.49432 5.55682 10.8068 6.15767Q12.1193 6.75852 12.8906 7.79829Q13.6619 8.83807 13.7045 10.1591L11.6591 10.1591Z" />
        </g>
      </g>
    </g>
    <g id="Z" clip-path="url(#clip_1)">
      <path d="M0 0L0 100L100 100L100 0L0 0Z" id="Z" fill="#FFFFFF" fill-opacity="0" stroke="none" transform="matrix(-1 0 0 1 567 205)" />
      <path d="M60.6406 12C60.6406 12 60.6406 55.8375 60.6406 67.5001C60.6409 73.9985 56.7652 47.9081 45.0209 56.3913C37.0767 61.2301 37.6713 78.9129 38.3895 88" id="Line" fill="none" fill-rule="evenodd" stroke="#000000" stroke-width="3" stroke-linecap="square" clip-path="url(#clip_2)" transform="matrix(-1 0 0 1 567 205)" />
      <path d="M50.5 18L70.5 18" id="Line-2" fill="none" fill-rule="evenodd" stroke="#000000" stroke-width="3" stroke-linecap="square" clip-path="url(#clip_2)" transform="matrix(-1 0 0 1 567 205)" />
      <g id="Z" clip-path="url(#clip_2)" transform="matrix(-1 0 0 1 567 205), matrix(-1 0 0 1 100 0)">
        <g transform="translate(0, 5.7954545)" id="Z" fill="#757575">
          <path d="M1.53409 23.25L1.53409 21.7159L10.9432 7.67045L1.43182 7.67045L1.43182 5.79545L13.4659 5.79545L13.4659 7.32954L4.05682 21.375L13.5682 21.375L13.5682 23.25L1.53409 23.25Z" />
        </g>
      </g>
    </g>
    <g id="R" clip-path="url(#clip_1)">
      <path d="M0 0L0 100L100 100L100 0L0 0Z" id="R" fill="#FFFFFF" fill-opacity="0" stroke="none" transform="matrix(-1 0 0 1 467 205)" />
      <path d="M60.6406 12C60.6406 12 60.6406 55.8375 60.6406 67.5001C60.6409 73.9985 56.7652 47.9081 45.0209 56.3913C37.0767 61.2301 37.6713 78.9129 38.3895 88" id="Line" fill="none" fill-rule="evenodd" stroke="#000000" stroke-width="3" stroke-linecap="square" clip-path="url(#clip_2)" transform="matrix(-1 0 0 1 467 205)" />
      <g id="R" clip-path="url(#clip_2)" transform="matrix(-1 0 0 1 467 205), matrix(-1 0 0 1 100 0)">
        <g transform="translate(0, 5.7954545)" id="R" fill="#757575">
          <path d="M2.11364 23.25L2.11364 5.79545L8.01136 5.79545Q10.0568 5.79545 11.3693 6.49006Q12.6818 7.18466 13.3125 8.39489Q13.9432 9.60511 13.9432 11.1477Q13.9432 12.8864 13.1463 14.1776Q12.3494 15.4688 10.679 16.0398L14.625 23.25L12.1705 23.25L8.48864 16.4233Q8.27557 16.4318 8.04545 16.4318L4.22727 16.4318L4.22727 23.25L2.11364 23.25ZM4.22727 14.5227L7.97727 14.5227Q10.0739 14.5227 10.9688 13.6193Q11.8636 12.7159 11.8636 11.1477Q11.8636 9.57102 10.9645 8.62074Q10.0653 7.67046 7.94318 7.67045L4.22727 7.67045L4.22727 14.5227Z" />
        </g>
      </g>
    </g>
    <g id="ذ" clip-path="url(#clip_1)">
      <path d="M0 0L0 100L100 100L100 0L0 0Z" id="ذ" fill="#FFFFFF" fill-opacity="0" stroke="none" transform="matrix(-1 0 0 1 383 205)" />
      <g id="Line" clip-path="url(#clip_2)" transform="matrix(-1 0 0 1 383 205), translate(37 15)">
        <path d="M0 7.52446L20.6732 0" id="Line" fill="none" fill-rule="evenodd" stroke="#000000" stroke-width="3" stroke-linecap="square" />
        <path d="M9.25001 0.524414C9.25001 0.524414 23.5555 34.8652 24 54.0244C24.4445 73.1836 8.00001 69.0245 8.00001 69.0245" id="Line-2" fill="none" fill-rule="evenodd" stroke="#000000" stroke-width="3" stroke-linecap="square" />
      </g>
      <g id="ذ" clip-path="url(#clip_2)" transform="matrix(-1 0 0 1 383 205), matrix(-1 0 0 1 100 -8)">
        <g transform="translate(0, 6.0234375)" id="ذ" fill="#757575">
          <path d="M0.960938 23.918Q2.09766 24.0469 3.07031 24.1113Q4.04297 24.1758 4.71094 24.1758Q5.63672 24.1758 6.26953 24.0527Q6.90234 23.9297 7.28906 23.6719Q7.67578 23.4141 7.8457 23.0156Q8.01562 22.6172 8.01563 22.0664Q8.01563 21.2109 7.66992 20.2969Q7.32422 19.3828 6.76172 18.4512Q6.19922 17.5195 5.47852 16.5762Q4.75781 15.6328 4.00781 14.7188L6.17578 14.7188Q8.03906 16.793 8.95313 18.6738Q9.86719 20.5547 9.86719 22.2539Q9.86719 23.4141 9.44531 24.1641Q9.02344 24.9141 8.30859 25.3594Q7.59375 25.8047 6.65625 25.9805Q5.71875 26.1563 4.69922 26.1563Q4.01953 26.1563 3.11719 26.0859Q2.21484 26.0156 1.33594 25.8984L0.960938 23.918ZM6.09375 11.9297L3.92578 11.9297L3.92578 9.80859L6.09375 9.80859L6.09375 11.9297Z" />
        </g>
      </g>
    </g>
    <g id="D" clip-path="url(#clip_1)">
      <path d="M0 0L0 100L100 100L100 0L0 0Z" id="D" fill="#FFFFFF" fill-opacity="0" stroke="none" transform="matrix(-1 0 0 1 275 205)" />
      <path d="M42.25 15C42.25 15 56.5555 49.3408 57 68.5C57.4445 87.6592 41 83.5 41 83.5" id="Line" fill="none" fill-rule="evenodd" stroke="#000000" stroke-width="3" stroke-linecap="square" clip-path="url(#clip_2)" transform="matrix(-1 0 0 1 275 205)" />
      <g id="D" clip-path="url(#clip_2)" transform="matrix(-1 0 0 1 275 205), matrix(-1 0 0 1 100 0)">
        <g transform="translate(0, 5.7954545)" id="D" fill="#757575">
          <path d="M7.5 23.25L2.11364 23.25L2.11364 5.79545L7.73864 5.79545Q10.2784 5.79545 12.0852 6.83949Q13.892 7.88352 14.8551 9.83097Q15.8182 11.7784 15.8182 14.4886Q15.8182 17.2159 14.8466 19.1804Q13.875 21.1449 12.017 22.1974Q10.1591 23.25 7.5 23.25ZM4.22727 21.375L7.36364 21.375Q10.6108 21.375 12.1918 19.5298Q13.7727 17.6847 13.7727 14.4886Q13.7727 11.3182 12.2216 9.49432Q10.6705 7.67046 7.60227 7.67045L4.22727 7.67045L4.22727 21.375Z" />
        </g>
      </g>
    </g>
    <g id="خ" clip-path="url(#clip_1)">
      <path d="M100 0L100 0L100 100L0 100L0 0L100 0Z" id="خ" fill="#FFFFFF" fill-opacity="0" stroke="none" transform="translate(67 205)" />
      <path d="M26 79.8605C26 79.8605 46.9858 90.3779 48.2012 79.8605C48.2012 73.1626 48.2012 55.5397 48.2012 43.9271C48.2012 31.5397 48.2012 27.5661 48.2012 19.262C48.2012 10.958 68.861 12.3635 73.8506 15.8605C78.8403 19.3575 79.9006 26.2714 73.8506 30.3605C67.8007 34.4495 51.8224 30.9355 49.7012 31.8099" id="Line" fill="none" fill-rule="evenodd" stroke="#000000" stroke-width="3" stroke-linecap="square" clip-path="url(#clip_3)" transform="translate(67 205)" />
      <g id="خ" clip-path="url(#clip_3)" transform="translate(67 205), translate(0 -10)">
        <g transform="translate(0, 6.0234375)" id="خ" fill="#757575">
          <path d="M12.1406 19.8867Q9.60938 20.5547 7.91016 21.293Q6.21094 22.0313 5.18555 22.8398Q4.16016 23.6484 3.73242 24.5391Q3.30469 25.4297 3.30469 26.3906Q3.30469 27.1641 3.57422 27.8438Q3.84375 28.5234 4.42969 29.0273Q5.01562 29.5313 5.93555 29.8184Q6.85547 30.1055 8.16797 30.1055Q9.30469 30.1055 10.4473 29.8828Q11.5898 29.6602 12.7617 29.25L12.7617 31.0547Q11.4844 31.5 10.377 31.7051Q9.26953 31.9102 8.10938 31.9102Q6.32812 31.9102 5.06836 31.4883Q3.80859 31.0664 3.01172 30.3457Q2.21484 29.625 1.8457 28.6699Q1.47656 27.7148 1.47656 26.6367Q1.47656 25.9805 1.62305 25.2949Q1.76953 24.6094 2.12695 23.918Q2.48438 23.2266 3.07031 22.5469Q3.65625 21.8672 4.54102 21.2285Q5.42578 20.5898 6.62695 20.0098Q7.82813 19.4297 9.41016 18.9375L9.41016 18.8438Q8.82422 18.6563 8.37305 18.4688Q7.92188 18.2813 7.44727 18.1348Q6.97266 17.9883 6.39258 17.9004Q5.8125 17.8125 4.95703 17.8125Q4.07813 17.8125 3.32813 17.9355Q2.57813 18.0586 2.00391 18.2344L2.00391 16.3945Q2.64844 16.1836 3.42773 16.0488Q4.20703 15.9141 5.12109 15.9141Q5.96484 15.9141 6.60352 16.043Q7.24219 16.1719 7.78711 16.3652Q8.33203 16.5586 8.81836 16.7871Q9.30469 17.0156 9.84961 17.2148Q10.3945 17.4141 11.0332 17.5488Q11.6719 17.6836 12.5156 17.6953L12.1406 19.8867ZM8.09766 13.4648L5.92969 13.4648L5.92969 11.3438L8.09766 11.3438L8.09766 13.4648Z" />
        </g>
      </g>
    </g>
    <g id="ح" clip-path="url(#clip_1)">
      <path d="M100 0L100 0L100 100L0 100L0 0L100 0Z" id="ح" fill="#FFFFFF" fill-opacity="0" stroke="none" transform="translate(1167 43)" />
      <path d="M76 18.4461C76 18.4461 54.4985 7.83705 52.6495 18.4461C52.6495 25.144 52.6495 42.767 52.6495 54.3796C52.6495 66.767 52.6495 70.7406 52.6495 79.0448C52.2228 88.2023 34.1092 89.5554 27 82.4463" id="Line" fill="none" fill-rule="evenodd" stroke="#000000" stroke-width="3" stroke-linecap="square" clip-path="url(#clip_3)" transform="translate(1167 43)" />
      <g id="ح" clip-path="url(#clip_3)" transform="translate(1167 43), translate(0 -12)">
        <g transform="translate(0, 6.0234375)" id="ح" fill="#757575">
          <path d="M12.1406 19.8867Q9.60938 20.5547 7.91016 21.293Q6.21094 22.0313 5.18555 22.8398Q4.16016 23.6484 3.73242 24.5391Q3.30469 25.4297 3.30469 26.3906Q3.30469 27.1641 3.57422 27.8438Q3.84375 28.5234 4.42969 29.0273Q5.01562 29.5313 5.93555 29.8184Q6.85547 30.1055 8.16797 30.1055Q9.30469 30.1055 10.4473 29.8828Q11.5898 29.6602 12.7617 29.25L12.7617 31.0547Q11.4844 31.5 10.377 31.7051Q9.26953 31.9102 8.10938 31.9102Q6.32812 31.9102 5.06836 31.4883Q3.80859 31.0664 3.01172 30.3457Q2.21484 29.625 1.8457 28.6699Q1.47656 27.7148 1.47656 26.6367Q1.47656 25.9805 1.62305 25.2949Q1.76953 24.6094 2.12695 23.918Q2.48438 23.2266 3.07031 22.5469Q3.65625 21.8672 4.54102 21.2285Q5.42578 20.5898 6.62695 20.0098Q7.82813 19.4297 9.41016 18.9375L9.41016 18.8438Q8.82422 18.6563 8.37305 18.4688Q7.92188 18.2813 7.44727 18.1348Q6.97266 17.9883 6.39258 17.9004Q5.8125 17.8125 4.95703 17.8125Q4.07813 17.8125 3.32813 17.9355Q2.57813 18.0586 2.00391 18.2344L2.00391 16.3945Q2.64844 16.1836 3.42773 16.0488Q4.20703 15.9141 5.12109 15.9141Q5.96484 15.9141 6.60352 16.043Q7.24219 16.1719 7.78711 16.3652Q8.33203 16.5586 8.81836 16.7871Q9.30469 17.0156 9.84961 17.2148Q10.3945 17.4141 11.0332 17.5488Q11.6719 17.6836 12.5156 17.6953L12.1406 19.8867Z" />
        </g>
      </g>
    </g>
    <g id="ج" clip-path="url(#clip_1)">
      <path d="M100 0L100 0L100 100L0 100L0 0L100 0Z" id="ج" fill="#FFFFFF" fill-opacity="0" stroke="none" transform="translate(1067 43)" />
      <path d="M78 17.7779C78 17.7779 57.0142 7.26053 55.7988 17.7779C55.7988 24.4758 55.7988 42.0987 55.7988 53.7113C55.7988 66.0988 55.7988 70.0723 55.7988 78.3764C55.7988 86.6805 35.139 85.2749 30.1494 81.7779C25.1597 78.2809 24.0994 71.367 30.1494 67.2779C36.1993 63.1889 52.1776 66.7029 54.2988 65.8285" id="Line" fill="none" fill-rule="evenodd" stroke="#000000" stroke-width="3" stroke-linecap="square" clip-path="url(#clip_3)" transform="translate(1067 43)" />
      <g id="ج" clip-path="url(#clip_3)" transform="translate(1067 43), translate(0 -9)">
        <g transform="translate(0, 6.0234375)" id="ج" fill="#757575">
          <path d="M12.1406 19.8867Q9.60938 20.5547 7.91016 21.293Q6.21094 22.0313 5.18555 22.8398Q4.16016 23.6484 3.73242 24.5391Q3.30469 25.4297 3.30469 26.3906Q3.30469 27.1641 3.57422 27.8438Q3.84375 28.5234 4.42969 29.0273Q5.01562 29.5313 5.93555 29.8184Q6.85547 30.1055 8.16797 30.1055Q9.30469 30.1055 10.4473 29.8828Q11.5898 29.6602 12.7617 29.25L12.7617 31.0547Q11.4844 31.5 10.377 31.7051Q9.26953 31.9102 8.10938 31.9102Q6.32812 31.9102 5.06836 31.4883Q3.80859 31.0664 3.01172 30.3457Q2.21484 29.625 1.8457 28.6699Q1.47656 27.7148 1.47656 26.6367Q1.47656 25.9805 1.62305 25.2949Q1.76953 24.6094 2.12695 23.918Q2.48438 23.2266 3.07031 22.5469Q3.65625 21.8672 4.54102 21.2285Q5.42578 20.5898 6.62695 20.0098Q7.82813 19.4297 9.41016 18.9375L9.41016 18.8438Q8.82422 18.6563 8.37305 18.4688Q7.92188 18.2813 7.44727 18.1348Q6.97266 17.9883 6.39258 17.9004Q5.8125 17.8125 4.95703 17.8125Q4.07813 17.8125 3.32813 17.9355Q2.57813 18.0586 2.00391 18.2344L2.00391 16.3945Q2.64844 16.1836 3.42773 16.0488Q4.20703 15.9141 5.12109 15.9141Q5.96484 15.9141 6.60352 16.043Q7.24219 16.1719 7.78711 16.3652Q8.33203 16.5586 8.81836 16.7871Q9.30469 17.0156 9.84961 17.2148Q10.3945 17.4141 11.0332 17.5488Q11.6719 17.6836 12.5156 17.6953L12.1406 19.8867ZM9.43359 26.5313L7.26563 26.5313L7.26563 24.4102L9.43359 24.4102L9.43359 26.5313Z" />
        </g>
      </g>
    </g>
    <g id="ث" clip-path="url(#clip_1)">
      <path d="M0 0L0 100L100 100L100 0L0 0Z" id="ث" fill="#FFFFFF" fill-opacity="0" stroke="none" transform="matrix(-1 0 0 1 1067 43)" />
      <path d="M27.998 60L51.998 60" id="Line-2" fill="none" fill-rule="evenodd" stroke="#000000" stroke-width="3" stroke-linecap="square" clip-path="url(#clip_2)" transform="matrix(-1 0 0 1 1067 43)" />
      <path d="M39 80.6023C39 80.6023 39 56.2815 39 44.6689C39 32.2816 59.5 40.9434 59.5 29.7232C59.5 25.5133 57.7983 22.6731 53.0066 20.0039C48.215 17.3348 39 18.1022 39 18.1022" id="Line" fill="none" fill-rule="evenodd" stroke="#000000" stroke-width="3" stroke-linecap="square" clip-path="url(#clip_2)" transform="matrix(-1 0 0 1 1067 43)" />
      <g id="ث" clip-path="url(#clip_2)" transform="matrix(-1 0 0 1 1067 43), matrix(-1 0 0 1 100 -4)">
        <g transform="translate(0, 6.0234375)" id="ث" fill="#757575">
          <path d="M4.14844 18.7852Q4.04297 19.2891 3.94336 19.8809Q3.84375 20.4727 3.84375 21.1055Q3.84375 21.8086 4.01953 22.3887Q4.19531 22.9688 4.75781 23.3789Q5.09766 23.625 5.63672 23.7832Q6.17578 23.9414 7.02539 24.0293Q7.875 24.1172 9.10547 24.1465Q10.3359 24.1758 12.0586 24.1758Q13.5586 24.1758 14.6836 24.1172Q15.8086 24.0586 16.5527 23.8184Q17.2969 23.5781 17.666 23.0918Q18.0352 22.6055 18.0352 21.7617L18.0352 16.7227L19.8633 16.7227L19.8633 21.8438Q19.8633 22.8984 19.5645 23.625Q19.2656 24.3516 18.7207 24.832Q18.1758 25.3125 17.4199 25.5762Q16.6641 25.8398 15.7617 25.9688Q14.8594 26.0977 13.834 26.127Q12.8086 26.1563 11.7188 26.1563Q10.1484 26.1563 8.84766 26.1387Q7.54688 26.1211 6.49805 25.998Q5.44922 25.875 4.6582 25.6113Q3.86719 25.3477 3.30469 24.8672Q2.56641 24.2227 2.28516 23.332Q2.00391 22.4414 2.00391 21.4102Q2.00391 20.6953 2.10938 20.0391Q2.21484 19.3828 2.34375 18.7852L4.14844 18.7852ZM10.2305 13.9336L8.0625 13.9336L8.0625 11.8125L10.2305 11.8125L10.2305 13.9336ZM14.0039 13.9336L11.8359 13.9336L11.8359 11.8125L14.0039 11.8125L14.0039 13.9336ZM12.1172 10.6523L9.94922 10.6523L9.94922 8.53125L12.1172 8.53125L12.1172 10.6523Z" />
        </g>
      </g>
    </g>
    <g id="T" clip-path="url(#clip_1)">
      <path d="M0 0L0 100L100 100L100 0L0 0Z" id="T" fill="#FFFFFF" fill-opacity="0" stroke="none" transform="matrix(-1 0 0 1 967 43)" />
      <path d="M39 80.6023C39 80.6023 39 56.2815 39 44.6689C39 32.2816 59.5 40.9434 59.5 29.7232C59.5 25.5133 57.7983 22.6731 53.0066 20.0039C48.215 17.3348 39 18.1022 39 18.1022" id="Line" fill="none" fill-rule="evenodd" stroke="#000000" stroke-width="3" stroke-linecap="square" clip-path="url(#clip_2)" transform="matrix(-1 0 0 1 967 43)" />
      <g id="T" clip-path="url(#clip_2)" transform="matrix(-1 0 0 1 967 43), matrix(-1 0 0 1 100 0)">
        <g transform="translate(0, 5.7954545)" id="T" fill="#757575">
          <path d="M1.15909 7.67045L1.15909 5.79545L14.25 5.79545L14.25 7.67045L8.76136 7.67045L8.76136 23.25L6.64773 23.25L6.64773 7.67045L1.15909 7.67045Z" />
        </g>
      </g>
    </g>
    <g id="P" clip-path="url(#clip_1)">
      <path d="M100 0L100 0L100 100L0 100L0 0L100 0Z" id="P" fill="#FFFFFF" fill-opacity="0" stroke="none" transform="translate(767 43)" />
      <path d="M50 16.5C50 16.5 50 40.8208 50 52.4333C50 64.8207 29.5 56.1589 29.5 67.3791C29.5 71.589 31.2017 74.4292 35.9934 77.0984C40.785 79.7675 50 79.0001 50 79.0001" id="Line" fill="none" fill-rule="evenodd" stroke="#000000" stroke-width="3" stroke-linecap="square" clip-path="url(#clip_3)" transform="translate(767 43)" />
      <path d="M37.5 26.5L63.5 26.5" id="Line-2" fill="none" fill-rule="evenodd" stroke="#000000" stroke-width="3" stroke-linecap="square" clip-path="url(#clip_3)" transform="translate(767 43)" />
      <g id="P" clip-path="url(#clip_3)" transform="translate(767 43)">
        <g transform="translate(0, 5.7954545)" id="P" fill="#757575">
          <path d="M2.11364 23.25L2.11364 5.79545L8.01136 5.79545Q10.0653 5.79545 11.3736 6.53267Q12.6818 7.26989 13.3125 8.52273Q13.9432 9.77557 13.9432 11.3182Q13.9432 12.8608 13.3168 14.1222Q12.6903 15.3835 11.3864 16.1293Q10.0824 16.875 8.04545 16.875L4.22727 16.875L4.22727 23.25L2.11364 23.25ZM4.22727 15L7.97727 15Q10.0824 15 10.973 13.9432Q11.8636 12.8864 11.8636 11.3182Q11.8636 9.74148 10.9688 8.70597Q10.0739 7.67045 7.94318 7.67045L4.22727 7.67045L4.22727 15Z" />
        </g>
      </g>
    </g>
    <g id="B" clip-path="url(#clip_1)">
      <path d="M100 0L100 0L100 100L0 100L0 0L100 0Z" id="B" fill="#FFFFFF" fill-opacity="0" stroke="none" transform="translate(667 43)" />
      <path d="M50 16.5C50 16.5 50 40.8208 50 52.4333C50 64.8207 29.5 56.1589 29.5 67.3791C29.5 71.589 31.2017 74.4292 35.9934 77.0984C40.785 79.7675 50 79.0001 50 79.0001" id="Line" fill="none" fill-rule="evenodd" stroke="#000000" stroke-width="3" stroke-linecap="square" clip-path="url(#clip_3)" transform="translate(667 43)" />
      <g id="B" clip-path="url(#clip_3)" transform="translate(667 43)">
        <g transform="translate(0, 5.7954545)" id="B" fill="#757575">
          <path d="M2.11364 23.25L2.11364 5.79545L8.21591 5.79545Q10.0398 5.79545 11.2244 6.42188Q12.4091 7.0483 12.9886 8.10085Q13.5682 9.15341 13.5682 10.4318Q13.5682 11.5568 13.1719 12.2898Q12.7756 13.0227 12.1321 13.4489Q11.4886 13.875 10.7386 14.0795L10.7386 14.25Q11.5398 14.3011 12.3494 14.8125Q13.1591 15.3239 13.7045 16.2784Q14.25 17.233 14.25 18.6136Q14.25 19.9261 13.6534 20.9744Q13.0568 22.0227 11.7699 22.6364Q10.483 23.25 8.42045 23.25L2.11364 23.25ZM4.22727 21.375L8.42045 21.375Q10.4915 21.375 11.3651 20.5696Q12.2386 19.7642 12.2386 18.6136Q12.2386 17.7273 11.7869 16.973Q11.3352 16.2188 10.5 15.7628Q9.66477 15.3068 8.52273 15.3068L4.22727 15.3068L4.22727 21.375ZM4.22727 13.4659L8.14773 13.4659Q9.57955 13.4659 10.5682 12.6392Q11.5568 11.8125 11.5568 10.4318Q11.5568 9.28125 10.7557 8.47585Q9.95455 7.67046 8.21591 7.67045L4.22727 7.67045L4.22727 13.4659Z" />
        </g>
      </g>
    </g>
    <g id="Oo" clip-path="url(#clip_1)">
      <path d="M0 0L0 100L100 100L100 0L0 0Z" id="Oo" fill="#FFFFFF" fill-opacity="0" stroke="none" transform="matrix(-1 0 0 1 667 43)" />
      <path d="M35 49C35 42.3726 40.3726 37 47 37C53.6274 37 59 42.3726 59 49C59 55.6274 53.6274 61 47 61C40.3726 61 35 55.6274 35 49Z" id="Oval" fill="none" fill-rule="evenodd" stroke="#000000" stroke-width="3" clip-path="url(#clip_2)" transform="matrix(-1 0 0 1 667 43)" />
      <path d="M54.9999 17.4999C52.5084 15.0083 47.5 11.4483 47.5 15.9999C47.5 20.5515 47.5 83.4995 47.5 83.4995" id="Line" fill="none" fill-rule="evenodd" stroke="#000000" stroke-width="3" stroke-linecap="square" clip-path="url(#clip_2)" transform="matrix(-1 0 0 1 667 43)" />
      <path d="M32 21.5C32 19.0147 34.0147 17 36.5 17C38.9853 17 41 19.0147 41 21.5C41 23.9853 38.9853 26 36.5 26C34.0147 26 32 23.9853 32 21.5Z" id="Oval-2-Copy-2" fill="#000000" fill-rule="evenodd" stroke="none" clip-path="url(#clip_2)" transform="matrix(-1 0 0 1 667 43)" />
      <g id="Oo" clip-path="url(#clip_2)" transform="matrix(-1 0 0 1 667 43), matrix(-1 0 0 1 100 0)">
        <g transform="translate(0, 5.7954545)" id="Oo" fill="#757575">
          <path d="M16.8409 14.5227Q16.8409 17.2841 15.8438 19.2955Q14.8466 21.3068 13.108 22.3977Q11.3693 23.4886 9.13636 23.4886Q6.90341 23.4886 5.16477 22.3977Q3.42614 21.3068 2.42898 19.2955Q1.43182 17.2841 1.43182 14.5227Q1.43182 11.7614 2.42898 9.75Q3.42614 7.73864 5.16477 6.64773Q6.90341 5.55682 9.13636 5.55682Q11.3693 5.55682 13.108 6.64773Q14.8466 7.73864 15.8438 9.75Q16.8409 11.7614 16.8409 14.5227ZM14.7955 14.5227Q14.7955 12.2557 14.0412 10.696Q13.2869 9.13636 12.0043 8.33523Q10.7216 7.53409 9.13636 7.53409Q7.55114 7.53409 6.26847 8.33523Q4.9858 9.13636 4.23153 10.696Q3.47727 12.2557 3.47727 14.5227Q3.47727 16.7898 4.23153 18.3494Q4.9858 19.9091 6.26847 20.7102Q7.55114 21.5114 9.13636 21.5114Q10.7216 21.5114 12.0043 20.7102Q13.2869 19.9091 14.0412 18.3494Q14.7955 16.7898 14.7955 14.5227ZM25.4318 23.5227Q23.6591 23.5227 22.3253 22.679Q20.9915 21.8352 20.2457 20.3182Q19.5 18.8011 19.5 16.7727Q19.5 14.7273 20.2457 13.2017Q20.9915 11.6761 22.3253 10.8324Q23.6591 9.98864 25.4318 9.98864Q27.2045 9.98864 28.5384 10.8324Q29.8722 11.6761 30.6179 13.2017Q31.3636 14.7273 31.3636 16.7727Q31.3636 18.8011 30.6179 20.3182Q29.8722 21.8352 28.5384 22.679Q27.2045 23.5227 25.4318 23.5227ZM25.4318 21.7159Q26.7784 21.7159 27.6477 21.0256Q28.517 20.3352 28.9347 19.2102Q29.3523 18.0852 29.3523 16.7727Q29.3523 15.4602 28.9347 14.3267Q28.517 13.1932 27.6477 12.4943Q26.7784 11.7955 25.4318 11.7955Q24.0852 11.7955 23.2159 12.4943Q22.3466 13.1932 21.929 14.3267Q21.5114 15.4602 21.5114 16.7727Q21.5114 18.0852 21.929 19.2102Q22.3466 20.3352 23.2159 21.0256Q24.0852 21.7159 25.4318 21.7159Z" />
        </g>
      </g>
    </g>
    <g id="Ii" clip-path="url(#clip_1)">
      <path d="M0 0L0 100L100 100L100 0L0 0Z" id="Ii" fill="#FFFFFF" fill-opacity="0" stroke="none" transform="matrix(-1 0 0 1 567 43)" />
      <path d="M34 18.5C34 16.0147 36.0147 14 38.5 14C40.9853 14 43 16.0147 43 18.5C43 20.9853 40.9853 23 38.5 23C36.0147 23 34 20.9853 34 18.5Z" id="Oval-2-Copy" fill="#000000" fill-rule="evenodd" stroke="none" clip-path="url(#clip_2)" transform="matrix(-1 0 0 1 567 43)" />
      <g id="Group" clip-path="url(#clip_2)" transform="matrix(-1 0 0 1 567 43), translate(37.5 13.808105)">
        <path d="M0 16.1919L17.9902 24.93" id="Line-2" fill="none" fill-rule="evenodd" stroke="#000000" stroke-width="3" stroke-linecap="square" />
        <path d="M17.4999 3.69178C15.0084 1.20017 10 -2.35985 10 2.19177C10 6.74339 10 69.6914 10 69.6914" id="Line" fill="none" fill-rule="evenodd" stroke="#000000" stroke-width="3" stroke-linecap="square" />
      </g>
      <g id="Ii" clip-path="url(#clip_2)" transform="matrix(-1 0 0 1 567 43), matrix(-1 0 0 1 100 0)">
        <g transform="translate(0, 16.484001)" id="Ii" fill="#757575">
          <path d="M4.16 12.532Q4.914 12.532 5.629 12.493Q6.344 12.454 7.124 12.428Q7.228 12.532 7.215 12.792Q7.202 13.052 7.124 13.156Q6.968 13.156 6.552 13.195Q6.136 13.234 5.772 13.312Q5.408 13.39 5.356 13.546Q5.278 13.806 5.265 14.222Q5.252 14.638 5.252 15.132Q5.252 15.21 5.252 15.288Q5.252 15.366 5.252 15.444L5.252 26.286Q5.252 26.364 5.252 26.442Q5.252 26.52 5.252 26.598Q5.252 27.092 5.265 27.495Q5.278 27.898 5.356 28.158Q5.408 28.288 5.772 28.392Q6.136 28.496 6.552 28.535Q6.968 28.574 7.124 28.574Q7.202 28.678 7.215 28.938Q7.228 29.198 7.124 29.302Q6.344 29.25 5.629 29.211Q4.914 29.172 4.16 29.172Q3.432 29.172 2.678 29.211Q1.924 29.25 1.144 29.302Q1.04 29.198 1.053 28.938Q1.066 28.678 1.144 28.574Q1.3 28.574 1.716 28.535Q2.132 28.496 2.509 28.392Q2.886 28.288 2.912 28.158Q3.016 27.846 3.029 27.352Q3.042 26.858 3.042 26.286L3.042 15.444Q3.042 14.872 3.029 14.365Q3.016 13.858 2.912 13.546Q2.886 13.39 2.509 13.312Q2.132 13.234 1.716 13.195Q1.3 13.156 1.144 13.156Q1.066 13.052 1.053 12.792Q1.04 12.532 1.144 12.428Q1.924 12.454 2.678 12.493Q3.432 12.532 4.16 12.532ZM10.374 14.17Q10.374 13.65 10.751 13.273Q11.128 12.896 11.648 12.896Q12.168 12.896 12.545 13.273Q12.922 13.65 12.922 14.17Q12.922 14.69 12.545 15.067Q12.168 15.444 11.648 15.444Q11.128 15.444 10.751 15.067Q10.374 14.69 10.374 14.17ZM12.818 26.286Q12.818 26.858 12.831 27.352Q12.844 27.846 12.948 28.158Q13 28.288 13.325 28.392Q13.65 28.496 14.014 28.535Q14.378 28.574 14.534 28.574Q14.612 28.678 14.625 28.938Q14.638 29.198 14.534 29.302Q13.754 29.25 13.169 29.211Q12.584 29.172 11.83 29.172Q11.102 29.172 10.504 29.211Q9.906 29.25 9.126 29.302Q9.022 29.198 9.035 28.938Q9.048 28.678 9.126 28.574Q9.282 28.574 9.659 28.535Q10.036 28.496 10.374 28.392Q10.712 28.288 10.738 28.158Q10.842 27.846 10.855 27.352Q10.868 26.858 10.868 26.286L10.868 21.554Q10.868 21.294 10.855 20.878Q10.842 20.462 10.738 20.228Q10.66 19.994 10.296 19.903Q9.932 19.812 9.568 19.799Q9.204 19.786 9.1 19.786Q9.074 19.734 9.048 19.474Q9.022 19.214 9.1 19.11Q10.088 18.98 11.024 18.72Q11.96 18.46 12.714 18.044Q12.818 18.044 12.909 18.2Q13 18.356 13 18.46Q13 18.538 12.948 18.902Q12.896 19.266 12.857 19.63Q12.818 19.994 12.818 20.124L12.818 26.286Z" />
        </g>
      </g>
    </g>
    <g id="Aa" clip-path="url(#clip_1)">
      <path d="M0 0L0 100L100 100L100 0L0 0Z" id="Aa" fill="#FFFFFF" fill-opacity="0" stroke="none" transform="matrix(-1 0 0 1 467 43)" />
      <path d="M54.9999 17.4999C52.5084 15.0083 47.5 11.4483 47.5 15.9999C47.5 20.5515 47.5 83.4995 47.5 83.4995" id="Line" fill="none" fill-rule="evenodd" stroke="#000000" stroke-width="3" stroke-linecap="square" clip-path="url(#clip_2)" transform="matrix(-1 0 0 1 467 43)" />
      <path d="M32 16.5C32 14.0147 34.0147 12 36.5 12C38.9853 12 41 14.0147 41 16.5C41 18.9853 38.9853 21 36.5 21C34.0147 21 32 18.9853 32 16.5Z" id="Oval-2" fill="#000000" fill-rule="evenodd" stroke="none" clip-path="url(#clip_2)" transform="matrix(-1 0 0 1 467 43)" />
      <g id="Aa" clip-path="url(#clip_7)" transform="matrix(-1 0 0 1 467 43), matrix(-1 0 0 1 100 0)">
        <g transform="translate(0, 5.7954545)" id="Aa" fill="#757575">
          <path d="M2.82955 23.25L0.613636 23.25L7.02273 5.79545L9.20455 5.79545L15.6136 23.25L13.3977 23.25L11.642 18.3068L4.58523 18.3068L2.82955 23.25ZM5.25 16.4318L10.9773 16.4318L8.18182 8.55682L8.04545 8.55682L5.25 16.4318ZM21.9205 23.5568Q20.6761 23.5568 19.6619 23.0838Q18.6477 22.6108 18.0511 21.7116Q17.4545 20.8125 17.4545 19.5341Q17.4545 18.4091 17.8977 17.706Q18.3409 17.0028 19.0824 16.6023Q19.8239 16.2017 20.723 16.0014Q21.6222 15.8011 22.5341 15.6818Q23.7273 15.5284 24.473 15.4474Q25.2188 15.3665 25.5639 15.1705Q25.9091 14.9744 25.9091 14.4886L25.9091 14.4205Q25.9091 13.1591 25.223 12.4602Q24.5369 11.7614 23.1477 11.7614Q21.7074 11.7614 20.8892 12.392Q20.071 13.0227 19.7386 13.7386L17.8295 13.0568Q18.3409 11.8636 19.1974 11.1946Q20.054 10.5256 21.0724 10.2571Q22.0909 9.98864 23.0795 9.98864Q23.7102 9.98864 24.5327 10.1378Q25.3551 10.2869 26.1264 10.7472Q26.8977 11.2074 27.4091 12.1364Q27.9205 13.0653 27.9205 14.625L27.9205 23.25L25.9091 23.25L25.9091 21.4773L25.8068 21.4773Q25.6023 21.9034 25.125 22.3892Q24.6477 22.875 23.8551 23.2159Q23.0625 23.5568 21.9205 23.5568ZM22.2273 21.75Q23.4205 21.75 24.2429 21.2813Q25.0653 20.8125 25.4872 20.071Q25.9091 19.3295 25.9091 18.5114L25.9091 16.6705Q25.7813 16.8239 25.3509 16.9474Q24.9205 17.071 24.3622 17.1605Q23.804 17.25 23.2798 17.3139Q22.7557 17.3778 22.4318 17.4205Q21.6477 17.5227 20.9702 17.7486Q20.2926 17.9744 19.8793 18.4219Q19.4659 18.8693 19.4659 19.6364Q19.4659 20.6847 20.2457 21.2173Q21.0256 21.75 22.2273 21.75Z" />
        </g>
      </g>
    </g>
    <g id="O" clip-path="url(#clip_1)">
      <path d="M0 0L0 100L100 100L100 0L0 0Z" id="O" fill="#FFFFFF" fill-opacity="0" stroke="none" transform="matrix(-1 0 0 1 367 43)" />
      <path d="M35 49C35 42.3726 40.3726 37 47 37C53.6274 37 59 42.3726 59 49C59 55.6274 53.6274 61 47 61C40.3726 61 35 55.6274 35 49Z" id="Oval" fill="none" fill-rule="evenodd" stroke="#000000" stroke-width="3" clip-path="url(#clip_2)" transform="matrix(-1 0 0 1 367 43)" />
      <path d="M54.9999 17.4999C52.5084 15.0083 47.5 11.4483 47.5 15.9999C47.5 20.5515 47.5 83.4995 47.5 83.4995" id="Line" fill="none" fill-rule="evenodd" stroke="#000000" stroke-width="3" stroke-linecap="square" clip-path="url(#clip_2)" transform="matrix(-1 0 0 1 367 43)" />
      <g id="O" clip-path="url(#clip_8)" transform="matrix(-1 0 0 1 367 43), matrix(-1 0 0 1 100 0)">
        <g transform="translate(0, 5.7954545)" id="O" fill="#757575">
          <path d="M16.8409 14.5227Q16.8409 17.2841 15.8438 19.2955Q14.8466 21.3068 13.108 22.3977Q11.3693 23.4886 9.13636 23.4886Q6.90341 23.4886 5.16477 22.3977Q3.42614 21.3068 2.42898 19.2955Q1.43182 17.2841 1.43182 14.5227Q1.43182 11.7614 2.42898 9.75Q3.42614 7.73864 5.16477 6.64773Q6.90341 5.55682 9.13636 5.55682Q11.3693 5.55682 13.108 6.64773Q14.8466 7.73864 15.8438 9.75Q16.8409 11.7614 16.8409 14.5227ZM14.7955 14.5227Q14.7955 12.2557 14.0412 10.696Q13.2869 9.13636 12.0043 8.33523Q10.7216 7.53409 9.13636 7.53409Q7.55114 7.53409 6.26847 8.33523Q4.9858 9.13636 4.23153 10.696Q3.47727 12.2557 3.47727 14.5227Q3.47727 16.7898 4.23153 18.3494Q4.9858 19.9091 6.26847 20.7102Q7.55114 21.5114 9.13636 21.5114Q10.7216 21.5114 12.0043 20.7102Q13.2869 19.9091 14.0412 18.3494Q14.7955 16.7898 14.7955 14.5227Z" />
        </g>
      </g>
    </g>
    <g id="I" clip-path="url(#clip_1)">
      <path d="M0 0L0 100L100 100L100 0L0 0Z" id="I" fill="#FFFFFF" fill-opacity="0" stroke="none" transform="matrix(-1 0 0 1 267 43)" />
      <g id="Group" clip-path="url(#clip_2)" transform="matrix(-1 0 0 1 267 43), translate(37.5 13.808105)">
        <path d="M0 16.1919L17.9902 24.93" id="Line-2" fill="none" fill-rule="evenodd" stroke="#000000" stroke-width="3" stroke-linecap="square" />
        <path d="M17.4999 3.69178C15.0084 1.20017 10 -2.35985 10 2.19177C10 6.74339 10 69.6914 10 69.6914" id="Line" fill="none" fill-rule="evenodd" stroke="#000000" stroke-width="3" stroke-linecap="square" />
      </g>
      <g id="I" clip-path="url(#clip_2)" transform="matrix(-1 0 0 1 267 43), matrix(-1 0 0 1 100 0)">
        <g transform="translate(0, 16.484001)" id="I" fill="#757575">
          <path d="M4.16 12.532Q4.914 12.532 5.629 12.493Q6.344 12.454 7.124 12.428Q7.228 12.532 7.215 12.792Q7.202 13.052 7.124 13.156Q6.968 13.156 6.552 13.195Q6.136 13.234 5.772 13.312Q5.408 13.39 5.356 13.546Q5.278 13.806 5.265 14.222Q5.252 14.638 5.252 15.132Q5.252 15.21 5.252 15.288Q5.252 15.366 5.252 15.444L5.252 26.286Q5.252 26.364 5.252 26.442Q5.252 26.52 5.252 26.598Q5.252 27.092 5.265 27.495Q5.278 27.898 5.356 28.158Q5.408 28.288 5.772 28.392Q6.136 28.496 6.552 28.535Q6.968 28.574 7.124 28.574Q7.202 28.678 7.215 28.938Q7.228 29.198 7.124 29.302Q6.344 29.25 5.629 29.211Q4.914 29.172 4.16 29.172Q3.432 29.172 2.678 29.211Q1.924 29.25 1.144 29.302Q1.04 29.198 1.053 28.938Q1.066 28.678 1.144 28.574Q1.3 28.574 1.716 28.535Q2.132 28.496 2.509 28.392Q2.886 28.288 2.912 28.158Q3.016 27.846 3.029 27.352Q3.042 26.858 3.042 26.286L3.042 15.444Q3.042 14.872 3.029 14.365Q3.016 13.858 2.912 13.546Q2.886 13.39 2.509 13.312Q2.132 13.234 1.716 13.195Q1.3 13.156 1.144 13.156Q1.066 13.052 1.053 12.792Q1.04 12.532 1.144 12.428Q1.924 12.454 2.678 12.493Q3.432 12.532 4.16 12.532Z" />
        </g>
      </g>
    </g>
    <g id="A" clip-path="url(#clip_1)">
      <path d="M0 0L0 100L100 100L100 0L0 0Z" id="A" fill="#FFFFFF" fill-opacity="0" stroke="none" transform="matrix(-1 0 0 1 167 43)" />
      <path d="M54.9999 17.4999C52.5084 15.0083 47.5 11.4483 47.5 15.9999C47.5 20.5515 47.5 83.4995 47.5 83.4995" id="Line" fill="none" fill-rule="evenodd" stroke="#000000" stroke-width="3" stroke-linecap="square" clip-path="url(#clip_2)" transform="matrix(-1 0 0 1 167 43)" />
      <g id="A" clip-path="url(#clip_9)" transform="matrix(-1 0 0 1 167 43), matrix(-1 0 0 1 100 0)">
        <g transform="translate(0, 5.7954545)" id="A" fill="#757575">
          <path d="M2.82955 23.25L0.613636 23.25L7.02273 5.79545L9.20455 5.79545L15.6136 23.25L13.3977 23.25L11.642 18.3068L4.58523 18.3068L2.82955 23.25ZM5.25 16.4318L10.9773 16.4318L8.18182 8.55682L8.04545 8.55682L5.25 16.4318Z" />
        </g>
      </g>
    </g>
  </g>
</svg>