<?xml version="1.0" encoding="utf-8"?>
<svg width="600px" height="770px" viewBox="0 0 600 770" version="1.1" xmlns:xlink="http://www.w3.org/1999/xlink" xmlns="http://www.w3.org/2000/svg">
  <defs>
    <path d="M0 0L600 0L600 770L0 770L0 0Z" id="path_1" />
    <path d="M0 0L100 0L100 100L0 100L0 0Z" id="path_2" />
    <path d="M0 51.5C0 42.9396 7.61116 36 17 36C26.3888 36 34 42.9396 34 51.5C34 60.0604 26.3888 67 17 67C7.61116 67 0 60.0604 0 51.5Z" id="path_3" />
    <path d="M7.5 28C7.5 23.0294 11.5294 19 16.5 19C21.4706 19 25.5 23.0294 25.5 28C25.5 32.9706 21.4706 37 16.5 37C11.5294 37 7.5 32.9706 7.5 28Z" id="path_4" />
    <clipPath id="clip_1">
      <use xlink:href="#path_1" />
    </clipPath>
    <clipPath id="clip_2">
      <use xlink:href="#path_2" />
    </clipPath>
    <clipPath id="clip_3">
      <use xlink:href="#path_3" />
    </clipPath>
    <clipPath id="clip_4">
      <use xlink:href="#path_4" />
    </clipPath>
  </defs>
  <g id="Printable Full" clip-path="url(#clip_1)">
    <path d="M0 0L600 0L600 770L0 770L0 0Z" id="Printable-Full" fill="#FFFFFF" fill-rule="evenodd" stroke="none" />
    <g id="ه" clip-path="url(#clip_2)" transform="translate(0 530.9995)">
      <path d="M0 0L100 0L100 100L0 100L0 0Z" id="ه" fill="#FFFFFF" fill-rule="evenodd" stroke="none" />
      <path d="M30 32.5348C36.125 34.6598 52.625 34.4098 60 32.5348C67.375 30.6598 72.625 22.7849 68 18.0349C63.375 13.2848 46.125 11.0349 44 21.0348C44 29.0348 44 85.5347 44 85.5347L44 77.0348L44 68.0349L58.5 68.035L30 68.0348" id="Line" fill="none" fill-rule="evenodd" stroke="#000000" stroke-width="3" stroke-linecap="square" />
    </g>
    <g id="ن" clip-path="url(#clip_2)" transform="translate(100 530.9995)">
      <path d="M0 0L100 0L100 100L0 100L0 0Z" id="ن" fill="#FFFFFF" fill-rule="evenodd" stroke="none" />
      <path d="M41.9993 35.1736C40.5951 32.474 38.3074 27.1773 41.9993 20.896C45.6912 14.6148 57.9777 11.5979 59.9993 20.896C59.9993 35.1425 59.9994 67.8268 59.9993 78.452C56.8939 89.514 44.6971 84.4981 41.9994 78.452C39.3016 72.4059 41.9994 67.7439 41.9994 67.7439" id="Line" fill="none" fill-rule="evenodd" stroke="#000000" stroke-width="3" stroke-linecap="square" />
      <path d="M52 50L67.5 50" id="Line-2" fill="none" fill-rule="evenodd" stroke="#000000" stroke-width="3" stroke-linecap="square" />
    </g>
    <g id="م" clip-path="url(#clip_2)" transform="translate(200 530.9995)">
      <path d="M0 0L100 0L100 100L0 100L0 0Z" id="م" fill="#FFFFFF" fill-rule="evenodd" stroke="none" />
      <path d="M41.9993 35.1736C40.5951 32.474 38.3074 27.1773 41.9993 20.896C45.6912 14.6148 57.9777 11.5979 59.9993 20.896C59.9993 35.1425 59.9994 67.8268 59.9993 78.452C56.8939 89.514 44.6971 84.4981 41.9994 78.452C39.3016 72.4059 41.9994 67.7439 41.9994 67.7439" id="Line" fill="none" fill-rule="evenodd" stroke="#000000" stroke-width="3" stroke-linecap="square" />
    </g>
    <g id="ل" clip-path="url(#clip_2)" transform="translate(300 530.9995)">
      <path d="M0 0L100 0L100 100L0 100L0 0Z" id="ل" fill="#FFFFFF" fill-rule="evenodd" stroke="none" />
      <path d="M43.493 17L59.993 17C59.993 17 60.007 70.2358 59.993 75.9998C58.8681 86.6527 47.3403 79.972 43.493 75.9998C39.6458 72.0276 38.0901 66.8617 43.493 62.9998C48.8959 59.1378 58.493 64.4999 58.493 64.4999" id="Line" fill="none" fill-rule="evenodd" stroke="#000000" stroke-width="3" stroke-linecap="square" />
    </g>
    <g id="ف (v)" clip-path="url(#clip_2)" transform="translate(0 430.0005)">
      <path d="M0 0L100 0L100 100L0 100L0 0Z" id="ف-(v)" fill="#FFFFFF" fill-rule="evenodd" stroke="none" />
      <g id="Group" transform="translate(31 11)">
        <path d="M12.5002 11.5001C12.5002 11.5001 15 12.5684 18.0001 11.5001C21.0002 10.4318 23.5002 8.52322 23.5001 4.50005C23.5001 0.476868 19.7675 5.66247e-07 18.0001 5.66247e-07C16.2328 5.66247e-07 11.5 1.15844 11.5 4.50007C11.5 10.0452 11.5 25.7988 11.5 25.7988C11.5 25.7988 17.8058 13.4446 26 13.4446C34.1942 13.4446 39.1012 19.6774 36 27.4447C32.8988 35.212 11.5 38.2723 11.5 43.4449C11.5 54.5059 11.5 76.0003 11.5 76.0003" id="Line" fill="none" fill-rule="evenodd" stroke="#000000" stroke-width="3" stroke-linecap="square" />
        <path d="M0 60L23.5 60" id="Line-2" fill="none" fill-rule="evenodd" stroke="#000000" stroke-width="3" stroke-linecap="square" />
      </g>
    </g>
    <g id="ق" clip-path="url(#clip_2)" transform="translate(100 430.0005)">
      <path d="M0 0L100 0L100 100L0 100L0 0Z" id="ق" fill="#FFFFFF" fill-rule="evenodd" stroke="none" />
      <path d="M38.0002 22.5001C38.0002 22.5001 40.5 23.5684 43.5001 22.5001C46.5002 21.4318 49.0002 19.5232 49.0001 15.5C49.0001 11.4769 45.2675 11 43.5001 11C41.7328 11 37 12.1584 37 15.5001C37 21.0452 37 36.7988 37 36.7988C37 36.7988 43.3058 24.4446 51.5 24.4446C59.6942 24.4446 64.6012 30.6774 61.5 38.4447C58.3988 46.212 37 49.2723 37 54.4449C37 65.5059 37 87.0003 37 87.0003" id="Line" fill="none" fill-rule="evenodd" stroke="#000000" stroke-width="3" stroke-linecap="square" />
    </g>
    <g id="ف" clip-path="url(#clip_2)" transform="translate(200 430.0005)">
      <path d="M0 0L100 0L100 100L0 100L0 0Z" id="ف" fill="#FFFFFF" fill-rule="evenodd" stroke="none" />
      <path d="M37 14L37 35.2986C37 35.2986 43.3058 22.9445 51.5 22.9445C59.6942 22.9445 64.6011 29.1772 61.5 36.9445C58.3988 44.7117 37 47.7719 37 52.9444C37 64.0053 37 85.5 37 85.5" id="Line" fill="none" fill-rule="evenodd" stroke="#000000" stroke-width="3" stroke-linecap="square" />
    </g>
    <g id="غ" clip-path="url(#clip_2)" transform="translate(300 430.0005)">
      <path d="M0 0L100 0L100 100L0 100L0 0Z" id="غ" fill="#FFFFFF" fill-rule="evenodd" stroke="none" />
      <path d="M62.6491 18.037C61.9547 17.9537 57.5993 18.037 47.6491 18.037C40.4965 18.4935 34.3788 24.4957 38.1491 31.537C41.9194 38.5784 59.2422 35.841 60.8395 36.9856C60.9355 37.6298 47.8389 32.1406 47.8389 46.9858C47.8389 55.1228 47.8389 81.9857 47.8389 81.9857" id="Line" fill="none" fill-rule="evenodd" stroke="#000000" stroke-width="3" stroke-linecap="square" />
      <path d="M37 62.5L62 62.5" id="Line-2" fill="none" fill-rule="evenodd" stroke="#000000" stroke-width="3" stroke-linecap="square" />
    </g>
    <g id="ع" clip-path="url(#clip_2)" transform="translate(400 430.0005)">
      <path d="M0 0L100 0L100 100L0 100L0 0Z" id="ع" fill="#FFFFFF" fill-rule="evenodd" stroke="none" />
      <path d="M62.6491 18.037C61.9547 17.9537 57.5993 18.037 47.6491 18.037C40.4965 18.4935 34.3788 24.4957 38.1491 31.537C41.9194 38.5784 59.2422 35.841 60.8395 36.9856C60.9355 37.6298 47.8389 32.1406 47.8389 46.9858C47.8389 55.1228 47.8389 81.9857 47.8389 81.9857" id="Line" fill="none" fill-rule="evenodd" stroke="#000000" stroke-width="3" stroke-linecap="square" />
    </g>
    <g id="ط" clip-path="url(#clip_2)" transform="translate(0 330)">
      <path d="M0 0L100 0L100 100L0 100L0 0Z" id="ط" fill="#FFFFFF" fill-rule="evenodd" stroke="none" />
      <g id="Group" transform="translate(33 16)">
        <g id="Oval">
          <g clip-path="url(#clip_3)">
            <use xlink:href="#path_3" fill="none" stroke="#000000" stroke-width="6" />
          </g>
        </g>
        <path d="M33.0002 0C33.0002 0 33.5 24.1731 33.5 37.5037C33.5479 44.3087 32 54 32 54" id="Line" fill="none" fill-rule="evenodd" stroke="#000000" stroke-width="3" stroke-linecap="square" />
      </g>
    </g>
    <g id="ص" clip-path="url(#clip_2)" transform="translate(100 330)">
      <path d="M0 0L100 0L100 100L0 100L0 0Z" id="ص" fill="#FFFFFF" fill-rule="evenodd" stroke="none" />
      <g id="Group" transform="translate(37 19)">
        <g id="Oval">
          <g clip-path="url(#clip_4)">
            <use xlink:href="#path_4" fill="none" stroke="#000000" stroke-width="6" />
          </g>
        </g>
        <path d="M24.5002 0L24.5002 32.5363C24.5002 32.5363 24.8183 49.2837 22 55.8888C18.3954 64.3367 1.46097e-06 61.5649 1.46097e-06 61.5649" id="Line" fill="none" fill-rule="evenodd" stroke="#000000" stroke-width="3" stroke-linecap="square" />
      </g>
    </g>
    <g id="ض" clip-path="url(#clip_2)" transform="translate(200 330)">
      <path d="M0 0L100 0L100 100L0 100L0 0Z" id="ض" fill="#FFFFFF" fill-rule="evenodd" stroke="none" />
      <g id="Group" transform="translate(37 19)">
        <g id="Oval">
          <g clip-path="url(#clip_4)">
            <use xlink:href="#path_4" fill="none" stroke="#000000" stroke-width="6" />
          </g>
        </g>
        <path d="M24.5002 0L24.5002 32.5363C24.5002 32.5363 24.8183 49.2837 22 55.8888C18.3954 64.3367 1.46097e-06 61.5649 1.46097e-06 61.5649" id="Line" fill="none" fill-rule="evenodd" stroke="#000000" stroke-width="3" stroke-linecap="square" />
        <path d="M12 5L36 5" id="Line" fill="none" fill-rule="evenodd" stroke="#000000" stroke-width="3" stroke-linecap="square" />
      </g>
    </g>
    <g id="ش" clip-path="url(#clip_2)" transform="translate(300 330)">
      <path d="M0 0L100 0L100 100L0 100L0 0Z" id="ش" fill="#FFFFFF" fill-rule="evenodd" stroke="none" />
      <g id="Group" transform="translate(29.999512 19)">
        <path d="M25.0005 13.6597C25.0005 13.6597 31.3755 17.2847 35.0005 15.1597C38.6255 13.0347 40.8683 9.37272 39.5005 5.15968C38.1328 0.946651 28.8253 -3.21531 25.4336 3.65971C22.0419 10.5347 27.9337 31.123 22.4337 37.4981C16.9337 43.8731 1.43367 38.4981 1.43367 38.4981" transform="matrix(-1 0 0 1 41.33943 0)" id="Line" fill="none" fill-rule="evenodd" stroke="#000000" stroke-width="3" stroke-linecap="square" />
        <path d="M25.0002 28.5132C25.0002 28.5132 26.5002 51.1382 21.0002 57.5132C15.5001 63.8882 9.72748e-05 61.0132 9.72748e-05 61.0132" transform="matrix(-1 0 0 1 25.187113 0)" id="Line-Copy" fill="none" fill-rule="evenodd" stroke="#000000" stroke-width="3" stroke-linecap="square" />
      </g>
    </g>
    <g id="س" clip-path="url(#clip_2)" transform="translate(400 330)">
      <path d="M0 0L100 0L100 100L0 100L0 0Z" id="س" fill="#FFFFFF" fill-rule="evenodd" stroke="none" />
      <g id="Group" transform="translate(30 19)">
        <path d="M39.5 5.85355C39.5 5.85355 28.8248 -4.52145 25.433 2.35356C22.0413 9.22858 27.9332 29.8169 22.4332 36.1919C16.9332 42.5669 1.43312 37.1919 1.43312 37.1919" transform="matrix(-1 0 0 1 40.933117 0)" id="Line" fill="none" fill-rule="evenodd" stroke="#000000" stroke-width="3" stroke-linecap="square" />
        <path d="M25.0002 27.207C25.0002 27.207 26.5002 49.832 21.0002 56.207C15.5001 62.5821 9.72748e-05 59.7071 9.72748e-05 59.7071" transform="matrix(-1 0 0 1 25.187113 0)" id="Line-Copy" fill="none" fill-rule="evenodd" stroke="#000000" stroke-width="3" stroke-linecap="square" />
      </g>
    </g>
    <g id="ر" clip-path="url(#clip_2)" transform="translate(0 230)">
      <path d="M0 0L100 0L100 100L0 100L0 0Z" id="ر" fill="#FFFFFF" fill-rule="evenodd" stroke="none" />
      <path d="M60.6406 12C60.6406 12 60.6406 55.8375 60.6406 67.5001C60.6409 73.9985 56.7652 47.9081 45.0209 56.3913C37.0767 61.2301 37.6713 78.9129 38.3895 88" id="Line" fill="none" fill-rule="evenodd" stroke="#000000" stroke-width="3" stroke-linecap="square" />
    </g>
    <g id="د" clip-path="url(#clip_2)" transform="translate(100 230)">
      <path d="M0 0L100 0L100 100L0 100L0 0Z" id="د" fill="#FFFFFF" fill-rule="evenodd" stroke="none" />
      <path d="M42.25 15C42.25 15 56.5555 49.3408 57 68.5C57.4445 87.6592 41 83.5 41 83.5" id="Line" fill="none" fill-rule="evenodd" stroke="#000000" stroke-width="3" stroke-linecap="square" />
    </g>
    <g id="ذ" clip-path="url(#clip_2)" transform="translate(200 230)">
      <path d="M0 0L100 0L100 100L0 100L0 0Z" id="ذ" fill="#FFFFFF" fill-rule="evenodd" stroke="none" />
      <g id="Line" transform="translate(37 15)">
        <path d="M0 7.52446L20.6732 0" id="Line" fill="none" fill-rule="evenodd" stroke="#000000" stroke-width="3" stroke-linecap="square" />
        <path d="M9.25001 0.524414C9.25001 0.524414 23.5555 34.8652 24 54.0244C24.4445 73.1836 8.00001 69.0245 8.00001 69.0245" id="Line-2" fill="none" fill-rule="evenodd" stroke="#000000" stroke-width="3" stroke-linecap="square" />
      </g>
    </g>
    <g id="خ" clip-path="url(#clip_2)" transform="translate(300 230)">
      <path d="M0 0L100 0L100 100L0 100L0 0Z" id="خ" fill="#FFFFFF" fill-rule="evenodd" stroke="none" />
      <path d="M26 79.8603C26 79.8603 46.9858 90.3777 48.2012 79.8603C48.2012 73.1623 48.2012 55.5394 48.2012 43.9268C48.2012 31.5394 48.2012 27.5659 48.2012 19.2618C48.2012 10.9577 68.861 12.3633 73.8506 15.8603C78.8403 19.3573 79.9006 26.2711 73.8506 30.3602C67.8007 34.4493 51.8224 30.9352 49.7012 31.8097" transform="matrix(-1 0 0 -1 104 97.63804)" id="Line" fill="none" fill-rule="evenodd" stroke="#000000" stroke-width="3" stroke-linecap="square" />
    </g>
    <g id="ح" clip-path="url(#clip_2)" transform="translate(400 230)">
      <path d="M0 0L100 0L100 100L0 100L0 0Z" id="ح" fill="#FFFFFF" fill-rule="evenodd" stroke="none" />
      <path d="M76 18.4461C76 18.4461 54.4985 7.83705 52.6495 18.4461C52.6495 25.144 52.6495 42.767 52.6495 54.3796C52.6495 66.767 52.6495 70.7406 52.6495 79.0448C52.2228 88.2023 34.1092 89.5554 27 82.4463" id="Line" fill="none" fill-rule="evenodd" stroke="#000000" stroke-width="3" stroke-linecap="square" />
    </g>
    <g id="ج" clip-path="url(#clip_2)" transform="translate(500 230)">
      <path d="M0 0L100 0L100 100L0 100L0 0Z" id="ج" fill="#FFFFFF" fill-rule="evenodd" stroke="none" />
      <path d="M78 17.7779C78 17.7779 57.0142 7.26053 55.7988 17.7779C55.7988 24.4758 55.7988 42.0987 55.7988 53.7113C55.7988 66.0988 55.7988 70.0723 55.7988 78.3764C55.7988 86.6805 35.139 85.2749 30.1494 81.7779C25.1597 78.2809 24.0994 71.367 30.1494 67.2779C36.1993 63.1889 52.1776 66.7029 54.2988 65.8285" id="Line" fill="none" fill-rule="evenodd" stroke="#000000" stroke-width="3" stroke-linecap="square" />
    </g>
    <g id="ث" clip-path="url(#clip_2)" transform="translate(200 130.00024)">
      <path d="M0 0L100 0L100 100L0 100L0 0Z" id="ث" fill="#FFFFFF" fill-rule="evenodd" stroke="none" />
      <path d="M27.998 60L51.998 60" id="Line-2" fill="none" fill-rule="evenodd" stroke="#000000" stroke-width="3" stroke-linecap="square" />
      <path d="M39 80.6025C39 80.6025 39 56.2817 39 44.6692C39 32.2818 59.5 40.9436 59.5 29.7235C59.5 25.5136 57.7983 22.6733 53.0066 20.0042C48.215 17.335 39 18.1025 39 18.1025" id="Line" fill="none" fill-rule="evenodd" stroke="#000000" stroke-width="3" stroke-linecap="square" />
    </g>
    <g id="ت" clip-path="url(#clip_2)" transform="translate(300 130.00024)">
      <path d="M0 0L100 0L100 100L0 100L0 0Z" id="ت" fill="#FFFFFF" fill-rule="evenodd" stroke="none" />
      <path d="M39 80.6025C39 80.6025 39 56.2817 39 44.6692C39 32.2818 59.5 40.9436 59.5 29.7235C59.5 25.5136 57.7983 22.6733 53.0066 20.0042C48.215 17.335 39 18.1025 39 18.1025" id="Line" fill="none" fill-rule="evenodd" stroke="#000000" stroke-width="3" stroke-linecap="square" />
    </g>
    <g id="ب (p)" clip-path="url(#clip_2)" transform="translate(400 130.00024)">
      <path d="M0 0L100 0L100 100L0 100L0 0Z" id="ب-(p)" fill="#FFFFFF" fill-rule="evenodd" stroke="none" />
      <path d="M50 16.5C50 16.5 50 40.8208 50 52.4333C50 64.8207 29.5 56.1589 29.5 67.3791C29.5 71.589 31.2017 74.4292 35.9934 77.0984C40.785 79.7675 50 79.0001 50 79.0001" id="Line" fill="none" fill-rule="evenodd" stroke="#000000" stroke-width="3" stroke-linecap="square" />
      <path d="M37.5 26.5L63.5 26.5" id="Line-2" fill="none" fill-rule="evenodd" stroke="#000000" stroke-width="3" stroke-linecap="square" />
    </g>
    <g id="ب" clip-path="url(#clip_2)" transform="translate(500 130.00024)">
      <path d="M0 0L100 0L100 100L0 100L0 0Z" id="ب" fill="#FFFFFF" fill-rule="evenodd" stroke="none" />
      <path d="M50 16.5C50 16.5 50 40.8208 50 52.4333C50 64.8207 29.5 56.1589 29.5 67.3791C29.5 71.589 31.2017 74.4292 35.9934 77.0984C40.785 79.7675 50 79.0001 50 79.0001" id="Line" fill="none" fill-rule="evenodd" stroke="#000000" stroke-width="3" stroke-linecap="square" />
    </g>
    <g id="إإ" clip-path="url(#clip_2)" transform="translate(0 30)">
      <path d="M0 0L100 0L100 100L0 100L0 0Z" id="إإ" fill="#FFFFFF" fill-rule="evenodd" stroke="none" />
      <path d="M34 18.5C34 16.0147 36.0147 14 38.5 14C40.9853 14 43 16.0147 43 18.5C43 20.9853 40.9853 23 38.5 23C36.0147 23 34 20.9853 34 18.5Z" id="Oval-2-Copy" fill="#000000" fill-rule="evenodd" stroke="none" />
      <g id="Group" transform="translate(37.5 13.808105)">
        <path d="M0 16.1919L17.9902 24.93" id="Line-2" fill="none" fill-rule="evenodd" stroke="#000000" stroke-width="3" stroke-linecap="square" />
        <path d="M17.4999 3.69178C15.0084 1.20017 10 -2.35985 10 2.19177C10 6.74339 10 69.6914 10 69.6914" id="Line" fill="none" fill-rule="evenodd" stroke="#000000" stroke-width="3" stroke-linecap="square" />
      </g>
    </g>
    <g id="ؤؤ" clip-path="url(#clip_2)" transform="translate(100 30)">
      <path d="M0 0L100 0L100 100L0 100L0 0Z" id="ؤؤ" fill="#FFFFFF" fill-rule="evenodd" stroke="none" />
      <path d="M35 49C35 42.3726 40.3726 37 47 37C53.6274 37 59 42.3726 59 49C59 55.6274 53.6274 61 47 61C40.3726 61 35 55.6274 35 49Z" id="Oval" fill="none" fill-rule="evenodd" stroke="#000000" stroke-width="3" />
      <path d="M54.9999 17.4999C52.5084 15.0083 47.5 11.4483 47.5 15.9999C47.5 20.5515 47.5 83.4995 47.5 83.4995" id="Line" fill="none" fill-rule="evenodd" stroke="#000000" stroke-width="3" stroke-linecap="square" />
      <path d="M32 21.5C32 19.0147 34.0147 17 36.5 17C38.9853 17 41 19.0147 41 21.5C41 23.9853 38.9853 26 36.5 26C34.0147 26 32 23.9853 32 21.5Z" id="Oval-2-Copy-2" fill="#000000" fill-rule="evenodd" stroke="none" />
    </g>
    <g id="أأ" clip-path="url(#clip_2)" transform="translate(200 30)">
      <path d="M0 0L100 0L100 100L0 100L0 0Z" id="أأ" fill="#FFFFFF" fill-rule="evenodd" stroke="none" />
      <path d="M54.9999 17.4999C52.5084 15.0083 47.5 11.4483 47.5 15.9999C47.5 20.5515 47.5 83.4995 47.5 83.4995" id="Line" fill="none" fill-rule="evenodd" stroke="#000000" stroke-width="3" stroke-linecap="square" />
      <path d="M32 16.5C32 14.0147 34.0147 12 36.5 12C38.9853 12 41 14.0147 41 16.5C41 18.9853 38.9853 21 36.5 21C34.0147 21 32 18.9853 32 16.5Z" id="Oval-2" fill="#000000" fill-rule="evenodd" stroke="none" />
    </g>
    <g id="ؤ " clip-path="url(#clip_2)" transform="translate(300 30)">
      <path d="M0 0L100 0L100 100L0 100L0 0Z" id="ؤ-" fill="#FFFFFF" fill-rule="evenodd" stroke="none" />
      <path d="M35 49C35 42.3726 40.3726 37 47 37C53.6274 37 59 42.3726 59 49C59 55.6274 53.6274 61 47 61C40.3726 61 35 55.6274 35 49Z" id="Oval" fill="none" fill-rule="evenodd" stroke="#000000" stroke-width="3" />
      <path d="M54.9999 17.4999C52.5084 15.0083 47.5 11.4483 47.5 15.9999C47.5 20.5515 47.5 83.4995 47.5 83.4995" id="Line" fill="none" fill-rule="evenodd" stroke="#000000" stroke-width="3" stroke-linecap="square" />
    </g>
    <g id="إ " clip-path="url(#clip_2)" transform="translate(400 30)">
      <path d="M0 0L100 0L100 100L0 100L0 0Z" id="إ-" fill="#FFFFFF" fill-rule="evenodd" stroke="none" />
      <g id="Group" transform="translate(37.5 13.808105)">
        <path d="M0 16.1919L17.9902 24.93" id="Line-2" fill="none" fill-rule="evenodd" stroke="#000000" stroke-width="3" stroke-linecap="square" />
        <path d="M17.4999 3.69178C15.0084 1.20017 10 -2.35985 10 2.19177C10 6.74339 10 69.6914 10 69.6914" id="Line" fill="none" fill-rule="evenodd" stroke="#000000" stroke-width="3" stroke-linecap="square" />
      </g>
    </g>
    <g id="أ" clip-path="url(#clip_2)" transform="translate(500 30)">
      <path d="M0 0L100 0L100 100L0 100L0 0Z" id="أ" fill="#FFFFFF" fill-rule="evenodd" stroke="none" />
      <path d="M54.9999 17.4999C52.5084 15.0083 47.5 11.4483 47.5 15.9999C47.5 20.5515 47.5 83.4995 47.5 83.4995" id="Line" fill="none" fill-rule="evenodd" stroke="#000000" stroke-width="3" stroke-linecap="square" />
    </g>
    <g id="ك (g)" clip-path="url(#clip_2)" transform="translate(400 531)">
      <path d="M0 0L100 0L100 100L0 100L0 0Z" id="ك-(g)" fill="#FFFFFF" fill-rule="evenodd" stroke="none" />
      <g id="Group" transform="translate(37 17)">
        <path d="M25 0L25 51.3553C25 51.3553 24.4113 59.7022 23.9405 60.6927C21.6449 68.5969 8.60764 66.4636 3.81049 62.0933C-0.986664 57.7229 -1.54595 50.2919 3.81044 48.5541C9.16682 46.8163 10.697 51.3553 10.697 51.3553" id="Line" fill="none" fill-rule="evenodd" stroke="#000000" stroke-width="3" stroke-linecap="square" />
        <path d="M11.5 10.5L39.5 10.5" id="Line-2" fill="none" fill-rule="evenodd" stroke="#000000" stroke-width="3" stroke-linecap="square" />
      </g>
    </g>
    <g id="ظ" clip-path="url(#clip_2)" transform="translate(500 430)">
      <path d="M0 0L100 0L100 100L0 100L0 0Z" id="ظ" fill="#FFFFFF" fill-rule="evenodd" stroke="none" />
      <g id="Group" transform="translate(27 16)">
        <g id="Oval">
          <g clip-path="url(#clip_3)">
            <use xlink:href="#path_3" fill="none" stroke="#000000" stroke-width="6" />
          </g>
        </g>
        <path d="M33.999 0C33.999 0 33.999 24.1731 33.999 37.5036C34.047 44.3087 32.499 54 32.499 54" id="Line" fill="none" fill-rule="evenodd" stroke="#000000" stroke-width="3" stroke-linecap="square" />
        <path d="M22 10L46 10" id="Line" fill="none" fill-rule="evenodd" stroke="#000000" stroke-width="3" stroke-linecap="square" />
      </g>
    </g>
    <g id="ز" clip-path="url(#clip_2)" transform="translate(500 330)">
      <path d="M0 0L100 0L100 100L0 100L0 0Z" id="ز" fill="#FFFFFF" fill-rule="evenodd" stroke="none" />
      <path d="M60.6406 12C60.6406 12 60.6406 55.8375 60.6406 67.5001C60.6409 73.9985 56.7652 47.9081 45.0209 56.3913C37.0767 61.2301 37.6713 78.9129 38.3895 88" id="Line" fill="none" fill-rule="evenodd" stroke="#000000" stroke-width="3" stroke-linecap="square" />
      <path d="M50.5 18L70.5 18" id="Line-2" fill="none" fill-rule="evenodd" stroke="#000000" stroke-width="3" stroke-linecap="square" />
    </g>
    <g id="ي" clip-path="url(#clip_2)" transform="translate(400 630)">
      <path d="M0 0L100 0L100 100L0 100L0 0Z" id="ي" fill="#FFFFFF" fill-rule="evenodd" stroke="none" />
      <path d="M47.5238 15L47.5238 85L47.524 62.2118C47.524 62.2118 105.468 74.9665 31 73.6546" transform="matrix(-1 0 0 1 100 0)" id="Line" fill="none" fill-rule="evenodd" stroke="#000000" stroke-width="3" stroke-linecap="square" />
    </g>
    <g id="و" clip-path="url(#clip_2)" transform="translate(500 630)">
      <path d="M0 0L100 0L100 100L0 100L0 0Z" id="و" fill="#FFFFFF" fill-rule="evenodd" stroke="none" />
      <path d="M35.0975 33.3641C31.4074 35.9369 25.0043 33.4691 29.5976 26.8641C34.1908 20.2592 61.7226 29.1141 67.5976 26.8641C67.6873 26.8298 67.783 26.8108 67.861 26.7609C70.9078 24.8119 71.58 20.9737 70.0976 17.8607C68.6152 14.7476 56.4726 5.36405 54.5976 25.8641C54.5976 46.5583 54.5975 86.8641 54.5975 86.8641" id="Line" fill="none" fill-rule="evenodd" stroke="#000000" stroke-width="3" stroke-linecap="square" />
    </g>
    <g id="Aspiration symbol" clip-path="url(#clip_2)" transform="translate(300 629)">
      <path d="M0 0L100 0L100 100L0 100L0 0Z" id="Aspiration-symbol" fill="#FFFFFF" fill-rule="evenodd" stroke="none" />
      <path d="M60.9657 39.6846C60.9657 39.6846 68.6931 54.0301 59.6306 54.2798C50.5682 54.5295 47.8566 44.3525 47.8127 44.7338C47.7687 45.115 50.4016 53.9369 44.7979 59.0912C39.1941 64.2455 35.2743 55.5681 32.9799 49.5452" id="Vector-Copy" fill="none" fill-rule="evenodd" stroke="#000000" stroke-width="4" />
    </g>
    <g id="ك" clip-path="url(#clip_2)" transform="translate(500 529)">
      <path d="M0 0L100 0L100 100L0 100L0 0Z" id="ك" fill="#FFFFFF" fill-rule="evenodd" stroke="none" />
      <path d="M62 17L62 68.3553C62 68.3553 61.4113 76.7022 60.9405 77.6927C58.6449 85.5969 45.6076 83.4636 40.8105 79.0933C36.0133 74.7229 35.454 67.2919 40.8104 65.5541C46.1668 63.8163 47.697 68.3553 47.697 68.3553" id="Line" fill="none" fill-rule="evenodd" stroke="#000000" stroke-width="3" stroke-linecap="square" />
    </g>
  </g>
</svg>