<?xml version="1.0" encoding="utf-8"?>
<svg width="1292px" height="140px" viewBox="0 0 1292 140" version="1.1" xmlns:xlink="http://www.w3.org/1999/xlink" xmlns="http://www.w3.org/2000/svg">
  <defs>
    <path d="M1292 0L1292 0L1292 140L0 140L0 0L1292 0Z" id="path_1" />
    <path d="M281 0L281 0L281 109L0 109L0 0L281 0Z" id="path_2" />
    <path d="M290 0L290 0L290 109L0 109L0 0L290 0Z" id="path_3" />
    <clipPath id="clip_1">
      <use xlink:href="#path_1" clip-rule="evenodd" fill-rule="evenodd" />
    </clipPath>
    <clipPath id="clip_2">
      <use xlink:href="#path_2" clip-rule="evenodd" fill-rule="evenodd" />
    </clipPath>
    <clipPath id="clip_3">
      <use xlink:href="#path_3" clip-rule="evenodd" fill-rule="evenodd" />
    </clipPath>
  </defs>
  <g id="Frame">
    <path d="M1292 0L1292 0L1292 140L0 140L0 0L1292 0Z" id="Frame" fill="#FFFFFF" stroke="none" />
    <g id="Frame" clip-path="url(#clip_1)">
      <path d="M281 0L281 0L281 109L0 109L0 0L281 0Z" id="Frame" fill="#FFFFFF" stroke="none" transform="translate(8 15)" />
      <g id="Group" clip-path="url(#clip_2)" transform="translate(8 15), translate(62 26)">
        <path d="M0 0L11.0819 0L11.0819 17.4723C11.0819 17.4723 2.36739 18.1736 6.32157 34.9058L0 25.3966L0 0Z" id="Vector" fill="#E49840" fill-rule="evenodd" stroke="none" />
        <path d="M10.2885 20.642C10.2885 20.642 13.975 34.3664 26.9448 34.9058C39.9145 35.4454 65.0276 34.9058 65.0276 34.9058L65.0276 0.0386963L74.5482 0.0386963L74.5482 46L26.9447 46C26.9447 46 -0.806968 44.2342 10.2885 20.642Z" id="Vector" fill="#367B9A" fill-rule="evenodd" stroke="none" />
        <path d="M87.2132 45.9795L76.1401 45.9999L76.1401 0.0386963L122.789 0.0386963C135.876 0.153228 148.836 6.47463 150.719 19.0571L150.719 45.9795L141.198 45.9795L141.198 22.2269C141.198 23.4133 139.504 8.73575 118.983 11.1328L87.2132 11.1328L87.2132 45.9795Z" id="Vector" fill="#367B9A" fill-rule="evenodd" stroke="none" />
        <path d="M108.038 19.1105L118.983 19.1105L118.983 46L108.038 46L108.038 19.1105Z" id="Vector" fill="#367B9A" fill-rule="evenodd" stroke="none" />
        <path d="M163.544 15.9338L160.24 15.9338L160.24 17.4723L155.479 17.4723L155.479 15.9338L152.306 15.9338L152.306 45.9999L155.479 45.9999L155.479 39.6605L158.653 39.6605L158.653 38.0756L157.066 38.0756L157.066 36.4907L155.479 36.4907L155.479 25.3966L157.066 23.8118L158.653 22.2269L160.24 20.6033L163.544 19.0571L163.544 15.9338Z" id="Vector" fill="#367B9A" fill-rule="evenodd" stroke="none" />
        <path d="M163.393 20.5476L161.826 20.5476L159.472 22.9806L157.066 25.3579L157.066 29.2702L157.066 34.9058L159.472 36.452L159.472 37.8797L159.528 41.2453L157.066 41.2453L157.066 45.9999L163.413 45.9999L163.393 20.5476Z" id="Vector" fill="#E49840" fill-rule="evenodd" stroke="none" />
        <path d="M150.719 7.17061C150.719 3.23176 153.916 0.0386963 157.86 0.0386963C161.803 0.0386963 165 3.23176 165 7.17061C165 11.1095 161.803 14.3025 157.86 14.3025C153.916 14.3025 150.719 11.1095 150.719 7.17061Z" id="Oval" fill="#E49840" fill-rule="evenodd" stroke="none" />
      </g>
      <g id="Moulay-Ismail-University" clip-path="url(#clip_2)" transform="translate(8 15), translate(56 82)">
        <g transform="translate(0, 2.953125)" id="Moulay-Ismail-University">
          <path d="M1.68848 12.8652L1.68848 4.08789L0.676758 4.08789L0.676758 3.41797L3.35645 3.41797L6.20703 10.8471L9.14648 3.41797L11.5527 3.41797L11.5527 4.08789L10.541 4.08789L10.541 12.8652L11.5527 12.8652L11.5527 13.5352L8.18262 13.5352L8.18262 12.8652L9.19434 12.8652L9.18066 5.3535L6.2411 12.7832L5.5715 12.7832L2.61816 5.04749L2.61816 12.8652L3.71191 12.8652L3.71191 13.5352L0.676758 13.5352L0.676758 12.8652L1.68848 12.8652ZM16.6113 13.7061Q14.9707 13.7061 14.0205 12.6661Q13.0703 11.6261 13.0703 9.81982Q13.0703 8.02037 14.0205 6.9804Q14.9707 5.94043 16.6113 5.94043Q18.2588 5.94043 19.2056 6.9804Q20.1523 8.02037 20.1523 9.81982Q20.1523 11.6193 19.2056 12.6627Q18.2588 13.7061 16.6113 13.7061ZM16.6079 13.0361Q17.5224 13.0361 18.1196 12.1284Q18.7168 11.2208 18.7168 9.82324Q18.7168 8.42572 18.1196 7.51804Q17.5224 6.61035 16.6079 6.61035Q15.6934 6.61035 15.0996 7.51804Q14.5059 8.42572 14.5059 9.82324Q14.5059 11.2208 15.0996 12.1284Q15.6934 13.0361 16.6079 13.0361ZM27.1523 13.5352L27.1523 12.1406Q26.6404 12.9199 25.9714 13.313Q25.3025 13.7061 24.4765 13.7061Q23.5277 13.7061 22.9816 13.0771Q22.4355 12.4482 22.4355 11.3408L22.4355 6.78809L21.4238 6.78809L21.4238 6.11133L23.7891 6.11133L23.7891 11.1289Q23.7891 12.0039 24.0478 12.3491Q24.3065 12.6943 24.9465 12.6943Q25.4979 12.6943 26.0494 12.397Q26.6009 12.0996 27.1523 11.5117L27.1523 6.78809L26.1406 6.78809L26.1406 6.11133L28.5059 6.11133L28.5059 12.8584L29.5176 12.8584L29.5176 13.5352L27.1523 13.5352ZM33.2295 2.74121L33.2295 12.8584L34.2412 12.8584L34.2412 13.5352L30.8643 13.5352L30.8643 12.8584L31.876 12.8584L31.876 3.41797L30.8643 3.41797L30.8643 2.74121L33.2295 2.74121ZM40.1969 12.5166Q39.596 13.1113 39.002 13.4087Q38.4079 13.7061 37.8207 13.7061Q36.8785 13.7061 36.2503 13.107Q35.6221 12.5079 35.6221 11.6042Q35.6221 10.3719 36.6185 9.75921Q37.615 9.14648 39.6078 9.14648L39.8877 9.14648L39.8877 8.23047Q39.8877 6.61035 38.5101 6.61035Q37.6986 6.61035 37.0234 7.21875L36.9414 7.96387L36.1826 7.96387L36.1826 6.5625Q37.6113 5.94043 38.8213 5.94043Q41.2412 5.94043 41.2412 8.16435L41.2412 11.4762Q41.2412 12.8584 41.9248 12.8584Q42.0547 12.8584 42.2529 12.8105L42.3418 13.5352Q41.8496 13.7061 41.4668 13.7061Q40.4649 13.7061 40.1969 12.5166ZM39.8877 12.1475L39.8877 9.82324L39.5672 9.82324Q38.3124 9.82324 37.685 10.2231Q37.0576 10.623 37.0576 11.4297Q37.0576 12.0107 37.4327 12.3936Q37.8078 12.7764 38.3806 12.7764Q38.7011 12.7764 39.0762 12.6191Q39.4513 12.4619 39.8877 12.1475ZM46.5361 13.5378L43.7307 6.78809L43.1416 6.78809L43.1416 6.11133L46.2109 6.11133L46.2109 6.78809L45.1924 6.78809L47.2919 11.84L49.5409 6.78809L48.5352 6.78809L48.5352 6.11133L50.8867 6.11133L50.8867 6.78809L50.2886 6.78809L47.2422 13.6172L46.0742 16.2354L44.4746 16.2354L46.5361 13.5378ZM58.8096 4.08789L58.8096 12.8652L59.8213 12.8652L59.8213 13.5352L56.3623 13.5352L56.3623 12.8652L57.374 12.8652L57.374 4.08789L56.3623 4.08789L56.3623 3.41797L59.8213 3.41797L59.8213 4.08789L58.8096 4.08789ZM61.6055 13.1592L61.6055 11.5117L62.4463 11.5117L62.4463 12.3563Q62.9043 12.6927 63.335 12.8644Q63.7656 13.0361 64.1689 13.0361Q64.8184 13.0361 65.2251 12.7005Q65.6318 12.3649 65.6318 11.8307Q65.6318 11.0225 64.4492 10.5636L63.7588 10.2965Q61.6465 9.47461 61.6465 8.02261Q61.6465 7.11845 62.3677 6.52944Q63.0889 5.94043 64.1963 5.94043Q64.75 5.94043 65.314 6.04462Q65.8779 6.14882 66.4521 6.36426L66.4521 7.9707L65.6113 7.9707L65.6113 7.11877Q65.2354 6.86456 64.8765 6.73746Q64.5176 6.61035 64.1689 6.61035Q63.6357 6.61035 63.2734 6.9388Q62.9111 7.26724 62.9111 7.74619Q62.9111 8.18411 63.2393 8.47491Q63.5674 8.7657 64.5039 9.14894L65.1328 9.40892Q66.165 9.83318 66.5718 10.2882Q66.9785 10.7432 66.9785 11.4617Q66.9785 12.4539 66.189 13.08Q65.3994 13.7061 64.1279 13.7061Q63.4648 13.7061 62.8325 13.5693Q62.2002 13.4326 61.6055 13.1592ZM70.9229 7.50586Q71.5099 6.72314 72.1515 6.33179Q72.793 5.94043 73.4892 5.94043Q74.3015 5.94043 74.7759 6.33179Q75.2502 6.72314 75.3867 7.50586L75.4756 7.50586Q76.0635 6.72314 76.7026 6.33179Q77.3418 5.94043 78.0391 5.94043Q78.9619 5.94043 79.4951 6.52549Q80.0283 7.11055 80.0283 8.13007L80.0283 12.8584L81.04 12.8584L81.04 13.5352L77.6631 13.5352L77.6631 12.8584L78.6748 12.8584L78.6748 8.37563Q78.6748 7.66394 78.4253 7.30804Q78.1758 6.95215 77.6699 6.95215Q77.1504 6.95215 76.6035 7.2478Q76.0566 7.54346 75.4756 8.13477L75.4756 12.8584L76.4873 12.8584L76.4873 13.5352L73.1104 13.5352L73.1104 12.8584L74.1221 12.8584L74.1221 8.37563Q74.1221 7.66394 73.8731 7.30804Q73.6241 6.95215 73.1193 6.95215Q72.6009 6.95215 72.0517 7.2478Q71.5026 7.54346 70.9229 8.13477L70.9229 12.8584L71.9346 12.8584L71.9346 13.5352L68.5576 13.5352L68.5576 12.8584L69.5693 12.8584L69.5693 6.78809L68.5576 6.78809L68.5576 6.11133L70.9229 6.11133L70.9229 7.50586ZM86.7428 12.5166Q86.1419 13.1113 85.5479 13.4087Q84.9538 13.7061 84.3666 13.7061Q83.4244 13.7061 82.7962 13.107Q82.168 12.5079 82.168 11.6042Q82.168 10.3719 83.1644 9.75921Q84.1609 9.14648 86.1537 9.14648L86.4336 9.14648L86.4336 8.23047Q86.4336 6.61035 85.056 6.61035Q84.2445 6.61035 83.5693 7.21875L83.4873 7.96387L82.7285 7.96387L82.7285 6.5625Q84.1572 5.94043 85.3672 5.94043Q87.7871 5.94043 87.7871 8.16435L87.7871 11.4762Q87.7871 12.8584 88.4707 12.8584Q88.6006 12.8584 88.7988 12.8105L88.8877 13.5352Q88.3955 13.7061 88.0127 13.7061Q87.0108 13.7061 86.7428 12.5166ZM86.4336 12.1475L86.4336 9.82324L86.1131 9.82324Q84.8583 9.82324 84.2309 10.2231Q83.6035 10.623 83.6035 11.4297Q83.6035 12.0107 83.9786 12.3936Q84.3537 12.7764 84.9265 12.7764Q85.247 12.7764 85.6221 12.6191Q85.9972 12.4619 86.4336 12.1475ZM92.3535 6.11133L92.3535 12.8584L93.3652 12.8584L93.3652 13.5352L89.9883 13.5352L89.9883 12.8584L91 12.8584L91 6.78809L89.9883 6.78809L89.9883 6.11133L92.3535 6.11133ZM91 4.76465L91 3.41797L92.3535 3.41797L92.3535 4.76465L91 4.76465ZM97.0771 2.74121L97.0771 12.8584L98.0889 12.8584L98.0889 13.5352L94.7119 13.5352L94.7119 12.8584L95.7236 12.8584L95.7236 3.41797L94.7119 3.41797L94.7119 2.74121L97.0771 2.74121ZM104.706 4.08789L103.694 4.08789L103.694 3.41797L107.064 3.41797L107.064 4.08789L106.142 4.08789L106.142 9.47867Q106.142 10.7922 106.268 11.3942Q106.395 11.9962 106.75 12.3862Q107.413 13.1182 108.5 13.1182Q109.546 13.1182 110.223 12.434Q110.865 11.791 110.865 9.77966L110.865 4.08789L109.854 4.08789L109.854 3.41797L112.889 3.41797L112.889 4.08789L111.877 4.08789L111.877 9.40625Q111.877 10.8145 111.723 11.457Q111.569 12.0996 111.091 12.6943Q110.209 13.7881 108.363 13.7881Q106.47 13.7881 105.588 12.8208Q104.706 11.8535 104.706 9.76855L104.706 4.08789ZM116.437 7.50586Q116.948 6.72314 117.617 6.33179Q118.286 5.94043 119.112 5.94043Q120.068 5.94043 120.611 6.56998Q121.153 7.19952 121.153 8.30118L121.153 12.8584L122.165 12.8584L122.165 13.5352L118.788 13.5352L118.788 12.8584L119.8 12.8584L119.8 8.51256Q119.8 7.64333 119.544 7.29774Q119.289 6.95215 118.642 6.95215Q118.084 6.95215 117.533 7.2478Q116.981 7.54346 116.437 8.13477L116.437 12.8584L117.448 12.8584L117.448 13.5352L114.071 13.5352L114.071 12.8584L115.083 12.8584L115.083 6.78809L114.071 6.78809L114.071 6.11133L116.437 6.11133L116.437 7.50586ZM125.631 6.11133L125.631 12.8584L126.643 12.8584L126.643 13.5352L123.266 13.5352L123.266 12.8584L124.277 12.8584L124.277 6.78809L123.266 6.78809L123.266 6.11133L125.631 6.11133ZM124.277 4.76465L124.277 3.41797L125.631 3.41797L125.631 4.76465L124.277 4.76465ZM131.147 13.6172L128.312 6.78809L127.716 6.78809L127.716 6.11133L130.785 6.11133L130.785 6.78809L129.767 6.78809L131.872 11.8467L134.128 6.78809L133.116 6.78809L133.116 6.11133L135.461 6.11133L135.461 6.78809L134.868 6.78809L131.823 13.6172L131.147 13.6172ZM142.611 13.2002Q141.326 13.7061 140.253 13.7061Q138.626 13.7061 137.607 12.6011Q136.589 11.4961 136.589 9.74452Q136.589 8.06833 137.505 7.00438Q138.421 5.94043 139.856 5.94043Q141.183 5.94043 141.897 6.83594Q142.611 7.73145 142.611 9.39941L142.611 9.65234L138.018 9.65234Q138.018 11.1184 138.661 11.9474Q139.305 12.7764 140.448 12.7764Q141.55 12.7764 142.611 12.1885L142.611 13.2002ZM138.106 8.97559L141.183 8.97559L141.183 8.80469Q141.183 6.61035 139.781 6.61035Q139.016 6.61035 138.599 7.20166Q138.182 7.79297 138.106 8.97559ZM146.583 8.13477L146.583 12.8584L147.595 12.8584L147.595 13.5352L144.218 13.5352L144.218 12.8584L145.229 12.8584L145.229 6.78809L144.218 6.78809L144.218 6.11133L146.583 6.11133L146.583 7.50586Q147.492 5.94043 149.003 5.94043Q149.229 5.94043 149.447 6.02588L149.447 7.88184L148.606 7.88184L148.606 7.12305L148.388 7.12305Q147.52 7.12305 146.583 8.13477ZM151.067 13.1592L151.067 11.5117L151.908 11.5117L151.908 12.3563Q152.366 12.6927 152.797 12.8644Q153.228 13.0361 153.631 13.0361Q154.28 13.0361 154.687 12.7005Q155.094 12.3649 155.094 11.8307Q155.094 11.0225 153.911 10.5636L153.221 10.2965Q151.108 9.47461 151.108 8.02261Q151.108 7.11845 151.83 6.52944Q152.551 5.94043 153.658 5.94043Q154.212 5.94043 154.776 6.04462Q155.34 6.14882 155.914 6.36426L155.914 7.9707L155.073 7.9707L155.073 7.11877Q154.697 6.86456 154.338 6.73746Q153.979 6.61035 153.631 6.61035Q153.098 6.61035 152.735 6.9388Q152.373 7.26724 152.373 7.74619Q152.373 8.18411 152.701 8.47491Q153.029 8.7657 153.966 9.14894L154.595 9.40892Q155.627 9.83318 156.034 10.2882Q156.44 10.7432 156.44 11.4617Q156.44 12.4539 155.651 13.08Q154.861 13.7061 153.59 13.7061Q152.927 13.7061 152.294 13.5693Q151.662 13.4326 151.067 13.1592ZM160.385 6.11133L160.385 12.8584L161.396 12.8584L161.396 13.5352L158.02 13.5352L158.02 12.8584L159.031 12.8584L159.031 6.78809L158.02 6.78809L158.02 6.11133L160.385 6.11133ZM159.031 4.76465L159.031 3.41797L160.385 3.41797L160.385 4.76465L159.031 4.76465ZM167.084 13.4941Q166.585 13.7061 166.065 13.7061Q164.917 13.7061 164.377 13.1045Q163.837 12.5029 163.837 11.2178L163.837 6.87012L162.825 6.87012L162.825 6.11133L163.837 6.11133L163.837 4.76465L165.19 4.42969L165.19 6.11133L167.084 6.11133L167.084 6.87012L165.19 6.87012L165.19 11.3955Q165.19 12.168 165.464 12.5576Q165.737 12.9473 166.277 12.9473Q166.626 12.9473 167.084 12.7354L167.084 13.4941ZM171.483 13.5378L168.678 6.78809L168.089 6.78809L168.089 6.11133L171.158 6.11133L171.158 6.78809L170.14 6.78809L172.239 11.84L174.488 6.78809L173.482 6.78809L173.482 6.11133L175.834 6.11133L175.834 6.78809L175.236 6.78809L172.189 13.6172L171.021 16.2354L169.422 16.2354L171.483 13.5378Z" />
        </g>
      </g>
    </g>
    <g id="Frame" clip-path="url(#clip_1)">
      <path d="M290 0L290 0L290 109L0 109L0 0L290 0Z" id="Frame" fill="#FFFFFF" stroke="none" transform="translate(970 15)" />
      <g id="Group" clip-path="url(#clip_3)" transform="translate(970 15), translate(90 5)">
        <path d="M33.2761 65.7272L27.9866 71L0 71L18.6577 64.1449L18.6577 49.9447L20.6217 49.9447L20.6217 41.1308C20.6217 41.1308 24.1969 34.8152 27.9866 41.1308L27.9866 49.9447L29.4595 49.9447L29.4595 60.7176L40.7523 60.7175L40.7523 45.0484L45.6622 45.0484L45.6622 34.2759C45.6622 34.2759 53.6734 21.8526 62.8469 34.2759L62.8469 45.0484L66.7748 45.0484L66.7748 60.7175L77.5766 60.7176L77.5766 49.9447L80.5225 49.9447L80.5225 41.1308C80.5225 41.1308 83.6741 33.7343 87.8874 41.1308L87.8874 49.9447L90.3423 49.9447L90.3423 64.1449L109 71L83.4685 71L77.5766 65.7272L33.2761 65.7272Z" id="Vector" fill="#037BA0" fill-rule="evenodd" stroke="none" />
        <path d="M18.6577 23.5038L90.3424 23.5038L90.3424 27.4211L18.6577 27.4211L18.6577 23.5038Z" id="Rectangle" fill="#037BA0" fill-rule="evenodd" stroke="none" />
        <path d="M20.6216 17.6278L87.3964 17.6278L87.3964 19.5865L20.6216 19.5865L20.6216 17.6278Z" id="Rectangle" fill="#037BA0" fill-rule="evenodd" stroke="none" />
        <path d="M15.7117 9.79321L92.3063 9.79321L92.3063 15.6692L15.7117 15.6692L15.7117 9.79321Z" id="Rectangle" fill="#037BA0" fill-rule="evenodd" stroke="none" />
        <path d="M49.0991 6.3656C49.0991 2.84998 51.9568 0 55.482 0C59.0072 0 61.8649 2.84998 61.8649 6.3656C61.8649 9.88123 59.0072 12.7312 55.482 12.7312C51.9568 12.7312 49.0991 9.88123 49.0991 6.3656Z" id="Oval" fill="#E49840" fill-rule="evenodd" stroke="none" />
      </g>
      <g id="Faculty-of-Letters-and-Human-S" clip-path="url(#clip_3)" transform="translate(970 15), translate(7 82)">
        <g transform="translate(0, 2.953125)" id="Faculty-of-Letters-and-Human-Sciences">
          <path d="M4.21777 13.5352L0.676758 13.5352L0.676758 12.8652L1.68848 12.8652L1.68848 4.08789L0.676758 4.08789L0.676758 3.41797L7.25293 3.41797L7.25293 5.09961L6.49414 5.09961L6.49414 4.08789L3.12402 4.08789L3.12402 8.05957L5.48242 8.05957L5.48242 7.21191L6.15918 7.21191L6.15918 9.57715L5.48242 9.57715L5.48242 8.72949L3.12402 8.72949L3.12402 12.8652L4.21777 12.8652L4.21777 13.5352ZM13.1676 12.5166Q12.5667 13.1113 11.9727 13.4087Q11.3786 13.7061 10.7914 13.7061Q9.8492 13.7061 9.22099 13.107Q8.59277 12.5079 8.59277 11.6042Q8.59277 10.3719 9.58922 9.75921Q10.5857 9.14648 12.5786 9.14648L12.8584 9.14648L12.8584 8.23047Q12.8584 6.61035 11.4809 6.61035Q10.6693 6.61035 9.99414 7.21875L9.91211 7.96387L9.15332 7.96387L9.15332 6.5625Q10.582 5.94043 11.792 5.94043Q14.2119 5.94043 14.2119 8.16435L14.2119 11.4762Q14.2119 12.8584 14.8955 12.8584Q15.0254 12.8584 15.2236 12.8105L15.3125 13.5352Q14.8203 13.7061 14.4375 13.7061Q13.4356 13.7061 13.1676 12.5166ZM12.8584 12.1475L12.8584 9.82324L12.5379 9.82324Q11.2831 9.82324 10.6557 10.2231Q10.0283 10.623 10.0283 11.4297Q10.0283 12.0107 10.4034 12.3936Q10.7785 12.7764 11.3513 12.7764Q11.6718 12.7764 12.0469 12.6191Q12.422 12.4619 12.8584 12.1475ZM22.3125 13.2822Q21.2393 13.7061 20.2754 13.7061Q18.6074 13.7061 17.5923 12.6284Q16.5771 11.5508 16.5771 9.78564Q16.5771 8.05455 17.5444 6.99749Q18.5117 5.94043 20.0977 5.94043Q20.5283 5.94043 21.082 6.02246Q21.6357 6.10449 22.3125 6.27539L22.3125 7.96387L21.5537 7.96387L21.4717 7.03418Q21.1777 6.82227 20.8599 6.71631Q20.542 6.61035 20.207 6.61035Q19.2637 6.61035 18.6382 7.52055Q18.0127 8.43074 18.0127 9.79942Q18.0127 11.1887 18.6587 11.9825Q19.3047 12.7764 20.4258 12.7764Q21.3896 12.7764 22.3125 12.3457L22.3125 13.2822ZM29.5176 13.5352L29.5176 12.1406Q29.0056 12.9199 28.3367 13.313Q27.6677 13.7061 26.8417 13.7061Q25.8929 13.7061 25.3469 13.0771Q24.8008 12.4482 24.8008 11.3408L24.8008 6.78809L23.7891 6.78809L23.7891 6.11133L26.1543 6.11133L26.1543 11.1289Q26.1543 12.0039 26.413 12.3491Q26.6717 12.6943 27.3117 12.6943Q27.8632 12.6943 28.4146 12.397Q28.9661 12.0996 29.5176 11.5117L29.5176 6.78809L28.5059 6.78809L28.5059 6.11133L30.8711 6.11133L30.8711 12.8584L31.8828 12.8584L31.8828 13.5352L29.5176 13.5352ZM35.5947 2.74121L35.5947 12.8584L36.6064 12.8584L36.6064 13.5352L33.2295 13.5352L33.2295 12.8584L34.2412 12.8584L34.2412 3.41797L33.2295 3.41797L33.2295 2.74121L35.5947 2.74121ZM42.2939 13.4941Q41.7949 13.7061 41.2754 13.7061Q40.127 13.7061 39.5869 13.1045Q39.0469 12.5029 39.0469 11.2178L39.0469 6.87012L38.0352 6.87012L38.0352 6.11133L39.0469 6.11133L39.0469 4.76465L40.4004 4.42969L40.4004 6.11133L42.2939 6.11133L42.2939 6.87012L40.4004 6.87012L40.4004 11.3955Q40.4004 12.168 40.6738 12.5576Q40.9473 12.9473 41.4873 12.9473Q41.8359 12.9473 42.2939 12.7354L42.2939 13.4941ZM46.6933 13.5378L43.8879 6.78809L43.2988 6.78809L43.2988 6.11133L46.3682 6.11133L46.3682 6.78809L45.3496 6.78809L47.4491 11.84L49.6981 6.78809L48.6924 6.78809L48.6924 6.11133L51.0439 6.11133L51.0439 6.78809L50.4458 6.78809L47.3994 13.6172L46.2314 16.2354L44.6318 16.2354L46.6933 13.5378ZM60.2246 13.7061Q58.584 13.7061 57.6338 12.6661Q56.6836 11.6261 56.6836 9.81982Q56.6836 8.02037 57.6338 6.9804Q58.584 5.94043 60.2246 5.94043Q61.8721 5.94043 62.8188 6.9804Q63.7656 8.02037 63.7656 9.81982Q63.7656 11.6193 62.8188 12.6627Q61.8721 13.7061 60.2246 13.7061ZM60.2212 13.0361Q61.1357 13.0361 61.7329 12.1284Q62.3301 11.2208 62.3301 9.82324Q62.3301 8.42572 61.7329 7.51804Q61.1357 6.61035 60.2212 6.61035Q59.3067 6.61035 58.7129 7.51804Q58.1191 8.42572 58.1191 9.82324Q58.1191 11.2208 58.7129 12.1284Q59.3067 13.0361 60.2212 13.0361ZM66.4727 6.87012L65.29 6.87012L65.29 6.11133L66.4727 6.11133L66.4727 5.75586Q66.4727 4.06738 67.0161 3.31885Q67.5596 2.57031 68.7832 2.57031Q69.2412 2.57031 69.6753 2.6955Q70.1094 2.82068 70.5195 3.07104L70.5195 4.25195L69.6787 4.25195L69.6787 3.66406Q69.4608 3.45215 69.2326 3.34619Q69.0044 3.24024 68.7728 3.24023Q68.303 3.24023 68.0646 3.66508Q67.8262 4.08992 67.8262 4.93961L67.8262 6.11133L69.6787 6.11133L69.6787 6.87012L67.8262 6.87012L67.8262 12.8584L68.8379 12.8584L68.8379 13.5352L65.4609 13.5352L65.4609 12.8584L66.4727 12.8584L66.4727 6.87012ZM82.7012 13.5352L75.6191 13.5352L75.6191 12.8652L76.6309 12.8652L76.6309 4.08789L75.6191 4.08789L75.6191 3.41797L78.9893 3.41797L78.9893 4.08789L78.0664 4.08789L78.0664 12.7764L81.8604 12.7764L81.8604 11.5186L82.7012 11.5186L82.7012 13.5352ZM89.8174 13.2002Q88.5322 13.7061 87.459 13.7061Q85.832 13.7061 84.8135 12.6011Q83.7949 11.4961 83.7949 9.74452Q83.7949 8.06833 84.7109 7.00438Q85.627 5.94043 87.0625 5.94043Q88.3887 5.94043 89.103 6.83594Q89.8174 7.73145 89.8174 9.39941L89.8174 9.65234L85.2236 9.65234Q85.2236 11.1184 85.8672 11.9474Q86.5107 12.7764 87.654 12.7764Q88.7562 12.7764 89.8174 12.1885L89.8174 13.2002ZM85.3125 8.97559L88.3887 8.97559L88.3887 8.80469Q88.3887 6.61035 86.9873 6.61035Q86.2217 6.61035 85.8047 7.20166Q85.3877 7.79297 85.3125 8.97559ZM95.8535 13.4941Q95.3545 13.7061 94.835 13.7061Q93.6865 13.7061 93.1465 13.1045Q92.6064 12.5029 92.6064 11.2178L92.6064 6.87012L91.5947 6.87012L91.5947 6.11133L92.6064 6.11133L92.6064 4.76465L93.96 4.42969L93.96 6.11133L95.8535 6.11133L95.8535 6.87012L93.96 6.87012L93.96 11.3955Q93.96 12.168 94.2334 12.5576Q94.5068 12.9473 95.0469 12.9473Q95.3955 12.9473 95.8535 12.7354L95.8535 13.4941ZM101.5 13.4941Q101.001 13.7061 100.481 13.7061Q99.333 13.7061 98.793 13.1045Q98.2529 12.5029 98.2529 11.2178L98.2529 6.87012L97.2412 6.87012L97.2412 6.11133L98.2529 6.11133L98.2529 4.76465L99.6064 4.42969L99.6064 6.11133L101.5 6.11133L101.5 6.87012L99.6064 6.87012L99.6064 11.3955Q99.6064 12.168 99.8799 12.5576Q100.153 12.9473 100.693 12.9473Q101.042 12.9473 101.5 12.7354L101.5 13.4941ZM108.992 13.2002Q107.707 13.7061 106.634 13.7061Q105.007 13.7061 103.988 12.6011Q102.97 11.4961 102.97 9.74452Q102.97 8.06833 103.886 7.00438Q104.802 5.94043 106.237 5.94043Q107.563 5.94043 108.278 6.83594Q108.992 7.73145 108.992 9.39941L108.992 9.65234L104.398 9.65234Q104.398 11.1184 105.042 11.9474Q105.686 12.7764 106.829 12.7764Q107.931 12.7764 108.992 12.1885L108.992 13.2002ZM104.487 8.97559L107.563 8.97559L107.563 8.80469Q107.563 6.61035 106.162 6.61035Q105.396 6.61035 104.979 7.20166Q104.563 7.79297 104.487 8.97559ZM112.964 8.13477L112.964 12.8584L113.976 12.8584L113.976 13.5352L110.599 13.5352L110.599 12.8584L111.61 12.8584L111.61 6.78809L110.599 6.78809L110.599 6.11133L112.964 6.11133L112.964 7.50586Q113.873 5.94043 115.384 5.94043Q115.609 5.94043 115.828 6.02588L115.828 7.88184L114.987 7.88184L114.987 7.12305L114.769 7.12305Q113.9 7.12305 112.964 8.13477ZM117.448 13.1592L117.448 11.5117L118.289 11.5117L118.289 12.3563Q118.747 12.6927 119.178 12.8644Q119.608 13.0361 120.012 13.0361Q120.661 13.0361 121.068 12.7005Q121.475 12.3649 121.475 11.8307Q121.475 11.0225 120.292 10.5636L119.602 10.2965Q117.489 9.47461 117.489 8.02261Q117.489 7.11845 118.21 6.52944Q118.932 5.94043 120.039 5.94043Q120.593 5.94043 121.157 6.04462Q121.721 6.14882 122.295 6.36426L122.295 7.9707L121.454 7.9707L121.454 7.11877Q121.078 6.86456 120.719 6.73746Q120.36 6.61035 120.012 6.61035Q119.479 6.61035 119.116 6.9388Q118.754 7.26724 118.754 7.74619Q118.754 8.18411 119.082 8.47491Q119.41 8.7657 120.347 9.14894L120.976 9.40892Q122.008 9.83318 122.415 10.2882Q122.821 10.7432 122.821 11.4617Q122.821 12.4539 122.032 13.08Q121.242 13.7061 119.971 13.7061Q119.308 13.7061 118.675 13.5693Q118.043 13.4326 117.448 13.1592ZM133.439 12.5166Q132.838 13.1113 132.244 13.4087Q131.65 13.7061 131.063 13.7061Q130.121 13.7061 129.492 13.107Q128.864 12.5079 128.864 11.6042Q128.864 10.3719 129.861 9.75921Q130.857 9.14648 132.85 9.14648L133.13 9.14648L133.13 8.23047Q133.13 6.61035 131.752 6.61035Q130.941 6.61035 130.266 7.21875L130.184 7.96387L129.425 7.96387L129.425 6.5625Q130.854 5.94043 132.063 5.94043Q134.483 5.94043 134.483 8.16435L134.483 11.4762Q134.483 12.8584 135.167 12.8584Q135.297 12.8584 135.495 12.8105L135.584 13.5352Q135.092 13.7061 134.709 13.7061Q133.707 13.7061 133.439 12.5166ZM133.13 12.1475L133.13 9.82324L132.809 9.82324Q131.555 9.82324 130.927 10.2231Q130.3 10.623 130.3 11.4297Q130.3 12.0107 130.675 12.3936Q131.05 12.7764 131.623 12.7764Q131.943 12.7764 132.318 12.6191Q132.693 12.4619 133.13 12.1475ZM139.05 7.50586Q139.562 6.72314 140.231 6.33179Q140.9 5.94043 141.726 5.94043Q142.681 5.94043 143.224 6.56998Q143.767 7.19952 143.767 8.30118L143.767 12.8584L144.778 12.8584L144.778 13.5352L141.401 13.5352L141.401 12.8584L142.413 12.8584L142.413 8.51256Q142.413 7.64333 142.158 7.29774Q141.902 6.95215 141.256 6.95215Q140.697 6.95215 140.146 7.2478Q139.594 7.54346 139.05 8.13477L139.05 12.8584L140.062 12.8584L140.062 13.5352L136.685 13.5352L136.685 12.8584L137.696 12.8584L137.696 6.78809L136.685 6.78809L136.685 6.11133L139.05 6.11133L139.05 7.50586ZM151.484 13.5352L151.484 12.1406Q150.992 12.9199 150.339 13.313Q149.687 13.7061 148.88 13.7061Q147.622 13.7061 146.877 12.7106Q146.132 11.7151 146.132 10.0388Q146.132 8.1777 146.986 7.05907Q147.841 5.94043 149.256 5.94043Q149.905 5.94043 150.469 6.19507Q151.033 6.44971 151.512 6.95898L151.484 6.11133L151.484 3.41797L150.473 3.41797L150.473 2.74121L152.838 2.74121L152.838 12.8584L153.85 12.8584L153.85 13.5352L151.484 13.5352ZM151.484 7.71777Q150.999 7.29395 150.479 7.08203Q149.96 6.87012 149.413 6.87012Q148.545 6.87012 148.056 7.63916Q147.567 8.4082 147.567 9.76855Q147.567 11.2314 148.008 11.9629Q148.449 12.6943 149.324 12.6943Q149.926 12.6943 150.466 12.3867Q151.006 12.0791 151.484 11.4707L151.484 7.71777ZM162.073 8.64063L162.073 12.8652L163.085 12.8652L163.085 13.5352L159.626 13.5352L159.626 12.8652L160.638 12.8652L160.638 4.08789L159.626 4.08789L159.626 3.41797L163.085 3.41797L163.085 4.08789L162.073 4.08789L162.073 7.9707L166.79 7.9707L166.79 4.08789L165.778 4.08789L165.778 3.41797L169.237 3.41797L169.237 4.08789L168.226 4.08789L168.226 12.8652L169.237 12.8652L169.237 13.5352L165.778 13.5352L165.778 12.8652L166.79 12.8652L166.79 8.64063L162.073 8.64063ZM176.066 13.5352L176.066 12.1406Q175.554 12.9199 174.885 13.313Q174.217 13.7061 173.391 13.7061Q172.442 13.7061 171.896 13.0771Q171.35 12.4482 171.35 11.3408L171.35 6.78809L170.338 6.78809L170.338 6.11133L172.703 6.11133L172.703 11.1289Q172.703 12.0039 172.962 12.3491Q173.221 12.6943 173.861 12.6943Q174.412 12.6943 174.963 12.397Q175.515 12.0996 176.066 11.5117L176.066 6.78809L175.055 6.78809L175.055 6.11133L177.42 6.11133L177.42 12.8584L178.432 12.8584L178.432 13.5352L176.066 13.5352ZM182.144 7.50586Q182.731 6.72314 183.372 6.33179Q184.014 5.94043 184.71 5.94043Q185.522 5.94043 185.997 6.33179Q186.471 6.72314 186.607 7.50586L186.696 7.50586Q187.284 6.72314 187.923 6.33179Q188.563 5.94043 189.26 5.94043Q190.183 5.94043 190.716 6.52549Q191.249 7.11055 191.249 8.13007L191.249 12.8584L192.261 12.8584L192.261 13.5352L188.884 13.5352L188.884 12.8584L189.896 12.8584L189.896 8.37563Q189.896 7.66394 189.646 7.30804Q189.396 6.95215 188.891 6.95215Q188.371 6.95215 187.824 7.2478Q187.277 7.54346 186.696 8.13477L186.696 12.8584L187.708 12.8584L187.708 13.5352L184.331 13.5352L184.331 12.8584L185.343 12.8584L185.343 8.37563Q185.343 7.66394 185.094 7.30804Q184.845 6.95215 184.34 6.95215Q183.822 6.95215 183.272 7.2478Q182.723 7.54346 182.144 8.13477L182.144 12.8584L183.155 12.8584L183.155 13.5352L179.778 13.5352L179.778 12.8584L180.79 12.8584L180.79 6.78809L179.778 6.78809L179.778 6.11133L182.144 6.11133L182.144 7.50586ZM197.964 12.5166Q197.363 13.1113 196.769 13.4087Q196.175 13.7061 195.587 13.7061Q194.645 13.7061 194.017 13.107Q193.389 12.5079 193.389 11.6042Q193.389 10.3719 194.385 9.75921Q195.382 9.14648 197.374 9.14648L197.654 9.14648L197.654 8.23047Q197.654 6.61035 196.277 6.61035Q195.465 6.61035 194.79 7.21875L194.708 7.96387L193.949 7.96387L193.949 6.5625Q195.378 5.94043 196.588 5.94043Q199.008 5.94043 199.008 8.16435L199.008 11.4762Q199.008 12.8584 199.691 12.8584Q199.821 12.8584 200.02 12.8105L200.108 13.5352Q199.616 13.7061 199.233 13.7061Q198.232 13.7061 197.964 12.5166ZM197.654 12.1475L197.654 9.82324L197.334 9.82324Q196.079 9.82324 195.452 10.2231Q194.824 10.623 194.824 11.4297Q194.824 12.0107 195.199 12.3936Q195.574 12.7764 196.147 12.7764Q196.468 12.7764 196.843 12.6191Q197.218 12.4619 197.654 12.1475ZM203.574 7.50586Q204.086 6.72314 204.755 6.33179Q205.424 5.94043 206.25 5.94043Q207.206 5.94043 207.748 6.56998Q208.291 7.19952 208.291 8.30118L208.291 12.8584L209.303 12.8584L209.303 13.5352L205.926 13.5352L205.926 12.8584L206.938 12.8584L206.938 8.51256Q206.938 7.64333 206.682 7.29774Q206.427 6.95215 205.78 6.95215Q205.222 6.95215 204.67 7.2478Q204.119 7.54346 203.574 8.13477L203.574 12.8584L204.586 12.8584L204.586 13.5352L201.209 13.5352L201.209 12.8584L202.221 12.8584L202.221 6.78809L201.209 6.78809L201.209 6.11133L203.574 6.11133L203.574 7.50586ZM215.031 13.3301L215.031 11.3887L215.79 11.3887L215.872 12.4004Q216.44 12.7559 216.916 12.937Q217.392 13.1182 217.776 13.1182Q218.632 13.1182 219.19 12.5952Q219.748 12.0723 219.748 11.2656Q219.748 10.5889 219.399 10.1172Q219.044 9.64551 218.148 9.13965L217.438 8.72949Q216.166 8.01172 215.64 7.35889Q215.113 6.70606 215.113 5.86523Q215.113 4.70313 215.947 3.93408Q216.781 3.16504 218.039 3.16504Q218.729 3.16504 219.393 3.26758Q220.056 3.37012 220.691 3.58203L220.691 5.35938L219.933 5.35938L219.851 4.38867Q219.405 4.1084 218.97 3.97168Q218.535 3.83496 218.117 3.83496Q217.474 3.83496 217.015 4.3374Q216.556 4.83984 216.556 5.55078Q216.556 6.60352 217.93 7.38281L218.647 7.79297Q220.138 8.64063 220.657 9.26953Q221.177 9.89844 221.177 10.8486Q221.177 12.1133 220.236 12.9507Q219.295 13.7881 217.885 13.7881Q217.064 13.7881 216.349 13.6719Q215.633 13.5557 215.031 13.3301ZM228.491 13.2822Q227.418 13.7061 226.454 13.7061Q224.786 13.7061 223.771 12.6284Q222.756 11.5508 222.756 9.78564Q222.756 8.05455 223.723 6.99749Q224.69 5.94043 226.276 5.94043Q226.707 5.94043 227.261 6.02246Q227.814 6.10449 228.491 6.27539L228.491 7.96387L227.732 7.96387L227.65 7.03418Q227.356 6.82227 227.039 6.71631Q226.721 6.61035 226.386 6.61035Q225.442 6.61035 224.817 7.52055Q224.191 8.43074 224.191 9.79942Q224.191 11.1887 224.837 11.9825Q225.483 12.7764 226.604 12.7764Q227.568 12.7764 228.491 12.3457L228.491 13.2822ZM232.586 6.11133L232.586 12.8584L233.598 12.8584L233.598 13.5352L230.221 13.5352L230.221 12.8584L231.232 12.8584L231.232 6.78809L230.221 6.78809L230.221 6.11133L232.586 6.11133ZM231.232 4.76465L231.232 3.41797L232.586 3.41797L232.586 4.76465L231.232 4.76465ZM241.131 13.2002Q239.846 13.7061 238.772 13.7061Q237.146 13.7061 236.127 12.6011Q235.108 11.4961 235.108 9.74452Q235.108 8.06833 236.024 7.00438Q236.94 5.94043 238.376 5.94043Q239.702 5.94043 240.417 6.83594Q241.131 7.73145 241.131 9.39941L241.131 9.65234L236.537 9.65234Q236.537 11.1184 237.181 11.9474Q237.824 12.7764 238.967 12.7764Q240.07 12.7764 241.131 12.1885L241.131 13.2002ZM236.626 8.97559L239.702 8.97559L239.702 8.80469Q239.702 6.61035 238.301 6.61035Q237.535 6.61035 237.118 7.20166Q236.701 7.79297 236.626 8.97559ZM245.191 7.50586Q245.703 6.72314 246.372 6.33179Q247.041 5.94043 247.867 5.94043Q248.823 5.94043 249.366 6.56998Q249.908 7.19952 249.908 8.30118L249.908 12.8584L250.92 12.8584L250.92 13.5352L247.543 13.5352L247.543 12.8584L248.555 12.8584L248.555 8.51256Q248.555 7.64333 248.299 7.29774Q248.044 6.95215 247.397 6.95215Q246.839 6.95215 246.288 7.2478Q245.736 7.54346 245.191 8.13477L245.191 12.8584L246.203 12.8584L246.203 13.5352L242.826 13.5352L242.826 12.8584L243.838 12.8584L243.838 6.78809L242.826 6.78809L242.826 6.11133L245.191 6.11133L245.191 7.50586ZM257.92 13.2822Q256.847 13.7061 255.883 13.7061Q254.215 13.7061 253.2 12.6284Q252.185 11.5508 252.185 9.78564Q252.185 8.05455 253.152 6.99749Q254.119 5.94043 255.705 5.94043Q256.136 5.94043 256.689 6.02246Q257.243 6.10449 257.92 6.27539L257.92 7.96387L257.161 7.96387L257.079 7.03418Q256.785 6.82227 256.467 6.71631Q256.149 6.61035 255.814 6.61035Q254.871 6.61035 254.246 7.52055Q253.62 8.43074 253.62 9.79942Q253.62 11.1887 254.266 11.9825Q254.912 12.7764 256.033 12.7764Q256.997 12.7764 257.92 12.3457L257.92 13.2822ZM265.836 13.2002Q264.551 13.7061 263.478 13.7061Q261.851 13.7061 260.832 12.6011Q259.813 11.4961 259.813 9.74452Q259.813 8.06833 260.729 7.00438Q261.646 5.94043 263.081 5.94043Q264.407 5.94043 265.122 6.83594Q265.836 7.73145 265.836 9.39941L265.836 9.65234L261.242 9.65234Q261.242 11.1184 261.886 11.9474Q262.529 12.7764 263.673 12.7764Q264.775 12.7764 265.836 12.1885L265.836 13.2002ZM261.331 8.97559L264.407 8.97559L264.407 8.80469Q264.407 6.61035 263.006 6.61035Q262.24 6.61035 261.823 7.20166Q261.406 7.79297 261.331 8.97559ZM267.969 13.1592L267.969 11.5117L268.81 11.5117L268.81 12.3563Q269.268 12.6927 269.698 12.8644Q270.129 13.0361 270.532 13.0361Q271.182 13.0361 271.588 12.7005Q271.995 12.3649 271.995 11.8307Q271.995 11.0225 270.813 10.5636L270.122 10.2965Q268.01 9.47461 268.01 8.02261Q268.01 7.11845 268.731 6.52944Q269.452 5.94043 270.56 5.94043Q271.113 5.94043 271.677 6.04462Q272.241 6.14882 272.815 6.36426L272.815 7.9707L271.975 7.9707L271.975 7.11877Q271.599 6.86456 271.24 6.73746Q270.881 6.61035 270.532 6.61035Q269.999 6.61035 269.637 6.9388Q269.274 7.26724 269.274 7.74619Q269.274 8.18411 269.603 8.47491Q269.931 8.7657 270.867 9.14894L271.496 9.40892Q272.528 9.83318 272.935 10.2882Q273.342 10.7432 273.342 11.4617Q273.342 12.4539 272.552 13.08Q271.763 13.7061 270.491 13.7061Q269.828 13.7061 269.196 13.5693Q268.563 13.4326 267.969 13.1592Z" />
        </g>
      </g>
    </g>
  </g>
</svg>