<?xml version="1.0" encoding="utf-8"?>
<svg width="374px" height="279px" viewBox="0 0 374 279" version="1.1" xmlns:xlink="http://www.w3.org/1999/xlink" xmlns="http://www.w3.org/2000/svg">
  <defs>
    <path d="M374 0L374 0L374 279L0 279L0 0L374 0Z" id="path_1" />
    <path d="M0 0L0 100L100 100L100 0L0 0Z" id="path_2" />
    <path d="M0 0L17 0L17 27L0 27L0 0Z" id="path_3" />
    <path d="M0 0L30 0L30 39L0 39L0 0Z" id="path_4" />
    <path d="M0 0L34 0L34 48L0 48L0 0Z" id="path_5" />
    <path d="M0 0L45 0L45 58L0 58L0 0Z" id="path_6" />
    <clipPath id="clip_1">
      <use xlink:href="#path_1" clip-rule="evenodd" fill-rule="evenodd" />
    </clipPath>
    <clipPath id="clip_2">
      <use xlink:href="#path_2" clip-rule="evenodd" fill-rule="evenodd" />
    </clipPath>
    <clipPath id="clip_3">
      <use xlink:href="#path_3" clip-rule="evenodd" fill-rule="evenodd" />
    </clipPath>
    <clipPath id="clip_4">
      <use xlink:href="#path_4" clip-rule="evenodd" fill-rule="evenodd" />
    </clipPath>
    <clipPath id="clip_5">
      <use xlink:href="#path_5" clip-rule="evenodd" fill-rule="evenodd" />
    </clipPath>
    <clipPath id="clip_6">
      <use xlink:href="#path_6" clip-rule="evenodd" fill-rule="evenodd" />
    </clipPath>
  </defs>
  <g id="Frame">
    <path d="M374 0L374 0L374 279L0 279L0 0L374 0Z" id="Frame" fill="#FFFFFF" stroke="none" />
    <g id="A" clip-path="url(#clip_1)">
      <path d="M0 0L0 100L100 100L100 0L0 0Z" id="A" fill="#FFFFFF" fill-opacity="0" stroke="none" transform="matrix(-1 0 0 1 137 29.5)" />
      <path d="M54.9999 17.4999C52.5084 15.0083 47.5 11.4483 47.5 15.9999C47.5 20.5515 47.5 83.4995 47.5 83.4995" id="Line" fill="none" fill-rule="evenodd" stroke="#000000" stroke-width="3" stroke-linecap="square" clip-path="url(#clip_2)" transform="matrix(-1 0 0 1 137 29.5)" />
      <g id="A" clip-path="url(#clip_3)" transform="matrix(-1 0 0 1 137 29.5), matrix(-1 0 0 1 100 0)">
        <g transform="translate(0, 5.7954545)" id="A" fill="#757575">
          <path d="M2.82955 23.25L0.613636 23.25L7.02273 5.79545L9.20455 5.79545L15.6136 23.25L13.3977 23.25L11.642 18.3068L4.58523 18.3068L2.82955 23.25ZM5.25 16.4318L10.9773 16.4318L8.18182 8.55682L8.04545 8.55682L5.25 16.4318Z" />
        </g>
      </g>
    </g>
    <g id="O" clip-path="url(#clip_1)">
      <path d="M0 0L0 100L100 100L100 0L0 0Z" id="O" fill="#FFFFFF" fill-opacity="0" stroke="none" transform="matrix(-1 0 0 1 337 29.5)" />
      <path d="M35 49C35 42.3726 40.3726 37 47 37C53.6274 37 59 42.3726 59 49C59 55.6274 53.6274 61 47 61C40.3726 61 35 55.6274 35 49Z" id="Oval" fill="none" fill-rule="evenodd" stroke="#000000" stroke-width="3" clip-path="url(#clip_2)" transform="matrix(-1 0 0 1 337 29.5)" />
      <path d="M54.9999 17.4999C52.5084 15.0083 47.5 11.4483 47.5 15.9999C47.5 20.5515 47.5 83.4995 47.5 83.4995" id="Line" fill="none" fill-rule="evenodd" stroke="#000000" stroke-width="3" stroke-linecap="square" clip-path="url(#clip_2)" transform="matrix(-1 0 0 1 337 29.5)" />
      <g id="O" clip-path="url(#clip_4)" transform="matrix(-1 0 0 1 337 29.5), matrix(-1 0 0 1 97 1)">
        <g transform="translate(0, 5.7954545)" id="O" fill="#757575">
          <path d="M16.8409 14.5227Q16.8409 17.2841 15.8438 19.2955Q14.8466 21.3068 13.108 22.3977Q11.3693 23.4886 9.13636 23.4886Q6.90341 23.4886 5.16477 22.3977Q3.42614 21.3068 2.42898 19.2955Q1.43182 17.2841 1.43182 14.5227Q1.43182 11.7614 2.42898 9.75Q3.42614 7.73864 5.16477 6.64773Q6.90341 5.55682 9.13636 5.55682Q11.3693 5.55682 13.108 6.64773Q14.8466 7.73864 15.8438 9.75Q16.8409 11.7614 16.8409 14.5227ZM14.7955 14.5227Q14.7955 12.2557 14.0412 10.696Q13.2869 9.13636 12.0043 8.33523Q10.7216 7.53409 9.13636 7.53409Q7.55114 7.53409 6.26847 8.33523Q4.9858 9.13636 4.23153 10.696Q3.47727 12.2557 3.47727 14.5227Q3.47727 16.7898 4.23153 18.3494Q4.9858 19.9091 6.26847 20.7102Q7.55114 21.5114 9.13636 21.5114Q10.7216 21.5114 12.0043 20.7102Q13.2869 19.9091 14.0412 18.3494Q14.7955 16.7898 14.7955 14.5227Z" />
        </g>
      </g>
    </g>
    <g id="Aa" clip-path="url(#clip_1)">
      <path d="M0 0L0 100L100 100L100 0L0 0Z" id="Aa" fill="#FFFFFF" fill-opacity="0" stroke="none" transform="matrix(-1 0 0 1 137 149.5)" />
      <path d="M54.9999 17.4999C52.5084 15.0083 47.5 11.4483 47.5 15.9999C47.5 20.5515 47.5 83.4995 47.5 83.4995" id="Line" fill="none" fill-rule="evenodd" stroke="#000000" stroke-width="3" stroke-linecap="square" clip-path="url(#clip_2)" transform="matrix(-1 0 0 1 137 149.5)" />
      <path d="M32 16.5C32 14.0147 34.0147 12 36.5 12C38.9853 12 41 14.0147 41 16.5C41 18.9853 38.9853 21 36.5 21C34.0147 21 32 18.9853 32 16.5Z" id="Oval-2" fill="#000000" fill-rule="evenodd" stroke="none" clip-path="url(#clip_2)" transform="matrix(-1 0 0 1 137 149.5)" />
      <g id="Aa" clip-path="url(#clip_5)" transform="matrix(-1 0 0 1 137 149.5), matrix(-1 0 0 1 100 0.5)">
        <g transform="translate(0, 5.7954545)" id="Aa" fill="#757575">
          <path d="M2.82955 23.25L0.613636 23.25L7.02273 5.79545L9.20455 5.79545L15.6136 23.25L13.3977 23.25L11.642 18.3068L4.58523 18.3068L2.82955 23.25ZM5.25 16.4318L10.9773 16.4318L8.18182 8.55682L8.04545 8.55682L5.25 16.4318ZM21.9205 23.5568Q20.6761 23.5568 19.6619 23.0838Q18.6477 22.6108 18.0511 21.7116Q17.4545 20.8125 17.4545 19.5341Q17.4545 18.4091 17.8977 17.706Q18.3409 17.0028 19.0824 16.6023Q19.8239 16.2017 20.723 16.0014Q21.6222 15.8011 22.5341 15.6818Q23.7273 15.5284 24.473 15.4474Q25.2188 15.3665 25.5639 15.1705Q25.9091 14.9744 25.9091 14.4886L25.9091 14.4205Q25.9091 13.1591 25.223 12.4602Q24.5369 11.7614 23.1477 11.7614Q21.7074 11.7614 20.8892 12.392Q20.071 13.0227 19.7386 13.7386L17.8295 13.0568Q18.3409 11.8636 19.1974 11.1946Q20.054 10.5256 21.0724 10.2571Q22.0909 9.98864 23.0795 9.98864Q23.7102 9.98864 24.5327 10.1378Q25.3551 10.2869 26.1264 10.7472Q26.8977 11.2074 27.4091 12.1364Q27.9205 13.0653 27.9205 14.625L27.9205 23.25L25.9091 23.25L25.9091 21.4773L25.8068 21.4773Q25.6023 21.9034 25.125 22.3892Q24.6477 22.875 23.8551 23.2159Q23.0625 23.5568 21.9205 23.5568ZM22.2273 21.75Q23.4205 21.75 24.2429 21.2813Q25.0653 20.8125 25.4872 20.071Q25.9091 19.3295 25.9091 18.5114L25.9091 16.6705Q25.7813 16.8239 25.3509 16.9474Q24.9205 17.071 24.3622 17.1605Q23.804 17.25 23.2798 17.3139Q22.7557 17.3778 22.4318 17.4205Q21.6477 17.5227 20.9702 17.7486Q20.2926 17.9744 19.8793 18.4219Q19.4659 18.8693 19.4659 19.6364Q19.4659 20.6847 20.2457 21.2173Q21.0256 21.75 22.2273 21.75Z" />
        </g>
      </g>
    </g>
    <g id="Ii" clip-path="url(#clip_1)">
      <path d="M0 0L0 100L100 100L100 0L0 0Z" id="Ii" fill="#FFFFFF" fill-opacity="0" stroke="none" transform="matrix(-1 0 0 1 237 149.5)" />
      <path d="M34 18.5C34 16.0147 36.0147 14 38.5 14C40.9853 14 43 16.0147 43 18.5C43 20.9853 40.9853 23 38.5 23C36.0147 23 34 20.9853 34 18.5Z" id="Oval-2-Copy" fill="#000000" fill-rule="evenodd" stroke="none" clip-path="url(#clip_2)" transform="matrix(-1 0 0 1 237 149.5)" />
      <g id="Group" clip-path="url(#clip_2)" transform="matrix(-1 0 0 1 237 149.5), translate(37.5 13.808105)">
        <path d="M0 16.1919L17.9902 24.93" id="Line-2" fill="none" fill-rule="evenodd" stroke="#000000" stroke-width="3" stroke-linecap="square" />
        <path d="M17.4999 3.69178C15.0084 1.20017 10 -2.35985 10 2.19177C10 6.74339 10 69.6914 10 69.6914" id="Line" fill="none" fill-rule="evenodd" stroke="#000000" stroke-width="3" stroke-linecap="square" />
      </g>
      <g id="Ii" clip-path="url(#clip_6)" transform="matrix(-1 0 0 1 237 149.5), matrix(-1 0 0 1 100 -10)">
        <g transform="translate(0, 20.921999)" id="Ii" fill="#757575">
          <path d="M5.28 15.906Q6.237 15.906 7.1445 15.8565Q8.052 15.807 9.042 15.774Q9.174 15.906 9.1575 16.236Q9.141 16.566 9.042 16.698Q8.844 16.698 8.316 16.7475Q7.788 16.797 7.326 16.896Q6.864 16.995 6.798 17.193Q6.699 17.523 6.6825 18.051Q6.666 18.579 6.666 19.206Q6.666 19.305 6.666 19.404Q6.666 19.503 6.666 19.602L6.666 33.363Q6.666 33.462 6.666 33.561Q6.666 33.66 6.666 33.759Q6.666 34.386 6.6825 34.8975Q6.699 35.409 6.798 35.739Q6.864 35.904 7.326 36.036Q7.788 36.168 8.316 36.2175Q8.844 36.267 9.042 36.267Q9.141 36.399 9.1575 36.729Q9.174 37.059 9.042 37.191Q8.052 37.125 7.1445 37.0755Q6.237 37.026 5.28 37.026Q4.356 37.026 3.399 37.0755Q2.442 37.125 1.452 37.191Q1.32 37.059 1.3365 36.729Q1.353 36.399 1.452 36.267Q1.65 36.267 2.178 36.2175Q2.706 36.168 3.1845 36.036Q3.663 35.904 3.696 35.739Q3.828 35.343 3.8445 34.716Q3.861 34.089 3.861 33.363L3.861 19.602Q3.861 18.876 3.8445 18.2325Q3.828 17.589 3.696 17.193Q3.663 16.995 3.1845 16.896Q2.706 16.797 2.178 16.7475Q1.65 16.698 1.452 16.698Q1.353 16.566 1.3365 16.236Q1.32 15.906 1.452 15.774Q2.442 15.807 3.399 15.8565Q4.356 15.906 5.28 15.906ZM13.167 17.985Q13.167 17.325 13.6455 16.8465Q14.124 16.368 14.784 16.368Q15.444 16.368 15.9225 16.8465Q16.401 17.325 16.401 17.985Q16.401 18.645 15.9225 19.1235Q15.444 19.602 14.784 19.602Q14.124 19.602 13.6455 19.1235Q13.167 18.645 13.167 17.985ZM16.269 33.363Q16.269 34.089 16.2855 34.716Q16.302 35.343 16.434 35.739Q16.5 35.904 16.9125 36.036Q17.325 36.168 17.787 36.2175Q18.249 36.267 18.447 36.267Q18.546 36.399 18.5625 36.729Q18.579 37.059 18.447 37.191Q17.457 37.125 16.7145 37.0755Q15.972 37.026 15.015 37.026Q14.091 37.026 13.332 37.0755Q12.573 37.125 11.583 37.191Q11.451 37.059 11.4675 36.729Q11.484 36.399 11.583 36.267Q11.781 36.267 12.2595 36.2175Q12.738 36.168 13.167 36.036Q13.596 35.904 13.629 35.739Q13.761 35.343 13.7775 34.716Q13.794 34.089 13.794 33.363L13.794 27.357Q13.794 27.027 13.7775 26.499Q13.761 25.971 13.629 25.674Q13.53 25.377 13.068 25.2615Q12.606 25.146 12.144 25.1295Q11.682 25.113 11.55 25.113Q11.517 25.047 11.484 24.717Q11.451 24.387 11.55 24.255Q12.804 24.09 13.992 23.76Q15.18 23.43 16.137 22.902Q16.269 22.902 16.3845 23.1Q16.5 23.298 16.5 23.43Q16.5 23.529 16.434 23.991Q16.368 24.453 16.3185 24.915Q16.269 25.377 16.269 25.542L16.269 33.363Z" />
        </g>
      </g>
    </g>
    <g id="Ii" clip-path="url(#clip_1)">
      <path d="M0 0L0 100L100 100L100 0L0 0Z" id="Ii" fill="#FFFFFF" fill-opacity="0" stroke="none" transform="matrix(-1 0 0 1 237 30)" />
      <g id="Group" clip-path="url(#clip_2)" transform="matrix(-1 0 0 1 237 30), translate(37.5 13.808105)">
        <path d="M0 16.1919L17.9902 24.93" id="Line-2" fill="none" fill-rule="evenodd" stroke="#000000" stroke-width="3" stroke-linecap="square" />
        <path d="M17.4999 3.69178C15.0084 1.20017 10 -2.35985 10 2.19177C10 6.74339 10 69.6914 10 69.6914" id="Line" fill="none" fill-rule="evenodd" stroke="#000000" stroke-width="3" stroke-linecap="square" />
      </g>
      <g id="Ii" clip-path="url(#clip_6)" transform="matrix(-1 0 0 1 237 30), matrix(-1 0 0 1 100 -10)">
        <g transform="translate(0, 20.921999)" id="I" fill="#757575">
          <path d="M5.28 15.906Q6.237 15.906 7.1445 15.8565Q8.052 15.807 9.042 15.774Q9.174 15.906 9.1575 16.236Q9.141 16.566 9.042 16.698Q8.844 16.698 8.316 16.7475Q7.788 16.797 7.326 16.896Q6.864 16.995 6.798 17.193Q6.699 17.523 6.6825 18.051Q6.666 18.579 6.666 19.206Q6.666 19.305 6.666 19.404Q6.666 19.503 6.666 19.602L6.666 33.363Q6.666 33.462 6.666 33.561Q6.666 33.66 6.666 33.759Q6.666 34.386 6.6825 34.8975Q6.699 35.409 6.798 35.739Q6.864 35.904 7.326 36.036Q7.788 36.168 8.316 36.2175Q8.844 36.267 9.042 36.267Q9.141 36.399 9.1575 36.729Q9.174 37.059 9.042 37.191Q8.052 37.125 7.1445 37.0755Q6.237 37.026 5.28 37.026Q4.356 37.026 3.399 37.0755Q2.442 37.125 1.452 37.191Q1.32 37.059 1.3365 36.729Q1.353 36.399 1.452 36.267Q1.65 36.267 2.178 36.2175Q2.706 36.168 3.1845 36.036Q3.663 35.904 3.696 35.739Q3.828 35.343 3.8445 34.716Q3.861 34.089 3.861 33.363L3.861 19.602Q3.861 18.876 3.8445 18.2325Q3.828 17.589 3.696 17.193Q3.663 16.995 3.1845 16.896Q2.706 16.797 2.178 16.7475Q1.65 16.698 1.452 16.698Q1.353 16.566 1.3365 16.236Q1.32 15.906 1.452 15.774Q2.442 15.807 3.399 15.8565Q4.356 15.906 5.28 15.906Z" />
        </g>
      </g>
    </g>
    <g id="Oo" clip-path="url(#clip_1)">
      <path d="M0 0L0 100L100 100L100 0L0 0Z" id="Oo" fill="#FFFFFF" fill-opacity="0" stroke="none" transform="matrix(-1 0 0 1 337 149.5)" />
      <path d="M35 49C35 42.3726 40.3726 37 47 37C53.6274 37 59 42.3726 59 49C59 55.6274 53.6274 61 47 61C40.3726 61 35 55.6274 35 49Z" id="Oval" fill="none" fill-rule="evenodd" stroke="#000000" stroke-width="3" clip-path="url(#clip_2)" transform="matrix(-1 0 0 1 337 149.5)" />
      <path d="M54.9999 17.4999C52.5084 15.0083 47.5 11.4483 47.5 15.9999C47.5 20.5515 47.5 83.4995 47.5 83.4995" id="Line" fill="none" fill-rule="evenodd" stroke="#000000" stroke-width="3" stroke-linecap="square" clip-path="url(#clip_2)" transform="matrix(-1 0 0 1 337 149.5)" />
      <path d="M32 21.5C32 19.0147 34.0147 17 36.5 17C38.9853 17 41 19.0147 41 21.5C41 23.9853 38.9853 26 36.5 26C34.0147 26 32 23.9853 32 21.5Z" id="Oval-2-Copy-2" fill="#000000" fill-rule="evenodd" stroke="none" clip-path="url(#clip_2)" transform="matrix(-1 0 0 1 337 149.5)" />
      <g id="Oo" clip-path="url(#clip_2)" transform="matrix(-1 0 0 1 337 149.5), matrix(-1 0 0 1 100 0)">
        <g transform="translate(0, 5.7954545)" id="Oo" fill="#757575">
          <path d="M16.8409 14.5227Q16.8409 17.2841 15.8438 19.2955Q14.8466 21.3068 13.108 22.3977Q11.3693 23.4886 9.13636 23.4886Q6.90341 23.4886 5.16477 22.3977Q3.42614 21.3068 2.42898 19.2955Q1.43182 17.2841 1.43182 14.5227Q1.43182 11.7614 2.42898 9.75Q3.42614 7.73864 5.16477 6.64773Q6.90341 5.55682 9.13636 5.55682Q11.3693 5.55682 13.108 6.64773Q14.8466 7.73864 15.8438 9.75Q16.8409 11.7614 16.8409 14.5227ZM14.7955 14.5227Q14.7955 12.2557 14.0412 10.696Q13.2869 9.13636 12.0043 8.33523Q10.7216 7.53409 9.13636 7.53409Q7.55114 7.53409 6.26847 8.33523Q4.9858 9.13636 4.23153 10.696Q3.47727 12.2557 3.47727 14.5227Q3.47727 16.7898 4.23153 18.3494Q4.9858 19.9091 6.26847 20.7102Q7.55114 21.5114 9.13636 21.5114Q10.7216 21.5114 12.0043 20.7102Q13.2869 19.9091 14.0412 18.3494Q14.7955 16.7898 14.7955 14.5227ZM25.4318 23.5227Q23.6591 23.5227 22.3253 22.679Q20.9915 21.8352 20.2457 20.3182Q19.5 18.8011 19.5 16.7727Q19.5 14.7273 20.2457 13.2017Q20.9915 11.6761 22.3253 10.8324Q23.6591 9.98864 25.4318 9.98864Q27.2045 9.98864 28.5384 10.8324Q29.8722 11.6761 30.6179 13.2017Q31.3636 14.7273 31.3636 16.7727Q31.3636 18.8011 30.6179 20.3182Q29.8722 21.8352 28.5384 22.679Q27.2045 23.5227 25.4318 23.5227ZM25.4318 21.7159Q26.7784 21.7159 27.6477 21.0256Q28.517 20.3352 28.9347 19.2102Q29.3523 18.0852 29.3523 16.7727Q29.3523 15.4602 28.9347 14.3267Q28.517 13.1932 27.6477 12.4943Q26.7784 11.7955 25.4318 11.7955Q24.0852 11.7955 23.2159 12.4943Q22.3466 13.1932 21.929 14.3267Q21.5114 15.4602 21.5114 16.7727Q21.5114 18.0852 21.929 19.2102Q22.3466 20.3352 23.2159 21.0256Q24.0852 21.7159 25.4318 21.7159Z" />
        </g>
      </g>
    </g>
  </g>
</svg>