<?xml version="1.0" encoding="utf-8"?>
<svg width="294.93683px" height="209.88757px" viewBox="0 0 294.93683 209.88757" version="1.1" xmlns:xlink="http://www.w3.org/1999/xlink" xmlns="http://www.w3.org/2000/svg">
  <defs>
    <path d="M0 0L294.937 0L294.937 209.888L0 209.888L0 0Z" id="path_1" />
    <path d="M0 0L100 0L100 100L0 100L0 0Z" id="path_2" />
    <clipPath id="clip_1">
      <use xlink:href="#path_1" />
    </clipPath>
    <clipPath id="clip_2">
      <use xlink:href="#path_2" />
    </clipPath>
  </defs>
  <g id="Frame" clip-path="url(#clip_1)">
    <path d="M0 0L294.937 0L294.937 209.888L0 209.888L0 0Z" id="Frame" fill="#FFFFFF" fill-rule="evenodd" stroke="none" />
    <g id="Vowels" transform="translate(6.3203125 3.481079)">
      <g id="أ Copy" clip-path="url(#clip_2)" transform="translate(200 0)">
        <path d="M0 0L100 0L100 100L0 100L0 0Z" id="أ-Copy" fill="#FFFFFF" fill-rule="evenodd" stroke="none" />
        <path d="M54.9999 17.5C52.5084 15.0084 47.5 11.4484 47.5 16C47.5 20.5516 47.5 83.4996 47.5 83.4996" id="Line" fill="none" fill-rule="evenodd" stroke="#000000" stroke-width="3" stroke-linecap="square" />
      </g>
      <g id="إ  Copy" clip-path="url(#clip_2)" transform="translate(100 0)">
        <path d="M0 0L100 0L100 100L0 100L0 0Z" id="إ--Copy" fill="#FFFFFF" fill-rule="evenodd" stroke="none" />
        <g id="Group" transform="translate(37.5 13.808228)">
          <path d="M0 16.1918L17.9902 24.9299" id="Line-2" fill="none" fill-rule="evenodd" stroke="#000000" stroke-width="3" stroke-linecap="square" />
          <path d="M17.4999 3.69178C15.0084 1.20017 10 -2.35985 10 2.19177C10 6.74339 10 69.6914 10 69.6914" id="Line" fill="none" fill-rule="evenodd" stroke="#000000" stroke-width="3" stroke-linecap="square" />
        </g>
      </g>
      <g id="ؤ  Copy" clip-path="url(#clip_2)">
        <path d="M0 0L100 0L100 100L0 100L0 0Z" id="ؤ--Copy" fill="#FFFFFF" fill-rule="evenodd" stroke="none" />
        <path d="M35 49C35 42.3726 40.3726 37 47 37C53.6274 37 59 42.3726 59 49C59 55.6274 53.6274 61 47 61C40.3726 61 35 55.6274 35 49Z" id="Oval" fill="none" fill-rule="evenodd" stroke="#000000" stroke-width="3" />
        <path d="M54.9999 17.5C52.5084 15.0084 47.5 11.4484 47.5 16C47.5 20.5516 47.5 83.4996 47.5 83.4996" id="Line" fill="none" fill-rule="evenodd" stroke="#000000" stroke-width="3" stroke-linecap="square" />
      </g>
    </g>
    <g id="Long-Vowels" transform="translate(6.3203125 103.48108)">
      <g id="إإ Copy" clip-path="url(#clip_2)" transform="translate(100 0)">
        <path d="M0 0L100 0L100 100L0 100L0 0Z" id="إإ-Copy" fill="#FFFFFF" fill-rule="evenodd" stroke="none" />
        <path d="M34 18.5C34 16.0147 36.0147 14 38.5 14C40.9853 14 43 16.0147 43 18.5C43 20.9853 40.9853 23 38.5 23C36.0147 23 34 20.9853 34 18.5Z" id="Oval-2-Copy" fill="#000000" fill-rule="evenodd" stroke="none" />
        <g id="Group" transform="translate(37.5 13.808228)">
          <path d="M0 16.1918L17.9902 24.9299" id="Line-2" fill="none" fill-rule="evenodd" stroke="#000000" stroke-width="3" stroke-linecap="square" />
          <path d="M17.5 3.69178C15.0084 1.20017 10 -2.35985 10 2.19177C10 6.74339 10 69.6914 10 69.6914" id="Line" fill="none" fill-rule="evenodd" stroke="#000000" stroke-width="3" stroke-linecap="square" />
        </g>
      </g>
      <g id="أأ Copy" clip-path="url(#clip_2)" transform="translate(200 0.00012207031)">
        <path d="M0 0L100 0L100 100L0 100L0 0Z" id="أأ-Copy" fill="#FFFFFF" fill-rule="evenodd" stroke="none" />
        <path d="M55 17.5C52.5084 15.0084 47.5 11.4484 47.5 16C47.5 20.5516 47.5 83.4996 47.5 83.4996" id="Line" fill="none" fill-rule="evenodd" stroke="#000000" stroke-width="3" stroke-linecap="square" />
        <path d="M32 16.5C32 14.0147 34.0147 12 36.5 12C38.9853 12 41 14.0147 41 16.5C41 18.9853 38.9853 21 36.5 21C34.0147 21 32 18.9853 32 16.5Z" id="Oval-2" fill="#000000" fill-rule="evenodd" stroke="none" />
      </g>
      <g id="ؤؤ Copy" clip-path="url(#clip_2)" transform="translate(0 0.00012207031)">
        <path d="M0 0L100 0L100 100L0 100L0 0Z" id="ؤؤ-Copy" fill="#FFFFFF" fill-rule="evenodd" stroke="none" />
        <path d="M35 49C35 42.3726 40.3726 37 47 37C53.6274 37 59 42.3726 59 49C59 55.6274 53.6274 61 47 61C40.3726 61 35 55.6274 35 49Z" id="Oval" fill="none" fill-rule="evenodd" stroke="#000000" stroke-width="3" />
        <path d="M55 17.5C52.5084 15.0084 47.5 11.4484 47.5 16C47.5 20.5516 47.5 83.4996 47.5 83.4996" id="Line" fill="none" fill-rule="evenodd" stroke="#000000" stroke-width="3" stroke-linecap="square" />
        <path d="M32 21.5C32 19.0147 34.0147 17 36.5 17C38.9853 17 41 19.0147 41 21.5C41 23.9853 38.9853 26 36.5 26C34.0147 26 32 23.9853 32 21.5Z" id="Oval-2-Copy-2" fill="#000000" fill-rule="evenodd" stroke="none" />
      </g>
    </g>
    <g id="A" fill="#757575" transform="translate(230.32031 3.481079)">
      <path d="M2.12216 17.5455L0.460227 17.5455L5.26705 4.45454L6.90341 4.45454L11.7102 17.5455L10.0483 17.5455L8.73153 13.8381L3.43892 13.8381L2.12216 17.5455ZM3.9375 12.4318L8.23295 12.4318L6.13636 6.52557L6.03409 6.52557L3.9375 12.4318Z" />
    </g>
    <g id="Ii" fill="#757575" transform="translate(118.32031 94.48108)">
      <path d="M4.04297 26.1821L4.04297 14.8179L5.80078 14.8179L5.80078 14.1147L0.571289 14.1147L0.571289 14.8179L2.3291 14.8179L2.3291 26.1821L0.571289 26.1821L0.571289 26.8853L5.80078 26.8853L5.80078 26.1821L4.04297 26.1821ZM8.54736 16.8438Q8.73633 16.9185 8.96484 16.9185Q9.18457 16.9185 9.37793 16.8394Q9.57129 16.7603 9.71191 16.624Q9.85254 16.4878 9.93604 16.2944Q10.0195 16.1011 10.0195 15.8638Q10.0195 15.6265 9.94043 15.4375Q9.86133 15.2485 9.71631 15.1079Q9.57129 14.9673 9.37793 14.8926Q9.18457 14.8179 8.96484 14.8179Q8.74512 14.8179 8.55176 14.897Q8.3584 14.9761 8.21777 15.1167Q8.07715 15.2573 7.99365 15.4507Q7.91016 15.644 7.91016 15.8726Q7.91016 16.1099 7.98926 16.2988Q8.06836 16.4878 8.21338 16.6284Q8.3584 16.769 8.54736 16.8438ZM11.0742 26.1821L9.75586 26.1821L9.75586 19.397L6.85547 19.397L6.85547 20.1001L8.17383 20.1001L8.17383 26.1821L6.85547 26.1821L6.85547 26.8853L11.0742 26.8853L11.0742 26.1821Z" />
    </g>
    <g id="Aa" fill="#757575" transform="translate(215.32031 103.48108)">
      <path d="M0.460227 17.5455L2.12216 17.5455L3.43892 13.8381L8.73153 13.8381L10.0483 17.5455L11.7102 17.5455L6.90341 4.45454L5.26705 4.45454L0.460227 17.5455ZM8.23295 12.4318L3.9375 12.4318L6.03409 6.52557L6.13636 6.52557L8.23295 12.4318ZM14.7464 17.4208Q15.5071 17.7756 16.4403 17.7756Q17.2969 17.7756 17.8913 17.5199Q18.4858 17.2642 18.8438 16.8999Q19.2017 16.5355 19.3551 16.2159L19.4318 16.2159L19.4318 17.5455L20.9403 17.5455L20.9403 11.0767Q20.9403 9.90696 20.5568 9.21023Q20.1733 8.51349 19.5948 8.16832Q19.0163 7.82315 18.3995 7.71129Q17.7827 7.59943 17.3097 7.59943Q16.5682 7.59943 15.8043 7.80078Q15.0405 8.00213 14.3981 8.50391Q13.7557 9.00568 13.3722 9.90057L14.804 10.4119Q15.0533 9.875 15.6669 9.40199Q16.2805 8.92898 17.3608 8.92898Q18.4027 8.92898 18.9173 9.45312Q19.4318 9.97727 19.4318 10.9233L19.4318 10.9744Q19.4318 11.3388 19.1729 11.4858Q18.9141 11.6328 18.3548 11.6935Q17.7955 11.7543 16.9006 11.8693Q16.2166 11.9588 15.5423 12.109Q14.8679 12.2592 14.3118 12.5597Q13.7557 12.8601 13.4233 13.3874Q13.0909 13.9148 13.0909 14.7585Q13.0909 15.7173 13.5384 16.3917Q13.9858 17.0661 14.7464 17.4208ZM18.1822 16.0689Q17.5653 16.4205 16.6705 16.4205Q15.7692 16.4205 15.1843 16.021Q14.5994 15.6214 14.5994 14.8352Q14.5994 14.2599 14.9094 13.9244Q15.2195 13.5888 15.7276 13.4194Q16.2358 13.25 16.8239 13.1733Q17.0668 13.1413 17.4599 13.0934Q17.853 13.0455 18.2717 12.9783Q18.6903 12.9112 19.0131 12.8185Q19.3359 12.7259 19.4318 12.6108L19.4318 13.9915Q19.4318 14.6051 19.1154 15.1612Q18.799 15.7173 18.1822 16.0689Z" />
    </g>
    <g id="I" fill="#757575" transform="translate(130.32031 -5.518921)">
      <path d="M4.04297 14.8179L4.04297 26.1821L5.80078 26.1821L5.80078 26.8853L0.571289 26.8853L0.571289 26.1821L2.3291 26.1821L2.3291 14.8179L0.571289 14.8179L0.571289 14.1147L5.80078 14.1147L5.80078 14.8179L4.04297 14.8179Z" />
    </g>
    <g id="O" fill="#757575" transform="translate(36.320312 3.481079)">
      <path d="M12.6307 11Q12.6307 13.071 11.8828 14.5795Q11.1349 16.0881 9.83097 16.9063Q8.52699 17.7244 6.85227 17.7244Q5.17756 17.7244 3.87358 16.9063Q2.5696 16.0881 1.82173 14.5795Q1.07386 13.071 1.07386 11Q1.07386 8.92898 1.82173 7.42045Q2.5696 5.91193 3.87358 5.09375Q5.17756 4.27557 6.85227 4.27557Q8.52699 4.27557 9.83097 5.09375Q11.1349 5.91193 11.8828 7.42045Q12.6307 8.92898 12.6307 11ZM11.0966 11Q11.0966 9.29972 10.5309 8.12997Q9.9652 6.96023 9.0032 6.35937Q8.04119 5.75852 6.85227 5.75852Q5.66335 5.75852 4.70135 6.35937Q3.73935 6.96023 3.17365 8.12997Q2.60795 9.29972 2.60795 11Q2.60795 12.7003 3.17365 13.87Q3.73935 15.0398 4.70135 15.6406Q5.66335 16.2415 6.85227 16.2415Q8.04119 16.2415 9.0032 15.6406Q9.9652 15.0398 10.5309 13.87Q11.0966 12.7003 11.0966 11Z" />
    </g>
    <g id="Oo" fill="#757575" transform="translate(14.3203125 103.48108)">
      <path d="M11.8828 14.5795Q12.6307 13.071 12.6307 11Q12.6307 8.92898 11.8828 7.42045Q11.1349 5.91193 9.83097 5.09375Q8.52699 4.27557 6.85227 4.27557Q5.17756 4.27557 3.87358 5.09375Q2.5696 5.91193 1.82173 7.42045Q1.07386 8.92898 1.07386 11Q1.07386 13.071 1.82173 14.5795Q2.5696 16.0881 3.87358 16.9063Q5.17756 17.7244 6.85227 17.7244Q8.52699 17.7244 9.83097 16.9063Q11.1349 16.0881 11.8828 14.5795ZM10.5309 8.12997Q11.0966 9.29972 11.0966 11Q11.0966 12.7003 10.5309 13.87Q9.9652 15.0398 9.0032 15.6406Q8.04119 16.2415 6.85227 16.2415Q5.66335 16.2415 4.70135 15.6406Q3.73935 15.0398 3.17365 13.87Q2.60795 12.7003 2.60795 11Q2.60795 9.29972 3.17365 8.12997Q3.73935 6.96023 4.70135 6.35937Q5.66335 5.75852 6.85227 5.75852Q8.04119 5.75852 9.0032 6.35937Q9.9652 6.96023 10.5309 8.12997ZM16.744 17.1172Q17.7443 17.75 19.0739 17.75Q20.4034 17.75 21.4038 17.1172Q22.4041 16.4844 22.9634 15.3466Q23.5227 14.2088 23.5227 12.6875Q23.5227 11.1534 22.9634 10.0092Q22.4041 8.86506 21.4038 8.23224Q20.4034 7.59943 19.0739 7.59943Q17.7443 7.59943 16.744 8.23224Q15.7436 8.86506 15.1843 10.0092Q14.625 11.1534 14.625 12.6875Q14.625 14.2088 15.1843 15.3466Q15.7436 16.4844 16.744 17.1172ZM20.7358 15.8771Q20.0838 16.3949 19.0739 16.3949Q18.0639 16.3949 17.4119 15.8771Q16.7599 15.3594 16.4467 14.5156Q16.1335 13.6719 16.1335 12.6875Q16.1335 11.7031 16.4467 10.853Q16.7599 10.0028 17.4119 9.47869Q18.0639 8.95454 19.0739 8.95454Q20.0838 8.95454 20.7358 9.47869Q21.3878 10.0028 21.701 10.853Q22.0142 11.7031 22.0142 12.6875Q22.0142 13.6719 21.701 14.5156Q21.3878 15.3594 20.7358 15.8771Z" />
    </g>
  </g>
</svg>