<svg version="1.1" viewBox="0.0 0.0 600.0 371.0" fill="none" stroke="none" stroke-linecap="square" stroke-miterlimit="10" width="600" height="371" xmlns:xlink="http://www.w3.org/1999/xlink" xmlns="http://www.w3.org/2000/svg"><path fill="#ffffff" fill-opacity="0.0" d="M0 0L600.0 0L600.0 371.0L0 371.0L0 0Z" fill-rule="nonzero"/><path fill="#00b3b3" d="M293.24173 295.4591C221.07787 292.93802 164.41667 251.24632 164.41667 200.66875L164.41667 180.33125C164.41667 230.90883 221.07787 272.60052 293.24173 275.1216Z" fill-rule="nonzero"/><path fill="#00ffff" d="M293.24173 275.1216C219.76936 272.5548 162.62482 229.44379 164.4588 177.96512C166.2928 126.48646 226.43619 85.42292 300.0 85.42292L300.0 180.33125Z" fill-rule="nonzero"/><path fill="#b3b300" d="M435.58334 200.66875C435.58334 226.66104 420.35455 251.51593 393.45193 269.43134C366.54935 287.3467 330.3274 296.7547 293.24173 295.4591L293.24173 275.1216C330.3274 276.4172 366.54935 267.00922 393.45193 249.09383C420.35455 231.17842 435.58334 206.32353 435.58334 180.33125Z" fill-rule="nonzero"/><path fill="#ffff00" d="M300.0 85.42292C349.24533 85.42292 394.61877 104.11405 418.52917 134.2498C442.43958 164.38556 441.12704 201.22714 415.10046 230.49115C389.07385 259.75516 342.42584 276.83987 293.24173 275.1216L300.0 180.33125Z" fill-rule="nonzero"/><path fill="#000000" d="M378.4657 184.41507L379.76257 184.3057Q379.9032 185.2432 380.41882 185.72757Q380.95007 186.19632 381.68445 186.19632Q382.57507 186.19632 383.18445 185.52444Q383.80945 184.85257 383.80945 183.75882Q383.80945 182.69632 383.2157 182.08694Q382.62195 181.47757 381.66882 181.47757Q381.07507 181.47757 380.5907 181.75882Q380.12195 182.02444 379.8407 182.44632L378.68445 182.3057L379.6532 177.14944L384.63757 177.14944L384.63757 178.33694L380.63757 178.33694L380.10632 181.02444Q381.01257 180.39944 381.99695 180.39944Q383.30945 180.39944 384.20007 181.3057Q385.10632 182.21194 385.10632 183.64944Q385.10632 185.00882 384.32507 185.9932Q383.35632 187.21194 381.68445 187.21194Q380.32507 187.21194 379.45007 186.44632Q378.5907 185.6807 378.4657 184.41507ZM386.4657 182.10257Q386.4657 180.32132 386.82507 179.2432Q387.20007 178.14944 387.91882 177.57132Q388.63757 176.97757 389.73132 176.97757Q390.54382 176.97757 391.1532 177.3057Q391.76257 177.63382 392.1532 178.2432Q392.55945 178.85257 392.7782 179.72757Q392.99695 180.60257 392.99695 182.10257Q392.99695 183.8682 392.63757 184.94632Q392.2782 186.02444 391.55945 186.6182Q390.8407 187.21194 389.73132 187.21194Q388.29382 187.21194 387.4657 186.16507Q386.4657 184.91507 386.4657 182.10257ZM387.73132 182.10257Q387.73132 184.57132 388.30945 185.38382Q388.88757 186.19632 389.73132 186.19632Q390.5907 186.19632 391.16882 185.38382Q391.74695 184.5557 391.74695 182.10257Q391.74695 179.6182 391.16882 178.8057Q390.5907 177.9932 389.7157 177.9932Q388.87195 177.9932 388.37195 178.71194Q387.73132 179.63382 387.73132 182.10257ZM395.1532 187.04007L395.1532 185.63382L396.55945 185.63382L396.55945 187.04007L395.1532 187.04007ZM400.35632 181.60257Q399.5907 181.32132 399.2157 180.8057Q398.85632 180.29007 398.85632 179.5557Q398.85632 178.46194 399.63757 177.72757Q400.43445 176.97757 401.73132 176.97757Q403.04382 176.97757 403.8407 177.7432Q404.6532 178.50882 404.6532 179.60257Q404.6532 180.29007 404.2782 180.8057Q403.91882 181.32132 403.16882 181.60257Q404.0907 181.89944 404.57507 182.57132Q405.05945 183.2432 405.05945 184.1807Q405.05945 185.46194 404.1532 186.33694Q403.24695 187.21194 401.76257 187.21194Q400.2782 187.21194 399.35632 186.33694Q398.45007 185.44632 398.45007 184.13382Q398.45007 183.16507 398.95007 182.50882Q399.45007 181.83694 400.35632 181.60257ZM400.12195 179.52444Q400.12195 180.22757 400.57507 180.6807Q401.0282 181.13382 401.76257 181.13382Q402.48132 181.13382 402.93445 180.69632Q403.38757 180.2432 403.38757 179.58694Q403.38757 178.91507 402.91882 178.46194Q402.45007 177.9932 401.74695 177.9932Q401.04382 177.9932 400.57507 178.44632Q400.12195 178.88382 400.12195 179.52444ZM399.7157 184.14944Q399.7157 184.6807 399.9657 185.1807Q400.2157 185.66507 400.70007 185.9307Q401.20007 186.19632 401.7782 186.19632Q402.6532 186.19632 403.2157 185.63382Q403.79382 185.07132 403.79382 184.19632Q403.79382 183.3057 403.20007 182.72757Q402.62195 182.13382 401.73132 182.13382Q400.85632 182.13382 400.2782 182.71194Q399.7157 183.29007 399.7157 184.14944ZM406.70007 179.4307Q406.70007 178.35257 407.23132 177.60257Q407.7782 176.85257 408.80945 176.85257Q409.74695 176.85257 410.35632 177.52444Q410.98132 178.19632 410.98132 179.4932Q410.98132 180.77444 410.35632 181.46194Q409.73132 182.14944 408.82507 182.14944Q407.91882 182.14944 407.30945 181.47757Q406.70007 180.79007 406.70007 179.4307ZM408.8407 177.69632Q408.38757 177.69632 408.07507 178.10257Q407.7782 178.4932 407.7782 179.54007Q407.7782 180.50882 408.07507 180.89944Q408.38757 181.29007 408.8407 181.29007Q409.30945 181.29007 409.60632 180.89944Q409.91882 180.50882 409.91882 179.44632Q409.91882 178.47757 409.60632 178.08694Q409.29382 177.69632 408.8407 177.69632ZM408.8407 187.41507L414.32507 176.85257L415.32507 176.85257L409.87195 187.41507L408.8407 187.41507ZM413.18445 184.6807Q413.18445 183.60257 413.7157 182.8682Q414.26257 182.1182 415.29382 182.1182Q416.23132 182.1182 416.85632 182.79007Q417.48132 183.46194 417.48132 184.75882Q417.48132 186.04007 416.85632 186.72757Q416.23132 187.41507 415.29382 187.41507Q414.38757 187.41507 413.7782 186.7432Q413.18445 186.0557 413.18445 184.6807ZM415.32507 182.96194Q414.85632 182.96194 414.55945 183.3682Q414.26257 183.75882 414.26257 184.8057Q414.26257 185.77444 414.55945 186.16507Q414.87195 186.5557 415.32507 186.5557Q415.79382 186.5557 416.0907 186.16507Q416.4032 185.77444 416.4032 184.71194Q416.4032 183.7432 416.0907 183.35257Q415.79382 182.96194 415.32507 182.96194Z" fill-rule="nonzero"/><path fill="#000000" d="M186.64369 183.62244L186.64369 181.21619L182.28432 181.21619L182.28432 180.09119L186.86244 173.60681L187.86244 173.60681L187.86244 180.09119L189.22182 180.09119L189.22182 181.21619L187.86244 181.21619L187.86244 183.62244L186.64369 183.62244ZM186.64369 180.09119L186.64369 175.57556L183.50307 180.09119L186.64369 180.09119ZM190.87807 181.30994L192.06557 181.20056Q192.20619 182.02869 192.62807 182.40369Q193.06557 182.77869 193.72182 182.77869Q194.28432 182.77869 194.70619 182.52869Q195.14369 182.26306 195.40932 181.82556Q195.69057 181.38806 195.87807 180.65369Q196.06557 179.91931 196.06557 179.15369Q196.06557 179.07556 196.04994 178.90369Q195.69057 179.49744 195.04994 179.87244Q194.40932 180.23181 193.65932 180.23181Q192.40932 180.23181 191.54994 179.32556Q190.69057 178.41931 190.69057 176.95056Q190.69057 175.41931 191.58119 174.49744Q192.48744 173.55994 193.84682 173.55994Q194.81557 173.55994 195.62807 174.09119Q196.44057 174.60681 196.86244 175.59119Q197.28432 176.55994 197.28432 178.40369Q197.28432 180.32556 196.86244 181.46619Q196.45619 182.60681 195.62807 183.20056Q194.79994 183.79431 193.69057 183.79431Q192.51869 183.79431 191.76869 183.13806Q191.03432 182.48181 190.87807 181.30994ZM195.90932 176.88806Q195.90932 175.82556 195.34682 175.20056Q194.78432 174.57556 194.00307 174.57556Q193.17494 174.57556 192.56557 175.24744Q191.95619 175.91931 191.95619 176.98181Q191.95619 177.93494 192.53432 178.54431Q193.11244 179.13806 193.95619 179.13806Q194.81557 179.13806 195.36244 178.54431Q195.90932 177.93494 195.90932 176.88806ZM199.37807 183.62244L199.37807 182.21619L200.78432 182.21619L200.78432 183.62244L199.37807 183.62244ZM209.15932 182.43494L209.15932 183.62244L202.53432 183.62244Q202.51869 183.18494 202.67494 182.76306Q202.94057 182.09119 203.48744 181.43494Q204.04994 180.77869 205.09682 179.91931Q206.73744 178.57556 207.29994 177.79431Q207.87807 177.01306 207.87807 176.30994Q207.87807 175.57556 207.34682 175.07556Q206.83119 174.57556 206.00307 174.57556Q205.11244 174.57556 204.56557 175.10681Q204.03432 175.63806 204.03432 176.59119L202.76869 176.45056Q202.89369 175.04431 203.73744 174.30994Q204.59682 173.55994 206.01869 173.55994Q207.47182 173.55994 208.29994 174.35681Q209.14369 175.15369 209.14369 176.34119Q209.14369 176.95056 208.89369 177.52869Q208.65932 178.10681 208.08119 178.74744Q207.51869 179.38806 206.19057 180.51306Q205.08119 181.43494 204.76869 181.77869Q204.45619 182.10681 204.25307 182.43494L209.15932 182.43494ZM210.92494 176.01306Q210.92494 174.93494 211.45619 174.18494Q212.00307 173.43494 213.03432 173.43494Q213.97182 173.43494 214.58119 174.10681Q215.20619 174.77869 215.20619 176.07556Q215.20619 177.35681 214.58119 178.04431Q213.95619 178.73181 213.04994 178.73181Q212.14369 178.73181 211.53432 178.05994Q210.92494 177.37244 210.92494 176.01306ZM213.06557 174.27869Q212.61244 174.27869 212.29994 174.68494Q212.00307 175.07556 212.00307 176.12244Q212.00307 177.09119 212.29994 177.48181Q212.61244 177.87244 213.06557 177.87244Q213.53432 177.87244 213.83119 177.48181Q214.14369 177.09119 214.14369 176.02869Q214.14369 175.05994 213.83119 174.66931Q213.51869 174.27869 213.06557 174.27869ZM213.06557 183.99744L218.54994 173.43494L219.54994 173.43494L214.09682 183.99744L213.06557 183.99744ZM217.40932 181.26306Q217.40932 180.18494 217.94057 179.45056Q218.48744 178.70056 219.51869 178.70056Q220.45619 178.70056 221.08119 179.37244Q221.70619 180.04431 221.70619 181.34119Q221.70619 182.62244 221.08119 183.30994Q220.45619 183.99744 219.51869 183.99744Q218.61244 183.99744 218.00307 183.32556Q217.40932 182.63806 217.40932 181.26306ZM219.54994 179.54431Q219.08119 179.54431 218.78432 179.95056Q218.48744 180.34119 218.48744 181.38806Q218.48744 182.35681 218.78432 182.74744Q219.09682 183.13806 219.54994 183.13806Q220.01869 183.13806 220.31557 182.74744Q220.62807 182.35681 220.62807 181.29431Q220.62807 180.32556 220.31557 179.93494Q220.01869 179.54431 219.54994 179.54431Z" fill-rule="nonzero"/><path fill="#ffff00" d="M250.0 345.45C250.0 348.7637 247.3137 351.45 244.0 351.45C240.6863 351.45 238.0 348.7637 238.0 345.45C238.0 342.1363 240.6863 339.45 244.0 339.45C247.3137 339.45 250.0 342.1363 250.0 345.45Z" fill-rule="nonzero"/><path fill="#1a1a1a" d="M258.89062 349.45L258.89062 340.85626L260.60938 340.85626L262.64062 346.9344Q262.92188 347.79376 263.04688 348.21564Q263.1875 347.7469 263.5 346.84064L265.5625 340.85626L267.09375 340.85626L267.09375 349.45L266.0 349.45L266.0 342.2625L263.5 349.45L262.46875 349.45L259.98438 342.1375L259.98438 349.45L258.89062 349.45ZM271.85938 348.6844Q271.26562 349.1844 270.71875 349.3875Q270.1875 349.59064 269.5625 349.59064Q268.53125 349.59064 267.98438 349.09064Q267.4375 348.59064 267.4375 347.8094Q267.4375 347.35626 267.64062 346.98126Q267.84375 346.59064 268.1875 346.3719Q268.53125 346.1375 268.95312 346.02814Q269.25 345.9344 269.89062 345.85626Q271.15625 345.71564 271.76562 345.4969Q271.76562 345.27814 271.76562 345.23126Q271.76562 344.575 271.46875 344.3094Q271.0625 343.96564 270.26562 343.96564Q269.53125 343.96564 269.17188 344.23126Q268.8125 344.48126 268.64062 345.1375L267.60938 344.9969Q267.75 344.34064 268.07812 343.9344Q268.40625 343.52814 269.01562 343.3094Q269.625 343.09064 270.42188 343.09064Q271.21875 343.09064 271.71875 343.27814Q272.21875 343.46564 272.45312 343.7469Q272.6875 344.02814 272.78125 344.46564Q272.82812 344.73126 272.82812 345.4344L272.82812 346.84064Q272.82812 348.3094 272.89062 348.7Q272.96875 349.09064 273.17188 349.45L272.0625 349.45Q271.90625 349.1219 271.85938 348.6844ZM271.76562 346.325Q271.1875 346.5594 270.04688 346.73126Q269.39062 346.825 269.125 346.95Q268.85938 347.0594 268.70312 347.27814Q268.5625 347.4969 268.5625 347.77814Q268.5625 348.2 268.875 348.48126Q269.20312 348.7625 269.8125 348.7625Q270.42188 348.7625 270.89062 348.4969Q271.375 348.23126 271.59375 347.7625Q271.76562 347.40314 271.76562 346.71564L271.76562 346.325ZM274.76562 349.45L274.76562 340.85626L275.82812 340.85626L275.82812 349.45L274.76562 349.45ZM282.04688 347.45L283.14062 347.575Q282.89062 348.52814 282.1875 349.0594Q281.48438 349.59064 280.40625 349.59064Q279.04688 349.59064 278.23438 348.7469Q277.4375 347.90314 277.4375 346.3875Q277.4375 344.825 278.25 343.96564Q279.0625 343.09064 280.34375 343.09064Q281.59375 343.09064 282.375 343.9344Q283.17188 344.77814 283.17188 346.325Q283.17188 346.41876 283.17188 346.60626L278.53125 346.60626Q278.59375 347.6375 279.10938 348.1844Q279.625 348.71564 280.40625 348.71564Q280.98438 348.71564 281.39062 348.41876Q281.8125 348.10626 282.04688 347.45ZM278.59375 345.7469L282.0625 345.7469Q282.0 344.95 281.67188 344.5594Q281.15625 343.95 280.35938 343.95Q279.625 343.95 279.125 344.4344Q278.64062 344.91876 278.59375 345.7469Z" fill-rule="nonzero"/><path fill="#00ffff" d="M312.0 345.45C312.0 348.7637 309.31372 351.45 306.0 351.45C302.68628 351.45 300.0 348.7637 300.0 345.45C300.0 342.1363 302.68628 339.45 306.0 339.45C309.31372 339.45 312.0 342.1363 312.0 345.45Z" fill-rule="nonzero"/><path fill="#1a1a1a" d="M320.98438 349.45L320.98438 340.85626L326.78125 340.85626L326.78125 341.8719L322.125 341.8719L322.125 344.52814L326.15625 344.52814L326.15625 345.54376L322.125 345.54376L322.125 349.45L320.98438 349.45ZM332.04688 347.45L333.14062 347.575Q332.89062 348.52814 332.1875 349.0594Q331.48438 349.59064 330.40625 349.59064Q329.04688 349.59064 328.23438 348.7469Q327.4375 347.90314 327.4375 346.3875Q327.4375 344.825 328.25 343.96564Q329.0625 343.09064 330.34375 343.09064Q331.59375 343.09064 332.375 343.9344Q333.17188 344.77814 333.17188 346.325Q333.17188 346.41876 333.17188 346.60626L328.53125 346.60626Q328.59375 347.6375 329.10938 348.1844Q329.625 348.71564 330.40625 348.71564Q330.98438 348.71564 331.39062 348.41876Q331.8125 348.10626 332.04688 347.45ZM328.59375 345.7469L332.0625 345.7469Q332.0 344.95 331.67188 344.5594Q331.15625 343.95 330.35938 343.95Q329.625 343.95 329.125 344.4344Q328.64062 344.91876 328.59375 345.7469ZM334.79688 349.45L334.79688 343.23126L335.73438 343.23126L335.73438 344.10626Q336.03125 343.6375 336.51562 343.3719Q337.0 343.09064 337.625 343.09064Q338.3125 343.09064 338.75 343.3719Q339.20312 343.65314 339.375 344.16876Q340.125 343.09064 341.29688 343.09064Q342.23438 343.09064 342.71875 343.60626Q343.21875 344.10626 343.21875 345.1844L343.21875 349.45L342.17188 349.45L342.17188 345.52814Q342.17188 344.90314 342.0625 344.6219Q341.96875 344.34064 341.70312 344.16876Q341.4375 343.9969 341.0625 343.9969Q340.40625 343.9969 339.96875 344.4344Q339.54688 344.8719 339.54688 345.84064L339.54688 349.45L338.48438 349.45L338.48438 345.40314Q338.48438 344.7 338.21875 344.35626Q337.96875 343.9969 337.39062 343.9969Q336.9375 343.9969 336.5625 344.23126Q336.1875 344.46564 336.01562 344.91876Q335.84375 345.3719 335.84375 346.21564L335.84375 349.45L334.79688 349.45ZM349.85938 348.6844Q349.26562 349.1844 348.71875 349.3875Q348.1875 349.59064 347.5625 349.59064Q346.53125 349.59064 345.98438 349.09064Q345.4375 348.59064 345.4375 347.8094Q345.4375 347.35626 345.64062 346.98126Q345.84375 346.59064 346.1875 346.3719Q346.53125 346.1375 346.95312 346.02814Q347.25 345.9344 347.89062 345.85626Q349.15625 345.71564 349.76562 345.4969Q349.76562 345.27814 349.76562 345.23126Q349.76562 344.575 349.46875 344.3094Q349.0625 343.96564 348.26562 343.96564Q347.53125 343.96564 347.17188 344.23126Q346.8125 344.48126 346.64062 345.1375L345.60938 344.9969Q345.75 344.34064 346.07812 343.9344Q346.40625 343.52814 347.01562 343.3094Q347.625 343.09064 348.42188 343.09064Q349.21875 343.09064 349.71875 343.27814Q350.21875 343.46564 350.45312 343.7469Q350.6875 344.02814 350.78125 344.46564Q350.82812 344.73126 350.82812 345.4344L350.82812 346.84064Q350.82812 348.3094 350.89062 348.7Q350.96875 349.09064 351.17188 349.45L350.0625 349.45Q349.90625 349.1219 349.85938 348.6844ZM349.76562 346.325Q349.1875 346.5594 348.04688 346.73126Q347.39062 346.825 347.125 346.95Q346.85938 347.0594 346.70312 347.27814Q346.5625 347.4969 346.5625 347.77814Q346.5625 348.2 346.875 348.48126Q347.20312 348.7625 347.8125 348.7625Q348.42188 348.7625 348.89062 348.4969Q349.375 348.23126 349.59375 347.7625Q349.76562 347.40314 349.76562 346.71564L349.76562 346.325ZM352.76562 349.45L352.76562 340.85626L353.82812 340.85626L353.82812 349.45L352.76562 349.45ZM360.04688 347.45L361.14062 347.575Q360.89062 348.52814 360.1875 349.0594Q359.48438 349.59064 358.40625 349.59064Q357.04688 349.59064 356.23438 348.7469Q355.4375 347.90314 355.4375 346.3875Q355.4375 344.825 356.25 343.96564Q357.0625 343.09064 358.34375 343.09064Q359.59375 343.09064 360.375 343.9344Q361.17188 344.77814 361.17188 346.325Q361.17188 346.41876 361.17188 346.60626L356.53125 346.60626Q356.59375 347.6375 357.10938 348.1844Q357.625 348.71564 358.40625 348.71564Q358.98438 348.71564 359.39062 348.41876Q359.8125 348.10626 360.04688 347.45ZM356.59375 345.7469L360.0625 345.7469Q360.0 344.95 359.67188 344.5594Q359.15625 343.95 358.35938 343.95Q357.625 343.95 357.125 344.4344Q356.64062 344.91876 356.59375 345.7469Z" fill-rule="nonzero"/><path fill="#000000" d="M273.10938 32.284374L273.10938 29.878124L279.34375 29.878124L279.34375 35.58125Q278.4375 36.45625 276.70312 37.128124Q274.98438 37.8 273.21875 37.8Q270.98438 37.8 269.3125 36.8625Q267.64062 35.909374 266.79688 34.159374Q265.95312 32.409374 265.95312 30.346874Q265.95312 28.1125 266.89062 26.378124Q267.82812 24.628124 269.64062 23.70625Q271.01562 22.9875 273.0625 22.9875Q275.73438 22.9875 277.23438 24.1125Q278.73438 25.221874 279.15625 27.190624L276.29688 27.7375Q275.98438 26.675 275.14062 26.065624Q274.3125 25.45625 273.0625 25.45625Q271.17188 25.45625 270.04688 26.659374Q268.9375 27.8625 268.9375 30.221874Q268.9375 32.76875 270.0625 34.05Q271.20312 35.315624 273.03125 35.315624Q273.95312 35.315624 274.85938 34.971874Q275.76562 34.6125 276.42188 34.096874L276.42188 32.284374L273.10938 32.284374ZM288.4375 34.253124L291.17188 34.70625Q290.65625 36.20625 289.51562 37.003124Q288.375 37.784374 286.67188 37.784374Q283.95312 37.784374 282.65625 36.01875Q281.64062 34.596874 281.64062 32.440624Q281.64062 29.8625 282.98438 28.409374Q284.32812 26.940624 286.39062 26.940624Q288.70312 26.940624 290.03125 28.471874Q291.375 30.003124 291.32812 33.159374L284.45312 33.159374Q284.48438 34.378124 285.10938 35.065624Q285.75 35.7375 286.6875 35.7375Q287.34375 35.7375 287.78125 35.39375Q288.21875 35.034374 288.4375 34.253124ZM288.59375 31.471874Q288.5625 30.284374 287.96875 29.675Q287.39062 29.05 286.5625 29.05Q285.65625 29.05 285.07812 29.690624Q284.48438 30.346874 284.5 31.471874L288.59375 31.471874ZM302.875 37.55L300.125 37.55L300.125 32.253124Q300.125 30.58125 299.95312 30.096874Q299.78125 29.596874 299.375 29.33125Q298.98438 29.05 298.42188 29.05Q297.71875 29.05 297.14062 29.440624Q296.57812 29.83125 296.35938 30.471874Q296.15625 31.1125 296.15625 32.846874L296.15625 37.55L293.42188 37.55L293.42188 27.175L295.96875 27.175L295.96875 28.70625Q297.32812 26.940624 299.39062 26.940624Q300.29688 26.940624 301.04688 27.26875Q301.79688 27.596874 302.17188 28.1125Q302.5625 28.6125 302.71875 29.26875Q302.875 29.909374 302.875 31.096874L302.875 37.55ZM314.95312 37.55L312.40625 37.55L312.40625 36.01875Q311.76562 36.909374 310.89062 37.346874Q310.03125 37.784374 309.15625 37.784374Q307.375 37.784374 306.09375 36.346874Q304.82812 34.909374 304.82812 32.33125Q304.82812 29.690624 306.0625 28.315624Q307.29688 26.940624 309.20312 26.940624Q310.9375 26.940624 312.20312 28.39375L312.20312 23.2375L314.95312 23.2375L314.95312 37.55ZM307.625 32.14375Q307.625 33.8 308.07812 34.534374Q308.75 35.6125 309.9375 35.6125Q310.89062 35.6125 311.54688 34.815624Q312.21875 34.003124 312.21875 32.409374Q312.21875 30.6125 311.5625 29.83125Q310.92188 29.05 309.92188 29.05Q308.9375 29.05 308.28125 29.83125Q307.625 30.596874 307.625 32.14375ZM323.4375 34.253124L326.17188 34.70625Q325.65625 36.20625 324.51562 37.003124Q323.375 37.784374 321.67188 37.784374Q318.95312 37.784374 317.65625 36.01875Q316.64062 34.596874 316.64062 32.440624Q316.64062 29.8625 317.98438 28.409374Q319.32812 26.940624 321.39062 26.940624Q323.70312 26.940624 325.03125 28.471874Q326.375 30.003124 326.32812 33.159374L319.45312 33.159374Q319.48438 34.378124 320.10938 35.065624Q320.75 35.7375 321.6875 35.7375Q322.34375 35.7375 322.78125 35.39375Q323.21875 35.034374 323.4375 34.253124ZM323.59375 31.471874Q323.5625 30.284374 322.96875 29.675Q322.39062 29.05 321.5625 29.05Q320.65625 29.05 320.07812 29.690624Q319.48438 30.346874 319.5 31.471874L323.59375 31.471874ZM331.0625 37.55L328.3125 37.55L328.3125 27.175L330.875 27.175L330.875 28.659374Q331.51562 27.6125 332.03125 27.284374Q332.5625 26.940624 333.23438 26.940624Q334.17188 26.940624 335.03125 27.45625L334.1875 29.846874Q333.5 29.409374 332.90625 29.409374Q332.32812 29.409374 331.92188 29.721874Q331.51562 30.034374 331.28125 30.878124Q331.0625 31.70625 331.0625 34.346874L331.0625 37.55Z" fill-rule="nonzero"/></svg>