<svg version="1.1" viewBox="0.0 0.0 600.0 371.0" fill="none" stroke="none" stroke-linecap="square" stroke-miterlimit="10" width="600" height="371" xmlns:xlink="http://www.w3.org/1999/xlink" xmlns="http://www.w3.org/2000/svg"><path fill="#ffffff" d="M0 0L600.0 0L600.0 371.0L0 371.0L0 0Z" fill-rule="nonzero"/><path fill="#00ffff" d="M186.10649 128.83908C211.0808 101.77163 253.96832 85.42292 300.0 85.42292L300.0 180.33125Z" fill-rule="nonzero"/><path fill="#00b300" d="M435.58334 200.66875C435.58334 253.08517 374.8806 295.5771 300.0 295.5771C225.1194 295.5771 164.41667 253.08517 164.41667 200.66875L164.41667 180.33125C164.41667 232.74768 225.1194 275.2396 300.0 275.2396C374.8806 275.2396 435.58334 232.74768 435.58334 180.33125Z" fill-rule="nonzero"/><path fill="#00ff00" d="M300.0 85.42292C361.9948 85.42292 416.09305 114.85749 431.39072 156.91191C446.68842 198.96634 419.28845 242.9273 364.84326 263.6818C310.3981 284.43628 242.77756 276.69708 200.61038 244.88531C158.4432 213.07353 152.47144 165.29315 186.10649 128.83908L300.0 180.33125Z" fill-rule="nonzero"/><path fill="#000000" d="M326.31647 236.25629Q325.55084 235.97504 325.17584 235.45941Q324.81647 234.94379 324.81647 234.20941Q324.81647 233.11566 325.59772 232.38129Q326.3946 231.63129 327.69147 231.63129Q329.00397 231.63129 329.80084 232.39691Q330.61334 233.16254 330.61334 234.25629Q330.61334 234.94379 330.23834 235.45941Q329.87897 235.97504 329.12897 236.25629Q330.05084 236.55316 330.53522 237.22504Q331.0196 237.89691 331.0196 238.83441Q331.0196 240.11566 330.11334 240.99066Q329.2071 241.86566 327.72272 241.86566Q326.23834 241.86566 325.31647 240.99066Q324.41022 240.10004 324.41022 238.78754Q324.41022 237.81879 324.91022 237.16254Q325.41022 236.49066 326.31647 236.25629ZM326.0821 234.17816Q326.0821 234.88129 326.53522 235.33441Q326.98834 235.78754 327.72272 235.78754Q328.44147 235.78754 328.8946 235.35004Q329.34772 234.89691 329.34772 234.24066Q329.34772 233.56879 328.87897 233.11566Q328.41022 232.64691 327.7071 232.64691Q327.00397 232.64691 326.53522 233.10004Q326.0821 233.53754 326.0821 234.17816ZM325.67584 238.80316Q325.67584 239.33441 325.92584 239.83441Q326.17584 240.31879 326.66022 240.58441Q327.16022 240.85004 327.73834 240.85004Q328.61334 240.85004 329.17584 240.28754Q329.75397 239.72504 329.75397 238.85004Q329.75397 237.95941 329.16022 237.38129Q328.5821 236.78754 327.69147 236.78754Q326.81647 236.78754 326.23834 237.36566Q325.67584 237.94379 325.67584 238.80316ZM336.37897 241.69379L336.37897 239.28754L332.0196 239.28754L332.0196 238.16254L336.59772 231.67816L337.59772 231.67816L337.59772 238.16254L338.9571 238.16254L338.9571 239.28754L337.59772 239.28754L337.59772 241.69379L336.37897 241.69379ZM336.37897 238.16254L336.37897 233.64691L333.23834 238.16254L336.37897 238.16254ZM341.11334 241.69379L341.11334 240.28754L342.5196 240.28754L342.5196 241.69379L341.11334 241.69379ZM349.06647 241.69379L347.8321 241.69379L347.8321 233.85004Q347.3946 234.27191 346.66022 234.70941Q345.94147 235.13129 345.37897 235.33441L345.37897 234.14691Q346.41022 233.66254 347.17584 232.97504Q347.9571 232.28754 348.2696 231.63129L349.06647 231.63129L349.06647 241.69379ZM352.66022 234.08441Q352.66022 233.00629 353.19147 232.25629Q353.73834 231.50629 354.7696 231.50629Q355.7071 231.50629 356.31647 232.17816Q356.94147 232.85004 356.94147 234.14691Q356.94147 235.42816 356.31647 236.11566Q355.69147 236.80316 354.78522 236.80316Q353.87897 236.80316 353.2696 236.13129Q352.66022 235.44379 352.66022 234.08441ZM354.80084 232.35004Q354.34772 232.35004 354.03522 232.75629Q353.73834 233.14691 353.73834 234.19379Q353.73834 235.16254 354.03522 235.55316Q354.34772 235.94379 354.80084 235.94379Q355.2696 235.94379 355.56647 235.55316Q355.87897 235.16254 355.87897 234.10004Q355.87897 233.13129 355.56647 232.74066Q355.25397 232.35004 354.80084 232.35004ZM354.80084 242.06879L360.28522 231.50629L361.28522 231.50629L355.8321 242.06879L354.80084 242.06879ZM359.1446 239.33441Q359.1446 238.25629 359.67584 237.52191Q360.22272 236.77191 361.25397 236.77191Q362.19147 236.77191 362.81647 237.44379Q363.44147 238.11566 363.44147 239.41254Q363.44147 240.69379 362.81647 241.38129Q362.19147 242.06879 361.25397 242.06879Q360.34772 242.06879 359.73834 241.39691Q359.1446 240.70941 359.1446 239.33441ZM361.28522 237.61566Q360.81647 237.61566 360.5196 238.02191Q360.22272 238.41254 360.22272 239.45941Q360.22272 240.42816 360.5196 240.81879Q360.8321 241.20941 361.28522 241.20941Q361.75397 241.20941 362.05084 240.81879Q362.36334 240.42816 362.36334 239.36566Q362.36334 238.39691 362.05084 238.00629Q361.75397 237.61566 361.28522 237.61566Z" fill-rule="nonzero"/><path fill="#000000" d="M241.37103 128.96872L240.13666 128.96872L240.13666 121.12497Q239.69916 121.546844 238.96478 121.984344Q238.24603 122.40622 237.68353 122.609344L237.68353 121.421844Q238.71478 120.93747 239.48041 120.24997Q240.26166 119.56247 240.57416 118.90622L241.37103 118.90622L241.37103 128.96872ZM244.73041 126.34372L246.02728 126.234344Q246.16791 127.171844 246.68353 127.65622Q247.21478 128.12497 247.94916 128.12497Q248.83978 128.12497 249.44916 127.453094Q250.07416 126.78122 250.07416 125.68747Q250.07416 124.62497 249.48041 124.015594Q248.88666 123.40622 247.93353 123.40622Q247.33978 123.40622 246.85541 123.68747Q246.38666 123.953094 246.10541 124.37497L244.94916 124.234344L245.91791 119.078094L250.90228 119.078094L250.90228 120.265594L246.90228 120.265594L246.37103 122.953094Q247.27728 122.328094 248.26166 122.328094Q249.57416 122.328094 250.46478 123.234344Q251.37103 124.140594 251.37103 125.578094Q251.37103 126.93747 250.58978 127.921844Q249.62103 129.1406 247.94916 129.1406Q246.58978 129.1406 245.71478 128.37497Q244.85541 127.609344 244.73041 126.34372ZM253.41791 128.96872L253.41791 127.56247L254.82416 127.56247L254.82416 128.96872L253.41791 128.96872ZM256.9179 126.65622L258.1054 126.546844Q258.24603 127.37497 258.6679 127.74997Q259.1054 128.12497 259.76166 128.12497Q260.32416 128.12497 260.74603 127.87497Q261.18353 127.609344 261.44916 127.171844Q261.7304 126.734344 261.9179 125.99997Q262.1054 125.265594 262.1054 124.49997Q262.1054 124.421844 262.08978 124.24997Q261.7304 124.84372 261.08978 125.21872Q260.44916 125.578094 259.69916 125.578094Q258.44916 125.578094 257.58978 124.671844Q256.7304 123.765594 256.7304 122.296844Q256.7304 120.765594 257.62103 119.84372Q258.52728 118.90622 259.88666 118.90622Q260.8554 118.90622 261.6679 119.43747Q262.4804 119.953094 262.90228 120.93747Q263.32416 121.90622 263.32416 123.74997Q263.32416 125.671844 262.90228 126.81247Q262.49603 127.953094 261.6679 128.54684Q260.83978 129.1406 259.7304 129.1406Q258.55853 129.1406 257.80853 128.48434Q257.07416 127.828094 256.9179 126.65622ZM261.94916 122.234344Q261.94916 121.171844 261.38666 120.546844Q260.82416 119.921844 260.0429 119.921844Q259.21478 119.921844 258.6054 120.59372Q257.99603 121.265594 257.99603 122.328094Q257.99603 123.28122 258.57416 123.890594Q259.15228 124.484344 259.99603 124.484344Q260.8554 124.484344 261.40228 123.890594Q261.94916 123.28122 261.94916 122.234344ZM264.96478 121.359344Q264.96478 120.28122 265.49603 119.53122Q266.0429 118.78122 267.07416 118.78122Q268.01166 118.78122 268.62103 119.453094Q269.24603 120.12497 269.24603 121.421844Q269.24603 122.703094 268.62103 123.390594Q267.99603 124.078094 267.08978 124.078094Q266.18353 124.078094 265.57416 123.40622Q264.96478 122.71872 264.96478 121.359344ZM267.1054 119.62497Q266.65228 119.62497 266.33978 120.03122Q266.0429 120.421844 266.0429 121.46872Q266.0429 122.43747 266.33978 122.828094Q266.65228 123.21872 267.1054 123.21872Q267.57416 123.21872 267.87103 122.828094Q268.18353 122.43747 268.18353 121.37497Q268.18353 120.40622 267.87103 120.015594Q267.55853 119.62497 267.1054 119.62497ZM267.1054 129.34372L272.58978 118.78122L273.58978 118.78122L268.13666 129.34372L267.1054 129.34372ZM271.44916 126.609344Q271.44916 125.53122 271.9804 124.796844Q272.52728 124.046844 273.55853 124.046844Q274.49603 124.046844 275.12103 124.71872Q275.74603 125.390594 275.74603 126.68747Q275.74603 127.96872 275.12103 128.65622Q274.49603 129.34372 273.55853 129.34372Q272.65228 129.34372 272.0429 128.67184Q271.44916 127.984344 271.44916 126.609344ZM273.58978 124.890594Q273.12103 124.890594 272.82416 125.296844Q272.52728 125.68747 272.52728 126.734344Q272.52728 127.703094 272.82416 128.09372Q273.13666 128.48434 273.58978 128.48434Q274.05853 128.48434 274.3554 128.09372Q274.6679 127.703094 274.6679 126.640594Q274.6679 125.671844 274.3554 125.28122Q274.05853 124.890594 273.58978 124.890594Z" fill-rule="nonzero"/><path fill="#00ff00" d="M265.5 345.45C265.5 348.7637 262.81372 351.45 259.5 351.45C256.18628 351.45 253.5 348.7637 253.5 345.45C253.5 342.1363 256.18628 339.45 259.5 339.45C262.81372 339.45 265.5 342.1363 265.5 345.45Z" fill-rule="nonzero"/><path fill="#1a1a1a" d="M276.84375 349.45L276.84375 345.8094L273.53125 340.85626L274.92188 340.85626L276.60938 343.45Q277.07812 344.16876 277.48438 344.90314Q277.875 344.23126 278.42188 343.3875L280.09375 340.85626L281.40625 340.85626L277.98438 345.8094L277.98438 349.45L276.84375 349.45ZM285.54688 347.45L286.64062 347.575Q286.39062 348.52814 285.6875 349.0594Q284.98438 349.59064 283.90625 349.59064Q282.54688 349.59064 281.73438 348.7469Q280.9375 347.90314 280.9375 346.3875Q280.9375 344.825 281.75 343.96564Q282.5625 343.09064 283.84375 343.09064Q285.09375 343.09064 285.875 343.9344Q286.67188 344.77814 286.67188 346.325Q286.67188 346.41876 286.67188 346.60626L282.03125 346.60626Q282.09375 347.6375 282.60938 348.1844Q283.125 348.71564 283.90625 348.71564Q284.48438 348.71564 284.89062 348.41876Q285.3125 348.10626 285.54688 347.45ZM282.09375 345.7469L285.5625 345.7469Q285.5 344.95 285.17188 344.5594Q284.65625 343.95 283.85938 343.95Q283.125 343.95 282.625 344.4344Q282.14062 344.91876 282.09375 345.7469ZM287.875 347.59064L288.90625 347.4344Q289.0 348.0594 289.39062 348.3875Q289.79688 348.71564 290.53125 348.71564Q291.25 348.71564 291.59375 348.4344Q291.95312 348.1375 291.95312 347.73126Q291.95312 347.3719 291.64062 347.16876Q291.42188 347.02814 290.5625 346.8094Q289.40625 346.5125 288.95312 346.3094Q288.51562 346.09064 288.28125 345.71564Q288.04688 345.34064 288.04688 344.8719Q288.04688 344.46564 288.23438 344.10626Q288.42188 343.7469 288.75 343.5125Q289.0 343.34064 289.42188 343.21564Q289.84375 343.09064 290.34375 343.09064Q291.0625 343.09064 291.60938 343.3094Q292.17188 343.5125 292.4375 343.8719Q292.70312 344.23126 292.79688 344.825L291.76562 344.96564Q291.70312 344.4969 291.35938 344.23126Q291.03125 343.95 290.40625 343.95Q289.6875 343.95 289.375 344.2Q289.0625 344.4344 289.0625 344.7625Q289.0625 344.96564 289.1875 345.1219Q289.32812 345.29376 289.59375 345.40314Q289.75 345.46564 290.53125 345.66876Q291.65625 345.98126 292.09375 346.16876Q292.53125 346.35626 292.78125 346.71564Q293.03125 347.075 293.03125 347.6219Q293.03125 348.15314 292.71875 348.6219Q292.42188 349.075 291.84375 349.34064Q291.26562 349.59064 290.53125 349.59064Q289.3125 349.59064 288.67188 349.09064Q288.04688 348.575 287.875 347.59064Z" fill-rule="nonzero"/><path fill="#00ffff" d="M322.5 345.45C322.5 348.7637 319.81372 351.45 316.5 351.45C313.18628 351.45 310.5 348.7637 310.5 345.45C310.5 342.1363 313.18628 339.45 316.5 339.45C319.81372 339.45 322.5 342.1363 322.5 345.45Z" fill-rule="nonzero"/><path fill="#1a1a1a" d="M331.42188 349.45L331.42188 340.85626L332.57812 340.85626L337.09375 347.60626L337.09375 340.85626L338.1875 340.85626L338.1875 349.45L337.01562 349.45L332.5 342.7L332.5 349.45L331.42188 349.45ZM339.90625 346.34064Q339.90625 344.60626 340.85938 343.77814Q341.65625 343.09064 342.8125 343.09064Q344.09375 343.09064 344.90625 343.9344Q345.73438 344.7625 345.73438 346.2469Q345.73438 347.45 345.375 348.1375Q345.01562 348.825 344.3125 349.21564Q343.625 349.59064 342.8125 349.59064Q341.51562 349.59064 340.70312 348.7625Q339.90625 347.91876 339.90625 346.34064ZM340.98438 346.34064Q340.98438 347.52814 341.5 348.1219Q342.03125 348.71564 342.8125 348.71564Q343.60938 348.71564 344.125 348.1219Q344.64062 347.52814 344.64062 346.3094Q344.64062 345.15314 344.10938 344.5594Q343.59375 343.96564 342.8125 343.96564Q342.03125 343.96564 341.5 344.5594Q340.98438 345.1375 340.98438 346.34064Z" fill-rule="nonzero"/><path fill="#000000" d="M71.984375 37.55L68.5625 23.2375L71.53125 23.2375L73.6875 33.065624L76.296875 23.2375L79.734375 23.2375L82.25 33.2375L84.453125 23.2375L87.359375 23.2375L83.875 37.55L80.8125 37.55L77.96875 26.846874L75.125 37.55L71.984375 37.55ZM94.9375 34.253124L97.671875 34.70625Q97.15625 36.20625 96.015625 37.003124Q94.875 37.784374 93.171875 37.784374Q90.453125 37.784374 89.15625 36.01875Q88.140625 34.596874 88.140625 32.440624Q88.140625 29.8625 89.484375 28.409374Q90.828125 26.940624 92.890625 26.940624Q95.203125 26.940624 96.53125 28.471874Q97.875 30.003124 97.828125 33.159374L90.953125 33.159374Q90.984375 34.378124 91.609375 35.065624Q92.25 35.7375 93.1875 35.7375Q93.84375 35.7375 94.28125 35.39375Q94.71875 35.034374 94.9375 34.253124ZM95.09375 31.471874Q95.0625 30.284374 94.46875 29.675Q93.890625 29.05 93.0625 29.05Q92.15625 29.05 91.578125 29.690624Q90.984375 30.346874 91.0 31.471874L95.09375 31.471874ZM108.671875 23.2375L108.671875 28.503124Q110.0 26.940624 111.84375 26.940624Q112.796875 26.940624 113.546875 27.3Q114.3125 27.64375 114.703125 28.190624Q115.09375 28.7375 115.234375 29.409374Q115.375 30.065624 115.375 31.471874L115.375 37.55L112.625 37.55L112.625 32.065624Q112.625 30.440624 112.46875 30.003124Q112.3125 29.565624 111.90625 29.315624Q111.515625 29.05 110.921875 29.05Q110.25 29.05 109.703125 29.378124Q109.171875 29.70625 108.921875 30.378124Q108.671875 31.05 108.671875 32.346874L108.671875 37.55L105.921875 37.55L105.921875 23.2375L108.671875 23.2375ZM119.984375 30.346874L117.5 29.89375Q117.921875 28.39375 118.9375 27.675Q119.96875 26.940624 121.984375 26.940624Q123.828125 26.940624 124.71875 27.378124Q125.625 27.815624 125.984375 28.4875Q126.359375 29.14375 126.359375 30.940624L126.328125 34.14375Q126.328125 35.503124 126.453125 36.159374Q126.59375 36.8 126.953125 37.55L124.234375 37.55Q124.125 37.26875 123.96875 36.7375Q123.90625 36.4875 123.875 36.409374Q123.171875 37.096874 122.359375 37.440624Q121.5625 37.784374 120.65625 37.784374Q119.0625 37.784374 118.140625 36.925Q117.21875 36.05 117.21875 34.721874Q117.21875 33.83125 117.625 33.14375Q118.046875 32.45625 118.796875 32.096874Q119.5625 31.721874 121.0 31.45625Q122.921875 31.096874 123.65625 30.784374L123.65625 30.503124Q123.65625 29.721874 123.265625 29.39375Q122.875 29.05 121.796875 29.05Q121.0625 29.05 120.640625 29.33125Q120.234375 29.6125 119.984375 30.346874ZM123.65625 32.565624Q123.125 32.7375 121.984375 32.9875Q120.84375 33.2375 120.5 33.471874Q119.953125 33.846874 119.953125 34.440624Q119.953125 35.003124 120.375 35.425Q120.8125 35.846874 121.484375 35.846874Q122.21875 35.846874 122.890625 35.3625Q123.390625 34.9875 123.546875 34.45625Q123.65625 34.096874 123.65625 33.1125L123.65625 32.565624ZM131.78125 37.55L127.609375 27.175L130.48438 27.175L132.4375 32.471874L133.01562 34.2375Q133.23438 33.565624 133.29688 33.346874Q133.42188 32.909374 133.57812 32.471874L135.5625 27.175L138.375 27.175L134.26562 37.55L131.78125 37.55ZM145.9375 34.253124L148.67188 34.70625Q148.15625 36.20625 147.01562 37.003124Q145.875 37.784374 144.17188 37.784374Q141.45312 37.784374 140.15625 36.01875Q139.14062 34.596874 139.14062 32.440624Q139.14062 29.8625 140.48438 28.409374Q141.82812 26.940624 143.89062 26.940624Q146.20312 26.940624 147.53125 28.471874Q148.875 30.003124 148.82812 33.159374L141.95312 33.159374Q141.98438 34.378124 142.60938 35.065624Q143.25 35.7375 144.1875 35.7375Q144.84375 35.7375 145.28125 35.39375Q145.71875 35.034374 145.9375 34.253124ZM146.09375 31.471874Q146.0625 30.284374 145.46875 29.675Q144.89062 29.05 144.0625 29.05Q143.15625 29.05 142.57812 29.690624Q141.98438 30.346874 142.0 31.471874L146.09375 31.471874ZM166.45312 37.55L163.90625 37.55L163.90625 36.01875Q163.26562 36.909374 162.39062 37.346874Q161.53125 37.784374 160.65625 37.784374Q158.875 37.784374 157.59375 36.346874Q156.32812 34.909374 156.32812 32.33125Q156.32812 29.690624 157.5625 28.315624Q158.79688 26.940624 160.70312 26.940624Q162.4375 26.940624 163.70312 28.39375L163.70312 23.2375L166.45312 23.2375L166.45312 37.55ZM159.125 32.14375Q159.125 33.8 159.57812 34.534374Q160.25 35.6125 161.4375 35.6125Q162.39062 35.6125 163.04688 34.815624Q163.71875 34.003124 163.71875 32.409374Q163.71875 30.6125 163.0625 29.83125Q162.42188 29.05 161.42188 29.05Q160.4375 29.05 159.78125 29.83125Q159.125 30.596874 159.125 32.14375ZM174.9375 34.253124L177.67188 34.70625Q177.15625 36.20625 176.01562 37.003124Q174.875 37.784374 173.17188 37.784374Q170.45312 37.784374 169.15625 36.01875Q168.14062 34.596874 168.14062 32.440624Q168.14062 29.8625 169.48438 28.409374Q170.82812 26.940624 172.89062 26.940624Q175.20312 26.940624 176.53125 28.471874Q177.875 30.003124 177.82812 33.159374L170.95312 33.159374Q170.98438 34.378124 171.60938 35.065624Q172.25 35.7375 173.1875 35.7375Q173.84375 35.7375 174.28125 35.39375Q174.71875 35.034374 174.9375 34.253124ZM175.09375 31.471874Q175.0625 30.284374 174.46875 29.675Q173.89062 29.05 173.0625 29.05Q172.15625 29.05 171.57812 29.690624Q170.98438 30.346874 171.0 31.471874L175.09375 31.471874ZM182.78125 37.55L178.60938 27.175L181.48438 27.175L183.4375 32.471874L184.01562 34.2375Q184.23438 33.565624 184.29688 33.346874Q184.42188 32.909374 184.57812 32.471874L186.5625 27.175L189.375 27.175L185.26562 37.55L182.78125 37.55ZM196.9375 34.253124L199.67188 34.70625Q199.15625 36.20625 198.01562 37.003124Q196.875 37.784374 195.17188 37.784374Q192.45312 37.784374 191.15625 36.01875Q190.14062 34.596874 190.14062 32.440624Q190.14062 29.8625 191.48438 28.409374Q192.82812 26.940624 194.89062 26.940624Q197.20312 26.940624 198.53125 28.471874Q199.875 30.003124 199.82812 33.159374L192.95312 33.159374Q192.98438 34.378124 193.60938 35.065624Q194.25 35.7375 195.1875 35.7375Q195.84375 35.7375 196.28125 35.39375Q196.71875 35.034374 196.9375 34.253124ZM197.09375 31.471874Q197.0625 30.284374 196.46875 29.675Q195.89062 29.05 195.0625 29.05Q194.15625 29.05 193.57812 29.690624Q192.98438 30.346874 193.0 31.471874L197.09375 31.471874ZM201.9375 37.55L201.9375 23.2375L204.6875 23.2375L204.6875 37.55L201.9375 37.55ZM206.29688 32.221874Q206.29688 30.846874 206.96875 29.565624Q207.65625 28.284374 208.89062 27.6125Q210.125 26.940624 211.64062 26.940624Q214.0 26.940624 215.5 28.471874Q217.0 30.003124 217.0 32.33125Q217.0 34.690624 215.48438 36.2375Q213.96875 37.784374 211.65625 37.784374Q210.23438 37.784374 208.9375 37.14375Q207.65625 36.4875 206.96875 35.253124Q206.29688 34.003124 206.29688 32.221874ZM209.10938 32.3625Q209.10938 33.909374 209.84375 34.7375Q210.57812 35.55 211.65625 35.55Q212.73438 35.55 213.45312 34.7375Q214.1875 33.909374 214.1875 32.346874Q214.1875 30.815624 213.45312 30.003124Q212.73438 29.175 211.65625 29.175Q210.57812 29.175 209.84375 30.003124Q209.10938 30.815624 209.10938 32.3625ZM218.85938 27.175L221.42188 27.175L221.42188 28.70625Q221.92188 27.925 222.76562 27.440624Q223.60938 26.940624 224.65625 26.940624Q226.45312 26.940624 227.70312 28.3625Q228.96875 29.76875 228.96875 32.3Q228.96875 34.909374 227.70312 36.346874Q226.4375 37.784374 224.625 37.784374Q223.76562 37.784374 223.0625 37.440624Q222.375 37.096874 221.60938 36.26875L221.60938 41.503124L218.85938 41.503124L218.85938 27.175ZM221.57812 32.190624Q221.57812 33.940624 222.26562 34.784374Q222.95312 35.6125 223.95312 35.6125Q224.90625 35.6125 225.54688 34.846874Q226.1875 34.065624 226.1875 32.33125Q226.1875 30.690624 225.53125 29.909374Q224.875 29.1125 223.90625 29.1125Q222.90625 29.1125 222.23438 29.89375Q221.57812 30.659374 221.57812 32.190624ZM236.9375 34.253124L239.67188 34.70625Q239.15625 36.20625 238.01562 37.003124Q236.875 37.784374 235.17188 37.784374Q232.45312 37.784374 231.15625 36.01875Q230.14062 34.596874 230.14062 32.440624Q230.14062 29.8625 231.48438 28.409374Q232.82812 26.940624 234.89062 26.940624Q237.20312 26.940624 238.53125 28.471874Q239.875 30.003124 239.82812 33.159374L232.95312 33.159374Q232.98438 34.378124 233.60938 35.065624Q234.25 35.7375 235.1875 35.7375Q235.84375 35.7375 236.28125 35.39375Q236.71875 35.034374 236.9375 34.253124ZM237.09375 31.471874Q237.0625 30.284374 236.46875 29.675Q235.89062 29.05 235.0625 29.05Q234.15625 29.05 233.57812 29.690624Q232.98438 30.346874 233.0 31.471874L237.09375 31.471874ZM251.45312 37.55L248.90625 37.55L248.90625 36.01875Q248.26562 36.909374 247.39062 37.346874Q246.53125 37.784374 245.65625 37.784374Q243.875 37.784374 242.59375 36.346874Q241.32812 34.909374 241.32812 32.33125Q241.32812 29.690624 242.5625 28.315624Q243.79688 26.940624 245.70312 26.940624Q247.4375 26.940624 248.70312 28.39375L248.70312 23.2375L251.45312 23.2375L251.45312 37.55ZM244.125 32.14375Q244.125 33.8 244.57812 34.534374Q245.25 35.6125 246.4375 35.6125Q247.39062 35.6125 248.04688 34.815624Q248.71875 34.003124 248.71875 32.409374Q248.71875 30.6125 248.0625 29.83125Q247.42188 29.05 246.42188 29.05Q245.4375 29.05 244.78125 29.83125Q244.125 30.596874 244.125 32.14375ZM259.29688 32.221874Q259.29688 30.846874 259.96875 29.565624Q260.65625 28.284374 261.89062 27.6125Q263.125 26.940624 264.64062 26.940624Q267.0 26.940624 268.5 28.471874Q270.0 30.003124 270.0 32.33125Q270.0 34.690624 268.48438 36.2375Q266.96875 37.784374 264.65625 37.784374Q263.23438 37.784374 261.9375 37.14375Q260.65625 36.4875 259.96875 35.253124Q259.29688 34.003124 259.29688 32.221874ZM262.10938 32.3625Q262.10938 33.909374 262.84375 34.7375Q263.57812 35.55 264.65625 35.55Q265.73438 35.55 266.45312 34.7375Q267.1875 33.909374 267.1875 32.346874Q267.1875 30.815624 266.45312 30.003124Q265.73438 29.175 264.65625 29.175Q263.57812 29.175 262.84375 30.003124Q262.10938 30.815624 262.10938 32.3625ZM281.375 37.55L278.625 37.55L278.625 32.253124Q278.625 30.58125 278.45312 30.096874Q278.28125 29.596874 277.875 29.33125Q277.48438 29.05 276.92188 29.05Q276.21875 29.05 275.64062 29.440624Q275.07812 29.83125 274.85938 30.471874Q274.65625 31.1125 274.65625 32.846874L274.65625 37.55L271.92188 37.55L271.92188 27.175L274.46875 27.175L274.46875 28.70625Q275.82812 26.940624 277.89062 26.940624Q278.79688 26.940624 279.54688 27.26875Q280.29688 27.596874 280.67188 28.1125Q281.0625 28.6125 281.21875 29.26875Q281.375 29.909374 281.375 31.096874L281.375 37.55ZM289.9375 34.253124L292.67188 34.70625Q292.15625 36.20625 291.01562 37.003124Q289.875 37.784374 288.17188 37.784374Q285.45312 37.784374 284.15625 36.01875Q283.14062 34.596874 283.14062 32.440624Q283.14062 29.8625 284.48438 28.409374Q285.82812 26.940624 287.89062 26.940624Q290.20312 26.940624 291.53125 28.471874Q292.875 30.003124 292.82812 33.159374L285.95312 33.159374Q285.98438 34.378124 286.60938 35.065624Q287.25 35.7375 288.1875 35.7375Q288.84375 35.7375 289.28125 35.39375Q289.71875 35.034374 289.9375 34.253124ZM290.09375 31.471874Q290.0625 30.284374 289.46875 29.675Q288.89062 29.05 288.0625 29.05Q287.15625 29.05 286.57812 29.690624Q285.98438 30.346874 286.0 31.471874L290.09375 31.471874ZM294.875 34.8L297.60938 34.8L297.60938 36.76875Q297.60938 37.95625 297.40625 38.64375Q297.20312 39.33125 296.625 39.878124Q296.0625 40.425 295.1875 40.7375L294.64062 39.6125Q295.46875 39.33125 295.8125 38.846874Q296.17188 38.378124 296.20312 37.55L294.875 37.55L294.875 34.8ZM308.875 37.55L305.59375 27.175L308.25 27.175L310.20312 33.971874L311.98438 27.175L314.625 27.175L316.35938 33.971874L318.34375 27.175L321.04688 27.175L317.71875 37.55L315.07812 37.55L313.29688 30.878124L311.53125 37.55L308.875 37.55ZM321.29688 32.221874Q321.29688 30.846874 321.96875 29.565624Q322.65625 28.284374 323.89062 27.6125Q325.125 26.940624 326.64062 26.940624Q329.0 26.940624 330.5 28.471874Q332.0 30.003124 332.0 32.33125Q332.0 34.690624 330.48438 36.2375Q328.96875 37.784374 326.65625 37.784374Q325.23438 37.784374 323.9375 37.14375Q322.65625 36.4875 321.96875 35.253124Q321.29688 34.003124 321.29688 32.221874ZM324.10938 32.3625Q324.10938 33.909374 324.84375 34.7375Q325.57812 35.55 326.65625 35.55Q327.73438 35.55 328.45312 34.7375Q329.1875 33.909374 329.1875 32.346874Q329.1875 30.815624 328.45312 30.003124Q327.73438 29.175 326.65625 29.175Q325.57812 29.175 324.84375 30.003124Q324.10938 30.815624 324.10938 32.3625ZM340.76562 37.55L340.76562 36.003124Q340.20312 36.83125 339.26562 37.315624Q338.34375 37.784374 337.32812 37.784374Q336.28125 37.784374 335.45312 37.33125Q334.625 36.8625 334.25 36.034374Q333.875 35.20625 333.875 33.7375L333.875 27.175L336.625 27.175L336.625 31.940624Q336.625 34.128124 336.76562 34.628124Q336.92188 35.1125 337.3125 35.409374Q337.71875 35.690624 338.34375 35.690624Q339.04688 35.690624 339.59375 35.315624Q340.15625 34.925 340.35938 34.3625Q340.5625 33.784374 340.5625 31.55L340.5625 27.175L343.3125 27.175L343.3125 37.55L340.76562 37.55ZM345.9375 37.55L345.9375 23.2375L348.6875 23.2375L348.6875 37.55L345.9375 37.55ZM360.45312 37.55L357.90625 37.55L357.90625 36.01875Q357.26562 36.909374 356.39062 37.346874Q355.53125 37.784374 354.65625 37.784374Q352.875 37.784374 351.59375 36.346874Q350.32812 34.909374 350.32812 32.33125Q350.32812 29.690624 351.5625 28.315624Q352.79688 26.940624 354.70312 26.940624Q356.4375 26.940624 357.70312 28.39375L357.70312 23.2375L360.45312 23.2375L360.45312 37.55ZM353.125 32.14375Q353.125 33.8 353.57812 34.534374Q354.25 35.6125 355.4375 35.6125Q356.39062 35.6125 357.04688 34.815624Q357.71875 34.003124 357.71875 32.409374Q357.71875 30.6125 357.0625 29.83125Q356.42188 29.05 355.42188 29.05Q354.4375 29.05 353.78125 29.83125Q353.125 30.596874 353.125 32.14375ZM367.64062 27.175L370.5625 27.175L373.03125 34.534374L375.45312 27.175L378.29688 27.175L374.64062 37.159374L373.98438 38.971874Q373.625 39.878124 373.29688 40.346874Q372.96875 40.83125 372.54688 41.128124Q372.125 41.425 371.5 41.58125Q370.875 41.753124 370.09375 41.753124Q369.3125 41.753124 368.54688 41.596874L368.29688 39.440624Q368.95312 39.565624 369.46875 39.565624Q370.42188 39.565624 370.875 39.003124Q371.34375 38.45625 371.57812 37.58125L367.64062 27.175ZM379.29688 32.221874Q379.29688 30.846874 379.96875 29.565624Q380.65625 28.284374 381.89062 27.6125Q383.125 26.940624 384.64062 26.940624Q387.0 26.940624 388.5 28.471874Q390.0 30.003124 390.0 32.33125Q390.0 34.690624 388.48438 36.2375Q386.96875 37.784374 384.65625 37.784374Q383.23438 37.784374 381.9375 37.14375Q380.65625 36.4875 379.96875 35.253124Q379.29688 34.003124 379.29688 32.221874ZM382.10938 32.3625Q382.10938 33.909374 382.84375 34.7375Q383.57812 35.55 384.65625 35.55Q385.73438 35.55 386.45312 34.7375Q387.1875 33.909374 387.1875 32.346874Q387.1875 30.815624 386.45312 30.003124Q385.73438 29.175 384.65625 29.175Q383.57812 29.175 382.84375 30.003124Q382.10938 30.815624 382.10938 32.3625ZM398.76562 37.55L398.76562 36.003124Q398.20312 36.83125 397.26562 37.315624Q396.34375 37.784374 395.32812 37.784374Q394.28125 37.784374 393.45312 37.33125Q392.625 36.8625 392.25 36.034374Q391.875 35.20625 391.875 33.7375L391.875 27.175L394.625 27.175L394.625 31.940624Q394.625 34.128124 394.76562 34.628124Q394.92188 35.1125 395.3125 35.409374Q395.71875 35.690624 396.34375 35.690624Q397.04688 35.690624 397.59375 35.315624Q398.15625 34.925 398.35938 34.3625Q398.5625 33.784374 398.5625 31.55L398.5625 27.175L401.3125 27.175L401.3125 37.55L398.76562 37.55ZM409.9375 37.55L409.9375 23.2375L412.6875 23.2375L412.6875 37.55L409.9375 37.55ZM414.9375 25.76875L414.9375 23.2375L417.6875 23.2375L417.6875 25.76875L414.9375 25.76875ZM414.9375 37.55L414.9375 27.175L417.6875 27.175L417.6875 37.55L414.9375 37.55ZM419.84375 37.55L419.84375 23.2375L422.57812 23.2375L422.57812 30.83125L425.79688 27.175L429.17188 27.175L425.625 30.971874L429.42188 37.55L426.46875 37.55L423.85938 32.89375L422.57812 34.221874L422.57812 37.55L419.84375 37.55ZM436.9375 34.253124L439.67188 34.70625Q439.15625 36.20625 438.01562 37.003124Q436.875 37.784374 435.17188 37.784374Q432.45312 37.784374 431.15625 36.01875Q430.14062 34.596874 430.14062 32.440624Q430.14062 29.8625 431.48438 28.409374Q432.82812 26.940624 434.89062 26.940624Q437.20312 26.940624 438.53125 28.471874Q439.875 30.003124 439.82812 33.159374L432.95312 33.159374Q432.98438 34.378124 433.60938 35.065624Q434.25 35.7375 435.1875 35.7375Q435.84375 35.7375 436.28125 35.39375Q436.71875 35.034374 436.9375 34.253124ZM437.09375 31.471874Q437.0625 30.284374 436.46875 29.675Q435.89062 29.05 435.0625 29.05Q434.15625 29.05 433.57812 29.690624Q432.98438 30.346874 433.0 31.471874L437.09375 31.471874ZM452.6875 27.175L452.6875 29.3625L450.8125 29.3625L450.8125 33.55Q450.8125 34.815624 450.85938 35.034374Q450.92188 35.2375 451.10938 35.378124Q451.3125 35.503124 451.57812 35.503124Q451.95312 35.503124 452.6875 35.2375L452.92188 37.378124Q451.95312 37.784374 450.75 37.784374Q450.0 37.784374 449.40625 37.534374Q448.8125 37.284374 448.53125 36.89375Q448.26562 36.4875 448.15625 35.815624Q448.0625 35.346874 448.0625 33.89375L448.0625 29.3625L446.79688 29.3625L446.79688 27.175L448.0625 27.175L448.0625 25.1125L450.8125 23.51875L450.8125 27.175L452.6875 27.175ZM457.5625 37.55L454.8125 37.55L454.8125 27.175L457.375 27.175L457.375 28.659374Q458.01562 27.6125 458.53125 27.284374Q459.0625 26.940624 459.73438 26.940624Q460.67188 26.940624 461.53125 27.45625L460.6875 29.846874Q460.0 29.409374 459.40625 29.409374Q458.82812 29.409374 458.42188 29.721874Q458.01562 30.034374 457.78125 30.878124Q457.5625 31.70625 457.5625 34.346874L457.5625 37.55ZM461.64062 27.175L464.5625 27.175L467.03125 34.534374L469.45312 27.175L472.29688 27.175L468.64062 37.159374L467.98438 38.971874Q467.625 39.878124 467.29688 40.346874Q466.96875 40.83125 466.54688 41.128124Q466.125 41.425 465.5 41.58125Q464.875 41.753124 464.09375 41.753124Q463.3125 41.753124 462.54688 41.596874L462.29688 39.440624Q462.95312 39.565624 463.46875 39.565624Q464.42188 39.565624 464.875 39.003124Q465.34375 38.45625 465.57812 37.58125L461.64062 27.175ZM473.9375 25.76875L473.9375 23.2375L476.6875 23.2375L476.6875 25.76875L473.9375 25.76875ZM473.9375 37.55L473.9375 27.175L476.6875 27.175L476.6875 37.55L473.9375 37.55ZM488.375 37.55L485.625 37.55L485.625 32.253124Q485.625 30.58125 485.45312 30.096874Q485.28125 29.596874 484.875 29.33125Q484.48438 29.05 483.92188 29.05Q483.21875 29.05 482.64062 29.440624Q482.07812 29.83125 481.85938 30.471874Q481.65625 31.1125 481.65625 32.846874L481.65625 37.55L478.92188 37.55L478.92188 27.175L481.46875 27.175L481.46875 28.70625Q482.82812 26.940624 484.89062 26.940624Q485.79688 26.940624 486.54688 27.26875Q487.29688 27.596874 487.67188 28.1125Q488.0625 28.6125 488.21875 29.26875Q488.375 29.909374 488.375 31.096874L488.375 37.55ZM490.6875 38.2375L493.8125 38.6125Q493.89062 39.159374 494.17188 39.3625Q494.5625 39.659374 495.40625 39.659374Q496.48438 39.659374 497.01562 39.33125Q497.375 39.128124 497.5625 38.64375Q497.6875 38.3 497.6875 37.378124L497.6875 35.8625Q496.46875 37.55 494.59375 37.55Q492.5 37.55 491.28125 35.784374Q490.32812 34.378124 490.32812 32.3Q490.32812 29.690624 491.57812 28.315624Q492.82812 26.940624 494.70312 26.940624Q496.625 26.940624 497.875 28.628124L497.875 27.175L500.4375 27.175L500.4375 36.4875Q500.4375 38.315624 500.125 39.221874Q499.82812 40.14375 499.28125 40.659374Q498.73438 41.175 497.8125 41.45625Q496.90625 41.753124 495.51562 41.753124Q492.875 41.753124 491.76562 40.846874Q490.67188 39.95625 490.67188 38.565624Q490.67188 38.425 490.6875 38.2375ZM493.14062 32.14375Q493.14062 33.8 493.76562 34.565624Q494.40625 35.33125 495.34375 35.33125Q496.35938 35.33125 497.04688 34.55Q497.75 33.753124 497.75 32.221874Q497.75 30.6125 497.07812 29.83125Q496.42188 29.05 495.40625 29.05Q494.40625 29.05 493.76562 29.815624Q493.14062 30.58125 493.14062 32.14375ZM508.9375 25.76875L508.9375 23.2375L511.6875 23.2375L511.6875 25.76875L508.9375 25.76875ZM508.9375 37.55L508.9375 27.175L511.6875 27.175L511.6875 37.55L508.9375 37.55ZM518.6875 27.175L518.6875 29.3625L516.8125 29.3625L516.8125 33.55Q516.8125 34.815624 516.8594 35.034374Q516.9219 35.2375 517.1094 35.378124Q517.3125 35.503124 517.5781 35.503124Q517.9531 35.503124 518.6875 35.2375L518.9219 37.378124Q517.9531 37.784374 516.75 37.784374Q516.0 37.784374 515.40625 37.534374Q514.8125 37.284374 514.53125 36.89375Q514.2656 36.4875 514.15625 35.815624Q514.0625 35.346874 514.0625 33.89375L514.0625 29.3625L512.7969 29.3625L512.7969 27.175L514.0625 27.175L514.0625 25.1125L516.8125 23.51875L516.8125 27.175L518.6875 27.175ZM526.8281 33.8625L524.34375 33.8625Q524.3281 33.315624 524.3281 33.20625Q524.3281 31.9875 524.7344 31.20625Q525.1406 30.425 526.3281 29.45625Q527.53125 28.471874 527.7656 28.175Q528.1406 27.690624 528.1406 27.1125Q528.1406 26.315624 527.5 25.753124Q526.8594 25.175 525.7656 25.175Q524.71875 25.175 524.0156 25.76875Q523.3125 26.3625 523.0625 27.58125L520.53125 27.26875Q520.6406 25.534374 522.0156 24.315624Q523.40625 23.08125 525.65625 23.08125Q528.0156 23.08125 529.40625 24.315624Q530.8125 25.55 530.8125 27.190624Q530.8125 28.1125 530.2969 28.925Q529.78125 29.721874 528.1094 31.128124Q527.2344 31.846874 527.0156 32.284374Q526.8125 32.721874 526.8281 33.8625ZM524.34375 37.55L524.34375 34.8L527.09375 34.8L527.09375 37.55L524.34375 37.55Z" fill-rule="nonzero"/></svg>