<svg version="1.1" viewBox="0.0 0.0 600.0 371.0" fill="none" stroke="none" stroke-linecap="square" stroke-miterlimit="10" width="600" height="371" xmlns:xlink="http://www.w3.org/1999/xlink" xmlns="http://www.w3.org/2000/svg"><path fill="#ffffff" d="M0 0L600.0 0L600.0 371.0L0 371.0L0 0Z" fill-rule="nonzero"/><path fill="#00ffff" d="M300.0 106.722916C366.82715 106.722916 421.54874 143.90926 423.52905 190.66772L300.0 193.23125Z" fill-rule="nonzero"/><path fill="#ffff00" d="M177.77112 180.45859C186.808 138.08382 238.79381 106.722916 300.0 106.722916L300.0 193.23125Z" fill-rule="nonzero"/><path fill="#b30000" d="M423.58334 211.76875C423.58334 259.546 368.2532 298.27707 300.0 298.27707C231.74681 298.27707 176.41667 259.546 176.41667 211.76875L176.41667 193.23125C176.41667 241.00848 231.74681 279.7396 300.0 279.7396C368.2532 279.7396 423.58334 241.00848 423.58334 193.23125Z" fill-rule="nonzero"/><path fill="#ff0000" d="M423.52905 190.66772C424.9153 223.39922 399.78082 253.87314 358.593 269.39853C317.40512 284.92392 267.2245 282.83932 228.94893 264.01294C190.67337 245.18652 170.86424 212.84558 177.77112 180.45859L300.0 193.23125Z" fill-rule="nonzero"/><path fill="#000000" d="M342.8693 156.79245L342.8693 157.97995L336.2443 157.97995Q336.22867 157.54245 336.38492 157.12057Q336.65054 156.4487 337.19742 155.79245Q337.75992 155.1362 338.8068 154.27682Q340.44742 152.93307 341.00992 152.15182Q341.58804 151.37057 341.58804 150.66745Q341.58804 149.93307 341.0568 149.43307Q340.54117 148.93307 339.71304 148.93307Q338.82242 148.93307 338.27554 149.46432Q337.7443 149.99557 337.7443 150.9487L336.47867 150.80807Q336.60367 149.40182 337.44742 148.66745Q338.3068 147.91745 339.72867 147.91745Q341.1818 147.91745 342.00992 148.71432Q342.85367 149.5112 342.85367 150.6987Q342.85367 151.30807 342.60367 151.8862Q342.3693 152.46432 341.79117 153.10495Q341.22867 153.74557 339.90054 154.87057Q338.79117 155.79245 338.47867 156.1362Q338.16617 156.46432 337.96304 156.79245L342.8693 156.79245ZM348.35367 157.97995L348.35367 155.5737L343.9943 155.5737L343.9943 154.4487L348.57242 147.96432L349.57242 147.96432L349.57242 154.4487L350.9318 154.4487L350.9318 155.5737L349.57242 155.5737L349.57242 157.97995L348.35367 157.97995ZM348.35367 154.4487L348.35367 149.93307L345.21304 154.4487L348.35367 154.4487ZM353.08804 157.97995L353.08804 156.5737L354.4943 156.5737L354.4943 157.97995L353.08804 157.97995ZM356.40054 155.35495L357.69742 155.24557Q357.83804 156.18307 358.35367 156.66745Q358.88492 157.1362 359.6193 157.1362Q360.50992 157.1362 361.1193 156.46432Q361.7443 155.79245 361.7443 154.6987Q361.7443 153.6362 361.15054 153.02682Q360.5568 152.41745 359.60367 152.41745Q359.00992 152.41745 358.52554 152.6987Q358.0568 152.96432 357.77554 153.3862L356.6193 153.24557L357.58804 148.08932L362.57242 148.08932L362.57242 149.27682L358.57242 149.27682L358.04117 151.96432Q358.94742 151.33932 359.9318 151.33932Q361.2443 151.33932 362.13492 152.24557Q363.04117 153.15182 363.04117 154.58932Q363.04117 155.9487 362.25992 156.93307Q361.29117 158.15182 359.6193 158.15182Q358.25992 158.15182 357.38492 157.3862Q356.52554 156.62057 356.40054 155.35495ZM364.63492 150.37057Q364.63492 149.29245 365.16617 148.54245Q365.71304 147.79245 366.7443 147.79245Q367.6818 147.79245 368.29117 148.46432Q368.91617 149.1362 368.91617 150.43307Q368.91617 151.71432 368.29117 152.40182Q367.66617 153.08932 366.75992 153.08932Q365.85367 153.08932 365.2443 152.41745Q364.63492 151.72995 364.63492 150.37057ZM366.77554 148.6362Q366.32242 148.6362 366.00992 149.04245Q365.71304 149.43307 365.71304 150.47995Q365.71304 151.4487 366.00992 151.83932Q366.32242 152.22995 366.77554 152.22995Q367.2443 152.22995 367.54117 151.83932Q367.85367 151.4487 367.85367 150.3862Q367.85367 149.41745 367.54117 149.02682Q367.22867 148.6362 366.77554 148.6362ZM366.77554 158.35495L372.25992 147.79245L373.25992 147.79245L367.8068 158.35495L366.77554 158.35495ZM371.1193 155.62057Q371.1193 154.54245 371.65054 153.80807Q372.19742 153.05807 373.22867 153.05807Q374.16617 153.05807 374.79117 153.72995Q375.41617 154.40182 375.41617 155.6987Q375.41617 156.97995 374.79117 157.66745Q374.16617 158.35495 373.22867 158.35495Q372.32242 158.35495 371.71304 157.68307Q371.1193 156.99557 371.1193 155.62057ZM373.25992 153.90182Q372.79117 153.90182 372.4943 154.30807Q372.19742 154.6987 372.19742 155.74557Q372.19742 156.71432 372.4943 157.10495Q372.8068 157.49557 373.25992 157.49557Q373.72867 157.49557 374.02554 157.10495Q374.33804 156.71432 374.33804 155.65182Q374.33804 154.68307 374.02554 154.29245Q373.72867 153.90182 373.25992 153.90182Z" fill-rule="nonzero"/><path fill="#000000" d="M275.31808 257.65103L276.61496 257.54166Q276.75558 258.47916 277.2712 258.96353Q277.80246 259.43228 278.53683 259.43228Q279.42746 259.43228 280.03683 258.7604Q280.66183 258.08853 280.66183 256.99478Q280.66183 255.93228 280.06808 255.3229Q279.47433 254.71353 278.5212 254.71353Q277.92746 254.71353 277.44308 254.99478Q276.97433 255.2604 276.69308 255.68228L275.53683 255.54166L276.50558 250.3854L281.48996 250.3854L281.48996 251.5729L277.48996 251.5729L276.9587 254.2604Q277.86496 253.6354 278.84933 253.6354Q280.16183 253.6354 281.05246 254.54166Q281.9587 255.4479 281.9587 256.8854Q281.9587 258.24478 281.17746 259.22916Q280.2087 260.4479 278.53683 260.4479Q277.17746 260.4479 276.30246 259.68228Q275.44308 258.91666 275.31808 257.65103ZM289.78683 259.08853L289.78683 260.27603L283.16183 260.27603Q283.1462 259.83853 283.30246 259.41666Q283.56808 258.74478 284.11496 258.08853Q284.67746 257.43228 285.72433 256.5729Q287.36496 255.22916 287.92746 254.4479Q288.50558 253.66666 288.50558 252.96353Q288.50558 252.22916 287.97433 251.72916Q287.4587 251.22916 286.63058 251.22916Q285.73996 251.22916 285.19308 251.7604Q284.66183 252.29166 284.66183 253.24478L283.3962 253.10416Q283.5212 251.6979 284.36496 250.96353Q285.22433 250.21353 286.6462 250.21353Q288.09933 250.21353 288.92746 251.0104Q289.7712 251.80728 289.7712 252.99478Q289.7712 253.60416 289.5212 254.18228Q289.28683 254.7604 288.7087 255.40103Q288.1462 256.04166 286.81808 257.16666Q285.7087 258.08853 285.3962 258.43228Q285.0837 258.7604 284.88058 259.08853L289.78683 259.08853ZM292.00558 260.27603L292.00558 258.86978L293.41183 258.86978L293.41183 260.27603L292.00558 260.27603ZM297.2087 254.83853Q296.44308 254.55728 296.06808 254.04166Q295.7087 253.52603 295.7087 252.79166Q295.7087 251.6979 296.48996 250.96353Q297.28683 250.21353 298.5837 250.21353Q299.8962 250.21353 300.69308 250.97916Q301.50558 251.74478 301.50558 252.83853Q301.50558 253.52603 301.13058 254.04166Q300.7712 254.55728 300.0212 254.83853Q300.94308 255.1354 301.42746 255.80728Q301.91183 256.47916 301.91183 257.41666Q301.91183 258.6979 301.00558 259.5729Q300.09933 260.4479 298.61496 260.4479Q297.13058 260.4479 296.2087 259.5729Q295.30246 258.68228 295.30246 257.36978Q295.30246 256.40103 295.80246 255.74478Q296.30246 255.0729 297.2087 254.83853ZM296.97433 252.7604Q296.97433 253.46353 297.42746 253.91666Q297.88058 254.36978 298.61496 254.36978Q299.3337 254.36978 299.78683 253.93228Q300.23996 253.47916 300.23996 252.8229Q300.23996 252.15103 299.7712 251.6979Q299.30246 251.22916 298.59933 251.22916Q297.8962 251.22916 297.42746 251.68228Q296.97433 252.11978 296.97433 252.7604ZM296.56808 257.3854Q296.56808 257.91666 296.81808 258.41666Q297.06808 258.90103 297.55246 259.16666Q298.05246 259.43228 298.63058 259.43228Q299.50558 259.43228 300.06808 258.86978Q300.6462 258.30728 300.6462 257.43228Q300.6462 256.54166 300.05246 255.96353Q299.47433 255.36978 298.5837 255.36978Q297.7087 255.36978 297.13058 255.9479Q296.56808 256.52603 296.56808 257.3854ZM303.55246 252.66666Q303.55246 251.58853 304.0837 250.83853Q304.63058 250.08853 305.66183 250.08853Q306.59933 250.08853 307.2087 250.7604Q307.8337 251.43228 307.8337 252.72916Q307.8337 254.0104 307.2087 254.6979Q306.5837 255.3854 305.67746 255.3854Q304.7712 255.3854 304.16183 254.71353Q303.55246 254.02603 303.55246 252.66666ZM305.69308 250.93228Q305.23996 250.93228 304.92746 251.33853Q304.63058 251.72916 304.63058 252.77603Q304.63058 253.74478 304.92746 254.1354Q305.23996 254.52603 305.69308 254.52603Q306.16183 254.52603 306.4587 254.1354Q306.7712 253.74478 306.7712 252.68228Q306.7712 251.71353 306.4587 251.3229Q306.1462 250.93228 305.69308 250.93228ZM305.69308 260.65103L311.17746 250.08853L312.17746 250.08853L306.72433 260.65103L305.69308 260.65103ZM310.03683 257.91666Q310.03683 256.83853 310.56808 256.10416Q311.11496 255.35416 312.1462 255.35416Q313.0837 255.35416 313.7087 256.02603Q314.3337 256.6979 314.3337 257.99478Q314.3337 259.27603 313.7087 259.96353Q313.0837 260.65103 312.1462 260.65103Q311.23996 260.65103 310.63058 259.97916Q310.03683 259.29166 310.03683 257.91666ZM312.17746 256.1979Q311.7087 256.1979 311.41183 256.60416Q311.11496 256.99478 311.11496 258.04166Q311.11496 259.0104 311.41183 259.40103Q311.72433 259.79166 312.17746 259.79166Q312.6462 259.79166 312.94308 259.40103Q313.25558 259.0104 313.25558 257.9479Q313.25558 256.97916 312.94308 256.58853Q312.6462 256.1979 312.17746 256.1979Z" fill-rule="nonzero"/><path fill="#000000" d="M234.62228 154.46162L234.62228 155.64912L227.99728 155.64912Q227.98166 155.21162 228.13791 154.78975Q228.40353 154.11787 228.95041 153.46162Q229.51291 152.80537 230.55978 151.946Q232.20041 150.60225 232.76291 149.821Q233.34103 149.03975 233.34103 148.33662Q233.34103 147.60225 232.80978 147.10225Q232.29416 146.60225 231.46603 146.60225Q230.57541 146.60225 230.02853 147.1335Q229.49728 147.66475 229.49728 148.61787L228.23166 148.47725Q228.35666 147.071 229.20041 146.33662Q230.05978 145.58662 231.48166 145.58662Q232.93478 145.58662 233.76291 146.3835Q234.60666 147.18037 234.60666 148.36787Q234.60666 148.97725 234.35666 149.55537Q234.12228 150.1335 233.54416 150.77412Q232.98166 151.41475 231.65353 152.53975Q230.54416 153.46162 230.23166 153.80537Q229.91916 154.1335 229.71603 154.46162L234.62228 154.46162ZM242.62228 154.46162L242.62228 155.64912L235.99728 155.64912Q235.98166 155.21162 236.13791 154.78975Q236.40353 154.11787 236.95041 153.46162Q237.51291 152.80537 238.55978 151.946Q240.20041 150.60225 240.76291 149.821Q241.34103 149.03975 241.34103 148.33662Q241.34103 147.60225 240.80978 147.10225Q240.29416 146.60225 239.46603 146.60225Q238.57541 146.60225 238.02853 147.1335Q237.49728 147.66475 237.49728 148.61787L236.23166 148.47725Q236.35666 147.071 237.20041 146.33662Q238.05978 145.58662 239.48166 145.58662Q240.93478 145.58662 241.76291 146.3835Q242.60666 147.18037 242.60666 148.36787Q242.60666 148.97725 242.35666 149.55537Q242.12228 150.1335 241.54416 150.77412Q240.98166 151.41475 239.65353 152.53975Q238.54416 153.46162 238.23166 153.80537Q237.91916 154.1335 237.71603 154.46162L242.62228 154.46162ZM244.84103 155.64912L244.84103 154.24287L246.24728 154.24287L246.24728 155.64912L244.84103 155.64912ZM254.54416 148.08662L253.32541 148.18037Q253.15353 147.446 252.85666 147.11787Q252.35666 146.60225 251.62228 146.60225Q251.02853 146.60225 250.59103 146.93037Q250.01291 147.35225 249.66916 148.16475Q249.34103 148.97725 249.32541 150.47725Q249.76291 149.80537 250.40353 149.47725Q251.05978 149.14912 251.76291 149.14912Q252.99728 149.14912 253.85666 150.05537Q254.71603 150.96162 254.71603 152.39912Q254.71603 153.33662 254.30978 154.14912Q253.90353 154.96162 253.18478 155.39912Q252.48166 155.821 251.57541 155.821Q250.04416 155.821 249.07541 154.696Q248.10666 153.55537 248.10666 150.96162Q248.10666 148.05537 249.16916 146.72725Q250.10666 145.58662 251.70041 145.58662Q252.88791 145.58662 253.63791 146.2585Q254.38791 146.91475 254.54416 148.08662ZM249.51291 152.39912Q249.51291 153.03975 249.77853 153.61787Q250.05978 154.196 250.54416 154.5085Q251.02853 154.80537 251.55978 154.80537Q252.34103 154.80537 252.90353 154.18037Q253.46603 153.55537 253.46603 152.47725Q253.46603 151.43037 252.90353 150.83662Q252.35666 150.22725 251.51291 150.22725Q250.68478 150.22725 250.09103 150.83662Q249.51291 151.43037 249.51291 152.39912ZM256.3879 148.03975Q256.3879 146.96162 256.91916 146.21162Q257.46603 145.46162 258.49728 145.46162Q259.43478 145.46162 260.04416 146.1335Q260.66916 146.80537 260.66916 148.10225Q260.66916 149.3835 260.04416 150.071Q259.41916 150.7585 258.5129 150.7585Q257.60666 150.7585 256.99728 150.08662Q256.3879 149.39912 256.3879 148.03975ZM258.52853 146.30537Q258.0754 146.30537 257.7629 146.71162Q257.46603 147.10225 257.46603 148.14912Q257.46603 149.11787 257.7629 149.5085Q258.0754 149.89912 258.52853 149.89912Q258.99728 149.89912 259.29416 149.5085Q259.60666 149.11787 259.60666 148.05537Q259.60666 147.08662 259.29416 146.696Q258.98166 146.30537 258.52853 146.30537ZM258.52853 156.02412L264.0129 145.46162L265.0129 145.46162L259.55978 156.02412L258.52853 156.02412ZM262.87228 153.28975Q262.87228 152.21162 263.40353 151.47725Q263.9504 150.72725 264.98166 150.72725Q265.91916 150.72725 266.54416 151.39912Q267.16916 152.071 267.16916 153.36787Q267.16916 154.64912 266.54416 155.33662Q265.91916 156.02412 264.98166 156.02412Q264.0754 156.02412 263.46603 155.35225Q262.87228 154.66475 262.87228 153.28975ZM265.0129 151.571Q264.54416 151.571 264.24728 151.97725Q263.9504 152.36787 263.9504 153.41475Q263.9504 154.3835 264.24728 154.77412Q264.55978 155.16475 265.0129 155.16475Q265.48166 155.16475 265.77853 154.77412Q266.09103 154.3835 266.09103 153.321Q266.09103 152.35225 265.77853 151.96162Q265.48166 151.571 265.0129 151.571Z" fill-rule="nonzero"/><path fill="#00ffff" d="M227.0 345.45C227.0 348.7637 224.3137 351.45 221.0 351.45C217.6863 351.45 215.0 348.7637 215.0 345.45C215.0 342.1363 217.6863 339.45 221.0 339.45C224.3137 339.45 227.0 342.1363 227.0 345.45Z" fill-rule="nonzero"/><path fill="#1a1a1a" d="M241.5625 340.85626L242.70312 340.85626L242.70312 345.825Q242.70312 347.1219 242.40625 347.8875Q242.10938 348.6375 241.34375 349.1219Q240.57812 349.59064 239.34375 349.59064Q238.14062 349.59064 237.35938 349.1844Q236.59375 348.7625 236.26562 347.98126Q235.9375 347.1844 235.9375 345.825L235.9375 340.85626L237.07812 340.85626L237.07812 345.8094Q237.07812 346.9344 237.28125 347.46564Q237.5 347.9969 238.0 348.29376Q238.51562 348.575 239.25 348.575Q240.5 348.575 241.03125 348.0125Q241.5625 347.4344 241.5625 345.8094L241.5625 340.85626ZM244.79688 349.45L244.79688 343.23126L245.73438 343.23126L245.73438 344.10626Q246.42188 343.09064 247.71875 343.09064Q248.28125 343.09064 248.75 343.29376Q249.23438 343.4969 249.46875 343.825Q249.70312 344.15314 249.79688 344.59064Q249.84375 344.8875 249.84375 345.6219L249.84375 349.45L248.79688 349.45L248.79688 345.66876Q248.79688 345.0125 248.67188 344.7Q248.54688 344.3875 248.23438 344.2Q247.92188 343.9969 247.5 343.9969Q246.82812 343.9969 246.32812 344.4344Q245.84375 344.85626 245.84375 346.04376L245.84375 349.45L244.79688 349.45ZM251.375 347.59064L252.40625 347.4344Q252.5 348.0594 252.89062 348.3875Q253.29688 348.71564 254.03125 348.71564Q254.75 348.71564 255.09375 348.4344Q255.45312 348.1375 255.45312 347.73126Q255.45312 347.3719 255.14062 347.16876Q254.92188 347.02814 254.0625 346.8094Q252.90625 346.5125 252.45312 346.3094Q252.01562 346.09064 251.78125 345.71564Q251.54688 345.34064 251.54688 344.8719Q251.54688 344.46564 251.73438 344.10626Q251.92188 343.7469 252.25 343.5125Q252.5 343.34064 252.92188 343.21564Q253.34375 343.09064 253.84375 343.09064Q254.5625 343.09064 255.10938 343.3094Q255.67188 343.5125 255.9375 343.8719Q256.20312 344.23126 256.29688 344.825L255.26562 344.96564Q255.20312 344.4969 254.85938 344.23126Q254.53125 343.95 253.90625 343.95Q253.1875 343.95 252.875 344.2Q252.5625 344.4344 252.5625 344.7625Q252.5625 344.96564 252.6875 345.1219Q252.82812 345.29376 253.09375 345.40314Q253.25 345.46564 254.03125 345.66876Q255.15625 345.98126 255.59375 346.16876Q256.03125 346.35626 256.28125 346.71564Q256.53125 347.075 256.53125 347.6219Q256.53125 348.15314 256.21875 348.6219Q255.92188 349.075 255.34375 349.34064Q254.76562 349.59064 254.03125 349.59064Q252.8125 349.59064 252.17188 349.09064Q251.54688 348.575 251.375 347.59064ZM262.875 349.45L262.875 348.52814Q262.14062 349.59064 260.89062 349.59064Q260.34375 349.59064 259.85938 349.3875Q259.39062 349.16876 259.15625 348.85626Q258.92188 348.52814 258.82812 348.0594Q258.76562 347.7625 258.76562 347.075L258.76562 343.23126L259.82812 343.23126L259.82812 346.6844Q259.82812 347.4969 259.89062 347.79376Q259.98438 348.2 260.29688 348.45Q260.625 348.6844 261.10938 348.6844Q261.57812 348.6844 261.98438 348.45Q262.40625 348.2 262.57812 347.77814Q262.76562 347.35626 262.76562 346.5594L262.76562 343.23126L263.8125 343.23126L263.8125 349.45L262.875 349.45ZM265.78125 349.45L265.78125 343.23126L266.73438 343.23126L266.73438 344.16876Q267.09375 343.5125 267.39062 343.3094Q267.70312 343.09064 268.07812 343.09064Q268.60938 343.09064 269.15625 343.41876L268.79688 344.40314Q268.40625 344.16876 268.03125 344.16876Q267.67188 344.16876 267.39062 344.3875Q267.125 344.59064 267.01562 344.96564Q266.82812 345.52814 266.82812 346.1844L266.82812 349.45L265.78125 349.45ZM274.04688 347.45L275.14062 347.575Q274.89062 348.52814 274.1875 349.0594Q273.48438 349.59064 272.40625 349.59064Q271.04688 349.59064 270.23438 348.7469Q269.4375 347.90314 269.4375 346.3875Q269.4375 344.825 270.25 343.96564Q271.0625 343.09064 272.34375 343.09064Q273.59375 343.09064 274.375 343.9344Q275.17188 344.77814 275.17188 346.325Q275.17188 346.41876 275.17188 346.60626L270.53125 346.60626Q270.59375 347.6375 271.10938 348.1844Q271.625 348.71564 272.40625 348.71564Q272.98438 348.71564 273.39062 348.41876Q273.8125 348.10626 274.04688 347.45ZM270.59375 345.7469L274.0625 345.7469Q274.0 344.95 273.67188 344.5594Q273.15625 343.95 272.35938 343.95Q271.625 343.95 271.125 344.4344Q270.64062 344.91876 270.59375 345.7469Z" fill-rule="nonzero"/><path fill="#ff0000" d="M304.0 345.45C304.0 348.7637 301.31372 351.45 298.0 351.45C294.68628 351.45 292.0 348.7637 292.0 345.45C292.0 342.1363 294.68628 339.45 298.0 339.45C301.31372 339.45 304.0 342.1363 304.0 345.45Z" fill-rule="nonzero"/><path fill="#1a1a1a" d="M315.34375 349.45L315.34375 345.8094L312.03125 340.85626L313.42188 340.85626L315.10938 343.45Q315.57812 344.16876 315.98438 344.90314Q316.375 344.23126 316.92188 343.3875L318.59375 340.85626L319.90625 340.85626L316.48438 345.8094L316.48438 349.45L315.34375 349.45ZM324.04688 347.45L325.14062 347.575Q324.89062 348.52814 324.1875 349.0594Q323.48438 349.59064 322.40625 349.59064Q321.04688 349.59064 320.23438 348.7469Q319.4375 347.90314 319.4375 346.3875Q319.4375 344.825 320.25 343.96564Q321.0625 343.09064 322.34375 343.09064Q323.59375 343.09064 324.375 343.9344Q325.17188 344.77814 325.17188 346.325Q325.17188 346.41876 325.17188 346.60626L320.53125 346.60626Q320.59375 347.6375 321.10938 348.1844Q321.625 348.71564 322.40625 348.71564Q322.98438 348.71564 323.39062 348.41876Q323.8125 348.10626 324.04688 347.45ZM320.59375 345.7469L324.0625 345.7469Q324.0 344.95 323.67188 344.5594Q323.15625 343.95 322.35938 343.95Q321.625 343.95 321.125 344.4344Q320.64062 344.91876 320.59375 345.7469ZM326.375 347.59064L327.40625 347.4344Q327.5 348.0594 327.89062 348.3875Q328.29688 348.71564 329.03125 348.71564Q329.75 348.71564 330.09375 348.4344Q330.45312 348.1375 330.45312 347.73126Q330.45312 347.3719 330.14062 347.16876Q329.92188 347.02814 329.0625 346.8094Q327.90625 346.5125 327.45312 346.3094Q327.01562 346.09064 326.78125 345.71564Q326.54688 345.34064 326.54688 344.8719Q326.54688 344.46564 326.73438 344.10626Q326.92188 343.7469 327.25 343.5125Q327.5 343.34064 327.92188 343.21564Q328.34375 343.09064 328.84375 343.09064Q329.5625 343.09064 330.10938 343.3094Q330.67188 343.5125 330.9375 343.8719Q331.20312 344.23126 331.29688 344.825L330.26562 344.96564Q330.20312 344.4969 329.85938 344.23126Q329.53125 343.95 328.90625 343.95Q328.1875 343.95 327.875 344.2Q327.5625 344.4344 327.5625 344.7625Q327.5625 344.96564 327.6875 345.1219Q327.82812 345.29376 328.09375 345.40314Q328.25 345.46564 329.03125 345.66876Q330.15625 345.98126 330.59375 346.16876Q331.03125 346.35626 331.28125 346.71564Q331.53125 347.075 331.53125 347.6219Q331.53125 348.15314 331.21875 348.6219Q330.92188 349.075 330.34375 349.34064Q329.76562 349.59064 329.03125 349.59064Q327.8125 349.59064 327.17188 349.09064Q326.54688 348.575 326.375 347.59064Z" fill-rule="nonzero"/><path fill="#ffff00" d="M361.0 345.45C361.0 348.7637 358.31372 351.45 355.0 351.45C351.68628 351.45 349.0 348.7637 349.0 345.45C349.0 342.1363 351.68628 339.45 355.0 339.45C358.31372 339.45 361.0 342.1363 361.0 345.45Z" fill-rule="nonzero"/><path fill="#1a1a1a" d="M369.92188 349.45L369.92188 340.85626L371.07812 340.85626L375.59375 347.60626L375.59375 340.85626L376.6875 340.85626L376.6875 349.45L375.51562 349.45L371.0 342.7L371.0 349.45L369.92188 349.45ZM378.40625 346.34064Q378.40625 344.60626 379.35938 343.77814Q380.15625 343.09064 381.3125 343.09064Q382.59375 343.09064 383.40625 343.9344Q384.23438 344.7625 384.23438 346.2469Q384.23438 347.45 383.875 348.1375Q383.51562 348.825 382.8125 349.21564Q382.125 349.59064 381.3125 349.59064Q380.01562 349.59064 379.20312 348.7625Q378.40625 347.91876 378.40625 346.34064ZM379.48438 346.34064Q379.48438 347.52814 380.0 348.1219Q380.53125 348.71564 381.3125 348.71564Q382.10938 348.71564 382.625 348.1219Q383.14062 347.52814 383.14062 346.3094Q383.14062 345.15314 382.60938 344.5594Q382.09375 343.96564 381.3125 343.96564Q380.53125 343.96564 380.0 344.5594Q379.48438 345.1375 379.48438 346.34064Z" fill-rule="nonzero"/><path fill="#000000" d="M41.453125 23.2375L46.734375 23.2375Q48.515625 23.2375 49.453125 23.503124Q50.71875 23.878124 51.609375 24.83125Q52.515625 25.76875 52.984375 27.14375Q53.453125 28.51875 53.453125 30.534374Q53.453125 32.3 53.015625 33.58125Q52.46875 35.14375 51.46875 36.096874Q50.71875 36.83125 49.4375 37.253124Q48.484375 37.55 46.890625 37.55L41.453125 37.55L41.453125 23.2375ZM44.34375 25.659374L44.34375 35.14375L46.5 35.14375Q47.703125 35.14375 48.25 35.003124Q48.953125 34.83125 49.40625 34.409374Q49.875 33.9875 50.15625 33.034374Q50.453125 32.065624 50.453125 30.39375Q50.453125 28.7375 50.15625 27.846874Q49.875 26.95625 49.34375 26.471874Q48.8125 25.971874 48.015625 25.784374Q47.40625 25.659374 45.640625 25.659374L44.34375 25.659374ZM55.4375 25.76875L55.4375 23.2375L58.1875 23.2375L58.1875 25.76875L55.4375 25.76875ZM55.4375 37.55L55.4375 27.175L58.1875 27.175L58.1875 37.55L55.4375 37.55ZM69.953125 37.55L67.40625 37.55L67.40625 36.01875Q66.765625 36.909374 65.890625 37.346874Q65.03125 37.784374 64.15625 37.784374Q62.375 37.784374 61.09375 36.346874Q59.828125 34.909374 59.828125 32.33125Q59.828125 29.690624 61.0625 28.315624Q62.296875 26.940624 64.203125 26.940624Q65.9375 26.940624 67.203125 28.39375L67.203125 23.2375L69.953125 23.2375L69.953125 37.55ZM62.625 32.14375Q62.625 33.8 63.078125 34.534374Q63.75 35.6125 64.9375 35.6125Q65.890625 35.6125 66.546875 34.815624Q67.21875 34.003124 67.21875 32.409374Q67.21875 30.6125 66.5625 29.83125Q65.921875 29.05 64.921875 29.05Q63.9375 29.05 63.28125 29.83125Q62.625 30.596874 62.625 32.14375ZM83.1875 27.175L83.1875 29.3625L81.3125 29.3625L81.3125 33.55Q81.3125 34.815624 81.359375 35.034374Q81.421875 35.2375 81.609375 35.378124Q81.8125 35.503124 82.078125 35.503124Q82.453125 35.503124 83.1875 35.2375L83.421875 37.378124Q82.453125 37.784374 81.25 37.784374Q80.5 37.784374 79.90625 37.534374Q79.3125 37.284374 79.03125 36.89375Q78.765625 36.4875 78.65625 35.815624Q78.5625 35.346874 78.5625 33.89375L78.5625 29.3625L77.296875 29.3625L77.296875 27.175L78.5625 27.175L78.5625 25.1125L81.3125 23.51875L81.3125 27.175L83.1875 27.175ZM88.171875 23.2375L88.171875 28.503124Q89.5 26.940624 91.34375 26.940624Q92.296875 26.940624 93.046875 27.3Q93.8125 27.64375 94.203125 28.190624Q94.59375 28.7375 94.734375 29.409374Q94.875 30.065624 94.875 31.471874L94.875 37.55L92.125 37.55L92.125 32.065624Q92.125 30.440624 91.96875 30.003124Q91.8125 29.565624 91.40625 29.315624Q91.015625 29.05 90.421875 29.05Q89.75 29.05 89.203125 29.378124Q88.671875 29.70625 88.421875 30.378124Q88.171875 31.05 88.171875 32.346874L88.171875 37.55L85.421875 37.55L85.421875 23.2375L88.171875 23.2375ZM103.4375 34.253124L106.171875 34.70625Q105.65625 36.20625 104.515625 37.003124Q103.375 37.784374 101.671875 37.784374Q98.953125 37.784374 97.65625 36.01875Q96.640625 34.596874 96.640625 32.440624Q96.640625 29.8625 97.984375 28.409374Q99.328125 26.940624 101.390625 26.940624Q103.703125 26.940624 105.03125 28.471874Q106.375 30.003124 106.328125 33.159374L99.453125 33.159374Q99.484375 34.378124 100.109375 35.065624Q100.75 35.7375 101.6875 35.7375Q102.34375 35.7375 102.78125 35.39375Q103.21875 35.034374 103.4375 34.253124ZM103.59375 31.471874Q103.5625 30.284374 102.96875 29.675Q102.390625 29.05 101.5625 29.05Q100.65625 29.05 100.078125 29.690624Q99.484375 30.346874 99.5 31.471874L103.59375 31.471874ZM123.875 37.55L121.125 37.55L121.125 32.253124Q121.125 30.58125 120.953125 30.096874Q120.78125 29.596874 120.375 29.33125Q119.984375 29.05 119.421875 29.05Q118.71875 29.05 118.140625 29.440624Q117.578125 29.83125 117.359375 30.471874Q117.15625 31.1125 117.15625 32.846874L117.15625 37.55L114.421875 37.55L114.421875 27.175L116.96875 27.175L116.96875 28.70625Q118.328125 26.940624 120.390625 26.940624Q121.296875 26.940624 122.046875 27.26875Q122.796875 27.596874 123.171875 28.1125Q123.5625 28.6125 123.71875 29.26875Q123.875 29.909374 123.875 31.096874L123.875 37.55ZM132.4375 34.253124L135.17188 34.70625Q134.65625 36.20625 133.51562 37.003124Q132.375 37.784374 130.67188 37.784374Q127.953125 37.784374 126.65625 36.01875Q125.640625 34.596874 125.640625 32.440624Q125.640625 29.8625 126.984375 28.409374Q128.32812 26.940624 130.39062 26.940624Q132.70312 26.940624 134.03125 28.471874Q135.375 30.003124 135.32812 33.159374L128.45312 33.159374Q128.48438 34.378124 129.10938 35.065624Q129.75 35.7375 130.6875 35.7375Q131.34375 35.7375 131.78125 35.39375Q132.21875 35.034374 132.4375 34.253124ZM132.59375 31.471874Q132.5625 30.284374 131.96875 29.675Q131.39062 29.05 130.5625 29.05Q129.65625 29.05 129.07812 29.690624Q128.48438 30.346874 128.5 31.471874L132.59375 31.471874ZM139.375 37.55L136.09375 27.175L138.75 27.175L140.70312 33.971874L142.48438 27.175L145.125 27.175L146.85938 33.971874L148.84375 27.175L151.54688 27.175L148.21875 37.55L145.57812 37.55L143.79688 30.878124L142.03125 37.55L139.375 37.55ZM160.48438 30.346874L158.0 29.89375Q158.42188 28.39375 159.4375 27.675Q160.46875 26.940624 162.48438 26.940624Q164.32812 26.940624 165.21875 27.378124Q166.125 27.815624 166.48438 28.4875Q166.85938 29.14375 166.85938 30.940624L166.82812 34.14375Q166.82812 35.503124 166.95312 36.159374Q167.09375 36.8 167.45312 37.55L164.73438 37.55Q164.625 37.26875 164.46875 36.7375Q164.40625 36.4875 164.375 36.409374Q163.67188 37.096874 162.85938 37.440624Q162.0625 37.784374 161.15625 37.784374Q159.5625 37.784374 158.64062 36.925Q157.71875 36.05 157.71875 34.721874Q157.71875 33.83125 158.125 33.14375Q158.54688 32.45625 159.29688 32.096874Q160.0625 31.721874 161.5 31.45625Q163.42188 31.096874 164.15625 30.784374L164.15625 30.503124Q164.15625 29.721874 163.76562 29.39375Q163.375 29.05 162.29688 29.05Q161.5625 29.05 161.14062 29.33125Q160.73438 29.6125 160.48438 30.346874ZM164.15625 32.565624Q163.625 32.7375 162.48438 32.9875Q161.34375 33.2375 161.0 33.471874Q160.45312 33.846874 160.45312 34.440624Q160.45312 35.003124 160.875 35.425Q161.3125 35.846874 161.98438 35.846874Q162.71875 35.846874 163.39062 35.3625Q163.89062 34.9875 164.04688 34.45625Q164.15625 34.096874 164.15625 33.1125L164.15625 32.565624ZM169.4375 37.55L169.4375 23.2375L172.1875 23.2375L172.1875 37.55L169.4375 37.55ZM174.35938 27.175L176.92188 27.175L176.92188 28.70625Q177.42188 27.925 178.26562 27.440624Q179.10938 26.940624 180.15625 26.940624Q181.95312 26.940624 183.20312 28.3625Q184.46875 29.76875 184.46875 32.3Q184.46875 34.909374 183.20312 36.346874Q181.9375 37.784374 180.125 37.784374Q179.26562 37.784374 178.5625 37.440624Q177.875 37.096874 177.10938 36.26875L177.10938 41.503124L174.35938 41.503124L174.35938 27.175ZM177.07812 32.190624Q177.07812 33.940624 177.76562 34.784374Q178.45312 35.6125 179.45312 35.6125Q180.40625 35.6125 181.04688 34.846874Q181.6875 34.065624 181.6875 32.33125Q181.6875 30.690624 181.03125 29.909374Q180.375 29.1125 179.40625 29.1125Q178.40625 29.1125 177.73438 29.89375Q177.07812 30.659374 177.07812 32.190624ZM189.17188 23.2375L189.17188 28.503124Q190.5 26.940624 192.34375 26.940624Q193.29688 26.940624 194.04688 27.3Q194.8125 27.64375 195.20312 28.190624Q195.59375 28.7375 195.73438 29.409374Q195.875 30.065624 195.875 31.471874L195.875 37.55L193.125 37.55L193.125 32.065624Q193.125 30.440624 192.96875 30.003124Q192.8125 29.565624 192.40625 29.315624Q192.01562 29.05 191.42188 29.05Q190.75 29.05 190.20312 29.378124Q189.67188 29.70625 189.42188 30.378124Q189.17188 31.05 189.17188 32.346874L189.17188 37.55L186.42188 37.55L186.42188 23.2375L189.17188 23.2375ZM200.48438 30.346874L198.0 29.89375Q198.42188 28.39375 199.4375 27.675Q200.46875 26.940624 202.48438 26.940624Q204.32812 26.940624 205.21875 27.378124Q206.125 27.815624 206.48438 28.4875Q206.85938 29.14375 206.85938 30.940624L206.82812 34.14375Q206.82812 35.503124 206.95312 36.159374Q207.09375 36.8 207.45312 37.55L204.73438 37.55Q204.625 37.26875 204.46875 36.7375Q204.40625 36.4875 204.375 36.409374Q203.67188 37.096874 202.85938 37.440624Q202.0625 37.784374 201.15625 37.784374Q199.5625 37.784374 198.64062 36.925Q197.71875 36.05 197.71875 34.721874Q197.71875 33.83125 198.125 33.14375Q198.54688 32.45625 199.29688 32.096874Q200.0625 31.721874 201.5 31.45625Q203.42188 31.096874 204.15625 30.784374L204.15625 30.503124Q204.15625 29.721874 203.76562 29.39375Q203.375 29.05 202.29688 29.05Q201.5625 29.05 201.14062 29.33125Q200.73438 29.6125 200.48438 30.346874ZM204.15625 32.565624Q203.625 32.7375 202.48438 32.9875Q201.34375 33.2375 201.0 33.471874Q200.45312 33.846874 200.45312 34.440624Q200.45312 35.003124 200.875 35.425Q201.3125 35.846874 201.98438 35.846874Q202.71875 35.846874 203.39062 35.3625Q203.89062 34.9875 204.04688 34.45625Q204.15625 34.096874 204.15625 33.1125L204.15625 32.565624ZM209.3125 37.55L209.3125 23.2375L212.0625 23.2375L212.0625 28.39375Q213.32812 26.940624 215.07812 26.940624Q216.96875 26.940624 218.20312 28.315624Q219.45312 29.690624 219.45312 32.253124Q219.45312 34.909374 218.1875 36.346874Q216.92188 37.784374 215.10938 37.784374Q214.21875 37.784374 213.35938 37.346874Q212.5 36.89375 211.875 36.01875L211.875 37.55L209.3125 37.55ZM212.04688 32.14375Q212.04688 33.753124 212.54688 34.51875Q213.26562 35.6125 214.45312 35.6125Q215.35938 35.6125 216.0 34.846874Q216.64062 34.065624 216.64062 32.39375Q216.64062 30.6125 215.98438 29.83125Q215.34375 29.05 214.34375 29.05Q213.35938 29.05 212.70312 29.815624Q212.04688 30.58125 212.04688 32.14375ZM227.4375 34.253124L230.17188 34.70625Q229.65625 36.20625 228.51562 37.003124Q227.375 37.784374 225.67188 37.784374Q222.95312 37.784374 221.65625 36.01875Q220.64062 34.596874 220.64062 32.440624Q220.64062 29.8625 221.98438 28.409374Q223.32812 26.940624 225.39062 26.940624Q227.70312 26.940624 229.03125 28.471874Q230.375 30.003124 230.32812 33.159374L223.45312 33.159374Q223.48438 34.378124 224.10938 35.065624Q224.75 35.7375 225.6875 35.7375Q226.34375 35.7375 226.78125 35.39375Q227.21875 35.034374 227.4375 34.253124ZM227.59375 31.471874Q227.5625 30.284374 226.96875 29.675Q226.39062 29.05 225.5625 29.05Q224.65625 29.05 224.07812 29.690624Q223.48438 30.346874 223.5 31.471874L227.59375 31.471874ZM237.1875 27.175L237.1875 29.3625L235.3125 29.3625L235.3125 33.55Q235.3125 34.815624 235.35938 35.034374Q235.42188 35.2375 235.60938 35.378124Q235.8125 35.503124 236.07812 35.503124Q236.45312 35.503124 237.1875 35.2375L237.42188 37.378124Q236.45312 37.784374 235.25 37.784374Q234.5 37.784374 233.90625 37.534374Q233.3125 37.284374 233.03125 36.89375Q232.76562 36.4875 232.65625 35.815624Q232.5625 35.346874 232.5625 33.89375L232.5625 29.3625L231.29688 29.3625L231.29688 27.175L232.5625 27.175L232.5625 25.1125L235.3125 23.51875L235.3125 27.175L237.1875 27.175ZM244.46875 34.596874L247.21875 34.175Q247.40625 34.971874 247.9375 35.39375Q248.46875 35.8 249.4375 35.8Q250.5 35.8 251.04688 35.409374Q251.40625 35.14375 251.40625 34.675Q251.40625 34.3625 251.20312 34.159374Q251.0 33.971874 250.29688 33.8Q246.96875 33.065624 246.07812 32.45625Q244.84375 31.628124 244.84375 30.128124Q244.84375 28.784374 245.90625 27.8625Q246.98438 26.940624 249.21875 26.940624Q251.34375 26.940624 252.375 27.64375Q253.42188 28.33125 253.8125 29.690624L251.21875 30.159374Q251.04688 29.565624 250.57812 29.2375Q250.125 28.909374 249.26562 28.909374Q248.1875 28.909374 247.71875 29.221874Q247.40625 29.440624 247.40625 29.76875Q247.40625 30.065624 247.67188 30.26875Q248.04688 30.55 250.23438 31.05Q252.42188 31.55 253.29688 32.26875Q254.15625 33.003124 254.15625 34.3Q254.15625 35.7375 252.96875 36.76875Q251.78125 37.784374 249.4375 37.784374Q247.32812 37.784374 246.07812 36.925Q244.84375 36.065624 244.46875 34.596874ZM262.4375 34.253124L265.17188 34.70625Q264.65625 36.20625 263.51562 37.003124Q262.375 37.784374 260.67188 37.784374Q257.95312 37.784374 256.65625 36.01875Q255.64062 34.596874 255.64062 32.440624Q255.64062 29.8625 256.98438 28.409374Q258.32812 26.940624 260.39062 26.940624Q262.70312 26.940624 264.03125 28.471874Q265.375 30.003124 265.32812 33.159374L258.45312 33.159374Q258.48438 34.378124 259.10938 35.065624Q259.75 35.7375 260.6875 35.7375Q261.34375 35.7375 261.78125 35.39375Q262.21875 35.034374 262.4375 34.253124ZM262.59375 31.471874Q262.5625 30.284374 261.96875 29.675Q261.39062 29.05 260.5625 29.05Q259.65625 29.05 259.07812 29.690624Q258.48438 30.346874 258.5 31.471874L262.59375 31.471874ZM273.4375 34.253124L276.17188 34.70625Q275.65625 36.20625 274.51562 37.003124Q273.375 37.784374 271.67188 37.784374Q268.95312 37.784374 267.65625 36.01875Q266.64062 34.596874 266.64062 32.440624Q266.64062 29.8625 267.98438 28.409374Q269.32812 26.940624 271.39062 26.940624Q273.70312 26.940624 275.03125 28.471874Q276.375 30.003124 276.32812 33.159374L269.45312 33.159374Q269.48438 34.378124 270.10938 35.065624Q270.75 35.7375 271.6875 35.7375Q272.34375 35.7375 272.78125 35.39375Q273.21875 35.034374 273.4375 34.253124ZM273.59375 31.471874Q273.5625 30.284374 272.96875 29.675Q272.39062 29.05 271.5625 29.05Q270.65625 29.05 270.07812 29.690624Q269.48438 30.346874 269.5 31.471874L273.59375 31.471874ZM278.23438 27.175L280.76562 27.175L280.76562 28.596874Q282.125 26.940624 284.0 26.940624Q284.98438 26.940624 285.71875 27.3625Q286.45312 27.76875 286.92188 28.596874Q287.60938 27.76875 288.39062 27.3625Q289.1875 26.940624 290.09375 26.940624Q291.23438 26.940624 292.01562 27.409374Q292.8125 27.878124 293.20312 28.76875Q293.48438 29.440624 293.48438 30.925L293.48438 37.55L290.73438 37.55L290.73438 31.628124Q290.73438 30.08125 290.45312 29.628124Q290.07812 29.05 289.28125 29.05Q288.70312 29.05 288.1875 29.409374Q287.6875 29.753124 287.46875 30.425Q287.25 31.096874 287.25 32.565624L287.25 37.55L284.5 37.55L284.5 31.8625Q284.5 30.346874 284.34375 29.909374Q284.20312 29.471874 283.89062 29.26875Q283.59375 29.05 283.0625 29.05Q282.4375 29.05 281.92188 29.39375Q281.42188 29.721874 281.1875 30.378124Q280.96875 31.01875 280.96875 32.503124L280.96875 37.55L278.23438 37.55L278.23438 27.175ZM301.4375 25.76875L301.4375 23.2375L304.1875 23.2375L304.1875 25.76875L301.4375 25.76875ZM301.4375 37.55L301.4375 27.175L304.1875 27.175L304.1875 37.55L301.4375 37.55ZM315.875 37.55L313.125 37.55L313.125 32.253124Q313.125 30.58125 312.95312 30.096874Q312.78125 29.596874 312.375 29.33125Q311.98438 29.05 311.42188 29.05Q310.71875 29.05 310.14062 29.440624Q309.57812 29.83125 309.35938 30.471874Q309.15625 31.1125 309.15625 32.846874L309.15625 37.55L306.42188 37.55L306.42188 27.175L308.96875 27.175L308.96875 28.70625Q310.32812 26.940624 312.39062 26.940624Q313.29688 26.940624 314.04688 27.26875Q314.79688 27.596874 315.17188 28.1125Q315.5625 28.6125 315.71875 29.26875Q315.875 29.909374 315.875 31.096874L315.875 37.55ZM323.1875 27.175L323.1875 29.3625L321.3125 29.3625L321.3125 33.55Q321.3125 34.815624 321.35938 35.034374Q321.42188 35.2375 321.60938 35.378124Q321.8125 35.503124 322.07812 35.503124Q322.45312 35.503124 323.1875 35.2375L323.42188 37.378124Q322.45312 37.784374 321.25 37.784374Q320.5 37.784374 319.90625 37.534374Q319.3125 37.284374 319.03125 36.89375Q318.76562 36.4875 318.65625 35.815624Q318.5625 35.346874 318.5625 33.89375L318.5625 29.3625L317.29688 29.3625L317.29688 27.175L318.5625 27.175L318.5625 25.1125L321.3125 23.51875L321.3125 27.175L323.1875 27.175ZM332.26562 37.55L332.26562 36.003124Q331.70312 36.83125 330.76562 37.315624Q329.84375 37.784374 328.82812 37.784374Q327.78125 37.784374 326.95312 37.33125Q326.125 36.8625 325.75 36.034374Q325.375 35.20625 325.375 33.7375L325.375 27.175L328.125 27.175L328.125 31.940624Q328.125 34.128124 328.26562 34.628124Q328.42188 35.1125 328.8125 35.409374Q329.21875 35.690624 329.84375 35.690624Q330.54688 35.690624 331.09375 35.315624Q331.65625 34.925 331.85938 34.3625Q332.0625 33.784374 332.0625 31.55L332.0625 27.175L334.8125 27.175L334.8125 37.55L332.26562 37.55ZM337.4375 25.76875L337.4375 23.2375L340.1875 23.2375L340.1875 25.76875L337.4375 25.76875ZM337.4375 37.55L337.4375 27.175L340.1875 27.175L340.1875 37.55L337.4375 37.55ZM347.1875 27.175L347.1875 29.3625L345.3125 29.3625L345.3125 33.55Q345.3125 34.815624 345.35938 35.034374Q345.42188 35.2375 345.60938 35.378124Q345.8125 35.503124 346.07812 35.503124Q346.45312 35.503124 347.1875 35.2375L347.42188 37.378124Q346.45312 37.784374 345.25 37.784374Q344.5 37.784374 343.90625 37.534374Q343.3125 37.284374 343.03125 36.89375Q342.76562 36.4875 342.65625 35.815624Q342.5625 35.346874 342.5625 33.89375L342.5625 29.3625L341.29688 29.3625L341.29688 27.175L342.5625 27.175L342.5625 25.1125L345.3125 23.51875L345.3125 27.175L347.1875 27.175ZM349.4375 25.76875L349.4375 23.2375L352.1875 23.2375L352.1875 25.76875L349.4375 25.76875ZM349.4375 37.55L349.4375 27.175L352.1875 27.175L352.1875 37.55L349.4375 37.55ZM357.28125 37.55L353.10938 27.175L355.98438 27.175L357.9375 32.471874L358.51562 34.2375Q358.73438 33.565624 358.79688 33.346874Q358.92188 32.909374 359.07812 32.471874L361.0625 27.175L363.875 27.175L359.76562 37.55L357.28125 37.55ZM371.4375 34.253124L374.17188 34.70625Q373.65625 36.20625 372.51562 37.003124Q371.375 37.784374 369.67188 37.784374Q366.95312 37.784374 365.65625 36.01875Q364.64062 34.596874 364.64062 32.440624Q364.64062 29.8625 365.98438 28.409374Q367.32812 26.940624 369.39062 26.940624Q371.70312 26.940624 373.03125 28.471874Q374.375 30.003124 374.32812 33.159374L367.45312 33.159374Q367.48438 34.378124 368.10938 35.065624Q368.75 35.7375 369.6875 35.7375Q370.34375 35.7375 370.78125 35.39375Q371.21875 35.034374 371.4375 34.253124ZM371.59375 31.471874Q371.5625 30.284374 370.96875 29.675Q370.39062 29.05 369.5625 29.05Q368.65625 29.05 368.07812 29.690624Q367.48438 30.346874 367.5 31.471874L371.59375 31.471874ZM382.4375 25.76875L382.4375 23.2375L385.1875 23.2375L385.1875 25.76875L382.4375 25.76875ZM382.4375 37.55L382.4375 27.175L385.1875 27.175L385.1875 37.55L382.4375 37.55ZM396.875 37.55L394.125 37.55L394.125 32.253124Q394.125 30.58125 393.95312 30.096874Q393.78125 29.596874 393.375 29.33125Q392.98438 29.05 392.42188 29.05Q391.71875 29.05 391.14062 29.440624Q390.57812 29.83125 390.35938 30.471874Q390.15625 31.1125 390.15625 32.846874L390.15625 37.55L387.42188 37.55L387.42188 27.175L389.96875 27.175L389.96875 28.70625Q391.32812 26.940624 393.39062 26.940624Q394.29688 26.940624 395.04688 27.26875Q395.79688 27.596874 396.17188 28.1125Q396.5625 28.6125 396.71875 29.26875Q396.875 29.909374 396.875 31.096874L396.875 37.55ZM408.0625 37.55L405.3125 37.55L405.3125 27.175L407.875 27.175L407.875 28.659374Q408.51562 27.6125 409.03125 27.284374Q409.5625 26.940624 410.23438 26.940624Q411.17188 26.940624 412.03125 27.45625L411.1875 29.846874Q410.5 29.409374 409.90625 29.409374Q409.32812 29.409374 408.92188 29.721874Q408.51562 30.034374 408.28125 30.878124Q408.0625 31.70625 408.0625 34.346874L408.0625 37.55ZM419.4375 34.253124L422.17188 34.70625Q421.65625 36.20625 420.51562 37.003124Q419.375 37.784374 417.67188 37.784374Q414.95312 37.784374 413.65625 36.01875Q412.64062 34.596874 412.64062 32.440624Q412.64062 29.8625 413.98438 28.409374Q415.32812 26.940624 417.39062 26.940624Q419.70312 26.940624 421.03125 28.471874Q422.375 30.003124 422.32812 33.159374L415.45312 33.159374Q415.48438 34.378124 416.10938 35.065624Q416.75 35.7375 417.6875 35.7375Q418.34375 35.7375 418.78125 35.39375Q419.21875 35.034374 419.4375 34.253124ZM419.59375 31.471874Q419.5625 30.284374 418.96875 29.675Q418.39062 29.05 417.5625 29.05Q416.65625 29.05 416.07812 29.690624Q415.48438 30.346874 415.5 31.471874L419.59375 31.471874ZM424.35938 27.175L426.92188 27.175L426.92188 28.70625Q427.42188 27.925 428.26562 27.440624Q429.10938 26.940624 430.15625 26.940624Q431.95312 26.940624 433.20312 28.3625Q434.46875 29.76875 434.46875 32.3Q434.46875 34.909374 433.20312 36.346874Q431.9375 37.784374 430.125 37.784374Q429.26562 37.784374 428.5625 37.440624Q427.875 37.096874 427.10938 36.26875L427.10938 41.503124L424.35938 41.503124L424.35938 27.175ZM427.07812 32.190624Q427.07812 33.940624 427.76562 34.784374Q428.45312 35.6125 429.45312 35.6125Q430.40625 35.6125 431.04688 34.846874Q431.6875 34.065624 431.6875 32.33125Q431.6875 30.690624 431.03125 29.909374Q430.375 29.1125 429.40625 29.1125Q428.40625 29.1125 427.73438 29.89375Q427.07812 30.659374 427.07812 32.190624ZM439.0625 37.55L436.3125 37.55L436.3125 27.175L438.875 27.175L438.875 28.659374Q439.51562 27.6125 440.03125 27.284374Q440.5625 26.940624 441.23438 26.940624Q442.17188 26.940624 443.03125 27.45625L442.1875 29.846874Q441.5 29.409374 440.90625 29.409374Q440.32812 29.409374 439.92188 29.721874Q439.51562 30.034374 439.28125 30.878124Q439.0625 31.70625 439.0625 34.346874L439.0625 37.55ZM450.4375 34.253124L453.17188 34.70625Q452.65625 36.20625 451.51562 37.003124Q450.375 37.784374 448.67188 37.784374Q445.95312 37.784374 444.65625 36.01875Q443.64062 34.596874 443.64062 32.440624Q443.64062 29.8625 444.98438 28.409374Q446.32812 26.940624 448.39062 26.940624Q450.70312 26.940624 452.03125 28.471874Q453.375 30.003124 453.32812 33.159374L446.45312 33.159374Q446.48438 34.378124 447.10938 35.065624Q447.75 35.7375 448.6875 35.7375Q449.34375 35.7375 449.78125 35.39375Q450.21875 35.034374 450.4375 34.253124ZM450.59375 31.471874Q450.5625 30.284374 449.96875 29.675Q449.39062 29.05 448.5625 29.05Q447.65625 29.05 447.07812 29.690624Q446.48438 30.346874 446.5 31.471874L450.59375 31.471874ZM454.46875 34.596874L457.21875 34.175Q457.40625 34.971874 457.9375 35.39375Q458.46875 35.8 459.4375 35.8Q460.5 35.8 461.04688 35.409374Q461.40625 35.14375 461.40625 34.675Q461.40625 34.3625 461.20312 34.159374Q461.0 33.971874 460.29688 33.8Q456.96875 33.065624 456.07812 32.45625Q454.84375 31.628124 454.84375 30.128124Q454.84375 28.784374 455.90625 27.8625Q456.98438 26.940624 459.21875 26.940624Q461.34375 26.940624 462.375 27.64375Q463.42188 28.33125 463.8125 29.690624L461.21875 30.159374Q461.04688 29.565624 460.57812 29.2375Q460.125 28.909374 459.26562 28.909374Q458.1875 28.909374 457.71875 29.221874Q457.40625 29.440624 457.40625 29.76875Q457.40625 30.065624 457.67188 30.26875Q458.04688 30.55 460.23438 31.05Q462.42188 31.55 463.29688 32.26875Q464.15625 33.003124 464.15625 34.3Q464.15625 35.7375 462.96875 36.76875Q461.78125 37.784374 459.4375 37.784374Q457.32812 37.784374 456.07812 36.925Q454.84375 36.065624 454.46875 34.596874ZM472.4375 34.253124L475.17188 34.70625Q474.65625 36.20625 473.51562 37.003124Q472.375 37.784374 470.67188 37.784374Q467.95312 37.784374 466.65625 36.01875Q465.64062 34.596874 465.64062 32.440624Q465.64062 29.8625 466.98438 28.409374Q468.32812 26.940624 470.39062 26.940624Q472.70312 26.940624 474.03125 28.471874Q475.375 30.003124 475.32812 33.159374L468.45312 33.159374Q468.48438 34.378124 469.10938 35.065624Q469.75 35.7375 470.6875 35.7375Q471.34375 35.7375 471.78125 35.39375Q472.21875 35.034374 472.4375 34.253124ZM472.59375 31.471874Q472.5625 30.284374 471.96875 29.675Q471.39062 29.05 470.5625 29.05Q469.65625 29.05 469.07812 29.690624Q468.48438 30.346874 468.5 31.471874L472.59375 31.471874ZM486.875 37.55L484.125 37.55L484.125 32.253124Q484.125 30.58125 483.95312 30.096874Q483.78125 29.596874 483.375 29.33125Q482.98438 29.05 482.42188 29.05Q481.71875 29.05 481.14062 29.440624Q480.57812 29.83125 480.35938 30.471874Q480.15625 31.1125 480.15625 32.846874L480.15625 37.55L477.42188 37.55L477.42188 27.175L479.96875 27.175L479.96875 28.70625Q481.32812 26.940624 483.39062 26.940624Q484.29688 26.940624 485.04688 27.26875Q485.79688 27.596874 486.17188 28.1125Q486.5625 28.6125 486.71875 29.26875Q486.875 29.909374 486.875 31.096874L486.875 37.55ZM494.1875 27.175L494.1875 29.3625L492.3125 29.3625L492.3125 33.55Q492.3125 34.815624 492.35938 35.034374Q492.42188 35.2375 492.60938 35.378124Q492.8125 35.503124 493.07812 35.503124Q493.45312 35.503124 494.1875 35.2375L494.42188 37.378124Q493.45312 37.784374 492.25 37.784374Q491.5 37.784374 490.90625 37.534374Q490.3125 37.284374 490.03125 36.89375Q489.76562 36.4875 489.65625 35.815624Q489.5625 35.346874 489.5625 33.89375L489.5625 29.3625L488.29688 29.3625L488.29688 27.175L489.5625 27.175L489.5625 25.1125L492.3125 23.51875L492.3125 27.175L494.1875 27.175ZM496.4375 25.76875L496.4375 23.2375L499.1875 23.2375L499.1875 25.76875L496.4375 25.76875ZM496.4375 37.55L496.4375 27.175L499.1875 27.175L499.1875 37.55L496.4375 37.55ZM510.875 37.55L508.125 37.55L508.125 32.253124Q508.125 30.58125 507.95312 30.096874Q507.78125 29.596874 507.375 29.33125Q506.98438 29.05 506.42188 29.05Q505.71875 29.05 505.14062 29.440624Q504.57812 29.83125 504.35938 30.471874Q504.15625 31.1125 504.15625 32.846874L504.15625 37.55L501.42188 37.55L501.42188 27.175L503.96875 27.175L503.96875 28.70625Q505.32812 26.940624 507.39062 26.940624Q508.29688 26.940624 509.04688 27.26875Q509.79688 27.596874 510.17188 28.1125Q510.5625 28.6125 510.71875 29.26875Q510.875 29.909374 510.875 31.096874L510.875 37.55ZM513.1875 38.2375L516.3125 38.6125Q516.3906 39.159374 516.6719 39.3625Q517.0625 39.659374 517.90625 39.659374Q518.9844 39.659374 519.5156 39.33125Q519.875 39.128124 520.0625 38.64375Q520.1875 38.3 520.1875 37.378124L520.1875 35.8625Q518.96875 37.55 517.09375 37.55Q515.0 37.55 513.78125 35.784374Q512.8281 34.378124 512.8281 32.3Q512.8281 29.690624 514.0781 28.315624Q515.3281 26.940624 517.2031 26.940624Q519.125 26.940624 520.375 28.628124L520.375 27.175L522.9375 27.175L522.9375 36.4875Q522.9375 38.315624 522.625 39.221874Q522.3281 40.14375 521.78125 40.659374Q521.2344 41.175 520.3125 41.45625Q519.40625 41.753124 518.0156 41.753124Q515.375 41.753124 514.2656 40.846874Q513.1719 39.95625 513.1719 38.565624Q513.1719 38.425 513.1875 38.2375ZM515.6406 32.14375Q515.6406 33.8 516.2656 34.565624Q516.90625 35.33125 517.84375 35.33125Q518.8594 35.33125 519.5469 34.55Q520.25 33.753124 520.25 32.221874Q520.25 30.6125 519.5781 29.83125Q518.9219 29.05 517.90625 29.05Q516.90625 29.05 516.2656 29.815624Q515.6406 30.58125 515.6406 32.14375ZM536.1875 27.175L536.1875 29.3625L534.3125 29.3625L534.3125 33.55Q534.3125 34.815624 534.3594 35.034374Q534.4219 35.2375 534.6094 35.378124Q534.8125 35.503124 535.0781 35.503124Q535.4531 35.503124 536.1875 35.2375L536.4219 37.378124Q535.4531 37.784374 534.25 37.784374Q533.5 37.784374 532.90625 37.534374Q532.3125 37.284374 532.03125 36.89375Q531.7656 36.4875 531.65625 35.815624Q531.5625 35.346874 531.5625 33.89375L531.5625 29.3625L530.2969 29.3625L530.2969 27.175L531.5625 27.175L531.5625 25.1125L534.3125 23.51875L534.3125 27.175L536.1875 27.175ZM541.1719 23.2375L541.1719 28.503124Q542.5 26.940624 544.34375 26.940624Q545.2969 26.940624 546.0469 27.3Q546.8125 27.64375 547.2031 28.190624Q547.59375 28.7375 547.7344 29.409374Q547.875 30.065624 547.875 31.471874L547.875 37.55L545.125 37.55L545.125 32.065624Q545.125 30.440624 544.96875 30.003124Q544.8125 29.565624 544.40625 29.315624Q544.0156 29.05 543.4219 29.05Q542.75 29.05 542.2031 29.378124Q541.6719 29.70625 541.4219 30.378124Q541.1719 31.05 541.1719 32.346874L541.1719 37.55L538.4219 37.55L538.4219 23.2375L541.1719 23.2375ZM556.4375 34.253124L559.1719 34.70625Q558.65625 36.20625 557.5156 37.003124Q556.375 37.784374 554.6719 37.784374Q551.9531 37.784374 550.65625 36.01875Q549.6406 34.596874 549.6406 32.440624Q549.6406 29.8625 550.9844 28.409374Q552.3281 26.940624 554.3906 26.940624Q556.7031 26.940624 558.03125 28.471874Q559.375 30.003124 559.3281 33.159374L552.4531 33.159374Q552.4844 34.378124 553.1094 35.065624Q553.75 35.7375 554.6875 35.7375Q555.34375 35.7375 555.78125 35.39375Q556.21875 35.034374 556.4375 34.253124ZM556.59375 31.471874Q556.5625 30.284374 555.96875 29.675Q555.3906 29.05 554.5625 29.05Q553.65625 29.05 553.0781 29.690624Q552.4844 30.346874 552.5 31.471874L556.59375 31.471874Z" fill-rule="nonzero"/><path fill="#000000" d="M216.96875 58.596874L219.71875 58.175Q219.90625 58.971874 220.4375 59.39375Q220.96875 59.8 221.9375 59.8Q223.0 59.8 223.54688 59.409374Q223.90625 59.14375 223.90625 58.675Q223.90625 58.3625 223.70312 58.159374Q223.5 57.971874 222.79688 57.8Q219.46875 57.065624 218.57812 56.45625Q217.34375 55.628124 217.34375 54.128124Q217.34375 52.784374 218.40625 51.8625Q219.48438 50.940624 221.71875 50.940624Q223.84375 50.940624 224.875 51.64375Q225.92188 52.33125 226.3125 53.690624L223.71875 54.159374Q223.54688 53.565624 223.07812 53.2375Q222.625 52.909374 221.76562 52.909374Q220.6875 52.909374 220.21875 53.221874Q219.90625 53.440624 219.90625 53.76875Q219.90625 54.065624 220.17188 54.26875Q220.54688 54.55 222.73438 55.05Q224.92188 55.55 225.79688 56.26875Q226.65625 57.003124 226.65625 58.3Q226.65625 59.7375 225.46875 60.76875Q224.28125 61.784374 221.9375 61.784374Q219.82812 61.784374 218.57812 60.925Q217.34375 60.065624 216.96875 58.596874ZM228.29688 56.221874Q228.29688 54.846874 228.96875 53.565624Q229.65625 52.284374 230.89062 51.6125Q232.125 50.940624 233.64062 50.940624Q236.0 50.940624 237.5 52.471874Q239.0 54.003124 239.0 56.33125Q239.0 58.690624 237.48438 60.2375Q235.96875 61.784374 233.65625 61.784374Q232.23438 61.784374 230.9375 61.14375Q229.65625 60.4875 228.96875 59.253124Q228.29688 58.003124 228.29688 56.221874ZM231.10938 56.3625Q231.10938 57.909374 231.84375 58.7375Q232.57812 59.55 233.65625 59.55Q234.73438 59.55 235.45312 58.7375Q236.1875 57.909374 236.1875 56.346874Q236.1875 54.815624 235.45312 54.003124Q234.73438 53.175 233.65625 53.175Q232.57812 53.175 231.84375 54.003124Q231.10938 54.815624 231.10938 56.3625ZM247.76562 61.55L247.76562 60.003124Q247.20312 60.83125 246.26562 61.315624Q245.34375 61.784374 244.32812 61.784374Q243.28125 61.784374 242.45312 61.33125Q241.625 60.8625 241.25 60.034374Q240.875 59.20625 240.875 57.7375L240.875 51.175L243.625 51.175L243.625 55.940624Q243.625 58.128124 243.76562 58.628124Q243.92188 59.1125 244.3125 59.409374Q244.71875 59.690624 245.34375 59.690624Q246.04688 59.690624 246.59375 59.315624Q247.15625 58.925 247.35938 58.3625Q247.5625 57.784374 247.5625 55.55L247.5625 51.175L250.3125 51.175L250.3125 61.55L247.76562 61.55ZM262.375 61.55L259.625 61.55L259.625 56.253124Q259.625 54.58125 259.45312 54.096874Q259.28125 53.596874 258.875 53.33125Q258.48438 53.05 257.92188 53.05Q257.21875 53.05 256.64062 53.440624Q256.07812 53.83125 255.85938 54.471874Q255.65625 55.1125 255.65625 56.846874L255.65625 61.55L252.92188 61.55L252.92188 51.175L255.46875 51.175L255.46875 52.70625Q256.82812 50.940624 258.89062 50.940624Q259.79688 50.940624 260.54688 51.26875Q261.29688 51.596874 261.67188 52.1125Q262.0625 52.6125 262.21875 53.26875Q262.375 53.909374 262.375 55.096874L262.375 61.55ZM274.45312 61.55L271.90625 61.55L271.90625 60.01875Q271.26562 60.909374 270.39062 61.346874Q269.53125 61.784374 268.65625 61.784374Q266.875 61.784374 265.59375 60.346874Q264.32812 58.909374 264.32812 56.33125Q264.32812 53.690624 265.5625 52.315624Q266.79688 50.940624 268.70312 50.940624Q270.4375 50.940624 271.70312 52.39375L271.70312 47.2375L274.45312 47.2375L274.45312 61.55ZM267.125 56.14375Q267.125 57.8 267.57812 58.534374Q268.25 59.6125 269.4375 59.6125Q270.39062 59.6125 271.04688 58.815624Q271.71875 58.003124 271.71875 56.409374Q271.71875 54.6125 271.0625 53.83125Q270.42188 53.05 269.42188 53.05Q268.4375 53.05 267.78125 53.83125Q267.125 54.596874 267.125 56.14375ZM275.96875 58.596874L278.71875 58.175Q278.90625 58.971874 279.4375 59.39375Q279.96875 59.8 280.9375 59.8Q282.0 59.8 282.54688 59.409374Q282.90625 59.14375 282.90625 58.675Q282.90625 58.3625 282.70312 58.159374Q282.5 57.971874 281.79688 57.8Q278.46875 57.065624 277.57812 56.45625Q276.34375 55.628124 276.34375 54.128124Q276.34375 52.784374 277.40625 51.8625Q278.48438 50.940624 280.71875 50.940624Q282.84375 50.940624 283.875 51.64375Q284.92188 52.33125 285.3125 53.690624L282.71875 54.159374Q282.54688 53.565624 282.07812 53.2375Q281.625 52.909374 280.76562 52.909374Q279.6875 52.909374 279.21875 53.221874Q278.90625 53.440624 278.90625 53.76875Q278.90625 54.065624 279.17188 54.26875Q279.54688 54.55 281.73438 55.05Q283.92188 55.55 284.79688 56.26875Q285.65625 57.003124 285.65625 58.3Q285.65625 59.7375 284.46875 60.76875Q283.28125 61.784374 280.9375 61.784374Q278.82812 61.784374 277.57812 60.925Q276.34375 60.065624 275.96875 58.596874ZM293.29688 56.221874Q293.29688 54.846874 293.96875 53.565624Q294.65625 52.284374 295.89062 51.6125Q297.125 50.940624 298.64062 50.940624Q301.0 50.940624 302.5 52.471874Q304.0 54.003124 304.0 56.33125Q304.0 58.690624 302.48438 60.2375Q300.96875 61.784374 298.65625 61.784374Q297.23438 61.784374 295.9375 61.14375Q294.65625 60.4875 293.96875 59.253124Q293.29688 58.003124 293.29688 56.221874ZM296.10938 56.3625Q296.10938 57.909374 296.84375 58.7375Q297.57812 59.55 298.65625 59.55Q299.73438 59.55 300.45312 58.7375Q301.1875 57.909374 301.1875 56.346874Q301.1875 54.815624 300.45312 54.003124Q299.73438 53.175 298.65625 53.175Q297.57812 53.175 296.84375 54.003124Q296.10938 54.815624 296.10938 56.3625ZM304.73438 51.175L306.26562 51.175L306.26562 50.39375Q306.26562 49.08125 306.53125 48.440624Q306.8125 47.8 307.5625 47.39375Q308.3125 46.9875 309.45312 46.9875Q310.625 46.9875 311.75 47.346874L311.375 49.253124Q310.71875 49.096874 310.10938 49.096874Q309.51562 49.096874 309.25 49.378124Q309.0 49.659374 309.0 50.440624L309.0 51.175L311.04688 51.175L311.04688 53.33125L309.0 53.33125L309.0 61.55L306.26562 61.55L306.26562 53.33125L304.73438 53.33125L304.73438 51.175ZM318.95312 47.2375L324.23438 47.2375Q326.01562 47.2375 326.95312 47.503124Q328.21875 47.878124 329.10938 48.83125Q330.01562 49.76875 330.48438 51.14375Q330.95312 52.51875 330.95312 54.534374Q330.95312 56.3 330.51562 57.58125Q329.96875 59.14375 328.96875 60.096874Q328.21875 60.83125 326.9375 61.253124Q325.98438 61.55 324.39062 61.55L318.95312 61.55L318.95312 47.2375ZM321.84375 49.659374L321.84375 59.14375L324.0 59.14375Q325.20312 59.14375 325.75 59.003124Q326.45312 58.83125 326.90625 58.409374Q327.375 57.9875 327.65625 57.034374Q327.95312 56.065624 327.95312 54.39375Q327.95312 52.7375 327.65625 51.846874Q327.375 50.95625 326.84375 50.471874Q326.3125 49.971874 325.51562 49.784374Q324.90625 49.659374 323.14062 49.659374L321.84375 49.659374ZM334.98438 54.346874L332.5 53.89375Q332.92188 52.39375 333.9375 51.675Q334.96875 50.940624 336.98438 50.940624Q338.82812 50.940624 339.71875 51.378124Q340.625 51.815624 340.98438 52.4875Q341.35938 53.14375 341.35938 54.940624L341.32812 58.14375Q341.32812 59.503124 341.45312 60.159374Q341.59375 60.8 341.95312 61.55L339.23438 61.55Q339.125 61.26875 338.96875 60.7375Q338.90625 60.4875 338.875 60.409374Q338.17188 61.096874 337.35938 61.440624Q336.5625 61.784374 335.65625 61.784374Q334.0625 61.784374 333.14062 60.925Q332.21875 60.05 332.21875 58.721874Q332.21875 57.83125 332.625 57.14375Q333.04688 56.45625 333.79688 56.096874Q334.5625 55.721874 336.0 55.45625Q337.92188 55.096874 338.65625 54.784374L338.65625 54.503124Q338.65625 53.721874 338.26562 53.39375Q337.875 53.05 336.79688 53.05Q336.0625 53.05 335.64062 53.33125Q335.23438 53.6125 334.98438 54.346874ZM338.65625 56.565624Q338.125 56.7375 336.98438 56.9875Q335.84375 57.2375 335.5 57.471874Q334.95312 57.846874 334.95312 58.440624Q334.95312 59.003124 335.375 59.425Q335.8125 59.846874 336.48438 59.846874Q337.21875 59.846874 337.89062 59.3625Q338.39062 58.9875 338.54688 58.45625Q338.65625 58.096874 338.65625 57.1125L338.65625 56.565624ZM346.5625 61.55L343.8125 61.55L343.8125 51.175L346.375 51.175L346.375 52.659374Q347.01562 51.6125 347.53125 51.284374Q348.0625 50.940624 348.73438 50.940624Q349.67188 50.940624 350.53125 51.45625L349.6875 53.846874Q349.0 53.409374 348.40625 53.409374Q347.82812 53.409374 347.42188 53.721874Q347.01562 54.034374 346.78125 54.878124Q346.5625 55.70625 346.5625 58.346874L346.5625 61.55ZM351.9375 49.76875L351.9375 47.2375L354.6875 47.2375L354.6875 49.76875L351.9375 49.76875ZM351.9375 61.55L351.9375 51.175L354.6875 51.175L354.6875 61.55L351.9375 61.55ZM356.875 49.76875L356.875 47.2375L359.625 47.2375L359.625 49.76875L356.875 49.76875ZM359.625 51.175L359.625 61.221874Q359.625 63.20625 359.35938 64.01875Q359.10938 64.84688 358.35938 65.3Q357.625 65.75313 356.48438 65.75313Q356.07812 65.75313 355.59375 65.675Q355.125 65.6125 354.57812 65.47188L355.0625 63.128124Q355.25 63.159374 355.42188 63.175Q355.59375 63.20625 355.75 63.20625Q356.17188 63.20625 356.4375 63.01875Q356.70312 62.846874 356.78125 62.596874Q356.875 62.346874 356.875 61.065624L356.875 51.175L359.625 51.175ZM363.98438 54.346874L361.5 53.89375Q361.92188 52.39375 362.9375 51.675Q363.96875 50.940624 365.98438 50.940624Q367.82812 50.940624 368.71875 51.378124Q369.625 51.815624 369.98438 52.4875Q370.35938 53.14375 370.35938 54.940624L370.32812 58.14375Q370.32812 59.503124 370.45312 60.159374Q370.59375 60.8 370.95312 61.55L368.23438 61.55Q368.125 61.26875 367.96875 60.7375Q367.90625 60.4875 367.875 60.409374Q367.17188 61.096874 366.35938 61.440624Q365.5625 61.784374 364.65625 61.784374Q363.0625 61.784374 362.14062 60.925Q361.21875 60.05 361.21875 58.721874Q361.21875 57.83125 361.625 57.14375Q362.04688 56.45625 362.79688 56.096874Q363.5625 55.721874 365.0 55.45625Q366.92188 55.096874 367.65625 54.784374L367.65625 54.503124Q367.65625 53.721874 367.26562 53.39375Q366.875 53.05 365.79688 53.05Q365.0625 53.05 364.64062 53.33125Q364.23438 53.6125 363.98438 54.346874ZM367.65625 56.565624Q367.125 56.7375 365.98438 56.9875Q364.84375 57.2375 364.5 57.471874Q363.95312 57.846874 363.95312 58.440624Q363.95312 59.003124 364.375 59.425Q364.8125 59.846874 365.48438 59.846874Q366.21875 59.846874 366.89062 59.3625Q367.39062 58.9875 367.54688 58.45625Q367.65625 58.096874 367.65625 57.1125L367.65625 56.565624ZM378.82812 57.8625L376.34375 57.8625Q376.32812 57.315624 376.32812 57.20625Q376.32812 55.9875 376.73438 55.20625Q377.14062 54.425 378.32812 53.45625Q379.53125 52.471874 379.76562 52.175Q380.14062 51.690624 380.14062 51.1125Q380.14062 50.315624 379.5 49.753124Q378.85938 49.175 377.76562 49.175Q376.71875 49.175 376.01562 49.76875Q375.3125 50.3625 375.0625 51.58125L372.53125 51.26875Q372.64062 49.534374 374.01562 48.315624Q375.40625 47.08125 377.65625 47.08125Q380.01562 47.08125 381.40625 48.315624Q382.8125 49.55 382.8125 51.190624Q382.8125 52.1125 382.29688 52.925Q381.78125 53.721874 380.10938 55.128124Q379.23438 55.846874 379.01562 56.284374Q378.8125 56.721874 378.82812 57.8625ZM376.34375 61.55L376.34375 58.8L379.09375 58.8L379.09375 61.55L376.34375 61.55Z" fill-rule="nonzero"/></svg>