<svg version="1.1" viewBox="0.0 0.0 600.0 371.0" fill="none" stroke="none" stroke-linecap="square" stroke-miterlimit="10" width="600" height="371" xmlns:xlink="http://www.w3.org/1999/xlink" xmlns="http://www.w3.org/2000/svg"><path fill="#ffffff" d="M0 0L600.0 0L600.0 371.0L0 371.0L0 0Z" fill-rule="nonzero"/><path fill="#00ff00" d="M321.1054 88.90665C326.0275 88.561874 330.9711 88.38917 335.9178 88.38917L335.9178 192.52583Z" fill-rule="nonzero"/><path fill="#ffff00" d="M229.42065 119.81378C253.8418 102.28735 286.30377 91.344345 321.1054 88.90665L335.9178 192.52583Z" fill-rule="nonzero"/><path fill="#b30034" d="M215.12846 275.62994C196.93727 257.91824 187.15111 236.65494 187.15111 214.84084L187.15111 192.52583C187.15111 214.33994 196.93727 235.60326 215.12846 253.31496Z" fill-rule="nonzero"/><path fill="#ff004a" d="M215.12846 253.31496C172.98479 212.28215 179.01108 155.99144 229.42065 119.81378L335.9178 192.52583Z" fill-rule="nonzero"/><path fill="#00b3b3" d="M484.68445 214.84084C484.68445 260.05127 443.01114 300.09708 381.5363 313.9606C320.06146 327.82416 252.83034 312.33804 215.12846 275.62994L215.12846 253.31496C252.83034 290.02304 320.06146 305.50916 381.5363 291.64563C443.01114 277.78207 484.68445 237.73628 484.68445 192.52583Z" fill-rule="nonzero"/><path fill="#00ffff" d="M335.9178 88.38917C406.25195 88.38917 466.97583 122.868965 481.48474 171.04395C495.99365 219.21893 460.3227 267.9241 395.9745 287.79968C331.62628 307.6753 256.18558 293.28983 215.12846 253.31496L335.9178 192.52583Z" fill-rule="nonzero"/><path fill="#000000" d="M413.86465 222.61256L412.6459 222.70631Q412.47403 221.97194 412.17715 221.64381Q411.67715 221.12819 410.94278 221.12819Q410.34903 221.12819 409.91153 221.45631Q409.3334 221.87819 408.98965 222.69069Q408.66153 223.50319 408.6459 225.00319Q409.0834 224.33131 409.72403 224.00319Q410.38028 223.67506 411.0834 223.67506Q412.31778 223.67506 413.17715 224.58131Q414.03653 225.48756 414.03653 226.92506Q414.03653 227.86256 413.63028 228.67506Q413.22403 229.48756 412.50528 229.92506Q411.80215 230.34694 410.8959 230.34694Q409.36465 230.34694 408.3959 229.22194Q407.42715 228.08131 407.42715 225.48756Q407.42715 222.58131 408.48965 221.25319Q409.42715 220.11256 411.0209 220.11256Q412.2084 220.11256 412.9584 220.78444Q413.7084 221.44069 413.86465 222.61256ZM408.8334 226.92506Q408.8334 227.56569 409.09903 228.14381Q409.38028 228.72194 409.86465 229.03444Q410.34903 229.33131 410.88028 229.33131Q411.66153 229.33131 412.22403 228.70631Q412.78653 228.08131 412.78653 227.00319Q412.78653 225.95631 412.22403 225.36256Q411.67715 224.75319 410.8334 224.75319Q410.00528 224.75319 409.41153 225.36256Q408.8334 225.95631 408.8334 226.92506ZM415.47403 227.55006L416.7709 227.44069Q416.91153 228.37819 417.42715 228.86256Q417.9584 229.33131 418.69278 229.33131Q419.5834 229.33131 420.19278 228.65944Q420.81778 227.98756 420.81778 226.89381Q420.81778 225.83131 420.22403 225.22194Q419.63028 224.61256 418.67715 224.61256Q418.0834 224.61256 417.59903 224.89381Q417.13028 225.15944 416.84903 225.58131L415.69278 225.44069L416.66153 220.28444L421.6459 220.28444L421.6459 221.47194L417.6459 221.47194L417.11465 224.15944Q418.0209 223.53444 419.00528 223.53444Q420.31778 223.53444 421.2084 224.44069Q422.11465 225.34694 422.11465 226.78444Q422.11465 228.14381 421.3334 229.12819Q420.36465 230.34694 418.69278 230.34694Q417.3334 230.34694 416.4584 229.58131Q415.59903 228.81569 415.47403 227.55006ZM424.16153 230.17506L424.16153 228.76881L425.56778 228.76881L425.56778 230.17506L424.16153 230.17506ZM432.11465 230.17506L430.88028 230.17506L430.88028 222.33131Q430.44278 222.75319 429.7084 223.19069Q428.98965 223.61256 428.42715 223.81569L428.42715 222.62819Q429.4584 222.14381 430.22403 221.45631Q431.00528 220.76881 431.31778 220.11256L432.11465 220.11256L432.11465 230.17506ZM435.7084 222.56569Q435.7084 221.48756 436.23965 220.73756Q436.78653 219.98756 437.81778 219.98756Q438.75528 219.98756 439.36465 220.65944Q439.98965 221.33131 439.98965 222.62819Q439.98965 223.90944 439.36465 224.59694Q438.73965 225.28444 437.8334 225.28444Q436.92715 225.28444 436.31778 224.61256Q435.7084 223.92506 435.7084 222.56569ZM437.84903 220.83131Q437.3959 220.83131 437.0834 221.23756Q436.78653 221.62819 436.78653 222.67506Q436.78653 223.64381 437.0834 224.03444Q437.3959 224.42506 437.84903 224.42506Q438.31778 224.42506 438.61465 224.03444Q438.92715 223.64381 438.92715 222.58131Q438.92715 221.61256 438.61465 221.22194Q438.30215 220.83131 437.84903 220.83131ZM437.84903 230.55006L443.3334 219.98756L444.3334 219.98756L438.88028 230.55006L437.84903 230.55006ZM442.19278 227.81569Q442.19278 226.73756 442.72403 226.00319Q443.2709 225.25319 444.30215 225.25319Q445.23965 225.25319 445.86465 225.92506Q446.48965 226.59694 446.48965 227.89381Q446.48965 229.17506 445.86465 229.86256Q445.23965 230.55006 444.30215 230.55006Q443.3959 230.55006 442.78653 229.87819Q442.19278 229.19069 442.19278 227.81569ZM444.3334 226.09694Q443.86465 226.09694 443.56778 226.50319Q443.2709 226.89381 443.2709 227.94069Q443.2709 228.90944 443.56778 229.30006Q443.88028 229.69069 444.3334 229.69069Q444.80215 229.69069 445.09903 229.30006Q445.41153 228.90944 445.41153 227.84694Q445.41153 226.87819 445.09903 226.48756Q444.80215 226.09694 444.3334 226.09694Z" fill-rule="nonzero"/><path fill="#000000" d="M214.77556 190.66298L214.77556 191.85048L208.15056 191.85048Q208.13493 191.41298 208.29118 190.9911Q208.55681 190.31923 209.10368 189.66298Q209.66618 189.00673 210.71306 188.14735Q212.35368 186.8036 212.91618 186.02235Q213.49431 185.2411 213.49431 184.53798Q213.49431 183.8036 212.96306 183.3036Q212.44743 182.8036 211.61931 182.8036Q210.72868 182.8036 210.18181 183.33485Q209.65056 183.8661 209.65056 184.81923L208.38493 184.6786Q208.50993 183.27235 209.35368 182.53798Q210.21306 181.78798 211.63493 181.78798Q213.08806 181.78798 213.91618 182.58485Q214.75993 183.38173 214.75993 184.56923Q214.75993 185.1786 214.50993 185.75673Q214.27556 186.33485 213.69743 186.97548Q213.13493 187.6161 211.80681 188.7411Q210.69743 189.66298 210.38493 190.00673Q210.07243 190.33485 209.86931 190.66298L214.77556 190.66298ZM222.77556 190.66298L222.77556 191.85048L216.15056 191.85048Q216.13493 191.41298 216.29118 190.9911Q216.55681 190.31923 217.10368 189.66298Q217.66618 189.00673 218.71306 188.14735Q220.35368 186.8036 220.91618 186.02235Q221.49431 185.2411 221.49431 184.53798Q221.49431 183.8036 220.96306 183.3036Q220.44743 182.8036 219.61931 182.8036Q218.72868 182.8036 218.18181 183.33485Q217.65056 183.8661 217.65056 184.81923L216.38493 184.6786Q216.50993 183.27235 217.35368 182.53798Q218.21306 181.78798 219.63493 181.78798Q221.08806 181.78798 221.91618 182.58485Q222.75993 183.38173 222.75993 184.56923Q222.75993 185.1786 222.50993 185.75673Q222.27556 186.33485 221.69743 186.97548Q221.13493 187.6161 219.80681 188.7411Q218.69743 189.66298 218.38493 190.00673Q218.07243 190.33485 217.86931 190.66298L222.77556 190.66298ZM224.99431 191.85048L224.99431 190.44423L226.40056 190.44423L226.40056 191.85048L224.99431 191.85048ZM234.77556 190.66298L234.77556 191.85048L228.15056 191.85048Q228.13493 191.41298 228.29118 190.9911Q228.55681 190.31923 229.10368 189.66298Q229.66618 189.00673 230.71306 188.14735Q232.35368 186.8036 232.91618 186.02235Q233.49431 185.2411 233.49431 184.53798Q233.49431 183.8036 232.96306 183.3036Q232.44743 182.8036 231.61931 182.8036Q230.72868 182.8036 230.18181 183.33485Q229.65056 183.8661 229.65056 184.81923L228.38493 184.6786Q228.50993 183.27235 229.35368 182.53798Q230.21306 181.78798 231.63493 181.78798Q233.08806 181.78798 233.91618 182.58485Q234.75993 183.38173 234.75993 184.56923Q234.75993 185.1786 234.50993 185.75673Q234.27556 186.33485 233.69743 186.97548Q233.13493 187.6161 231.80681 188.7411Q230.69743 189.66298 230.38493 190.00673Q230.07243 190.33485 229.86931 190.66298L234.77556 190.66298ZM236.54118 184.2411Q236.54118 183.16298 237.07243 182.41298Q237.61931 181.66298 238.65056 181.66298Q239.58806 181.66298 240.19743 182.33485Q240.82243 183.00673 240.82243 184.3036Q240.82243 185.58485 240.19743 186.27235Q239.57243 186.95985 238.66618 186.95985Q237.75993 186.95985 237.15056 186.28798Q236.54118 185.60048 236.54118 184.2411ZM238.68181 182.50673Q238.22868 182.50673 237.91618 182.91298Q237.61931 183.3036 237.61931 184.35048Q237.61931 185.31923 237.91618 185.70985Q238.22868 186.10048 238.68181 186.10048Q239.15056 186.10048 239.44743 185.70985Q239.75993 185.31923 239.75993 184.25673Q239.75993 183.28798 239.44743 182.89735Q239.13493 182.50673 238.68181 182.50673ZM238.68181 192.22548L244.16618 181.66298L245.16618 181.66298L239.71306 192.22548L238.68181 192.22548ZM243.02556 189.4911Q243.02556 188.41298 243.55681 187.6786Q244.10368 186.9286 245.13493 186.9286Q246.07243 186.9286 246.69743 187.60048Q247.32243 188.27235 247.32243 189.56923Q247.32243 190.85048 246.69743 191.53798Q246.07243 192.22548 245.13493 192.22548Q244.22868 192.22548 243.61931 191.5536Q243.02556 190.8661 243.02556 189.4911ZM245.16618 187.77235Q244.69743 187.77235 244.40056 188.1786Q244.10368 188.56923 244.10368 189.6161Q244.10368 190.58485 244.40056 190.97548Q244.71306 191.3661 245.16618 191.3661Q245.63493 191.3661 245.93181 190.97548Q246.24431 190.58485 246.24431 189.52235Q246.24431 188.5536 245.93181 188.16298Q245.63493 187.77235 245.16618 187.77235Z" fill-rule="nonzero"/><path fill="#000000" d="M276.36536 132.44801L275.13098 132.44801L275.13098 124.60426Q274.69348 125.02614 273.9591 125.46364Q273.24036 125.88551 272.67786 126.08864L272.67786 124.90114Q273.7091 124.41676 274.47473 123.72926Q275.25598 123.04176 275.56848 122.38551L276.36536 122.38551L276.36536 132.44801ZM284.36536 132.44801L283.13098 132.44801L283.13098 124.60426Q282.69348 125.02614 281.9591 125.46364Q281.24036 125.88551 280.67786 126.08864L280.67786 124.90114Q281.7091 124.41676 282.47473 123.72926Q283.25598 123.04176 283.56848 122.38551L284.36536 122.38551L284.36536 132.44801ZM288.41223 132.44801L288.41223 131.04176L289.81848 131.04176L289.81848 132.44801L288.41223 132.44801ZM296.36536 132.44801L295.13098 132.44801L295.13098 124.60426Q294.69348 125.02614 293.9591 125.46364Q293.24036 125.88551 292.67786 126.08864L292.67786 124.90114Q293.7091 124.41676 294.47473 123.72926Q295.25598 123.04176 295.56848 122.38551L296.36536 122.38551L296.36536 132.44801ZM299.9591 124.83864Q299.9591 123.76051 300.49036 123.01051Q301.03723 122.26051 302.06848 122.26051Q303.00598 122.26051 303.61536 122.93239Q304.24036 123.60426 304.24036 124.90114Q304.24036 126.18239 303.61536 126.86989Q302.99036 127.55739 302.0841 127.55739Q301.17786 127.55739 300.56848 126.88551Q299.9591 126.19801 299.9591 124.83864ZM302.09973 123.10426Q301.6466 123.10426 301.3341 123.51051Q301.03723 123.90114 301.03723 124.94801Q301.03723 125.91676 301.3341 126.30739Q301.6466 126.69801 302.09973 126.69801Q302.56848 126.69801 302.86536 126.30739Q303.17786 125.91676 303.17786 124.85426Q303.17786 123.88551 302.86536 123.49489Q302.55286 123.10426 302.09973 123.10426ZM302.09973 132.82301L307.5841 122.26051L308.5841 122.26051L303.13098 132.82301L302.09973 132.82301ZM306.44348 130.08864Q306.44348 129.01051 306.97473 128.27614Q307.5216 127.52614 308.55286 127.52614Q309.49036 127.52614 310.11536 128.19801Q310.74036 128.86989 310.74036 130.16676Q310.74036 131.44801 310.11536 132.13551Q309.49036 132.82301 308.55286 132.82301Q307.6466 132.82301 307.03723 132.15114Q306.44348 131.46364 306.44348 130.08864ZM308.5841 128.36989Q308.11536 128.36989 307.81848 128.77614Q307.5216 129.16676 307.5216 130.21364Q307.5216 131.18239 307.81848 131.57301Q308.13098 131.96364 308.5841 131.96364Q309.05286 131.96364 309.34973 131.57301Q309.66223 131.18239 309.66223 130.11989Q309.66223 129.15114 309.34973 128.76051Q309.05286 128.36989 308.5841 128.36989Z" fill-rule="nonzero"/><path fill="#00ffff" d="M30.55 61.916668C30.55 65.23038 27.863708 67.916664 24.55 67.916664C21.236292 67.916664 18.55 65.23038 18.55 61.916668C18.55 58.60296 21.236292 55.916668 24.55 55.916668C27.863708 55.916668 30.55 58.60296 30.55 61.916668Z" fill-rule="nonzero"/><path fill="#1a1a1a" d="M44.596874 64.90104L44.596874 65.916664L38.909374 65.916664Q38.909374 65.541664 39.034374 65.18229Q39.253124 64.604164 39.721874 64.041664Q40.20625 63.479164 41.1125 62.74479Q42.51875 61.58854 43.003124 60.916664Q43.503124 60.24479 43.503124 59.65104Q43.503124 59.02604 43.05 58.604164Q42.596874 58.166664 41.878124 58.166664Q41.1125 58.166664 40.659374 58.61979Q40.20625 59.072914 40.190624 59.885414L39.1125 59.77604Q39.221874 58.55729 39.940624 57.93229Q40.675 57.291664 41.909374 57.291664Q43.14375 57.291664 43.8625 57.979164Q44.58125 58.666664 44.58125 59.68229Q44.58125 60.197914 44.3625 60.697914Q44.159374 61.18229 43.659374 61.74479Q43.175 62.291664 42.05 63.24479Q41.096874 64.041664 40.815624 64.33854Q40.55 64.61979 40.378124 64.90104L44.596874 64.90104ZM50.01875 65.916664L48.971874 65.916664L48.971874 59.197914Q48.58125 59.55729 47.95625 59.93229Q47.346874 60.291664 46.8625 60.46354L46.8625 59.447914Q47.7375 59.02604 48.39375 58.447914Q49.065624 57.854164 49.346874 57.291664L50.01875 57.291664L50.01875 65.916664ZM52.925 63.33854L52.925 62.27604L56.175 62.27604L56.175 63.33854L52.925 63.33854ZM57.05 63.65104L58.1125 63.510414Q58.284374 64.40104 58.721874 64.80729Q59.159374 65.197914 59.784374 65.197914Q60.534374 65.197914 61.05 64.68229Q61.565624 64.166664 61.565624 63.40104Q61.565624 62.68229 61.08125 62.21354Q60.6125 61.729164 59.878124 61.729164Q59.58125 61.729164 59.128124 61.854164L59.253124 60.916664Q59.3625 60.93229 59.425 60.93229Q60.096874 60.93229 60.628124 60.58854Q61.175 60.229164 61.175 59.49479Q61.175 58.916664 60.784374 58.541664Q60.39375 58.15104 59.76875 58.15104Q59.159374 58.15104 58.7375 58.541664Q58.33125 58.93229 58.221874 59.697914L57.159374 59.510414Q57.346874 58.46354 58.034374 57.885414Q58.721874 57.291664 59.7375 57.291664Q60.440624 57.291664 61.034374 57.604164Q61.628124 57.90104 61.940624 58.416664Q62.253124 58.93229 62.253124 59.52604Q62.253124 60.072914 61.95625 60.541664Q61.659374 60.99479 61.08125 61.260414Q61.83125 61.43229 62.253124 61.99479Q62.675 62.541664 62.675 63.385414Q62.675 64.510414 61.846874 65.291664Q61.034374 66.072914 59.784374 66.072914Q58.659374 66.072914 57.909374 65.40104Q57.159374 64.71354 57.05 63.65104ZM64.05 61.68229Q64.05 60.15104 64.3625 59.229164Q64.675 58.291664 65.28438 57.791664Q65.90938 57.291664 66.84688 57.291664Q67.53438 57.291664 68.05 57.572914Q68.58125 57.854164 68.925 58.385414Q69.26875 58.90104 69.45625 59.65104Q69.64375 60.40104 69.64375 61.68229Q69.64375 63.197914 69.33125 64.11979Q69.03438 65.041664 68.40938 65.55729Q67.8 66.05729 66.84688 66.05729Q65.6125 66.05729 64.89375 65.166664Q64.05 64.104164 64.05 61.68229ZM65.12813 61.68229Q65.12813 63.791664 65.62813 64.49479Q66.12813 65.197914 66.84688 65.197914Q67.58125 65.197914 68.06563 64.49479Q68.56563 63.791664 68.56563 61.68229Q68.56563 59.55729 68.06563 58.86979Q67.58125 58.166664 66.83125 58.166664Q66.1125 58.166664 65.675 58.77604Q65.12813 59.55729 65.12813 61.68229Z" fill-rule="nonzero"/><path fill="#ff004a" d="M30.55 85.916664C30.55 89.23038 27.863708 91.916664 24.55 91.916664C21.236292 91.916664 18.55 89.23038 18.55 85.916664C18.55 82.60296 21.236292 79.916664 24.55 79.916664C27.863708 79.916664 30.55 82.60296 30.55 85.916664Z" fill-rule="nonzero"/><path fill="#1a1a1a" d="M39.05 87.666664L40.159374 87.572914Q40.284374 88.385414 40.721874 88.791664Q41.175 89.197914 41.815624 89.197914Q42.565624 89.197914 43.096874 88.61979Q43.628124 88.041664 43.628124 87.104164Q43.628124 86.197914 43.1125 85.68229Q42.6125 85.15104 41.784374 85.15104Q41.284374 85.15104 40.8625 85.385414Q40.45625 85.61979 40.221874 85.979164L39.2375 85.854164L40.065624 81.447914L44.346874 81.447914L44.346874 82.447914L40.909374 82.447914L40.45625 84.760414Q41.221874 84.21354 42.065624 84.21354Q43.190624 84.21354 43.95625 84.99479Q44.7375 85.77604 44.7375 87.010414Q44.7375 88.166664 44.065624 89.02604Q43.2375 90.05729 41.815624 90.05729Q40.64375 90.05729 39.89375 89.40104Q39.159374 88.74479 39.05 87.666664ZM45.925 87.33854L45.925 86.27604L49.175 86.27604L49.175 87.33854L45.925 87.33854ZM55.596874 88.90104L55.596874 89.916664L49.909374 89.916664Q49.909374 89.541664 50.034374 89.18229Q50.253124 88.604164 50.721874 88.041664Q51.20625 87.479164 52.1125 86.74479Q53.51875 85.58854 54.003124 84.916664Q54.503124 84.24479 54.503124 83.65104Q54.503124 83.02604 54.05 82.604164Q53.596874 82.166664 52.878124 82.166664Q52.1125 82.166664 51.659374 82.61979Q51.20625 83.072914 51.190624 83.885414L50.1125 83.77604Q50.221874 82.55729 50.940624 81.93229Q51.675 81.291664 52.909374 81.291664Q54.14375 81.291664 54.8625 81.979164Q55.58125 82.666664 55.58125 83.68229Q55.58125 84.197914 55.3625 84.697914Q55.159374 85.18229 54.659374 85.74479Q54.175 86.291664 53.05 87.24479Q52.096874 88.041664 51.815624 88.33854Q51.55 88.61979 51.378124 88.90104L55.596874 88.90104ZM57.05 85.68229Q57.05 84.15104 57.3625 83.229164Q57.675 82.291664 58.284374 81.791664Q58.909374 81.291664 59.846874 81.291664Q60.534374 81.291664 61.05 81.572914Q61.58125 81.854164 61.925 82.385414Q62.26875 82.90104 62.45625 83.65104Q62.64375 84.40104 62.64375 85.68229Q62.64375 87.197914 62.33125 88.11979Q62.034374 89.041664 61.409374 89.55729Q60.8 90.05729 59.846874 90.05729Q58.6125 90.05729 57.89375 89.166664Q57.05 88.104164 57.05 85.68229ZM58.128124 85.68229Q58.128124 87.791664 58.628124 88.49479Q59.128124 89.197914 59.846874 89.197914Q60.58125 89.197914 61.065624 88.49479Q61.565624 87.791664 61.565624 85.68229Q61.565624 83.55729 61.065624 82.86979Q60.58125 82.166664 59.83125 82.166664Q59.1125 82.166664 58.675 82.77604Q58.128124 83.55729 58.128124 85.68229Z" fill-rule="nonzero"/><path fill="#ffff00" d="M30.55 109.916664C30.55 113.23038 27.863708 115.916664 24.55 115.916664C21.236292 115.916664 18.55 113.23038 18.55 109.916664C18.55 106.60296 21.236292 103.916664 24.55 103.916664C27.863708 103.916664 30.55 106.60296 30.55 109.916664Z" fill-rule="nonzero"/><path fill="#1a1a1a" d="M39.05 111.65104L40.1125 111.510414Q40.284374 112.40104 40.721874 112.80729Q41.159374 113.197914 41.784374 113.197914Q42.534374 113.197914 43.05 112.68229Q43.565624 112.166664 43.565624 111.40104Q43.565624 110.68229 43.08125 110.21354Q42.6125 109.729164 41.878124 109.729164Q41.58125 109.729164 41.128124 109.854164L41.253124 108.916664Q41.3625 108.93229 41.425 108.93229Q42.096874 108.93229 42.628124 108.58854Q43.175 108.229164 43.175 107.49479Q43.175 106.916664 42.784374 106.541664Q42.39375 106.15104 41.76875 106.15104Q41.159374 106.15104 40.7375 106.541664Q40.33125 106.93229 40.221874 107.697914L39.159374 107.510414Q39.346874 106.46354 40.034374 105.885414Q40.721874 105.291664 41.7375 105.291664Q42.440624 105.291664 43.034374 105.604164Q43.628124 105.90104 43.940624 106.416664Q44.253124 106.93229 44.253124 107.52604Q44.253124 108.072914 43.95625 108.541664Q43.659374 108.99479 43.08125 109.260414Q43.83125 109.43229 44.253124 109.99479Q44.675 110.541664 44.675 111.385414Q44.675 112.510414 43.846874 113.291664Q43.034374 114.072914 41.784374 114.072914Q40.659374 114.072914 39.909374 113.40104Q39.159374 112.71354 39.05 111.65104ZM50.01875 113.916664L48.971874 113.916664L48.971874 107.197914Q48.58125 107.55729 47.95625 107.93229Q47.346874 108.291664 46.8625 108.46354L46.8625 107.447914Q47.7375 107.02604 48.39375 106.447914Q49.065624 105.854164 49.346874 105.291664L50.01875 105.291664L50.01875 113.916664ZM52.925 111.33854L52.925 110.27604L56.175 110.27604L56.175 111.33854L52.925 111.33854ZM60.425 113.916664L60.425 111.854164L56.70625 111.854164L56.70625 110.885414L60.628124 105.322914L61.4875 105.322914L61.4875 110.885414L62.64375 110.885414L62.64375 111.854164L61.4875 111.854164L61.4875 113.916664L60.425 113.916664ZM60.425 110.885414L60.425 107.02604L57.7375 110.885414L60.425 110.885414ZM64.05 109.68229Q64.05 108.15104 64.3625 107.229164Q64.675 106.291664 65.28438 105.791664Q65.90938 105.291664 66.84688 105.291664Q67.53438 105.291664 68.05 105.572914Q68.58125 105.854164 68.925 106.385414Q69.26875 106.90104 69.45625 107.65104Q69.64375 108.40104 69.64375 109.68229Q69.64375 111.197914 69.33125 112.11979Q69.03438 113.041664 68.40938 113.55729Q67.8 114.05729 66.84688 114.05729Q65.6125 114.05729 64.89375 113.166664Q64.05 112.104164 64.05 109.68229ZM65.12813 109.68229Q65.12813 111.791664 65.62813 112.49479Q66.12813 113.197914 66.84688 113.197914Q67.58125 113.197914 68.06563 112.49479Q68.56563 111.791664 68.56563 109.68229Q68.56563 107.55729 68.06563 106.86979Q67.58125 106.166664 66.83125 106.166664Q66.1125 106.166664 65.675 106.77604Q65.12813 107.55729 65.12813 109.68229Z" fill-rule="nonzero"/><path fill="#00ff00" d="M30.55 133.91667C30.55 137.23038 27.863708 139.91667 24.55 139.91667C21.236292 139.91667 18.55 137.23038 18.55 133.91667C18.55 130.60295 21.236292 127.916664 24.55 127.916664C27.863708 127.916664 30.55 130.60295 30.55 133.91667Z" fill-rule="nonzero"/><path fill="#1a1a1a" d="M42.425 137.91667L42.425 135.85417L38.70625 135.85417L38.70625 134.88542L42.628124 129.32292L43.4875 129.32292L43.4875 134.88542L44.64375 134.88542L44.64375 135.85417L43.4875 135.85417L43.4875 137.91667L42.425 137.91667ZM42.425 134.88542L42.425 131.02605L39.7375 134.88542L42.425 134.88542ZM50.01875 137.91667L48.971874 137.91667L48.971874 131.19792Q48.58125 131.5573 47.95625 131.9323Q47.346874 132.29167 46.8625 132.46355L46.8625 131.44792Q47.7375 131.02605 48.39375 130.44792Q49.065624 129.85417 49.346874 129.29167L50.01875 129.29167L50.01875 137.91667ZM52.925 135.33855L52.925 134.27605L56.175 134.27605L56.175 135.33855L52.925 135.33855ZM57.05 135.66667L58.159374 135.57292Q58.284374 136.38542 58.721874 136.79167Q59.175 137.19792 59.815624 137.19792Q60.565624 137.19792 61.096874 136.6198Q61.628124 136.04167 61.628124 135.10417Q61.628124 134.19792 61.1125 133.6823Q60.6125 133.15105 59.784374 133.15105Q59.284374 133.15105 58.8625 133.38542Q58.45625 133.6198 58.221874 133.97917L57.2375 133.85417L58.065624 129.44792L62.346874 129.44792L62.346874 130.44792L58.909374 130.44792L58.45625 132.76042Q59.221874 132.21355 60.065624 132.21355Q61.190624 132.21355 61.95625 132.9948Q62.7375 133.77605 62.7375 135.01042Q62.7375 136.16667 62.065624 137.02605Q61.2375 138.0573 59.815624 138.0573Q58.64375 138.0573 57.89375 137.40105Q57.159374 136.7448 57.05 135.66667ZM64.05 133.6823Q64.05 132.15105 64.3625 131.22917Q64.675 130.29167 65.28438 129.79167Q65.90938 129.29167 66.84688 129.29167Q67.53438 129.29167 68.05 129.57292Q68.58125 129.85417 68.925 130.38542Q69.26875 130.90105 69.45625 131.65105Q69.64375 132.40105 69.64375 133.6823Q69.64375 135.19792 69.33125 136.1198Q69.03438 137.04167 68.40938 137.5573Q67.8 138.0573 66.84688 138.0573Q65.6125 138.0573 64.89375 137.16667Q64.05 136.10417 64.05 133.6823ZM65.12813 133.6823Q65.12813 135.79167 65.62813 136.4948Q66.12813 137.19792 66.84688 137.19792Q67.58125 137.19792 68.06563 136.4948Q68.56563 135.79167 68.56563 133.6823Q68.56563 131.5573 68.06563 130.8698Q67.58125 130.16667 66.83125 130.16667Q66.1125 130.16667 65.675 130.77605Q65.12813 131.5573 65.12813 133.6823Z" fill-rule="nonzero"/><path fill="#000000" d="M296.35938 37.55L293.21875 37.55L291.96875 34.3L286.25 34.3L285.0625 37.55L282.0 37.55L287.57812 23.2375L290.64062 23.2375L296.35938 37.55ZM291.04688 31.878124L289.07812 26.565624L287.14062 31.878124L291.04688 31.878124ZM296.1875 38.2375L299.3125 38.6125Q299.39062 39.159374 299.67188 39.3625Q300.0625 39.659374 300.90625 39.659374Q301.98438 39.659374 302.51562 39.33125Q302.875 39.128124 303.0625 38.64375Q303.1875 38.3 303.1875 37.378124L303.1875 35.8625Q301.96875 37.55 300.09375 37.55Q298.0 37.55 296.78125 35.784374Q295.82812 34.378124 295.82812 32.3Q295.82812 29.690624 297.07812 28.315624Q298.32812 26.940624 300.20312 26.940624Q302.125 26.940624 303.375 28.628124L303.375 27.175L305.9375 27.175L305.9375 36.4875Q305.9375 38.315624 305.625 39.221874Q305.32812 40.14375 304.78125 40.659374Q304.23438 41.175 303.3125 41.45625Q302.40625 41.753124 301.01562 41.753124Q298.375 41.753124 297.26562 40.846874Q296.17188 39.95625 296.17188 38.565624Q296.17188 38.425 296.1875 38.2375ZM298.64062 32.14375Q298.64062 33.8 299.26562 34.565624Q299.90625 35.33125 300.84375 35.33125Q301.85938 35.33125 302.54688 34.55Q303.25 33.753124 303.25 32.221874Q303.25 30.6125 302.57812 29.83125Q301.92188 29.05 300.90625 29.05Q299.90625 29.05 299.26562 29.815624Q298.64062 30.58125 298.64062 32.14375ZM314.4375 34.253124L317.17188 34.70625Q316.65625 36.20625 315.51562 37.003124Q314.375 37.784374 312.67188 37.784374Q309.95312 37.784374 308.65625 36.01875Q307.64062 34.596874 307.64062 32.440624Q307.64062 29.8625 308.98438 28.409374Q310.32812 26.940624 312.39062 26.940624Q314.70312 26.940624 316.03125 28.471874Q317.375 30.003124 317.32812 33.159374L310.45312 33.159374Q310.48438 34.378124 311.10938 35.065624Q311.75 35.7375 312.6875 35.7375Q313.34375 35.7375 313.78125 35.39375Q314.21875 35.034374 314.4375 34.253124ZM314.59375 31.471874Q314.5625 30.284374 313.96875 29.675Q313.39062 29.05 312.5625 29.05Q311.65625 29.05 311.07812 29.690624Q310.48438 30.346874 310.5 31.471874L314.59375 31.471874Z" fill-rule="nonzero"/></svg>