<svg version="1.1" viewBox="0.0 0.0 600.0 371.0" fill="none" stroke="none" stroke-linecap="square" stroke-miterlimit="10" width="600" height="371" xmlns:xlink="http://www.w3.org/1999/xlink" xmlns="http://www.w3.org/2000/svg"><path fill="#ffffff" d="M0 0L600.0 0L600.0 371.0L0 371.0L0 0Z" fill-rule="nonzero"/><path fill="#00b3b3" d="M189.91473 256.0709C173.3356 239.92876 164.41667 220.54974 164.41667 200.66875L164.41667 180.33125C164.41667 200.21223 173.3356 219.59126 189.91473 235.73338Z" fill-rule="nonzero"/><path fill="#00ffff" d="M189.91473 235.73338C160.2238 206.82507 156.14398 168.71613 179.34822 137.03305C202.55244 105.34998 249.13702 85.42292 300.0 85.42292L300.0 180.33125Z" fill-rule="nonzero"/><path fill="#b3b300" d="M241.17259 286.1782C220.76169 279.29764 203.1391 268.94666 189.91473 256.0709L189.91473 235.73338C203.1391 248.60916 220.76169 258.96014 241.17259 265.8407Z" fill-rule="nonzero"/><path fill="#ffff00" d="M241.17259 265.8407C220.76169 258.96014 203.1391 248.60916 189.91473 235.73338L300.0 180.33125Z" fill-rule="nonzero"/><path fill="#b30000" d="M435.58334 200.66875C435.58334 233.31123 411.61923 263.6631 372.13467 281.02994C332.65015 298.3968 283.18668 300.34125 241.17259 286.1782L241.17259 265.8407C283.18668 280.00375 332.65015 278.05927 372.13467 260.69244C411.61923 243.32559 435.58334 212.97372 435.58334 180.33125Z" fill-rule="nonzero"/><path fill="#ff0000" d="M300.0 85.42292C355.76257 85.42292 405.83862 109.32181 426.21097 145.65735C446.5833 181.99287 433.09692 223.35426 392.2201 249.90398C351.34323 276.4537 291.41293 282.77682 241.17259 265.8407L300.0 180.33125Z" fill-rule="nonzero"/><path fill="#000000" d="M372.34177 197.36737L373.63864 197.258Q373.77927 198.1955 374.2949 198.67987Q374.82614 199.14862 375.56052 199.14862Q376.45114 199.14862 377.06052 198.47675Q377.68552 197.80487 377.68552 196.71112Q377.68552 195.64862 377.09177 195.03925Q376.49802 194.42987 375.5449 194.42987Q374.95114 194.42987 374.46677 194.71112Q373.99802 194.97675 373.71677 195.39862L372.56052 195.258L373.52927 190.10175L378.51364 190.10175L378.51364 191.28925L374.51364 191.28925L373.9824 193.97675Q374.88864 193.35175 375.87302 193.35175Q377.18552 193.35175 378.07614 194.258Q378.9824 195.16425 378.9824 196.60175Q378.9824 197.96112 378.20114 198.9455Q377.2324 200.16425 375.56052 200.16425Q374.20114 200.16425 373.32614 199.39862Q372.46677 198.633 372.34177 197.36737ZM380.4199 191.28925L380.4199 190.10175L386.9199 190.10175L386.9199 191.05487Q385.95114 192.0705 385.01364 193.758Q384.07614 195.4455 383.56052 197.24237Q383.20114 198.49237 383.09177 199.99237L381.82614 199.99237Q381.84177 198.80487 382.27927 197.133Q382.7324 195.46112 383.56052 193.91425Q384.40427 192.35175 385.34177 191.28925L380.4199 191.28925ZM389.02927 199.99237L389.02927 198.58612L390.43552 198.58612L390.43552 199.99237L389.02927 199.99237ZM396.9824 199.99237L395.74802 199.99237L395.74802 192.14862Q395.31052 192.5705 394.57614 193.008Q393.8574 193.42987 393.2949 193.633L393.2949 192.4455Q394.32614 191.96112 395.09177 191.27362Q395.87302 190.58612 396.18552 189.92987L396.9824 189.92987L396.9824 199.99237ZM400.57614 192.383Q400.57614 191.30487 401.1074 190.55487Q401.65427 189.80487 402.68552 189.80487Q403.62302 189.80487 404.2324 190.47675Q404.8574 191.14862 404.8574 192.4455Q404.8574 193.72675 404.2324 194.41425Q403.6074 195.10175 402.70114 195.10175Q401.7949 195.10175 401.18552 194.42987Q400.57614 193.74237 400.57614 192.383ZM402.71677 190.64862Q402.26364 190.64862 401.95114 191.05487Q401.65427 191.4455 401.65427 192.49237Q401.65427 193.46112 401.95114 193.85175Q402.26364 194.24237 402.71677 194.24237Q403.18552 194.24237 403.4824 193.85175Q403.7949 193.46112 403.7949 192.39862Q403.7949 191.42987 403.4824 191.03925Q403.1699 190.64862 402.71677 190.64862ZM402.71677 200.36737L408.20114 189.80487L409.20114 189.80487L403.74802 200.36737L402.71677 200.36737ZM407.06052 197.633Q407.06052 196.55487 407.59177 195.8205Q408.13864 195.0705 409.1699 195.0705Q410.1074 195.0705 410.7324 195.74237Q411.3574 196.41425 411.3574 197.71112Q411.3574 198.99237 410.7324 199.67987Q410.1074 200.36737 409.1699 200.36737Q408.26364 200.36737 407.65427 199.6955Q407.06052 199.008 407.06052 197.633ZM409.20114 195.91425Q408.7324 195.91425 408.43552 196.3205Q408.13864 196.71112 408.13864 197.758Q408.13864 198.72675 408.43552 199.11737Q408.74802 199.508 409.20114 199.508Q409.6699 199.508 409.96677 199.11737Q410.27927 198.72675 410.27927 197.66425Q410.27927 196.6955 409.96677 196.30487Q409.6699 195.91425 409.20114 195.91425Z" fill-rule="nonzero"/><path fill="#000000" d="M224.90184 226.4769L224.90184 225.2894L231.40184 225.2894L231.40184 226.24252Q230.43309 227.25815 229.49559 228.94565Q228.55809 230.63315 228.04247 232.43002Q227.68309 233.68002 227.57372 235.18002L226.30809 235.18002Q226.32372 233.99252 226.76122 232.32065Q227.21434 230.64877 228.04247 229.1019Q228.88622 227.5394 229.82372 226.4769L224.90184 226.4769ZM233.51122 235.18002L233.51122 233.77377L234.91747 233.77377L234.91747 235.18002L233.51122 235.18002ZM237.01122 232.86752L238.19872 232.75815Q238.33934 233.58627 238.76122 233.96127Q239.19872 234.33627 239.85497 234.33627Q240.41747 234.33627 240.83934 234.08627Q241.27684 233.82065 241.54247 233.38315Q241.82372 232.94565 242.01122 232.21127Q242.19872 231.4769 242.19872 230.71127Q242.19872 230.63315 242.18309 230.46127Q241.82372 231.05502 241.18309 231.43002Q240.54247 231.7894 239.79247 231.7894Q238.54247 231.7894 237.68309 230.88315Q236.82372 229.9769 236.82372 228.50815Q236.82372 226.9769 237.71434 226.05502Q238.62059 225.11752 239.97997 225.11752Q240.94872 225.11752 241.76122 225.64877Q242.57372 226.1644 242.99559 227.14877Q243.41747 228.11752 243.41747 229.96127Q243.41747 231.88315 242.99559 233.02377Q242.58934 234.1644 241.76122 234.75815Q240.93309 235.3519 239.82372 235.3519Q238.65184 235.3519 237.90184 234.69565Q237.16747 234.0394 237.01122 232.86752ZM242.04247 228.44565Q242.04247 227.38315 241.47997 226.75815Q240.91747 226.13315 240.13622 226.13315Q239.30809 226.13315 238.69872 226.80502Q238.08934 227.4769 238.08934 228.5394Q238.08934 229.49252 238.66747 230.1019Q239.24559 230.69565 240.08934 230.69565Q240.94872 230.69565 241.49559 230.1019Q242.04247 229.49252 242.04247 228.44565ZM245.05809 227.57065Q245.05809 226.49252 245.58934 225.74252Q246.13622 224.99252 247.16747 224.99252Q248.10497 224.99252 248.71434 225.6644Q249.33934 226.33627 249.33934 227.63315Q249.33934 228.9144 248.71434 229.6019Q248.08934 230.2894 247.18309 230.2894Q246.27684 230.2894 245.66747 229.61752Q245.05809 228.93002 245.05809 227.57065ZM247.19872 225.83627Q246.74559 225.83627 246.43309 226.24252Q246.13622 226.63315 246.13622 227.68002Q246.13622 228.64877 246.43309 229.0394Q246.74559 229.43002 247.19872 229.43002Q247.66747 229.43002 247.96434 229.0394Q248.27684 228.64877 248.27684 227.58627Q248.27684 226.61752 247.96434 226.2269Q247.65184 225.83627 247.19872 225.83627ZM247.19872 235.55502L252.68309 224.99252L253.68309 224.99252L248.22997 235.55502L247.19872 235.55502ZM251.54247 232.82065Q251.54247 231.74252 252.07372 231.00815Q252.62059 230.25815 253.65184 230.25815Q254.58934 230.25815 255.21434 230.93002Q255.83934 231.6019 255.83934 232.89877Q255.83934 234.18002 255.21434 234.86752Q254.58934 235.55502 253.65184 235.55502Q252.74559 235.55502 252.13622 234.88315Q251.54247 234.19565 251.54247 232.82065ZM253.68309 231.1019Q253.21434 231.1019 252.91747 231.50815Q252.62059 231.89877 252.62059 232.94565Q252.62059 233.9144 252.91747 234.30502Q253.22997 234.69565 253.68309 234.69565Q254.15184 234.69565 254.44872 234.30502Q254.76122 233.9144 254.76122 232.8519Q254.76122 231.88315 254.44872 231.49252Q254.15184 231.1019 253.68309 231.1019Z" fill-rule="nonzero"/><path fill="#000000" d="M199.49986 153.58855L200.71861 153.41667Q200.93736 154.46355 201.43736 154.9323Q201.95299 155.38542 202.68736 155.38542Q203.56236 155.38542 204.15611 154.79167Q204.74986 154.1823 204.74986 153.29167Q204.74986 152.44792 204.18736 151.90105Q203.64049 151.35417 202.79674 151.35417Q202.43736 151.35417 201.92174 151.47917L202.06236 150.40105Q202.18736 150.41667 202.24986 150.41667Q203.04674 150.41667 203.67174 150.01042Q204.29674 149.60417 204.29674 148.7448Q204.29674 148.07292 203.84361 147.63542Q203.39049 147.1823 202.65611 147.1823Q201.93736 147.1823 201.45299 147.63542Q200.98424 148.07292 200.84361 148.97917L199.62486 148.76042Q199.84361 147.52605 200.64049 146.85417Q201.43736 146.16667 202.62486 146.16667Q203.45299 146.16667 204.14049 146.52605Q204.82799 146.8698 205.18736 147.47917Q205.56236 148.08855 205.56236 148.77605Q205.56236 149.41667 205.21861 149.94792Q204.87486 150.47917 204.18736 150.8073Q205.07799 151.01042 205.56236 151.65105Q206.06236 152.29167 206.06236 153.27605Q206.06236 154.58855 205.09361 155.4948Q204.14049 156.40105 202.68736 156.40105Q201.35924 156.40105 200.48424 155.6198Q199.62486 154.83855 199.49986 153.58855ZM211.43736 156.22917L211.43736 153.82292L207.07799 153.82292L207.07799 152.69792L211.65611 146.21355L212.65611 146.21355L212.65611 152.69792L214.01549 152.69792L214.01549 153.82292L212.65611 153.82292L212.65611 156.22917L211.43736 156.22917ZM211.43736 152.69792L211.43736 148.1823L208.29674 152.69792L211.43736 152.69792ZM216.17174 156.22917L216.17174 154.82292L217.57799 154.82292L217.57799 156.22917L216.17174 156.22917ZM219.67174 153.91667L220.85924 153.8073Q220.99986 154.63542 221.42174 155.01042Q221.85924 155.38542 222.51549 155.38542Q223.07799 155.38542 223.49986 155.13542Q223.93736 154.8698 224.20299 154.4323Q224.48424 153.9948 224.67174 153.26042Q224.85924 152.52605 224.85924 151.76042Q224.85924 151.6823 224.84361 151.51042Q224.48424 152.10417 223.84361 152.47917Q223.20299 152.83855 222.45299 152.83855Q221.20299 152.83855 220.34361 151.9323Q219.48424 151.02605 219.48424 149.5573Q219.48424 148.02605 220.37486 147.10417Q221.28111 146.16667 222.64049 146.16667Q223.60924 146.16667 224.42174 146.69792Q225.23424 147.21355 225.65611 148.19792Q226.07799 149.16667 226.07799 151.01042Q226.07799 152.9323 225.65611 154.07292Q225.24986 155.21355 224.42174 155.8073Q223.59361 156.40105 222.48424 156.40105Q221.31236 156.40105 220.56236 155.7448Q219.82799 155.08855 219.67174 153.91667ZM224.70299 149.4948Q224.70299 148.4323 224.14049 147.8073Q223.57799 147.1823 222.79674 147.1823Q221.96861 147.1823 221.35924 147.85417Q220.74986 148.52605 220.74986 149.58855Q220.74986 150.54167 221.32799 151.15105Q221.90611 151.7448 222.74986 151.7448Q223.60924 151.7448 224.15611 151.15105Q224.70299 150.54167 224.70299 149.4948ZM227.71861 148.6198Q227.71861 147.54167 228.24986 146.79167Q228.79674 146.04167 229.82799 146.04167Q230.76549 146.04167 231.37486 146.71355Q231.99986 147.38542 231.99986 148.6823Q231.99986 149.96355 231.37486 150.65105Q230.74986 151.33855 229.84361 151.33855Q228.93736 151.33855 228.32799 150.66667Q227.71861 149.97917 227.71861 148.6198ZM229.85924 146.88542Q229.40611 146.88542 229.09361 147.29167Q228.79674 147.6823 228.79674 148.72917Q228.79674 149.69792 229.09361 150.08855Q229.40611 150.47917 229.85924 150.47917Q230.32799 150.47917 230.62486 150.08855Q230.93736 149.69792 230.93736 148.63542Q230.93736 147.66667 230.62486 147.27605Q230.31236 146.88542 229.85924 146.88542ZM229.85924 156.60417L235.34361 146.04167L236.34361 146.04167L230.89049 156.60417L229.85924 156.60417ZM234.20299 153.8698Q234.20299 152.79167 234.73424 152.0573Q235.28111 151.3073 236.31236 151.3073Q237.24986 151.3073 237.87486 151.97917Q238.49986 152.65105 238.49986 153.94792Q238.49986 155.22917 237.87486 155.91667Q237.24986 156.60417 236.31236 156.60417Q235.40611 156.60417 234.79674 155.9323Q234.20299 155.2448 234.20299 153.8698ZM236.34361 152.15105Q235.87486 152.15105 235.57799 152.5573Q235.28111 152.94792 235.28111 153.9948Q235.28111 154.96355 235.57799 155.35417Q235.89049 155.7448 236.34361 155.7448Q236.81236 155.7448 237.10924 155.35417Q237.42174 154.96355 237.42174 153.90105Q237.42174 152.9323 237.10924 152.54167Q236.81236 152.15105 236.34361 152.15105Z" fill-rule="nonzero"/><path fill="#ff0000" d="M144.0 345.45C144.0 348.7637 141.3137 351.45 138.0 351.45C134.6863 351.45 132.0 348.7637 132.0 345.45C132.0 342.1363 134.6863 339.45 138.0 339.45C141.3137 339.45 144.0 342.1363 144.0 345.45Z" fill-rule="nonzero"/><path fill="#1a1a1a" d="M155.375 349.45L152.04688 340.85626L153.28125 340.85626L155.51562 347.10626Q155.78125 347.85626 155.96875 348.5125Q156.17188 347.8094 156.4375 347.10626L158.75 340.85626L159.90625 340.85626L156.54688 349.45L155.375 349.45ZM164.04688 347.45L165.14062 347.575Q164.89062 348.52814 164.1875 349.0594Q163.48438 349.59064 162.40625 349.59064Q161.04688 349.59064 160.23438 348.7469Q159.4375 347.90314 159.4375 346.3875Q159.4375 344.825 160.25 343.96564Q161.0625 343.09064 162.34375 343.09064Q163.59375 343.09064 164.375 343.9344Q165.17188 344.77814 165.17188 346.325Q165.17188 346.41876 165.17188 346.60626L160.53125 346.60626Q160.59375 347.6375 161.10938 348.1844Q161.625 348.71564 162.40625 348.71564Q162.98438 348.71564 163.39062 348.41876Q163.8125 348.10626 164.04688 347.45ZM160.59375 345.7469L164.0625 345.7469Q164.0 344.95 163.67188 344.5594Q163.15625 343.95 162.35938 343.95Q161.625 343.95 161.125 344.4344Q160.64062 344.91876 160.59375 345.7469ZM166.78125 349.45L166.78125 343.23126L167.73438 343.23126L167.73438 344.16876Q168.09375 343.5125 168.39062 343.3094Q168.70312 343.09064 169.07812 343.09064Q169.60938 343.09064 170.15625 343.41876L169.79688 344.40314Q169.40625 344.16876 169.03125 344.16876Q168.67188 344.16876 168.39062 344.3875Q168.125 344.59064 168.01562 344.96564Q167.82812 345.52814 167.82812 346.1844L167.82812 349.45L166.78125 349.45ZM170.75 351.84064L170.625 350.85626Q170.96875 350.95 171.23438 350.95Q171.57812 350.95 171.78125 350.825Q172.0 350.71564 172.14062 350.5125Q172.23438 350.34064 172.46875 349.71564Q172.48438 349.6375 172.5625 349.46564L170.1875 343.23126L171.32812 343.23126L172.625 346.825Q172.875 347.5125 173.07812 348.27814Q173.26562 347.54376 173.51562 346.85626L174.84375 343.23126L175.89062 343.23126L173.53125 349.5594Q173.14062 350.575 172.9375 350.96564Q172.65625 351.4969 172.28125 351.73126Q171.92188 351.98126 171.42188 351.98126Q171.125 351.98126 170.75 351.84064ZM178.79688 342.075L178.79688 340.85626L179.85938 340.85626L179.85938 342.075L178.79688 342.075ZM178.79688 349.45L178.79688 343.23126L179.85938 343.23126L179.85938 349.45L178.79688 349.45ZM181.79688 349.45L181.79688 343.23126L182.73438 343.23126L182.73438 344.10626Q183.03125 343.6375 183.51562 343.3719Q184.0 343.09064 184.625 343.09064Q185.3125 343.09064 185.75 343.3719Q186.20312 343.65314 186.375 344.16876Q187.125 343.09064 188.29688 343.09064Q189.23438 343.09064 189.71875 343.60626Q190.21875 344.10626 190.21875 345.1844L190.21875 349.45L189.17188 349.45L189.17188 345.52814Q189.17188 344.90314 189.0625 344.6219Q188.96875 344.34064 188.70312 344.16876Q188.4375 343.9969 188.0625 343.9969Q187.40625 343.9969 186.96875 344.4344Q186.54688 344.8719 186.54688 345.84064L186.54688 349.45L185.48438 349.45L185.48438 345.40314Q185.48438 344.7 185.21875 344.35626Q184.96875 343.9969 184.39062 343.9969Q183.9375 343.9969 183.5625 344.23126Q183.1875 344.46564 183.01562 344.91876Q182.84375 345.3719 182.84375 346.21564L182.84375 349.45L181.79688 349.45ZM192.79688 351.84064L192.79688 343.23126L193.75 343.23126L193.75 344.02814Q194.09375 343.5594 194.51562 343.325Q194.95312 343.09064 195.5625 343.09064Q196.35938 343.09064 196.96875 343.4969Q197.57812 343.90314 197.875 344.65314Q198.1875 345.40314 198.1875 346.29376Q198.1875 347.2469 197.84375 348.0125Q197.51562 348.77814 196.85938 349.1844Q196.20312 349.59064 195.48438 349.59064Q194.95312 349.59064 194.53125 349.3719Q194.10938 349.1375 193.84375 348.8094L193.84375 351.84064L192.79688 351.84064ZM193.75 346.3719Q193.75 347.575 194.23438 348.15314Q194.71875 348.71564 195.40625 348.71564Q196.10938 348.71564 196.60938 348.1219Q197.10938 347.52814 197.10938 346.27814Q197.10938 345.09064 196.625 344.5125Q196.14062 343.91876 195.45312 343.91876Q194.78125 343.91876 194.26562 344.54376Q193.75 345.16876 193.75 346.3719ZM199.40625 346.34064Q199.40625 344.60626 200.35938 343.77814Q201.15625 343.09064 202.3125 343.09064Q203.59375 343.09064 204.40625 343.9344Q205.23438 344.7625 205.23438 346.2469Q205.23438 347.45 204.875 348.1375Q204.51562 348.825 203.8125 349.21564Q203.125 349.59064 202.3125 349.59064Q201.01562 349.59064 200.20312 348.7625Q199.40625 347.91876 199.40625 346.34064ZM200.48438 346.34064Q200.48438 347.52814 201.0 348.1219Q201.53125 348.71564 202.3125 348.71564Q203.10938 348.71564 203.625 348.1219Q204.14062 347.52814 204.14062 346.3094Q204.14062 345.15314 203.60938 344.5594Q203.09375 343.96564 202.3125 343.96564Q201.53125 343.96564 201.0 344.5594Q200.48438 345.1375 200.48438 346.34064ZM206.78125 349.45L206.78125 343.23126L207.73438 343.23126L207.73438 344.16876Q208.09375 343.5125 208.39062 343.3094Q208.70312 343.09064 209.07812 343.09064Q209.60938 343.09064 210.15625 343.41876L209.79688 344.40314Q209.40625 344.16876 209.03125 344.16876Q208.67188 344.16876 208.39062 344.3875Q208.125 344.59064 208.01562 344.96564Q207.82812 345.52814 207.82812 346.1844L207.82812 349.45L206.78125 349.45ZM213.09375 348.5125L213.25 349.4344Q212.79688 349.52814 212.45312 349.52814Q211.875 349.52814 211.5625 349.35626Q211.25 349.16876 211.10938 348.8719Q210.98438 348.575 210.98438 347.6219L210.98438 344.04376L210.21875 344.04376L210.21875 343.23126L210.98438 343.23126L210.98438 341.6844L212.03125 341.0594L212.03125 343.23126L213.09375 343.23126L213.09375 344.04376L212.03125 344.04376L212.03125 347.6844Q212.03125 348.1375 212.07812 348.2625Q212.14062 348.3875 212.26562 348.46564Q212.39062 348.54376 212.625 348.54376Q212.8125 348.54376 213.09375 348.5125ZM217.85938 348.6844Q217.26562 349.1844 216.71875 349.3875Q216.1875 349.59064 215.5625 349.59064Q214.53125 349.59064 213.98438 349.09064Q213.4375 348.59064 213.4375 347.8094Q213.4375 347.35626 213.64062 346.98126Q213.84375 346.59064 214.1875 346.3719Q214.53125 346.1375 214.95312 346.02814Q215.25 345.9344 215.89062 345.85626Q217.15625 345.71564 217.76562 345.4969Q217.76562 345.27814 217.76562 345.23126Q217.76562 344.575 217.46875 344.3094Q217.0625 343.96564 216.26562 343.96564Q215.53125 343.96564 215.17188 344.23126Q214.8125 344.48126 214.64062 345.1375L213.60938 344.9969Q213.75 344.34064 214.07812 343.9344Q214.40625 343.52814 215.01562 343.3094Q215.625 343.09064 216.42188 343.09064Q217.21875 343.09064 217.71875 343.27814Q218.21875 343.46564 218.45312 343.7469Q218.6875 344.02814 218.78125 344.46564Q218.82812 344.73126 218.82812 345.4344L218.82812 346.84064Q218.82812 348.3094 218.89062 348.7Q218.96875 349.09064 219.17188 349.45L218.0625 349.45Q217.90625 349.1219 217.85938 348.6844ZM217.76562 346.325Q217.1875 346.5594 216.04688 346.73126Q215.39062 346.825 215.125 346.95Q214.85938 347.0594 214.70312 347.27814Q214.5625 347.4969 214.5625 347.77814Q214.5625 348.2 214.875 348.48126Q215.20312 348.7625 215.8125 348.7625Q216.42188 348.7625 216.89062 348.4969Q217.375 348.23126 217.59375 347.7625Q217.76562 347.40314 217.76562 346.71564L217.76562 346.325ZM220.79688 349.45L220.79688 343.23126L221.73438 343.23126L221.73438 344.10626Q222.42188 343.09064 223.71875 343.09064Q224.28125 343.09064 224.75 343.29376Q225.23438 343.4969 225.46875 343.825Q225.70312 344.15314 225.79688 344.59064Q225.84375 344.8875 225.84375 345.6219L225.84375 349.45L224.79688 349.45L224.79688 345.66876Q224.79688 345.0125 224.67188 344.7Q224.54688 344.3875 224.23438 344.2Q223.92188 343.9969 223.5 343.9969Q222.82812 343.9969 222.32812 344.4344Q221.84375 344.85626 221.84375 346.04376L221.84375 349.45L220.79688 349.45ZM230.09375 348.5125L230.25 349.4344Q229.79688 349.52814 229.45312 349.52814Q228.875 349.52814 228.5625 349.35626Q228.25 349.16876 228.10938 348.8719Q227.98438 348.575 227.98438 347.6219L227.98438 344.04376L227.21875 344.04376L227.21875 343.23126L227.98438 343.23126L227.98438 341.6844L229.03125 341.0594L229.03125 343.23126L230.09375 343.23126L230.09375 344.04376L229.03125 344.04376L229.03125 347.6844Q229.03125 348.1375 229.07812 348.2625Q229.14062 348.3875 229.26562 348.46564Q229.39062 348.54376 229.625 348.54376Q229.8125 348.54376 230.09375 348.5125Z" fill-rule="nonzero"/><path fill="#ffff00" d="M258.0 345.45C258.0 348.7637 255.3137 351.45 252.0 351.45C248.6863 351.45 246.0 348.7637 246.0 345.45C246.0 342.1363 248.6863 339.45 252.0 339.45C255.3137 339.45 258.0 342.1363 258.0 345.45Z" fill-rule="nonzero"/><path fill="#1a1a1a" d="M266.54688 346.6844L267.60938 346.59064Q267.6875 347.2469 267.96875 347.65314Q268.25 348.0594 268.82812 348.325Q269.42188 348.575 270.15625 348.575Q270.79688 348.575 271.29688 348.3875Q271.79688 348.1844 272.03125 347.85626Q272.28125 347.5125 272.28125 347.1219Q272.28125 346.71564 272.04688 346.41876Q271.8125 346.10626 271.28125 345.90314Q270.92188 345.7625 269.73438 345.48126Q268.5625 345.2 268.09375 344.95Q267.46875 344.6219 267.17188 344.15314Q266.875 343.66876 266.875 343.075Q266.875 342.4344 267.23438 341.8719Q267.60938 341.29376 268.3125 341.0125Q269.03125 340.71564 269.89062 340.71564Q270.84375 340.71564 271.57812 341.02814Q272.3125 341.325 272.70312 341.9344Q273.09375 342.52814 273.125 343.27814L272.03125 343.35626Q271.9375 342.54376 271.42188 342.1375Q270.92188 341.71564 269.9375 341.71564Q268.90625 341.71564 268.4375 342.09064Q267.96875 342.46564 267.96875 342.9969Q267.96875 343.46564 268.29688 343.7625Q268.625 344.0594 270.0 344.3719Q271.39062 344.6844 271.90625 344.91876Q272.65625 345.27814 273.01562 345.8094Q273.375 346.325 273.375 347.02814Q273.375 347.71564 272.98438 348.325Q272.59375 348.91876 271.85938 349.2625Q271.125 349.59064 270.20312 349.59064Q269.03125 349.59064 268.23438 349.2625Q267.45312 348.91876 267.0 348.23126Q266.5625 347.54376 266.54688 346.6844ZM274.40625 346.34064Q274.40625 344.60626 275.35938 343.77814Q276.15625 343.09064 277.3125 343.09064Q278.59375 343.09064 279.40625 343.9344Q280.23438 344.7625 280.23438 346.2469Q280.23438 347.45 279.875 348.1375Q279.51562 348.825 278.8125 349.21564Q278.125 349.59064 277.3125 349.59064Q276.01562 349.59064 275.20312 348.7625Q274.40625 347.91876 274.40625 346.34064ZM275.48438 346.34064Q275.48438 347.52814 276.0 348.1219Q276.53125 348.71564 277.3125 348.71564Q278.10938 348.71564 278.625 348.1219Q279.14062 347.52814 279.14062 346.3094Q279.14062 345.15314 278.60938 344.5594Q278.09375 343.96564 277.3125 343.96564Q276.53125 343.96564 276.0 344.5594Q275.48438 345.1375 275.48438 346.34064ZM281.79688 349.45L281.79688 343.23126L282.73438 343.23126L282.73438 344.10626Q283.03125 343.6375 283.51562 343.3719Q284.0 343.09064 284.625 343.09064Q285.3125 343.09064 285.75 343.3719Q286.20312 343.65314 286.375 344.16876Q287.125 343.09064 288.29688 343.09064Q289.23438 343.09064 289.71875 343.60626Q290.21875 344.10626 290.21875 345.1844L290.21875 349.45L289.17188 349.45L289.17188 345.52814Q289.17188 344.90314 289.0625 344.6219Q288.96875 344.34064 288.70312 344.16876Q288.4375 343.9969 288.0625 343.9969Q287.40625 343.9969 286.96875 344.4344Q286.54688 344.8719 286.54688 345.84064L286.54688 349.45L285.48438 349.45L285.48438 345.40314Q285.48438 344.7 285.21875 344.35626Q284.96875 343.9969 284.39062 343.9969Q283.9375 343.9969 283.5625 344.23126Q283.1875 344.46564 283.01562 344.91876Q282.84375 345.3719 282.84375 346.21564L282.84375 349.45L281.79688 349.45ZM297.04688 347.45L298.14062 347.575Q297.89062 348.52814 297.1875 349.0594Q296.48438 349.59064 295.40625 349.59064Q294.04688 349.59064 293.23438 348.7469Q292.4375 347.90314 292.4375 346.3875Q292.4375 344.825 293.25 343.96564Q294.0625 343.09064 295.34375 343.09064Q296.59375 343.09064 297.375 343.9344Q298.17188 344.77814 298.17188 346.325Q298.17188 346.41876 298.17188 346.60626L293.53125 346.60626Q293.59375 347.6375 294.10938 348.1844Q294.625 348.71564 295.40625 348.71564Q295.98438 348.71564 296.39062 348.41876Q296.8125 348.10626 297.04688 347.45ZM293.59375 345.7469L297.0625 345.7469Q297.0 344.95 296.67188 344.5594Q296.15625 343.95 295.35938 343.95Q294.625 343.95 294.125 344.4344Q293.64062 344.91876 293.59375 345.7469ZM300.9375 349.45L299.03125 343.23126L300.125 343.23126L301.10938 346.825L301.48438 348.15314Q301.51562 348.0594 301.8125 346.8719L302.79688 343.23126L303.875 343.23126L304.8125 346.84064L305.125 348.02814L305.48438 346.825L306.54688 343.23126L307.57812 343.23126L305.625 349.45L304.53125 349.45L303.54688 345.71564L303.29688 344.66876L302.04688 349.45L300.9375 349.45ZM308.79688 349.45L308.79688 340.85626L309.84375 340.85626L309.84375 343.9344Q310.57812 343.09064 311.70312 343.09064Q312.40625 343.09064 312.90625 343.3719Q313.42188 343.6375 313.64062 344.1219Q313.85938 344.59064 313.85938 345.5125L313.85938 349.45L312.8125 349.45L312.8125 345.5125Q312.8125 344.71564 312.46875 344.35626Q312.125 343.9969 311.5 343.9969Q311.03125 343.9969 310.60938 344.2469Q310.20312 344.48126 310.01562 344.90314Q309.84375 345.3094 309.84375 346.04376L309.84375 349.45L308.79688 349.45ZM319.85938 348.6844Q319.26562 349.1844 318.71875 349.3875Q318.1875 349.59064 317.5625 349.59064Q316.53125 349.59064 315.98438 349.09064Q315.4375 348.59064 315.4375 347.8094Q315.4375 347.35626 315.64062 346.98126Q315.84375 346.59064 316.1875 346.3719Q316.53125 346.1375 316.95312 346.02814Q317.25 345.9344 317.89062 345.85626Q319.15625 345.71564 319.76562 345.4969Q319.76562 345.27814 319.76562 345.23126Q319.76562 344.575 319.46875 344.3094Q319.0625 343.96564 318.26562 343.96564Q317.53125 343.96564 317.17188 344.23126Q316.8125 344.48126 316.64062 345.1375L315.60938 344.9969Q315.75 344.34064 316.07812 343.9344Q316.40625 343.52814 317.01562 343.3094Q317.625 343.09064 318.42188 343.09064Q319.21875 343.09064 319.71875 343.27814Q320.21875 343.46564 320.45312 343.7469Q320.6875 344.02814 320.78125 344.46564Q320.82812 344.73126 320.82812 345.4344L320.82812 346.84064Q320.82812 348.3094 320.89062 348.7Q320.96875 349.09064 321.17188 349.45L320.0625 349.45Q319.90625 349.1219 319.85938 348.6844ZM319.76562 346.325Q319.1875 346.5594 318.04688 346.73126Q317.39062 346.825 317.125 346.95Q316.85938 347.0594 316.70312 347.27814Q316.5625 347.4969 316.5625 347.77814Q316.5625 348.2 316.875 348.48126Q317.20312 348.7625 317.8125 348.7625Q318.42188 348.7625 318.89062 348.4969Q319.375 348.23126 319.59375 347.7625Q319.76562 347.40314 319.76562 346.71564L319.76562 346.325ZM325.09375 348.5125L325.25 349.4344Q324.79688 349.52814 324.45312 349.52814Q323.875 349.52814 323.5625 349.35626Q323.25 349.16876 323.10938 348.8719Q322.98438 348.575 322.98438 347.6219L322.98438 344.04376L322.21875 344.04376L322.21875 343.23126L322.98438 343.23126L322.98438 341.6844L324.03125 341.0594L324.03125 343.23126L325.09375 343.23126L325.09375 344.04376L324.03125 344.04376L324.03125 347.6844Q324.03125 348.1375 324.07812 348.2625Q324.14062 348.3875 324.26562 348.46564Q324.39062 348.54376 324.625 348.54376Q324.8125 348.54376 325.09375 348.5125ZM328.79688 342.075L328.79688 340.85626L329.85938 340.85626L329.85938 342.075L328.79688 342.075ZM328.79688 349.45L328.79688 343.23126L329.85938 343.23126L329.85938 349.45L328.79688 349.45ZM331.79688 349.45L331.79688 343.23126L332.73438 343.23126L332.73438 344.10626Q333.03125 343.6375 333.51562 343.3719Q334.0 343.09064 334.625 343.09064Q335.3125 343.09064 335.75 343.3719Q336.20312 343.65314 336.375 344.16876Q337.125 343.09064 338.29688 343.09064Q339.23438 343.09064 339.71875 343.60626Q340.21875 344.10626 340.21875 345.1844L340.21875 349.45L339.17188 349.45L339.17188 345.52814Q339.17188 344.90314 339.0625 344.6219Q338.96875 344.34064 338.70312 344.16876Q338.4375 343.9969 338.0625 343.9969Q337.40625 343.9969 336.96875 344.4344Q336.54688 344.8719 336.54688 345.84064L336.54688 349.45L335.48438 349.45L335.48438 345.40314Q335.48438 344.7 335.21875 344.35626Q334.96875 343.9969 334.39062 343.9969Q333.9375 343.9969 333.5625 344.23126Q333.1875 344.46564 333.01562 344.91876Q332.84375 345.3719 332.84375 346.21564L332.84375 349.45L331.79688 349.45ZM342.79688 351.84064L342.79688 343.23126L343.75 343.23126L343.75 344.02814Q344.09375 343.5594 344.51562 343.325Q344.95312 343.09064 345.5625 343.09064Q346.35938 343.09064 346.96875 343.4969Q347.57812 343.90314 347.875 344.65314Q348.1875 345.40314 348.1875 346.29376Q348.1875 347.2469 347.84375 348.0125Q347.51562 348.77814 346.85938 349.1844Q346.20312 349.59064 345.48438 349.59064Q344.95312 349.59064 344.53125 349.3719Q344.10938 349.1375 343.84375 348.8094L343.84375 351.84064L342.79688 351.84064ZM343.75 346.3719Q343.75 347.575 344.23438 348.15314Q344.71875 348.71564 345.40625 348.71564Q346.10938 348.71564 346.60938 348.1219Q347.10938 347.52814 347.10938 346.27814Q347.10938 345.09064 346.625 344.5125Q346.14062 343.91876 345.45312 343.91876Q344.78125 343.91876 344.26562 344.54376Q343.75 345.16876 343.75 346.3719ZM349.40625 346.34064Q349.40625 344.60626 350.35938 343.77814Q351.15625 343.09064 352.3125 343.09064Q353.59375 343.09064 354.40625 343.9344Q355.23438 344.7625 355.23438 346.2469Q355.23438 347.45 354.875 348.1375Q354.51562 348.825 353.8125 349.21564Q353.125 349.59064 352.3125 349.59064Q351.01562 349.59064 350.20312 348.7625Q349.40625 347.91876 349.40625 346.34064ZM350.48438 346.34064Q350.48438 347.52814 351.0 348.1219Q351.53125 348.71564 352.3125 348.71564Q353.10938 348.71564 353.625 348.1219Q354.14062 347.52814 354.14062 346.3094Q354.14062 345.15314 353.60938 344.5594Q353.09375 343.96564 352.3125 343.96564Q351.53125 343.96564 351.0 344.5594Q350.48438 345.1375 350.48438 346.34064ZM356.78125 349.45L356.78125 343.23126L357.73438 343.23126L357.73438 344.16876Q358.09375 343.5125 358.39062 343.3094Q358.70312 343.09064 359.07812 343.09064Q359.60938 343.09064 360.15625 343.41876L359.79688 344.40314Q359.40625 344.16876 359.03125 344.16876Q358.67188 344.16876 358.39062 344.3875Q358.125 344.59064 358.01562 344.96564Q357.82812 345.52814 357.82812 346.1844L357.82812 349.45L356.78125 349.45ZM363.09375 348.5125L363.25 349.4344Q362.79688 349.52814 362.45312 349.52814Q361.875 349.52814 361.5625 349.35626Q361.25 349.16876 361.10938 348.8719Q360.98438 348.575 360.98438 347.6219L360.98438 344.04376L360.21875 344.04376L360.21875 343.23126L360.98438 343.23126L360.98438 341.6844L362.03125 341.0594L362.03125 343.23126L363.09375 343.23126L363.09375 344.04376L362.03125 344.04376L362.03125 347.6844Q362.03125 348.1375 362.07812 348.2625Q362.14062 348.3875 362.26562 348.46564Q362.39062 348.54376 362.625 348.54376Q362.8125 348.54376 363.09375 348.5125ZM367.85938 348.6844Q367.26562 349.1844 366.71875 349.3875Q366.1875 349.59064 365.5625 349.59064Q364.53125 349.59064 363.98438 349.09064Q363.4375 348.59064 363.4375 347.8094Q363.4375 347.35626 363.64062 346.98126Q363.84375 346.59064 364.1875 346.3719Q364.53125 346.1375 364.95312 346.02814Q365.25 345.9344 365.89062 345.85626Q367.15625 345.71564 367.76562 345.4969Q367.76562 345.27814 367.76562 345.23126Q367.76562 344.575 367.46875 344.3094Q367.0625 343.96564 366.26562 343.96564Q365.53125 343.96564 365.17188 344.23126Q364.8125 344.48126 364.64062 345.1375L363.60938 344.9969Q363.75 344.34064 364.07812 343.9344Q364.40625 343.52814 365.01562 343.3094Q365.625 343.09064 366.42188 343.09064Q367.21875 343.09064 367.71875 343.27814Q368.21875 343.46564 368.45312 343.7469Q368.6875 344.02814 368.78125 344.46564Q368.82812 344.73126 368.82812 345.4344L368.82812 346.84064Q368.82812 348.3094 368.89062 348.7Q368.96875 349.09064 369.17188 349.45L368.0625 349.45Q367.90625 349.1219 367.85938 348.6844ZM367.76562 346.325Q367.1875 346.5594 366.04688 346.73126Q365.39062 346.825 365.125 346.95Q364.85938 347.0594 364.70312 347.27814Q364.5625 347.4969 364.5625 347.77814Q364.5625 348.2 364.875 348.48126Q365.20312 348.7625 365.8125 348.7625Q366.42188 348.7625 366.89062 348.4969Q367.375 348.23126 367.59375 347.7625Q367.76562 347.40314 367.76562 346.71564L367.76562 346.325ZM370.79688 349.45L370.79688 343.23126L371.73438 343.23126L371.73438 344.10626Q372.42188 343.09064 373.71875 343.09064Q374.28125 343.09064 374.75 343.29376Q375.23438 343.4969 375.46875 343.825Q375.70312 344.15314 375.79688 344.59064Q375.84375 344.8875 375.84375 345.6219L375.84375 349.45L374.79688 349.45L374.79688 345.66876Q374.79688 345.0125 374.67188 344.7Q374.54688 344.3875 374.23438 344.2Q373.92188 343.9969 373.5 343.9969Q372.82812 343.9969 372.32812 344.4344Q371.84375 344.85626 371.84375 346.04376L371.84375 349.45L370.79688 349.45ZM380.09375 348.5125L380.25 349.4344Q379.79688 349.52814 379.45312 349.52814Q378.875 349.52814 378.5625 349.35626Q378.25 349.16876 378.10938 348.8719Q377.98438 348.575 377.98438 347.6219L377.98438 344.04376L377.21875 344.04376L377.21875 343.23126L377.98438 343.23126L377.98438 341.6844L379.03125 341.0594L379.03125 343.23126L380.09375 343.23126L380.09375 344.04376L379.03125 344.04376L379.03125 347.6844Q379.03125 348.1375 379.07812 348.2625Q379.14062 348.3875 379.26562 348.46564Q379.39062 348.54376 379.625 348.54376Q379.8125 348.54376 380.09375 348.5125Z" fill-rule="nonzero"/><path fill="#00ffff" d="M408.0 345.45C408.0 348.7637 405.31372 351.45 402.0 351.45C398.68628 351.45 396.0 348.7637 396.0 345.45C396.0 342.1363 398.68628 339.45 402.0 339.45C405.31372 339.45 408.0 342.1363 408.0 345.45Z" fill-rule="nonzero"/><path fill="#1a1a1a" d="M417.125 349.45L417.125 340.85626L418.25 340.85626L418.25 349.45L417.125 349.45ZM419.79688 349.45L419.79688 343.23126L420.73438 343.23126L420.73438 344.10626Q421.03125 343.6375 421.51562 343.3719Q422.0 343.09064 422.625 343.09064Q423.3125 343.09064 423.75 343.3719Q424.20312 343.65314 424.375 344.16876Q425.125 343.09064 426.29688 343.09064Q427.23438 343.09064 427.71875 343.60626Q428.21875 344.10626 428.21875 345.1844L428.21875 349.45L427.17188 349.45L427.17188 345.52814Q427.17188 344.90314 427.0625 344.6219Q426.96875 344.34064 426.70312 344.16876Q426.4375 343.9969 426.0625 343.9969Q425.40625 343.9969 424.96875 344.4344Q424.54688 344.8719 424.54688 345.84064L424.54688 349.45L423.48438 349.45L423.48438 345.40314Q423.48438 344.7 423.21875 344.35626Q422.96875 343.9969 422.39062 343.9969Q421.9375 343.9969 421.5625 344.23126Q421.1875 344.46564 421.01562 344.91876Q420.84375 345.3719 420.84375 346.21564L420.84375 349.45L419.79688 349.45ZM430.79688 351.84064L430.79688 343.23126L431.75 343.23126L431.75 344.02814Q432.09375 343.5594 432.51562 343.325Q432.95312 343.09064 433.5625 343.09064Q434.35938 343.09064 434.96875 343.4969Q435.57812 343.90314 435.875 344.65314Q436.1875 345.40314 436.1875 346.29376Q436.1875 347.2469 435.84375 348.0125Q435.51562 348.77814 434.85938 349.1844Q434.20312 349.59064 433.48438 349.59064Q432.95312 349.59064 432.53125 349.3719Q432.10938 349.1375 431.84375 348.8094L431.84375 351.84064L430.79688 351.84064ZM431.75 346.3719Q431.75 347.575 432.23438 348.15314Q432.71875 348.71564 433.40625 348.71564Q434.10938 348.71564 434.60938 348.1219Q435.10938 347.52814 435.10938 346.27814Q435.10938 345.09064 434.625 344.5125Q434.14062 343.91876 433.45312 343.91876Q432.78125 343.91876 432.26562 344.54376Q431.75 345.16876 431.75 346.3719ZM437.40625 346.34064Q437.40625 344.60626 438.35938 343.77814Q439.15625 343.09064 440.3125 343.09064Q441.59375 343.09064 442.40625 343.9344Q443.23438 344.7625 443.23438 346.2469Q443.23438 347.45 442.875 348.1375Q442.51562 348.825 441.8125 349.21564Q441.125 349.59064 440.3125 349.59064Q439.01562 349.59064 438.20312 348.7625Q437.40625 347.91876 437.40625 346.34064ZM438.48438 346.34064Q438.48438 347.52814 439.0 348.1219Q439.53125 348.71564 440.3125 348.71564Q441.10938 348.71564 441.625 348.1219Q442.14062 347.52814 442.14062 346.3094Q442.14062 345.15314 441.60938 344.5594Q441.09375 343.96564 440.3125 343.96564Q439.53125 343.96564 439.0 344.5594Q438.48438 345.1375 438.48438 346.34064ZM444.78125 349.45L444.78125 343.23126L445.73438 343.23126L445.73438 344.16876Q446.09375 343.5125 446.39062 343.3094Q446.70312 343.09064 447.07812 343.09064Q447.60938 343.09064 448.15625 343.41876L447.79688 344.40314Q447.40625 344.16876 447.03125 344.16876Q446.67188 344.16876 446.39062 344.3875Q446.125 344.59064 446.01562 344.96564Q445.82812 345.52814 445.82812 346.1844L445.82812 349.45L444.78125 349.45ZM451.09375 348.5125L451.25 349.4344Q450.79688 349.52814 450.45312 349.52814Q449.875 349.52814 449.5625 349.35626Q449.25 349.16876 449.10938 348.8719Q448.98438 348.575 448.98438 347.6219L448.98438 344.04376L448.21875 344.04376L448.21875 343.23126L448.98438 343.23126L448.98438 341.6844L450.03125 341.0594L450.03125 343.23126L451.09375 343.23126L451.09375 344.04376L450.03125 344.04376L450.03125 347.6844Q450.03125 348.1375 450.07812 348.2625Q450.14062 348.3875 450.26562 348.46564Q450.39062 348.54376 450.625 348.54376Q450.8125 348.54376 451.09375 348.5125ZM455.85938 348.6844Q455.26562 349.1844 454.71875 349.3875Q454.1875 349.59064 453.5625 349.59064Q452.53125 349.59064 451.98438 349.09064Q451.4375 348.59064 451.4375 347.8094Q451.4375 347.35626 451.64062 346.98126Q451.84375 346.59064 452.1875 346.3719Q452.53125 346.1375 452.95312 346.02814Q453.25 345.9344 453.89062 345.85626Q455.15625 345.71564 455.76562 345.4969Q455.76562 345.27814 455.76562 345.23126Q455.76562 344.575 455.46875 344.3094Q455.0625 343.96564 454.26562 343.96564Q453.53125 343.96564 453.17188 344.23126Q452.8125 344.48126 452.64062 345.1375L451.60938 344.9969Q451.75 344.34064 452.07812 343.9344Q452.40625 343.52814 453.01562 343.3094Q453.625 343.09064 454.42188 343.09064Q455.21875 343.09064 455.71875 343.27814Q456.21875 343.46564 456.45312 343.7469Q456.6875 344.02814 456.78125 344.46564Q456.82812 344.73126 456.82812 345.4344L456.82812 346.84064Q456.82812 348.3094 456.89062 348.7Q456.96875 349.09064 457.17188 349.45L456.0625 349.45Q455.90625 349.1219 455.85938 348.6844ZM455.76562 346.325Q455.1875 346.5594 454.04688 346.73126Q453.39062 346.825 453.125 346.95Q452.85938 347.0594 452.70312 347.27814Q452.5625 347.4969 452.5625 347.77814Q452.5625 348.2 452.875 348.48126Q453.20312 348.7625 453.8125 348.7625Q454.42188 348.7625 454.89062 348.4969Q455.375 348.23126 455.59375 347.7625Q455.76562 347.40314 455.76562 346.71564L455.76562 346.325ZM458.79688 349.45L458.79688 343.23126L459.73438 343.23126L459.73438 344.10626Q460.42188 343.09064 461.71875 343.09064Q462.28125 343.09064 462.75 343.29376Q463.23438 343.4969 463.46875 343.825Q463.70312 344.15314 463.79688 344.59064Q463.84375 344.8875 463.84375 345.6219L463.84375 349.45L462.79688 349.45L462.79688 345.66876Q462.79688 345.0125 462.67188 344.7Q462.54688 344.3875 462.23438 344.2Q461.92188 343.9969 461.5 343.9969Q460.82812 343.9969 460.32812 344.4344Q459.84375 344.85626 459.84375 346.04376L459.84375 349.45L458.79688 349.45ZM468.09375 348.5125L468.25 349.4344Q467.79688 349.52814 467.45312 349.52814Q466.875 349.52814 466.5625 349.35626Q466.25 349.16876 466.10938 348.8719Q465.98438 348.575 465.98438 347.6219L465.98438 344.04376L465.21875 344.04376L465.21875 343.23126L465.98438 343.23126L465.98438 341.6844L467.03125 341.0594L467.03125 343.23126L468.09375 343.23126L468.09375 344.04376L467.03125 344.04376L467.03125 347.6844Q467.03125 348.1375 467.07812 348.2625Q467.14062 348.3875 467.26562 348.46564Q467.39062 348.54376 467.625 348.54376Q467.8125 348.54376 468.09375 348.5125Z" fill-rule="nonzero"/><path fill="#000000" d="M60.46875 37.55L60.46875 23.2375L63.359375 23.2375L63.359375 28.8625L69.015625 28.8625L69.015625 23.2375L71.90625 23.2375L71.90625 37.55L69.015625 37.55L69.015625 31.284374L63.359375 31.284374L63.359375 37.55L60.46875 37.55ZM73.796875 32.221874Q73.796875 30.846874 74.46875 29.565624Q75.15625 28.284374 76.390625 27.6125Q77.625 26.940624 79.140625 26.940624Q81.5 26.940624 83.0 28.471874Q84.5 30.003124 84.5 32.33125Q84.5 34.690624 82.984375 36.2375Q81.46875 37.784374 79.15625 37.784374Q77.734375 37.784374 76.4375 37.14375Q75.15625 36.4875 74.46875 35.253124Q73.796875 34.003124 73.796875 32.221874ZM76.609375 32.3625Q76.609375 33.909374 77.34375 34.7375Q78.078125 35.55 79.15625 35.55Q80.234375 35.55 80.953125 34.7375Q81.6875 33.909374 81.6875 32.346874Q81.6875 30.815624 80.953125 30.003124Q80.234375 29.175 79.15625 29.175Q78.078125 29.175 77.34375 30.003124Q76.609375 30.815624 76.609375 32.3625ZM88.375 37.55L85.09375 27.175L87.75 27.175L89.703125 33.971874L91.484375 27.175L94.125 27.175L95.859375 33.971874L97.84375 27.175L100.546875 27.175L97.21875 37.55L94.578125 37.55L92.796875 30.878124L91.03125 37.55L88.375 37.55ZM107.4375 25.76875L107.4375 23.2375L110.1875 23.2375L110.1875 25.76875L107.4375 25.76875ZM107.4375 37.55L107.4375 27.175L110.1875 27.175L110.1875 37.55L107.4375 37.55ZM112.234375 27.175L114.765625 27.175L114.765625 28.596874Q116.125 26.940624 118.0 26.940624Q118.984375 26.940624 119.71875 27.3625Q120.453125 27.76875 120.921875 28.596874Q121.609375 27.76875 122.390625 27.3625Q123.1875 26.940624 124.09375 26.940624Q125.234375 26.940624 126.015625 27.409374Q126.8125 27.878124 127.203125 28.76875Q127.484375 29.440624 127.484375 30.925L127.484375 37.55L124.734375 37.55L124.734375 31.628124Q124.734375 30.08125 124.453125 29.628124Q124.078125 29.05 123.28125 29.05Q122.703125 29.05 122.1875 29.409374Q121.6875 29.753124 121.46875 30.425Q121.25 31.096874 121.25 32.565624L121.25 37.55L118.5 37.55L118.5 31.8625Q118.5 30.346874 118.34375 29.909374Q118.203125 29.471874 117.890625 29.26875Q117.59375 29.05 117.0625 29.05Q116.4375 29.05 115.921875 29.39375Q115.421875 29.721874 115.1875 30.378124Q114.96875 31.01875 114.96875 32.503124L114.96875 37.55L112.234375 37.55L112.234375 27.175ZM129.35938 27.175L131.92188 27.175L131.92188 28.70625Q132.42188 27.925 133.26562 27.440624Q134.10938 26.940624 135.15625 26.940624Q136.95312 26.940624 138.20312 28.3625Q139.46875 29.76875 139.46875 32.3Q139.46875 34.909374 138.20312 36.346874Q136.9375 37.784374 135.125 37.784374Q134.26562 37.784374 133.5625 37.440624Q132.875 37.096874 132.10938 36.26875L132.10938 41.503124L129.35938 41.503124L129.35938 27.175ZM132.07812 32.190624Q132.07812 33.940624 132.76562 34.784374Q133.45312 35.6125 134.45312 35.6125Q135.40625 35.6125 136.04688 34.846874Q136.6875 34.065624 136.6875 32.33125Q136.6875 30.690624 136.03125 29.909374Q135.375 29.1125 134.40625 29.1125Q133.40625 29.1125 132.73438 29.89375Q132.07812 30.659374 132.07812 32.190624ZM140.79688 32.221874Q140.79688 30.846874 141.46875 29.565624Q142.15625 28.284374 143.39062 27.6125Q144.625 26.940624 146.14062 26.940624Q148.5 26.940624 150.0 28.471874Q151.5 30.003124 151.5 32.33125Q151.5 34.690624 149.98438 36.2375Q148.46875 37.784374 146.15625 37.784374Q144.73438 37.784374 143.4375 37.14375Q142.15625 36.4875 141.46875 35.253124Q140.79688 34.003124 140.79688 32.221874ZM143.60938 32.3625Q143.60938 33.909374 144.34375 34.7375Q145.07812 35.55 146.15625 35.55Q147.23438 35.55 147.95312 34.7375Q148.6875 33.909374 148.6875 32.346874Q148.6875 30.815624 147.95312 30.003124Q147.23438 29.175 146.15625 29.175Q145.07812 29.175 144.34375 30.003124Q143.60938 30.815624 143.60938 32.3625ZM156.0625 37.55L153.3125 37.55L153.3125 27.175L155.875 27.175L155.875 28.659374Q156.51562 27.6125 157.03125 27.284374Q157.5625 26.940624 158.23438 26.940624Q159.17188 26.940624 160.03125 27.45625L159.1875 29.846874Q158.5 29.409374 157.90625 29.409374Q157.32812 29.409374 156.92188 29.721874Q156.51562 30.034374 156.28125 30.878124Q156.0625 31.70625 156.0625 34.346874L156.0625 37.55ZM166.1875 27.175L166.1875 29.3625L164.3125 29.3625L164.3125 33.55Q164.3125 34.815624 164.35938 35.034374Q164.42188 35.2375 164.60938 35.378124Q164.8125 35.503124 165.07812 35.503124Q165.45312 35.503124 166.1875 35.2375L166.42188 37.378124Q165.45312 37.784374 164.25 37.784374Q163.5 37.784374 162.90625 37.534374Q162.3125 37.284374 162.03125 36.89375Q161.76562 36.4875 161.65625 35.815624Q161.5625 35.346874 161.5625 33.89375L161.5625 29.3625L160.29688 29.3625L160.29688 27.175L161.5625 27.175L161.5625 25.1125L164.3125 23.51875L164.3125 27.175L166.1875 27.175ZM170.48438 30.346874L168.0 29.89375Q168.42188 28.39375 169.4375 27.675Q170.46875 26.940624 172.48438 26.940624Q174.32812 26.940624 175.21875 27.378124Q176.125 27.815624 176.48438 28.4875Q176.85938 29.14375 176.85938 30.940624L176.82812 34.14375Q176.82812 35.503124 176.95312 36.159374Q177.09375 36.8 177.45312 37.55L174.73438 37.55Q174.625 37.26875 174.46875 36.7375Q174.40625 36.4875 174.375 36.409374Q173.67188 37.096874 172.85938 37.440624Q172.0625 37.784374 171.15625 37.784374Q169.5625 37.784374 168.64062 36.925Q167.71875 36.05 167.71875 34.721874Q167.71875 33.83125 168.125 33.14375Q168.54688 32.45625 169.29688 32.096874Q170.0625 31.721874 171.5 31.45625Q173.42188 31.096874 174.15625 30.784374L174.15625 30.503124Q174.15625 29.721874 173.76562 29.39375Q173.375 29.05 172.29688 29.05Q171.5625 29.05 171.14062 29.33125Q170.73438 29.6125 170.48438 30.346874ZM174.15625 32.565624Q173.625 32.7375 172.48438 32.9875Q171.34375 33.2375 171.0 33.471874Q170.45312 33.846874 170.45312 34.440624Q170.45312 35.003124 170.875 35.425Q171.3125 35.846874 171.98438 35.846874Q172.71875 35.846874 173.39062 35.3625Q173.89062 34.9875 174.04688 34.45625Q174.15625 34.096874 174.15625 33.1125L174.15625 32.565624ZM188.875 37.55L186.125 37.55L186.125 32.253124Q186.125 30.58125 185.95312 30.096874Q185.78125 29.596874 185.375 29.33125Q184.98438 29.05 184.42188 29.05Q183.71875 29.05 183.14062 29.440624Q182.57812 29.83125 182.35938 30.471874Q182.15625 31.1125 182.15625 32.846874L182.15625 37.55L179.42188 37.55L179.42188 27.175L181.96875 27.175L181.96875 28.70625Q183.32812 26.940624 185.39062 26.940624Q186.29688 26.940624 187.04688 27.26875Q187.79688 27.596874 188.17188 28.1125Q188.5625 28.6125 188.71875 29.26875Q188.875 29.909374 188.875 31.096874L188.875 37.55ZM196.1875 27.175L196.1875 29.3625L194.3125 29.3625L194.3125 33.55Q194.3125 34.815624 194.35938 35.034374Q194.42188 35.2375 194.60938 35.378124Q194.8125 35.503124 195.07812 35.503124Q195.45312 35.503124 196.1875 35.2375L196.42188 37.378124Q195.45312 37.784374 194.25 37.784374Q193.5 37.784374 192.90625 37.534374Q192.3125 37.284374 192.03125 36.89375Q191.76562 36.4875 191.65625 35.815624Q191.5625 35.346874 191.5625 33.89375L191.5625 29.3625L190.29688 29.3625L190.29688 27.175L191.5625 27.175L191.5625 25.1125L194.3125 23.51875L194.3125 27.175L196.1875 27.175ZM204.4375 25.76875L204.4375 23.2375L207.1875 23.2375L207.1875 25.76875L204.4375 25.76875ZM204.4375 37.55L204.4375 27.175L207.1875 27.175L207.1875 37.55L204.4375 37.55ZM208.46875 34.596874L211.21875 34.175Q211.40625 34.971874 211.9375 35.39375Q212.46875 35.8 213.4375 35.8Q214.5 35.8 215.04688 35.409374Q215.40625 35.14375 215.40625 34.675Q215.40625 34.3625 215.20312 34.159374Q215.0 33.971874 214.29688 33.8Q210.96875 33.065624 210.07812 32.45625Q208.84375 31.628124 208.84375 30.128124Q208.84375 28.784374 209.90625 27.8625Q210.98438 26.940624 213.21875 26.940624Q215.34375 26.940624 216.375 27.64375Q217.42188 28.33125 217.8125 29.690624L215.21875 30.159374Q215.04688 29.565624 214.57812 29.2375Q214.125 28.909374 213.26562 28.909374Q212.1875 28.909374 211.71875 29.221874Q211.40625 29.440624 211.40625 29.76875Q211.40625 30.065624 211.67188 30.26875Q212.04688 30.55 214.23438 31.05Q216.42188 31.55 217.29688 32.26875Q218.15625 33.003124 218.15625 34.3Q218.15625 35.7375 216.96875 36.76875Q215.78125 37.784374 213.4375 37.784374Q211.32812 37.784374 210.07812 36.925Q208.84375 36.065624 208.46875 34.596874ZM226.45312 23.2375L231.73438 23.2375Q233.51562 23.2375 234.45312 23.503124Q235.71875 23.878124 236.60938 24.83125Q237.51562 25.76875 237.98438 27.14375Q238.45312 28.51875 238.45312 30.534374Q238.45312 32.3 238.01562 33.58125Q237.46875 35.14375 236.46875 36.096874Q235.71875 36.83125 234.4375 37.253124Q233.48438 37.55 231.89062 37.55L226.45312 37.55L226.45312 23.2375ZM229.34375 25.659374L229.34375 35.14375L231.5 35.14375Q232.70312 35.14375 233.25 35.003124Q233.95312 34.83125 234.40625 34.409374Q234.875 33.9875 235.15625 33.034374Q235.45312 32.065624 235.45312 30.39375Q235.45312 28.7375 235.15625 27.846874Q234.875 26.95625 234.34375 26.471874Q233.8125 25.971874 233.01562 25.784374Q232.40625 25.659374 230.64062 25.659374L229.34375 25.659374ZM242.48438 30.346874L240.0 29.89375Q240.42188 28.39375 241.4375 27.675Q242.46875 26.940624 244.48438 26.940624Q246.32812 26.940624 247.21875 27.378124Q248.125 27.815624 248.48438 28.4875Q248.85938 29.14375 248.85938 30.940624L248.82812 34.14375Q248.82812 35.503124 248.95312 36.159374Q249.09375 36.8 249.45312 37.55L246.73438 37.55Q246.625 37.26875 246.46875 36.7375Q246.40625 36.4875 246.375 36.409374Q245.67188 37.096874 244.85938 37.440624Q244.0625 37.784374 243.15625 37.784374Q241.5625 37.784374 240.64062 36.925Q239.71875 36.05 239.71875 34.721874Q239.71875 33.83125 240.125 33.14375Q240.54688 32.45625 241.29688 32.096874Q242.0625 31.721874 243.5 31.45625Q245.42188 31.096874 246.15625 30.784374L246.15625 30.503124Q246.15625 29.721874 245.76562 29.39375Q245.375 29.05 244.29688 29.05Q243.5625 29.05 243.14062 29.33125Q242.73438 29.6125 242.48438 30.346874ZM246.15625 32.565624Q245.625 32.7375 244.48438 32.9875Q243.34375 33.2375 243.0 33.471874Q242.45312 33.846874 242.45312 34.440624Q242.45312 35.003124 242.875 35.425Q243.3125 35.846874 243.98438 35.846874Q244.71875 35.846874 245.39062 35.3625Q245.89062 34.9875 246.04688 34.45625Q246.15625 34.096874 246.15625 33.1125L246.15625 32.565624ZM254.0625 37.55L251.3125 37.55L251.3125 27.175L253.875 27.175L253.875 28.659374Q254.51562 27.6125 255.03125 27.284374Q255.5625 26.940624 256.23438 26.940624Q257.17188 26.940624 258.03125 27.45625L257.1875 29.846874Q256.5 29.409374 255.90625 29.409374Q255.32812 29.409374 254.92188 29.721874Q254.51562 30.034374 254.28125 30.878124Q254.0625 31.70625 254.0625 34.346874L254.0625 37.55ZM259.4375 25.76875L259.4375 23.2375L262.1875 23.2375L262.1875 25.76875L259.4375 25.76875ZM259.4375 37.55L259.4375 27.175L262.1875 27.175L262.1875 37.55L259.4375 37.55ZM264.375 25.76875L264.375 23.2375L267.125 23.2375L267.125 25.76875L264.375 25.76875ZM267.125 27.175L267.125 37.221874Q267.125 39.20625 266.85938 40.01875Q266.60938 40.846874 265.85938 41.3Q265.125 41.753124 263.98438 41.753124Q263.57812 41.753124 263.09375 41.675Q262.625 41.6125 262.07812 41.471874L262.5625 39.128124Q262.75 39.159374 262.92188 39.175Q263.09375 39.20625 263.25 39.20625Q263.67188 39.20625 263.9375 39.01875Q264.20312 38.846874 264.28125 38.596874Q264.375 38.346874 264.375 37.065624L264.375 27.175L267.125 27.175ZM271.48438 30.346874L269.0 29.89375Q269.42188 28.39375 270.4375 27.675Q271.46875 26.940624 273.48438 26.940624Q275.32812 26.940624 276.21875 27.378124Q277.125 27.815624 277.48438 28.4875Q277.85938 29.14375 277.85938 30.940624L277.82812 34.14375Q277.82812 35.503124 277.95312 36.159374Q278.09375 36.8 278.45312 37.55L275.73438 37.55Q275.625 37.26875 275.46875 36.7375Q275.40625 36.4875 275.375 36.409374Q274.67188 37.096874 273.85938 37.440624Q273.0625 37.784374 272.15625 37.784374Q270.5625 37.784374 269.64062 36.925Q268.71875 36.05 268.71875 34.721874Q268.71875 33.83125 269.125 33.14375Q269.54688 32.45625 270.29688 32.096874Q271.0625 31.721874 272.5 31.45625Q274.42188 31.096874 275.15625 30.784374L275.15625 30.503124Q275.15625 29.721874 274.76562 29.39375Q274.375 29.05 273.29688 29.05Q272.5625 29.05 272.14062 29.33125Q271.73438 29.6125 271.48438 30.346874ZM275.15625 32.565624Q274.625 32.7375 273.48438 32.9875Q272.34375 33.2375 272.0 33.471874Q271.45312 33.846874 271.45312 34.440624Q271.45312 35.003124 271.875 35.425Q272.3125 35.846874 272.98438 35.846874Q273.71875 35.846874 274.39062 35.3625Q274.89062 34.9875 275.04688 34.45625Q275.15625 34.096874 275.15625 33.1125L275.15625 32.565624ZM291.1875 27.175L291.1875 29.3625L289.3125 29.3625L289.3125 33.55Q289.3125 34.815624 289.35938 35.034374Q289.42188 35.2375 289.60938 35.378124Q289.8125 35.503124 290.07812 35.503124Q290.45312 35.503124 291.1875 35.2375L291.42188 37.378124Q290.45312 37.784374 289.25 37.784374Q288.5 37.784374 287.90625 37.534374Q287.3125 37.284374 287.03125 36.89375Q286.76562 36.4875 286.65625 35.815624Q286.5625 35.346874 286.5625 33.89375L286.5625 29.3625L285.29688 29.3625L285.29688 27.175L286.5625 27.175L286.5625 25.1125L289.3125 23.51875L289.3125 27.175L291.1875 27.175ZM292.79688 32.221874Q292.79688 30.846874 293.46875 29.565624Q294.15625 28.284374 295.39062 27.6125Q296.625 26.940624 298.14062 26.940624Q300.5 26.940624 302.0 28.471874Q303.5 30.003124 303.5 32.33125Q303.5 34.690624 301.98438 36.2375Q300.46875 37.784374 298.15625 37.784374Q296.73438 37.784374 295.4375 37.14375Q294.15625 36.4875 293.46875 35.253124Q292.79688 34.003124 292.79688 32.221874ZM295.60938 32.3625Q295.60938 33.909374 296.34375 34.7375Q297.07812 35.55 298.15625 35.55Q299.23438 35.55 299.95312 34.7375Q300.6875 33.909374 300.6875 32.346874Q300.6875 30.815624 299.95312 30.003124Q299.23438 29.175 298.15625 29.175Q297.07812 29.175 296.34375 30.003124Q295.60938 30.815624 295.60938 32.3625ZM310.14062 27.175L313.0625 27.175L315.53125 34.534374L317.95312 27.175L320.79688 27.175L317.14062 37.159374L316.48438 38.971874Q316.125 39.878124 315.79688 40.346874Q315.46875 40.83125 315.04688 41.128124Q314.625 41.425 314.0 41.58125Q313.375 41.753124 312.59375 41.753124Q311.8125 41.753124 311.04688 41.596874L310.79688 39.440624Q311.45312 39.565624 311.96875 39.565624Q312.92188 39.565624 313.375 39.003124Q313.84375 38.45625 314.07812 37.58125L310.14062 27.175ZM321.79688 32.221874Q321.79688 30.846874 322.46875 29.565624Q323.15625 28.284374 324.39062 27.6125Q325.625 26.940624 327.14062 26.940624Q329.5 26.940624 331.0 28.471874Q332.5 30.003124 332.5 32.33125Q332.5 34.690624 330.98438 36.2375Q329.46875 37.784374 327.15625 37.784374Q325.73438 37.784374 324.4375 37.14375Q323.15625 36.4875 322.46875 35.253124Q321.79688 34.003124 321.79688 32.221874ZM324.60938 32.3625Q324.60938 33.909374 325.34375 34.7375Q326.07812 35.55 327.15625 35.55Q328.23438 35.55 328.95312 34.7375Q329.6875 33.909374 329.6875 32.346874Q329.6875 30.815624 328.95312 30.003124Q328.23438 29.175 327.15625 29.175Q326.07812 29.175 325.34375 30.003124Q324.60938 30.815624 324.60938 32.3625ZM341.26562 37.55L341.26562 36.003124Q340.70312 36.83125 339.76562 37.315624Q338.84375 37.784374 337.82812 37.784374Q336.78125 37.784374 335.95312 37.33125Q335.125 36.8625 334.75 36.034374Q334.375 35.20625 334.375 33.7375L334.375 27.175L337.125 27.175L337.125 31.940624Q337.125 34.128124 337.26562 34.628124Q337.42188 35.1125 337.8125 35.409374Q338.21875 35.690624 338.84375 35.690624Q339.54688 35.690624 340.09375 35.315624Q340.65625 34.925 340.85938 34.3625Q341.0625 33.784374 341.0625 31.55L341.0625 27.175L343.8125 27.175L343.8125 37.55L341.26562 37.55ZM349.0625 37.55L346.3125 37.55L346.3125 27.175L348.875 27.175L348.875 28.659374Q349.51562 27.6125 350.03125 27.284374Q350.5625 26.940624 351.23438 26.940624Q352.17188 26.940624 353.03125 27.45625L352.1875 29.846874Q351.5 29.409374 350.90625 29.409374Q350.32812 29.409374 349.92188 29.721874Q349.51562 30.034374 349.28125 30.878124Q349.0625 31.70625 349.0625 34.346874L349.0625 37.55ZM360.42188 37.55L360.42188 23.2375L364.75 23.2375L367.34375 33.003124L369.90625 23.2375L374.25 23.2375L374.25 37.55L371.5625 37.55L371.5625 26.284374L368.71875 37.55L365.9375 37.55L363.10938 26.284374L363.10938 37.55L360.42188 37.55ZM376.79688 32.221874Q376.79688 30.846874 377.46875 29.565624Q378.15625 28.284374 379.39062 27.6125Q380.625 26.940624 382.14062 26.940624Q384.5 26.940624 386.0 28.471874Q387.5 30.003124 387.5 32.33125Q387.5 34.690624 385.98438 36.2375Q384.46875 37.784374 382.15625 37.784374Q380.73438 37.784374 379.4375 37.14375Q378.15625 36.4875 377.46875 35.253124Q376.79688 34.003124 376.79688 32.221874ZM379.60938 32.3625Q379.60938 33.909374 380.34375 34.7375Q381.07812 35.55 382.15625 35.55Q383.23438 35.55 383.95312 34.7375Q384.6875 33.909374 384.6875 32.346874Q384.6875 30.815624 383.95312 30.003124Q383.23438 29.175 382.15625 29.175Q381.07812 29.175 380.34375 30.003124Q379.60938 30.815624 379.60938 32.3625ZM392.0625 37.55L389.3125 37.55L389.3125 27.175L391.875 27.175L391.875 28.659374Q392.51562 27.6125 393.03125 27.284374Q393.5625 26.940624 394.23438 26.940624Q395.17188 26.940624 396.03125 27.45625L395.1875 29.846874Q394.5 29.409374 393.90625 29.409374Q393.32812 29.409374 392.92188 29.721874Q392.51562 30.034374 392.28125 30.878124Q392.0625 31.70625 392.0625 34.346874L392.0625 37.55ZM396.79688 32.221874Q396.79688 30.846874 397.46875 29.565624Q398.15625 28.284374 399.39062 27.6125Q400.625 26.940624 402.14062 26.940624Q404.5 26.940624 406.0 28.471874Q407.5 30.003124 407.5 32.33125Q407.5 34.690624 405.98438 36.2375Q404.46875 37.784374 402.15625 37.784374Q400.73438 37.784374 399.4375 37.14375Q398.15625 36.4875 397.46875 35.253124Q396.79688 34.003124 396.79688 32.221874ZM399.60938 32.3625Q399.60938 33.909374 400.34375 34.7375Q401.07812 35.55 402.15625 35.55Q403.23438 35.55 403.95312 34.7375Q404.6875 33.909374 404.6875 32.346874Q404.6875 30.815624 403.95312 30.003124Q403.23438 29.175 402.15625 29.175Q401.07812 29.175 400.34375 30.003124Q399.60938 30.815624 399.60938 32.3625ZM418.48438 30.2375L415.78125 30.7375Q415.64062 29.925 415.15625 29.51875Q414.67188 29.096874 413.90625 29.096874Q412.875 29.096874 412.26562 29.815624Q411.65625 30.51875 411.65625 32.175Q411.65625 34.01875 412.26562 34.784374Q412.89062 35.55 413.9375 35.55Q414.71875 35.55 415.21875 35.1125Q415.71875 34.659374 415.92188 33.58125L418.60938 34.034374Q418.20312 35.89375 417.0 36.846874Q415.8125 37.784374 413.8125 37.784374Q411.53125 37.784374 410.17188 36.346874Q408.82812 34.909374 408.82812 32.378124Q408.82812 29.8 410.1875 28.378124Q411.54688 26.940624 413.85938 26.940624Q415.75 26.940624 416.85938 27.76875Q417.98438 28.58125 418.48438 30.2375ZM429.48438 30.2375L426.78125 30.7375Q426.64062 29.925 426.15625 29.51875Q425.67188 29.096874 424.90625 29.096874Q423.875 29.096874 423.26562 29.815624Q422.65625 30.51875 422.65625 32.175Q422.65625 34.01875 423.26562 34.784374Q423.89062 35.55 424.9375 35.55Q425.71875 35.55 426.21875 35.1125Q426.71875 34.659374 426.92188 33.58125L429.60938 34.034374Q429.20312 35.89375 428.0 36.846874Q426.8125 37.784374 424.8125 37.784374Q422.53125 37.784374 421.17188 36.346874Q419.82812 34.909374 419.82812 32.378124Q419.82812 29.8 421.1875 28.378124Q422.54688 26.940624 424.85938 26.940624Q426.75 26.940624 427.85938 27.76875Q428.98438 28.58125 429.48438 30.2375ZM433.48438 30.346874L431.0 29.89375Q431.42188 28.39375 432.4375 27.675Q433.46875 26.940624 435.48438 26.940624Q437.32812 26.940624 438.21875 27.378124Q439.125 27.815624 439.48438 28.4875Q439.85938 29.14375 439.85938 30.940624L439.82812 34.14375Q439.82812 35.503124 439.95312 36.159374Q440.09375 36.8 440.45312 37.55L437.73438 37.55Q437.625 37.26875 437.46875 36.7375Q437.40625 36.4875 437.375 36.409374Q436.67188 37.096874 435.85938 37.440624Q435.0625 37.784374 434.15625 37.784374Q432.5625 37.784374 431.64062 36.925Q430.71875 36.05 430.71875 34.721874Q430.71875 33.83125 431.125 33.14375Q431.54688 32.45625 432.29688 32.096874Q433.0625 31.721874 434.5 31.45625Q436.42188 31.096874 437.15625 30.784374L437.15625 30.503124Q437.15625 29.721874 436.76562 29.39375Q436.375 29.05 435.29688 29.05Q434.5625 29.05 434.14062 29.33125Q433.73438 29.6125 433.48438 30.346874ZM437.15625 32.565624Q436.625 32.7375 435.48438 32.9875Q434.34375 33.2375 434.0 33.471874Q433.45312 33.846874 433.45312 34.440624Q433.45312 35.003124 433.875 35.425Q434.3125 35.846874 434.98438 35.846874Q435.71875 35.846874 436.39062 35.3625Q436.89062 34.9875 437.04688 34.45625Q437.15625 34.096874 437.15625 33.1125L437.15625 32.565624ZM451.875 37.55L449.125 37.55L449.125 32.253124Q449.125 30.58125 448.95312 30.096874Q448.78125 29.596874 448.375 29.33125Q447.98438 29.05 447.42188 29.05Q446.71875 29.05 446.14062 29.440624Q445.57812 29.83125 445.35938 30.471874Q445.15625 31.1125 445.15625 32.846874L445.15625 37.55L442.42188 37.55L442.42188 27.175L444.96875 27.175L444.96875 28.70625Q446.32812 26.940624 448.39062 26.940624Q449.29688 26.940624 450.04688 27.26875Q450.79688 27.596874 451.17188 28.1125Q451.5625 28.6125 451.71875 29.26875Q451.875 29.909374 451.875 31.096874L451.875 37.55ZM460.4375 25.76875L460.4375 23.2375L463.1875 23.2375L463.1875 25.76875L460.4375 25.76875ZM460.4375 37.55L460.4375 27.175L463.1875 27.175L463.1875 37.55L460.4375 37.55ZM474.95312 37.55L472.40625 37.55L472.40625 36.01875Q471.76562 36.909374 470.89062 37.346874Q470.03125 37.784374 469.15625 37.784374Q467.375 37.784374 466.09375 36.346874Q464.82812 34.909374 464.82812 32.33125Q464.82812 29.690624 466.0625 28.315624Q467.29688 26.940624 469.20312 26.940624Q470.9375 26.940624 472.20312 28.39375L472.20312 23.2375L474.95312 23.2375L474.95312 37.55ZM467.625 32.14375Q467.625 33.8 468.07812 34.534374Q468.75 35.6125 469.9375 35.6125Q470.89062 35.6125 471.54688 34.815624Q472.21875 34.003124 472.21875 32.409374Q472.21875 30.6125 471.5625 29.83125Q470.92188 29.05 469.92188 29.05Q468.9375 29.05 468.28125 29.83125Q467.625 30.596874 467.625 32.14375ZM483.4375 34.253124L486.17188 34.70625Q485.65625 36.20625 484.51562 37.003124Q483.375 37.784374 481.67188 37.784374Q478.95312 37.784374 477.65625 36.01875Q476.64062 34.596874 476.64062 32.440624Q476.64062 29.8625 477.98438 28.409374Q479.32812 26.940624 481.39062 26.940624Q483.70312 26.940624 485.03125 28.471874Q486.375 30.003124 486.32812 33.159374L479.45312 33.159374Q479.48438 34.378124 480.10938 35.065624Q480.75 35.7375 481.6875 35.7375Q482.34375 35.7375 482.78125 35.39375Q483.21875 35.034374 483.4375 34.253124ZM483.59375 31.471874Q483.5625 30.284374 482.96875 29.675Q482.39062 29.05 481.5625 29.05Q480.65625 29.05 480.07812 29.690624Q479.48438 30.346874 479.5 31.471874L483.59375 31.471874ZM497.875 37.55L495.125 37.55L495.125 32.253124Q495.125 30.58125 494.95312 30.096874Q494.78125 29.596874 494.375 29.33125Q493.98438 29.05 493.42188 29.05Q492.71875 29.05 492.14062 29.440624Q491.57812 29.83125 491.35938 30.471874Q491.15625 31.1125 491.15625 32.846874L491.15625 37.55L488.42188 37.55L488.42188 27.175L490.96875 27.175L490.96875 28.70625Q492.32812 26.940624 494.39062 26.940624Q495.29688 26.940624 496.04688 27.26875Q496.79688 27.596874 497.17188 28.1125Q497.5625 28.6125 497.71875 29.26875Q497.875 29.909374 497.875 31.096874L497.875 37.55ZM505.1875 27.175L505.1875 29.3625L503.3125 29.3625L503.3125 33.55Q503.3125 34.815624 503.35938 35.034374Q503.42188 35.2375 503.60938 35.378124Q503.8125 35.503124 504.07812 35.503124Q504.45312 35.503124 505.1875 35.2375L505.42188 37.378124Q504.45312 37.784374 503.25 37.784374Q502.5 37.784374 501.90625 37.534374Q501.3125 37.284374 501.03125 36.89375Q500.76562 36.4875 500.65625 35.815624Q500.5625 35.346874 500.5625 33.89375L500.5625 29.3625L499.29688 29.3625L499.29688 27.175L500.5625 27.175L500.5625 25.1125L503.3125 23.51875L503.3125 27.175L505.1875 27.175ZM507.4375 25.76875L507.4375 23.2375L510.1875 23.2375L510.1875 25.76875L507.4375 25.76875ZM507.4375 37.55L507.4375 27.175L510.1875 27.175L510.1875 37.55L507.4375 37.55ZM517.1875 27.175L517.1875 29.3625L515.3125 29.3625L515.3125 33.55Q515.3125 34.815624 515.3594 35.034374Q515.4219 35.2375 515.6094 35.378124Q515.8125 35.503124 516.0781 35.503124Q516.4531 35.503124 517.1875 35.2375L517.4219 37.378124Q516.4531 37.784374 515.25 37.784374Q514.5 37.784374 513.90625 37.534374Q513.3125 37.284374 513.03125 36.89375Q512.7656 36.4875 512.65625 35.815624Q512.5625 35.346874 512.5625 33.89375L512.5625 29.3625L511.29688 29.3625L511.29688 27.175L512.5625 27.175L512.5625 25.1125L515.3125 23.51875L515.3125 27.175L517.1875 27.175ZM518.1406 27.175L521.0625 27.175L523.53125 34.534374L525.9531 27.175L528.7969 27.175L525.1406 37.159374L524.4844 38.971874Q524.125 39.878124 523.7969 40.346874Q523.46875 40.83125 523.0469 41.128124Q522.625 41.425 522.0 41.58125Q521.375 41.753124 520.59375 41.753124Q519.8125 41.753124 519.0469 41.596874L518.7969 39.440624Q519.4531 39.565624 519.96875 39.565624Q520.9219 39.565624 521.375 39.003124Q521.84375 38.45625 522.0781 37.58125L518.1406 27.175ZM536.3281 33.8625L533.84375 33.8625Q533.8281 33.315624 533.8281 33.20625Q533.8281 31.9875 534.2344 31.20625Q534.6406 30.425 535.8281 29.45625Q537.03125 28.471874 537.2656 28.175Q537.6406 27.690624 537.6406 27.1125Q537.6406 26.315624 537.0 25.753124Q536.3594 25.175 535.2656 25.175Q534.21875 25.175 533.5156 25.76875Q532.8125 26.3625 532.5625 27.58125L530.03125 27.26875Q530.1406 25.534374 531.5156 24.315624Q532.90625 23.08125 535.15625 23.08125Q537.5156 23.08125 538.90625 24.315624Q540.3125 25.55 540.3125 27.190624Q540.3125 28.1125 539.7969 28.925Q539.28125 29.721874 537.6094 31.128124Q536.7344 31.846874 536.5156 32.284374Q536.3125 32.721874 536.3281 33.8625ZM533.84375 37.55L533.84375 34.8L536.59375 34.8L536.59375 37.55L533.84375 37.55Z" fill-rule="nonzero"/></svg>