<svg version="1.1" viewBox="0.0 0.0 600.0 371.0" fill="none" stroke="none" stroke-linecap="square" stroke-miterlimit="10" width="600" height="371" xmlns:xlink="http://www.w3.org/1999/xlink" xmlns="http://www.w3.org/2000/svg"><path fill="#ffffff" d="M0 0L600.0 0L600.0 371.0L0 371.0L0 0Z" fill-rule="nonzero"/><path fill="#00b3b3" d="M408.34888 214.84084C408.34888 222.63841 407.09775 230.41133 404.619 238.01343L404.619 215.69843C407.09775 208.09634 408.34888 200.32343 408.34888 192.52583Z" fill-rule="nonzero"/><path fill="#00ffff" d="M259.5822 88.38917C304.8556 88.38917 347.6652 102.82039 375.8927 127.59769C404.12018 152.37498 414.69327 184.80164 404.619 215.69843L259.5822 192.52583Z" fill-rule="nonzero"/><path fill="#b3b300" d="M110.86179 217.43703C110.83097 216.57181 110.81555 215.70633 110.81555 214.84084L110.81555 192.52583C110.81555 193.39133 110.83097 194.2568 110.86179 195.12204Z" fill-rule="nonzero"/><path fill="#ffff00" d="M110.86179 195.12204C109.862114 167.06184 125.08689 139.90738 153.0851 119.81378C181.0833 99.72018 219.48378 88.38917 259.5822 88.38917L259.5822 192.52583Z" fill-rule="nonzero"/><path fill="#b30000" d="M404.619 238.01343C387.92795 289.2032 319.40594 323.68796 244.76985 318.46002C170.13374 313.2321 112.73182 269.9269 110.86179 217.43703L110.86179 195.12204C112.73182 247.61191 170.13374 290.91708 244.76985 296.14502C319.40594 301.37296 387.92795 266.88818 404.619 215.69843Z" fill-rule="nonzero"/><path fill="#ff0000" d="M404.619 215.69843C387.92795 266.88818 319.40594 301.37296 244.76985 296.14502C170.13374 290.91708 112.73182 247.61191 110.86179 195.12204L259.5822 192.52583Z" fill-rule="nonzero"/><path fill="#000000" d="M325.65198 152.22528L325.65198 153.41278L319.02698 153.41278Q319.01135 152.97528 319.1676 152.5534Q319.43323 151.88153 319.9801 151.22528Q320.5426 150.56903 321.58948 149.70966Q323.2301 148.3659 323.7926 147.58466Q324.37073 146.8034 324.37073 146.10028Q324.37073 145.3659 323.83948 144.8659Q323.32385 144.3659 322.49573 144.3659Q321.6051 144.3659 321.05823 144.89716Q320.52698 145.4284 320.52698 146.38153L319.26135 146.2409Q319.38635 144.83466 320.2301 144.10028Q321.08948 143.35028 322.51135 143.35028Q323.96448 143.35028 324.7926 144.14716Q325.63635 144.94403 325.63635 146.13153Q325.63635 146.7409 325.38635 147.31903Q325.15198 147.89716 324.57385 148.53778Q324.01135 149.1784 322.68323 150.3034Q321.57385 151.22528 321.26135 151.56903Q320.94885 151.89716 320.74573 152.22528L325.65198 152.22528ZM329.07385 147.97528Q328.30823 147.69403 327.93323 147.1784Q327.57385 146.66278 327.57385 145.9284Q327.57385 144.83466 328.3551 144.10028Q329.15198 143.35028 330.44885 143.35028Q331.76135 143.35028 332.55823 144.1159Q333.37073 144.88153 333.37073 145.97528Q333.37073 146.66278 332.99573 147.1784Q332.63635 147.69403 331.88635 147.97528Q332.80823 148.27216 333.2926 148.94403Q333.77698 149.6159 333.77698 150.5534Q333.77698 151.83466 332.87073 152.70966Q331.96448 153.58466 330.4801 153.58466Q328.99573 153.58466 328.07385 152.70966Q327.1676 151.81903 327.1676 150.50653Q327.1676 149.53778 327.6676 148.88153Q328.1676 148.20966 329.07385 147.97528ZM328.83948 145.89716Q328.83948 146.60028 329.2926 147.0534Q329.74573 147.50653 330.4801 147.50653Q331.19885 147.50653 331.65198 147.06903Q332.1051 146.6159 332.1051 145.95966Q332.1051 145.28778 331.63635 144.83466Q331.1676 144.3659 330.46448 144.3659Q329.76135 144.3659 329.2926 144.81903Q328.83948 145.25653 328.83948 145.89716ZM328.43323 150.52216Q328.43323 151.0534 328.68323 151.5534Q328.93323 152.03778 329.4176 152.3034Q329.9176 152.56903 330.49573 152.56903Q331.37073 152.56903 331.93323 152.00653Q332.51135 151.44403 332.51135 150.56903Q332.51135 149.6784 331.9176 149.10028Q331.33948 148.50653 330.44885 148.50653Q329.57385 148.50653 328.99573 149.08466Q328.43323 149.66278 328.43323 150.52216ZM335.87073 153.41278L335.87073 152.00653L337.27698 152.00653L337.27698 153.41278L335.87073 153.41278ZM345.57385 145.85028L344.3551 145.94403Q344.18323 145.20966 343.88635 144.88153Q343.38635 144.3659 342.65198 144.3659Q342.05823 144.3659 341.62073 144.69403Q341.0426 145.1159 340.69885 145.9284Q340.37073 146.7409 340.3551 148.2409Q340.7926 147.56903 341.43323 147.2409Q342.08948 146.91278 342.7926 146.91278Q344.02698 146.91278 344.88635 147.81903Q345.74573 148.72528 345.74573 150.16278Q345.74573 151.10028 345.33948 151.91278Q344.93323 152.72528 344.21448 153.16278Q343.51135 153.58466 342.6051 153.58466Q341.07385 153.58466 340.1051 152.45966Q339.13635 151.31903 339.13635 148.72528Q339.13635 145.81903 340.19885 144.4909Q341.13635 143.35028 342.7301 143.35028Q343.9176 143.35028 344.6676 144.02216Q345.4176 144.6784 345.57385 145.85028ZM340.5426 150.16278Q340.5426 150.8034 340.80823 151.38153Q341.08948 151.95966 341.57385 152.27216Q342.05823 152.56903 342.58948 152.56903Q343.37073 152.56903 343.93323 151.94403Q344.49573 151.31903 344.49573 150.2409Q344.49573 149.19403 343.93323 148.60028Q343.38635 147.9909 342.5426 147.9909Q341.71448 147.9909 341.12073 148.60028Q340.5426 149.19403 340.5426 150.16278ZM347.4176 145.8034Q347.4176 144.72528 347.94885 143.97528Q348.49573 143.22528 349.52698 143.22528Q350.46448 143.22528 351.07385 143.89716Q351.69885 144.56903 351.69885 145.8659Q351.69885 147.14716 351.07385 147.83466Q350.44885 148.52216 349.5426 148.52216Q348.63635 148.52216 348.02698 147.85028Q347.4176 147.16278 347.4176 145.8034ZM349.55823 144.06903Q349.1051 144.06903 348.7926 144.47528Q348.49573 144.8659 348.49573 145.91278Q348.49573 146.88153 348.7926 147.27216Q349.1051 147.66278 349.55823 147.66278Q350.02698 147.66278 350.32385 147.27216Q350.63635 146.88153 350.63635 145.81903Q350.63635 144.85028 350.32385 144.45966Q350.01135 144.06903 349.55823 144.06903ZM349.55823 153.78778L355.0426 143.22528L356.0426 143.22528L350.58948 153.78778L349.55823 153.78778ZM353.90198 151.0534Q353.90198 149.97528 354.43323 149.2409Q354.9801 148.4909 356.01135 148.4909Q356.94885 148.4909 357.57385 149.16278Q358.19885 149.83466 358.19885 151.13153Q358.19885 152.41278 357.57385 153.10028Q356.94885 153.78778 356.01135 153.78778Q355.1051 153.78778 354.49573 153.1159Q353.90198 152.4284 353.90198 151.0534ZM356.0426 149.33466Q355.57385 149.33466 355.27698 149.7409Q354.9801 150.13153 354.9801 151.1784Q354.9801 152.14716 355.27698 152.53778Q355.58948 152.9284 356.0426 152.9284Q356.51135 152.9284 356.80823 152.53778Q357.12073 152.14716 357.12073 151.08466Q357.12073 150.1159 356.80823 149.72528Q356.51135 149.33466 356.0426 149.33466Z" fill-rule="nonzero"/><path fill="#000000" d="M233.21942 273.73456L233.21942 271.3283L228.86005 271.3283L228.86005 270.2033L233.43817 263.71893L234.43817 263.71893L234.43817 270.2033L235.79755 270.2033L235.79755 271.3283L234.43817 271.3283L234.43817 273.73456L233.21942 273.73456ZM233.21942 270.2033L233.21942 265.68768L230.0788 270.2033L233.21942 270.2033ZM243.65692 266.17206L242.43817 266.2658Q242.2663 265.53143 241.96942 265.2033Q241.46942 264.68768 240.73505 264.68768Q240.1413 264.68768 239.7038 265.0158Q239.12567 265.43768 238.78192 266.25018Q238.4538 267.06268 238.43817 268.56268Q238.87567 267.8908 239.5163 267.56268Q240.17255 267.23456 240.87567 267.23456Q242.11005 267.23456 242.96942 268.1408Q243.8288 269.04706 243.8288 270.48456Q243.8288 271.42206 243.42255 272.23456Q243.0163 273.04706 242.29755 273.48456Q241.59442 273.90643 240.68817 273.90643Q239.15692 273.90643 238.18817 272.78143Q237.21942 271.6408 237.21942 269.04706Q237.21942 266.1408 238.28192 264.81268Q239.21942 263.67206 240.81317 263.67206Q242.00067 263.67206 242.75067 264.34393Q243.50067 265.00018 243.65692 266.17206ZM238.62567 270.48456Q238.62567 271.12518 238.8913 271.7033Q239.17255 272.28143 239.65692 272.59393Q240.1413 272.8908 240.67255 272.8908Q241.4538 272.8908 242.0163 272.2658Q242.5788 271.6408 242.5788 270.56268Q242.5788 269.5158 242.0163 268.92206Q241.46942 268.31268 240.62567 268.31268Q239.79755 268.31268 239.2038 268.92206Q238.62567 269.5158 238.62567 270.48456ZM245.9538 273.73456L245.9538 272.3283L247.36005 272.3283L247.36005 273.73456L245.9538 273.73456ZM249.2663 268.79706Q249.2663 267.0158 249.62567 265.93768Q250.00067 264.84393 250.71942 264.2658Q251.43817 263.67206 252.53192 263.67206Q253.34442 263.67206 253.9538 264.00018Q254.56317 264.3283 254.9538 264.93768Q255.36005 265.54706 255.5788 266.42206Q255.79755 267.29706 255.79755 268.79706Q255.79755 270.56268 255.43817 271.6408Q255.0788 272.71893 254.36005 273.31268Q253.6413 273.90643 252.53192 273.90643Q251.09442 273.90643 250.2663 272.85956Q249.2663 271.60956 249.2663 268.79706ZM250.53192 268.79706Q250.53192 271.2658 251.11005 272.0783Q251.68817 272.8908 252.53192 272.8908Q253.3913 272.8908 253.96942 272.0783Q254.54755 271.25018 254.54755 268.79706Q254.54755 266.31268 253.96942 265.50018Q253.3913 264.68768 252.5163 264.68768Q251.67255 264.68768 251.17255 265.40643Q250.53192 266.3283 250.53192 268.79706ZM257.50067 266.12518Q257.50067 265.04706 258.03192 264.29706Q258.5788 263.54706 259.61005 263.54706Q260.54755 263.54706 261.15692 264.21893Q261.78192 264.8908 261.78192 266.18768Q261.78192 267.46893 261.15692 268.15643Q260.53192 268.84393 259.62567 268.84393Q258.71942 268.84393 258.11005 268.17206Q257.50067 267.48456 257.50067 266.12518ZM259.6413 264.3908Q259.18817 264.3908 258.87567 264.79706Q258.5788 265.18768 258.5788 266.23456Q258.5788 267.2033 258.87567 267.59393Q259.18817 267.98456 259.6413 267.98456Q260.11005 267.98456 260.40692 267.59393Q260.71942 267.2033 260.71942 266.1408Q260.71942 265.17206 260.40692 264.78143Q260.09442 264.3908 259.6413 264.3908ZM259.6413 274.10956L265.12567 263.54706L266.12567 263.54706L260.67255 274.10956L259.6413 274.10956ZM263.98505 271.37518Q263.98505 270.29706 264.5163 269.56268Q265.06317 268.81268 266.09442 268.81268Q267.03192 268.81268 267.65692 269.48456Q268.28192 270.15643 268.28192 271.4533Q268.28192 272.73456 267.65692 273.42206Q267.03192 274.10956 266.09442 274.10956Q265.18817 274.10956 264.5788 273.43768Q263.98505 272.75018 263.98505 271.37518ZM266.12567 269.65643Q265.65692 269.65643 265.36005 270.06268Q265.06317 270.4533 265.06317 271.50018Q265.06317 272.46893 265.36005 272.85956Q265.67255 273.25018 266.12567 273.25018Q266.59442 273.25018 266.8913 272.85956Q267.2038 272.46893 267.2038 271.40643Q267.2038 270.43768 266.8913 270.04706Q266.59442 269.65643 266.12567 269.65643Z" fill-rule="nonzero"/><path fill="#000000" d="M174.34265 146.984L174.34265 148.1715L167.71765 148.1715Q167.70203 147.734 167.85828 147.31212Q168.1239 146.64024 168.67078 145.984Q169.23328 145.32774 170.28015 144.46837Q171.92078 143.12462 172.48328 142.34337Q173.0614 141.56212 173.0614 140.859Q173.0614 140.12462 172.53015 139.62462Q172.01453 139.12462 171.1864 139.12462Q170.29578 139.12462 169.7489 139.65587Q169.21765 140.18712 169.21765 141.14024L167.95203 140.99962Q168.07703 139.59337 168.92078 138.859Q169.78015 138.109 171.20203 138.109Q172.65515 138.109 173.48328 138.90587Q174.32703 139.70274 174.32703 140.89024Q174.32703 141.49962 174.07703 142.07774Q173.84265 142.65587 173.26453 143.2965Q172.70203 143.93712 171.3739 145.06212Q170.26453 145.984 169.95203 146.32774Q169.63953 146.65587 169.4364 146.984L174.34265 146.984ZM175.8739 145.5465L177.17078 145.43712Q177.3114 146.37462 177.82703 146.859Q178.35828 147.32774 179.09265 147.32774Q179.98328 147.32774 180.59265 146.65587Q181.21765 145.984 181.21765 144.89024Q181.21765 143.82774 180.6239 143.21837Q180.03015 142.609 179.07703 142.609Q178.48328 142.609 177.9989 142.89024Q177.53015 143.15587 177.2489 143.57774L176.09265 143.43712L177.0614 138.28087L182.04578 138.28087L182.04578 139.46837L178.04578 139.46837L177.51453 142.15587Q178.42078 141.53087 179.40515 141.53087Q180.71765 141.53087 181.60828 142.43712Q182.51453 143.34337 182.51453 144.78087Q182.51453 146.14024 181.73328 147.12462Q180.76453 148.34337 179.09265 148.34337Q177.73328 148.34337 176.85828 147.57774Q175.9989 146.81212 175.8739 145.5465ZM184.5614 148.1715L184.5614 146.76524L185.96765 146.76524L185.96765 148.1715L184.5614 148.1715ZM191.82703 148.1715L191.82703 145.76524L187.46765 145.76524L187.46765 144.64024L192.04578 138.15587L193.04578 138.15587L193.04578 144.64024L194.40515 144.64024L194.40515 145.76524L193.04578 145.76524L193.04578 148.1715L191.82703 148.1715ZM191.82703 144.64024L191.82703 140.12462L188.6864 144.64024L191.82703 144.64024ZM196.10828 140.56212Q196.10828 139.484 196.63953 138.734Q197.1864 137.984 198.21765 137.984Q199.15515 137.984 199.76453 138.65587Q200.38953 139.32774 200.38953 140.62462Q200.38953 141.90587 199.76453 142.59337Q199.13953 143.28087 198.23328 143.28087Q197.32703 143.28087 196.71765 142.609Q196.10828 141.9215 196.10828 140.56212ZM198.2489 138.82774Q197.79578 138.82774 197.48328 139.234Q197.1864 139.62462 197.1864 140.6715Q197.1864 141.64024 197.48328 142.03087Q197.79578 142.4215 198.2489 142.4215Q198.71765 142.4215 199.01453 142.03087Q199.32703 141.64024 199.32703 140.57774Q199.32703 139.609 199.01453 139.21837Q198.70203 138.82774 198.2489 138.82774ZM198.2489 148.5465L203.73328 137.984L204.73328 137.984L199.28015 148.5465L198.2489 148.5465ZM202.59265 145.81212Q202.59265 144.734 203.1239 143.99962Q203.67078 143.24962 204.70203 143.24962Q205.63953 143.24962 206.26453 143.9215Q206.88953 144.59337 206.88953 145.89024Q206.88953 147.1715 206.26453 147.859Q205.63953 148.5465 204.70203 148.5465Q203.79578 148.5465 203.1864 147.87462Q202.59265 147.18712 202.59265 145.81212ZM204.73328 144.09337Q204.26453 144.09337 203.96765 144.49962Q203.67078 144.89024 203.67078 145.93712Q203.67078 146.90587 203.96765 147.2965Q204.28015 147.68712 204.73328 147.68712Q205.20203 147.68712 205.4989 147.2965Q205.8114 146.90587 205.8114 145.84337Q205.8114 144.87462 205.4989 144.484Q205.20203 144.09337 204.73328 144.09337Z" fill-rule="nonzero"/><path fill="#00ffff" d="M532.45 61.916668C532.45 65.23038 529.76373 67.916664 526.45 67.916664C523.1363 67.916664 520.45 65.23038 520.45 61.916668C520.45 58.60296 523.1363 55.916668 526.45 55.916668C529.76373 55.916668 532.45 58.60296 532.45 61.916668Z" fill-rule="nonzero"/><path fill="#1a1a1a" d="M547.0125 57.322914L548.15314 57.322914L548.15314 62.291664Q548.15314 63.58854 547.85626 64.354164Q547.5594 65.104164 546.79376 65.58854Q546.02814 66.05729 544.79376 66.05729Q543.59064 66.05729 542.8094 65.65104Q542.04376 65.229164 541.71564 64.447914Q541.3875 63.65104 541.3875 62.291664L541.3875 57.322914L542.52814 57.322914L542.52814 62.27604Q542.52814 63.40104 542.73126 63.93229Q542.95 64.46354 543.45 64.760414Q543.96564 65.041664 544.7 65.041664Q545.95 65.041664 546.48126 64.479164Q547.0125 63.90104 547.0125 62.27604L547.0125 57.322914ZM550.2469 65.916664L550.2469 59.697914L551.1844 59.697914L551.1844 60.572914Q551.8719 59.55729 553.16876 59.55729Q553.73126 59.55729 554.2 59.760414Q554.6844 59.96354 554.91876 60.291664Q555.15314 60.61979 555.2469 61.05729Q555.29376 61.354164 555.29376 62.08854L555.29376 65.916664L554.2469 65.916664L554.2469 62.135414Q554.2469 61.479164 554.1219 61.166664Q553.9969 60.854164 553.6844 60.666664Q553.3719 60.46354 552.95 60.46354Q552.27814 60.46354 551.77814 60.90104Q551.29376 61.322914 551.29376 62.510414L551.29376 65.916664L550.2469 65.916664ZM556.825 64.05729L557.85626 63.90104Q557.95 64.52604 558.34064 64.854164Q558.7469 65.18229 559.48126 65.18229Q560.2 65.18229 560.54376 64.90104Q560.90314 64.604164 560.90314 64.197914Q560.90314 63.83854 560.59064 63.635414Q560.3719 63.49479 559.5125 63.27604Q558.35626 62.979164 557.90314 62.77604Q557.46564 62.55729 557.23126 62.18229Q556.9969 61.80729 556.9969 61.33854Q556.9969 60.93229 557.1844 60.572914Q557.3719 60.21354 557.7 59.979164Q557.95 59.80729 558.3719 59.68229Q558.79376 59.55729 559.29376 59.55729Q560.0125 59.55729 560.5594 59.77604Q561.1219 59.979164 561.3875 60.33854Q561.65314 60.697914 561.7469 61.291664L560.71564 61.43229Q560.65314 60.96354 560.3094 60.697914Q559.98126 60.416664 559.35626 60.416664Q558.6375 60.416664 558.325 60.666664Q558.0125 60.90104 558.0125 61.229164Q558.0125 61.43229 558.1375 61.58854Q558.27814 61.760414 558.54376 61.86979Q558.7 61.93229 559.48126 62.135414Q560.60626 62.447914 561.04376 62.635414Q561.48126 62.822914 561.73126 63.18229Q561.98126 63.541664 561.98126 64.08854Q561.98126 64.61979 561.66876 65.08854Q561.3719 65.541664 560.79376 65.80729Q560.21564 66.05729 559.48126 66.05729Q558.2625 66.05729 557.6219 65.55729Q556.9969 65.041664 556.825 64.05729ZM568.325 65.916664L568.325 64.99479Q567.59064 66.05729 566.34064 66.05729Q565.79376 66.05729 565.3094 65.854164Q564.84064 65.635414 564.60626 65.322914Q564.3719 64.99479 564.27814 64.52604Q564.21564 64.229164 564.21564 63.541664L564.21564 59.697914L565.27814 59.697914L565.27814 63.15104Q565.27814 63.96354 565.34064 64.260414Q565.4344 64.666664 565.7469 64.916664Q566.075 65.15104 566.5594 65.15104Q567.02814 65.15104 567.4344 64.916664Q567.85626 64.666664 568.02814 64.24479Q568.21564 63.822914 568.21564 63.02604L568.21564 59.697914L569.2625 59.697914L569.2625 65.916664L568.325 65.916664ZM571.23126 65.916664L571.23126 59.697914L572.1844 59.697914L572.1844 60.635414Q572.54376 59.979164 572.84064 59.77604Q573.15314 59.55729 573.52814 59.55729Q574.0594 59.55729 574.60626 59.885414L574.2469 60.86979Q573.85626 60.635414 573.48126 60.635414Q573.1219 60.635414 572.84064 60.854164Q572.575 61.05729 572.46564 61.43229Q572.27814 61.99479 572.27814 62.65104L572.27814 65.916664L571.23126 65.916664ZM579.4969 63.916664L580.59064 64.041664Q580.34064 64.99479 579.6375 65.52604Q578.9344 66.05729 577.85626 66.05729Q576.4969 66.05729 575.6844 65.21354Q574.8875 64.36979 574.8875 62.854164Q574.8875 61.291664 575.7 60.43229Q576.5125 59.55729 577.79376 59.55729Q579.04376 59.55729 579.825 60.40104Q580.6219 61.24479 580.6219 62.791664Q580.6219 62.885414 580.6219 63.072914L575.98126 63.072914Q576.04376 64.104164 576.5594 64.65104Q577.075 65.18229 577.85626 65.18229Q578.4344 65.18229 578.84064 64.885414Q579.2625 64.572914 579.4969 63.916664ZM576.04376 62.21354L579.5125 62.21354Q579.45 61.416664 579.1219 61.02604Q578.60626 60.416664 577.8094 60.416664Q577.075 60.416664 576.575 60.90104Q576.09064 61.385414 576.04376 62.21354Z" fill-rule="nonzero"/><path fill="#ff0000" d="M532.45 85.916664C532.45 89.23038 529.76373 91.916664 526.45 91.916664C523.1363 91.916664 520.45 89.23038 520.45 85.916664C520.45 82.60296 523.1363 79.916664 526.45 79.916664C529.76373 79.916664 532.45 82.60296 532.45 85.916664Z" fill-rule="nonzero"/><path fill="#1a1a1a" d="M543.79376 89.916664L543.79376 86.27604L540.48126 81.322914L541.8719 81.322914L543.5594 83.916664Q544.02814 84.635414 544.4344 85.36979Q544.825 84.697914 545.3719 83.854164L547.04376 81.322914L548.35626 81.322914L544.9344 86.27604L544.9344 89.916664L543.79376 89.916664ZM552.4969 87.916664L553.59064 88.041664Q553.34064 88.99479 552.6375 89.52604Q551.9344 90.05729 550.85626 90.05729Q549.4969 90.05729 548.6844 89.21354Q547.8875 88.36979 547.8875 86.854164Q547.8875 85.291664 548.7 84.43229Q549.5125 83.55729 550.79376 83.55729Q552.04376 83.55729 552.825 84.40104Q553.6219 85.24479 553.6219 86.791664Q553.6219 86.885414 553.6219 87.072914L548.98126 87.072914Q549.04376 88.104164 549.5594 88.65104Q550.075 89.18229 550.85626 89.18229Q551.4344 89.18229 551.84064 88.885414Q552.2625 88.572914 552.4969 87.916664ZM549.04376 86.21354L552.5125 86.21354Q552.45 85.416664 552.1219 85.02604Q551.60626 84.416664 550.8094 84.416664Q550.075 84.416664 549.575 84.90104Q549.09064 85.385414 549.04376 86.21354ZM554.825 88.05729L555.85626 87.90104Q555.95 88.52604 556.34064 88.854164Q556.7469 89.18229 557.48126 89.18229Q558.2 89.18229 558.54376 88.90104Q558.90314 88.604164 558.90314 88.197914Q558.90314 87.83854 558.59064 87.635414Q558.3719 87.49479 557.5125 87.27604Q556.35626 86.979164 555.90314 86.77604Q555.46564 86.55729 555.23126 86.18229Q554.9969 85.80729 554.9969 85.33854Q554.9969 84.93229 555.1844 84.572914Q555.3719 84.21354 555.7 83.979164Q555.95 83.80729 556.3719 83.68229Q556.79376 83.55729 557.29376 83.55729Q558.0125 83.55729 558.5594 83.77604Q559.1219 83.979164 559.3875 84.33854Q559.65314 84.697914 559.7469 85.291664L558.71564 85.43229Q558.65314 84.96354 558.3094 84.697914Q557.98126 84.416664 557.35626 84.416664Q556.6375 84.416664 556.325 84.666664Q556.0125 84.90104 556.0125 85.229164Q556.0125 85.43229 556.1375 85.58854Q556.27814 85.760414 556.54376 85.86979Q556.7 85.93229 557.48126 86.135414Q558.60626 86.447914 559.04376 86.635414Q559.48126 86.822914 559.73126 87.18229Q559.98126 87.541664 559.98126 88.08854Q559.98126 88.61979 559.66876 89.08854Q559.3719 89.541664 558.79376 89.80729Q558.21564 90.05729 557.48126 90.05729Q556.2625 90.05729 555.6219 89.55729Q554.9969 89.041664 554.825 88.05729Z" fill-rule="nonzero"/><path fill="#ffff00" d="M532.45 109.916664C532.45 113.23038 529.76373 115.916664 526.45 115.916664C523.1363 115.916664 520.45 113.23038 520.45 109.916664C520.45 106.60296 523.1363 103.916664 526.45 103.916664C529.76373 103.916664 532.45 106.60296 532.45 109.916664Z" fill-rule="nonzero"/><path fill="#1a1a1a" d="M541.3719 113.916664L541.3719 105.322914L542.52814 105.322914L547.04376 112.072914L547.04376 105.322914L548.1375 105.322914L548.1375 113.916664L546.96564 113.916664L542.45 107.166664L542.45 113.916664L541.3719 113.916664ZM549.85626 110.80729Q549.85626 109.072914 550.8094 108.24479Q551.60626 107.55729 552.7625 107.55729Q554.04376 107.55729 554.85626 108.40104Q555.6844 109.229164 555.6844 110.71354Q555.6844 111.916664 555.325 112.604164Q554.96564 113.291664 554.2625 113.68229Q553.575 114.05729 552.7625 114.05729Q551.46564 114.05729 550.65314 113.229164Q549.85626 112.385414 549.85626 110.80729ZM550.9344 110.80729Q550.9344 111.99479 551.45 112.58854Q551.98126 113.18229 552.7625 113.18229Q553.5594 113.18229 554.075 112.58854Q554.59064 111.99479 554.59064 110.77604Q554.59064 109.61979 554.0594 109.02604Q553.54376 108.43229 552.7625 108.43229Q551.98126 108.43229 551.45 109.02604Q550.9344 109.604164 550.9344 110.80729Z" fill-rule="nonzero"/><path fill="#000000" d="M81.953125 23.2375L87.234375 23.2375Q89.015625 23.2375 89.953125 23.503124Q91.21875 23.878124 92.109375 24.83125Q93.015625 25.76875 93.484375 27.14375Q93.953125 28.51875 93.953125 30.534374Q93.953125 32.3 93.515625 33.58125Q92.96875 35.14375 91.96875 36.096874Q91.21875 36.83125 89.9375 37.253124Q88.984375 37.55 87.390625 37.55L81.953125 37.55L81.953125 23.2375ZM84.84375 25.659374L84.84375 35.14375L87.0 35.14375Q88.203125 35.14375 88.75 35.003124Q89.453125 34.83125 89.90625 34.409374Q90.375 33.9875 90.65625 33.034374Q90.953125 32.065624 90.953125 30.39375Q90.953125 28.7375 90.65625 27.846874Q90.375 26.95625 89.84375 26.471874Q89.3125 25.971874 88.515625 25.784374Q87.90625 25.659374 86.140625 25.659374L84.84375 25.659374ZM95.296875 32.221874Q95.296875 30.846874 95.96875 29.565624Q96.65625 28.284374 97.890625 27.6125Q99.125 26.940624 100.640625 26.940624Q103.0 26.940624 104.5 28.471874Q106.0 30.003124 106.0 32.33125Q106.0 34.690624 104.484375 36.2375Q102.96875 37.784374 100.65625 37.784374Q99.234375 37.784374 97.9375 37.14375Q96.65625 36.4875 95.96875 35.253124Q95.296875 34.003124 95.296875 32.221874ZM98.109375 32.3625Q98.109375 33.909374 98.84375 34.7375Q99.578125 35.55 100.65625 35.55Q101.734375 35.55 102.453125 34.7375Q103.1875 33.909374 103.1875 32.346874Q103.1875 30.815624 102.453125 30.003124Q101.734375 29.175 100.65625 29.175Q99.578125 29.175 98.84375 30.003124Q98.109375 30.815624 98.109375 32.3625ZM112.640625 27.175L115.5625 27.175L118.03125 34.534374L120.453125 27.175L123.296875 27.175L119.640625 37.159374L118.984375 38.971874Q118.625 39.878124 118.296875 40.346874Q117.96875 40.83125 117.546875 41.128124Q117.125 41.425 116.5 41.58125Q115.875 41.753124 115.09375 41.753124Q114.3125 41.753124 113.546875 41.596874L113.296875 39.440624Q113.953125 39.565624 114.46875 39.565624Q115.421875 39.565624 115.875 39.003124Q116.34375 38.45625 116.578125 37.58125L112.640625 27.175ZM124.296875 32.221874Q124.296875 30.846874 124.96875 29.565624Q125.65625 28.284374 126.890625 27.6125Q128.125 26.940624 129.64062 26.940624Q132.0 26.940624 133.5 28.471874Q135.0 30.003124 135.0 32.33125Q135.0 34.690624 133.48438 36.2375Q131.96875 37.784374 129.65625 37.784374Q128.23438 37.784374 126.9375 37.14375Q125.65625 36.4875 124.96875 35.253124Q124.296875 34.003124 124.296875 32.221874ZM127.109375 32.3625Q127.109375 33.909374 127.84375 34.7375Q128.57812 35.55 129.65625 35.55Q130.73438 35.55 131.45312 34.7375Q132.1875 33.909374 132.1875 32.346874Q132.1875 30.815624 131.45312 30.003124Q130.73438 29.175 129.65625 29.175Q128.57812 29.175 127.84375 30.003124Q127.109375 30.815624 127.109375 32.3625ZM143.76562 37.55L143.76562 36.003124Q143.20312 36.83125 142.26562 37.315624Q141.34375 37.784374 140.32812 37.784374Q139.28125 37.784374 138.45312 37.33125Q137.625 36.8625 137.25 36.034374Q136.875 35.20625 136.875 33.7375L136.875 27.175L139.625 27.175L139.625 31.940624Q139.625 34.128124 139.76562 34.628124Q139.92188 35.1125 140.3125 35.409374Q140.71875 35.690624 141.34375 35.690624Q142.04688 35.690624 142.59375 35.315624Q143.15625 34.925 143.35938 34.3625Q143.5625 33.784374 143.5625 31.55L143.5625 27.175L146.3125 27.175L146.3125 37.55L143.76562 37.55ZM154.8125 37.55L154.8125 23.2375L157.5625 23.2375L157.5625 28.39375Q158.82812 26.940624 160.57812 26.940624Q162.46875 26.940624 163.70312 28.315624Q164.95312 29.690624 164.95312 32.253124Q164.95312 34.909374 163.6875 36.346874Q162.42188 37.784374 160.60938 37.784374Q159.71875 37.784374 158.85938 37.346874Q158.0 36.89375 157.375 36.01875L157.375 37.55L154.8125 37.55ZM157.54688 32.14375Q157.54688 33.753124 158.04688 34.51875Q158.76562 35.6125 159.95312 35.6125Q160.85938 35.6125 161.5 34.846874Q162.14062 34.065624 162.14062 32.39375Q162.14062 30.6125 161.48438 29.83125Q160.84375 29.05 159.84375 29.05Q158.85938 29.05 158.20312 29.815624Q157.54688 30.58125 157.54688 32.14375ZM172.9375 34.253124L175.67188 34.70625Q175.15625 36.20625 174.01562 37.003124Q172.875 37.784374 171.17188 37.784374Q168.45312 37.784374 167.15625 36.01875Q166.14062 34.596874 166.14062 32.440624Q166.14062 29.8625 167.48438 28.409374Q168.82812 26.940624 170.89062 26.940624Q173.20312 26.940624 174.53125 28.471874Q175.875 30.003124 175.82812 33.159374L168.95312 33.159374Q168.98438 34.378124 169.60938 35.065624Q170.25 35.7375 171.1875 35.7375Q171.84375 35.7375 172.28125 35.39375Q172.71875 35.034374 172.9375 34.253124ZM173.09375 31.471874Q173.0625 30.284374 172.46875 29.675Q171.89062 29.05 171.0625 29.05Q170.15625 29.05 169.57812 29.690624Q168.98438 30.346874 169.0 31.471874L173.09375 31.471874ZM177.9375 37.55L177.9375 23.2375L180.6875 23.2375L180.6875 37.55L177.9375 37.55ZM182.9375 25.76875L182.9375 23.2375L185.6875 23.2375L185.6875 25.76875L182.9375 25.76875ZM182.9375 37.55L182.9375 27.175L185.6875 27.175L185.6875 37.55L182.9375 37.55ZM193.9375 34.253124L196.67188 34.70625Q196.15625 36.20625 195.01562 37.003124Q193.875 37.784374 192.17188 37.784374Q189.45312 37.784374 188.15625 36.01875Q187.14062 34.596874 187.14062 32.440624Q187.14062 29.8625 188.48438 28.409374Q189.82812 26.940624 191.89062 26.940624Q194.20312 26.940624 195.53125 28.471874Q196.875 30.003124 196.82812 33.159374L189.95312 33.159374Q189.98438 34.378124 190.60938 35.065624Q191.25 35.7375 192.1875 35.7375Q192.84375 35.7375 193.28125 35.39375Q193.71875 35.034374 193.9375 34.253124ZM194.09375 31.471874Q194.0625 30.284374 193.46875 29.675Q192.89062 29.05 192.0625 29.05Q191.15625 29.05 190.57812 29.690624Q189.98438 30.346874 190.0 31.471874L194.09375 31.471874ZM201.78125 37.55L197.60938 27.175L200.48438 27.175L202.4375 32.471874L203.01562 34.2375Q203.23438 33.565624 203.29688 33.346874Q203.42188 32.909374 203.57812 32.471874L205.5625 27.175L208.375 27.175L204.26562 37.55L201.78125 37.55ZM215.9375 34.253124L218.67188 34.70625Q218.15625 36.20625 217.01562 37.003124Q215.875 37.784374 214.17188 37.784374Q211.45312 37.784374 210.15625 36.01875Q209.14062 34.596874 209.14062 32.440624Q209.14062 29.8625 210.48438 28.409374Q211.82812 26.940624 213.89062 26.940624Q216.20312 26.940624 217.53125 28.471874Q218.875 30.003124 218.82812 33.159374L211.95312 33.159374Q211.98438 34.378124 212.60938 35.065624Q213.25 35.7375 214.1875 35.7375Q214.84375 35.7375 215.28125 35.39375Q215.71875 35.034374 215.9375 34.253124ZM216.09375 31.471874Q216.0625 30.284374 215.46875 29.675Q214.89062 29.05 214.0625 29.05Q213.15625 29.05 212.57812 29.690624Q211.98438 30.346874 212.0 31.471874L216.09375 31.471874ZM226.95312 23.2375L232.23438 23.2375Q234.01562 23.2375 234.95312 23.503124Q236.21875 23.878124 237.10938 24.83125Q238.01562 25.76875 238.48438 27.14375Q238.95312 28.51875 238.95312 30.534374Q238.95312 32.3 238.51562 33.58125Q237.96875 35.14375 236.96875 36.096874Q236.21875 36.83125 234.9375 37.253124Q233.98438 37.55 232.39062 37.55L226.95312 37.55L226.95312 23.2375ZM229.84375 25.659374L229.84375 35.14375L232.0 35.14375Q233.20312 35.14375 233.75 35.003124Q234.45312 34.83125 234.90625 34.409374Q235.375 33.9875 235.65625 33.034374Q235.95312 32.065624 235.95312 30.39375Q235.95312 28.7375 235.65625 27.846874Q235.375 26.95625 234.84375 26.471874Q234.3125 25.971874 233.51562 25.784374Q232.90625 25.659374 231.14062 25.659374L229.84375 25.659374ZM242.98438 30.346874L240.5 29.89375Q240.92188 28.39375 241.9375 27.675Q242.96875 26.940624 244.98438 26.940624Q246.82812 26.940624 247.71875 27.378124Q248.625 27.815624 248.98438 28.4875Q249.35938 29.14375 249.35938 30.940624L249.32812 34.14375Q249.32812 35.503124 249.45312 36.159374Q249.59375 36.8 249.95312 37.55L247.23438 37.55Q247.125 37.26875 246.96875 36.7375Q246.90625 36.4875 246.875 36.409374Q246.17188 37.096874 245.35938 37.440624Q244.5625 37.784374 243.65625 37.784374Q242.0625 37.784374 241.14062 36.925Q240.21875 36.05 240.21875 34.721874Q240.21875 33.83125 240.625 33.14375Q241.04688 32.45625 241.79688 32.096874Q242.5625 31.721874 244.0 31.45625Q245.92188 31.096874 246.65625 30.784374L246.65625 30.503124Q246.65625 29.721874 246.26562 29.39375Q245.875 29.05 244.79688 29.05Q244.0625 29.05 243.64062 29.33125Q243.23438 29.6125 242.98438 30.346874ZM246.65625 32.565624Q246.125 32.7375 244.98438 32.9875Q243.84375 33.2375 243.5 33.471874Q242.95312 33.846874 242.95312 34.440624Q242.95312 35.003124 243.375 35.425Q243.8125 35.846874 244.48438 35.846874Q245.21875 35.846874 245.89062 35.3625Q246.39062 34.9875 246.54688 34.45625Q246.65625 34.096874 246.65625 33.1125L246.65625 32.565624ZM254.5625 37.55L251.8125 37.55L251.8125 27.175L254.375 27.175L254.375 28.659374Q255.01562 27.6125 255.53125 27.284374Q256.0625 26.940624 256.73438 26.940624Q257.67188 26.940624 258.53125 27.45625L257.6875 29.846874Q257.0 29.409374 256.40625 29.409374Q255.82812 29.409374 255.42188 29.721874Q255.01562 30.034374 254.78125 30.878124Q254.5625 31.70625 254.5625 34.346874L254.5625 37.55ZM259.9375 25.76875L259.9375 23.2375L262.6875 23.2375L262.6875 25.76875L259.9375 25.76875ZM259.9375 37.55L259.9375 27.175L262.6875 27.175L262.6875 37.55L259.9375 37.55ZM264.875 25.76875L264.875 23.2375L267.625 23.2375L267.625 25.76875L264.875 25.76875ZM267.625 27.175L267.625 37.221874Q267.625 39.20625 267.35938 40.01875Q267.10938 40.846874 266.35938 41.3Q265.625 41.753124 264.48438 41.753124Q264.07812 41.753124 263.59375 41.675Q263.125 41.6125 262.57812 41.471874L263.0625 39.128124Q263.25 39.159374 263.42188 39.175Q263.59375 39.20625 263.75 39.20625Q264.17188 39.20625 264.4375 39.01875Q264.70312 38.846874 264.78125 38.596874Q264.875 38.346874 264.875 37.065624L264.875 27.175L267.625 27.175ZM271.98438 30.346874L269.5 29.89375Q269.92188 28.39375 270.9375 27.675Q271.96875 26.940624 273.98438 26.940624Q275.82812 26.940624 276.71875 27.378124Q277.625 27.815624 277.98438 28.4875Q278.35938 29.14375 278.35938 30.940624L278.32812 34.14375Q278.32812 35.503124 278.45312 36.159374Q278.59375 36.8 278.95312 37.55L276.23438 37.55Q276.125 37.26875 275.96875 36.7375Q275.90625 36.4875 275.875 36.409374Q275.17188 37.096874 274.35938 37.440624Q273.5625 37.784374 272.65625 37.784374Q271.0625 37.784374 270.14062 36.925Q269.21875 36.05 269.21875 34.721874Q269.21875 33.83125 269.625 33.14375Q270.04688 32.45625 270.79688 32.096874Q271.5625 31.721874 273.0 31.45625Q274.92188 31.096874 275.65625 30.784374L275.65625 30.503124Q275.65625 29.721874 275.26562 29.39375Q274.875 29.05 273.79688 29.05Q273.0625 29.05 272.64062 29.33125Q272.23438 29.6125 271.98438 30.346874ZM275.65625 32.565624Q275.125 32.7375 273.98438 32.9875Q272.84375 33.2375 272.5 33.471874Q271.95312 33.846874 271.95312 34.440624Q271.95312 35.003124 272.375 35.425Q272.8125 35.846874 273.48438 35.846874Q274.21875 35.846874 274.89062 35.3625Q275.39062 34.9875 275.54688 34.45625Q275.65625 34.096874 275.65625 33.1125L275.65625 32.565624ZM286.9375 25.76875L286.9375 23.2375L289.6875 23.2375L289.6875 25.76875L286.9375 25.76875ZM286.9375 37.55L286.9375 27.175L289.6875 27.175L289.6875 37.55L286.9375 37.55ZM290.96875 34.596874L293.71875 34.175Q293.90625 34.971874 294.4375 35.39375Q294.96875 35.8 295.9375 35.8Q297.0 35.8 297.54688 35.409374Q297.90625 35.14375 297.90625 34.675Q297.90625 34.3625 297.70312 34.159374Q297.5 33.971874 296.79688 33.8Q293.46875 33.065624 292.57812 32.45625Q291.34375 31.628124 291.34375 30.128124Q291.34375 28.784374 292.40625 27.8625Q293.48438 26.940624 295.71875 26.940624Q297.84375 26.940624 298.875 27.64375Q299.92188 28.33125 300.3125 29.690624L297.71875 30.159374Q297.54688 29.565624 297.07812 29.2375Q296.625 28.909374 295.76562 28.909374Q294.6875 28.909374 294.21875 29.221874Q293.90625 29.440624 293.90625 29.76875Q293.90625 30.065624 294.17188 30.26875Q294.54688 30.55 296.73438 31.05Q298.92188 31.55 299.79688 32.26875Q300.65625 33.003124 300.65625 34.3Q300.65625 35.7375 299.46875 36.76875Q298.28125 37.784374 295.9375 37.784374Q293.82812 37.784374 292.57812 36.925Q291.34375 36.065624 290.96875 34.596874ZM310.98438 30.346874L308.5 29.89375Q308.92188 28.39375 309.9375 27.675Q310.96875 26.940624 312.98438 26.940624Q314.82812 26.940624 315.71875 27.378124Q316.625 27.815624 316.98438 28.4875Q317.35938 29.14375 317.35938 30.940624L317.32812 34.14375Q317.32812 35.503124 317.45312 36.159374Q317.59375 36.8 317.95312 37.55L315.23438 37.55Q315.125 37.26875 314.96875 36.7375Q314.90625 36.4875 314.875 36.409374Q314.17188 37.096874 313.35938 37.440624Q312.5625 37.784374 311.65625 37.784374Q310.0625 37.784374 309.14062 36.925Q308.21875 36.05 308.21875 34.721874Q308.21875 33.83125 308.625 33.14375Q309.04688 32.45625 309.79688 32.096874Q310.5625 31.721874 312.0 31.45625Q313.92188 31.096874 314.65625 30.784374L314.65625 30.503124Q314.65625 29.721874 314.26562 29.39375Q313.875 29.05 312.79688 29.05Q312.0625 29.05 311.64062 29.33125Q311.23438 29.6125 310.98438 30.346874ZM314.65625 32.565624Q314.125 32.7375 312.98438 32.9875Q311.84375 33.2375 311.5 33.471874Q310.95312 33.846874 310.95312 34.440624Q310.95312 35.003124 311.375 35.425Q311.8125 35.846874 312.48438 35.846874Q313.21875 35.846874 313.89062 35.3625Q314.39062 34.9875 314.54688 34.45625Q314.65625 34.096874 314.65625 33.1125L314.65625 32.565624ZM325.9375 37.55L325.9375 23.2375L328.6875 23.2375L328.6875 37.55L325.9375 37.55ZM336.9375 34.253124L339.67188 34.70625Q339.15625 36.20625 338.01562 37.003124Q336.875 37.784374 335.17188 37.784374Q332.45312 37.784374 331.15625 36.01875Q330.14062 34.596874 330.14062 32.440624Q330.14062 29.8625 331.48438 28.409374Q332.82812 26.940624 334.89062 26.940624Q337.20312 26.940624 338.53125 28.471874Q339.875 30.003124 339.82812 33.159374L332.95312 33.159374Q332.98438 34.378124 333.60938 35.065624Q334.25 35.7375 335.1875 35.7375Q335.84375 35.7375 336.28125 35.39375Q336.71875 35.034374 336.9375 34.253124ZM337.09375 31.471874Q337.0625 30.284374 336.46875 29.675Q335.89062 29.05 335.0625 29.05Q334.15625 29.05 333.57812 29.690624Q332.98438 30.346874 333.0 31.471874L337.09375 31.471874ZM341.6875 38.2375L344.8125 38.6125Q344.89062 39.159374 345.17188 39.3625Q345.5625 39.659374 346.40625 39.659374Q347.48438 39.659374 348.01562 39.33125Q348.375 39.128124 348.5625 38.64375Q348.6875 38.3 348.6875 37.378124L348.6875 35.8625Q347.46875 37.55 345.59375 37.55Q343.5 37.55 342.28125 35.784374Q341.32812 34.378124 341.32812 32.3Q341.32812 29.690624 342.57812 28.315624Q343.82812 26.940624 345.70312 26.940624Q347.625 26.940624 348.875 28.628124L348.875 27.175L351.4375 27.175L351.4375 36.4875Q351.4375 38.315624 351.125 39.221874Q350.82812 40.14375 350.28125 40.659374Q349.73438 41.175 348.8125 41.45625Q347.90625 41.753124 346.51562 41.753124Q343.875 41.753124 342.76562 40.846874Q341.67188 39.95625 341.67188 38.565624Q341.67188 38.425 341.6875 38.2375ZM344.14062 32.14375Q344.14062 33.8 344.76562 34.565624Q345.40625 35.33125 346.34375 35.33125Q347.35938 35.33125 348.04688 34.55Q348.75 33.753124 348.75 32.221874Q348.75 30.6125 348.07812 29.83125Q347.42188 29.05 346.40625 29.05Q345.40625 29.05 344.76562 29.815624Q344.14062 30.58125 344.14062 32.14375ZM353.9375 25.76875L353.9375 23.2375L356.6875 23.2375L356.6875 25.76875L353.9375 25.76875ZM353.9375 37.55L353.9375 27.175L356.6875 27.175L356.6875 37.55L353.9375 37.55ZM363.6875 27.175L363.6875 29.3625L361.8125 29.3625L361.8125 33.55Q361.8125 34.815624 361.85938 35.034374Q361.92188 35.2375 362.10938 35.378124Q362.3125 35.503124 362.57812 35.503124Q362.95312 35.503124 363.6875 35.2375L363.92188 37.378124Q362.95312 37.784374 361.75 37.784374Q361.0 37.784374 360.40625 37.534374Q359.8125 37.284374 359.53125 36.89375Q359.26562 36.4875 359.15625 35.815624Q359.0625 35.346874 359.0625 33.89375L359.0625 29.3625L357.79688 29.3625L357.79688 27.175L359.0625 27.175L359.0625 25.1125L361.8125 23.51875L361.8125 27.175L363.6875 27.175ZM365.9375 25.76875L365.9375 23.2375L368.6875 23.2375L368.6875 25.76875L365.9375 25.76875ZM365.9375 37.55L365.9375 27.175L368.6875 27.175L368.6875 37.55L365.9375 37.55ZM370.73438 27.175L373.26562 27.175L373.26562 28.596874Q374.625 26.940624 376.5 26.940624Q377.48438 26.940624 378.21875 27.3625Q378.95312 27.76875 379.42188 28.596874Q380.10938 27.76875 380.89062 27.3625Q381.6875 26.940624 382.59375 26.940624Q383.73438 26.940624 384.51562 27.409374Q385.3125 27.878124 385.70312 28.76875Q385.98438 29.440624 385.98438 30.925L385.98438 37.55L383.23438 37.55L383.23438 31.628124Q383.23438 30.08125 382.95312 29.628124Q382.57812 29.05 381.78125 29.05Q381.20312 29.05 380.6875 29.409374Q380.1875 29.753124 379.96875 30.425Q379.75 31.096874 379.75 32.565624L379.75 37.55L377.0 37.55L377.0 31.8625Q377.0 30.346874 376.84375 29.909374Q376.70312 29.471874 376.39062 29.26875Q376.09375 29.05 375.5625 29.05Q374.9375 29.05 374.42188 29.39375Q373.92188 29.721874 373.6875 30.378124Q373.46875 31.01875 373.46875 32.503124L373.46875 37.55L370.73438 37.55L370.73438 27.175ZM389.98438 30.346874L387.5 29.89375Q387.92188 28.39375 388.9375 27.675Q389.96875 26.940624 391.98438 26.940624Q393.82812 26.940624 394.71875 27.378124Q395.625 27.815624 395.98438 28.4875Q396.35938 29.14375 396.35938 30.940624L396.32812 34.14375Q396.32812 35.503124 396.45312 36.159374Q396.59375 36.8 396.95312 37.55L394.23438 37.55Q394.125 37.26875 393.96875 36.7375Q393.90625 36.4875 393.875 36.409374Q393.17188 37.096874 392.35938 37.440624Q391.5625 37.784374 390.65625 37.784374Q389.0625 37.784374 388.14062 36.925Q387.21875 36.05 387.21875 34.721874Q387.21875 33.83125 387.625 33.14375Q388.04688 32.45625 388.79688 32.096874Q389.5625 31.721874 391.0 31.45625Q392.92188 31.096874 393.65625 30.784374L393.65625 30.503124Q393.65625 29.721874 393.26562 29.39375Q392.875 29.05 391.79688 29.05Q391.0625 29.05 390.64062 29.33125Q390.23438 29.6125 389.98438 30.346874ZM393.65625 32.565624Q393.125 32.7375 391.98438 32.9875Q390.84375 33.2375 390.5 33.471874Q389.95312 33.846874 389.95312 34.440624Q389.95312 35.003124 390.375 35.425Q390.8125 35.846874 391.48438 35.846874Q392.21875 35.846874 392.89062 35.3625Q393.39062 34.9875 393.54688 34.45625Q393.65625 34.096874 393.65625 33.1125L393.65625 32.565624ZM403.6875 27.175L403.6875 29.3625L401.8125 29.3625L401.8125 33.55Q401.8125 34.815624 401.85938 35.034374Q401.92188 35.2375 402.10938 35.378124Q402.3125 35.503124 402.57812 35.503124Q402.95312 35.503124 403.6875 35.2375L403.92188 37.378124Q402.95312 37.784374 401.75 37.784374Q401.0 37.784374 400.40625 37.534374Q399.8125 37.284374 399.53125 36.89375Q399.26562 36.4875 399.15625 35.815624Q399.0625 35.346874 399.0625 33.89375L399.0625 29.3625L397.79688 29.3625L397.79688 27.175L399.0625 27.175L399.0625 25.1125L401.8125 23.51875L401.8125 27.175L403.6875 27.175ZM411.9375 34.253124L414.67188 34.70625Q414.15625 36.20625 413.01562 37.003124Q411.875 37.784374 410.17188 37.784374Q407.45312 37.784374 406.15625 36.01875Q405.14062 34.596874 405.14062 32.440624Q405.14062 29.8625 406.48438 28.409374Q407.82812 26.940624 409.89062 26.940624Q412.20312 26.940624 413.53125 28.471874Q414.875 30.003124 414.82812 33.159374L407.95312 33.159374Q407.98438 34.378124 408.60938 35.065624Q409.25 35.7375 410.1875 35.7375Q410.84375 35.7375 411.28125 35.39375Q411.71875 35.034374 411.9375 34.253124ZM412.09375 31.471874Q412.0625 30.284374 411.46875 29.675Q410.89062 29.05 410.0625 29.05Q409.15625 29.05 408.57812 29.690624Q407.98438 30.346874 408.0 31.471874L412.09375 31.471874ZM422.9375 37.55L422.9375 23.2375L425.6875 23.2375L425.6875 37.55L422.9375 37.55ZM429.98438 30.346874L427.5 29.89375Q427.92188 28.39375 428.9375 27.675Q429.96875 26.940624 431.98438 26.940624Q433.82812 26.940624 434.71875 27.378124Q435.625 27.815624 435.98438 28.4875Q436.35938 29.14375 436.35938 30.940624L436.32812 34.14375Q436.32812 35.503124 436.45312 36.159374Q436.59375 36.8 436.95312 37.55L434.23438 37.55Q434.125 37.26875 433.96875 36.7375Q433.90625 36.4875 433.875 36.409374Q433.17188 37.096874 432.35938 37.440624Q431.5625 37.784374 430.65625 37.784374Q429.0625 37.784374 428.14062 36.925Q427.21875 36.05 427.21875 34.721874Q427.21875 33.83125 427.625 33.14375Q428.04688 32.45625 428.79688 32.096874Q429.5625 31.721874 431.0 31.45625Q432.92188 31.096874 433.65625 30.784374L433.65625 30.503124Q433.65625 29.721874 433.26562 29.39375Q432.875 29.05 431.79688 29.05Q431.0625 29.05 430.64062 29.33125Q430.23438 29.6125 429.98438 30.346874ZM433.65625 32.565624Q433.125 32.7375 431.98438 32.9875Q430.84375 33.2375 430.5 33.471874Q429.95312 33.846874 429.95312 34.440624Q429.95312 35.003124 430.375 35.425Q430.8125 35.846874 431.48438 35.846874Q432.21875 35.846874 432.89062 35.3625Q433.39062 34.9875 433.54688 34.45625Q433.65625 34.096874 433.65625 33.1125L433.65625 32.565624ZM448.375 37.55L445.625 37.55L445.625 32.253124Q445.625 30.58125 445.45312 30.096874Q445.28125 29.596874 444.875 29.33125Q444.48438 29.05 443.92188 29.05Q443.21875 29.05 442.64062 29.440624Q442.07812 29.83125 441.85938 30.471874Q441.65625 31.1125 441.65625 32.846874L441.65625 37.55L438.92188 37.55L438.92188 27.175L441.46875 27.175L441.46875 28.70625Q442.82812 26.940624 444.89062 26.940624Q445.79688 26.940624 446.54688 27.26875Q447.29688 27.596874 447.67188 28.1125Q448.0625 28.6125 448.21875 29.26875Q448.375 29.909374 448.375 31.096874L448.375 37.55ZM450.6875 38.2375L453.8125 38.6125Q453.89062 39.159374 454.17188 39.3625Q454.5625 39.659374 455.40625 39.659374Q456.48438 39.659374 457.01562 39.33125Q457.375 39.128124 457.5625 38.64375Q457.6875 38.3 457.6875 37.378124L457.6875 35.8625Q456.46875 37.55 454.59375 37.55Q452.5 37.55 451.28125 35.784374Q450.32812 34.378124 450.32812 32.3Q450.32812 29.690624 451.57812 28.315624Q452.82812 26.940624 454.70312 26.940624Q456.625 26.940624 457.875 28.628124L457.875 27.175L460.4375 27.175L460.4375 36.4875Q460.4375 38.315624 460.125 39.221874Q459.82812 40.14375 459.28125 40.659374Q458.73438 41.175 457.8125 41.45625Q456.90625 41.753124 455.51562 41.753124Q452.875 41.753124 451.76562 40.846874Q450.67188 39.95625 450.67188 38.565624Q450.67188 38.425 450.6875 38.2375ZM453.14062 32.14375Q453.14062 33.8 453.76562 34.565624Q454.40625 35.33125 455.34375 35.33125Q456.35938 35.33125 457.04688 34.55Q457.75 33.753124 457.75 32.221874Q457.75 30.6125 457.07812 29.83125Q456.42188 29.05 455.40625 29.05Q454.40625 29.05 453.76562 29.815624Q453.14062 30.58125 453.14062 32.14375ZM469.76562 37.55L469.76562 36.003124Q469.20312 36.83125 468.26562 37.315624Q467.34375 37.784374 466.32812 37.784374Q465.28125 37.784374 464.45312 37.33125Q463.625 36.8625 463.25 36.034374Q462.875 35.20625 462.875 33.7375L462.875 27.175L465.625 27.175L465.625 31.940624Q465.625 34.128124 465.76562 34.628124Q465.92188 35.1125 466.3125 35.409374Q466.71875 35.690624 467.34375 35.690624Q468.04688 35.690624 468.59375 35.315624Q469.15625 34.925 469.35938 34.3625Q469.5625 33.784374 469.5625 31.55L469.5625 27.175L472.3125 27.175L472.3125 37.55L469.76562 37.55ZM476.98438 30.346874L474.5 29.89375Q474.92188 28.39375 475.9375 27.675Q476.96875 26.940624 478.98438 26.940624Q480.82812 26.940624 481.71875 27.378124Q482.625 27.815624 482.98438 28.4875Q483.35938 29.14375 483.35938 30.940624L483.32812 34.14375Q483.32812 35.503124 483.45312 36.159374Q483.59375 36.8 483.95312 37.55L481.23438 37.55Q481.125 37.26875 480.96875 36.7375Q480.90625 36.4875 480.875 36.409374Q480.17188 37.096874 479.35938 37.440624Q478.5625 37.784374 477.65625 37.784374Q476.0625 37.784374 475.14062 36.925Q474.21875 36.05 474.21875 34.721874Q474.21875 33.83125 474.625 33.14375Q475.04688 32.45625 475.79688 32.096874Q476.5625 31.721874 478.0 31.45625Q479.92188 31.096874 480.65625 30.784374L480.65625 30.503124Q480.65625 29.721874 480.26562 29.39375Q479.875 29.05 478.79688 29.05Q478.0625 29.05 477.64062 29.33125Q477.23438 29.6125 476.98438 30.346874ZM480.65625 32.565624Q480.125 32.7375 478.98438 32.9875Q477.84375 33.2375 477.5 33.471874Q476.95312 33.846874 476.95312 34.440624Q476.95312 35.003124 477.375 35.425Q477.8125 35.846874 478.48438 35.846874Q479.21875 35.846874 479.89062 35.3625Q480.39062 34.9875 480.54688 34.45625Q480.65625 34.096874 480.65625 33.1125L480.65625 32.565624ZM485.6875 38.2375L488.8125 38.6125Q488.89062 39.159374 489.17188 39.3625Q489.5625 39.659374 490.40625 39.659374Q491.48438 39.659374 492.01562 39.33125Q492.375 39.128124 492.5625 38.64375Q492.6875 38.3 492.6875 37.378124L492.6875 35.8625Q491.46875 37.55 489.59375 37.55Q487.5 37.55 486.28125 35.784374Q485.32812 34.378124 485.32812 32.3Q485.32812 29.690624 486.57812 28.315624Q487.82812 26.940624 489.70312 26.940624Q491.625 26.940624 492.875 28.628124L492.875 27.175L495.4375 27.175L495.4375 36.4875Q495.4375 38.315624 495.125 39.221874Q494.82812 40.14375 494.28125 40.659374Q493.73438 41.175 492.8125 41.45625Q491.90625 41.753124 490.51562 41.753124Q487.875 41.753124 486.76562 40.846874Q485.67188 39.95625 485.67188 38.565624Q485.67188 38.425 485.6875 38.2375ZM488.14062 32.14375Q488.14062 33.8 488.76562 34.565624Q489.40625 35.33125 490.34375 35.33125Q491.35938 35.33125 492.04688 34.55Q492.75 33.753124 492.75 32.221874Q492.75 30.6125 492.07812 29.83125Q491.42188 29.05 490.40625 29.05Q489.40625 29.05 488.76562 29.815624Q488.14062 30.58125 488.14062 32.14375ZM503.9375 34.253124L506.67188 34.70625Q506.15625 36.20625 505.01562 37.003124Q503.875 37.784374 502.17188 37.784374Q499.45312 37.784374 498.15625 36.01875Q497.14062 34.596874 497.14062 32.440624Q497.14062 29.8625 498.48438 28.409374Q499.82812 26.940624 501.89062 26.940624Q504.20312 26.940624 505.53125 28.471874Q506.875 30.003124 506.82812 33.159374L499.95312 33.159374Q499.98438 34.378124 500.60938 35.065624Q501.25 35.7375 502.1875 35.7375Q502.84375 35.7375 503.28125 35.39375Q503.71875 35.034374 503.9375 34.253124ZM504.09375 31.471874Q504.0625 30.284374 503.46875 29.675Q502.89062 29.05 502.0625 29.05Q501.15625 29.05 500.57812 29.690624Q499.98438 30.346874 500.0 31.471874L504.09375 31.471874ZM514.8281 33.8625L512.34375 33.8625Q512.3281 33.315624 512.3281 33.20625Q512.3281 31.9875 512.7344 31.20625Q513.1406 30.425 514.3281 29.45625Q515.53125 28.471874 515.7656 28.175Q516.1406 27.690624 516.1406 27.1125Q516.1406 26.315624 515.5 25.753124Q514.8594 25.175 513.7656 25.175Q512.71875 25.175 512.0156 25.76875Q511.3125 26.3625 511.0625 27.58125L508.53125 27.26875Q508.64062 25.534374 510.01562 24.315624Q511.40625 23.08125 513.65625 23.08125Q516.0156 23.08125 517.40625 24.315624Q518.8125 25.55 518.8125 27.190624Q518.8125 28.1125 518.2969 28.925Q517.78125 29.721874 516.1094 31.128124Q515.2344 31.846874 515.0156 32.284374Q514.8125 32.721874 514.8281 33.8625ZM512.34375 37.55L512.34375 34.8L515.09375 34.8L515.09375 37.55L512.34375 37.55Z" fill-rule="nonzero"/></svg>