<svg version="1.1" viewBox="0.0 0.0 600.0 371.0" fill="none" stroke="none" stroke-linecap="square" stroke-miterlimit="10" width="600" height="371" xmlns:xlink="http://www.w3.org/1999/xlink" xmlns="http://www.w3.org/2000/svg"><path fill="#ffffff" d="M0 0L600.0 0L600.0 371.0L0 371.0L0 0Z" fill-rule="nonzero"/><path fill="#00b3b3" d="M423.58334 238.13542C423.58334 247.50266 421.40994 256.8077 417.148 265.68716L417.148 247.14967C421.40994 238.2702 423.58334 228.96515 423.58334 219.59792Z" fill-rule="nonzero"/><path fill="#00ffff" d="M300.0 133.08958C339.77698 133.08958 377.12244 146.49171 400.342 169.09923C423.56155 191.70673 429.81647 220.75569 417.148 247.14967L300.0 219.59792Z" fill-rule="nonzero"/><path fill="#b30000" d="M417.148 265.68716C400.96024 299.4135 356.92416 322.76276 306.16013 324.53622L306.16013 305.99872C356.92416 304.22525 400.96024 280.876 417.148 247.14967Z" fill-rule="nonzero"/><path fill="#ff0000" d="M417.148 247.14967C400.96024 280.876 356.92416 304.22525 306.16013 305.99872L300.0 219.59792Z" fill-rule="nonzero"/><path fill="#00b300" d="M187.35307 273.71518C180.14462 262.5323 176.41667 250.404 176.41667 238.13542L176.41667 219.59792C176.41667 231.86652 180.14462 243.99478 187.35307 255.17767Z" fill-rule="nonzero"/><path fill="#00ff00" d="M187.35307 255.17767C170.09645 228.40648 173.42287 197.33496 196.1868 172.66315C218.95073 147.99133 258.04242 133.08958 300.0 133.08958L300.0 219.59792Z" fill-rule="nonzero"/><path fill="#b3b300" d="M306.16013 324.53622C255.39609 326.3097 208.25764 306.1457 187.35307 273.71518L187.35307 255.17767C208.25764 287.6082 255.39609 307.7722 306.16013 305.99872Z" fill-rule="nonzero"/><path fill="#ffff00" d="M306.16013 305.99872C255.39609 307.7722 208.25764 287.6082 187.35307 255.17767L300.0 219.59792Z" fill-rule="nonzero"/><path fill="#000000" d="M345.74594 189.16843L346.9647 188.99655Q347.18344 190.04343 347.68344 190.51218Q348.19907 190.9653 348.93344 190.9653Q349.80844 190.9653 350.4022 190.37155Q350.99594 189.76218 350.99594 188.87155Q350.99594 188.0278 350.43344 187.48093Q349.88657 186.93405 349.04282 186.93405Q348.68344 186.93405 348.16782 187.05905L348.30844 185.98093Q348.43344 185.99655 348.49594 185.99655Q349.29282 185.99655 349.91782 185.5903Q350.54282 185.18405 350.54282 184.32468Q350.54282 183.6528 350.0897 183.2153Q349.63657 182.76218 348.9022 182.76218Q348.18344 182.76218 347.69907 183.2153Q347.23032 183.6528 347.0897 184.55905L345.87094 184.3403Q346.0897 183.10593 346.88657 182.43405Q347.68344 181.74655 348.87094 181.74655Q349.69907 181.74655 350.38657 182.10593Q351.07407 182.44968 351.43344 183.05905Q351.80844 183.66843 351.80844 184.35593Q351.80844 184.99655 351.4647 185.5278Q351.12094 186.05905 350.43344 186.38718Q351.32407 186.5903 351.80844 187.23093Q352.30844 187.87155 352.30844 188.85593Q352.30844 190.16843 351.3397 191.07468Q350.38657 191.98093 348.93344 191.98093Q347.60532 191.98093 346.73032 191.19968Q345.87094 190.41843 345.74594 189.16843ZM353.73032 186.87155Q353.73032 185.0903 354.0897 184.01218Q354.4647 182.91843 355.18344 182.3403Q355.9022 181.74655 356.99594 181.74655Q357.80844 181.74655 358.41782 182.07468Q359.0272 182.4028 359.41782 183.01218Q359.82407 183.62155 360.04282 184.49655Q360.26157 185.37155 360.26157 186.87155Q360.26157 188.63718 359.9022 189.7153Q359.54282 190.79343 358.82407 191.38718Q358.10532 191.98093 356.99594 191.98093Q355.55844 191.98093 354.73032 190.93405Q353.73032 189.68405 353.73032 186.87155ZM354.99594 186.87155Q354.99594 189.3403 355.57407 190.1528Q356.1522 190.9653 356.99594 190.9653Q357.85532 190.9653 358.43344 190.1528Q359.01157 189.32468 359.01157 186.87155Q359.01157 184.38718 358.43344 183.57468Q357.85532 182.76218 356.98032 182.76218Q356.13657 182.76218 355.63657 183.48093Q354.99594 184.4028 354.99594 186.87155ZM362.41782 191.80905L362.41782 190.4028L363.82407 190.4028L363.82407 191.80905L362.41782 191.80905ZM372.19907 190.62155L372.19907 191.80905L365.57407 191.80905Q365.55844 191.37155 365.7147 190.94968Q365.98032 190.2778 366.5272 189.62155Q367.0897 188.9653 368.13657 188.10593Q369.7772 186.76218 370.3397 185.98093Q370.91782 185.19968 370.91782 184.49655Q370.91782 183.76218 370.38657 183.26218Q369.87094 182.76218 369.04282 182.76218Q368.1522 182.76218 367.60532 183.29343Q367.07407 183.82468 367.07407 184.7778L365.80844 184.63718Q365.93344 183.23093 366.7772 182.49655Q367.63657 181.74655 369.05844 181.74655Q370.51157 181.74655 371.3397 182.54343Q372.18344 183.3403 372.18344 184.5278Q372.18344 185.13718 371.93344 185.7153Q371.69907 186.29343 371.12094 186.93405Q370.55844 187.57468 369.23032 188.69968Q368.12094 189.62155 367.80844 189.9653Q367.49594 190.29343 367.29282 190.62155L372.19907 190.62155ZM373.9647 184.19968Q373.9647 183.12155 374.49594 182.37155Q375.04282 181.62155 376.07407 181.62155Q377.01157 181.62155 377.62094 182.29343Q378.24594 182.9653 378.24594 184.26218Q378.24594 185.54343 377.62094 186.23093Q376.99594 186.91843 376.0897 186.91843Q375.18344 186.91843 374.57407 186.24655Q373.9647 185.55905 373.9647 184.19968ZM376.10532 182.4653Q375.6522 182.4653 375.3397 182.87155Q375.04282 183.26218 375.04282 184.30905Q375.04282 185.2778 375.3397 185.66843Q375.6522 186.05905 376.10532 186.05905Q376.57407 186.05905 376.87094 185.66843Q377.18344 185.2778 377.18344 184.2153Q377.18344 183.24655 376.87094 182.85593Q376.55844 182.4653 376.10532 182.4653ZM376.10532 192.18405L381.5897 181.62155L382.5897 181.62155L377.13657 192.18405L376.10532 192.18405ZM380.44907 189.44968Q380.44907 188.37155 380.98032 187.63718Q381.5272 186.88718 382.55844 186.88718Q383.49594 186.88718 384.12094 187.55905Q384.74594 188.23093 384.74594 189.5278Q384.74594 190.80905 384.12094 191.49655Q383.49594 192.18405 382.55844 192.18405Q381.6522 192.18405 381.04282 191.51218Q380.44907 190.82468 380.44907 189.44968ZM382.5897 187.73093Q382.12094 187.73093 381.82407 188.13718Q381.5272 188.5278 381.5272 189.57468Q381.5272 190.54343 381.82407 190.93405Q382.13657 191.32468 382.5897 191.32468Q383.05844 191.32468 383.35532 190.93405Q383.66782 190.54343 383.66782 189.48093Q383.66782 188.51218 383.35532 188.12155Q383.05844 187.73093 382.5897 187.73093Z" fill-rule="nonzero"/><path fill="#000000" d="M333.87778 269.5651L332.6434 269.5651L332.6434 261.72134Q332.2059 262.14322 331.47153 262.58072Q330.75278 263.0026 330.19028 263.20572L330.19028 262.01822Q331.22153 261.53384 331.98715 260.84634Q332.7684 260.15884 333.0809 259.5026L333.87778 259.5026L333.87778 269.5651ZM337.42465 267.2526L338.61215 267.14322Q338.75278 267.97134 339.17465 268.34634Q339.61215 268.72134 340.2684 268.72134Q340.8309 268.72134 341.25278 268.47134Q341.69028 268.20572 341.9559 267.76822Q342.23715 267.33072 342.42465 266.59634Q342.61215 265.86197 342.61215 265.09634Q342.61215 265.01822 342.59653 264.84634Q342.23715 265.4401 341.59653 265.8151Q340.9559 266.17447 340.2059 266.17447Q338.9559 266.17447 338.09653 265.26822Q337.23715 264.36197 337.23715 262.89322Q337.23715 261.36197 338.12778 260.4401Q339.03403 259.5026 340.3934 259.5026Q341.36215 259.5026 342.17465 260.03384Q342.98715 260.54947 343.40903 261.53384Q343.8309 262.5026 343.8309 264.34634Q343.8309 266.26822 343.40903 267.40884Q343.00278 268.54947 342.17465 269.14322Q341.34653 269.73697 340.23715 269.73697Q339.06528 269.73697 338.31528 269.08072Q337.5809 268.42447 337.42465 267.2526ZM342.4559 262.83072Q342.4559 261.76822 341.8934 261.14322Q341.3309 260.51822 340.54965 260.51822Q339.72153 260.51822 339.11215 261.1901Q338.50278 261.86197 338.50278 262.92447Q338.50278 263.8776 339.0809 264.48697Q339.65903 265.08072 340.50278 265.08072Q341.36215 265.08072 341.90903 264.48697Q342.4559 263.8776 342.4559 262.83072ZM345.92465 269.5651L345.92465 268.15884L347.3309 268.15884L347.3309 269.5651L345.92465 269.5651ZM349.23715 264.6276Q349.23715 262.84634 349.59653 261.76822Q349.97153 260.67447 350.69028 260.09634Q351.40903 259.5026 352.50278 259.5026Q353.31528 259.5026 353.92465 259.83072Q354.53403 260.15884 354.92465 260.76822Q355.3309 261.3776 355.54965 262.2526Q355.7684 263.1276 355.7684 264.6276Q355.7684 266.39322 355.40903 267.47134Q355.04965 268.54947 354.3309 269.14322Q353.61215 269.73697 352.50278 269.73697Q351.06528 269.73697 350.23715 268.6901Q349.23715 267.4401 349.23715 264.6276ZM350.50278 264.6276Q350.50278 267.09634 351.0809 267.90884Q351.65903 268.72134 352.50278 268.72134Q353.36215 268.72134 353.94028 267.90884Q354.5184 267.08072 354.5184 264.6276Q354.5184 262.14322 353.94028 261.33072Q353.36215 260.51822 352.48715 260.51822Q351.6434 260.51822 351.1434 261.23697Q350.50278 262.15884 350.50278 264.6276ZM357.47153 261.95572Q357.47153 260.8776 358.00278 260.1276Q358.54965 259.3776 359.5809 259.3776Q360.5184 259.3776 361.12778 260.04947Q361.75278 260.72134 361.75278 262.01822Q361.75278 263.29947 361.12778 263.98697Q360.50278 264.67447 359.59653 264.67447Q358.69028 264.67447 358.0809 264.0026Q357.47153 263.3151 357.47153 261.95572ZM359.61215 260.22134Q359.15903 260.22134 358.84653 260.6276Q358.54965 261.01822 358.54965 262.0651Q358.54965 263.03384 358.84653 263.42447Q359.15903 263.8151 359.61215 263.8151Q360.0809 263.8151 360.37778 263.42447Q360.69028 263.03384 360.69028 261.97134Q360.69028 261.0026 360.37778 260.61197Q360.06528 260.22134 359.61215 260.22134ZM359.61215 269.9401L365.09653 259.3776L366.09653 259.3776L360.6434 269.9401L359.61215 269.9401ZM363.9559 267.20572Q363.9559 266.1276 364.48715 265.39322Q365.03403 264.64322 366.06528 264.64322Q367.00278 264.64322 367.62778 265.3151Q368.25278 265.98697 368.25278 267.28384Q368.25278 268.5651 367.62778 269.2526Q367.00278 269.9401 366.06528 269.9401Q365.15903 269.9401 364.54965 269.26822Q363.9559 268.58072 363.9559 267.20572ZM366.09653 265.48697Q365.62778 265.48697 365.3309 265.89322Q365.03403 266.28384 365.03403 267.33072Q365.03403 268.29947 365.3309 268.6901Q365.6434 269.08072 366.09653 269.08072Q366.56528 269.08072 366.86215 268.6901Q367.17465 268.29947 367.17465 267.23697Q367.17465 266.26822 366.86215 265.8776Q366.56528 265.48697 366.09653 265.48697Z" fill-rule="nonzero"/><path fill="#000000" d="M242.84395 273.1382L241.60957 273.1382L241.60957 265.29446Q241.17207 265.71634 240.4377 266.15384Q239.71895 266.5757 239.15645 266.77884L239.15645 265.59134Q240.1877 265.10696 240.95332 264.41946Q241.73457 263.73196 242.04707 263.0757L242.84395 263.0757L242.84395 273.1382ZM246.39082 270.8257L247.57832 270.71634Q247.71895 271.54446 248.14082 271.91946Q248.57832 272.29446 249.23457 272.29446Q249.79707 272.29446 250.21895 272.04446Q250.65645 271.77884 250.92207 271.34134Q251.20332 270.90384 251.39082 270.16946Q251.57832 269.4351 251.57832 268.66946Q251.57832 268.59134 251.5627 268.41946Q251.20332 269.0132 250.5627 269.3882Q249.92207 269.7476 249.17207 269.7476Q247.92207 269.7476 247.0627 268.84134Q246.20332 267.9351 246.20332 266.46634Q246.20332 264.9351 247.09395 264.0132Q248.0002 263.0757 249.35957 263.0757Q250.32832 263.0757 251.14082 263.60696Q251.95332 264.1226 252.3752 265.10696Q252.79707 266.0757 252.79707 267.91946Q252.79707 269.84134 252.3752 270.98196Q251.96895 272.1226 251.14082 272.71634Q250.3127 273.3101 249.20332 273.3101Q248.03145 273.3101 247.28145 272.65384Q246.54707 271.9976 246.39082 270.8257ZM251.42207 266.40384Q251.42207 265.34134 250.85957 264.71634Q250.29707 264.09134 249.51582 264.09134Q248.6877 264.09134 248.07832 264.7632Q247.46895 265.4351 247.46895 266.4976Q247.46895 267.4507 248.04707 268.0601Q248.6252 268.65384 249.46895 268.65384Q250.32832 268.65384 250.8752 268.0601Q251.42207 267.4507 251.42207 266.40384ZM254.89082 273.1382L254.89082 271.73196L256.29706 271.73196L256.29706 273.1382L254.89082 273.1382ZM258.2033 268.2007Q258.2033 266.41946 258.56268 265.34134Q258.93768 264.2476 259.65643 263.66946Q260.37518 263.0757 261.46893 263.0757Q262.28143 263.0757 262.8908 263.40384Q263.50018 263.73196 263.8908 264.34134Q264.29706 264.9507 264.5158 265.8257Q264.73456 266.7007 264.73456 268.2007Q264.73456 269.96634 264.37518 271.04446Q264.0158 272.1226 263.29706 272.71634Q262.5783 273.3101 261.46893 273.3101Q260.03143 273.3101 259.2033 272.2632Q258.2033 271.0132 258.2033 268.2007ZM259.46893 268.2007Q259.46893 270.66946 260.04706 271.48196Q260.62518 272.29446 261.46893 272.29446Q262.3283 272.29446 262.90643 271.48196Q263.48456 270.65384 263.48456 268.2007Q263.48456 265.71634 262.90643 264.90384Q262.3283 264.09134 261.4533 264.09134Q260.60956 264.09134 260.10956 264.8101Q259.46893 265.73196 259.46893 268.2007ZM266.43768 265.52884Q266.43768 264.4507 266.96893 263.7007Q267.5158 262.9507 268.54706 262.9507Q269.48456 262.9507 270.09393 263.6226Q270.71893 264.29446 270.71893 265.59134Q270.71893 266.8726 270.09393 267.5601Q269.46893 268.2476 268.56268 268.2476Q267.65643 268.2476 267.04706 267.5757Q266.43768 266.8882 266.43768 265.52884ZM268.5783 263.79446Q268.12518 263.79446 267.81268 264.2007Q267.5158 264.59134 267.5158 265.6382Q267.5158 266.60696 267.81268 266.9976Q268.12518 267.3882 268.5783 267.3882Q269.04706 267.3882 269.34393 266.9976Q269.65643 266.60696 269.65643 265.54446Q269.65643 264.5757 269.34393 264.1851Q269.03143 263.79446 268.5783 263.79446ZM268.5783 273.5132L274.06268 262.9507L275.06268 262.9507L269.60956 273.5132L268.5783 273.5132ZM272.92206 270.77884Q272.92206 269.7007 273.4533 268.96634Q274.00018 268.21634 275.03143 268.21634Q275.96893 268.21634 276.59393 268.8882Q277.21893 269.5601 277.21893 270.85696Q277.21893 272.1382 276.59393 272.8257Q275.96893 273.5132 275.03143 273.5132Q274.12518 273.5132 273.5158 272.84134Q272.92206 272.15384 272.92206 270.77884ZM275.06268 269.0601Q274.59393 269.0601 274.29706 269.46634Q274.00018 269.85696 274.00018 270.90384Q274.00018 271.8726 274.29706 272.2632Q274.60956 272.65384 275.06268 272.65384Q275.53143 272.65384 275.8283 272.2632Q276.1408 271.8726 276.1408 270.8101Q276.1408 269.84134 275.8283 269.4507Q275.53143 269.0601 275.06268 269.0601Z" fill-rule="nonzero"/><path fill="#000000" d="M213.02957 191.411L214.24832 191.23912Q214.46707 192.286 214.96707 192.75475Q215.4827 193.20787 216.21707 193.20787Q217.09207 193.20787 217.68582 192.61412Q218.27957 192.00475 218.27957 191.11412Q218.27957 190.27037 217.71707 189.7235Q217.1702 189.17662 216.32645 189.17662Q215.96707 189.17662 215.45145 189.30162L215.59207 188.2235Q215.71707 188.23912 215.77957 188.23912Q216.57645 188.23912 217.20145 187.83287Q217.82645 187.42662 217.82645 186.56725Q217.82645 185.89537 217.37332 185.45787Q216.9202 185.00475 216.18582 185.00475Q215.46707 185.00475 214.9827 185.45787Q214.51395 185.89537 214.37332 186.80162L213.15457 186.58287Q213.37332 185.3485 214.1702 184.67662Q214.96707 183.98912 216.15457 183.98912Q216.9827 183.98912 217.6702 184.3485Q218.3577 184.69225 218.71707 185.30162Q219.09207 185.911 219.09207 186.5985Q219.09207 187.23912 218.74832 187.77037Q218.40457 188.30162 217.71707 188.62975Q218.6077 188.83287 219.09207 189.4735Q219.59207 190.11412 219.59207 191.0985Q219.59207 192.411 218.62332 193.31725Q217.6702 194.2235 216.21707 194.2235Q214.88895 194.2235 214.01395 193.44225Q213.15457 192.661 213.02957 191.411ZM225.65457 194.05162L224.4202 194.05162L224.4202 186.20787Q223.9827 186.62975 223.24832 187.06725Q222.52957 187.48912 221.96707 187.69225L221.96707 186.50475Q222.99832 186.02037 223.76395 185.33287Q224.5452 184.64537 224.8577 183.98912L225.65457 183.98912L225.65457 194.05162ZM229.70145 194.05162L229.70145 192.64537L231.1077 192.64537L231.1077 194.05162L229.70145 194.05162ZM233.09207 185.3485L233.09207 184.161L239.59207 184.161L239.59207 185.11412Q238.62332 186.12975 237.68582 187.81725Q236.74832 189.50475 236.2327 191.30162Q235.87332 192.55162 235.76395 194.05162L234.49832 194.05162Q234.51395 192.86412 234.95145 191.19225Q235.40457 189.52037 236.2327 187.9735Q237.07645 186.411 238.01395 185.3485L233.09207 185.3485ZM241.24832 186.44225Q241.24832 185.36412 241.77957 184.61412Q242.32645 183.86412 243.3577 183.86412Q244.2952 183.86412 244.90457 184.536Q245.52957 185.20787 245.52957 186.50475Q245.52957 187.786 244.90457 188.4735Q244.27957 189.161 243.37332 189.161Q242.46707 189.161 241.8577 188.48912Q241.24832 187.80162 241.24832 186.44225ZM243.38895 184.70787Q242.93582 184.70787 242.62332 185.11412Q242.32645 185.50475 242.32645 186.55162Q242.32645 187.52037 242.62332 187.911Q242.93582 188.30162 243.38895 188.30162Q243.8577 188.30162 244.15457 187.911Q244.46707 187.52037 244.46707 186.45787Q244.46707 185.48912 244.15457 185.0985Q243.84207 184.70787 243.38895 184.70787ZM243.38895 194.42662L248.87332 183.86412L249.87332 183.86412L244.4202 194.42662L243.38895 194.42662ZM247.7327 191.69225Q247.7327 190.61412 248.26395 189.87975Q248.81082 189.12975 249.84207 189.12975Q250.77957 189.12975 251.40457 189.80162Q252.02957 190.4735 252.02957 191.77037Q252.02957 193.05162 251.40457 193.73912Q250.77957 194.42662 249.84207 194.42662Q248.93582 194.42662 248.32645 193.75475Q247.7327 193.06725 247.7327 191.69225ZM249.87332 189.9735Q249.40457 189.9735 249.1077 190.37975Q248.81082 190.77037 248.81082 191.81725Q248.81082 192.786 249.1077 193.17662Q249.4202 193.56725 249.87332 193.56725Q250.34207 193.56725 250.63895 193.17662Q250.95145 192.786 250.95145 191.7235Q250.95145 190.75475 250.63895 190.36412Q250.34207 189.9735 249.87332 189.9735Z" fill-rule="nonzero"/><path fill="#00ffff" d="M47.0 85.916664C47.0 89.23038 44.31371 91.916664 41.0 91.916664C37.68629 91.916664 35.0 89.23038 35.0 85.916664C35.0 82.60296 37.68629 79.916664 41.0 79.916664C44.31371 79.916664 47.0 82.60296 47.0 85.916664Z" fill-rule="nonzero"/><path fill="#1a1a1a" d="M62.0625 86.90104L63.1875 87.197914Q62.828125 88.58854 61.90625 89.322914Q60.984375 90.05729 59.640625 90.05729Q58.25 90.05729 57.375 89.49479Q56.5 88.93229 56.046875 87.86979Q55.59375 86.791664 55.59375 85.55729Q55.59375 84.21354 56.109375 83.21354Q56.625 82.21354 57.5625 81.697914Q58.515625 81.18229 59.65625 81.18229Q60.9375 81.18229 61.8125 81.83854Q62.703125 82.49479 63.046875 83.68229L61.921875 83.947914Q61.625 83.010414 61.046875 82.58854Q60.484375 82.15104 59.625 82.15104Q58.640625 82.15104 57.96875 82.635414Q57.3125 83.104164 57.03125 83.90104Q56.765625 84.697914 56.765625 85.55729Q56.765625 86.65104 57.078125 87.46354Q57.40625 88.27604 58.078125 88.68229Q58.75 89.08854 59.546875 89.08854Q60.5 89.08854 61.15625 88.541664Q61.828125 87.99479 62.0625 86.90104ZM64.40625 86.80729Q64.40625 85.072914 65.359375 84.24479Q66.15625 83.55729 67.3125 83.55729Q68.59375 83.55729 69.40625 84.40104Q70.234375 85.229164 70.234375 86.71354Q70.234375 87.916664 69.875 88.604164Q69.515625 89.291664 68.8125 89.68229Q68.125 90.05729 67.3125 90.05729Q66.015625 90.05729 65.203125 89.229164Q64.40625 88.385414 64.40625 86.80729ZM65.484375 86.80729Q65.484375 87.99479 66.0 88.58854Q66.53125 89.18229 67.3125 89.18229Q68.109375 89.18229 68.625 88.58854Q69.140625 87.99479 69.140625 86.77604Q69.140625 85.61979 68.609375 85.02604Q68.09375 84.43229 67.3125 84.43229Q66.53125 84.43229 66.0 85.02604Q65.484375 85.604164 65.484375 86.80729ZM71.796875 89.916664L71.796875 83.697914L72.734375 83.697914L72.734375 84.572914Q73.03125 84.104164 73.515625 83.83854Q74.0 83.55729 74.625 83.55729Q75.3125 83.55729 75.75 83.83854Q76.203125 84.11979 76.375 84.635414Q77.125 83.55729 78.296875 83.55729Q79.234375 83.55729 79.71875 84.072914Q80.21875 84.572914 80.21875 85.65104L80.21875 89.916664L79.171875 89.916664L79.171875 85.99479Q79.171875 85.36979 79.0625 85.08854Q78.96875 84.80729 78.703125 84.635414Q78.4375 84.46354 78.0625 84.46354Q77.40625 84.46354 76.96875 84.90104Q76.546875 85.33854 76.546875 86.30729L76.546875 89.916664L75.484375 89.916664L75.484375 85.86979Q75.484375 85.166664 75.21875 84.822914Q74.96875 84.46354 74.390625 84.46354Q73.9375 84.46354 73.5625 84.697914Q73.1875 84.93229 73.015625 85.385414Q72.84375 85.83854 72.84375 86.68229L72.84375 89.916664L71.796875 89.916664ZM83.046875 89.916664L83.046875 84.510414L82.109375 84.510414L82.109375 83.697914L83.046875 83.697914L83.046875 83.02604Q83.046875 82.40104 83.15625 82.104164Q83.3125 81.68229 83.6875 81.43229Q84.078125 81.18229 84.765625 81.18229Q85.21875 81.18229 85.75 81.291664L85.59375 82.197914Q85.265625 82.15104 84.96875 82.15104Q84.484375 82.15104 84.28125 82.354164Q84.09375 82.55729 84.09375 83.11979L84.09375 83.697914L85.3125 83.697914L85.3125 84.510414L84.09375 84.510414L84.09375 89.916664L83.046875 89.916664ZM85.40625 86.80729Q85.40625 85.072914 86.359375 84.24479Q87.15625 83.55729 88.3125 83.55729Q89.59375 83.55729 90.40625 84.40104Q91.234375 85.229164 91.234375 86.71354Q91.234375 87.916664 90.875 88.604164Q90.515625 89.291664 89.8125 89.68229Q89.125 90.05729 88.3125 90.05729Q87.015625 90.05729 86.203125 89.229164Q85.40625 88.385414 85.40625 86.80729ZM86.484375 86.80729Q86.484375 87.99479 87.0 88.58854Q87.53125 89.18229 88.3125 89.18229Q89.109375 89.18229 89.625 88.58854Q90.140625 87.99479 90.140625 86.77604Q90.140625 85.61979 89.609375 85.02604Q89.09375 84.43229 88.3125 84.43229Q87.53125 84.43229 87.0 85.02604Q86.484375 85.604164 86.484375 86.80729ZM92.78125 89.916664L92.78125 83.697914L93.734375 83.697914L93.734375 84.635414Q94.09375 83.979164 94.390625 83.77604Q94.703125 83.55729 95.078125 83.55729Q95.609375 83.55729 96.15625 83.885414L95.796875 84.86979Q95.40625 84.635414 95.03125 84.635414Q94.671875 84.635414 94.390625 84.854164Q94.125 85.05729 94.015625 85.43229Q93.828125 85.99479 93.828125 86.65104L93.828125 89.916664L92.78125 89.916664ZM99.09375 88.979164L99.25 89.90104Q98.796875 89.99479 98.453125 89.99479Q97.875 89.99479 97.5625 89.822914Q97.25 89.635414 97.109375 89.33854Q96.984375 89.041664 96.984375 88.08854L96.984375 84.510414L96.21875 84.510414L96.21875 83.697914L96.984375 83.697914L96.984375 82.15104L98.03125 81.52604L98.03125 83.697914L99.09375 83.697914L99.09375 84.510414L98.03125 84.510414L98.03125 88.15104Q98.03125 88.604164 98.078125 88.729164Q98.140625 88.854164 98.265625 88.93229Q98.390625 89.010414 98.625 89.010414Q98.8125 89.010414 99.09375 88.979164ZM103.859375 89.15104Q103.265625 89.65104 102.71875 89.854164Q102.1875 90.05729 101.5625 90.05729Q100.53125 90.05729 99.984375 89.55729Q99.4375 89.05729 99.4375 88.27604Q99.4375 87.822914 99.640625 87.447914Q99.84375 87.05729 100.1875 86.83854Q100.53125 86.604164 100.953125 86.49479Q101.25 86.40104 101.890625 86.322914Q103.15625 86.18229 103.765625 85.96354Q103.765625 85.74479 103.765625 85.697914Q103.765625 85.041664 103.46875 84.77604Q103.0625 84.43229 102.265625 84.43229Q101.53125 84.43229 101.171875 84.697914Q100.8125 84.947914 100.640625 85.604164L99.609375 85.46354Q99.75 84.80729 100.078125 84.40104Q100.40625 83.99479 101.015625 83.77604Q101.625 83.55729 102.421875 83.55729Q103.21875 83.55729 103.71875 83.74479Q104.21875 83.93229 104.453125 84.21354Q104.6875 84.49479 104.78125 84.93229Q104.828125 85.197914 104.828125 85.90104L104.828125 87.30729Q104.828125 88.77604 104.890625 89.166664Q104.96875 89.55729 105.171875 89.916664L104.0625 89.916664Q103.90625 89.58854 103.859375 89.15104ZM103.765625 86.791664Q103.1875 87.02604 102.046875 87.197914Q101.390625 87.291664 101.125 87.416664Q100.859375 87.52604 100.703125 87.74479Q100.5625 87.96354 100.5625 88.24479Q100.5625 88.666664 100.875 88.947914Q101.203125 89.229164 101.8125 89.229164Q102.421875 89.229164 102.890625 88.96354Q103.375 88.697914 103.59375 88.229164Q103.765625 87.86979 103.765625 87.18229L103.765625 86.791664ZM107.765625 89.916664L106.78125 89.916664L106.78125 81.322914L107.84375 81.322914L107.84375 84.385414Q108.515625 83.55729 109.546875 83.55729Q110.125 83.55729 110.625 83.791664Q111.140625 84.010414 111.46875 84.43229Q111.8125 84.854164 112.0 85.447914Q112.1875 86.041664 112.1875 86.71354Q112.1875 88.30729 111.390625 89.18229Q110.59375 90.05729 109.5 90.05729Q108.390625 90.05729 107.765625 89.135414L107.765625 89.916664ZM107.75 86.760414Q107.75 87.86979 108.0625 88.36979Q108.5625 89.18229 109.40625 89.18229Q110.09375 89.18229 110.59375 88.58854Q111.109375 87.99479 111.109375 86.791664Q111.109375 85.572914 110.625 84.99479Q110.140625 84.416664 109.453125 84.416664Q108.765625 84.416664 108.25 85.02604Q107.75 85.61979 107.75 86.760414ZM113.765625 89.916664L113.765625 81.322914L114.828125 81.322914L114.828125 89.916664L113.765625 89.916664ZM121.046875 87.916664L122.140625 88.041664Q121.890625 88.99479 121.1875 89.52604Q120.484375 90.05729 119.40625 90.05729Q118.046875 90.05729 117.234375 89.21354Q116.4375 88.36979 116.4375 86.854164Q116.4375 85.291664 117.25 84.43229Q118.0625 83.55729 119.34375 83.55729Q120.59375 83.55729 121.375 84.40104Q122.171875 85.24479 122.171875 86.791664Q122.171875 86.885414 122.171875 87.072914L117.53125 87.072914Q117.59375 88.104164 118.109375 88.65104Q118.625 89.18229 119.40625 89.18229Q119.984375 89.18229 120.390625 88.885414Q120.8125 88.572914 121.046875 87.916664ZM117.59375 86.21354L121.0625 86.21354Q121.0 85.416664 120.671875 85.02604Q120.15625 84.416664 119.359375 84.416664Q118.625 84.416664 118.125 84.90104Q117.640625 85.385414 117.59375 86.21354Z" fill-rule="nonzero"/><path fill="#ff0000" d="M151.0 85.916664C151.0 89.23038 148.3137 91.916664 145.0 91.916664C141.6863 91.916664 139.0 89.23038 139.0 85.916664C139.0 82.60296 141.6863 79.916664 145.0 79.916664C148.3137 79.916664 151.0 82.60296 151.0 85.916664Z" fill-rule="nonzero"/><path fill="#1a1a1a" d="M162.375 89.916664L159.04688 81.322914L160.28125 81.322914L162.51562 87.572914Q162.78125 88.322914 162.96875 88.979164Q163.17188 88.27604 163.4375 87.572914L165.75 81.322914L166.90625 81.322914L163.54688 89.916664L162.375 89.916664ZM171.04688 87.916664L172.14062 88.041664Q171.89062 88.99479 171.1875 89.52604Q170.48438 90.05729 169.40625 90.05729Q168.04688 90.05729 167.23438 89.21354Q166.4375 88.36979 166.4375 86.854164Q166.4375 85.291664 167.25 84.43229Q168.0625 83.55729 169.34375 83.55729Q170.59375 83.55729 171.375 84.40104Q172.17188 85.24479 172.17188 86.791664Q172.17188 86.885414 172.17188 87.072914L167.53125 87.072914Q167.59375 88.104164 168.10938 88.65104Q168.625 89.18229 169.40625 89.18229Q169.98438 89.18229 170.39062 88.885414Q170.8125 88.572914 171.04688 87.916664ZM167.59375 86.21354L171.0625 86.21354Q171.0 85.416664 170.67188 85.02604Q170.15625 84.416664 169.35938 84.416664Q168.625 84.416664 168.125 84.90104Q167.64062 85.385414 167.59375 86.21354ZM173.78125 89.916664L173.78125 83.697914L174.73438 83.697914L174.73438 84.635414Q175.09375 83.979164 175.39062 83.77604Q175.70312 83.55729 176.07812 83.55729Q176.60938 83.55729 177.15625 83.885414L176.79688 84.86979Q176.40625 84.635414 176.03125 84.635414Q175.67188 84.635414 175.39062 84.854164Q175.125 85.05729 175.01562 85.43229Q174.82812 85.99479 174.82812 86.65104L174.82812 89.916664L173.78125 89.916664ZM177.75 92.30729L177.625 91.322914Q177.96875 91.416664 178.23438 91.416664Q178.57812 91.416664 178.78125 91.291664Q179.0 91.18229 179.14062 90.979164Q179.23438 90.80729 179.46875 90.18229Q179.48438 90.104164 179.5625 89.93229L177.1875 83.697914L178.32812 83.697914L179.625 87.291664Q179.875 87.979164 180.07812 88.74479Q180.26562 88.010414 180.51562 87.322914L181.84375 83.697914L182.89062 83.697914L180.53125 90.02604Q180.14062 91.041664 179.9375 91.43229Q179.65625 91.96354 179.28125 92.197914Q178.92188 92.447914 178.42188 92.447914Q178.125 92.447914 177.75 92.30729ZM189.85938 87.635414L190.89062 87.77604Q190.71875 88.83854 190.01562 89.447914Q189.3125 90.05729 188.29688 90.05729Q187.01562 90.05729 186.23438 89.229164Q185.46875 88.385414 185.46875 86.822914Q185.46875 85.822914 185.79688 85.072914Q186.14062 84.30729 186.8125 83.93229Q187.5 83.55729 188.3125 83.55729Q189.3125 83.55729 189.95312 84.072914Q190.60938 84.572914 190.79688 85.52604L189.76562 85.68229Q189.625 85.05729 189.25 84.74479Q188.875 84.416664 188.34375 84.416664Q187.54688 84.416664 187.04688 84.99479Q186.54688 85.55729 186.54688 86.791664Q186.54688 88.05729 187.03125 88.61979Q187.51562 89.18229 188.28125 89.18229Q188.90625 89.18229 189.3125 88.80729Q189.73438 88.43229 189.85938 87.635414ZM191.40625 86.80729Q191.40625 85.072914 192.35938 84.24479Q193.15625 83.55729 194.3125 83.55729Q195.59375 83.55729 196.40625 84.40104Q197.23438 85.229164 197.23438 86.71354Q197.23438 87.916664 196.875 88.604164Q196.51562 89.291664 195.8125 89.68229Q195.125 90.05729 194.3125 90.05729Q193.01562 90.05729 192.20312 89.229164Q191.40625 88.385414 191.40625 86.80729ZM192.48438 86.80729Q192.48438 87.99479 193.0 88.58854Q193.53125 89.18229 194.3125 89.18229Q195.10938 89.18229 195.625 88.58854Q196.14062 87.99479 196.14062 86.77604Q196.14062 85.61979 195.60938 85.02604Q195.09375 84.43229 194.3125 84.43229Q193.53125 84.43229 193.0 85.02604Q192.48438 85.604164 192.48438 86.80729ZM198.79688 89.916664L198.79688 83.697914L199.73438 83.697914L199.73438 84.572914Q200.03125 84.104164 200.51562 83.83854Q201.0 83.55729 201.625 83.55729Q202.3125 83.55729 202.75 83.83854Q203.20312 84.11979 203.375 84.635414Q204.125 83.55729 205.29688 83.55729Q206.23438 83.55729 206.71875 84.072914Q207.21875 84.572914 207.21875 85.65104L207.21875 89.916664L206.17188 89.916664L206.17188 85.99479Q206.17188 85.36979 206.0625 85.08854Q205.96875 84.80729 205.70312 84.635414Q205.4375 84.46354 205.0625 84.46354Q204.40625 84.46354 203.96875 84.90104Q203.54688 85.33854 203.54688 86.30729L203.54688 89.916664L202.48438 89.916664L202.48438 85.86979Q202.48438 85.166664 202.21875 84.822914Q201.96875 84.46354 201.39062 84.46354Q200.9375 84.46354 200.5625 84.697914Q200.1875 84.93229 200.01562 85.385414Q199.84375 85.83854 199.84375 86.68229L199.84375 89.916664L198.79688 89.916664ZM210.04688 89.916664L210.04688 84.510414L209.10938 84.510414L209.10938 83.697914L210.04688 83.697914L210.04688 83.02604Q210.04688 82.40104 210.15625 82.104164Q210.3125 81.68229 210.6875 81.43229Q211.07812 81.18229 211.76562 81.18229Q212.21875 81.18229 212.75 81.291664L212.59375 82.197914Q212.26562 82.15104 211.96875 82.15104Q211.48438 82.15104 211.28125 82.354164Q211.09375 82.55729 211.09375 83.11979L211.09375 83.697914L212.3125 83.697914L212.3125 84.510414L211.09375 84.510414L211.09375 89.916664L210.04688 89.916664ZM212.40625 86.80729Q212.40625 85.072914 213.35938 84.24479Q214.15625 83.55729 215.3125 83.55729Q216.59375 83.55729 217.40625 84.40104Q218.23438 85.229164 218.23438 86.71354Q218.23438 87.916664 217.875 88.604164Q217.51562 89.291664 216.8125 89.68229Q216.125 90.05729 215.3125 90.05729Q214.01562 90.05729 213.20312 89.229164Q212.40625 88.385414 212.40625 86.80729ZM213.48438 86.80729Q213.48438 87.99479 214.0 88.58854Q214.53125 89.18229 215.3125 89.18229Q216.10938 89.18229 216.625 88.58854Q217.14062 87.99479 217.14062 86.77604Q217.14062 85.61979 216.60938 85.02604Q216.09375 84.43229 215.3125 84.43229Q214.53125 84.43229 214.0 85.02604Q213.48438 85.604164 213.48438 86.80729ZM219.78125 89.916664L219.78125 83.697914L220.73438 83.697914L220.73438 84.635414Q221.09375 83.979164 221.39062 83.77604Q221.70312 83.55729 222.07812 83.55729Q222.60938 83.55729 223.15625 83.885414L222.79688 84.86979Q222.40625 84.635414 222.03125 84.635414Q221.67188 84.635414 221.39062 84.854164Q221.125 85.05729 221.01562 85.43229Q220.82812 85.99479 220.82812 86.65104L220.82812 89.916664L219.78125 89.916664ZM226.09375 88.979164L226.25 89.90104Q225.79688 89.99479 225.45312 89.99479Q224.875 89.99479 224.5625 89.822914Q224.25 89.635414 224.10938 89.33854Q223.98438 89.041664 223.98438 88.08854L223.98438 84.510414L223.21875 84.510414L223.21875 83.697914L223.98438 83.697914L223.98438 82.15104L225.03125 81.52604L225.03125 83.697914L226.09375 83.697914L226.09375 84.510414L225.03125 84.510414L225.03125 88.15104Q225.03125 88.604164 225.07812 88.729164Q225.14062 88.854164 225.26562 88.93229Q225.39062 89.010414 225.625 89.010414Q225.8125 89.010414 226.09375 88.979164ZM230.85938 89.15104Q230.26562 89.65104 229.71875 89.854164Q229.1875 90.05729 228.5625 90.05729Q227.53125 90.05729 226.98438 89.55729Q226.4375 89.05729 226.4375 88.27604Q226.4375 87.822914 226.64062 87.447914Q226.84375 87.05729 227.1875 86.83854Q227.53125 86.604164 227.95312 86.49479Q228.25 86.40104 228.89062 86.322914Q230.15625 86.18229 230.76562 85.96354Q230.76562 85.74479 230.76562 85.697914Q230.76562 85.041664 230.46875 84.77604Q230.0625 84.43229 229.26562 84.43229Q228.53125 84.43229 228.17188 84.697914Q227.8125 84.947914 227.64062 85.604164L226.60938 85.46354Q226.75 84.80729 227.07812 84.40104Q227.40625 83.99479 228.01562 83.77604Q228.625 83.55729 229.42188 83.55729Q230.21875 83.55729 230.71875 83.74479Q231.21875 83.93229 231.45312 84.21354Q231.6875 84.49479 231.78125 84.93229Q231.82812 85.197914 231.82812 85.90104L231.82812 87.30729Q231.82812 88.77604 231.89062 89.166664Q231.96875 89.55729 232.17188 89.916664L231.0625 89.916664Q230.90625 89.58854 230.85938 89.15104ZM230.76562 86.791664Q230.1875 87.02604 229.04688 87.197914Q228.39062 87.291664 228.125 87.416664Q227.85938 87.52604 227.70312 87.74479Q227.5625 87.96354 227.5625 88.24479Q227.5625 88.666664 227.875 88.947914Q228.20312 89.229164 228.8125 89.229164Q229.42188 89.229164 229.89062 88.96354Q230.375 88.697914 230.59375 88.229164Q230.76562 87.86979 230.76562 87.18229L230.76562 86.791664ZM234.76562 89.916664L233.78125 89.916664L233.78125 81.322914L234.84375 81.322914L234.84375 84.385414Q235.51562 83.55729 236.54688 83.55729Q237.125 83.55729 237.625 83.791664Q238.14062 84.010414 238.46875 84.43229Q238.8125 84.854164 239.0 85.447914Q239.1875 86.041664 239.1875 86.71354Q239.1875 88.30729 238.39062 89.18229Q237.59375 90.05729 236.5 90.05729Q235.39062 90.05729 234.76562 89.135414L234.76562 89.916664ZM234.75 86.760414Q234.75 87.86979 235.0625 88.36979Q235.5625 89.18229 236.40625 89.18229Q237.09375 89.18229 237.59375 88.58854Q238.10938 87.99479 238.10938 86.791664Q238.10938 85.572914 237.625 84.99479Q237.14062 84.416664 236.45312 84.416664Q235.76562 84.416664 235.25 85.02604Q234.75 85.61979 234.75 86.760414ZM240.76562 89.916664L240.76562 81.322914L241.82812 81.322914L241.82812 89.916664L240.76562 89.916664ZM248.04688 87.916664L249.14062 88.041664Q248.89062 88.99479 248.1875 89.52604Q247.48438 90.05729 246.40625 90.05729Q245.04688 90.05729 244.23438 89.21354Q243.4375 88.36979 243.4375 86.854164Q243.4375 85.291664 244.25 84.43229Q245.0625 83.55729 246.34375 83.55729Q247.59375 83.55729 248.375 84.40104Q249.17188 85.24479 249.17188 86.791664Q249.17188 86.885414 249.17188 87.072914L244.53125 87.072914Q244.59375 88.104164 245.10938 88.65104Q245.625 89.18229 246.40625 89.18229Q246.98438 89.18229 247.39062 88.885414Q247.8125 88.572914 248.04688 87.916664ZM244.59375 86.21354L248.0625 86.21354Q248.0 85.416664 247.67188 85.02604Q247.15625 84.416664 246.35938 84.416664Q245.625 84.416664 245.125 84.90104Q244.64062 85.385414 244.59375 86.21354Z" fill-rule="nonzero"/><path fill="#ffff00" d="M278.0 85.916664C278.0 89.23038 275.31372 91.916664 272.0 91.916664C268.68628 91.916664 266.0 89.23038 266.0 85.916664C266.0 82.60296 268.68628 79.916664 272.0 79.916664C275.31372 79.916664 278.0 82.60296 278.0 85.916664Z" fill-rule="nonzero"/><path fill="#1a1a1a" d="M286.92188 89.916664L286.92188 81.322914L288.07812 81.322914L292.59375 88.072914L292.59375 81.322914L293.6875 81.322914L293.6875 89.916664L292.51562 89.916664L288.0 83.166664L288.0 89.916664L286.92188 89.916664ZM295.40625 86.80729Q295.40625 85.072914 296.35938 84.24479Q297.15625 83.55729 298.3125 83.55729Q299.59375 83.55729 300.40625 84.40104Q301.23438 85.229164 301.23438 86.71354Q301.23438 87.916664 300.875 88.604164Q300.51562 89.291664 299.8125 89.68229Q299.125 90.05729 298.3125 90.05729Q297.01562 90.05729 296.20312 89.229164Q295.40625 88.385414 295.40625 86.80729ZM296.48438 86.80729Q296.48438 87.99479 297.0 88.58854Q297.53125 89.18229 298.3125 89.18229Q299.10938 89.18229 299.625 88.58854Q300.14062 87.99479 300.14062 86.77604Q300.14062 85.61979 299.60938 85.02604Q299.09375 84.43229 298.3125 84.43229Q297.53125 84.43229 297.0 85.02604Q296.48438 85.604164 296.48438 86.80729ZM305.09375 88.979164L305.25 89.90104Q304.79688 89.99479 304.45312 89.99479Q303.875 89.99479 303.5625 89.822914Q303.25 89.635414 303.10938 89.33854Q302.98438 89.041664 302.98438 88.08854L302.98438 84.510414L302.21875 84.510414L302.21875 83.697914L302.98438 83.697914L302.98438 82.15104L304.03125 81.52604L304.03125 83.697914L305.09375 83.697914L305.09375 84.510414L304.03125 84.510414L304.03125 88.15104Q304.03125 88.604164 304.07812 88.729164Q304.14062 88.854164 304.26562 88.93229Q304.39062 89.010414 304.625 89.010414Q304.8125 89.010414 305.09375 88.979164ZM312.85938 87.635414L313.89062 87.77604Q313.71875 88.83854 313.01562 89.447914Q312.3125 90.05729 311.29688 90.05729Q310.01562 90.05729 309.23438 89.229164Q308.46875 88.385414 308.46875 86.822914Q308.46875 85.822914 308.79688 85.072914Q309.14062 84.30729 309.8125 83.93229Q310.5 83.55729 311.3125 83.55729Q312.3125 83.55729 312.95312 84.072914Q313.60938 84.572914 313.79688 85.52604L312.76562 85.68229Q312.625 85.05729 312.25 84.74479Q311.875 84.416664 311.34375 84.416664Q310.54688 84.416664 310.04688 84.99479Q309.54688 85.55729 309.54688 86.791664Q309.54688 88.05729 310.03125 88.61979Q310.51562 89.18229 311.28125 89.18229Q311.90625 89.18229 312.3125 88.80729Q312.73438 88.43229 312.85938 87.635414ZM314.40625 86.80729Q314.40625 85.072914 315.35938 84.24479Q316.15625 83.55729 317.3125 83.55729Q318.59375 83.55729 319.40625 84.40104Q320.23438 85.229164 320.23438 86.71354Q320.23438 87.916664 319.875 88.604164Q319.51562 89.291664 318.8125 89.68229Q318.125 90.05729 317.3125 90.05729Q316.01562 90.05729 315.20312 89.229164Q314.40625 88.385414 314.40625 86.80729ZM315.48438 86.80729Q315.48438 87.99479 316.0 88.58854Q316.53125 89.18229 317.3125 89.18229Q318.10938 89.18229 318.625 88.58854Q319.14062 87.99479 319.14062 86.77604Q319.14062 85.61979 318.60938 85.02604Q318.09375 84.43229 317.3125 84.43229Q316.53125 84.43229 316.0 85.02604Q315.48438 85.604164 315.48438 86.80729ZM321.79688 89.916664L321.79688 83.697914L322.73438 83.697914L322.73438 84.572914Q323.03125 84.104164 323.51562 83.83854Q324.0 83.55729 324.625 83.55729Q325.3125 83.55729 325.75 83.83854Q326.20312 84.11979 326.375 84.635414Q327.125 83.55729 328.29688 83.55729Q329.23438 83.55729 329.71875 84.072914Q330.21875 84.572914 330.21875 85.65104L330.21875 89.916664L329.17188 89.916664L329.17188 85.99479Q329.17188 85.36979 329.0625 85.08854Q328.96875 84.80729 328.70312 84.635414Q328.4375 84.46354 328.0625 84.46354Q327.40625 84.46354 326.96875 84.90104Q326.54688 85.33854 326.54688 86.30729L326.54688 89.916664L325.48438 89.916664L325.48438 85.86979Q325.48438 85.166664 325.21875 84.822914Q324.96875 84.46354 324.39062 84.46354Q323.9375 84.46354 323.5625 84.697914Q323.1875 84.93229 323.01562 85.385414Q322.84375 85.83854 322.84375 86.68229L322.84375 89.916664L321.79688 89.916664ZM333.04688 89.916664L333.04688 84.510414L332.10938 84.510414L332.10938 83.697914L333.04688 83.697914L333.04688 83.02604Q333.04688 82.40104 333.15625 82.104164Q333.3125 81.68229 333.6875 81.43229Q334.07812 81.18229 334.76562 81.18229Q335.21875 81.18229 335.75 81.291664L335.59375 82.197914Q335.26562 82.15104 334.96875 82.15104Q334.48438 82.15104 334.28125 82.354164Q334.09375 82.55729 334.09375 83.11979L334.09375 83.697914L335.3125 83.697914L335.3125 84.510414L334.09375 84.510414L334.09375 89.916664L333.04688 89.916664ZM335.40625 86.80729Q335.40625 85.072914 336.35938 84.24479Q337.15625 83.55729 338.3125 83.55729Q339.59375 83.55729 340.40625 84.40104Q341.23438 85.229164 341.23438 86.71354Q341.23438 87.916664 340.875 88.604164Q340.51562 89.291664 339.8125 89.68229Q339.125 90.05729 338.3125 90.05729Q337.01562 90.05729 336.20312 89.229164Q335.40625 88.385414 335.40625 86.80729ZM336.48438 86.80729Q336.48438 87.99479 337.0 88.58854Q337.53125 89.18229 338.3125 89.18229Q339.10938 89.18229 339.625 88.58854Q340.14062 87.99479 340.14062 86.77604Q340.14062 85.61979 339.60938 85.02604Q339.09375 84.43229 338.3125 84.43229Q337.53125 84.43229 337.0 85.02604Q336.48438 85.604164 336.48438 86.80729ZM342.78125 89.916664L342.78125 83.697914L343.73438 83.697914L343.73438 84.635414Q344.09375 83.979164 344.39062 83.77604Q344.70312 83.55729 345.07812 83.55729Q345.60938 83.55729 346.15625 83.885414L345.79688 84.86979Q345.40625 84.635414 345.03125 84.635414Q344.67188 84.635414 344.39062 84.854164Q344.125 85.05729 344.01562 85.43229Q343.82812 85.99479 343.82812 86.65104L343.82812 89.916664L342.78125 89.916664ZM349.09375 88.979164L349.25 89.90104Q348.79688 89.99479 348.45312 89.99479Q347.875 89.99479 347.5625 89.822914Q347.25 89.635414 347.10938 89.33854Q346.98438 89.041664 346.98438 88.08854L346.98438 84.510414L346.21875 84.510414L346.21875 83.697914L346.98438 83.697914L346.98438 82.15104L348.03125 81.52604L348.03125 83.697914L349.09375 83.697914L349.09375 84.510414L348.03125 84.510414L348.03125 88.15104Q348.03125 88.604164 348.07812 88.729164Q348.14062 88.854164 348.26562 88.93229Q348.39062 89.010414 348.625 89.010414Q348.8125 89.010414 349.09375 88.979164ZM353.85938 89.15104Q353.26562 89.65104 352.71875 89.854164Q352.1875 90.05729 351.5625 90.05729Q350.53125 90.05729 349.98438 89.55729Q349.4375 89.05729 349.4375 88.27604Q349.4375 87.822914 349.64062 87.447914Q349.84375 87.05729 350.1875 86.83854Q350.53125 86.604164 350.95312 86.49479Q351.25 86.40104 351.89062 86.322914Q353.15625 86.18229 353.76562 85.96354Q353.76562 85.74479 353.76562 85.697914Q353.76562 85.041664 353.46875 84.77604Q353.0625 84.43229 352.26562 84.43229Q351.53125 84.43229 351.17188 84.697914Q350.8125 84.947914 350.64062 85.604164L349.60938 85.46354Q349.75 84.80729 350.07812 84.40104Q350.40625 83.99479 351.01562 83.77604Q351.625 83.55729 352.42188 83.55729Q353.21875 83.55729 353.71875 83.74479Q354.21875 83.93229 354.45312 84.21354Q354.6875 84.49479 354.78125 84.93229Q354.82812 85.197914 354.82812 85.90104L354.82812 87.30729Q354.82812 88.77604 354.89062 89.166664Q354.96875 89.55729 355.17188 89.916664L354.0625 89.916664Q353.90625 89.58854 353.85938 89.15104ZM353.76562 86.791664Q353.1875 87.02604 352.04688 87.197914Q351.39062 87.291664 351.125 87.416664Q350.85938 87.52604 350.70312 87.74479Q350.5625 87.96354 350.5625 88.24479Q350.5625 88.666664 350.875 88.947914Q351.20312 89.229164 351.8125 89.229164Q352.42188 89.229164 352.89062 88.96354Q353.375 88.697914 353.59375 88.229164Q353.76562 87.86979 353.76562 87.18229L353.76562 86.791664ZM357.76562 89.916664L356.78125 89.916664L356.78125 81.322914L357.84375 81.322914L357.84375 84.385414Q358.51562 83.55729 359.54688 83.55729Q360.125 83.55729 360.625 83.791664Q361.14062 84.010414 361.46875 84.43229Q361.8125 84.854164 362.0 85.447914Q362.1875 86.041664 362.1875 86.71354Q362.1875 88.30729 361.39062 89.18229Q360.59375 90.05729 359.5 90.05729Q358.39062 90.05729 357.76562 89.135414L357.76562 89.916664ZM357.75 86.760414Q357.75 87.86979 358.0625 88.36979Q358.5625 89.18229 359.40625 89.18229Q360.09375 89.18229 360.59375 88.58854Q361.10938 87.99479 361.10938 86.791664Q361.10938 85.572914 360.625 84.99479Q360.14062 84.416664 359.45312 84.416664Q358.76562 84.416664 358.25 85.02604Q357.75 85.61979 357.75 86.760414ZM363.76562 89.916664L363.76562 81.322914L364.82812 81.322914L364.82812 89.916664L363.76562 89.916664ZM371.04688 87.916664L372.14062 88.041664Q371.89062 88.99479 371.1875 89.52604Q370.48438 90.05729 369.40625 90.05729Q368.04688 90.05729 367.23438 89.21354Q366.4375 88.36979 366.4375 86.854164Q366.4375 85.291664 367.25 84.43229Q368.0625 83.55729 369.34375 83.55729Q370.59375 83.55729 371.375 84.40104Q372.17188 85.24479 372.17188 86.791664Q372.17188 86.885414 372.17188 87.072914L367.53125 87.072914Q367.59375 88.104164 368.10938 88.65104Q368.625 89.18229 369.40625 89.18229Q369.98438 89.18229 370.39062 88.885414Q370.8125 88.572914 371.04688 87.916664ZM367.59375 86.21354L371.0625 86.21354Q371.0 85.416664 370.67188 85.02604Q370.15625 84.416664 369.35938 84.416664Q368.625 84.416664 368.125 84.90104Q367.64062 85.385414 367.59375 86.21354ZM380.85938 89.15104Q380.26562 89.65104 379.71875 89.854164Q379.1875 90.05729 378.5625 90.05729Q377.53125 90.05729 376.98438 89.55729Q376.4375 89.05729 376.4375 88.27604Q376.4375 87.822914 376.64062 87.447914Q376.84375 87.05729 377.1875 86.83854Q377.53125 86.604164 377.95312 86.49479Q378.25 86.40104 378.89062 86.322914Q380.15625 86.18229 380.76562 85.96354Q380.76562 85.74479 380.76562 85.697914Q380.76562 85.041664 380.46875 84.77604Q380.0625 84.43229 379.26562 84.43229Q378.53125 84.43229 378.17188 84.697914Q377.8125 84.947914 377.64062 85.604164L376.60938 85.46354Q376.75 84.80729 377.07812 84.40104Q377.40625 83.99479 378.01562 83.77604Q378.625 83.55729 379.42188 83.55729Q380.21875 83.55729 380.71875 83.74479Q381.21875 83.93229 381.45312 84.21354Q381.6875 84.49479 381.78125 84.93229Q381.82812 85.197914 381.82812 85.90104L381.82812 87.30729Q381.82812 88.77604 381.89062 89.166664Q381.96875 89.55729 382.17188 89.916664L381.0625 89.916664Q380.90625 89.58854 380.85938 89.15104ZM380.76562 86.791664Q380.1875 87.02604 379.04688 87.197914Q378.39062 87.291664 378.125 87.416664Q377.85938 87.52604 377.70312 87.74479Q377.5625 87.96354 377.5625 88.24479Q377.5625 88.666664 377.875 88.947914Q378.20312 89.229164 378.8125 89.229164Q379.42188 89.229164 379.89062 88.96354Q380.375 88.697914 380.59375 88.229164Q380.76562 87.86979 380.76562 87.18229L380.76562 86.791664ZM386.09375 88.979164L386.25 89.90104Q385.79688 89.99479 385.45312 89.99479Q384.875 89.99479 384.5625 89.822914Q384.25 89.635414 384.10938 89.33854Q383.98438 89.041664 383.98438 88.08854L383.98438 84.510414L383.21875 84.510414L383.21875 83.697914L383.98438 83.697914L383.98438 82.15104L385.03125 81.52604L385.03125 83.697914L386.09375 83.697914L386.09375 84.510414L385.03125 84.510414L385.03125 88.15104Q385.03125 88.604164 385.07812 88.729164Q385.14062 88.854164 385.26562 88.93229Q385.39062 89.010414 385.625 89.010414Q385.8125 89.010414 386.09375 88.979164ZM393.85938 89.15104Q393.26562 89.65104 392.71875 89.854164Q392.1875 90.05729 391.5625 90.05729Q390.53125 90.05729 389.98438 89.55729Q389.4375 89.05729 389.4375 88.27604Q389.4375 87.822914 389.64062 87.447914Q389.84375 87.05729 390.1875 86.83854Q390.53125 86.604164 390.95312 86.49479Q391.25 86.40104 391.89062 86.322914Q393.15625 86.18229 393.76562 85.96354Q393.76562 85.74479 393.76562 85.697914Q393.76562 85.041664 393.46875 84.77604Q393.0625 84.43229 392.26562 84.43229Q391.53125 84.43229 391.17188 84.697914Q390.8125 84.947914 390.64062 85.604164L389.60938 85.46354Q389.75 84.80729 390.07812 84.40104Q390.40625 83.99479 391.01562 83.77604Q391.625 83.55729 392.42188 83.55729Q393.21875 83.55729 393.71875 83.74479Q394.21875 83.93229 394.45312 84.21354Q394.6875 84.49479 394.78125 84.93229Q394.82812 85.197914 394.82812 85.90104L394.82812 87.30729Q394.82812 88.77604 394.89062 89.166664Q394.96875 89.55729 395.17188 89.916664L394.0625 89.916664Q393.90625 89.58854 393.85938 89.15104ZM393.76562 86.791664Q393.1875 87.02604 392.04688 87.197914Q391.39062 87.291664 391.125 87.416664Q390.85938 87.52604 390.70312 87.74479Q390.5625 87.96354 390.5625 88.24479Q390.5625 88.666664 390.875 88.947914Q391.20312 89.229164 391.8125 89.229164Q392.42188 89.229164 392.89062 88.96354Q393.375 88.697914 393.59375 88.229164Q393.76562 87.86979 393.76562 87.18229L393.76562 86.791664ZM396.76562 89.916664L396.76562 81.322914L397.82812 81.322914L397.82812 89.916664L396.76562 89.916664ZM399.76562 89.916664L399.76562 81.322914L400.82812 81.322914L400.82812 89.916664L399.76562 89.916664Z" fill-rule="nonzero"/><path fill="#00ff00" d="M430.0 85.916664C430.0 89.23038 427.31372 91.916664 424.0 91.916664C420.68628 91.916664 418.0 89.23038 418.0 85.916664C418.0 82.60296 420.68628 79.916664 424.0 79.916664C427.31372 79.916664 430.0 82.60296 430.0 85.916664Z" fill-rule="nonzero"/><path fill="#1a1a1a" d="M438.54688 87.15104L439.60938 87.05729Q439.6875 87.71354 439.96875 88.11979Q440.25 88.52604 440.82812 88.791664Q441.42188 89.041664 442.15625 89.041664Q442.79688 89.041664 443.29688 88.854164Q443.79688 88.65104 444.03125 88.322914Q444.28125 87.979164 444.28125 87.58854Q444.28125 87.18229 444.04688 86.885414Q443.8125 86.572914 443.28125 86.36979Q442.92188 86.229164 441.73438 85.947914Q440.5625 85.666664 440.09375 85.416664Q439.46875 85.08854 439.17188 84.61979Q438.875 84.135414 438.875 83.541664Q438.875 82.90104 439.23438 82.33854Q439.60938 81.760414 440.3125 81.479164Q441.03125 81.18229 441.89062 81.18229Q442.84375 81.18229 443.57812 81.49479Q444.3125 81.791664 444.70312 82.40104Q445.09375 82.99479 445.125 83.74479L444.03125 83.822914Q443.9375 83.010414 443.42188 82.604164Q442.92188 82.18229 441.9375 82.18229Q440.90625 82.18229 440.4375 82.55729Q439.96875 82.93229 439.96875 83.46354Q439.96875 83.93229 440.29688 84.229164Q440.625 84.52604 442.0 84.83854Q443.39062 85.15104 443.90625 85.385414Q444.65625 85.74479 445.01562 86.27604Q445.375 86.791664 445.375 87.49479Q445.375 88.18229 444.98438 88.791664Q444.59375 89.385414 443.85938 89.729164Q443.125 90.05729 442.20312 90.05729Q441.03125 90.05729 440.23438 89.729164Q439.45312 89.385414 439.0 88.697914Q438.5625 88.010414 438.54688 87.15104ZM446.40625 86.80729Q446.40625 85.072914 447.35938 84.24479Q448.15625 83.55729 449.3125 83.55729Q450.59375 83.55729 451.40625 84.40104Q452.23438 85.229164 452.23438 86.71354Q452.23438 87.916664 451.875 88.604164Q451.51562 89.291664 450.8125 89.68229Q450.125 90.05729 449.3125 90.05729Q448.01562 90.05729 447.20312 89.229164Q446.40625 88.385414 446.40625 86.80729ZM447.48438 86.80729Q447.48438 87.99479 448.0 88.58854Q448.53125 89.18229 449.3125 89.18229Q450.10938 89.18229 450.625 88.58854Q451.14062 87.99479 451.14062 86.77604Q451.14062 85.61979 450.60938 85.02604Q450.09375 84.43229 449.3125 84.43229Q448.53125 84.43229 448.0 85.02604Q447.48438 85.604164 447.48438 86.80729ZM453.79688 89.916664L453.79688 83.697914L454.73438 83.697914L454.73438 84.572914Q455.03125 84.104164 455.51562 83.83854Q456.0 83.55729 456.625 83.55729Q457.3125 83.55729 457.75 83.83854Q458.20312 84.11979 458.375 84.635414Q459.125 83.55729 460.29688 83.55729Q461.23438 83.55729 461.71875 84.072914Q462.21875 84.572914 462.21875 85.65104L462.21875 89.916664L461.17188 89.916664L461.17188 85.99479Q461.17188 85.36979 461.0625 85.08854Q460.96875 84.80729 460.70312 84.635414Q460.4375 84.46354 460.0625 84.46354Q459.40625 84.46354 458.96875 84.90104Q458.54688 85.33854 458.54688 86.30729L458.54688 89.916664L457.48438 89.916664L457.48438 85.86979Q457.48438 85.166664 457.21875 84.822914Q456.96875 84.46354 456.39062 84.46354Q455.9375 84.46354 455.5625 84.697914Q455.1875 84.93229 455.01562 85.385414Q454.84375 85.83854 454.84375 86.68229L454.84375 89.916664L453.79688 89.916664ZM469.04688 87.916664L470.14062 88.041664Q469.89062 88.99479 469.1875 89.52604Q468.48438 90.05729 467.40625 90.05729Q466.04688 90.05729 465.23438 89.21354Q464.4375 88.36979 464.4375 86.854164Q464.4375 85.291664 465.25 84.43229Q466.0625 83.55729 467.34375 83.55729Q468.59375 83.55729 469.375 84.40104Q470.17188 85.24479 470.17188 86.791664Q470.17188 86.885414 470.17188 87.072914L465.53125 87.072914Q465.59375 88.104164 466.10938 88.65104Q466.625 89.18229 467.40625 89.18229Q467.98438 89.18229 468.39062 88.885414Q468.8125 88.572914 469.04688 87.916664ZM465.59375 86.21354L469.0625 86.21354Q469.0 85.416664 468.67188 85.02604Q468.15625 84.416664 467.35938 84.416664Q466.625 84.416664 466.125 84.90104Q465.64062 85.385414 465.59375 86.21354ZM472.9375 89.916664L471.03125 83.697914L472.125 83.697914L473.10938 87.291664L473.48438 88.61979Q473.51562 88.52604 473.8125 87.33854L474.79688 83.697914L475.875 83.697914L476.8125 87.30729L477.125 88.49479L477.48438 87.291664L478.54688 83.697914L479.57812 83.697914L477.625 89.916664L476.53125 89.916664L475.54688 86.18229L475.29688 85.135414L474.04688 89.916664L472.9375 89.916664ZM480.79688 89.916664L480.79688 81.322914L481.84375 81.322914L481.84375 84.40104Q482.57812 83.55729 483.70312 83.55729Q484.40625 83.55729 484.90625 83.83854Q485.42188 84.104164 485.64062 84.58854Q485.85938 85.05729 485.85938 85.979164L485.85938 89.916664L484.8125 89.916664L484.8125 85.979164Q484.8125 85.18229 484.46875 84.822914Q484.125 84.46354 483.5 84.46354Q483.03125 84.46354 482.60938 84.71354Q482.20312 84.947914 482.01562 85.36979Q481.84375 85.77604 481.84375 86.510414L481.84375 89.916664L480.79688 89.916664ZM491.85938 89.15104Q491.26562 89.65104 490.71875 89.854164Q490.1875 90.05729 489.5625 90.05729Q488.53125 90.05729 487.98438 89.55729Q487.4375 89.05729 487.4375 88.27604Q487.4375 87.822914 487.64062 87.447914Q487.84375 87.05729 488.1875 86.83854Q488.53125 86.604164 488.95312 86.49479Q489.25 86.40104 489.89062 86.322914Q491.15625 86.18229 491.76562 85.96354Q491.76562 85.74479 491.76562 85.697914Q491.76562 85.041664 491.46875 84.77604Q491.0625 84.43229 490.26562 84.43229Q489.53125 84.43229 489.17188 84.697914Q488.8125 84.947914 488.64062 85.604164L487.60938 85.46354Q487.75 84.80729 488.07812 84.40104Q488.40625 83.99479 489.01562 83.77604Q489.625 83.55729 490.42188 83.55729Q491.21875 83.55729 491.71875 83.74479Q492.21875 83.93229 492.45312 84.21354Q492.6875 84.49479 492.78125 84.93229Q492.82812 85.197914 492.82812 85.90104L492.82812 87.30729Q492.82812 88.77604 492.89062 89.166664Q492.96875 89.55729 493.17188 89.916664L492.0625 89.916664Q491.90625 89.58854 491.85938 89.15104ZM491.76562 86.791664Q491.1875 87.02604 490.04688 87.197914Q489.39062 87.291664 489.125 87.416664Q488.85938 87.52604 488.70312 87.74479Q488.5625 87.96354 488.5625 88.24479Q488.5625 88.666664 488.875 88.947914Q489.20312 89.229164 489.8125 89.229164Q490.42188 89.229164 490.89062 88.96354Q491.375 88.697914 491.59375 88.229164Q491.76562 87.86979 491.76562 87.18229L491.76562 86.791664ZM497.09375 88.979164L497.25 89.90104Q496.79688 89.99479 496.45312 89.99479Q495.875 89.99479 495.5625 89.822914Q495.25 89.635414 495.10938 89.33854Q494.98438 89.041664 494.98438 88.08854L494.98438 84.510414L494.21875 84.510414L494.21875 83.697914L494.98438 83.697914L494.98438 82.15104L496.03125 81.52604L496.03125 83.697914L497.09375 83.697914L497.09375 84.510414L496.03125 84.510414L496.03125 88.15104Q496.03125 88.604164 496.07812 88.729164Q496.14062 88.854164 496.26562 88.93229Q496.39062 89.010414 496.625 89.010414Q496.8125 89.010414 497.09375 88.979164ZM504.85938 87.635414L505.89062 87.77604Q505.71875 88.83854 505.01562 89.447914Q504.3125 90.05729 503.29688 90.05729Q502.01562 90.05729 501.23438 89.229164Q500.46875 88.385414 500.46875 86.822914Q500.46875 85.822914 500.79688 85.072914Q501.14062 84.30729 501.8125 83.93229Q502.5 83.55729 503.3125 83.55729Q504.3125 83.55729 504.95312 84.072914Q505.60938 84.572914 505.79688 85.52604L504.76562 85.68229Q504.625 85.05729 504.25 84.74479Q503.875 84.416664 503.34375 84.416664Q502.54688 84.416664 502.04688 84.99479Q501.54688 85.55729 501.54688 86.791664Q501.54688 88.05729 502.03125 88.61979Q502.51562 89.18229 503.28125 89.18229Q503.90625 89.18229 504.3125 88.80729Q504.73438 88.43229 504.85938 87.635414ZM506.40625 86.80729Q506.40625 85.072914 507.35938 84.24479Q508.15625 83.55729 509.3125 83.55729Q510.59375 83.55729 511.40625 84.40104Q512.2344 85.229164 512.2344 86.71354Q512.2344 87.916664 511.875 88.604164Q511.51562 89.291664 510.8125 89.68229Q510.125 90.05729 509.3125 90.05729Q508.01562 90.05729 507.20312 89.229164Q506.40625 88.385414 506.40625 86.80729ZM507.48438 86.80729Q507.48438 87.99479 508.0 88.58854Q508.53125 89.18229 509.3125 89.18229Q510.10938 89.18229 510.625 88.58854Q511.14062 87.99479 511.14062 86.77604Q511.14062 85.61979 510.60938 85.02604Q510.09375 84.43229 509.3125 84.43229Q508.53125 84.43229 508.0 85.02604Q507.48438 85.604164 507.48438 86.80729ZM513.7969 89.916664L513.7969 83.697914L514.7344 83.697914L514.7344 84.572914Q515.03125 84.104164 515.5156 83.83854Q516.0 83.55729 516.625 83.55729Q517.3125 83.55729 517.75 83.83854Q518.2031 84.11979 518.375 84.635414Q519.125 83.55729 520.2969 83.55729Q521.2344 83.55729 521.71875 84.072914Q522.21875 84.572914 522.21875 85.65104L522.21875 89.916664L521.1719 89.916664L521.1719 85.99479Q521.1719 85.36979 521.0625 85.08854Q520.96875 84.80729 520.7031 84.635414Q520.4375 84.46354 520.0625 84.46354Q519.40625 84.46354 518.96875 84.90104Q518.5469 85.33854 518.5469 86.30729L518.5469 89.916664L517.4844 89.916664L517.4844 85.86979Q517.4844 85.166664 517.21875 84.822914Q516.96875 84.46354 516.3906 84.46354Q515.9375 84.46354 515.5625 84.697914Q515.1875 84.93229 515.0156 85.385414Q514.84375 85.83854 514.84375 86.68229L514.84375 89.916664L513.7969 89.916664ZM525.0469 89.916664L525.0469 84.510414L524.1094 84.510414L524.1094 83.697914L525.0469 83.697914L525.0469 83.02604Q525.0469 82.40104 525.15625 82.104164Q525.3125 81.68229 525.6875 81.43229Q526.0781 81.18229 526.7656 81.18229Q527.21875 81.18229 527.75 81.291664L527.59375 82.197914Q527.2656 82.15104 526.96875 82.15104Q526.4844 82.15104 526.28125 82.354164Q526.09375 82.55729 526.09375 83.11979L526.09375 83.697914L527.3125 83.697914L527.3125 84.510414L526.09375 84.510414L526.09375 89.916664L525.0469 89.916664ZM527.40625 86.80729Q527.40625 85.072914 528.3594 84.24479Q529.15625 83.55729 530.3125 83.55729Q531.59375 83.55729 532.40625 84.40104Q533.2344 85.229164 533.2344 86.71354Q533.2344 87.916664 532.875 88.604164Q532.5156 89.291664 531.8125 89.68229Q531.125 90.05729 530.3125 90.05729Q529.0156 90.05729 528.2031 89.229164Q527.40625 88.385414 527.40625 86.80729ZM528.4844 86.80729Q528.4844 87.99479 529.0 88.58854Q529.53125 89.18229 530.3125 89.18229Q531.1094 89.18229 531.625 88.58854Q532.1406 87.99479 532.1406 86.77604Q532.1406 85.61979 531.6094 85.02604Q531.09375 84.43229 530.3125 84.43229Q529.53125 84.43229 529.0 85.02604Q528.4844 85.604164 528.4844 86.80729ZM534.78125 89.916664L534.78125 83.697914L535.7344 83.697914L535.7344 84.635414Q536.09375 83.979164 536.3906 83.77604Q536.7031 83.55729 537.0781 83.55729Q537.6094 83.55729 538.15625 83.885414L537.7969 84.86979Q537.40625 84.635414 537.03125 84.635414Q536.6719 84.635414 536.3906 84.854164Q536.125 85.05729 536.0156 85.43229Q535.8281 85.99479 535.8281 86.65104L535.8281 89.916664L534.78125 89.916664ZM541.09375 88.979164L541.25 89.90104Q540.7969 89.99479 540.4531 89.99479Q539.875 89.99479 539.5625 89.822914Q539.25 89.635414 539.1094 89.33854Q538.9844 89.041664 538.9844 88.08854L538.9844 84.510414L538.21875 84.510414L538.21875 83.697914L538.9844 83.697914L538.9844 82.15104L540.03125 81.52604L540.03125 83.697914L541.09375 83.697914L541.09375 84.510414L540.03125 84.510414L540.03125 88.15104Q540.03125 88.604164 540.0781 88.729164Q540.1406 88.854164 540.2656 88.93229Q540.3906 89.010414 540.625 89.010414Q540.8125 89.010414 541.09375 88.979164ZM545.8594 89.15104Q545.2656 89.65104 544.71875 89.854164Q544.1875 90.05729 543.5625 90.05729Q542.53125 90.05729 541.9844 89.55729Q541.4375 89.05729 541.4375 88.27604Q541.4375 87.822914 541.6406 87.447914Q541.84375 87.05729 542.1875 86.83854Q542.53125 86.604164 542.9531 86.49479Q543.25 86.40104 543.8906 86.322914Q545.15625 86.18229 545.7656 85.96354Q545.7656 85.74479 545.7656 85.697914Q545.7656 85.041664 545.46875 84.77604Q545.0625 84.43229 544.2656 84.43229Q543.53125 84.43229 543.1719 84.697914Q542.8125 84.947914 542.6406 85.604164L541.6094 85.46354Q541.75 84.80729 542.0781 84.40104Q542.40625 83.99479 543.0156 83.77604Q543.625 83.55729 544.4219 83.55729Q545.21875 83.55729 545.71875 83.74479Q546.21875 83.93229 546.4531 84.21354Q546.6875 84.49479 546.78125 84.93229Q546.8281 85.197914 546.8281 85.90104L546.8281 87.30729Q546.8281 88.77604 546.8906 89.166664Q546.96875 89.55729 547.1719 89.916664L546.0625 89.916664Q545.90625 89.58854 545.8594 89.15104ZM545.7656 86.791664Q545.1875 87.02604 544.0469 87.197914Q543.3906 87.291664 543.125 87.416664Q542.8594 87.52604 542.7031 87.74479Q542.5625 87.96354 542.5625 88.24479Q542.5625 88.666664 542.875 88.947914Q543.2031 89.229164 543.8125 89.229164Q544.4219 89.229164 544.8906 88.96354Q545.375 88.697914 545.59375 88.229164Q545.7656 87.86979 545.7656 87.18229L545.7656 86.791664ZM549.7656 89.916664L548.78125 89.916664L548.78125 81.322914L549.84375 81.322914L549.84375 84.385414Q550.5156 83.55729 551.5469 83.55729Q552.125 83.55729 552.625 83.791664Q553.1406 84.010414 553.46875 84.43229Q553.8125 84.854164 554.0 85.447914Q554.1875 86.041664 554.1875 86.71354Q554.1875 88.30729 553.3906 89.18229Q552.59375 90.05729 551.5 90.05729Q550.3906 90.05729 549.7656 89.135414L549.7656 89.916664ZM549.75 86.760414Q549.75 87.86979 550.0625 88.36979Q550.5625 89.18229 551.40625 89.18229Q552.09375 89.18229 552.59375 88.58854Q553.1094 87.99479 553.1094 86.791664Q553.1094 85.572914 552.625 84.99479Q552.1406 84.416664 551.4531 84.416664Q550.7656 84.416664 550.25 85.02604Q549.75 85.61979 549.75 86.760414ZM555.7656 89.916664L555.7656 81.322914L556.8281 81.322914L556.8281 89.916664L555.7656 89.916664ZM563.0469 87.916664L564.1406 88.041664Q563.8906 88.99479 563.1875 89.52604Q562.4844 90.05729 561.40625 90.05729Q560.0469 90.05729 559.2344 89.21354Q558.4375 88.36979 558.4375 86.854164Q558.4375 85.291664 559.25 84.43229Q560.0625 83.55729 561.34375 83.55729Q562.59375 83.55729 563.375 84.40104Q564.1719 85.24479 564.1719 86.791664Q564.1719 86.885414 564.1719 87.072914L559.53125 87.072914Q559.59375 88.104164 560.1094 88.65104Q560.625 89.18229 561.40625 89.18229Q561.9844 89.18229 562.3906 88.885414Q562.8125 88.572914 563.0469 87.916664ZM559.59375 86.21354L563.0625 86.21354Q563.0 85.416664 562.6719 85.02604Q562.15625 84.416664 561.3594 84.416664Q560.625 84.416664 560.125 84.90104Q559.6406 85.385414 559.59375 86.21354Z" fill-rule="nonzero"/><path fill="#000000" d="M47.46875 37.55L47.46875 23.2375L50.359375 23.2375L50.359375 28.8625L56.015625 28.8625L56.015625 23.2375L58.90625 23.2375L58.90625 37.55L56.015625 37.55L56.015625 31.284374L50.359375 31.284374L50.359375 37.55L47.46875 37.55ZM60.796875 32.221874Q60.796875 30.846874 61.46875 29.565624Q62.15625 28.284374 63.390625 27.6125Q64.625 26.940624 66.140625 26.940624Q68.5 26.940624 70.0 28.471874Q71.5 30.003124 71.5 32.33125Q71.5 34.690624 69.984375 36.2375Q68.46875 37.784374 66.15625 37.784374Q64.734375 37.784374 63.4375 37.14375Q62.15625 36.4875 61.46875 35.253124Q60.796875 34.003124 60.796875 32.221874ZM63.609375 32.3625Q63.609375 33.909374 64.34375 34.7375Q65.078125 35.55 66.15625 35.55Q67.234375 35.55 67.953125 34.7375Q68.6875 33.909374 68.6875 32.346874Q68.6875 30.815624 67.953125 30.003124Q67.234375 29.175 66.15625 29.175Q65.078125 29.175 64.34375 30.003124Q63.609375 30.815624 63.609375 32.3625ZM75.375 37.55L72.09375 27.175L74.75 27.175L76.703125 33.971874L78.484375 27.175L81.125 27.175L82.859375 33.971874L84.84375 27.175L87.546875 27.175L84.21875 37.55L81.578125 37.55L79.796875 30.878124L78.03125 37.55L75.375 37.55ZM103.484375 30.2375L100.78125 30.7375Q100.640625 29.925 100.15625 29.51875Q99.671875 29.096874 98.90625 29.096874Q97.875 29.096874 97.265625 29.815624Q96.65625 30.51875 96.65625 32.175Q96.65625 34.01875 97.265625 34.784374Q97.890625 35.55 98.9375 35.55Q99.71875 35.55 100.21875 35.1125Q100.71875 34.659374 100.921875 33.58125L103.609375 34.034374Q103.203125 35.89375 102.0 36.846874Q100.8125 37.784374 98.8125 37.784374Q96.53125 37.784374 95.171875 36.346874Q93.828125 34.909374 93.828125 32.378124Q93.828125 29.8 95.1875 28.378124Q96.546875 26.940624 98.859375 26.940624Q100.75 26.940624 101.859375 27.76875Q102.984375 28.58125 103.484375 30.2375ZM104.796875 32.221874Q104.796875 30.846874 105.46875 29.565624Q106.15625 28.284374 107.390625 27.6125Q108.625 26.940624 110.140625 26.940624Q112.5 26.940624 114.0 28.471874Q115.5 30.003124 115.5 32.33125Q115.5 34.690624 113.984375 36.2375Q112.46875 37.784374 110.15625 37.784374Q108.734375 37.784374 107.4375 37.14375Q106.15625 36.4875 105.46875 35.253124Q104.796875 34.003124 104.796875 32.221874ZM107.609375 32.3625Q107.609375 33.909374 108.34375 34.7375Q109.078125 35.55 110.15625 35.55Q111.234375 35.55 111.953125 34.7375Q112.6875 33.909374 112.6875 32.346874Q112.6875 30.815624 111.953125 30.003124Q111.234375 29.175 110.15625 29.175Q109.078125 29.175 108.34375 30.003124Q107.609375 30.815624 107.609375 32.3625ZM117.234375 27.175L119.765625 27.175L119.765625 28.596874Q121.125 26.940624 123.0 26.940624Q123.984375 26.940624 124.71875 27.3625Q125.453125 27.76875 125.921875 28.596874Q126.609375 27.76875 127.390625 27.3625Q128.1875 26.940624 129.09375 26.940624Q130.23438 26.940624 131.01562 27.409374Q131.8125 27.878124 132.20312 28.76875Q132.48438 29.440624 132.48438 30.925L132.48438 37.55L129.73438 37.55L129.73438 31.628124Q129.73438 30.08125 129.45312 29.628124Q129.07812 29.05 128.28125 29.05Q127.703125 29.05 127.1875 29.409374Q126.6875 29.753124 126.46875 30.425Q126.25 31.096874 126.25 32.565624L126.25 37.55L123.5 37.55L123.5 31.8625Q123.5 30.346874 123.34375 29.909374Q123.203125 29.471874 122.890625 29.26875Q122.59375 29.05 122.0625 29.05Q121.4375 29.05 120.921875 29.39375Q120.421875 29.721874 120.1875 30.378124Q119.96875 31.01875 119.96875 32.503124L119.96875 37.55L117.234375 37.55L117.234375 27.175ZM133.23438 27.175L134.76562 27.175L134.76562 26.39375Q134.76562 25.08125 135.03125 24.440624Q135.3125 23.8 136.0625 23.39375Q136.8125 22.9875 137.95312 22.9875Q139.125 22.9875 140.25 23.346874L139.875 25.253124Q139.21875 25.096874 138.60938 25.096874Q138.01562 25.096874 137.75 25.378124Q137.5 25.659374 137.5 26.440624L137.5 27.175L139.54688 27.175L139.54688 29.33125L137.5 29.33125L137.5 37.55L134.76562 37.55L134.76562 29.33125L133.23438 29.33125L133.23438 27.175ZM140.79688 32.221874Q140.79688 30.846874 141.46875 29.565624Q142.15625 28.284374 143.39062 27.6125Q144.625 26.940624 146.14062 26.940624Q148.5 26.940624 150.0 28.471874Q151.5 30.003124 151.5 32.33125Q151.5 34.690624 149.98438 36.2375Q148.46875 37.784374 146.15625 37.784374Q144.73438 37.784374 143.4375 37.14375Q142.15625 36.4875 141.46875 35.253124Q140.79688 34.003124 140.79688 32.221874ZM143.60938 32.3625Q143.60938 33.909374 144.34375 34.7375Q145.07812 35.55 146.15625 35.55Q147.23438 35.55 147.95312 34.7375Q148.6875 33.909374 148.6875 32.346874Q148.6875 30.815624 147.95312 30.003124Q147.23438 29.175 146.15625 29.175Q145.07812 29.175 144.34375 30.003124Q143.60938 30.815624 143.60938 32.3625ZM156.0625 37.55L153.3125 37.55L153.3125 27.175L155.875 27.175L155.875 28.659374Q156.51562 27.6125 157.03125 27.284374Q157.5625 26.940624 158.23438 26.940624Q159.17188 26.940624 160.03125 27.45625L159.1875 29.846874Q158.5 29.409374 157.90625 29.409374Q157.32812 29.409374 156.92188 29.721874Q156.51562 30.034374 156.28125 30.878124Q156.0625 31.70625 156.0625 34.346874L156.0625 37.55ZM166.1875 27.175L166.1875 29.3625L164.3125 29.3625L164.3125 33.55Q164.3125 34.815624 164.35938 35.034374Q164.42188 35.2375 164.60938 35.378124Q164.8125 35.503124 165.07812 35.503124Q165.45312 35.503124 166.1875 35.2375L166.42188 37.378124Q165.45312 37.784374 164.25 37.784374Q163.5 37.784374 162.90625 37.534374Q162.3125 37.284374 162.03125 36.89375Q161.76562 36.4875 161.65625 35.815624Q161.5625 35.346874 161.5625 33.89375L161.5625 29.3625L160.29688 29.3625L160.29688 27.175L161.5625 27.175L161.5625 25.1125L164.3125 23.51875L164.3125 27.175L166.1875 27.175ZM170.48438 30.346874L168.0 29.89375Q168.42188 28.39375 169.4375 27.675Q170.46875 26.940624 172.48438 26.940624Q174.32812 26.940624 175.21875 27.378124Q176.125 27.815624 176.48438 28.4875Q176.85938 29.14375 176.85938 30.940624L176.82812 34.14375Q176.82812 35.503124 176.95312 36.159374Q177.09375 36.8 177.45312 37.55L174.73438 37.55Q174.625 37.26875 174.46875 36.7375Q174.40625 36.4875 174.375 36.409374Q173.67188 37.096874 172.85938 37.440624Q172.0625 37.784374 171.15625 37.784374Q169.5625 37.784374 168.64062 36.925Q167.71875 36.05 167.71875 34.721874Q167.71875 33.83125 168.125 33.14375Q168.54688 32.45625 169.29688 32.096874Q170.0625 31.721874 171.5 31.45625Q173.42188 31.096874 174.15625 30.784374L174.15625 30.503124Q174.15625 29.721874 173.76562 29.39375Q173.375 29.05 172.29688 29.05Q171.5625 29.05 171.14062 29.33125Q170.73438 29.6125 170.48438 30.346874ZM174.15625 32.565624Q173.625 32.7375 172.48438 32.9875Q171.34375 33.2375 171.0 33.471874Q170.45312 33.846874 170.45312 34.440624Q170.45312 35.003124 170.875 35.425Q171.3125 35.846874 171.98438 35.846874Q172.71875 35.846874 173.39062 35.3625Q173.89062 34.9875 174.04688 34.45625Q174.15625 34.096874 174.15625 33.1125L174.15625 32.565624ZM179.3125 37.55L179.3125 23.2375L182.0625 23.2375L182.0625 28.39375Q183.32812 26.940624 185.07812 26.940624Q186.96875 26.940624 188.20312 28.315624Q189.45312 29.690624 189.45312 32.253124Q189.45312 34.909374 188.1875 36.346874Q186.92188 37.784374 185.10938 37.784374Q184.21875 37.784374 183.35938 37.346874Q182.5 36.89375 181.875 36.01875L181.875 37.55L179.3125 37.55ZM182.04688 32.14375Q182.04688 33.753124 182.54688 34.51875Q183.26562 35.6125 184.45312 35.6125Q185.35938 35.6125 186.0 34.846874Q186.64062 34.065624 186.64062 32.39375Q186.64062 30.6125 185.98438 29.83125Q185.34375 29.05 184.34375 29.05Q183.35938 29.05 182.70312 29.815624Q182.04688 30.58125 182.04688 32.14375ZM191.4375 37.55L191.4375 23.2375L194.1875 23.2375L194.1875 37.55L191.4375 37.55ZM202.4375 34.253124L205.17188 34.70625Q204.65625 36.20625 203.51562 37.003124Q202.375 37.784374 200.67188 37.784374Q197.95312 37.784374 196.65625 36.01875Q195.64062 34.596874 195.64062 32.440624Q195.64062 29.8625 196.98438 28.409374Q198.32812 26.940624 200.39062 26.940624Q202.70312 26.940624 204.03125 28.471874Q205.375 30.003124 205.32812 33.159374L198.45312 33.159374Q198.48438 34.378124 199.10938 35.065624Q199.75 35.7375 200.6875 35.7375Q201.34375 35.7375 201.78125 35.39375Q202.21875 35.034374 202.4375 34.253124ZM202.59375 31.471874Q202.5625 30.284374 201.96875 29.675Q201.39062 29.05 200.5625 29.05Q199.65625 29.05 199.07812 29.690624Q198.48438 30.346874 198.5 31.471874L202.59375 31.471874ZM215.48438 30.346874L213.0 29.89375Q213.42188 28.39375 214.4375 27.675Q215.46875 26.940624 217.48438 26.940624Q219.32812 26.940624 220.21875 27.378124Q221.125 27.815624 221.48438 28.4875Q221.85938 29.14375 221.85938 30.940624L221.82812 34.14375Q221.82812 35.503124 221.95312 36.159374Q222.09375 36.8 222.45312 37.55L219.73438 37.55Q219.625 37.26875 219.46875 36.7375Q219.40625 36.4875 219.375 36.409374Q218.67188 37.096874 217.85938 37.440624Q217.0625 37.784374 216.15625 37.784374Q214.5625 37.784374 213.64062 36.925Q212.71875 36.05 212.71875 34.721874Q212.71875 33.83125 213.125 33.14375Q213.54688 32.45625 214.29688 32.096874Q215.0625 31.721874 216.5 31.45625Q218.42188 31.096874 219.15625 30.784374L219.15625 30.503124Q219.15625 29.721874 218.76562 29.39375Q218.375 29.05 217.29688 29.05Q216.5625 29.05 216.14062 29.33125Q215.73438 29.6125 215.48438 30.346874ZM219.15625 32.565624Q218.625 32.7375 217.48438 32.9875Q216.34375 33.2375 216.0 33.471874Q215.45312 33.846874 215.45312 34.440624Q215.45312 35.003124 215.875 35.425Q216.3125 35.846874 216.98438 35.846874Q217.71875 35.846874 218.39062 35.3625Q218.89062 34.9875 219.04688 34.45625Q219.15625 34.096874 219.15625 33.1125L219.15625 32.565624ZM227.0625 37.55L224.3125 37.55L224.3125 27.175L226.875 27.175L226.875 28.659374Q227.51562 27.6125 228.03125 27.284374Q228.5625 26.940624 229.23438 26.940624Q230.17188 26.940624 231.03125 27.45625L230.1875 29.846874Q229.5 29.409374 228.90625 29.409374Q228.32812 29.409374 227.92188 29.721874Q227.51562 30.034374 227.28125 30.878124Q227.0625 31.70625 227.0625 34.346874L227.0625 37.55ZM238.4375 34.253124L241.17188 34.70625Q240.65625 36.20625 239.51562 37.003124Q238.375 37.784374 236.67188 37.784374Q233.95312 37.784374 232.65625 36.01875Q231.64062 34.596874 231.64062 32.440624Q231.64062 29.8625 232.98438 28.409374Q234.32812 26.940624 236.39062 26.940624Q238.70312 26.940624 240.03125 28.471874Q241.375 30.003124 241.32812 33.159374L234.45312 33.159374Q234.48438 34.378124 235.10938 35.065624Q235.75 35.7375 236.6875 35.7375Q237.34375 35.7375 237.78125 35.39375Q238.21875 35.034374 238.4375 34.253124ZM238.59375 31.471874Q238.5625 30.284374 237.96875 29.675Q237.39062 29.05 236.5625 29.05Q235.65625 29.05 235.07812 29.690624Q234.48438 30.346874 234.5 31.471874L238.59375 31.471874ZM248.14062 27.175L251.0625 27.175L253.53125 34.534374L255.95312 27.175L258.79688 27.175L255.14062 37.159374L254.48438 38.971874Q254.125 39.878124 253.79688 40.346874Q253.46875 40.83125 253.04688 41.128124Q252.625 41.425 252.0 41.58125Q251.375 41.753124 250.59375 41.753124Q249.8125 41.753124 249.04688 41.596874L248.79688 39.440624Q249.45312 39.565624 249.96875 39.565624Q250.92188 39.565624 251.375 39.003124Q251.84375 38.45625 252.07812 37.58125L248.14062 27.175ZM259.79688 32.221874Q259.79688 30.846874 260.46875 29.565624Q261.15625 28.284374 262.39062 27.6125Q263.625 26.940624 265.14062 26.940624Q267.5 26.940624 269.0 28.471874Q270.5 30.003124 270.5 32.33125Q270.5 34.690624 268.98438 36.2375Q267.46875 37.784374 265.15625 37.784374Q263.73438 37.784374 262.4375 37.14375Q261.15625 36.4875 260.46875 35.253124Q259.79688 34.003124 259.79688 32.221874ZM262.60938 32.3625Q262.60938 33.909374 263.34375 34.7375Q264.07812 35.55 265.15625 35.55Q266.23438 35.55 266.95312 34.7375Q267.6875 33.909374 267.6875 32.346874Q267.6875 30.815624 266.95312 30.003124Q266.23438 29.175 265.15625 29.175Q264.07812 29.175 263.34375 30.003124Q262.60938 30.815624 262.60938 32.3625ZM279.26562 37.55L279.26562 36.003124Q278.70312 36.83125 277.76562 37.315624Q276.84375 37.784374 275.82812 37.784374Q274.78125 37.784374 273.95312 37.33125Q273.125 36.8625 272.75 36.034374Q272.375 35.20625 272.375 33.7375L272.375 27.175L275.125 27.175L275.125 31.940624Q275.125 34.128124 275.26562 34.628124Q275.42188 35.1125 275.8125 35.409374Q276.21875 35.690624 276.84375 35.690624Q277.54688 35.690624 278.09375 35.315624Q278.65625 34.925 278.85938 34.3625Q279.0625 33.784374 279.0625 31.55L279.0625 27.175L281.8125 27.175L281.8125 37.55L279.26562 37.55ZM293.0625 37.55L290.3125 37.55L290.3125 27.175L292.875 27.175L292.875 28.659374Q293.51562 27.6125 294.03125 27.284374Q294.5625 26.940624 295.23438 26.940624Q296.17188 26.940624 297.03125 27.45625L296.1875 29.846874Q295.5 29.409374 294.90625 29.409374Q294.32812 29.409374 293.92188 29.721874Q293.51562 30.034374 293.28125 30.878124Q293.0625 31.70625 293.0625 34.346874L293.0625 37.55ZM304.4375 34.253124L307.17188 34.70625Q306.65625 36.20625 305.51562 37.003124Q304.375 37.784374 302.67188 37.784374Q299.95312 37.784374 298.65625 36.01875Q297.64062 34.596874 297.64062 32.440624Q297.64062 29.8625 298.98438 28.409374Q300.32812 26.940624 302.39062 26.940624Q304.70312 26.940624 306.03125 28.471874Q307.375 30.003124 307.32812 33.159374L300.45312 33.159374Q300.48438 34.378124 301.10938 35.065624Q301.75 35.7375 302.6875 35.7375Q303.34375 35.7375 303.78125 35.39375Q304.21875 35.034374 304.4375 34.253124ZM304.59375 31.471874Q304.5625 30.284374 303.96875 29.675Q303.39062 29.05 302.5625 29.05Q301.65625 29.05 301.07812 29.690624Q300.48438 30.346874 300.5 31.471874L304.59375 31.471874ZM311.48438 30.346874L309.0 29.89375Q309.42188 28.39375 310.4375 27.675Q311.46875 26.940624 313.48438 26.940624Q315.32812 26.940624 316.21875 27.378124Q317.125 27.815624 317.48438 28.4875Q317.85938 29.14375 317.85938 30.940624L317.82812 34.14375Q317.82812 35.503124 317.95312 36.159374Q318.09375 36.8 318.45312 37.55L315.73438 37.55Q315.625 37.26875 315.46875 36.7375Q315.40625 36.4875 315.375 36.409374Q314.67188 37.096874 313.85938 37.440624Q313.0625 37.784374 312.15625 37.784374Q310.5625 37.784374 309.64062 36.925Q308.71875 36.05 308.71875 34.721874Q308.71875 33.83125 309.125 33.14375Q309.54688 32.45625 310.29688 32.096874Q311.0625 31.721874 312.5 31.45625Q314.42188 31.096874 315.15625 30.784374L315.15625 30.503124Q315.15625 29.721874 314.76562 29.39375Q314.375 29.05 313.29688 29.05Q312.5625 29.05 312.14062 29.33125Q311.73438 29.6125 311.48438 30.346874ZM315.15625 32.565624Q314.625 32.7375 313.48438 32.9875Q312.34375 33.2375 312.0 33.471874Q311.45312 33.846874 311.45312 34.440624Q311.45312 35.003124 311.875 35.425Q312.3125 35.846874 312.98438 35.846874Q313.71875 35.846874 314.39062 35.3625Q314.89062 34.9875 315.04688 34.45625Q315.15625 34.096874 315.15625 33.1125L315.15625 32.565624ZM329.95312 37.55L327.40625 37.55L327.40625 36.01875Q326.76562 36.909374 325.89062 37.346874Q325.03125 37.784374 324.15625 37.784374Q322.375 37.784374 321.09375 36.346874Q319.82812 34.909374 319.82812 32.33125Q319.82812 29.690624 321.0625 28.315624Q322.29688 26.940624 324.20312 26.940624Q325.9375 26.940624 327.20312 28.39375L327.20312 23.2375L329.95312 23.2375L329.95312 37.55ZM322.625 32.14375Q322.625 33.8 323.07812 34.534374Q323.75 35.6125 324.9375 35.6125Q325.89062 35.6125 326.54688 34.815624Q327.21875 34.003124 327.21875 32.409374Q327.21875 30.6125 326.5625 29.83125Q325.92188 29.05 324.92188 29.05Q323.9375 29.05 323.28125 29.83125Q322.625 30.596874 322.625 32.14375ZM332.4375 25.76875L332.4375 23.2375L335.1875 23.2375L335.1875 25.76875L332.4375 25.76875ZM332.4375 37.55L332.4375 27.175L335.1875 27.175L335.1875 37.55L332.4375 37.55ZM346.875 37.55L344.125 37.55L344.125 32.253124Q344.125 30.58125 343.95312 30.096874Q343.78125 29.596874 343.375 29.33125Q342.98438 29.05 342.42188 29.05Q341.71875 29.05 341.14062 29.440624Q340.57812 29.83125 340.35938 30.471874Q340.15625 31.1125 340.15625 32.846874L340.15625 37.55L337.42188 37.55L337.42188 27.175L339.96875 27.175L339.96875 28.70625Q341.32812 26.940624 343.39062 26.940624Q344.29688 26.940624 345.04688 27.26875Q345.79688 27.596874 346.17188 28.1125Q346.5625 28.6125 346.71875 29.26875Q346.875 29.909374 346.875 31.096874L346.875 37.55ZM349.1875 38.2375L352.3125 38.6125Q352.39062 39.159374 352.67188 39.3625Q353.0625 39.659374 353.90625 39.659374Q354.98438 39.659374 355.51562 39.33125Q355.875 39.128124 356.0625 38.64375Q356.1875 38.3 356.1875 37.378124L356.1875 35.8625Q354.96875 37.55 353.09375 37.55Q351.0 37.55 349.78125 35.784374Q348.82812 34.378124 348.82812 32.3Q348.82812 29.690624 350.07812 28.315624Q351.32812 26.940624 353.20312 26.940624Q355.125 26.940624 356.375 28.628124L356.375 27.175L358.9375 27.175L358.9375 36.4875Q358.9375 38.315624 358.625 39.221874Q358.32812 40.14375 357.78125 40.659374Q357.23438 41.175 356.3125 41.45625Q355.40625 41.753124 354.01562 41.753124Q351.375 41.753124 350.26562 40.846874Q349.17188 39.95625 349.17188 38.565624Q349.17188 38.425 349.1875 38.2375ZM351.64062 32.14375Q351.64062 33.8 352.26562 34.565624Q352.90625 35.33125 353.84375 35.33125Q354.85938 35.33125 355.54688 34.55Q356.25 33.753124 356.25 32.221874Q356.25 30.6125 355.57812 29.83125Q354.92188 29.05 353.90625 29.05Q352.90625 29.05 352.26562 29.815624Q351.64062 30.58125 351.64062 32.14375ZM369.48438 30.346874L367.0 29.89375Q367.42188 28.39375 368.4375 27.675Q369.46875 26.940624 371.48438 26.940624Q373.32812 26.940624 374.21875 27.378124Q375.125 27.815624 375.48438 28.4875Q375.85938 29.14375 375.85938 30.940624L375.82812 34.14375Q375.82812 35.503124 375.95312 36.159374Q376.09375 36.8 376.45312 37.55L373.73438 37.55Q373.625 37.26875 373.46875 36.7375Q373.40625 36.4875 373.375 36.409374Q372.67188 37.096874 371.85938 37.440624Q371.0625 37.784374 370.15625 37.784374Q368.5625 37.784374 367.64062 36.925Q366.71875 36.05 366.71875 34.721874Q366.71875 33.83125 367.125 33.14375Q367.54688 32.45625 368.29688 32.096874Q369.0625 31.721874 370.5 31.45625Q372.42188 31.096874 373.15625 30.784374L373.15625 30.503124Q373.15625 29.721874 372.76562 29.39375Q372.375 29.05 371.29688 29.05Q370.5625 29.05 370.14062 29.33125Q369.73438 29.6125 369.48438 30.346874ZM373.15625 32.565624Q372.625 32.7375 371.48438 32.9875Q370.34375 33.2375 370.0 33.471874Q369.45312 33.846874 369.45312 34.440624Q369.45312 35.003124 369.875 35.425Q370.3125 35.846874 370.98438 35.846874Q371.71875 35.846874 372.39062 35.3625Q372.89062 34.9875 373.04688 34.45625Q373.15625 34.096874 373.15625 33.1125L373.15625 32.565624ZM387.875 37.55L385.125 37.55L385.125 32.253124Q385.125 30.58125 384.95312 30.096874Q384.78125 29.596874 384.375 29.33125Q383.98438 29.05 383.42188 29.05Q382.71875 29.05 382.14062 29.440624Q381.57812 29.83125 381.35938 30.471874Q381.15625 31.1125 381.15625 32.846874L381.15625 37.55L378.42188 37.55L378.42188 27.175L380.96875 27.175L380.96875 28.70625Q382.32812 26.940624 384.39062 26.940624Q385.29688 26.940624 386.04688 27.26875Q386.79688 27.596874 387.17188 28.1125Q387.5625 28.6125 387.71875 29.26875Q387.875 29.909374 387.875 31.096874L387.875 37.55ZM399.95312 37.55L397.40625 37.55L397.40625 36.01875Q396.76562 36.909374 395.89062 37.346874Q395.03125 37.784374 394.15625 37.784374Q392.375 37.784374 391.09375 36.346874Q389.82812 34.909374 389.82812 32.33125Q389.82812 29.690624 391.0625 28.315624Q392.29688 26.940624 394.20312 26.940624Q395.9375 26.940624 397.20312 28.39375L397.20312 23.2375L399.95312 23.2375L399.95312 37.55ZM392.625 32.14375Q392.625 33.8 393.07812 34.534374Q393.75 35.6125 394.9375 35.6125Q395.89062 35.6125 396.54688 34.815624Q397.21875 34.003124 397.21875 32.409374Q397.21875 30.6125 396.5625 29.83125Q395.92188 29.05 394.92188 29.05Q393.9375 29.05 393.28125 29.83125Q392.625 30.596874 392.625 32.14375ZM410.375 37.55L407.09375 27.175L409.75 27.175L411.70312 33.971874L413.48438 27.175L416.125 27.175L417.85938 33.971874L419.84375 27.175L422.54688 27.175L419.21875 37.55L416.57812 37.55L414.79688 30.878124L413.03125 37.55L410.375 37.55ZM426.0625 37.55L423.3125 37.55L423.3125 27.175L425.875 27.175L425.875 28.659374Q426.51562 27.6125 427.03125 27.284374Q427.5625 26.940624 428.23438 26.940624Q429.17188 26.940624 430.03125 27.45625L429.1875 29.846874Q428.5 29.409374 427.90625 29.409374Q427.32812 29.409374 426.92188 29.721874Q426.51562 30.034374 426.28125 30.878124Q426.0625 31.70625 426.0625 34.346874L426.0625 37.55ZM431.4375 25.76875L431.4375 23.2375L434.1875 23.2375L434.1875 25.76875L431.4375 25.76875ZM431.4375 37.55L431.4375 27.175L434.1875 27.175L434.1875 37.55L431.4375 37.55ZM441.1875 27.175L441.1875 29.3625L439.3125 29.3625L439.3125 33.55Q439.3125 34.815624 439.35938 35.034374Q439.42188 35.2375 439.60938 35.378124Q439.8125 35.503124 440.07812 35.503124Q440.45312 35.503124 441.1875 35.2375L441.42188 37.378124Q440.45312 37.784374 439.25 37.784374Q438.5 37.784374 437.90625 37.534374Q437.3125 37.284374 437.03125 36.89375Q436.76562 36.4875 436.65625 35.815624Q436.5625 35.346874 436.5625 33.89375L436.5625 29.3625L435.29688 29.3625L435.29688 27.175L436.5625 27.175L436.5625 25.1125L439.3125 23.51875L439.3125 27.175L441.1875 27.175ZM443.4375 25.76875L443.4375 23.2375L446.1875 23.2375L446.1875 25.76875L443.4375 25.76875ZM443.4375 37.55L443.4375 27.175L446.1875 27.175L446.1875 37.55L443.4375 37.55ZM457.875 37.55L455.125 37.55L455.125 32.253124Q455.125 30.58125 454.95312 30.096874Q454.78125 29.596874 454.375 29.33125Q453.98438 29.05 453.42188 29.05Q452.71875 29.05 452.14062 29.440624Q451.57812 29.83125 451.35938 30.471874Q451.15625 31.1125 451.15625 32.846874L451.15625 37.55L448.42188 37.55L448.42188 27.175L450.96875 27.175L450.96875 28.70625Q452.32812 26.940624 454.39062 26.940624Q455.29688 26.940624 456.04688 27.26875Q456.79688 27.596874 457.17188 28.1125Q457.5625 28.6125 457.71875 29.26875Q457.875 29.909374 457.875 31.096874L457.875 37.55ZM460.1875 38.2375L463.3125 38.6125Q463.39062 39.159374 463.67188 39.3625Q464.0625 39.659374 464.90625 39.659374Q465.98438 39.659374 466.51562 39.33125Q466.875 39.128124 467.0625 38.64375Q467.1875 38.3 467.1875 37.378124L467.1875 35.8625Q465.96875 37.55 464.09375 37.55Q462.0 37.55 460.78125 35.784374Q459.82812 34.378124 459.82812 32.3Q459.82812 29.690624 461.07812 28.315624Q462.32812 26.940624 464.20312 26.940624Q466.125 26.940624 467.375 28.628124L467.375 27.175L469.9375 27.175L469.9375 36.4875Q469.9375 38.315624 469.625 39.221874Q469.32812 40.14375 468.78125 40.659374Q468.23438 41.175 467.3125 41.45625Q466.40625 41.753124 465.01562 41.753124Q462.375 41.753124 461.26562 40.846874Q460.17188 39.95625 460.17188 38.565624Q460.17188 38.425 460.1875 38.2375ZM462.64062 32.14375Q462.64062 33.8 463.26562 34.565624Q463.90625 35.33125 464.84375 35.33125Q465.85938 35.33125 466.54688 34.55Q467.25 33.753124 467.25 32.221874Q467.25 30.6125 466.57812 29.83125Q465.92188 29.05 464.90625 29.05Q463.90625 29.05 463.26562 29.815624Q462.64062 30.58125 462.64062 32.14375ZM478.45312 23.2375L483.73438 23.2375Q485.51562 23.2375 486.45312 23.503124Q487.71875 23.878124 488.60938 24.83125Q489.51562 25.76875 489.98438 27.14375Q490.45312 28.51875 490.45312 30.534374Q490.45312 32.3 490.01562 33.58125Q489.46875 35.14375 488.46875 36.096874Q487.71875 36.83125 486.4375 37.253124Q485.48438 37.55 483.89062 37.55L478.45312 37.55L478.45312 23.2375ZM481.34375 25.659374L481.34375 35.14375L483.5 35.14375Q484.70312 35.14375 485.25 35.003124Q485.95312 34.83125 486.40625 34.409374Q486.875 33.9875 487.15625 33.034374Q487.45312 32.065624 487.45312 30.39375Q487.45312 28.7375 487.15625 27.846874Q486.875 26.95625 486.34375 26.471874Q485.8125 25.971874 485.01562 25.784374Q484.40625 25.659374 482.64062 25.659374L481.34375 25.659374ZM494.48438 30.346874L492.0 29.89375Q492.42188 28.39375 493.4375 27.675Q494.46875 26.940624 496.48438 26.940624Q498.32812 26.940624 499.21875 27.378124Q500.125 27.815624 500.48438 28.4875Q500.85938 29.14375 500.85938 30.940624L500.82812 34.14375Q500.82812 35.503124 500.95312 36.159374Q501.09375 36.8 501.45312 37.55L498.73438 37.55Q498.625 37.26875 498.46875 36.7375Q498.40625 36.4875 498.375 36.409374Q497.67188 37.096874 496.85938 37.440624Q496.0625 37.784374 495.15625 37.784374Q493.5625 37.784374 492.64062 36.925Q491.71875 36.05 491.71875 34.721874Q491.71875 33.83125 492.125 33.14375Q492.54688 32.45625 493.29688 32.096874Q494.0625 31.721874 495.5 31.45625Q497.42188 31.096874 498.15625 30.784374L498.15625 30.503124Q498.15625 29.721874 497.76562 29.39375Q497.375 29.05 496.29688 29.05Q495.5625 29.05 495.14062 29.33125Q494.73438 29.6125 494.48438 30.346874ZM498.15625 32.565624Q497.625 32.7375 496.48438 32.9875Q495.34375 33.2375 495.0 33.471874Q494.45312 33.846874 494.45312 34.440624Q494.45312 35.003124 494.875 35.425Q495.3125 35.846874 495.98438 35.846874Q496.71875 35.846874 497.39062 35.3625Q497.89062 34.9875 498.04688 34.45625Q498.15625 34.096874 498.15625 33.1125L498.15625 32.565624ZM506.0625 37.55L503.3125 37.55L503.3125 27.175L505.875 27.175L505.875 28.659374Q506.51562 27.6125 507.03125 27.284374Q507.5625 26.940624 508.23438 26.940624Q509.17188 26.940624 510.03125 27.45625L509.1875 29.846874Q508.5 29.409374 507.90625 29.409374Q507.32812 29.409374 506.92188 29.721874Q506.51562 30.034374 506.28125 30.878124Q506.0625 31.70625 506.0625 34.346874L506.0625 37.55ZM511.4375 25.76875L511.4375 23.2375L514.1875 23.2375L514.1875 25.76875L511.4375 25.76875ZM511.4375 37.55L511.4375 27.175L514.1875 27.175L514.1875 37.55L511.4375 37.55ZM516.375 25.76875L516.375 23.2375L519.125 23.2375L519.125 25.76875L516.375 25.76875ZM519.125 27.175L519.125 37.221874Q519.125 39.20625 518.8594 40.01875Q518.6094 40.846874 517.8594 41.3Q517.125 41.753124 515.9844 41.753124Q515.5781 41.753124 515.09375 41.675Q514.625 41.6125 514.0781 41.471874L514.5625 39.128124Q514.75 39.159374 514.9219 39.175Q515.09375 39.20625 515.25 39.20625Q515.6719 39.20625 515.9375 39.01875Q516.2031 38.846874 516.28125 38.596874Q516.375 38.346874 516.375 37.065624L516.375 27.175L519.125 27.175ZM523.4844 30.346874L521.0 29.89375Q521.4219 28.39375 522.4375 27.675Q523.46875 26.940624 525.4844 26.940624Q527.3281 26.940624 528.21875 27.378124Q529.125 27.815624 529.4844 28.4875Q529.8594 29.14375 529.8594 30.940624L529.8281 34.14375Q529.8281 35.503124 529.9531 36.159374Q530.09375 36.8 530.4531 37.55L527.7344 37.55Q527.625 37.26875 527.46875 36.7375Q527.40625 36.4875 527.375 36.409374Q526.6719 37.096874 525.8594 37.440624Q525.0625 37.784374 524.15625 37.784374Q522.5625 37.784374 521.6406 36.925Q520.71875 36.05 520.71875 34.721874Q520.71875 33.83125 521.125 33.14375Q521.5469 32.45625 522.2969 32.096874Q523.0625 31.721874 524.5 31.45625Q526.4219 31.096874 527.15625 30.784374L527.15625 30.503124Q527.15625 29.721874 526.7656 29.39375Q526.375 29.05 525.2969 29.05Q524.5625 29.05 524.1406 29.33125Q523.7344 29.6125 523.4844 30.346874ZM527.15625 32.565624Q526.625 32.7375 525.4844 32.9875Q524.34375 33.2375 524.0 33.471874Q523.4531 33.846874 523.4531 34.440624Q523.4531 35.003124 523.875 35.425Q524.3125 35.846874 524.9844 35.846874Q525.71875 35.846874 526.3906 35.3625Q526.8906 34.9875 527.0469 34.45625Q527.15625 34.096874 527.15625 33.1125L527.15625 32.565624ZM538.4375 25.76875L538.4375 23.2375L541.1875 23.2375L541.1875 25.76875L538.4375 25.76875ZM538.4375 37.55L538.4375 27.175L541.1875 27.175L541.1875 37.55L538.4375 37.55ZM552.875 37.55L550.125 37.55L550.125 32.253124Q550.125 30.58125 549.9531 30.096874Q549.78125 29.596874 549.375 29.33125Q548.9844 29.05 548.4219 29.05Q547.71875 29.05 547.1406 29.440624Q546.5781 29.83125 546.3594 30.471874Q546.15625 31.1125 546.15625 32.846874L546.15625 37.55L543.4219 37.55L543.4219 27.175L545.96875 27.175L545.96875 28.70625Q547.3281 26.940624 549.3906 26.940624Q550.2969 26.940624 551.0469 27.26875Q551.7969 27.596874 552.1719 28.1125Q552.5625 28.6125 552.71875 29.26875Q552.875 29.909374 552.875 31.096874L552.875 37.55Z" fill-rule="nonzero"/><path fill="#000000" d="M278.35938 61.55L275.21875 61.55L273.96875 58.3L268.25 58.3L267.0625 61.55L264.0 61.55L269.57812 47.2375L272.64062 47.2375L278.35938 61.55ZM273.04688 55.878124L271.07812 50.565624L269.14062 55.878124L273.04688 55.878124ZM281.0625 61.55L278.3125 61.55L278.3125 51.175L280.875 51.175L280.875 52.659374Q281.51562 51.6125 282.03125 51.284374Q282.5625 50.940624 283.23438 50.940624Q284.17188 50.940624 285.03125 51.45625L284.1875 53.846874Q283.5 53.409374 282.90625 53.409374Q282.32812 53.409374 281.92188 53.721874Q281.51562 54.034374 281.28125 54.878124Q281.0625 55.70625 281.0625 58.346874L281.0625 61.55ZM288.48438 54.346874L286.0 53.89375Q286.42188 52.39375 287.4375 51.675Q288.46875 50.940624 290.48438 50.940624Q292.32812 50.940624 293.21875 51.378124Q294.125 51.815624 294.48438 52.4875Q294.85938 53.14375 294.85938 54.940624L294.82812 58.14375Q294.82812 59.503124 294.95312 60.159374Q295.09375 60.8 295.45312 61.55L292.73438 61.55Q292.625 61.26875 292.46875 60.7375Q292.40625 60.4875 292.375 60.409374Q291.67188 61.096874 290.85938 61.440624Q290.0625 61.784374 289.15625 61.784374Q287.5625 61.784374 286.64062 60.925Q285.71875 60.05 285.71875 58.721874Q285.71875 57.83125 286.125 57.14375Q286.54688 56.45625 287.29688 56.096874Q288.0625 55.721874 289.5 55.45625Q291.42188 55.096874 292.15625 54.784374L292.15625 54.503124Q292.15625 53.721874 291.76562 53.39375Q291.375 53.05 290.29688 53.05Q289.5625 53.05 289.14062 53.33125Q288.73438 53.6125 288.48438 54.346874ZM292.15625 56.565624Q291.625 56.7375 290.48438 56.9875Q289.34375 57.2375 289.0 57.471874Q288.45312 57.846874 288.45312 58.440624Q288.45312 59.003124 288.875 59.425Q289.3125 59.846874 289.98438 59.846874Q290.71875 59.846874 291.39062 59.3625Q291.89062 58.9875 292.04688 58.45625Q292.15625 58.096874 292.15625 57.1125L292.15625 56.565624ZM297.3125 61.55L297.3125 47.2375L300.0625 47.2375L300.0625 52.39375Q301.32812 50.940624 303.07812 50.940624Q304.96875 50.940624 306.20312 52.315624Q307.45312 53.690624 307.45312 56.253124Q307.45312 58.909374 306.1875 60.346874Q304.92188 61.784374 303.10938 61.784374Q302.21875 61.784374 301.35938 61.346874Q300.5 60.89375 299.875 60.01875L299.875 61.55L297.3125 61.55ZM300.04688 56.14375Q300.04688 57.753124 300.54688 58.51875Q301.26562 59.6125 302.45312 59.6125Q303.35938 59.6125 304.0 58.846874Q304.64062 58.065624 304.64062 56.39375Q304.64062 54.6125 303.98438 53.83125Q303.34375 53.05 302.34375 53.05Q301.35938 53.05 300.70312 53.815624Q300.04688 54.58125 300.04688 56.14375ZM309.4375 49.76875L309.4375 47.2375L312.1875 47.2375L312.1875 49.76875L309.4375 49.76875ZM309.4375 61.55L309.4375 51.175L312.1875 51.175L312.1875 61.55L309.4375 61.55ZM323.48438 54.2375L320.78125 54.7375Q320.64062 53.925 320.15625 53.51875Q319.67188 53.096874 318.90625 53.096874Q317.875 53.096874 317.26562 53.815624Q316.65625 54.51875 316.65625 56.175Q316.65625 58.01875 317.26562 58.784374Q317.89062 59.55 318.9375 59.55Q319.71875 59.55 320.21875 59.1125Q320.71875 58.659374 320.92188 57.58125L323.60938 58.034374Q323.20312 59.89375 322.0 60.846874Q320.8125 61.784374 318.8125 61.784374Q316.53125 61.784374 315.17188 60.346874Q313.82812 58.909374 313.82812 56.378124Q313.82812 53.8 315.1875 52.378124Q316.54688 50.940624 318.85938 50.940624Q320.75 50.940624 321.85938 51.76875Q322.98438 52.58125 323.48438 54.2375ZM331.32812 57.8625L328.84375 57.8625Q328.82812 57.315624 328.82812 57.20625Q328.82812 55.9875 329.23438 55.20625Q329.64062 54.425 330.82812 53.45625Q332.03125 52.471874 332.26562 52.175Q332.64062 51.690624 332.64062 51.1125Q332.64062 50.315624 332.0 49.753124Q331.35938 49.175 330.26562 49.175Q329.21875 49.175 328.51562 49.76875Q327.8125 50.3625 327.5625 51.58125L325.03125 51.26875Q325.14062 49.534374 326.51562 48.315624Q327.90625 47.08125 330.15625 47.08125Q332.51562 47.08125 333.90625 48.315624Q335.3125 49.55 335.3125 51.190624Q335.3125 52.1125 334.79688 52.925Q334.28125 53.721874 332.60938 55.128124Q331.73438 55.846874 331.51562 56.284374Q331.3125 56.721874 331.32812 57.8625ZM328.84375 61.55L328.84375 58.8L331.59375 58.8L331.59375 61.55L328.84375 61.55Z" fill-rule="nonzero"/></svg>