<svg version="1.1" viewBox="0.0 0.0 600.0 371.0" fill="none" stroke="none" stroke-linecap="square" stroke-miterlimit="10" width="600" height="371" xmlns:xlink="http://www.w3.org/1999/xlink" xmlns="http://www.w3.org/2000/svg"><path fill="#ffffff" d="M0 0L600.0 0L600.0 371.0L0 371.0L0 0Z" fill-rule="nonzero"/><path fill="#00b3b3" d="M435.58334 200.66875C435.58334 223.79617 423.51938 246.12775 401.65784 263.46826L401.65784 243.13075C423.51938 225.79024 435.58334 203.45868 435.58334 180.33125Z" fill-rule="nonzero"/><path fill="#00ffff" d="M300.0 85.42292C353.30377 85.42292 401.66187 107.28599 423.585 141.29668C445.50815 175.30736 436.9282 215.15443 401.65784 243.13075L300.0 180.33125Z" fill-rule="nonzero"/><path fill="#b3b300" d="M167.81602 221.78784C165.55693 214.85944 164.41667 207.77533 164.41667 200.66875L164.41667 180.33125C164.41667 187.43784 165.55693 194.52193 167.81602 201.45035Z" fill-rule="nonzero"/><path fill="#ffff00" d="M167.81602 201.45035C158.6345 173.29155 168.27065 143.73846 193.99669 121.156876C219.72272 98.57528 258.73865 85.42292 300.0 85.42292L300.0 180.33125Z" fill-rule="nonzero"/><path fill="#b30000" d="M401.65784 263.46826C368.00253 290.1635 315.83395 301.42783 266.54382 292.64227C217.25365 283.8567 179.1341 256.49927 167.81602 221.78784L167.81602 201.45035C179.1341 236.16176 217.25365 263.5192 266.54382 272.30475C315.83395 281.09033 368.00253 269.82602 401.65784 243.13075Z" fill-rule="nonzero"/><path fill="#ff0000" d="M401.65784 243.13075C368.00253 269.82602 315.83395 281.09033 266.54382 272.30475C217.25365 263.5192 179.1341 236.16176 167.81602 201.45035L300.0 180.33125Z" fill-rule="nonzero"/><path fill="#000000" d="M364.0649 156.3261L365.28366 156.15422Q365.5024 157.2011 366.0024 157.66985Q366.51804 158.12297 367.2524 158.12297Q368.1274 158.12297 368.72116 157.52922Q369.3149 156.91985 369.3149 156.02922Q369.3149 155.18547 368.7524 154.6386Q368.20554 154.09172 367.3618 154.09172Q367.0024 154.09172 366.4868 154.21672L366.6274 153.1386Q366.7524 153.15422 366.8149 153.15422Q367.6118 153.15422 368.2368 152.74797Q368.8618 152.34172 368.8618 151.48235Q368.8618 150.81047 368.40866 150.37297Q367.95554 149.91985 367.22116 149.91985Q366.5024 149.91985 366.01804 150.37297Q365.5493 150.81047 365.40866 151.71672L364.1899 151.49797Q364.40866 150.2636 365.20554 149.59172Q366.0024 148.90422 367.1899 148.90422Q368.01804 148.90422 368.70554 149.2636Q369.39304 149.60735 369.7524 150.21672Q370.1274 150.8261 370.1274 151.5136Q370.1274 152.15422 369.78366 152.68547Q369.4399 153.21672 368.7524 153.54485Q369.64304 153.74797 370.1274 154.3886Q370.6274 155.02922 370.6274 156.0136Q370.6274 157.3261 369.65866 158.23235Q368.70554 159.1386 367.2524 159.1386Q365.9243 159.1386 365.0493 158.35735Q364.1899 157.5761 364.0649 156.3261ZM378.4399 151.40422L377.22116 151.49797Q377.0493 150.7636 376.7524 150.43547Q376.2524 149.91985 375.51804 149.91985Q374.9243 149.91985 374.4868 150.24797Q373.90866 150.66985 373.5649 151.48235Q373.2368 152.29485 373.22116 153.79485Q373.65866 153.12297 374.2993 152.79485Q374.95554 152.46672 375.65866 152.46672Q376.89304 152.46672 377.7524 153.37297Q378.6118 154.27922 378.6118 155.71672Q378.6118 156.65422 378.20554 157.46672Q377.7993 158.27922 377.08054 158.71672Q376.3774 159.1386 375.47116 159.1386Q373.9399 159.1386 372.97116 158.0136Q372.0024 156.87297 372.0024 154.27922Q372.0024 151.37297 373.0649 150.04485Q374.0024 148.90422 375.59616 148.90422Q376.78366 148.90422 377.53366 149.5761Q378.28366 150.23235 378.4399 151.40422ZM373.40866 155.71672Q373.40866 156.35735 373.6743 156.93547Q373.95554 157.5136 374.4399 157.8261Q374.9243 158.12297 375.45554 158.12297Q376.2368 158.12297 376.7993 157.49797Q377.3618 156.87297 377.3618 155.79485Q377.3618 154.74797 376.7993 154.15422Q376.2524 153.54485 375.40866 153.54485Q374.58054 153.54485 373.9868 154.15422Q373.40866 154.74797 373.40866 155.71672ZM380.7368 158.96672L380.7368 157.56047L382.14304 157.56047L382.14304 158.96672L380.7368 158.96672ZM384.0493 156.34172L385.34616 156.23235Q385.4868 157.16985 386.0024 157.65422Q386.53366 158.12297 387.26804 158.12297Q388.15866 158.12297 388.76804 157.4511Q389.39304 156.77922 389.39304 155.68547Q389.39304 154.62297 388.7993 154.0136Q388.20554 153.40422 387.2524 153.40422Q386.65866 153.40422 386.1743 153.68547Q385.70554 153.9511 385.4243 154.37297L384.26804 154.23235L385.2368 149.0761L390.22116 149.0761L390.22116 150.2636L386.22116 150.2636L385.6899 152.9511Q386.59616 152.3261 387.58054 152.3261Q388.89304 152.3261 389.78366 153.23235Q390.6899 154.1386 390.6899 155.5761Q390.6899 156.93547 389.90866 157.91985Q388.9399 159.1386 387.26804 159.1386Q385.90866 159.1386 385.03366 158.37297Q384.1743 157.60735 384.0493 156.34172ZM392.28366 151.35735Q392.28366 150.27922 392.8149 149.52922Q393.3618 148.77922 394.39304 148.77922Q395.33054 148.77922 395.9399 149.4511Q396.5649 150.12297 396.5649 151.41985Q396.5649 152.7011 395.9399 153.3886Q395.3149 154.0761 394.40866 154.0761Q393.5024 154.0761 392.89304 153.40422Q392.28366 152.71672 392.28366 151.35735ZM394.4243 149.62297Q393.97116 149.62297 393.65866 150.02922Q393.3618 150.41985 393.3618 151.46672Q393.3618 152.43547 393.65866 152.8261Q393.97116 153.21672 394.4243 153.21672Q394.89304 153.21672 395.1899 152.8261Q395.5024 152.43547 395.5024 151.37297Q395.5024 150.40422 395.1899 150.0136Q394.8774 149.62297 394.4243 149.62297ZM394.4243 159.34172L399.90866 148.77922L400.90866 148.77922L395.45554 159.34172L394.4243 159.34172ZM398.76804 156.60735Q398.76804 155.52922 399.2993 154.79485Q399.84616 154.04485 400.8774 154.04485Q401.8149 154.04485 402.4399 154.71672Q403.0649 155.3886 403.0649 156.68547Q403.0649 157.96672 402.4399 158.65422Q401.8149 159.34172 400.8774 159.34172Q399.97116 159.34172 399.3618 158.66985Q398.76804 157.98235 398.76804 156.60735ZM400.90866 154.8886Q400.4399 154.8886 400.14304 155.29485Q399.84616 155.68547 399.84616 156.73235Q399.84616 157.7011 400.14304 158.09172Q400.45554 158.48235 400.90866 158.48235Q401.3774 158.48235 401.6743 158.09172Q401.9868 157.7011 401.9868 156.6386Q401.9868 155.66985 401.6743 155.27922Q401.3774 154.8886 400.90866 154.8886Z" fill-rule="nonzero"/><path fill="#000000" d="M257.11545 247.23418L258.3342 247.0623Q258.55295 248.10918 259.05295 248.57793Q259.56857 249.03105 260.30295 249.03105Q261.17795 249.03105 261.7717 248.4373Q262.36545 247.82793 262.36545 246.9373Q262.36545 246.09355 261.80295 245.54668Q261.25607 244.9998 260.41232 244.9998Q260.05295 244.9998 259.53732 245.1248L259.67795 244.04668Q259.80295 244.0623 259.86545 244.0623Q260.66232 244.0623 261.28732 243.65605Q261.91232 243.2498 261.91232 242.39043Q261.91232 241.71855 261.4592 241.28105Q261.00607 240.82793 260.2717 240.82793Q259.55295 240.82793 259.06857 241.28105Q258.59982 241.71855 258.4592 242.6248L257.24045 242.40605Q257.4592 241.17168 258.25607 240.4998Q259.05295 239.8123 260.24045 239.8123Q261.06857 239.8123 261.75607 240.17168Q262.44357 240.51543 262.80295 241.1248Q263.17795 241.73418 263.17795 242.42168Q263.17795 243.0623 262.8342 243.59355Q262.49045 244.1248 261.80295 244.45293Q262.69357 244.65605 263.17795 245.29668Q263.67795 245.9373 263.67795 246.92168Q263.67795 248.23418 262.7092 249.14043Q261.75607 250.04668 260.30295 250.04668Q258.97482 250.04668 258.09982 249.26543Q257.24045 248.48418 257.11545 247.23418ZM269.05295 249.8748L269.05295 247.46855L264.69357 247.46855L264.69357 246.34355L269.2717 239.85918L270.2717 239.85918L270.2717 246.34355L271.63107 246.34355L271.63107 247.46855L270.2717 247.46855L270.2717 249.8748L269.05295 249.8748ZM269.05295 246.34355L269.05295 241.82793L265.91232 246.34355L269.05295 246.34355ZM273.78732 249.8748L273.78732 248.46855L275.19357 248.46855L275.19357 249.8748L273.78732 249.8748ZM277.28732 247.5623L278.47482 247.45293Q278.61545 248.28105 279.03732 248.65605Q279.47482 249.03105 280.13107 249.03105Q280.69357 249.03105 281.11545 248.78105Q281.55295 248.51543 281.81857 248.07793Q282.09982 247.64043 282.28732 246.90605Q282.47482 246.17168 282.47482 245.40605Q282.47482 245.32793 282.4592 245.15605Q282.09982 245.7498 281.4592 246.1248Q280.81857 246.48418 280.06857 246.48418Q278.81857 246.48418 277.9592 245.57793Q277.09982 244.67168 277.09982 243.20293Q277.09982 241.67168 277.99045 240.7498Q278.8967 239.8123 280.25607 239.8123Q281.22482 239.8123 282.03732 240.34355Q282.84982 240.85918 283.2717 241.84355Q283.69357 242.8123 283.69357 244.65605Q283.69357 246.57793 283.2717 247.71855Q282.86545 248.85918 282.03732 249.45293Q281.2092 250.04668 280.09982 250.04668Q278.92795 250.04668 278.17795 249.39043Q277.44357 248.73418 277.28732 247.5623ZM282.31857 243.14043Q282.31857 242.07793 281.75607 241.45293Q281.19357 240.82793 280.41232 240.82793Q279.5842 240.82793 278.97482 241.4998Q278.36545 242.17168 278.36545 243.23418Q278.36545 244.1873 278.94357 244.79668Q279.5217 245.39043 280.36545 245.39043Q281.22482 245.39043 281.7717 244.79668Q282.31857 244.1873 282.31857 243.14043ZM285.3342 242.26543Q285.3342 241.1873 285.86545 240.4373Q286.41232 239.6873 287.44357 239.6873Q288.38107 239.6873 288.99045 240.35918Q289.61545 241.03105 289.61545 242.32793Q289.61545 243.60918 288.99045 244.29668Q288.36545 244.98418 287.4592 244.98418Q286.55295 244.98418 285.94357 244.3123Q285.3342 243.6248 285.3342 242.26543ZM287.47482 240.53105Q287.0217 240.53105 286.7092 240.9373Q286.41232 241.32793 286.41232 242.3748Q286.41232 243.34355 286.7092 243.73418Q287.0217 244.1248 287.47482 244.1248Q287.94357 244.1248 288.24045 243.73418Q288.55295 243.34355 288.55295 242.28105Q288.55295 241.3123 288.24045 240.92168Q287.92795 240.53105 287.47482 240.53105ZM287.47482 250.2498L292.9592 239.6873L293.9592 239.6873L288.50607 250.2498L287.47482 250.2498ZM291.81857 247.51543Q291.81857 246.4373 292.34982 245.70293Q292.8967 244.95293 293.92795 244.95293Q294.86545 244.95293 295.49045 245.6248Q296.11545 246.29668 296.11545 247.59355Q296.11545 248.8748 295.49045 249.5623Q294.86545 250.2498 293.92795 250.2498Q293.0217 250.2498 292.41232 249.57793Q291.81857 248.89043 291.81857 247.51543ZM293.9592 245.79668Q293.49045 245.79668 293.19357 246.20293Q292.8967 246.59355 292.8967 247.64043Q292.8967 248.60918 293.19357 248.9998Q293.50607 249.39043 293.9592 249.39043Q294.42795 249.39043 294.72482 248.9998Q295.03732 248.60918 295.03732 247.54668Q295.03732 246.57793 294.72482 246.1873Q294.42795 245.79668 293.9592 245.79668Z" fill-rule="nonzero"/><path fill="#000000" d="M216.59787 144.81691L216.59787 146.00441L209.97287 146.00441Q209.95724 145.56691 210.1135 145.14503Q210.37912 144.47316 210.926 143.81691Q211.4885 143.16066 212.53537 142.30128Q214.176 140.95753 214.7385 140.17628Q215.31662 139.39503 215.31662 138.69191Q215.31662 137.95753 214.78537 137.45753Q214.26974 136.95753 213.44162 136.95753Q212.551 136.95753 212.00412 137.48878Q211.47287 138.02003 211.47287 138.97316L210.20724 138.83253Q210.33224 137.42628 211.176 136.69191Q212.03537 135.94191 213.45724 135.94191Q214.91037 135.94191 215.7385 136.73878Q216.58224 137.53566 216.58224 138.72316Q216.58224 139.33253 216.33224 139.91066Q216.09787 140.48878 215.51974 141.12941Q214.95724 141.77003 213.62912 142.89503Q212.51974 143.81691 212.20724 144.16066Q211.89474 144.48878 211.69162 144.81691L216.59787 144.81691ZM220.01974 140.56691Q219.25412 140.28566 218.87912 139.77003Q218.51974 139.25441 218.51974 138.52003Q218.51974 137.42628 219.301 136.69191Q220.09787 135.94191 221.39474 135.94191Q222.70724 135.94191 223.50412 136.70753Q224.31662 137.47316 224.31662 138.56691Q224.31662 139.25441 223.94162 139.77003Q223.58224 140.28566 222.83224 140.56691Q223.75412 140.86378 224.2385 141.53566Q224.72287 142.20753 224.72287 143.14503Q224.72287 144.42628 223.81662 145.30128Q222.91037 146.17628 221.426 146.17628Q219.94162 146.17628 219.01974 145.30128Q218.1135 144.41066 218.1135 143.09816Q218.1135 142.12941 218.6135 141.47316Q219.1135 140.80128 220.01974 140.56691ZM219.78537 138.48878Q219.78537 139.19191 220.2385 139.64503Q220.69162 140.09816 221.426 140.09816Q222.14474 140.09816 222.59787 139.66066Q223.051 139.20753 223.051 138.55128Q223.051 137.87941 222.58224 137.42628Q222.1135 136.95753 221.41037 136.95753Q220.70724 136.95753 220.2385 137.41066Q219.78537 137.84816 219.78537 138.48878ZM219.37912 143.11378Q219.37912 143.64503 219.62912 144.14503Q219.87912 144.62941 220.3635 144.89503Q220.8635 145.16066 221.44162 145.16066Q222.31662 145.16066 222.87912 144.59816Q223.45724 144.03566 223.45724 143.16066Q223.45724 142.27003 222.8635 141.69191Q222.28537 141.09816 221.39474 141.09816Q220.51974 141.09816 219.94162 141.67628Q219.37912 142.25441 219.37912 143.11378ZM226.81662 146.00441L226.81662 144.59816L228.22287 144.59816L228.22287 146.00441L226.81662 146.00441ZM236.51974 138.44191L235.301 138.53566Q235.12912 137.80128 234.83224 137.47316Q234.33224 136.95753 233.59787 136.95753Q233.00412 136.95753 232.56662 137.28566Q231.9885 137.70753 231.64474 138.52003Q231.31662 139.33253 231.301 140.83253Q231.7385 140.16066 232.37912 139.83253Q233.03537 139.50441 233.7385 139.50441Q234.97287 139.50441 235.83224 140.41066Q236.69162 141.31691 236.69162 142.75441Q236.69162 143.69191 236.28537 144.50441Q235.87912 145.31691 235.16037 145.75441Q234.45724 146.17628 233.551 146.17628Q232.01974 146.17628 231.051 145.05128Q230.08224 143.91066 230.08224 141.31691Q230.08224 138.41066 231.14474 137.08253Q232.08224 135.94191 233.676 135.94191Q234.8635 135.94191 235.6135 136.61378Q236.3635 137.27003 236.51974 138.44191ZM231.4885 142.75441Q231.4885 143.39503 231.75412 143.97316Q232.03537 144.55128 232.51974 144.86378Q233.00412 145.16066 233.53537 145.16066Q234.31662 145.16066 234.87912 144.53566Q235.44162 143.91066 235.44162 142.83253Q235.44162 141.78566 234.87912 141.19191Q234.33224 140.58253 233.4885 140.58253Q232.66037 140.58253 232.06662 141.19191Q231.4885 141.78566 231.4885 142.75441ZM238.3635 138.39503Q238.3635 137.31691 238.89474 136.56691Q239.44162 135.81691 240.47287 135.81691Q241.41037 135.81691 242.01974 136.48878Q242.64474 137.16066 242.64474 138.45753Q242.64474 139.73878 242.01974 140.42628Q241.39474 141.11378 240.4885 141.11378Q239.58224 141.11378 238.97287 140.44191Q238.3635 139.75441 238.3635 138.39503ZM240.50412 136.66066Q240.051 136.66066 239.7385 137.06691Q239.44162 137.45753 239.44162 138.50441Q239.44162 139.47316 239.7385 139.86378Q240.051 140.25441 240.50412 140.25441Q240.97287 140.25441 241.26974 139.86378Q241.58224 139.47316 241.58224 138.41066Q241.58224 137.44191 241.26974 137.05128Q240.95724 136.66066 240.50412 136.66066ZM240.50412 146.37941L245.9885 135.81691L246.9885 135.81691L241.53537 146.37941L240.50412 146.37941ZM244.84787 143.64503Q244.84787 142.56691 245.37912 141.83253Q245.926 141.08253 246.95724 141.08253Q247.89474 141.08253 248.51974 141.75441Q249.14474 142.42628 249.14474 143.72316Q249.14474 145.00441 248.51974 145.69191Q247.89474 146.37941 246.95724 146.37941Q246.051 146.37941 245.44162 145.70753Q244.84787 145.02003 244.84787 143.64503ZM246.9885 141.92628Q246.51974 141.92628 246.22287 142.33253Q245.926 142.72316 245.926 143.77003Q245.926 144.73878 246.22287 145.12941Q246.53537 145.52003 246.9885 145.52003Q247.45724 145.52003 247.75412 145.12941Q248.06662 144.73878 248.06662 143.67628Q248.06662 142.70753 247.75412 142.31691Q247.45724 141.92628 246.9885 141.92628Z" fill-rule="nonzero"/><path fill="#00ffff" d="M227.0 345.45C227.0 348.7637 224.3137 351.45 221.0 351.45C217.6863 351.45 215.0 348.7637 215.0 345.45C215.0 342.1363 217.6863 339.45 221.0 339.45C224.3137 339.45 227.0 342.1363 227.0 345.45Z" fill-rule="nonzero"/><path fill="#1a1a1a" d="M238.34375 349.45L238.34375 345.8094L235.03125 340.85626L236.42188 340.85626L238.10938 343.45Q238.57812 344.16876 238.98438 344.90314Q239.375 344.23126 239.92188 343.3875L241.59375 340.85626L242.90625 340.85626L239.48438 345.8094L239.48438 349.45L238.34375 349.45ZM247.04688 347.45L248.14062 347.575Q247.89062 348.52814 247.1875 349.0594Q246.48438 349.59064 245.40625 349.59064Q244.04688 349.59064 243.23438 348.7469Q242.4375 347.90314 242.4375 346.3875Q242.4375 344.825 243.25 343.96564Q244.0625 343.09064 245.34375 343.09064Q246.59375 343.09064 247.375 343.9344Q248.17188 344.77814 248.17188 346.325Q248.17188 346.41876 248.17188 346.60626L243.53125 346.60626Q243.59375 347.6375 244.10938 348.1844Q244.625 348.71564 245.40625 348.71564Q245.98438 348.71564 246.39062 348.41876Q246.8125 348.10626 247.04688 347.45ZM243.59375 345.7469L247.0625 345.7469Q247.0 344.95 246.67188 344.5594Q246.15625 343.95 245.35938 343.95Q244.625 343.95 244.125 344.4344Q243.64062 344.91876 243.59375 345.7469ZM249.375 347.59064L250.40625 347.4344Q250.5 348.0594 250.89062 348.3875Q251.29688 348.71564 252.03125 348.71564Q252.75 348.71564 253.09375 348.4344Q253.45312 348.1375 253.45312 347.73126Q253.45312 347.3719 253.14062 347.16876Q252.92188 347.02814 252.0625 346.8094Q250.90625 346.5125 250.45312 346.3094Q250.01562 346.09064 249.78125 345.71564Q249.54688 345.34064 249.54688 344.8719Q249.54688 344.46564 249.73438 344.10626Q249.92188 343.7469 250.25 343.5125Q250.5 343.34064 250.92188 343.21564Q251.34375 343.09064 251.84375 343.09064Q252.5625 343.09064 253.10938 343.3094Q253.67188 343.5125 253.9375 343.8719Q254.20312 344.23126 254.29688 344.825L253.26562 344.96564Q253.20312 344.4969 252.85938 344.23126Q252.53125 343.95 251.90625 343.95Q251.1875 343.95 250.875 344.2Q250.5625 344.4344 250.5625 344.7625Q250.5625 344.96564 250.6875 345.1219Q250.82812 345.29376 251.09375 345.40314Q251.25 345.46564 252.03125 345.66876Q253.15625 345.98126 253.59375 346.16876Q254.03125 346.35626 254.28125 346.71564Q254.53125 347.075 254.53125 347.6219Q254.53125 348.15314 254.21875 348.6219Q253.92188 349.075 253.34375 349.34064Q252.76562 349.59064 252.03125 349.59064Q250.8125 349.59064 250.17188 349.09064Q249.54688 348.575 249.375 347.59064Z" fill-rule="nonzero"/><path fill="#ff0000" d="M284.0 345.45C284.0 348.7637 281.31372 351.45 278.0 351.45C274.68628 351.45 272.0 348.7637 272.0 345.45C272.0 342.1363 274.68628 339.45 278.0 339.45C281.31372 339.45 284.0 342.1363 284.0 345.45Z" fill-rule="nonzero"/><path fill="#1a1a1a" d="M292.92188 349.45L292.92188 340.85626L294.07812 340.85626L298.59375 347.60626L298.59375 340.85626L299.6875 340.85626L299.6875 349.45L298.51562 349.45L294.0 342.7L294.0 349.45L292.92188 349.45ZM301.40625 346.34064Q301.40625 344.60626 302.35938 343.77814Q303.15625 343.09064 304.3125 343.09064Q305.59375 343.09064 306.40625 343.9344Q307.23438 344.7625 307.23438 346.2469Q307.23438 347.45 306.875 348.1375Q306.51562 348.825 305.8125 349.21564Q305.125 349.59064 304.3125 349.59064Q303.01562 349.59064 302.20312 348.7625Q301.40625 347.91876 301.40625 346.34064ZM302.48438 346.34064Q302.48438 347.52814 303.0 348.1219Q303.53125 348.71564 304.3125 348.71564Q305.10938 348.71564 305.625 348.1219Q306.14062 347.52814 306.14062 346.3094Q306.14062 345.15314 305.60938 344.5594Q305.09375 343.96564 304.3125 343.96564Q303.53125 343.96564 303.0 344.5594Q302.48438 345.1375 302.48438 346.34064Z" fill-rule="nonzero"/><path fill="#ffff00" d="M336.0 345.45C336.0 348.7637 333.31372 351.45 330.0 351.45C326.68628 351.45 324.0 348.7637 324.0 345.45C324.0 342.1363 326.68628 339.45 330.0 339.45C333.31372 339.45 336.0 342.1363 336.0 345.45Z" fill-rule="nonzero"/><path fill="#1a1a1a" d="M350.5625 340.85626L351.70312 340.85626L351.70312 345.825Q351.70312 347.1219 351.40625 347.8875Q351.10938 348.6375 350.34375 349.1219Q349.57812 349.59064 348.34375 349.59064Q347.14062 349.59064 346.35938 349.1844Q345.59375 348.7625 345.26562 347.98126Q344.9375 347.1844 344.9375 345.825L344.9375 340.85626L346.07812 340.85626L346.07812 345.8094Q346.07812 346.9344 346.28125 347.46564Q346.5 347.9969 347.0 348.29376Q347.51562 348.575 348.25 348.575Q349.5 348.575 350.03125 348.0125Q350.5625 347.4344 350.5625 345.8094L350.5625 340.85626ZM353.79688 349.45L353.79688 343.23126L354.73438 343.23126L354.73438 344.10626Q355.42188 343.09064 356.71875 343.09064Q357.28125 343.09064 357.75 343.29376Q358.23438 343.4969 358.46875 343.825Q358.70312 344.15314 358.79688 344.59064Q358.84375 344.8875 358.84375 345.6219L358.84375 349.45L357.79688 349.45L357.79688 345.66876Q357.79688 345.0125 357.67188 344.7Q357.54688 344.3875 357.23438 344.2Q356.92188 343.9969 356.5 343.9969Q355.82812 343.9969 355.32812 344.4344Q354.84375 344.85626 354.84375 346.04376L354.84375 349.45L353.79688 349.45ZM360.375 347.59064L361.40625 347.4344Q361.5 348.0594 361.89062 348.3875Q362.29688 348.71564 363.03125 348.71564Q363.75 348.71564 364.09375 348.4344Q364.45312 348.1375 364.45312 347.73126Q364.45312 347.3719 364.14062 347.16876Q363.92188 347.02814 363.0625 346.8094Q361.90625 346.5125 361.45312 346.3094Q361.01562 346.09064 360.78125 345.71564Q360.54688 345.34064 360.54688 344.8719Q360.54688 344.46564 360.73438 344.10626Q360.92188 343.7469 361.25 343.5125Q361.5 343.34064 361.92188 343.21564Q362.34375 343.09064 362.84375 343.09064Q363.5625 343.09064 364.10938 343.3094Q364.67188 343.5125 364.9375 343.8719Q365.20312 344.23126 365.29688 344.825L364.26562 344.96564Q364.20312 344.4969 363.85938 344.23126Q363.53125 343.95 362.90625 343.95Q362.1875 343.95 361.875 344.2Q361.5625 344.4344 361.5625 344.7625Q361.5625 344.96564 361.6875 345.1219Q361.82812 345.29376 362.09375 345.40314Q362.25 345.46564 363.03125 345.66876Q364.15625 345.98126 364.59375 346.16876Q365.03125 346.35626 365.28125 346.71564Q365.53125 347.075 365.53125 347.6219Q365.53125 348.15314 365.21875 348.6219Q364.92188 349.075 364.34375 349.34064Q363.76562 349.59064 363.03125 349.59064Q361.8125 349.59064 361.17188 349.09064Q360.54688 348.575 360.375 347.59064ZM371.875 349.45L371.875 348.52814Q371.14062 349.59064 369.89062 349.59064Q369.34375 349.59064 368.85938 349.3875Q368.39062 349.16876 368.15625 348.85626Q367.92188 348.52814 367.82812 348.0594Q367.76562 347.7625 367.76562 347.075L367.76562 343.23126L368.82812 343.23126L368.82812 346.6844Q368.82812 347.4969 368.89062 347.79376Q368.98438 348.2 369.29688 348.45Q369.625 348.6844 370.10938 348.6844Q370.57812 348.6844 370.98438 348.45Q371.40625 348.2 371.57812 347.77814Q371.76562 347.35626 371.76562 346.5594L371.76562 343.23126L372.8125 343.23126L372.8125 349.45L371.875 349.45ZM374.78125 349.45L374.78125 343.23126L375.73438 343.23126L375.73438 344.16876Q376.09375 343.5125 376.39062 343.3094Q376.70312 343.09064 377.07812 343.09064Q377.60938 343.09064 378.15625 343.41876L377.79688 344.40314Q377.40625 344.16876 377.03125 344.16876Q376.67188 344.16876 376.39062 344.3875Q376.125 344.59064 376.01562 344.96564Q375.82812 345.52814 375.82812 346.1844L375.82812 349.45L374.78125 349.45ZM383.04688 347.45L384.14062 347.575Q383.89062 348.52814 383.1875 349.0594Q382.48438 349.59064 381.40625 349.59064Q380.04688 349.59064 379.23438 348.7469Q378.4375 347.90314 378.4375 346.3875Q378.4375 344.825 379.25 343.96564Q380.0625 343.09064 381.34375 343.09064Q382.59375 343.09064 383.375 343.9344Q384.17188 344.77814 384.17188 346.325Q384.17188 346.41876 384.17188 346.60626L379.53125 346.60626Q379.59375 347.6375 380.10938 348.1844Q380.625 348.71564 381.40625 348.71564Q381.98438 348.71564 382.39062 348.41876Q382.8125 348.10626 383.04688 347.45ZM379.59375 345.7469L383.0625 345.7469Q383.0 344.95 382.67188 344.5594Q382.15625 343.95 381.35938 343.95Q380.625 343.95 380.125 344.4344Q379.64062 344.91876 379.59375 345.7469Z" fill-rule="nonzero"/><path fill="#000000" d="M57.453125 23.2375L62.734375 23.2375Q64.515625 23.2375 65.453125 23.503124Q66.71875 23.878124 67.609375 24.83125Q68.515625 25.76875 68.984375 27.14375Q69.453125 28.51875 69.453125 30.534374Q69.453125 32.3 69.015625 33.58125Q68.46875 35.14375 67.46875 36.096874Q66.71875 36.83125 65.4375 37.253124Q64.484375 37.55 62.890625 37.55L57.453125 37.55L57.453125 23.2375ZM60.34375 25.659374L60.34375 35.14375L62.5 35.14375Q63.703125 35.14375 64.25 35.003124Q64.953125 34.83125 65.40625 34.409374Q65.875 33.9875 66.15625 33.034374Q66.453125 32.065624 66.453125 30.39375Q66.453125 28.7375 66.15625 27.846874Q65.875 26.95625 65.34375 26.471874Q64.8125 25.971874 64.015625 25.784374Q63.40625 25.659374 61.640625 25.659374L60.34375 25.659374ZM70.796875 32.221874Q70.796875 30.846874 71.46875 29.565624Q72.15625 28.284374 73.390625 27.6125Q74.625 26.940624 76.140625 26.940624Q78.5 26.940624 80.0 28.471874Q81.5 30.003124 81.5 32.33125Q81.5 34.690624 79.984375 36.2375Q78.46875 37.784374 76.15625 37.784374Q74.734375 37.784374 73.4375 37.14375Q72.15625 36.4875 71.46875 35.253124Q70.796875 34.003124 70.796875 32.221874ZM73.609375 32.3625Q73.609375 33.909374 74.34375 34.7375Q75.078125 35.55 76.15625 35.55Q77.234375 35.55 77.953125 34.7375Q78.6875 33.909374 78.6875 32.346874Q78.6875 30.815624 77.953125 30.003124Q77.234375 29.175 76.15625 29.175Q75.078125 29.175 74.34375 30.003124Q73.609375 30.815624 73.609375 32.3625ZM88.140625 27.175L91.0625 27.175L93.53125 34.534374L95.953125 27.175L98.796875 27.175L95.140625 37.159374L94.484375 38.971874Q94.125 39.878124 93.796875 40.346874Q93.46875 40.83125 93.046875 41.128124Q92.625 41.425 92.0 41.58125Q91.375 41.753124 90.59375 41.753124Q89.8125 41.753124 89.046875 41.596874L88.796875 39.440624Q89.453125 39.565624 89.96875 39.565624Q90.921875 39.565624 91.375 39.003124Q91.84375 38.45625 92.078125 37.58125L88.140625 27.175ZM99.796875 32.221874Q99.796875 30.846874 100.46875 29.565624Q101.15625 28.284374 102.390625 27.6125Q103.625 26.940624 105.140625 26.940624Q107.5 26.940624 109.0 28.471874Q110.5 30.003124 110.5 32.33125Q110.5 34.690624 108.984375 36.2375Q107.46875 37.784374 105.15625 37.784374Q103.734375 37.784374 102.4375 37.14375Q101.15625 36.4875 100.46875 35.253124Q99.796875 34.003124 99.796875 32.221874ZM102.609375 32.3625Q102.609375 33.909374 103.34375 34.7375Q104.078125 35.55 105.15625 35.55Q106.234375 35.55 106.953125 34.7375Q107.6875 33.909374 107.6875 32.346874Q107.6875 30.815624 106.953125 30.003124Q106.234375 29.175 105.15625 29.175Q104.078125 29.175 103.34375 30.003124Q102.609375 30.815624 102.609375 32.3625ZM119.265625 37.55L119.265625 36.003124Q118.703125 36.83125 117.765625 37.315624Q116.84375 37.784374 115.828125 37.784374Q114.78125 37.784374 113.953125 37.33125Q113.125 36.8625 112.75 36.034374Q112.375 35.20625 112.375 33.7375L112.375 27.175L115.125 27.175L115.125 31.940624Q115.125 34.128124 115.265625 34.628124Q115.421875 35.1125 115.8125 35.409374Q116.21875 35.690624 116.84375 35.690624Q117.546875 35.690624 118.09375 35.315624Q118.65625 34.925 118.859375 34.3625Q119.0625 33.784374 119.0625 31.55L119.0625 27.175L121.8125 27.175L121.8125 37.55L119.265625 37.55ZM129.23438 27.175L130.76562 27.175L130.76562 26.39375Q130.76562 25.08125 131.03125 24.440624Q131.3125 23.8 132.0625 23.39375Q132.8125 22.9875 133.95312 22.9875Q135.125 22.9875 136.25 23.346874L135.875 25.253124Q135.21875 25.096874 134.60938 25.096874Q134.01562 25.096874 133.75 25.378124Q133.5 25.659374 133.5 26.440624L133.5 27.175L135.54688 27.175L135.54688 29.33125L133.5 29.33125L133.5 37.55L130.76562 37.55L130.76562 29.33125L129.23438 29.33125L129.23438 27.175ZM137.4375 25.76875L137.4375 23.2375L140.1875 23.2375L140.1875 25.76875L137.4375 25.76875ZM137.4375 37.55L137.4375 27.175L140.1875 27.175L140.1875 37.55L137.4375 37.55ZM151.875 37.55L149.125 37.55L149.125 32.253124Q149.125 30.58125 148.95312 30.096874Q148.78125 29.596874 148.375 29.33125Q147.98438 29.05 147.42188 29.05Q146.71875 29.05 146.14062 29.440624Q145.57812 29.83125 145.35938 30.471874Q145.15625 31.1125 145.15625 32.846874L145.15625 37.55L142.42188 37.55L142.42188 27.175L144.96875 27.175L144.96875 28.70625Q146.32812 26.940624 148.39062 26.940624Q149.29688 26.940624 150.04688 27.26875Q150.79688 27.596874 151.17188 28.1125Q151.5625 28.6125 151.71875 29.26875Q151.875 29.909374 151.875 31.096874L151.875 37.55ZM163.95312 37.55L161.40625 37.55L161.40625 36.01875Q160.76562 36.909374 159.89062 37.346874Q159.03125 37.784374 158.15625 37.784374Q156.375 37.784374 155.09375 36.346874Q153.82812 34.909374 153.82812 32.33125Q153.82812 29.690624 155.0625 28.315624Q156.29688 26.940624 158.20312 26.940624Q159.9375 26.940624 161.20312 28.39375L161.20312 23.2375L163.95312 23.2375L163.95312 37.55ZM156.625 32.14375Q156.625 33.8 157.07812 34.534374Q157.75 35.6125 158.9375 35.6125Q159.89062 35.6125 160.54688 34.815624Q161.21875 34.003124 161.21875 32.409374Q161.21875 30.6125 160.5625 29.83125Q159.92188 29.05 158.92188 29.05Q157.9375 29.05 157.28125 29.83125Q156.625 30.596874 156.625 32.14375ZM174.375 37.55L171.09375 27.175L173.75 27.175L175.70312 33.971874L177.48438 27.175L180.125 27.175L181.85938 33.971874L183.84375 27.175L186.54688 27.175L183.21875 37.55L180.57812 37.55L178.79688 30.878124L177.03125 37.55L174.375 37.55ZM190.0625 37.55L187.3125 37.55L187.3125 27.175L189.875 27.175L189.875 28.659374Q190.51562 27.6125 191.03125 27.284374Q191.5625 26.940624 192.23438 26.940624Q193.17188 26.940624 194.03125 27.45625L193.1875 29.846874Q192.5 29.409374 191.90625 29.409374Q191.32812 29.409374 190.92188 29.721874Q190.51562 30.034374 190.28125 30.878124Q190.0625 31.70625 190.0625 34.346874L190.0625 37.55ZM195.4375 25.76875L195.4375 23.2375L198.1875 23.2375L198.1875 25.76875L195.4375 25.76875ZM195.4375 37.55L195.4375 27.175L198.1875 27.175L198.1875 37.55L195.4375 37.55ZM205.1875 27.175L205.1875 29.3625L203.3125 29.3625L203.3125 33.55Q203.3125 34.815624 203.35938 35.034374Q203.42188 35.2375 203.60938 35.378124Q203.8125 35.503124 204.07812 35.503124Q204.45312 35.503124 205.1875 35.2375L205.42188 37.378124Q204.45312 37.784374 203.25 37.784374Q202.5 37.784374 201.90625 37.534374Q201.3125 37.284374 201.03125 36.89375Q200.76562 36.4875 200.65625 35.815624Q200.5625 35.346874 200.5625 33.89375L200.5625 29.3625L199.29688 29.3625L199.29688 27.175L200.5625 27.175L200.5625 25.1125L203.3125 23.51875L203.3125 27.175L205.1875 27.175ZM207.4375 25.76875L207.4375 23.2375L210.1875 23.2375L210.1875 25.76875L207.4375 25.76875ZM207.4375 37.55L207.4375 27.175L210.1875 27.175L210.1875 37.55L207.4375 37.55ZM221.875 37.55L219.125 37.55L219.125 32.253124Q219.125 30.58125 218.95312 30.096874Q218.78125 29.596874 218.375 29.33125Q217.98438 29.05 217.42188 29.05Q216.71875 29.05 216.14062 29.440624Q215.57812 29.83125 215.35938 30.471874Q215.15625 31.1125 215.15625 32.846874L215.15625 37.55L212.42188 37.55L212.42188 27.175L214.96875 27.175L214.96875 28.70625Q216.32812 26.940624 218.39062 26.940624Q219.29688 26.940624 220.04688 27.26875Q220.79688 27.596874 221.17188 28.1125Q221.5625 28.6125 221.71875 29.26875Q221.875 29.909374 221.875 31.096874L221.875 37.55ZM224.1875 38.2375L227.3125 38.6125Q227.39062 39.159374 227.67188 39.3625Q228.0625 39.659374 228.90625 39.659374Q229.98438 39.659374 230.51562 39.33125Q230.875 39.128124 231.0625 38.64375Q231.1875 38.3 231.1875 37.378124L231.1875 35.8625Q229.96875 37.55 228.09375 37.55Q226.0 37.55 224.78125 35.784374Q223.82812 34.378124 223.82812 32.3Q223.82812 29.690624 225.07812 28.315624Q226.32812 26.940624 228.20312 26.940624Q230.125 26.940624 231.375 28.628124L231.375 27.175L233.9375 27.175L233.9375 36.4875Q233.9375 38.315624 233.625 39.221874Q233.32812 40.14375 232.78125 40.659374Q232.23438 41.175 231.3125 41.45625Q230.40625 41.753124 229.01562 41.753124Q226.375 41.753124 225.26562 40.846874Q224.17188 39.95625 224.17188 38.565624Q224.17188 38.425 224.1875 38.2375ZM226.64062 32.14375Q226.64062 33.8 227.26562 34.565624Q227.90625 35.33125 228.84375 35.33125Q229.85938 35.33125 230.54688 34.55Q231.25 33.753124 231.25 32.221874Q231.25 30.6125 230.57812 29.83125Q229.92188 29.05 228.90625 29.05Q227.90625 29.05 227.26562 29.815624Q226.64062 30.58125 226.64062 32.14375ZM249.26562 37.55L249.26562 36.003124Q248.70312 36.83125 247.76562 37.315624Q246.84375 37.784374 245.82812 37.784374Q244.78125 37.784374 243.95312 37.33125Q243.125 36.8625 242.75 36.034374Q242.375 35.20625 242.375 33.7375L242.375 27.175L245.125 27.175L245.125 31.940624Q245.125 34.128124 245.26562 34.628124Q245.42188 35.1125 245.8125 35.409374Q246.21875 35.690624 246.84375 35.690624Q247.54688 35.690624 248.09375 35.315624Q248.65625 34.925 248.85938 34.3625Q249.0625 33.784374 249.0625 31.55L249.0625 27.175L251.8125 27.175L251.8125 37.55L249.26562 37.55ZM253.46875 34.596874L256.21875 34.175Q256.40625 34.971874 256.9375 35.39375Q257.46875 35.8 258.4375 35.8Q259.5 35.8 260.04688 35.409374Q260.40625 35.14375 260.40625 34.675Q260.40625 34.3625 260.20312 34.159374Q260.0 33.971874 259.29688 33.8Q255.96875 33.065624 255.07812 32.45625Q253.84375 31.628124 253.84375 30.128124Q253.84375 28.784374 254.90625 27.8625Q255.98438 26.940624 258.21875 26.940624Q260.34375 26.940624 261.375 27.64375Q262.42188 28.33125 262.8125 29.690624L260.21875 30.159374Q260.04688 29.565624 259.57812 29.2375Q259.125 28.909374 258.26562 28.909374Q257.1875 28.909374 256.71875 29.221874Q256.40625 29.440624 256.40625 29.76875Q256.40625 30.065624 256.67188 30.26875Q257.04688 30.55 259.23438 31.05Q261.42188 31.55 262.29688 32.26875Q263.15625 33.003124 263.15625 34.3Q263.15625 35.7375 261.96875 36.76875Q260.78125 37.784374 258.4375 37.784374Q256.32812 37.784374 255.07812 36.925Q253.84375 36.065624 253.46875 34.596874ZM265.4375 25.76875L265.4375 23.2375L268.1875 23.2375L268.1875 25.76875L265.4375 25.76875ZM265.4375 37.55L265.4375 27.175L268.1875 27.175L268.1875 37.55L265.4375 37.55ZM279.875 37.55L277.125 37.55L277.125 32.253124Q277.125 30.58125 276.95312 30.096874Q276.78125 29.596874 276.375 29.33125Q275.98438 29.05 275.42188 29.05Q274.71875 29.05 274.14062 29.440624Q273.57812 29.83125 273.35938 30.471874Q273.15625 31.1125 273.15625 32.846874L273.15625 37.55L270.42188 37.55L270.42188 27.175L272.96875 27.175L272.96875 28.70625Q274.32812 26.940624 276.39062 26.940624Q277.29688 26.940624 278.04688 27.26875Q278.79688 27.596874 279.17188 28.1125Q279.5625 28.6125 279.71875 29.26875Q279.875 29.909374 279.875 31.096874L279.875 37.55ZM282.1875 38.2375L285.3125 38.6125Q285.39062 39.159374 285.67188 39.3625Q286.0625 39.659374 286.90625 39.659374Q287.98438 39.659374 288.51562 39.33125Q288.875 39.128124 289.0625 38.64375Q289.1875 38.3 289.1875 37.378124L289.1875 35.8625Q287.96875 37.55 286.09375 37.55Q284.0 37.55 282.78125 35.784374Q281.82812 34.378124 281.82812 32.3Q281.82812 29.690624 283.07812 28.315624Q284.32812 26.940624 286.20312 26.940624Q288.125 26.940624 289.375 28.628124L289.375 27.175L291.9375 27.175L291.9375 36.4875Q291.9375 38.315624 291.625 39.221874Q291.32812 40.14375 290.78125 40.659374Q290.23438 41.175 289.3125 41.45625Q288.40625 41.753124 287.01562 41.753124Q284.375 41.753124 283.26562 40.846874Q282.17188 39.95625 282.17188 38.565624Q282.17188 38.425 282.1875 38.2375ZM284.64062 32.14375Q284.64062 33.8 285.26562 34.565624Q285.90625 35.33125 286.84375 35.33125Q287.85938 35.33125 288.54688 34.55Q289.25 33.753124 289.25 32.221874Q289.25 30.6125 288.57812 29.83125Q287.92188 29.05 286.90625 29.05Q285.90625 29.05 285.26562 29.815624Q284.64062 30.58125 284.64062 32.14375ZM313.35938 37.55L310.21875 37.55L308.96875 34.3L303.25 34.3L302.0625 37.55L299.0 37.55L304.57812 23.2375L307.64062 23.2375L313.35938 37.55ZM308.04688 31.878124L306.07812 26.565624L304.14062 31.878124L308.04688 31.878124ZM316.0625 37.55L313.3125 37.55L313.3125 27.175L315.875 27.175L315.875 28.659374Q316.51562 27.6125 317.03125 27.284374Q317.5625 26.940624 318.23438 26.940624Q319.17188 26.940624 320.03125 27.45625L319.1875 29.846874Q318.5 29.409374 317.90625 29.409374Q317.32812 29.409374 316.92188 29.721874Q316.51562 30.034374 316.28125 30.878124Q316.0625 31.70625 316.0625 34.346874L316.0625 37.55ZM323.48438 30.346874L321.0 29.89375Q321.42188 28.39375 322.4375 27.675Q323.46875 26.940624 325.48438 26.940624Q327.32812 26.940624 328.21875 27.378124Q329.125 27.815624 329.48438 28.4875Q329.85938 29.14375 329.85938 30.940624L329.82812 34.14375Q329.82812 35.503124 329.95312 36.159374Q330.09375 36.8 330.45312 37.55L327.73438 37.55Q327.625 37.26875 327.46875 36.7375Q327.40625 36.4875 327.375 36.409374Q326.67188 37.096874 325.85938 37.440624Q325.0625 37.784374 324.15625 37.784374Q322.5625 37.784374 321.64062 36.925Q320.71875 36.05 320.71875 34.721874Q320.71875 33.83125 321.125 33.14375Q321.54688 32.45625 322.29688 32.096874Q323.0625 31.721874 324.5 31.45625Q326.42188 31.096874 327.15625 30.784374L327.15625 30.503124Q327.15625 29.721874 326.76562 29.39375Q326.375 29.05 325.29688 29.05Q324.5625 29.05 324.14062 29.33125Q323.73438 29.6125 323.48438 30.346874ZM327.15625 32.565624Q326.625 32.7375 325.48438 32.9875Q324.34375 33.2375 324.0 33.471874Q323.45312 33.846874 323.45312 34.440624Q323.45312 35.003124 323.875 35.425Q324.3125 35.846874 324.98438 35.846874Q325.71875 35.846874 326.39062 35.3625Q326.89062 34.9875 327.04688 34.45625Q327.15625 34.096874 327.15625 33.1125L327.15625 32.565624ZM332.3125 37.55L332.3125 23.2375L335.0625 23.2375L335.0625 28.39375Q336.32812 26.940624 338.07812 26.940624Q339.96875 26.940624 341.20312 28.315624Q342.45312 29.690624 342.45312 32.253124Q342.45312 34.909374 341.1875 36.346874Q339.92188 37.784374 338.10938 37.784374Q337.21875 37.784374 336.35938 37.346874Q335.5 36.89375 334.875 36.01875L334.875 37.55L332.3125 37.55ZM335.04688 32.14375Q335.04688 33.753124 335.54688 34.51875Q336.26562 35.6125 337.45312 35.6125Q338.35938 35.6125 339.0 34.846874Q339.64062 34.065624 339.64062 32.39375Q339.64062 30.6125 338.98438 29.83125Q338.34375 29.05 337.34375 29.05Q336.35938 29.05 335.70312 29.815624Q335.04688 30.58125 335.04688 32.14375ZM344.4375 25.76875L344.4375 23.2375L347.1875 23.2375L347.1875 25.76875L344.4375 25.76875ZM344.4375 37.55L344.4375 27.175L347.1875 27.175L347.1875 37.55L344.4375 37.55ZM358.48438 30.2375L355.78125 30.7375Q355.64062 29.925 355.15625 29.51875Q354.67188 29.096874 353.90625 29.096874Q352.875 29.096874 352.26562 29.815624Q351.65625 30.51875 351.65625 32.175Q351.65625 34.01875 352.26562 34.784374Q352.89062 35.55 353.9375 35.55Q354.71875 35.55 355.21875 35.1125Q355.71875 34.659374 355.92188 33.58125L358.60938 34.034374Q358.20312 35.89375 357.0 36.846874Q355.8125 37.784374 353.8125 37.784374Q351.53125 37.784374 350.17188 36.346874Q348.82812 34.909374 348.82812 32.378124Q348.82812 29.8 350.1875 28.378124Q351.54688 26.940624 353.85938 26.940624Q355.75 26.940624 356.85938 27.76875Q357.98438 28.58125 358.48438 30.2375ZM365.46875 34.596874L368.21875 34.175Q368.40625 34.971874 368.9375 35.39375Q369.46875 35.8 370.4375 35.8Q371.5 35.8 372.04688 35.409374Q372.40625 35.14375 372.40625 34.675Q372.40625 34.3625 372.20312 34.159374Q372.0 33.971874 371.29688 33.8Q367.96875 33.065624 367.07812 32.45625Q365.84375 31.628124 365.84375 30.128124Q365.84375 28.784374 366.90625 27.8625Q367.98438 26.940624 370.21875 26.940624Q372.34375 26.940624 373.375 27.64375Q374.42188 28.33125 374.8125 29.690624L372.21875 30.159374Q372.04688 29.565624 371.57812 29.2375Q371.125 28.909374 370.26562 28.909374Q369.1875 28.909374 368.71875 29.221874Q368.40625 29.440624 368.40625 29.76875Q368.40625 30.065624 368.67188 30.26875Q369.04688 30.55 371.23438 31.05Q373.42188 31.55 374.29688 32.26875Q375.15625 33.003124 375.15625 34.3Q375.15625 35.7375 373.96875 36.76875Q372.78125 37.784374 370.4375 37.784374Q368.32812 37.784374 367.07812 36.925Q365.84375 36.065624 365.46875 34.596874ZM384.26562 37.55L384.26562 36.003124Q383.70312 36.83125 382.76562 37.315624Q381.84375 37.784374 380.82812 37.784374Q379.78125 37.784374 378.95312 37.33125Q378.125 36.8625 377.75 36.034374Q377.375 35.20625 377.375 33.7375L377.375 27.175L380.125 27.175L380.125 31.940624Q380.125 34.128124 380.26562 34.628124Q380.42188 35.1125 380.8125 35.409374Q381.21875 35.690624 381.84375 35.690624Q382.54688 35.690624 383.09375 35.315624Q383.65625 34.925 383.85938 34.3625Q384.0625 33.784374 384.0625 31.55L384.0625 27.175L386.8125 27.175L386.8125 37.55L384.26562 37.55ZM389.4375 25.76875L389.4375 23.2375L392.1875 23.2375L392.1875 25.76875L389.4375 25.76875ZM389.4375 37.55L389.4375 27.175L392.1875 27.175L392.1875 37.55L389.4375 37.55ZM399.1875 27.175L399.1875 29.3625L397.3125 29.3625L397.3125 33.55Q397.3125 34.815624 397.35938 35.034374Q397.42188 35.2375 397.60938 35.378124Q397.8125 35.503124 398.07812 35.503124Q398.45312 35.503124 399.1875 35.2375L399.42188 37.378124Q398.45312 37.784374 397.25 37.784374Q396.5 37.784374 395.90625 37.534374Q395.3125 37.284374 395.03125 36.89375Q394.76562 36.4875 394.65625 35.815624Q394.5625 35.346874 394.5625 33.89375L394.5625 29.3625L393.29688 29.3625L393.29688 27.175L394.5625 27.175L394.5625 25.1125L397.3125 23.51875L397.3125 27.175L399.1875 27.175ZM403.48438 30.346874L401.0 29.89375Q401.42188 28.39375 402.4375 27.675Q403.46875 26.940624 405.48438 26.940624Q407.32812 26.940624 408.21875 27.378124Q409.125 27.815624 409.48438 28.4875Q409.85938 29.14375 409.85938 30.940624L409.82812 34.14375Q409.82812 35.503124 409.95312 36.159374Q410.09375 36.8 410.45312 37.55L407.73438 37.55Q407.625 37.26875 407.46875 36.7375Q407.40625 36.4875 407.375 36.409374Q406.67188 37.096874 405.85938 37.440624Q405.0625 37.784374 404.15625 37.784374Q402.5625 37.784374 401.64062 36.925Q400.71875 36.05 400.71875 34.721874Q400.71875 33.83125 401.125 33.14375Q401.54688 32.45625 402.29688 32.096874Q403.0625 31.721874 404.5 31.45625Q406.42188 31.096874 407.15625 30.784374L407.15625 30.503124Q407.15625 29.721874 406.76562 29.39375Q406.375 29.05 405.29688 29.05Q404.5625 29.05 404.14062 29.33125Q403.73438 29.6125 403.48438 30.346874ZM407.15625 32.565624Q406.625 32.7375 405.48438 32.9875Q404.34375 33.2375 404.0 33.471874Q403.45312 33.846874 403.45312 34.440624Q403.45312 35.003124 403.875 35.425Q404.3125 35.846874 404.98438 35.846874Q405.71875 35.846874 406.39062 35.3625Q406.89062 34.9875 407.04688 34.45625Q407.15625 34.096874 407.15625 33.1125L407.15625 32.565624ZM412.3125 37.55L412.3125 23.2375L415.0625 23.2375L415.0625 28.39375Q416.32812 26.940624 418.07812 26.940624Q419.96875 26.940624 421.20312 28.315624Q422.45312 29.690624 422.45312 32.253124Q422.45312 34.909374 421.1875 36.346874Q419.92188 37.784374 418.10938 37.784374Q417.21875 37.784374 416.35938 37.346874Q415.5 36.89375 414.875 36.01875L414.875 37.55L412.3125 37.55ZM415.04688 32.14375Q415.04688 33.753124 415.54688 34.51875Q416.26562 35.6125 417.45312 35.6125Q418.35938 35.6125 419.0 34.846874Q419.64062 34.065624 419.64062 32.39375Q419.64062 30.6125 418.98438 29.83125Q418.34375 29.05 417.34375 29.05Q416.35938 29.05 415.70312 29.815624Q415.04688 30.58125 415.04688 32.14375ZM424.4375 37.55L424.4375 23.2375L427.1875 23.2375L427.1875 37.55L424.4375 37.55ZM435.4375 34.253124L438.17188 34.70625Q437.65625 36.20625 436.51562 37.003124Q435.375 37.784374 433.67188 37.784374Q430.95312 37.784374 429.65625 36.01875Q428.64062 34.596874 428.64062 32.440624Q428.64062 29.8625 429.98438 28.409374Q431.32812 26.940624 433.39062 26.940624Q435.70312 26.940624 437.03125 28.471874Q438.375 30.003124 438.32812 33.159374L431.45312 33.159374Q431.48438 34.378124 432.10938 35.065624Q432.75 35.7375 433.6875 35.7375Q434.34375 35.7375 434.78125 35.39375Q435.21875 35.034374 435.4375 34.253124ZM435.59375 31.471874Q435.5625 30.284374 434.96875 29.675Q434.39062 29.05 433.5625 29.05Q432.65625 29.05 432.07812 29.690624Q431.48438 30.346874 431.5 31.471874L435.59375 31.471874ZM445.23438 27.175L446.76562 27.175L446.76562 26.39375Q446.76562 25.08125 447.03125 24.440624Q447.3125 23.8 448.0625 23.39375Q448.8125 22.9875 449.95312 22.9875Q451.125 22.9875 452.25 23.346874L451.875 25.253124Q451.21875 25.096874 450.60938 25.096874Q450.01562 25.096874 449.75 25.378124Q449.5 25.659374 449.5 26.440624L449.5 27.175L451.54688 27.175L451.54688 29.33125L449.5 29.33125L449.5 37.55L446.76562 37.55L446.76562 29.33125L445.23438 29.33125L445.23438 27.175ZM452.79688 32.221874Q452.79688 30.846874 453.46875 29.565624Q454.15625 28.284374 455.39062 27.6125Q456.625 26.940624 458.14062 26.940624Q460.5 26.940624 462.0 28.471874Q463.5 30.003124 463.5 32.33125Q463.5 34.690624 461.98438 36.2375Q460.46875 37.784374 458.15625 37.784374Q456.73438 37.784374 455.4375 37.14375Q454.15625 36.4875 453.46875 35.253124Q452.79688 34.003124 452.79688 32.221874ZM455.60938 32.3625Q455.60938 33.909374 456.34375 34.7375Q457.07812 35.55 458.15625 35.55Q459.23438 35.55 459.95312 34.7375Q460.6875 33.909374 460.6875 32.346874Q460.6875 30.815624 459.95312 30.003124Q459.23438 29.175 458.15625 29.175Q457.07812 29.175 456.34375 30.003124Q455.60938 30.815624 455.60938 32.3625ZM468.0625 37.55L465.3125 37.55L465.3125 27.175L467.875 27.175L467.875 28.659374Q468.51562 27.6125 469.03125 27.284374Q469.5625 26.940624 470.23438 26.940624Q471.17188 26.940624 472.03125 27.45625L471.1875 29.846874Q470.5 29.409374 469.90625 29.409374Q469.32812 29.409374 468.92188 29.721874Q468.51562 30.034374 468.28125 30.878124Q468.0625 31.70625 468.0625 34.346874L468.0625 37.55ZM479.45312 23.2375L484.73438 23.2375Q486.51562 23.2375 487.45312 23.503124Q488.71875 23.878124 489.60938 24.83125Q490.51562 25.76875 490.98438 27.14375Q491.45312 28.51875 491.45312 30.534374Q491.45312 32.3 491.01562 33.58125Q490.46875 35.14375 489.46875 36.096874Q488.71875 36.83125 487.4375 37.253124Q486.48438 37.55 484.89062 37.55L479.45312 37.55L479.45312 23.2375ZM482.34375 25.659374L482.34375 35.14375L484.5 35.14375Q485.70312 35.14375 486.25 35.003124Q486.95312 34.83125 487.40625 34.409374Q487.875 33.9875 488.15625 33.034374Q488.45312 32.065624 488.45312 30.39375Q488.45312 28.7375 488.15625 27.846874Q487.875 26.95625 487.34375 26.471874Q486.8125 25.971874 486.01562 25.784374Q485.40625 25.659374 483.64062 25.659374L482.34375 25.659374ZM495.48438 30.346874L493.0 29.89375Q493.42188 28.39375 494.4375 27.675Q495.46875 26.940624 497.48438 26.940624Q499.32812 26.940624 500.21875 27.378124Q501.125 27.815624 501.48438 28.4875Q501.85938 29.14375 501.85938 30.940624L501.82812 34.14375Q501.82812 35.503124 501.95312 36.159374Q502.09375 36.8 502.45312 37.55L499.73438 37.55Q499.625 37.26875 499.46875 36.7375Q499.40625 36.4875 499.375 36.409374Q498.67188 37.096874 497.85938 37.440624Q497.0625 37.784374 496.15625 37.784374Q494.5625 37.784374 493.64062 36.925Q492.71875 36.05 492.71875 34.721874Q492.71875 33.83125 493.125 33.14375Q493.54688 32.45625 494.29688 32.096874Q495.0625 31.721874 496.5 31.45625Q498.42188 31.096874 499.15625 30.784374L499.15625 30.503124Q499.15625 29.721874 498.76562 29.39375Q498.375 29.05 497.29688 29.05Q496.5625 29.05 496.14062 29.33125Q495.73438 29.6125 495.48438 30.346874ZM499.15625 32.565624Q498.625 32.7375 497.48438 32.9875Q496.34375 33.2375 496.0 33.471874Q495.45312 33.846874 495.45312 34.440624Q495.45312 35.003124 495.875 35.425Q496.3125 35.846874 496.98438 35.846874Q497.71875 35.846874 498.39062 35.3625Q498.89062 34.9875 499.04688 34.45625Q499.15625 34.096874 499.15625 33.1125L499.15625 32.565624ZM507.0625 37.55L504.3125 37.55L504.3125 27.175L506.875 27.175L506.875 28.659374Q507.51562 27.6125 508.03125 27.284374Q508.5625 26.940624 509.23438 26.940624Q510.17188 26.940624 511.03125 27.45625L510.1875 29.846874Q509.5 29.409374 508.90625 29.409374Q508.32812 29.409374 507.92188 29.721874Q507.51562 30.034374 507.28125 30.878124Q507.0625 31.70625 507.0625 34.346874L507.0625 37.55ZM512.4375 25.76875L512.4375 23.2375L515.1875 23.2375L515.1875 25.76875L512.4375 25.76875ZM512.4375 37.55L512.4375 27.175L515.1875 27.175L515.1875 37.55L512.4375 37.55ZM517.375 25.76875L517.375 23.2375L520.125 23.2375L520.125 25.76875L517.375 25.76875ZM520.125 27.175L520.125 37.221874Q520.125 39.20625 519.8594 40.01875Q519.6094 40.846874 518.8594 41.3Q518.125 41.753124 516.9844 41.753124Q516.5781 41.753124 516.09375 41.675Q515.625 41.6125 515.0781 41.471874L515.5625 39.128124Q515.75 39.159374 515.9219 39.175Q516.09375 39.20625 516.25 39.20625Q516.6719 39.20625 516.9375 39.01875Q517.2031 38.846874 517.28125 38.596874Q517.375 38.346874 517.375 37.065624L517.375 27.175L520.125 27.175ZM524.4844 30.346874L522.0 29.89375Q522.4219 28.39375 523.4375 27.675Q524.46875 26.940624 526.4844 26.940624Q528.3281 26.940624 529.21875 27.378124Q530.125 27.815624 530.4844 28.4875Q530.8594 29.14375 530.8594 30.940624L530.8281 34.14375Q530.8281 35.503124 530.9531 36.159374Q531.09375 36.8 531.4531 37.55L528.7344 37.55Q528.625 37.26875 528.46875 36.7375Q528.40625 36.4875 528.375 36.409374Q527.6719 37.096874 526.8594 37.440624Q526.0625 37.784374 525.15625 37.784374Q523.5625 37.784374 522.6406 36.925Q521.71875 36.05 521.71875 34.721874Q521.71875 33.83125 522.125 33.14375Q522.5469 32.45625 523.2969 32.096874Q524.0625 31.721874 525.5 31.45625Q527.4219 31.096874 528.15625 30.784374L528.15625 30.503124Q528.15625 29.721874 527.7656 29.39375Q527.375 29.05 526.2969 29.05Q525.5625 29.05 525.1406 29.33125Q524.7344 29.6125 524.4844 30.346874ZM528.15625 32.565624Q527.625 32.7375 526.4844 32.9875Q525.34375 33.2375 525.0 33.471874Q524.4531 33.846874 524.4531 34.440624Q524.4531 35.003124 524.875 35.425Q525.3125 35.846874 525.9844 35.846874Q526.71875 35.846874 527.3906 35.3625Q527.8906 34.9875 528.0469 34.45625Q528.15625 34.096874 528.15625 33.1125L528.15625 32.565624ZM539.3281 33.8625L536.84375 33.8625Q536.8281 33.315624 536.8281 33.20625Q536.8281 31.9875 537.2344 31.20625Q537.6406 30.425 538.8281 29.45625Q540.03125 28.471874 540.2656 28.175Q540.6406 27.690624 540.6406 27.1125Q540.6406 26.315624 540.0 25.753124Q539.3594 25.175 538.2656 25.175Q537.21875 25.175 536.5156 25.76875Q535.8125 26.3625 535.5625 27.58125L533.03125 27.26875Q533.1406 25.534374 534.5156 24.315624Q535.90625 23.08125 538.15625 23.08125Q540.5156 23.08125 541.90625 24.315624Q543.3125 25.55 543.3125 27.190624Q543.3125 28.1125 542.7969 28.925Q542.28125 29.721874 540.6094 31.128124Q539.7344 31.846874 539.5156 32.284374Q539.3125 32.721874 539.3281 33.8625ZM536.84375 37.55L536.84375 34.8L539.59375 34.8L539.59375 37.55L536.84375 37.55Z" fill-rule="nonzero"/></svg>