<svg version="1.1" viewBox="0.0 0.0 600.0 371.0" fill="none" stroke="none" stroke-linecap="square" stroke-miterlimit="10" width="600" height="371" xmlns:xlink="http://www.w3.org/1999/xlink" xmlns="http://www.w3.org/2000/svg"><path fill="#ffffff" d="M0 0L600.0 0L600.0 371.0L0 371.0L0 0Z" fill-rule="nonzero"/><path fill="#00b3b3" d="M423.58334 211.76875C423.58334 224.03734 419.85538 236.16562 412.64694 247.34851L412.64694 228.811C419.85538 217.62811 423.58334 205.49985 423.58334 193.23125Z" fill-rule="nonzero"/><path fill="#00ffff" d="M300.0 106.722916C341.95758 106.722916 381.0493 121.62466 403.8132 146.29648C426.57712 170.96829 429.90353 202.03981 412.64694 228.811L300.0 193.23125Z" fill-rule="nonzero"/><path fill="#b3b300" d="M176.45508 213.92546C176.42947 213.2067 176.41667 212.48773 176.41667 211.76875L176.41667 193.23125C176.41667 193.95024 176.42947 194.6692 176.45508 195.38797Z" fill-rule="nonzero"/><path fill="#ffff00" d="M176.45508 195.38797C175.62462 172.07784 188.27214 149.52008 211.53079 132.82794C234.78944 116.1358 266.68945 106.722916 300.0 106.722916L300.0 193.23125Z" fill-rule="nonzero"/><path fill="#b30000" d="M412.64694 247.34851C388.93283 284.13757 332.02747 304.55917 275.51245 296.56183C218.99742 288.5645 177.89253 254.27368 176.45508 213.92546L176.45508 195.38797C177.89253 235.73619 218.99742 270.027 275.51245 278.02435C332.02747 286.02167 388.93283 265.6001 412.64694 228.811Z" fill-rule="nonzero"/><path fill="#ff0000" d="M412.64694 228.811C388.93283 265.6001 332.02747 286.02167 275.51245 278.02435C218.99742 270.027 177.89253 235.73619 176.45508 195.38797L300.0 193.23125Z" fill-rule="nonzero"/><path fill="#000000" d="M348.15793 165.04433L349.37668 164.87245Q349.59543 165.91933 350.09543 166.38808Q350.61105 166.8412 351.34543 166.8412Q352.22043 166.8412 352.81418 166.24745Q353.40793 165.63808 353.40793 164.74745Q353.40793 163.9037 352.84543 163.35683Q352.29855 162.80995 351.4548 162.80995Q351.09543 162.80995 350.5798 162.93495L350.72043 161.85683Q350.84543 161.87245 350.90793 161.87245Q351.7048 161.87245 352.3298 161.4662Q352.9548 161.05995 352.9548 160.20058Q352.9548 159.5287 352.50168 159.0912Q352.04855 158.63808 351.31418 158.63808Q350.59543 158.63808 350.11105 159.0912Q349.6423 159.5287 349.50168 160.43495L348.28293 160.2162Q348.50168 158.98183 349.29855 158.30995Q350.09543 157.62245 351.28293 157.62245Q352.11105 157.62245 352.79855 157.98183Q353.48605 158.32558 353.84543 158.93495Q354.22043 159.54433 354.22043 160.23183Q354.22043 160.87245 353.87668 161.4037Q353.53293 161.93495 352.84543 162.26308Q353.73605 162.4662 354.22043 163.10683Q354.72043 163.74745 354.72043 164.73183Q354.72043 166.04433 353.75168 166.95058Q352.79855 167.85683 351.34543 167.85683Q350.0173 167.85683 349.1423 167.07558Q348.28293 166.29433 348.15793 165.04433ZM360.78293 167.68495L359.54855 167.68495L359.54855 159.8412Q359.11105 160.26308 358.37668 160.70058Q357.65793 161.12245 357.09543 161.32558L357.09543 160.13808Q358.12668 159.6537 358.8923 158.9662Q359.67355 158.2787 359.98605 157.62245L360.78293 157.62245L360.78293 167.68495ZM364.8298 167.68495L364.8298 166.2787L366.23605 166.2787L366.23605 167.68495L364.8298 167.68495ZM368.22043 158.98183L368.22043 157.79433L374.72043 157.79433L374.72043 158.74745Q373.75168 159.76308 372.81418 161.45058Q371.87668 163.13808 371.36105 164.93495Q371.00168 166.18495 370.8923 167.68495L369.62668 167.68495Q369.6423 166.49745 370.0798 164.82558Q370.53293 163.1537 371.36105 161.60683Q372.2048 160.04433 373.1423 158.98183L368.22043 158.98183ZM376.37668 160.07558Q376.37668 158.99745 376.90793 158.24745Q377.4548 157.49745 378.48605 157.49745Q379.42355 157.49745 380.03293 158.16933Q380.65793 158.8412 380.65793 160.13808Q380.65793 161.41933 380.03293 162.10683Q379.40793 162.79433 378.50168 162.79433Q377.59543 162.79433 376.98605 162.12245Q376.37668 161.43495 376.37668 160.07558ZM378.5173 158.3412Q378.06418 158.3412 377.75168 158.74745Q377.4548 159.13808 377.4548 160.18495Q377.4548 161.1537 377.75168 161.54433Q378.06418 161.93495 378.5173 161.93495Q378.98605 161.93495 379.28293 161.54433Q379.59543 161.1537 379.59543 160.0912Q379.59543 159.12245 379.28293 158.73183Q378.97043 158.3412 378.5173 158.3412ZM378.5173 168.05995L384.00168 157.49745L385.00168 157.49745L379.54855 168.05995L378.5173 168.05995ZM382.86105 165.32558Q382.86105 164.24745 383.3923 163.51308Q383.93918 162.76308 384.97043 162.76308Q385.90793 162.76308 386.53293 163.43495Q387.15793 164.10683 387.15793 165.4037Q387.15793 166.68495 386.53293 167.37245Q385.90793 168.05995 384.97043 168.05995Q384.06418 168.05995 383.4548 167.38808Q382.86105 166.70058 382.86105 165.32558ZM385.00168 163.60683Q384.53293 163.60683 384.23605 164.01308Q383.93918 164.4037 383.93918 165.45058Q383.93918 166.41933 384.23605 166.80995Q384.54855 167.20058 385.00168 167.20058Q385.47043 167.20058 385.7673 166.80995Q386.0798 166.41933 386.0798 165.35683Q386.0798 164.38808 385.7673 163.99745Q385.47043 163.60683 385.00168 163.60683Z" fill-rule="nonzero"/><path fill="#000000" d="M267.50873 257.17514L267.50873 254.76889L263.14935 254.76889L263.14935 253.64389L267.72748 247.15952L268.72748 247.15952L268.72748 253.64389L270.08685 253.64389L270.08685 254.76889L268.72748 254.76889L268.72748 257.17514L267.50873 257.17514ZM267.50873 253.64389L267.50873 249.12827L264.3681 253.64389L267.50873 253.64389ZM278.02435 255.98764L278.02435 257.17514L271.39935 257.17514Q271.38373 256.73764 271.53998 256.31577Q271.8056 255.64389 272.35248 254.98764Q272.91498 254.33139 273.96185 253.47202Q275.60248 252.12827 276.16498 251.34702Q276.7431 250.56577 276.7431 249.86264Q276.7431 249.12827 276.21185 248.62827Q275.69623 248.12827 274.8681 248.12827Q273.97748 248.12827 273.4306 248.65952Q272.89935 249.19077 272.89935 250.14389L271.63373 250.00327Q271.75873 248.59702 272.60248 247.86264Q273.46185 247.11264 274.88373 247.11264Q276.33685 247.11264 277.16498 247.90952Q278.00873 248.70639 278.00873 249.89389Q278.00873 250.50327 277.75873 251.08139Q277.52435 251.65952 276.94623 252.30014Q276.38373 252.94077 275.0556 254.06577Q273.94623 254.98764 273.63373 255.33139Q273.32123 255.65952 273.1181 255.98764L278.02435 255.98764ZM280.2431 257.17514L280.2431 255.76889L281.64935 255.76889L281.64935 257.17514L280.2431 257.17514ZM283.7431 254.86264L284.9306 254.75327Q285.07123 255.58139 285.4931 255.95639Q285.9306 256.3314 286.58685 256.3314Q287.14935 256.3314 287.57123 256.0814Q288.00873 255.81577 288.27435 255.37827Q288.5556 254.94077 288.7431 254.20639Q288.9306 253.47202 288.9306 252.70639Q288.9306 252.62827 288.91498 252.45639Q288.5556 253.05014 287.91498 253.42514Q287.27435 253.78452 286.52435 253.78452Q285.27435 253.78452 284.41498 252.87827Q283.5556 251.97202 283.5556 250.50327Q283.5556 248.97202 284.44623 248.05014Q285.35248 247.11264 286.71185 247.11264Q287.6806 247.11264 288.4931 247.64389Q289.3056 248.15952 289.72748 249.14389Q290.14935 250.11264 290.14935 251.95639Q290.14935 253.87827 289.72748 255.01889Q289.32123 256.15952 288.4931 256.75327Q287.66498 257.34702 286.5556 257.34702Q285.38373 257.34702 284.63373 256.69077Q283.89935 256.03452 283.7431 254.86264ZM288.77435 250.44077Q288.77435 249.37827 288.21185 248.75327Q287.64935 248.12827 286.8681 248.12827Q286.03998 248.12827 285.4306 248.80014Q284.82123 249.47202 284.82123 250.53452Q284.82123 251.48764 285.39935 252.09702Q285.97748 252.69077 286.82123 252.69077Q287.6806 252.69077 288.22748 252.09702Q288.77435 251.48764 288.77435 250.44077ZM291.78998 249.56577Q291.78998 248.48764 292.32123 247.73764Q292.8681 246.98764 293.89935 246.98764Q294.83685 246.98764 295.44623 247.65952Q296.07123 248.33139 296.07123 249.62827Q296.07123 250.90952 295.44623 251.59702Q294.82123 252.28452 293.91498 252.28452Q293.00873 252.28452 292.39935 251.61264Q291.78998 250.92514 291.78998 249.56577ZM293.9306 247.83139Q293.47748 247.83139 293.16498 248.23764Q292.8681 248.62827 292.8681 249.67514Q292.8681 250.64389 293.16498 251.03452Q293.47748 251.42514 293.9306 251.42514Q294.39935 251.42514 294.69623 251.03452Q295.00873 250.64389 295.00873 249.58139Q295.00873 248.61264 294.69623 248.22202Q294.38373 247.83139 293.9306 247.83139ZM293.9306 257.55014L299.41498 246.98764L300.41498 246.98764L294.96185 257.55014L293.9306 257.55014ZM298.27435 254.81577Q298.27435 253.73764 298.8056 253.00327Q299.35248 252.25327 300.38373 252.25327Q301.32123 252.25327 301.94623 252.92514Q302.57123 253.59702 302.57123 254.89389Q302.57123 256.17514 301.94623 256.86264Q301.32123 257.55014 300.38373 257.55014Q299.47748 257.55014 298.8681 256.87827Q298.27435 256.19077 298.27435 254.81577ZM300.41498 253.09702Q299.94623 253.09702 299.64935 253.50327Q299.35248 253.89389 299.35248 254.94077Q299.35248 255.90952 299.64935 256.30014Q299.96185 256.69077 300.41498 256.69077Q300.88373 256.69077 301.1806 256.30014Q301.4931 255.90952 301.4931 254.84702Q301.4931 253.87827 301.1806 253.48764Q300.88373 253.09702 300.41498 253.09702Z" fill-rule="nonzero"/><path fill="#000000" d="M229.70645 157.89397L229.70645 159.08147L223.08145 159.08147Q223.06583 158.64397 223.22208 158.22209Q223.4877 157.55022 224.03458 156.89397Q224.59708 156.23772 225.64395 155.37834Q227.28458 154.03459 227.84708 153.25334Q228.4252 152.47209 228.4252 151.76897Q228.4252 151.03459 227.89395 150.53459Q227.37833 150.03459 226.5502 150.03459Q225.65958 150.03459 225.1127 150.56584Q224.58145 151.09709 224.58145 152.05022L223.31583 151.90959Q223.44083 150.50334 224.28458 149.76897Q225.14395 149.01897 226.56583 149.01897Q228.01895 149.01897 228.84708 149.81584Q229.69083 150.61272 229.69083 151.80022Q229.69083 152.40959 229.44083 152.98772Q229.20645 153.56584 228.62833 154.20647Q228.06583 154.84709 226.7377 155.97209Q225.62833 156.89397 225.31583 157.23772Q225.00333 157.56584 224.8002 157.89397L229.70645 157.89397ZM231.2377 156.45647L232.53458 156.34709Q232.6752 157.28459 233.19083 157.76897Q233.72208 158.23772 234.45645 158.23772Q235.34708 158.23772 235.95645 157.56584Q236.58145 156.89397 236.58145 155.80022Q236.58145 154.73772 235.9877 154.12834Q235.39395 153.51897 234.44083 153.51897Q233.84708 153.51897 233.3627 153.80022Q232.89395 154.06584 232.6127 154.48772L231.45645 154.34709L232.4252 149.19084L237.40958 149.19084L237.40958 150.37834L233.40958 150.37834L232.87833 153.06584Q233.78458 152.44084 234.76895 152.44084Q236.08145 152.44084 236.97208 153.34709Q237.87833 154.25334 237.87833 155.69084Q237.87833 157.05022 237.09708 158.03459Q236.12833 159.25334 234.45645 159.25334Q233.09708 159.25334 232.22208 158.48772Q231.3627 157.72209 231.2377 156.45647ZM239.9252 159.08147L239.9252 157.67522L241.33145 157.67522L241.33145 159.08147L239.9252 159.08147ZM247.19083 159.08147L247.19083 156.67522L242.83145 156.67522L242.83145 155.55022L247.40958 149.06584L248.40958 149.06584L248.40958 155.55022L249.76895 155.55022L249.76895 156.67522L248.40958 156.67522L248.40958 159.08147L247.19083 159.08147ZM247.19083 155.55022L247.19083 151.03459L244.0502 155.55022L247.19083 155.55022ZM251.47208 151.47209Q251.47208 150.39397 252.00333 149.64397Q252.5502 148.89397 253.58145 148.89397Q254.51895 148.89397 255.12833 149.56584Q255.75333 150.23772 255.75333 151.53459Q255.75333 152.81584 255.12833 153.50334Q254.50333 154.19084 253.59708 154.19084Q252.69083 154.19084 252.08145 153.51897Q251.47208 152.83147 251.47208 151.47209ZM253.6127 149.73772Q253.15958 149.73772 252.84708 150.14397Q252.5502 150.53459 252.5502 151.58147Q252.5502 152.55022 252.84708 152.94084Q253.15958 153.33147 253.6127 153.33147Q254.08145 153.33147 254.37833 152.94084Q254.69083 152.55022 254.69083 151.48772Q254.69083 150.51897 254.37833 150.12834Q254.06583 149.73772 253.6127 149.73772ZM253.6127 159.45647L259.09708 148.89397L260.09708 148.89397L254.64395 159.45647L253.6127 159.45647ZM257.95645 156.72209Q257.95645 155.64397 258.4877 154.90959Q259.03458 154.15959 260.06583 154.15959Q261.00333 154.15959 261.62833 154.83147Q262.25333 155.50334 262.25333 156.80022Q262.25333 158.08147 261.62833 158.76897Q261.00333 159.45647 260.06583 159.45647Q259.15958 159.45647 258.5502 158.78459Q257.95645 158.09709 257.95645 156.72209ZM260.09708 155.00334Q259.62833 155.00334 259.33145 155.40959Q259.03458 155.80022 259.03458 156.84709Q259.03458 157.81584 259.33145 158.20647Q259.64395 158.59709 260.09708 158.59709Q260.56583 158.59709 260.8627 158.20647Q261.1752 157.81584 261.1752 156.75334Q261.1752 155.78459 260.8627 155.39397Q260.56583 155.00334 260.09708 155.00334Z" fill-rule="nonzero"/><path fill="#00ffff" d="M227.0 345.45C227.0 348.7637 224.3137 351.45 221.0 351.45C217.6863 351.45 215.0 348.7637 215.0 345.45C215.0 342.1363 217.6863 339.45 221.0 339.45C224.3137 339.45 227.0 342.1363 227.0 345.45Z" fill-rule="nonzero"/><path fill="#1a1a1a" d="M235.92188 349.45L235.92188 340.85626L237.07812 340.85626L241.59375 347.60626L241.59375 340.85626L242.6875 340.85626L242.6875 349.45L241.51562 349.45L237.0 342.7L237.0 349.45L235.92188 349.45ZM244.40625 346.34064Q244.40625 344.60626 245.35938 343.77814Q246.15625 343.09064 247.3125 343.09064Q248.59375 343.09064 249.40625 343.9344Q250.23438 344.7625 250.23438 346.2469Q250.23438 347.45 249.875 348.1375Q249.51562 348.825 248.8125 349.21564Q248.125 349.59064 247.3125 349.59064Q246.01562 349.59064 245.20312 348.7625Q244.40625 347.91876 244.40625 346.34064ZM245.48438 346.34064Q245.48438 347.52814 246.0 348.1219Q246.53125 348.71564 247.3125 348.71564Q248.10938 348.71564 248.625 348.1219Q249.14062 347.52814 249.14062 346.3094Q249.14062 345.15314 248.60938 344.5594Q248.09375 343.96564 247.3125 343.96564Q246.53125 343.96564 246.0 344.5594Q245.48438 345.1375 245.48438 346.34064Z" fill-rule="nonzero"/><path fill="#ff0000" d="M279.0 345.45C279.0 348.7637 276.31372 351.45 273.0 351.45C269.68628 351.45 267.0 348.7637 267.0 345.45C267.0 342.1363 269.68628 339.45 273.0 339.45C276.31372 339.45 279.0 342.1363 279.0 345.45Z" fill-rule="nonzero"/><path fill="#1a1a1a" d="M290.34375 349.45L290.34375 345.8094L287.03125 340.85626L288.42188 340.85626L290.10938 343.45Q290.57812 344.16876 290.98438 344.90314Q291.375 344.23126 291.92188 343.3875L293.59375 340.85626L294.90625 340.85626L291.48438 345.8094L291.48438 349.45L290.34375 349.45ZM299.04688 347.45L300.14062 347.575Q299.89062 348.52814 299.1875 349.0594Q298.48438 349.59064 297.40625 349.59064Q296.04688 349.59064 295.23438 348.7469Q294.4375 347.90314 294.4375 346.3875Q294.4375 344.825 295.25 343.96564Q296.0625 343.09064 297.34375 343.09064Q298.59375 343.09064 299.375 343.9344Q300.17188 344.77814 300.17188 346.325Q300.17188 346.41876 300.17188 346.60626L295.53125 346.60626Q295.59375 347.6375 296.10938 348.1844Q296.625 348.71564 297.40625 348.71564Q297.98438 348.71564 298.39062 348.41876Q298.8125 348.10626 299.04688 347.45ZM295.59375 345.7469L299.0625 345.7469Q299.0 344.95 298.67188 344.5594Q298.15625 343.95 297.35938 343.95Q296.625 343.95 296.125 344.4344Q295.64062 344.91876 295.59375 345.7469ZM301.375 347.59064L302.40625 347.4344Q302.5 348.0594 302.89062 348.3875Q303.29688 348.71564 304.03125 348.71564Q304.75 348.71564 305.09375 348.4344Q305.45312 348.1375 305.45312 347.73126Q305.45312 347.3719 305.14062 347.16876Q304.92188 347.02814 304.0625 346.8094Q302.90625 346.5125 302.45312 346.3094Q302.01562 346.09064 301.78125 345.71564Q301.54688 345.34064 301.54688 344.8719Q301.54688 344.46564 301.73438 344.10626Q301.92188 343.7469 302.25 343.5125Q302.5 343.34064 302.92188 343.21564Q303.34375 343.09064 303.84375 343.09064Q304.5625 343.09064 305.10938 343.3094Q305.67188 343.5125 305.9375 343.8719Q306.20312 344.23126 306.29688 344.825L305.26562 344.96564Q305.20312 344.4969 304.85938 344.23126Q304.53125 343.95 303.90625 343.95Q303.1875 343.95 302.875 344.2Q302.5625 344.4344 302.5625 344.7625Q302.5625 344.96564 302.6875 345.1219Q302.82812 345.29376 303.09375 345.40314Q303.25 345.46564 304.03125 345.66876Q305.15625 345.98126 305.59375 346.16876Q306.03125 346.35626 306.28125 346.71564Q306.53125 347.075 306.53125 347.6219Q306.53125 348.15314 306.21875 348.6219Q305.92188 349.075 305.34375 349.34064Q304.76562 349.59064 304.03125 349.59064Q302.8125 349.59064 302.17188 349.09064Q301.54688 348.575 301.375 347.59064Z" fill-rule="nonzero"/><path fill="#ffff00" d="M336.0 345.45C336.0 348.7637 333.31372 351.45 330.0 351.45C326.68628 351.45 324.0 348.7637 324.0 345.45C324.0 342.1363 326.68628 339.45 330.0 339.45C333.31372 339.45 336.0 342.1363 336.0 345.45Z" fill-rule="nonzero"/><path fill="#1a1a1a" d="M350.5625 340.85626L351.70312 340.85626L351.70312 345.825Q351.70312 347.1219 351.40625 347.8875Q351.10938 348.6375 350.34375 349.1219Q349.57812 349.59064 348.34375 349.59064Q347.14062 349.59064 346.35938 349.1844Q345.59375 348.7625 345.26562 347.98126Q344.9375 347.1844 344.9375 345.825L344.9375 340.85626L346.07812 340.85626L346.07812 345.8094Q346.07812 346.9344 346.28125 347.46564Q346.5 347.9969 347.0 348.29376Q347.51562 348.575 348.25 348.575Q349.5 348.575 350.03125 348.0125Q350.5625 347.4344 350.5625 345.8094L350.5625 340.85626ZM353.79688 349.45L353.79688 343.23126L354.73438 343.23126L354.73438 344.10626Q355.42188 343.09064 356.71875 343.09064Q357.28125 343.09064 357.75 343.29376Q358.23438 343.4969 358.46875 343.825Q358.70312 344.15314 358.79688 344.59064Q358.84375 344.8875 358.84375 345.6219L358.84375 349.45L357.79688 349.45L357.79688 345.66876Q357.79688 345.0125 357.67188 344.7Q357.54688 344.3875 357.23438 344.2Q356.92188 343.9969 356.5 343.9969Q355.82812 343.9969 355.32812 344.4344Q354.84375 344.85626 354.84375 346.04376L354.84375 349.45L353.79688 349.45ZM360.375 347.59064L361.40625 347.4344Q361.5 348.0594 361.89062 348.3875Q362.29688 348.71564 363.03125 348.71564Q363.75 348.71564 364.09375 348.4344Q364.45312 348.1375 364.45312 347.73126Q364.45312 347.3719 364.14062 347.16876Q363.92188 347.02814 363.0625 346.8094Q361.90625 346.5125 361.45312 346.3094Q361.01562 346.09064 360.78125 345.71564Q360.54688 345.34064 360.54688 344.8719Q360.54688 344.46564 360.73438 344.10626Q360.92188 343.7469 361.25 343.5125Q361.5 343.34064 361.92188 343.21564Q362.34375 343.09064 362.84375 343.09064Q363.5625 343.09064 364.10938 343.3094Q364.67188 343.5125 364.9375 343.8719Q365.20312 344.23126 365.29688 344.825L364.26562 344.96564Q364.20312 344.4969 363.85938 344.23126Q363.53125 343.95 362.90625 343.95Q362.1875 343.95 361.875 344.2Q361.5625 344.4344 361.5625 344.7625Q361.5625 344.96564 361.6875 345.1219Q361.82812 345.29376 362.09375 345.40314Q362.25 345.46564 363.03125 345.66876Q364.15625 345.98126 364.59375 346.16876Q365.03125 346.35626 365.28125 346.71564Q365.53125 347.075 365.53125 347.6219Q365.53125 348.15314 365.21875 348.6219Q364.92188 349.075 364.34375 349.34064Q363.76562 349.59064 363.03125 349.59064Q361.8125 349.59064 361.17188 349.09064Q360.54688 348.575 360.375 347.59064ZM371.875 349.45L371.875 348.52814Q371.14062 349.59064 369.89062 349.59064Q369.34375 349.59064 368.85938 349.3875Q368.39062 349.16876 368.15625 348.85626Q367.92188 348.52814 367.82812 348.0594Q367.76562 347.7625 367.76562 347.075L367.76562 343.23126L368.82812 343.23126L368.82812 346.6844Q368.82812 347.4969 368.89062 347.79376Q368.98438 348.2 369.29688 348.45Q369.625 348.6844 370.10938 348.6844Q370.57812 348.6844 370.98438 348.45Q371.40625 348.2 371.57812 347.77814Q371.76562 347.35626 371.76562 346.5594L371.76562 343.23126L372.8125 343.23126L372.8125 349.45L371.875 349.45ZM374.78125 349.45L374.78125 343.23126L375.73438 343.23126L375.73438 344.16876Q376.09375 343.5125 376.39062 343.3094Q376.70312 343.09064 377.07812 343.09064Q377.60938 343.09064 378.15625 343.41876L377.79688 344.40314Q377.40625 344.16876 377.03125 344.16876Q376.67188 344.16876 376.39062 344.3875Q376.125 344.59064 376.01562 344.96564Q375.82812 345.52814 375.82812 346.1844L375.82812 349.45L374.78125 349.45ZM383.04688 347.45L384.14062 347.575Q383.89062 348.52814 383.1875 349.0594Q382.48438 349.59064 381.40625 349.59064Q380.04688 349.59064 379.23438 348.7469Q378.4375 347.90314 378.4375 346.3875Q378.4375 344.825 379.25 343.96564Q380.0625 343.09064 381.34375 343.09064Q382.59375 343.09064 383.375 343.9344Q384.17188 344.77814 384.17188 346.325Q384.17188 346.41876 384.17188 346.60626L379.53125 346.60626Q379.59375 347.6375 380.10938 348.1844Q380.625 348.71564 381.40625 348.71564Q381.98438 348.71564 382.39062 348.41876Q382.8125 348.10626 383.04688 347.45ZM379.59375 345.7469L383.0625 345.7469Q383.0 344.95 382.67188 344.5594Q382.15625 343.95 381.35938 343.95Q380.625 343.95 380.125 344.4344Q379.64062 344.91876 379.59375 345.7469Z" fill-rule="nonzero"/><path fill="#000000" d="M37.532276 23.2375L42.813526 23.2375Q44.594776 23.2375 45.532276 23.503124Q46.7979 23.878124 47.688526 24.83125Q48.594776 25.76875 49.063526 27.14375Q49.532276 28.51875 49.532276 30.534374Q49.532276 32.3 49.094776 33.58125Q48.5479 35.14375 47.5479 36.096874Q46.7979 36.83125 45.51665 37.253124Q44.563526 37.55 42.969776 37.55L37.532276 37.55L37.532276 23.2375ZM40.4229 25.659374L40.4229 35.14375L42.57915 35.14375Q43.782276 35.14375 44.32915 35.003124Q45.032276 34.83125 45.4854 34.409374Q45.95415 33.9875 46.2354 33.034374Q46.532276 32.065624 46.532276 30.39375Q46.532276 28.7375 46.2354 27.846874Q45.95415 26.95625 45.4229 26.471874Q44.89165 25.971874 44.094776 25.784374Q43.4854 25.659374 41.719776 25.659374L40.4229 25.659374ZM50.876026 32.221874Q50.876026 30.846874 51.5479 29.565624Q52.2354 28.284374 53.469776 27.6125Q54.70415 26.940624 56.219776 26.940624Q58.57915 26.940624 60.07915 28.471874Q61.57915 30.003124 61.57915 32.33125Q61.57915 34.690624 60.063526 36.2375Q58.5479 37.784374 56.2354 37.784374Q54.813526 37.784374 53.51665 37.14375Q52.2354 36.4875 51.5479 35.253124Q50.876026 34.003124 50.876026 32.221874ZM53.688526 32.3625Q53.688526 33.909374 54.4229 34.7375Q55.157276 35.55 56.2354 35.55Q57.313526 35.55 58.032276 34.7375Q58.76665 33.909374 58.76665 32.346874Q58.76665 30.815624 58.032276 30.003124Q57.313526 29.175 56.2354 29.175Q55.157276 29.175 54.4229 30.003124Q53.688526 30.815624 53.688526 32.3625ZM68.21977 27.175L71.14165 27.175L73.6104 34.534374L76.03227 27.175L78.87602 27.175L75.21977 37.159374L74.56352 38.971874Q74.20415 39.878124 73.87602 40.346874Q73.5479 40.83125 73.12602 41.128124Q72.70415 41.425 72.07915 41.58125Q71.45415 41.753124 70.6729 41.753124Q69.89165 41.753124 69.12602 41.596874L68.87602 39.440624Q69.53227 39.565624 70.0479 39.565624Q71.00102 39.565624 71.45415 39.003124Q71.9229 38.45625 72.15727 37.58125L68.21977 27.175ZM79.87602 32.221874Q79.87602 30.846874 80.5479 29.565624Q81.2354 28.284374 82.46977 27.6125Q83.70415 26.940624 85.21977 26.940624Q87.57915 26.940624 89.07915 28.471874Q90.57915 30.003124 90.57915 32.33125Q90.57915 34.690624 89.06352 36.2375Q87.5479 37.784374 85.2354 37.784374Q83.81352 37.784374 82.51665 37.14375Q81.2354 36.4875 80.5479 35.253124Q79.87602 34.003124 79.87602 32.221874ZM82.68852 32.3625Q82.68852 33.909374 83.4229 34.7375Q84.15727 35.55 85.2354 35.55Q86.31352 35.55 87.03227 34.7375Q87.76665 33.909374 87.76665 32.346874Q87.76665 30.815624 87.03227 30.003124Q86.31352 29.175 85.2354 29.175Q84.15727 29.175 83.4229 30.003124Q82.68852 30.815624 82.68852 32.3625ZM99.34477 37.55L99.34477 36.003124Q98.78227 36.83125 97.84477 37.315624Q96.9229 37.784374 95.90727 37.784374Q94.8604 37.784374 94.03227 37.33125Q93.20415 36.8625 92.82915 36.034374Q92.45415 35.20625 92.45415 33.7375L92.45415 27.175L95.20415 27.175L95.20415 31.940624Q95.20415 34.128124 95.34477 34.628124Q95.50102 35.1125 95.89165 35.409374Q96.2979 35.690624 96.9229 35.690624Q97.62602 35.690624 98.1729 35.315624Q98.7354 34.925 98.93852 34.3625Q99.14165 33.784374 99.14165 31.55L99.14165 27.175L101.89165 27.175L101.89165 37.55L99.34477 37.55ZM109.31352 27.175L110.84477 27.175L110.84477 26.39375Q110.84477 25.08125 111.1104 24.440624Q111.39165 23.8 112.14165 23.39375Q112.89165 22.9875 114.03227 22.9875Q115.20415 22.9875 116.32915 23.346874L115.95415 25.253124Q115.2979 25.096874 114.68852 25.096874Q114.09477 25.096874 113.82915 25.378124Q113.57915 25.659374 113.57915 26.440624L113.57915 27.175L115.62602 27.175L115.62602 29.33125L113.57915 29.33125L113.57915 37.55L110.84477 37.55L110.84477 29.33125L109.31352 29.33125L109.31352 27.175ZM117.51665 25.76875L117.51665 23.2375L120.26665 23.2375L120.26665 25.76875L117.51665 25.76875ZM117.51665 37.55L117.51665 27.175L120.26665 27.175L120.26665 37.55L117.51665 37.55ZM131.95415 37.55L129.20415 37.55L129.20415 32.253124Q129.20415 30.58125 129.03227 30.096874Q128.8604 29.596874 128.45415 29.33125Q128.06352 29.05 127.50102 29.05Q126.7979 29.05 126.21977 29.440624Q125.65727 29.83125 125.43852 30.471874Q125.2354 31.1125 125.2354 32.846874L125.2354 37.55L122.50102 37.55L122.50102 27.175L125.0479 27.175L125.0479 28.70625Q126.40727 26.940624 128.46977 26.940624Q129.37602 26.940624 130.12602 27.26875Q130.87602 27.596874 131.25102 28.1125Q131.64165 28.6125 131.7979 29.26875Q131.95415 29.909374 131.95415 31.096874L131.95415 37.55ZM144.03227 37.55L141.4854 37.55L141.4854 36.01875Q140.84477 36.909374 139.96977 37.346874Q139.1104 37.784374 138.2354 37.784374Q136.45415 37.784374 135.1729 36.346874Q133.90727 34.909374 133.90727 32.33125Q133.90727 29.690624 135.14165 28.315624Q136.37602 26.940624 138.28227 26.940624Q140.01665 26.940624 141.28227 28.39375L141.28227 23.2375L144.03227 23.2375L144.03227 37.55ZM136.70415 32.14375Q136.70415 33.8 137.15727 34.534374Q137.82915 35.6125 139.01665 35.6125Q139.96977 35.6125 140.62602 34.815624Q141.2979 34.003124 141.2979 32.409374Q141.2979 30.6125 140.64165 29.83125Q140.00102 29.05 139.00102 29.05Q138.01665 29.05 137.3604 29.83125Q136.70415 30.596874 136.70415 32.14375ZM154.45415 37.55L151.1729 27.175L153.82915 27.175L155.78227 33.971874L157.56352 27.175L160.20415 27.175L161.93852 33.971874L163.9229 27.175L166.62602 27.175L163.2979 37.55L160.65727 37.55L158.87602 30.878124L157.1104 37.55L154.45415 37.55ZM170.14165 37.55L167.39165 37.55L167.39165 27.175L169.95415 27.175L169.95415 28.659374Q170.59477 27.6125 171.1104 27.284374Q171.64165 26.940624 172.31352 26.940624Q173.25102 26.940624 174.1104 27.45625L173.26665 29.846874Q172.57915 29.409374 171.9854 29.409374Q171.40727 29.409374 171.00102 29.721874Q170.59477 30.034374 170.3604 30.878124Q170.14165 31.70625 170.14165 34.346874L170.14165 37.55ZM175.51665 25.76875L175.51665 23.2375L178.26665 23.2375L178.26665 25.76875L175.51665 25.76875ZM175.51665 37.55L175.51665 27.175L178.26665 27.175L178.26665 37.55L175.51665 37.55ZM185.26665 27.175L185.26665 29.3625L183.39165 29.3625L183.39165 33.55Q183.39165 34.815624 183.43852 35.034374Q183.50102 35.2375 183.68852 35.378124Q183.89165 35.503124 184.15727 35.503124Q184.53227 35.503124 185.26665 35.2375L185.50102 37.378124Q184.53227 37.784374 183.32915 37.784374Q182.57915 37.784374 181.9854 37.534374Q181.39165 37.284374 181.1104 36.89375Q180.84477 36.4875 180.7354 35.815624Q180.64165 35.346874 180.64165 33.89375L180.64165 29.3625L179.37602 29.3625L179.37602 27.175L180.64165 27.175L180.64165 25.1125L183.39165 23.51875L183.39165 27.175L185.26665 27.175ZM187.51665 25.76875L187.51665 23.2375L190.26665 23.2375L190.26665 25.76875L187.51665 25.76875ZM187.51665 37.55L187.51665 27.175L190.26665 27.175L190.26665 37.55L187.51665 37.55ZM201.95415 37.55L199.20415 37.55L199.20415 32.253124Q199.20415 30.58125 199.03227 30.096874Q198.8604 29.596874 198.45415 29.33125Q198.06352 29.05 197.50102 29.05Q196.7979 29.05 196.21977 29.440624Q195.65727 29.83125 195.43852 30.471874Q195.2354 31.1125 195.2354 32.846874L195.2354 37.55L192.50102 37.55L192.50102 27.175L195.0479 27.175L195.0479 28.70625Q196.40727 26.940624 198.46977 26.940624Q199.37602 26.940624 200.12602 27.26875Q200.87602 27.596874 201.25102 28.1125Q201.64165 28.6125 201.7979 29.26875Q201.95415 29.909374 201.95415 31.096874L201.95415 37.55ZM204.26665 38.2375L207.39165 38.6125Q207.46977 39.159374 207.75102 39.3625Q208.14165 39.659374 208.9854 39.659374Q210.06352 39.659374 210.59477 39.33125Q210.95415 39.128124 211.14165 38.64375Q211.26665 38.3 211.26665 37.378124L211.26665 35.8625Q210.0479 37.55 208.1729 37.55Q206.07915 37.55 204.8604 35.784374Q203.90727 34.378124 203.90727 32.3Q203.90727 29.690624 205.15727 28.315624Q206.40727 26.940624 208.28227 26.940624Q210.20415 26.940624 211.45415 28.628124L211.45415 27.175L214.01665 27.175L214.01665 36.4875Q214.01665 38.315624 213.70415 39.221874Q213.40727 40.14375 212.8604 40.659374Q212.31352 41.175 211.39165 41.45625Q210.4854 41.753124 209.09477 41.753124Q206.45415 41.753124 205.34477 40.846874Q204.25102 39.95625 204.25102 38.565624Q204.25102 38.425 204.26665 38.2375ZM206.71977 32.14375Q206.71977 33.8 207.34477 34.565624Q207.9854 35.33125 208.9229 35.33125Q209.93852 35.33125 210.62602 34.55Q211.32915 33.753124 211.32915 32.221874Q211.32915 30.6125 210.65727 29.83125Q210.00102 29.05 208.9854 29.05Q207.9854 29.05 207.34477 29.815624Q206.71977 30.58125 206.71977 32.14375ZM229.34477 37.55L229.34477 36.003124Q228.78227 36.83125 227.84477 37.315624Q226.9229 37.784374 225.90727 37.784374Q224.8604 37.784374 224.03227 37.33125Q223.20415 36.8625 222.82915 36.034374Q222.45415 35.20625 222.45415 33.7375L222.45415 27.175L225.20415 27.175L225.20415 31.940624Q225.20415 34.128124 225.34477 34.628124Q225.50102 35.1125 225.89165 35.409374Q226.2979 35.690624 226.9229 35.690624Q227.62602 35.690624 228.1729 35.315624Q228.7354 34.925 228.93852 34.3625Q229.14165 33.784374 229.14165 31.55L229.14165 27.175L231.89165 27.175L231.89165 37.55L229.34477 37.55ZM233.5479 34.596874L236.2979 34.175Q236.4854 34.971874 237.01665 35.39375Q237.5479 35.8 238.51665 35.8Q239.57915 35.8 240.12602 35.409374Q240.4854 35.14375 240.4854 34.675Q240.4854 34.3625 240.28227 34.159374Q240.07915 33.971874 239.37602 33.8Q236.0479 33.065624 235.15727 32.45625Q233.9229 31.628124 233.9229 30.128124Q233.9229 28.784374 234.9854 27.8625Q236.06352 26.940624 238.2979 26.940624Q240.4229 26.940624 241.45415 27.64375Q242.50102 28.33125 242.89165 29.690624L240.2979 30.159374Q240.12602 29.565624 239.65727 29.2375Q239.20415 28.909374 238.34477 28.909374Q237.26665 28.909374 236.7979 29.221874Q236.4854 29.440624 236.4854 29.76875Q236.4854 30.065624 236.75102 30.26875Q237.12602 30.55 239.31352 31.05Q241.50102 31.55 242.37602 32.26875Q243.2354 33.003124 243.2354 34.3Q243.2354 35.7375 242.0479 36.76875Q240.8604 37.784374 238.51665 37.784374Q236.40727 37.784374 235.15727 36.925Q233.9229 36.065624 233.5479 34.596874ZM245.51665 25.76875L245.51665 23.2375L248.26665 23.2375L248.26665 25.76875L245.51665 25.76875ZM245.51665 37.55L245.51665 27.175L248.26665 27.175L248.26665 37.55L245.51665 37.55ZM259.95416 37.55L257.20416 37.55L257.20416 32.253124Q257.20416 30.58125 257.0323 30.096874Q256.8604 29.596874 256.45416 29.33125Q256.06354 29.05 255.50102 29.05Q254.7979 29.05 254.21977 29.440624Q253.65727 29.83125 253.43852 30.471874Q253.2354 31.1125 253.2354 32.846874L253.2354 37.55L250.50102 37.55L250.50102 27.175L253.0479 27.175L253.0479 28.70625Q254.40727 26.940624 256.4698 26.940624Q257.37604 26.940624 258.12604 27.26875Q258.87604 27.596874 259.25104 28.1125Q259.64166 28.6125 259.7979 29.26875Q259.95416 29.909374 259.95416 31.096874L259.95416 37.55ZM262.26666 38.2375L265.39166 38.6125Q265.4698 39.159374 265.75104 39.3625Q266.14166 39.659374 266.9854 39.659374Q268.06354 39.659374 268.5948 39.33125Q268.95416 39.128124 269.14166 38.64375Q269.26666 38.3 269.26666 37.378124L269.26666 35.8625Q268.0479 37.55 266.1729 37.55Q264.07916 37.55 262.8604 35.784374Q261.9073 34.378124 261.9073 32.3Q261.9073 29.690624 263.1573 28.315624Q264.4073 26.940624 266.2823 26.940624Q268.20416 26.940624 269.45416 28.628124L269.45416 27.175L272.01666 27.175L272.01666 36.4875Q272.01666 38.315624 271.70416 39.221874Q271.4073 40.14375 270.8604 40.659374Q270.31354 41.175 269.39166 41.45625Q268.4854 41.753124 267.0948 41.753124Q264.45416 41.753124 263.3448 40.846874Q262.25104 39.95625 262.25104 38.565624Q262.25104 38.425 262.26666 38.2375ZM264.7198 32.14375Q264.7198 33.8 265.3448 34.565624Q265.9854 35.33125 266.9229 35.33125Q267.93854 35.33125 268.62604 34.55Q269.32916 33.753124 269.32916 32.221874Q269.32916 30.6125 268.6573 29.83125Q268.00104 29.05 266.9854 29.05Q265.9854 29.05 265.3448 29.815624Q264.7198 30.58125 264.7198 32.14375ZM285.26666 27.175L285.26666 29.3625L283.39166 29.3625L283.39166 33.55Q283.39166 34.815624 283.43854 35.034374Q283.50104 35.2375 283.68854 35.378124Q283.89166 35.503124 284.1573 35.503124Q284.5323 35.503124 285.26666 35.2375L285.50104 37.378124Q284.5323 37.784374 283.32916 37.784374Q282.57916 37.784374 281.9854 37.534374Q281.39166 37.284374 281.1104 36.89375Q280.8448 36.4875 280.7354 35.815624Q280.64166 35.346874 280.64166 33.89375L280.64166 29.3625L279.37604 29.3625L279.37604 27.175L280.64166 27.175L280.64166 25.1125L283.39166 23.51875L283.39166 27.175L285.26666 27.175ZM290.25104 23.2375L290.25104 28.503124Q291.57916 26.940624 293.4229 26.940624Q294.37604 26.940624 295.12604 27.3Q295.89166 27.64375 296.2823 28.190624Q296.6729 28.7375 296.81354 29.409374Q296.95416 30.065624 296.95416 31.471874L296.95416 37.55L294.20416 37.55L294.20416 32.065624Q294.20416 30.440624 294.0479 30.003124Q293.89166 29.565624 293.4854 29.315624Q293.0948 29.05 292.50104 29.05Q291.82916 29.05 291.2823 29.378124Q290.75104 29.70625 290.50104 30.378124Q290.25104 31.05 290.25104 32.346874L290.25104 37.55L287.50104 37.55L287.50104 23.2375L290.25104 23.2375ZM305.51666 34.253124L308.25104 34.70625Q307.7354 36.20625 306.5948 37.003124Q305.45416 37.784374 303.75104 37.784374Q301.0323 37.784374 299.7354 36.01875Q298.7198 34.596874 298.7198 32.440624Q298.7198 29.8625 300.06354 28.409374Q301.4073 26.940624 303.4698 26.940624Q305.7823 26.940624 307.1104 28.471874Q308.45416 30.003124 308.4073 33.159374L301.5323 33.159374Q301.56354 34.378124 302.18854 35.065624Q302.82916 35.7375 303.76666 35.7375Q304.4229 35.7375 304.8604 35.39375Q305.2979 35.034374 305.51666 34.253124ZM305.6729 31.471874Q305.64166 30.284374 305.0479 29.675Q304.4698 29.05 303.64166 29.05Q302.7354 29.05 302.1573 29.690624Q301.56354 30.346874 301.57916 31.471874L305.6729 31.471874ZM316.6104 37.55L316.6104 23.346874L319.50104 23.346874L319.50104 35.14375L326.68854 35.14375L326.68854 37.55L316.6104 37.55ZM330.56354 30.346874L328.07916 29.89375Q328.50104 28.39375 329.51666 27.675Q330.5479 26.940624 332.56354 26.940624Q334.4073 26.940624 335.2979 27.378124Q336.20416 27.815624 336.56354 28.4875Q336.93854 29.14375 336.93854 30.940624L336.9073 34.14375Q336.9073 35.503124 337.0323 36.159374Q337.1729 36.8 337.5323 37.55L334.81354 37.55Q334.70416 37.26875 334.5479 36.7375Q334.4854 36.4875 334.45416 36.409374Q333.75104 37.096874 332.93854 37.440624Q332.14166 37.784374 331.2354 37.784374Q329.64166 37.784374 328.7198 36.925Q327.7979 36.05 327.7979 34.721874Q327.7979 33.83125 328.20416 33.14375Q328.62604 32.45625 329.37604 32.096874Q330.14166 31.721874 331.57916 31.45625Q333.50104 31.096874 334.2354 30.784374L334.2354 30.503124Q334.2354 29.721874 333.8448 29.39375Q333.45416 29.05 332.37604 29.05Q331.64166 29.05 331.2198 29.33125Q330.81354 29.6125 330.56354 30.346874ZM334.2354 32.565624Q333.70416 32.7375 332.56354 32.9875Q331.4229 33.2375 331.07916 33.471874Q330.5323 33.846874 330.5323 34.440624Q330.5323 35.003124 330.95416 35.425Q331.39166 35.846874 332.06354 35.846874Q332.7979 35.846874 333.4698 35.3625Q333.9698 34.9875 334.12604 34.45625Q334.2354 34.096874 334.2354 33.1125L334.2354 32.565624ZM344.26666 27.175L344.26666 29.3625L342.39166 29.3625L342.39166 33.55Q342.39166 34.815624 342.43854 35.034374Q342.50104 35.2375 342.68854 35.378124Q342.89166 35.503124 343.1573 35.503124Q343.5323 35.503124 344.26666 35.2375L344.50104 37.378124Q343.5323 37.784374 342.32916 37.784374Q341.57916 37.784374 340.9854 37.534374Q340.39166 37.284374 340.1104 36.89375Q339.8448 36.4875 339.7354 35.815624Q339.64166 35.346874 339.64166 33.89375L339.64166 29.3625L338.37604 29.3625L338.37604 27.175L339.64166 27.175L339.64166 25.1125L342.39166 23.51875L342.39166 27.175L344.26666 27.175ZM346.51666 25.76875L346.51666 23.2375L349.26666 23.2375L349.26666 25.76875L346.51666 25.76875ZM346.51666 37.55L346.51666 27.175L349.26666 27.175L349.26666 37.55L346.51666 37.55ZM360.95416 37.55L358.20416 37.55L358.20416 32.253124Q358.20416 30.58125 358.0323 30.096874Q357.8604 29.596874 357.45416 29.33125Q357.06354 29.05 356.50104 29.05Q355.7979 29.05 355.2198 29.440624Q354.6573 29.83125 354.43854 30.471874Q354.2354 31.1125 354.2354 32.846874L354.2354 37.55L351.50104 37.55L351.50104 27.175L354.0479 27.175L354.0479 28.70625Q355.4073 26.940624 357.4698 26.940624Q358.37604 26.940624 359.12604 27.26875Q359.87604 27.596874 360.25104 28.1125Q360.64166 28.6125 360.7979 29.26875Q360.95416 29.909374 360.95416 31.096874L360.95416 37.55ZM371.56354 30.346874L369.07916 29.89375Q369.50104 28.39375 370.51666 27.675Q371.5479 26.940624 373.56354 26.940624Q375.4073 26.940624 376.2979 27.378124Q377.20416 27.815624 377.56354 28.4875Q377.93854 29.14375 377.93854 30.940624L377.9073 34.14375Q377.9073 35.503124 378.0323 36.159374Q378.1729 36.8 378.5323 37.55L375.81354 37.55Q375.70416 37.26875 375.5479 36.7375Q375.4854 36.4875 375.45416 36.409374Q374.75104 37.096874 373.93854 37.440624Q373.14166 37.784374 372.2354 37.784374Q370.64166 37.784374 369.7198 36.925Q368.7979 36.05 368.7979 34.721874Q368.7979 33.83125 369.20416 33.14375Q369.62604 32.45625 370.37604 32.096874Q371.14166 31.721874 372.57916 31.45625Q374.50104 31.096874 375.2354 30.784374L375.2354 30.503124Q375.2354 29.721874 374.8448 29.39375Q374.45416 29.05 373.37604 29.05Q372.64166 29.05 372.2198 29.33125Q371.81354 29.6125 371.56354 30.346874ZM375.2354 32.565624Q374.70416 32.7375 373.56354 32.9875Q372.4229 33.2375 372.07916 33.471874Q371.5323 33.846874 371.5323 34.440624Q371.5323 35.003124 371.95416 35.425Q372.39166 35.846874 373.06354 35.846874Q373.7979 35.846874 374.4698 35.3625Q374.9698 34.9875 375.12604 34.45625Q375.2354 34.096874 375.2354 33.1125L375.2354 32.565624ZM380.51666 37.55L380.51666 23.2375L383.26666 23.2375L383.26666 37.55L380.51666 37.55ZM385.43854 27.175L388.00104 27.175L388.00104 28.70625Q388.50104 27.925 389.3448 27.440624Q390.18854 26.940624 391.2354 26.940624Q393.0323 26.940624 394.2823 28.3625Q395.5479 29.76875 395.5479 32.3Q395.5479 34.909374 394.2823 36.346874Q393.01666 37.784374 391.20416 37.784374Q390.3448 37.784374 389.64166 37.440624Q388.95416 37.096874 388.18854 36.26875L388.18854 41.503124L385.43854 41.503124L385.43854 27.175ZM388.1573 32.190624Q388.1573 33.940624 388.8448 34.784374Q389.5323 35.6125 390.5323 35.6125Q391.4854 35.6125 392.12604 34.846874Q392.76666 34.065624 392.76666 32.33125Q392.76666 30.690624 392.1104 29.909374Q391.45416 29.1125 390.4854 29.1125Q389.4854 29.1125 388.81354 29.89375Q388.1573 30.659374 388.1573 32.190624ZM400.25104 23.2375L400.25104 28.503124Q401.57916 26.940624 403.4229 26.940624Q404.37604 26.940624 405.12604 27.3Q405.89166 27.64375 406.2823 28.190624Q406.6729 28.7375 406.81354 29.409374Q406.95416 30.065624 406.95416 31.471874L406.95416 37.55L404.20416 37.55L404.20416 32.065624Q404.20416 30.440624 404.0479 30.003124Q403.89166 29.565624 403.4854 29.315624Q403.0948 29.05 402.50104 29.05Q401.82916 29.05 401.2823 29.378124Q400.75104 29.70625 400.50104 30.378124Q400.25104 31.05 400.25104 32.346874L400.25104 37.55L397.50104 37.55L397.50104 23.2375L400.25104 23.2375ZM411.56354 30.346874L409.07916 29.89375Q409.50104 28.39375 410.51666 27.675Q411.5479 26.940624 413.56354 26.940624Q415.4073 26.940624 416.2979 27.378124Q417.20416 27.815624 417.56354 28.4875Q417.93854 29.14375 417.93854 30.940624L417.9073 34.14375Q417.9073 35.503124 418.0323 36.159374Q418.1729 36.8 418.5323 37.55L415.81354 37.55Q415.70416 37.26875 415.5479 36.7375Q415.4854 36.4875 415.45416 36.409374Q414.75104 37.096874 413.93854 37.440624Q413.14166 37.784374 412.2354 37.784374Q410.64166 37.784374 409.7198 36.925Q408.7979 36.05 408.7979 34.721874Q408.7979 33.83125 409.20416 33.14375Q409.62604 32.45625 410.37604 32.096874Q411.14166 31.721874 412.57916 31.45625Q414.50104 31.096874 415.2354 30.784374L415.2354 30.503124Q415.2354 29.721874 414.8448 29.39375Q414.45416 29.05 413.37604 29.05Q412.64166 29.05 412.2198 29.33125Q411.81354 29.6125 411.56354 30.346874ZM415.2354 32.565624Q414.70416 32.7375 413.56354 32.9875Q412.4229 33.2375 412.07916 33.471874Q411.5323 33.846874 411.5323 34.440624Q411.5323 35.003124 411.95416 35.425Q412.39166 35.846874 413.06354 35.846874Q413.7979 35.846874 414.4698 35.3625Q414.9698 34.9875 415.12604 34.45625Q415.2354 34.096874 415.2354 33.1125L415.2354 32.565624ZM420.39166 37.55L420.39166 23.2375L423.14166 23.2375L423.14166 28.39375Q424.4073 26.940624 426.1573 26.940624Q428.0479 26.940624 429.2823 28.315624Q430.5323 29.690624 430.5323 32.253124Q430.5323 34.909374 429.26666 36.346874Q428.00104 37.784374 426.18854 37.784374Q425.2979 37.784374 424.43854 37.346874Q423.57916 36.89375 422.95416 36.01875L422.95416 37.55L420.39166 37.55ZM423.12604 32.14375Q423.12604 33.753124 423.62604 34.51875Q424.3448 35.6125 425.5323 35.6125Q426.43854 35.6125 427.07916 34.846874Q427.7198 34.065624 427.7198 32.39375Q427.7198 30.6125 427.06354 29.83125Q426.4229 29.05 425.4229 29.05Q424.43854 29.05 423.7823 29.815624Q423.12604 30.58125 423.12604 32.14375ZM438.51666 34.253124L441.25104 34.70625Q440.7354 36.20625 439.5948 37.003124Q438.45416 37.784374 436.75104 37.784374Q434.0323 37.784374 432.7354 36.01875Q431.7198 34.596874 431.7198 32.440624Q431.7198 29.8625 433.06354 28.409374Q434.4073 26.940624 436.4698 26.940624Q438.7823 26.940624 440.1104 28.471874Q441.45416 30.003124 441.4073 33.159374L434.5323 33.159374Q434.56354 34.378124 435.18854 35.065624Q435.82916 35.7375 436.76666 35.7375Q437.4229 35.7375 437.8604 35.39375Q438.2979 35.034374 438.51666 34.253124ZM438.6729 31.471874Q438.64166 30.284374 438.0479 29.675Q437.4698 29.05 436.64166 29.05Q435.7354 29.05 435.1573 29.690624Q434.56354 30.346874 434.57916 31.471874L438.6729 31.471874ZM448.26666 27.175L448.26666 29.3625L446.39166 29.3625L446.39166 33.55Q446.39166 34.815624 446.43854 35.034374Q446.50104 35.2375 446.68854 35.378124Q446.89166 35.503124 447.1573 35.503124Q447.5323 35.503124 448.26666 35.2375L448.50104 37.378124Q447.5323 37.784374 446.32916 37.784374Q445.57916 37.784374 444.9854 37.534374Q444.39166 37.284374 444.1104 36.89375Q443.8448 36.4875 443.7354 35.815624Q443.64166 35.346874 443.64166 33.89375L443.64166 29.3625L442.37604 29.3625L442.37604 27.175L443.64166 27.175L443.64166 25.1125L446.39166 23.51875L446.39166 27.175L448.26666 27.175ZM455.5479 34.596874L458.2979 34.175Q458.4854 34.971874 459.01666 35.39375Q459.5479 35.8 460.51666 35.8Q461.57916 35.8 462.12604 35.409374Q462.4854 35.14375 462.4854 34.675Q462.4854 34.3625 462.2823 34.159374Q462.07916 33.971874 461.37604 33.8Q458.0479 33.065624 457.1573 32.45625Q455.9229 31.628124 455.9229 30.128124Q455.9229 28.784374 456.9854 27.8625Q458.06354 26.940624 460.2979 26.940624Q462.4229 26.940624 463.45416 27.64375Q464.50104 28.33125 464.89166 29.690624L462.2979 30.159374Q462.12604 29.565624 461.6573 29.2375Q461.20416 28.909374 460.3448 28.909374Q459.26666 28.909374 458.7979 29.221874Q458.4854 29.440624 458.4854 29.76875Q458.4854 30.065624 458.75104 30.26875Q459.12604 30.55 461.31354 31.05Q463.50104 31.55 464.37604 32.26875Q465.2354 33.003124 465.2354 34.3Q465.2354 35.7375 464.0479 36.76875Q462.8604 37.784374 460.51666 37.784374Q458.4073 37.784374 457.1573 36.925Q455.9229 36.065624 455.5479 34.596874ZM474.3448 37.55L474.3448 36.003124Q473.7823 36.83125 472.8448 37.315624Q471.9229 37.784374 470.9073 37.784374Q469.8604 37.784374 469.0323 37.33125Q468.20416 36.8625 467.82916 36.034374Q467.45416 35.20625 467.45416 33.7375L467.45416 27.175L470.20416 27.175L470.20416 31.940624Q470.20416 34.128124 470.3448 34.628124Q470.50104 35.1125 470.89166 35.409374Q471.2979 35.690624 471.9229 35.690624Q472.62604 35.690624 473.1729 35.315624Q473.7354 34.925 473.93854 34.3625Q474.14166 33.784374 474.14166 31.55L474.14166 27.175L476.89166 27.175L476.89166 37.55L474.3448 37.55ZM479.51666 25.76875L479.51666 23.2375L482.26666 23.2375L482.26666 25.76875L479.51666 25.76875ZM479.51666 37.55L479.51666 27.175L482.26666 27.175L482.26666 37.55L479.51666 37.55ZM489.26666 27.175L489.26666 29.3625L487.39166 29.3625L487.39166 33.55Q487.39166 34.815624 487.43854 35.034374Q487.50104 35.2375 487.68854 35.378124Q487.89166 35.503124 488.1573 35.503124Q488.5323 35.503124 489.26666 35.2375L489.50104 37.378124Q488.5323 37.784374 487.32916 37.784374Q486.57916 37.784374 485.9854 37.534374Q485.39166 37.284374 485.1104 36.89375Q484.8448 36.4875 484.7354 35.815624Q484.64166 35.346874 484.64166 33.89375L484.64166 29.3625L483.37604 29.3625L483.37604 27.175L484.64166 27.175L484.64166 25.1125L487.39166 23.51875L487.39166 27.175L489.26666 27.175ZM493.56354 30.346874L491.07916 29.89375Q491.50104 28.39375 492.51666 27.675Q493.5479 26.940624 495.56354 26.940624Q497.4073 26.940624 498.2979 27.378124Q499.20416 27.815624 499.56354 28.4875Q499.93854 29.14375 499.93854 30.940624L499.9073 34.14375Q499.9073 35.503124 500.0323 36.159374Q500.1729 36.8 500.5323 37.55L497.81354 37.55Q497.70416 37.26875 497.5479 36.7375Q497.4854 36.4875 497.45416 36.409374Q496.75104 37.096874 495.93854 37.440624Q495.14166 37.784374 494.2354 37.784374Q492.64166 37.784374 491.7198 36.925Q490.7979 36.05 490.7979 34.721874Q490.7979 33.83125 491.20416 33.14375Q491.62604 32.45625 492.37604 32.096874Q493.14166 31.721874 494.57916 31.45625Q496.50104 31.096874 497.2354 30.784374L497.2354 30.503124Q497.2354 29.721874 496.8448 29.39375Q496.45416 29.05 495.37604 29.05Q494.64166 29.05 494.2198 29.33125Q493.81354 29.6125 493.56354 30.346874ZM497.2354 32.565624Q496.70416 32.7375 495.56354 32.9875Q494.4229 33.2375 494.07916 33.471874Q493.5323 33.846874 493.5323 34.440624Q493.5323 35.003124 493.95416 35.425Q494.39166 35.846874 495.06354 35.846874Q495.7979 35.846874 496.4698 35.3625Q496.9698 34.9875 497.12604 34.45625Q497.2354 34.096874 497.2354 33.1125L497.2354 32.565624ZM502.39166 37.55L502.39166 23.2375L505.14166 23.2375L505.14166 28.39375Q506.4073 26.940624 508.1573 26.940624Q510.0479 26.940624 511.2823 28.315624Q512.5323 29.690624 512.5323 32.253124Q512.5323 34.909374 511.26666 36.346874Q510.00104 37.784374 508.18854 37.784374Q507.2979 37.784374 506.43854 37.346874Q505.57916 36.89375 504.95416 36.01875L504.95416 37.55L502.39166 37.55ZM505.12604 32.14375Q505.12604 33.753124 505.62604 34.51875Q506.3448 35.6125 507.5323 35.6125Q508.43854 35.6125 509.07916 34.846874Q509.7198 34.065624 509.7198 32.39375Q509.7198 30.6125 509.06354 29.83125Q508.4229 29.05 507.4229 29.05Q506.43854 29.05 505.7823 29.815624Q505.12604 30.58125 505.12604 32.14375ZM514.51666 37.55L514.51666 23.2375L517.26666 23.2375L517.26666 37.55L514.51666 37.55ZM525.51666 34.253124L528.25104 34.70625Q527.7354 36.20625 526.5948 37.003124Q525.45416 37.784374 523.75104 37.784374Q521.0323 37.784374 519.7354 36.01875Q518.7198 34.596874 518.7198 32.440624Q518.7198 29.8625 520.06354 28.409374Q521.4073 26.940624 523.4698 26.940624Q525.7823 26.940624 527.1104 28.471874Q528.45416 30.003124 528.4073 33.159374L521.5323 33.159374Q521.56354 34.378124 522.18854 35.065624Q522.82916 35.7375 523.76666 35.7375Q524.4229 35.7375 524.8604 35.39375Q525.2979 35.034374 525.51666 34.253124ZM525.6729 31.471874Q525.64166 30.284374 525.0479 29.675Q524.4698 29.05 523.64166 29.05Q522.7354 29.05 522.1573 29.690624Q521.56354 30.346874 521.57916 31.471874L525.6729 31.471874ZM535.31354 27.175L536.8448 27.175L536.8448 26.39375Q536.8448 25.08125 537.1104 24.440624Q537.39166 23.8 538.14166 23.39375Q538.89166 22.9875 540.0323 22.9875Q541.20416 22.9875 542.32916 23.346874L541.95416 25.253124Q541.2979 25.096874 540.68854 25.096874Q540.0948 25.096874 539.82916 25.378124Q539.57916 25.659374 539.57916 26.440624L539.57916 27.175L541.62604 27.175L541.62604 29.33125L539.57916 29.33125L539.57916 37.55L536.8448 37.55L536.8448 29.33125L535.31354 29.33125L535.31354 27.175ZM542.87604 32.221874Q542.87604 30.846874 543.5479 29.565624Q544.2354 28.284374 545.4698 27.6125Q546.70416 26.940624 548.2198 26.940624Q550.57916 26.940624 552.07916 28.471874Q553.57916 30.003124 553.57916 32.33125Q553.57916 34.690624 552.06354 36.2375Q550.5479 37.784374 548.2354 37.784374Q546.81354 37.784374 545.51666 37.14375Q544.2354 36.4875 543.5479 35.253124Q542.87604 34.003124 542.87604 32.221874ZM545.68854 32.3625Q545.68854 33.909374 546.4229 34.7375Q547.1573 35.55 548.2354 35.55Q549.31354 35.55 550.0323 34.7375Q550.76666 33.909374 550.76666 32.346874Q550.76666 30.815624 550.0323 30.003124Q549.31354 29.175 548.2354 29.175Q547.1573 29.175 546.4229 30.003124Q545.68854 30.815624 545.68854 32.3625ZM558.14166 37.55L555.39166 37.55L555.39166 27.175L557.95416 27.175L557.95416 28.659374Q558.5948 27.6125 559.1104 27.284374Q559.64166 26.940624 560.31354 26.940624Q561.25104 26.940624 562.1104 27.45625L561.26666 29.846874Q560.57916 29.409374 559.9854 29.409374Q559.4073 29.409374 559.00104 29.721874Q558.5948 30.034374 558.3604 30.878124Q558.14166 31.70625 558.14166 34.346874L558.14166 37.55Z" fill-rule="nonzero"/><path fill="#000000" d="M267.5323 47.2375L272.81354 47.2375Q274.5948 47.2375 275.5323 47.503124Q276.7979 47.878124 277.68854 48.83125Q278.5948 49.76875 279.06354 51.14375Q279.5323 52.51875 279.5323 54.534374Q279.5323 56.3 279.0948 57.58125Q278.5479 59.14375 277.5479 60.096874Q276.7979 60.83125 275.51666 61.253124Q274.56354 61.55 272.9698 61.55L267.5323 61.55L267.5323 47.2375ZM270.4229 49.659374L270.4229 59.14375L272.57916 59.14375Q273.7823 59.14375 274.32916 59.003124Q275.0323 58.83125 275.4854 58.409374Q275.95416 57.9875 276.2354 57.034374Q276.5323 56.065624 276.5323 54.39375Q276.5323 52.7375 276.2354 51.846874Q275.95416 50.95625 275.4229 50.471874Q274.89166 49.971874 274.0948 49.784374Q273.4854 49.659374 271.7198 49.659374L270.4229 49.659374ZM283.56354 54.346874L281.07916 53.89375Q281.50104 52.39375 282.51666 51.675Q283.5479 50.940624 285.56354 50.940624Q287.4073 50.940624 288.2979 51.378124Q289.20416 51.815624 289.56354 52.4875Q289.93854 53.14375 289.93854 54.940624L289.9073 58.14375Q289.9073 59.503124 290.0323 60.159374Q290.1729 60.8 290.5323 61.55L287.81354 61.55Q287.70416 61.26875 287.5479 60.7375Q287.4854 60.4875 287.45416 60.409374Q286.75104 61.096874 285.93854 61.440624Q285.14166 61.784374 284.2354 61.784374Q282.64166 61.784374 281.7198 60.925Q280.7979 60.05 280.7979 58.721874Q280.7979 57.83125 281.20416 57.14375Q281.62604 56.45625 282.37604 56.096874Q283.14166 55.721874 284.57916 55.45625Q286.50104 55.096874 287.2354 54.784374L287.2354 54.503124Q287.2354 53.721874 286.8448 53.39375Q286.45416 53.05 285.37604 53.05Q284.64166 53.05 284.2198 53.33125Q283.81354 53.6125 283.56354 54.346874ZM287.2354 56.565624Q286.70416 56.7375 285.56354 56.9875Q284.4229 57.2375 284.07916 57.471874Q283.5323 57.846874 283.5323 58.440624Q283.5323 59.003124 283.95416 59.425Q284.39166 59.846874 285.06354 59.846874Q285.7979 59.846874 286.4698 59.3625Q286.9698 58.9875 287.12604 58.45625Q287.2354 58.096874 287.2354 57.1125L287.2354 56.565624ZM295.14166 61.55L292.39166 61.55L292.39166 51.175L294.95416 51.175L294.95416 52.659374Q295.5948 51.6125 296.1104 51.284374Q296.64166 50.940624 297.31354 50.940624Q298.25104 50.940624 299.1104 51.45625L298.26666 53.846874Q297.57916 53.409374 296.9854 53.409374Q296.4073 53.409374 296.00104 53.721874Q295.5948 54.034374 295.3604 54.878124Q295.14166 55.70625 295.14166 58.346874L295.14166 61.55ZM300.51666 49.76875L300.51666 47.2375L303.26666 47.2375L303.26666 49.76875L300.51666 49.76875ZM300.51666 61.55L300.51666 51.175L303.26666 51.175L303.26666 61.55L300.51666 61.55ZM305.45416 49.76875L305.45416 47.2375L308.20416 47.2375L308.20416 49.76875L305.45416 49.76875ZM308.20416 51.175L308.20416 61.221874Q308.20416 63.20625 307.93854 64.01875Q307.68854 64.84688 306.93854 65.3Q306.20416 65.75313 305.06354 65.75313Q304.6573 65.75313 304.1729 65.675Q303.70416 65.6125 303.1573 65.47188L303.64166 63.128124Q303.82916 63.159374 304.00104 63.175Q304.1729 63.20625 304.32916 63.20625Q304.75104 63.20625 305.01666 63.01875Q305.2823 62.846874 305.3604 62.596874Q305.45416 62.346874 305.45416 61.065624L305.45416 51.175L308.20416 51.175ZM312.56354 54.346874L310.07916 53.89375Q310.50104 52.39375 311.51666 51.675Q312.5479 50.940624 314.56354 50.940624Q316.4073 50.940624 317.2979 51.378124Q318.20416 51.815624 318.56354 52.4875Q318.93854 53.14375 318.93854 54.940624L318.9073 58.14375Q318.9073 59.503124 319.0323 60.159374Q319.1729 60.8 319.5323 61.55L316.81354 61.55Q316.70416 61.26875 316.5479 60.7375Q316.4854 60.4875 316.45416 60.409374Q315.75104 61.096874 314.93854 61.440624Q314.14166 61.784374 313.2354 61.784374Q311.64166 61.784374 310.7198 60.925Q309.7979 60.05 309.7979 58.721874Q309.7979 57.83125 310.20416 57.14375Q310.62604 56.45625 311.37604 56.096874Q312.14166 55.721874 313.57916 55.45625Q315.50104 55.096874 316.2354 54.784374L316.2354 54.503124Q316.2354 53.721874 315.8448 53.39375Q315.45416 53.05 314.37604 53.05Q313.64166 53.05 313.2198 53.33125Q312.81354 53.6125 312.56354 54.346874ZM316.2354 56.565624Q315.70416 56.7375 314.56354 56.9875Q313.4229 57.2375 313.07916 57.471874Q312.5323 57.846874 312.5323 58.440624Q312.5323 59.003124 312.95416 59.425Q313.39166 59.846874 314.06354 59.846874Q314.7979 59.846874 315.4698 59.3625Q315.9698 58.9875 316.12604 58.45625Q316.2354 58.096874 316.2354 57.1125L316.2354 56.565624ZM327.4073 57.8625L324.9229 57.8625Q324.9073 57.315624 324.9073 57.20625Q324.9073 55.9875 325.31354 55.20625Q325.7198 54.425 326.9073 53.45625Q328.1104 52.471874 328.3448 52.175Q328.7198 51.690624 328.7198 51.1125Q328.7198 50.315624 328.07916 49.753124Q327.43854 49.175 326.3448 49.175Q325.2979 49.175 324.5948 49.76875Q323.89166 50.3625 323.64166 51.58125L321.1104 51.26875Q321.2198 49.534374 322.5948 48.315624Q323.9854 47.08125 326.2354 47.08125Q328.5948 47.08125 329.9854 48.315624Q331.39166 49.55 331.39166 51.190624Q331.39166 52.1125 330.87604 52.925Q330.3604 53.721874 328.68854 55.128124Q327.81354 55.846874 327.5948 56.284374Q327.39166 56.721874 327.4073 57.8625ZM324.9229 61.55L324.9229 58.8L327.6729 58.8L327.6729 61.55L324.9229 61.55Z" fill-rule="nonzero"/></svg>