<svg version="1.1" viewBox="0.0 0.0 600.0 371.0" fill="none" stroke="none" stroke-linecap="square" stroke-miterlimit="10" width="600" height="371" xmlns:xlink="http://www.w3.org/1999/xlink" xmlns="http://www.w3.org/2000/svg"><path fill="#ffffff" d="M0 0L600.0 0L600.0 371.0L0 371.0L0 0Z" fill-rule="nonzero"/><path fill="#00b3b3" d="M189.91473 256.0709C173.3356 239.92876 164.41667 220.54974 164.41667 200.66875L164.41667 180.33125C164.41667 200.21223 173.3356 219.59126 189.91473 235.73338Z" fill-rule="nonzero"/><path fill="#00ffff" d="M189.91473 235.73338C160.2238 206.82507 156.14398 168.71613 179.34822 137.03305C202.55244 105.34998 249.13702 85.42292 300.0 85.42292L300.0 180.33125Z" fill-rule="nonzero"/><path fill="#b3b300" d="M241.17259 286.1782C220.76169 279.29764 203.1391 268.94666 189.91473 256.0709L189.91473 235.73338C203.1391 248.60916 220.76169 258.96014 241.17259 265.8407Z" fill-rule="nonzero"/><path fill="#ffff00" d="M241.17259 265.8407C220.76169 258.96014 203.1391 248.60916 189.91473 235.73338L300.0 180.33125Z" fill-rule="nonzero"/><path fill="#b30000" d="M435.58334 200.66875C435.58334 233.31123 411.61923 263.6631 372.13467 281.02994C332.65015 298.3968 283.18668 300.34125 241.17259 286.1782L241.17259 265.8407C283.18668 280.00375 332.65015 278.05927 372.13467 260.69244C411.61923 243.32559 435.58334 212.97372 435.58334 180.33125Z" fill-rule="nonzero"/><path fill="#ff0000" d="M300.0 85.42292C355.76257 85.42292 405.83862 109.32181 426.21097 145.65735C446.5833 181.99287 433.09692 223.35426 392.2201 249.90398C351.34323 276.4537 291.41293 282.77682 241.17259 265.8407L300.0 180.33125Z" fill-rule="nonzero"/><path fill="#000000" d="M372.34177 197.36737L373.63864 197.258Q373.77927 198.1955 374.2949 198.67987Q374.82614 199.14862 375.56052 199.14862Q376.45114 199.14862 377.06052 198.47675Q377.68552 197.80487 377.68552 196.71112Q377.68552 195.64862 377.09177 195.03925Q376.49802 194.42987 375.5449 194.42987Q374.95114 194.42987 374.46677 194.71112Q373.99802 194.97675 373.71677 195.39862L372.56052 195.258L373.52927 190.10175L378.51364 190.10175L378.51364 191.28925L374.51364 191.28925L373.9824 193.97675Q374.88864 193.35175 375.87302 193.35175Q377.18552 193.35175 378.07614 194.258Q378.9824 195.16425 378.9824 196.60175Q378.9824 197.96112 378.20114 198.9455Q377.2324 200.16425 375.56052 200.16425Q374.20114 200.16425 373.32614 199.39862Q372.46677 198.633 372.34177 197.36737ZM380.4199 191.28925L380.4199 190.10175L386.9199 190.10175L386.9199 191.05487Q385.95114 192.0705 385.01364 193.758Q384.07614 195.4455 383.56052 197.24237Q383.20114 198.49237 383.09177 199.99237L381.82614 199.99237Q381.84177 198.80487 382.27927 197.133Q382.7324 195.46112 383.56052 193.91425Q384.40427 192.35175 385.34177 191.28925L380.4199 191.28925ZM389.02927 199.99237L389.02927 198.58612L390.43552 198.58612L390.43552 199.99237L389.02927 199.99237ZM396.9824 199.99237L395.74802 199.99237L395.74802 192.14862Q395.31052 192.5705 394.57614 193.008Q393.8574 193.42987 393.2949 193.633L393.2949 192.4455Q394.32614 191.96112 395.09177 191.27362Q395.87302 190.58612 396.18552 189.92987L396.9824 189.92987L396.9824 199.99237ZM400.57614 192.383Q400.57614 191.30487 401.1074 190.55487Q401.65427 189.80487 402.68552 189.80487Q403.62302 189.80487 404.2324 190.47675Q404.8574 191.14862 404.8574 192.4455Q404.8574 193.72675 404.2324 194.41425Q403.6074 195.10175 402.70114 195.10175Q401.7949 195.10175 401.18552 194.42987Q400.57614 193.74237 400.57614 192.383ZM402.71677 190.64862Q402.26364 190.64862 401.95114 191.05487Q401.65427 191.4455 401.65427 192.49237Q401.65427 193.46112 401.95114 193.85175Q402.26364 194.24237 402.71677 194.24237Q403.18552 194.24237 403.4824 193.85175Q403.7949 193.46112 403.7949 192.39862Q403.7949 191.42987 403.4824 191.03925Q403.1699 190.64862 402.71677 190.64862ZM402.71677 200.36737L408.20114 189.80487L409.20114 189.80487L403.74802 200.36737L402.71677 200.36737ZM407.06052 197.633Q407.06052 196.55487 407.59177 195.8205Q408.13864 195.0705 409.1699 195.0705Q410.1074 195.0705 410.7324 195.74237Q411.3574 196.41425 411.3574 197.71112Q411.3574 198.99237 410.7324 199.67987Q410.1074 200.36737 409.1699 200.36737Q408.26364 200.36737 407.65427 199.6955Q407.06052 199.008 407.06052 197.633ZM409.20114 195.91425Q408.7324 195.91425 408.43552 196.3205Q408.13864 196.71112 408.13864 197.758Q408.13864 198.72675 408.43552 199.11737Q408.74802 199.508 409.20114 199.508Q409.6699 199.508 409.96677 199.11737Q410.27927 198.72675 410.27927 197.66425Q410.27927 196.6955 409.96677 196.30487Q409.6699 195.91425 409.20114 195.91425Z" fill-rule="nonzero"/><path fill="#000000" d="M224.90184 226.4769L224.90184 225.2894L231.40184 225.2894L231.40184 226.24252Q230.43309 227.25815 229.49559 228.94565Q228.55809 230.63315 228.04247 232.43002Q227.68309 233.68002 227.57372 235.18002L226.30809 235.18002Q226.32372 233.99252 226.76122 232.32065Q227.21434 230.64877 228.04247 229.1019Q228.88622 227.5394 229.82372 226.4769L224.90184 226.4769ZM233.51122 235.18002L233.51122 233.77377L234.91747 233.77377L234.91747 235.18002L233.51122 235.18002ZM237.01122 232.86752L238.19872 232.75815Q238.33934 233.58627 238.76122 233.96127Q239.19872 234.33627 239.85497 234.33627Q240.41747 234.33627 240.83934 234.08627Q241.27684 233.82065 241.54247 233.38315Q241.82372 232.94565 242.01122 232.21127Q242.19872 231.4769 242.19872 230.71127Q242.19872 230.63315 242.18309 230.46127Q241.82372 231.05502 241.18309 231.43002Q240.54247 231.7894 239.79247 231.7894Q238.54247 231.7894 237.68309 230.88315Q236.82372 229.9769 236.82372 228.50815Q236.82372 226.9769 237.71434 226.05502Q238.62059 225.11752 239.97997 225.11752Q240.94872 225.11752 241.76122 225.64877Q242.57372 226.1644 242.99559 227.14877Q243.41747 228.11752 243.41747 229.96127Q243.41747 231.88315 242.99559 233.02377Q242.58934 234.1644 241.76122 234.75815Q240.93309 235.3519 239.82372 235.3519Q238.65184 235.3519 237.90184 234.69565Q237.16747 234.0394 237.01122 232.86752ZM242.04247 228.44565Q242.04247 227.38315 241.47997 226.75815Q240.91747 226.13315 240.13622 226.13315Q239.30809 226.13315 238.69872 226.80502Q238.08934 227.4769 238.08934 228.5394Q238.08934 229.49252 238.66747 230.1019Q239.24559 230.69565 240.08934 230.69565Q240.94872 230.69565 241.49559 230.1019Q242.04247 229.49252 242.04247 228.44565ZM245.05809 227.57065Q245.05809 226.49252 245.58934 225.74252Q246.13622 224.99252 247.16747 224.99252Q248.10497 224.99252 248.71434 225.6644Q249.33934 226.33627 249.33934 227.63315Q249.33934 228.9144 248.71434 229.6019Q248.08934 230.2894 247.18309 230.2894Q246.27684 230.2894 245.66747 229.61752Q245.05809 228.93002 245.05809 227.57065ZM247.19872 225.83627Q246.74559 225.83627 246.43309 226.24252Q246.13622 226.63315 246.13622 227.68002Q246.13622 228.64877 246.43309 229.0394Q246.74559 229.43002 247.19872 229.43002Q247.66747 229.43002 247.96434 229.0394Q248.27684 228.64877 248.27684 227.58627Q248.27684 226.61752 247.96434 226.2269Q247.65184 225.83627 247.19872 225.83627ZM247.19872 235.55502L252.68309 224.99252L253.68309 224.99252L248.22997 235.55502L247.19872 235.55502ZM251.54247 232.82065Q251.54247 231.74252 252.07372 231.00815Q252.62059 230.25815 253.65184 230.25815Q254.58934 230.25815 255.21434 230.93002Q255.83934 231.6019 255.83934 232.89877Q255.83934 234.18002 255.21434 234.86752Q254.58934 235.55502 253.65184 235.55502Q252.74559 235.55502 252.13622 234.88315Q251.54247 234.19565 251.54247 232.82065ZM253.68309 231.1019Q253.21434 231.1019 252.91747 231.50815Q252.62059 231.89877 252.62059 232.94565Q252.62059 233.9144 252.91747 234.30502Q253.22997 234.69565 253.68309 234.69565Q254.15184 234.69565 254.44872 234.30502Q254.76122 233.9144 254.76122 232.8519Q254.76122 231.88315 254.44872 231.49252Q254.15184 231.1019 253.68309 231.1019Z" fill-rule="nonzero"/><path fill="#000000" d="M199.49986 153.58855L200.71861 153.41667Q200.93736 154.46355 201.43736 154.9323Q201.95299 155.38542 202.68736 155.38542Q203.56236 155.38542 204.15611 154.79167Q204.74986 154.1823 204.74986 153.29167Q204.74986 152.44792 204.18736 151.90105Q203.64049 151.35417 202.79674 151.35417Q202.43736 151.35417 201.92174 151.47917L202.06236 150.40105Q202.18736 150.41667 202.24986 150.41667Q203.04674 150.41667 203.67174 150.01042Q204.29674 149.60417 204.29674 148.7448Q204.29674 148.07292 203.84361 147.63542Q203.39049 147.1823 202.65611 147.1823Q201.93736 147.1823 201.45299 147.63542Q200.98424 148.07292 200.84361 148.97917L199.62486 148.76042Q199.84361 147.52605 200.64049 146.85417Q201.43736 146.16667 202.62486 146.16667Q203.45299 146.16667 204.14049 146.52605Q204.82799 146.8698 205.18736 147.47917Q205.56236 148.08855 205.56236 148.77605Q205.56236 149.41667 205.21861 149.94792Q204.87486 150.47917 204.18736 150.8073Q205.07799 151.01042 205.56236 151.65105Q206.06236 152.29167 206.06236 153.27605Q206.06236 154.58855 205.09361 155.4948Q204.14049 156.40105 202.68736 156.40105Q201.35924 156.40105 200.48424 155.6198Q199.62486 154.83855 199.49986 153.58855ZM211.43736 156.22917L211.43736 153.82292L207.07799 153.82292L207.07799 152.69792L211.65611 146.21355L212.65611 146.21355L212.65611 152.69792L214.01549 152.69792L214.01549 153.82292L212.65611 153.82292L212.65611 156.22917L211.43736 156.22917ZM211.43736 152.69792L211.43736 148.1823L208.29674 152.69792L211.43736 152.69792ZM216.17174 156.22917L216.17174 154.82292L217.57799 154.82292L217.57799 156.22917L216.17174 156.22917ZM219.67174 153.91667L220.85924 153.8073Q220.99986 154.63542 221.42174 155.01042Q221.85924 155.38542 222.51549 155.38542Q223.07799 155.38542 223.49986 155.13542Q223.93736 154.8698 224.20299 154.4323Q224.48424 153.9948 224.67174 153.26042Q224.85924 152.52605 224.85924 151.76042Q224.85924 151.6823 224.84361 151.51042Q224.48424 152.10417 223.84361 152.47917Q223.20299 152.83855 222.45299 152.83855Q221.20299 152.83855 220.34361 151.9323Q219.48424 151.02605 219.48424 149.5573Q219.48424 148.02605 220.37486 147.10417Q221.28111 146.16667 222.64049 146.16667Q223.60924 146.16667 224.42174 146.69792Q225.23424 147.21355 225.65611 148.19792Q226.07799 149.16667 226.07799 151.01042Q226.07799 152.9323 225.65611 154.07292Q225.24986 155.21355 224.42174 155.8073Q223.59361 156.40105 222.48424 156.40105Q221.31236 156.40105 220.56236 155.7448Q219.82799 155.08855 219.67174 153.91667ZM224.70299 149.4948Q224.70299 148.4323 224.14049 147.8073Q223.57799 147.1823 222.79674 147.1823Q221.96861 147.1823 221.35924 147.85417Q220.74986 148.52605 220.74986 149.58855Q220.74986 150.54167 221.32799 151.15105Q221.90611 151.7448 222.74986 151.7448Q223.60924 151.7448 224.15611 151.15105Q224.70299 150.54167 224.70299 149.4948ZM227.71861 148.6198Q227.71861 147.54167 228.24986 146.79167Q228.79674 146.04167 229.82799 146.04167Q230.76549 146.04167 231.37486 146.71355Q231.99986 147.38542 231.99986 148.6823Q231.99986 149.96355 231.37486 150.65105Q230.74986 151.33855 229.84361 151.33855Q228.93736 151.33855 228.32799 150.66667Q227.71861 149.97917 227.71861 148.6198ZM229.85924 146.88542Q229.40611 146.88542 229.09361 147.29167Q228.79674 147.6823 228.79674 148.72917Q228.79674 149.69792 229.09361 150.08855Q229.40611 150.47917 229.85924 150.47917Q230.32799 150.47917 230.62486 150.08855Q230.93736 149.69792 230.93736 148.63542Q230.93736 147.66667 230.62486 147.27605Q230.31236 146.88542 229.85924 146.88542ZM229.85924 156.60417L235.34361 146.04167L236.34361 146.04167L230.89049 156.60417L229.85924 156.60417ZM234.20299 153.8698Q234.20299 152.79167 234.73424 152.0573Q235.28111 151.3073 236.31236 151.3073Q237.24986 151.3073 237.87486 151.97917Q238.49986 152.65105 238.49986 153.94792Q238.49986 155.22917 237.87486 155.91667Q237.24986 156.60417 236.31236 156.60417Q235.40611 156.60417 234.79674 155.9323Q234.20299 155.2448 234.20299 153.8698ZM236.34361 152.15105Q235.87486 152.15105 235.57799 152.5573Q235.28111 152.94792 235.28111 153.9948Q235.28111 154.96355 235.57799 155.35417Q235.89049 155.7448 236.34361 155.7448Q236.81236 155.7448 237.10924 155.35417Q237.42174 154.96355 237.42174 153.90105Q237.42174 152.9323 237.10924 152.54167Q236.81236 152.15105 236.34361 152.15105Z" fill-rule="nonzero"/><path fill="#ff0000" d="M144.0 345.45C144.0 348.7637 141.3137 351.45 138.0 351.45C134.6863 351.45 132.0 348.7637 132.0 345.45C132.0 342.1363 134.6863 339.45 138.0 339.45C141.3137 339.45 144.0 342.1363 144.0 345.45Z" fill-rule="nonzero"/><path fill="#1a1a1a" d="M155.375 349.45L152.04688 340.85626L153.28125 340.85626L155.51562 347.10626Q155.78125 347.85626 155.96875 348.5125Q156.17188 347.8094 156.4375 347.10626L158.75 340.85626L159.90625 340.85626L156.54688 349.45L155.375 349.45ZM164.04688 347.45L165.14062 347.575Q164.89062 348.52814 164.1875 349.0594Q163.48438 349.59064 162.40625 349.59064Q161.04688 349.59064 160.23438 348.7469Q159.4375 347.90314 159.4375 346.3875Q159.4375 344.825 160.25 343.96564Q161.0625 343.09064 162.34375 343.09064Q163.59375 343.09064 164.375 343.9344Q165.17188 344.77814 165.17188 346.325Q165.17188 346.41876 165.17188 346.60626L160.53125 346.60626Q160.59375 347.6375 161.10938 348.1844Q161.625 348.71564 162.40625 348.71564Q162.98438 348.71564 163.39062 348.41876Q163.8125 348.10626 164.04688 347.45ZM160.59375 345.7469L164.0625 345.7469Q164.0 344.95 163.67188 344.5594Q163.15625 343.95 162.35938 343.95Q161.625 343.95 161.125 344.4344Q160.64062 344.91876 160.59375 345.7469ZM166.78125 349.45L166.78125 343.23126L167.73438 343.23126L167.73438 344.16876Q168.09375 343.5125 168.39062 343.3094Q168.70312 343.09064 169.07812 343.09064Q169.60938 343.09064 170.15625 343.41876L169.79688 344.40314Q169.40625 344.16876 169.03125 344.16876Q168.67188 344.16876 168.39062 344.3875Q168.125 344.59064 168.01562 344.96564Q167.82812 345.52814 167.82812 346.1844L167.82812 349.45L166.78125 349.45ZM170.75 351.84064L170.625 350.85626Q170.96875 350.95 171.23438 350.95Q171.57812 350.95 171.78125 350.825Q172.0 350.71564 172.14062 350.5125Q172.23438 350.34064 172.46875 349.71564Q172.48438 349.6375 172.5625 349.46564L170.1875 343.23126L171.32812 343.23126L172.625 346.825Q172.875 347.5125 173.07812 348.27814Q173.26562 347.54376 173.51562 346.85626L174.84375 343.23126L175.89062 343.23126L173.53125 349.5594Q173.14062 350.575 172.9375 350.96564Q172.65625 351.4969 172.28125 351.73126Q171.92188 351.98126 171.42188 351.98126Q171.125 351.98126 170.75 351.84064ZM178.79688 342.075L178.79688 340.85626L179.85938 340.85626L179.85938 342.075L178.79688 342.075ZM178.79688 349.45L178.79688 343.23126L179.85938 343.23126L179.85938 349.45L178.79688 349.45ZM181.79688 349.45L181.79688 343.23126L182.73438 343.23126L182.73438 344.10626Q183.03125 343.6375 183.51562 343.3719Q184.0 343.09064 184.625 343.09064Q185.3125 343.09064 185.75 343.3719Q186.20312 343.65314 186.375 344.16876Q187.125 343.09064 188.29688 343.09064Q189.23438 343.09064 189.71875 343.60626Q190.21875 344.10626 190.21875 345.1844L190.21875 349.45L189.17188 349.45L189.17188 345.52814Q189.17188 344.90314 189.0625 344.6219Q188.96875 344.34064 188.70312 344.16876Q188.4375 343.9969 188.0625 343.9969Q187.40625 343.9969 186.96875 344.4344Q186.54688 344.8719 186.54688 345.84064L186.54688 349.45L185.48438 349.45L185.48438 345.40314Q185.48438 344.7 185.21875 344.35626Q184.96875 343.9969 184.39062 343.9969Q183.9375 343.9969 183.5625 344.23126Q183.1875 344.46564 183.01562 344.91876Q182.84375 345.3719 182.84375 346.21564L182.84375 349.45L181.79688 349.45ZM192.79688 351.84064L192.79688 343.23126L193.75 343.23126L193.75 344.02814Q194.09375 343.5594 194.51562 343.325Q194.95312 343.09064 195.5625 343.09064Q196.35938 343.09064 196.96875 343.4969Q197.57812 343.90314 197.875 344.65314Q198.1875 345.40314 198.1875 346.29376Q198.1875 347.2469 197.84375 348.0125Q197.51562 348.77814 196.85938 349.1844Q196.20312 349.59064 195.48438 349.59064Q194.95312 349.59064 194.53125 349.3719Q194.10938 349.1375 193.84375 348.8094L193.84375 351.84064L192.79688 351.84064ZM193.75 346.3719Q193.75 347.575 194.23438 348.15314Q194.71875 348.71564 195.40625 348.71564Q196.10938 348.71564 196.60938 348.1219Q197.10938 347.52814 197.10938 346.27814Q197.10938 345.09064 196.625 344.5125Q196.14062 343.91876 195.45312 343.91876Q194.78125 343.91876 194.26562 344.54376Q193.75 345.16876 193.75 346.3719ZM199.40625 346.34064Q199.40625 344.60626 200.35938 343.77814Q201.15625 343.09064 202.3125 343.09064Q203.59375 343.09064 204.40625 343.9344Q205.23438 344.7625 205.23438 346.2469Q205.23438 347.45 204.875 348.1375Q204.51562 348.825 203.8125 349.21564Q203.125 349.59064 202.3125 349.59064Q201.01562 349.59064 200.20312 348.7625Q199.40625 347.91876 199.40625 346.34064ZM200.48438 346.34064Q200.48438 347.52814 201.0 348.1219Q201.53125 348.71564 202.3125 348.71564Q203.10938 348.71564 203.625 348.1219Q204.14062 347.52814 204.14062 346.3094Q204.14062 345.15314 203.60938 344.5594Q203.09375 343.96564 202.3125 343.96564Q201.53125 343.96564 201.0 344.5594Q200.48438 345.1375 200.48438 346.34064ZM206.78125 349.45L206.78125 343.23126L207.73438 343.23126L207.73438 344.16876Q208.09375 343.5125 208.39062 343.3094Q208.70312 343.09064 209.07812 343.09064Q209.60938 343.09064 210.15625 343.41876L209.79688 344.40314Q209.40625 344.16876 209.03125 344.16876Q208.67188 344.16876 208.39062 344.3875Q208.125 344.59064 208.01562 344.96564Q207.82812 345.52814 207.82812 346.1844L207.82812 349.45L206.78125 349.45ZM213.09375 348.5125L213.25 349.4344Q212.79688 349.52814 212.45312 349.52814Q211.875 349.52814 211.5625 349.35626Q211.25 349.16876 211.10938 348.8719Q210.98438 348.575 210.98438 347.6219L210.98438 344.04376L210.21875 344.04376L210.21875 343.23126L210.98438 343.23126L210.98438 341.6844L212.03125 341.0594L212.03125 343.23126L213.09375 343.23126L213.09375 344.04376L212.03125 344.04376L212.03125 347.6844Q212.03125 348.1375 212.07812 348.2625Q212.14062 348.3875 212.26562 348.46564Q212.39062 348.54376 212.625 348.54376Q212.8125 348.54376 213.09375 348.5125ZM217.85938 348.6844Q217.26562 349.1844 216.71875 349.3875Q216.1875 349.59064 215.5625 349.59064Q214.53125 349.59064 213.98438 349.09064Q213.4375 348.59064 213.4375 347.8094Q213.4375 347.35626 213.64062 346.98126Q213.84375 346.59064 214.1875 346.3719Q214.53125 346.1375 214.95312 346.02814Q215.25 345.9344 215.89062 345.85626Q217.15625 345.71564 217.76562 345.4969Q217.76562 345.27814 217.76562 345.23126Q217.76562 344.575 217.46875 344.3094Q217.0625 343.96564 216.26562 343.96564Q215.53125 343.96564 215.17188 344.23126Q214.8125 344.48126 214.64062 345.1375L213.60938 344.9969Q213.75 344.34064 214.07812 343.9344Q214.40625 343.52814 215.01562 343.3094Q215.625 343.09064 216.42188 343.09064Q217.21875 343.09064 217.71875 343.27814Q218.21875 343.46564 218.45312 343.7469Q218.6875 344.02814 218.78125 344.46564Q218.82812 344.73126 218.82812 345.4344L218.82812 346.84064Q218.82812 348.3094 218.89062 348.7Q218.96875 349.09064 219.17188 349.45L218.0625 349.45Q217.90625 349.1219 217.85938 348.6844ZM217.76562 346.325Q217.1875 346.5594 216.04688 346.73126Q215.39062 346.825 215.125 346.95Q214.85938 347.0594 214.70312 347.27814Q214.5625 347.4969 214.5625 347.77814Q214.5625 348.2 214.875 348.48126Q215.20312 348.7625 215.8125 348.7625Q216.42188 348.7625 216.89062 348.4969Q217.375 348.23126 217.59375 347.7625Q217.76562 347.40314 217.76562 346.71564L217.76562 346.325ZM220.79688 349.45L220.79688 343.23126L221.73438 343.23126L221.73438 344.10626Q222.42188 343.09064 223.71875 343.09064Q224.28125 343.09064 224.75 343.29376Q225.23438 343.4969 225.46875 343.825Q225.70312 344.15314 225.79688 344.59064Q225.84375 344.8875 225.84375 345.6219L225.84375 349.45L224.79688 349.45L224.79688 345.66876Q224.79688 345.0125 224.67188 344.7Q224.54688 344.3875 224.23438 344.2Q223.92188 343.9969 223.5 343.9969Q222.82812 343.9969 222.32812 344.4344Q221.84375 344.85626 221.84375 346.04376L221.84375 349.45L220.79688 349.45ZM230.09375 348.5125L230.25 349.4344Q229.79688 349.52814 229.45312 349.52814Q228.875 349.52814 228.5625 349.35626Q228.25 349.16876 228.10938 348.8719Q227.98438 348.575 227.98438 347.6219L227.98438 344.04376L227.21875 344.04376L227.21875 343.23126L227.98438 343.23126L227.98438 341.6844L229.03125 341.0594L229.03125 343.23126L230.09375 343.23126L230.09375 344.04376L229.03125 344.04376L229.03125 347.6844Q229.03125 348.1375 229.07812 348.2625Q229.14062 348.3875 229.26562 348.46564Q229.39062 348.54376 229.625 348.54376Q229.8125 348.54376 230.09375 348.5125Z" fill-rule="nonzero"/><path fill="#ffff00" d="M258.0 345.45C258.0 348.7637 255.3137 351.45 252.0 351.45C248.6863 351.45 246.0 348.7637 246.0 345.45C246.0 342.1363 248.6863 339.45 252.0 339.45C255.3137 339.45 258.0 342.1363 258.0 345.45Z" fill-rule="nonzero"/><path fill="#1a1a1a" d="M266.54688 346.6844L267.60938 346.59064Q267.6875 347.2469 267.96875 347.65314Q268.25 348.0594 268.82812 348.325Q269.42188 348.575 270.15625 348.575Q270.79688 348.575 271.29688 348.3875Q271.79688 348.1844 272.03125 347.85626Q272.28125 347.5125 272.28125 347.1219Q272.28125 346.71564 272.04688 346.41876Q271.8125 346.10626 271.28125 345.90314Q270.92188 345.7625 269.73438 345.48126Q268.5625 345.2 268.09375 344.95Q267.46875 344.6219 267.17188 344.15314Q266.875 343.66876 266.875 343.075Q266.875 342.4344 267.23438 341.8719Q267.60938 341.29376 268.3125 341.0125Q269.03125 340.71564 269.89062 340.71564Q270.84375 340.71564 271.57812 341.02814Q272.3125 341.325 272.70312 341.9344Q273.09375 342.52814 273.125 343.27814L272.03125 343.35626Q271.9375 342.54376 271.42188 342.1375Q270.92188 341.71564 269.9375 341.71564Q268.90625 341.71564 268.4375 342.09064Q267.96875 342.46564 267.96875 342.9969Q267.96875 343.46564 268.29688 343.7625Q268.625 344.0594 270.0 344.3719Q271.39062 344.6844 271.90625 344.91876Q272.65625 345.27814 273.01562 345.8094Q273.375 346.325 273.375 347.02814Q273.375 347.71564 272.98438 348.325Q272.59375 348.91876 271.85938 349.2625Q271.125 349.59064 270.20312 349.59064Q269.03125 349.59064 268.23438 349.2625Q267.45312 348.91876 267.0 348.23126Q266.5625 347.54376 266.54688 346.6844ZM274.40625 346.34064Q274.40625 344.60626 275.35938 343.77814Q276.15625 343.09064 277.3125 343.09064Q278.59375 343.09064 279.40625 343.9344Q280.23438 344.7625 280.23438 346.2469Q280.23438 347.45 279.875 348.1375Q279.51562 348.825 278.8125 349.21564Q278.125 349.59064 277.3125 349.59064Q276.01562 349.59064 275.20312 348.7625Q274.40625 347.91876 274.40625 346.34064ZM275.48438 346.34064Q275.48438 347.52814 276.0 348.1219Q276.53125 348.71564 277.3125 348.71564Q278.10938 348.71564 278.625 348.1219Q279.14062 347.52814 279.14062 346.3094Q279.14062 345.15314 278.60938 344.5594Q278.09375 343.96564 277.3125 343.96564Q276.53125 343.96564 276.0 344.5594Q275.48438 345.1375 275.48438 346.34064ZM281.79688 349.45L281.79688 343.23126L282.73438 343.23126L282.73438 344.10626Q283.03125 343.6375 283.51562 343.3719Q284.0 343.09064 284.625 343.09064Q285.3125 343.09064 285.75 343.3719Q286.20312 343.65314 286.375 344.16876Q287.125 343.09064 288.29688 343.09064Q289.23438 343.09064 289.71875 343.60626Q290.21875 344.10626 290.21875 345.1844L290.21875 349.45L289.17188 349.45L289.17188 345.52814Q289.17188 344.90314 289.0625 344.6219Q288.96875 344.34064 288.70312 344.16876Q288.4375 343.9969 288.0625 343.9969Q287.40625 343.9969 286.96875 344.4344Q286.54688 344.8719 286.54688 345.84064L286.54688 349.45L285.48438 349.45L285.48438 345.40314Q285.48438 344.7 285.21875 344.35626Q284.96875 343.9969 284.39062 343.9969Q283.9375 343.9969 283.5625 344.23126Q283.1875 344.46564 283.01562 344.91876Q282.84375 345.3719 282.84375 346.21564L282.84375 349.45L281.79688 349.45ZM297.04688 347.45L298.14062 347.575Q297.89062 348.52814 297.1875 349.0594Q296.48438 349.59064 295.40625 349.59064Q294.04688 349.59064 293.23438 348.7469Q292.4375 347.90314 292.4375 346.3875Q292.4375 344.825 293.25 343.96564Q294.0625 343.09064 295.34375 343.09064Q296.59375 343.09064 297.375 343.9344Q298.17188 344.77814 298.17188 346.325Q298.17188 346.41876 298.17188 346.60626L293.53125 346.60626Q293.59375 347.6375 294.10938 348.1844Q294.625 348.71564 295.40625 348.71564Q295.98438 348.71564 296.39062 348.41876Q296.8125 348.10626 297.04688 347.45ZM293.59375 345.7469L297.0625 345.7469Q297.0 344.95 296.67188 344.5594Q296.15625 343.95 295.35938 343.95Q294.625 343.95 294.125 344.4344Q293.64062 344.91876 293.59375 345.7469ZM300.9375 349.45L299.03125 343.23126L300.125 343.23126L301.10938 346.825L301.48438 348.15314Q301.51562 348.0594 301.8125 346.8719L302.79688 343.23126L303.875 343.23126L304.8125 346.84064L305.125 348.02814L305.48438 346.825L306.54688 343.23126L307.57812 343.23126L305.625 349.45L304.53125 349.45L303.54688 345.71564L303.29688 344.66876L302.04688 349.45L300.9375 349.45ZM308.79688 349.45L308.79688 340.85626L309.84375 340.85626L309.84375 343.9344Q310.57812 343.09064 311.70312 343.09064Q312.40625 343.09064 312.90625 343.3719Q313.42188 343.6375 313.64062 344.1219Q313.85938 344.59064 313.85938 345.5125L313.85938 349.45L312.8125 349.45L312.8125 345.5125Q312.8125 344.71564 312.46875 344.35626Q312.125 343.9969 311.5 343.9969Q311.03125 343.9969 310.60938 344.2469Q310.20312 344.48126 310.01562 344.90314Q309.84375 345.3094 309.84375 346.04376L309.84375 349.45L308.79688 349.45ZM319.85938 348.6844Q319.26562 349.1844 318.71875 349.3875Q318.1875 349.59064 317.5625 349.59064Q316.53125 349.59064 315.98438 349.09064Q315.4375 348.59064 315.4375 347.8094Q315.4375 347.35626 315.64062 346.98126Q315.84375 346.59064 316.1875 346.3719Q316.53125 346.1375 316.95312 346.02814Q317.25 345.9344 317.89062 345.85626Q319.15625 345.71564 319.76562 345.4969Q319.76562 345.27814 319.76562 345.23126Q319.76562 344.575 319.46875 344.3094Q319.0625 343.96564 318.26562 343.96564Q317.53125 343.96564 317.17188 344.23126Q316.8125 344.48126 316.64062 345.1375L315.60938 344.9969Q315.75 344.34064 316.07812 343.9344Q316.40625 343.52814 317.01562 343.3094Q317.625 343.09064 318.42188 343.09064Q319.21875 343.09064 319.71875 343.27814Q320.21875 343.46564 320.45312 343.7469Q320.6875 344.02814 320.78125 344.46564Q320.82812 344.73126 320.82812 345.4344L320.82812 346.84064Q320.82812 348.3094 320.89062 348.7Q320.96875 349.09064 321.17188 349.45L320.0625 349.45Q319.90625 349.1219 319.85938 348.6844ZM319.76562 346.325Q319.1875 346.5594 318.04688 346.73126Q317.39062 346.825 317.125 346.95Q316.85938 347.0594 316.70312 347.27814Q316.5625 347.4969 316.5625 347.77814Q316.5625 348.2 316.875 348.48126Q317.20312 348.7625 317.8125 348.7625Q318.42188 348.7625 318.89062 348.4969Q319.375 348.23126 319.59375 347.7625Q319.76562 347.40314 319.76562 346.71564L319.76562 346.325ZM325.09375 348.5125L325.25 349.4344Q324.79688 349.52814 324.45312 349.52814Q323.875 349.52814 323.5625 349.35626Q323.25 349.16876 323.10938 348.8719Q322.98438 348.575 322.98438 347.6219L322.98438 344.04376L322.21875 344.04376L322.21875 343.23126L322.98438 343.23126L322.98438 341.6844L324.03125 341.0594L324.03125 343.23126L325.09375 343.23126L325.09375 344.04376L324.03125 344.04376L324.03125 347.6844Q324.03125 348.1375 324.07812 348.2625Q324.14062 348.3875 324.26562 348.46564Q324.39062 348.54376 324.625 348.54376Q324.8125 348.54376 325.09375 348.5125ZM328.79688 342.075L328.79688 340.85626L329.85938 340.85626L329.85938 342.075L328.79688 342.075ZM328.79688 349.45L328.79688 343.23126L329.85938 343.23126L329.85938 349.45L328.79688 349.45ZM331.79688 349.45L331.79688 343.23126L332.73438 343.23126L332.73438 344.10626Q333.03125 343.6375 333.51562 343.3719Q334.0 343.09064 334.625 343.09064Q335.3125 343.09064 335.75 343.3719Q336.20312 343.65314 336.375 344.16876Q337.125 343.09064 338.29688 343.09064Q339.23438 343.09064 339.71875 343.60626Q340.21875 344.10626 340.21875 345.1844L340.21875 349.45L339.17188 349.45L339.17188 345.52814Q339.17188 344.90314 339.0625 344.6219Q338.96875 344.34064 338.70312 344.16876Q338.4375 343.9969 338.0625 343.9969Q337.40625 343.9969 336.96875 344.4344Q336.54688 344.8719 336.54688 345.84064L336.54688 349.45L335.48438 349.45L335.48438 345.40314Q335.48438 344.7 335.21875 344.35626Q334.96875 343.9969 334.39062 343.9969Q333.9375 343.9969 333.5625 344.23126Q333.1875 344.46564 333.01562 344.91876Q332.84375 345.3719 332.84375 346.21564L332.84375 349.45L331.79688 349.45ZM342.79688 351.84064L342.79688 343.23126L343.75 343.23126L343.75 344.02814Q344.09375 343.5594 344.51562 343.325Q344.95312 343.09064 345.5625 343.09064Q346.35938 343.09064 346.96875 343.4969Q347.57812 343.90314 347.875 344.65314Q348.1875 345.40314 348.1875 346.29376Q348.1875 347.2469 347.84375 348.0125Q347.51562 348.77814 346.85938 349.1844Q346.20312 349.59064 345.48438 349.59064Q344.95312 349.59064 344.53125 349.3719Q344.10938 349.1375 343.84375 348.8094L343.84375 351.84064L342.79688 351.84064ZM343.75 346.3719Q343.75 347.575 344.23438 348.15314Q344.71875 348.71564 345.40625 348.71564Q346.10938 348.71564 346.60938 348.1219Q347.10938 347.52814 347.10938 346.27814Q347.10938 345.09064 346.625 344.5125Q346.14062 343.91876 345.45312 343.91876Q344.78125 343.91876 344.26562 344.54376Q343.75 345.16876 343.75 346.3719ZM349.40625 346.34064Q349.40625 344.60626 350.35938 343.77814Q351.15625 343.09064 352.3125 343.09064Q353.59375 343.09064 354.40625 343.9344Q355.23438 344.7625 355.23438 346.2469Q355.23438 347.45 354.875 348.1375Q354.51562 348.825 353.8125 349.21564Q353.125 349.59064 352.3125 349.59064Q351.01562 349.59064 350.20312 348.7625Q349.40625 347.91876 349.40625 346.34064ZM350.48438 346.34064Q350.48438 347.52814 351.0 348.1219Q351.53125 348.71564 352.3125 348.71564Q353.10938 348.71564 353.625 348.1219Q354.14062 347.52814 354.14062 346.3094Q354.14062 345.15314 353.60938 344.5594Q353.09375 343.96564 352.3125 343.96564Q351.53125 343.96564 351.0 344.5594Q350.48438 345.1375 350.48438 346.34064ZM356.78125 349.45L356.78125 343.23126L357.73438 343.23126L357.73438 344.16876Q358.09375 343.5125 358.39062 343.3094Q358.70312 343.09064 359.07812 343.09064Q359.60938 343.09064 360.15625 343.41876L359.79688 344.40314Q359.40625 344.16876 359.03125 344.16876Q358.67188 344.16876 358.39062 344.3875Q358.125 344.59064 358.01562 344.96564Q357.82812 345.52814 357.82812 346.1844L357.82812 349.45L356.78125 349.45ZM363.09375 348.5125L363.25 349.4344Q362.79688 349.52814 362.45312 349.52814Q361.875 349.52814 361.5625 349.35626Q361.25 349.16876 361.10938 348.8719Q360.98438 348.575 360.98438 347.6219L360.98438 344.04376L360.21875 344.04376L360.21875 343.23126L360.98438 343.23126L360.98438 341.6844L362.03125 341.0594L362.03125 343.23126L363.09375 343.23126L363.09375 344.04376L362.03125 344.04376L362.03125 347.6844Q362.03125 348.1375 362.07812 348.2625Q362.14062 348.3875 362.26562 348.46564Q362.39062 348.54376 362.625 348.54376Q362.8125 348.54376 363.09375 348.5125ZM367.85938 348.6844Q367.26562 349.1844 366.71875 349.3875Q366.1875 349.59064 365.5625 349.59064Q364.53125 349.59064 363.98438 349.09064Q363.4375 348.59064 363.4375 347.8094Q363.4375 347.35626 363.64062 346.98126Q363.84375 346.59064 364.1875 346.3719Q364.53125 346.1375 364.95312 346.02814Q365.25 345.9344 365.89062 345.85626Q367.15625 345.71564 367.76562 345.4969Q367.76562 345.27814 367.76562 345.23126Q367.76562 344.575 367.46875 344.3094Q367.0625 343.96564 366.26562 343.96564Q365.53125 343.96564 365.17188 344.23126Q364.8125 344.48126 364.64062 345.1375L363.60938 344.9969Q363.75 344.34064 364.07812 343.9344Q364.40625 343.52814 365.01562 343.3094Q365.625 343.09064 366.42188 343.09064Q367.21875 343.09064 367.71875 343.27814Q368.21875 343.46564 368.45312 343.7469Q368.6875 344.02814 368.78125 344.46564Q368.82812 344.73126 368.82812 345.4344L368.82812 346.84064Q368.82812 348.3094 368.89062 348.7Q368.96875 349.09064 369.17188 349.45L368.0625 349.45Q367.90625 349.1219 367.85938 348.6844ZM367.76562 346.325Q367.1875 346.5594 366.04688 346.73126Q365.39062 346.825 365.125 346.95Q364.85938 347.0594 364.70312 347.27814Q364.5625 347.4969 364.5625 347.77814Q364.5625 348.2 364.875 348.48126Q365.20312 348.7625 365.8125 348.7625Q366.42188 348.7625 366.89062 348.4969Q367.375 348.23126 367.59375 347.7625Q367.76562 347.40314 367.76562 346.71564L367.76562 346.325ZM370.79688 349.45L370.79688 343.23126L371.73438 343.23126L371.73438 344.10626Q372.42188 343.09064 373.71875 343.09064Q374.28125 343.09064 374.75 343.29376Q375.23438 343.4969 375.46875 343.825Q375.70312 344.15314 375.79688 344.59064Q375.84375 344.8875 375.84375 345.6219L375.84375 349.45L374.79688 349.45L374.79688 345.66876Q374.79688 345.0125 374.67188 344.7Q374.54688 344.3875 374.23438 344.2Q373.92188 343.9969 373.5 343.9969Q372.82812 343.9969 372.32812 344.4344Q371.84375 344.85626 371.84375 346.04376L371.84375 349.45L370.79688 349.45ZM380.09375 348.5125L380.25 349.4344Q379.79688 349.52814 379.45312 349.52814Q378.875 349.52814 378.5625 349.35626Q378.25 349.16876 378.10938 348.8719Q377.98438 348.575 377.98438 347.6219L377.98438 344.04376L377.21875 344.04376L377.21875 343.23126L377.98438 343.23126L377.98438 341.6844L379.03125 341.0594L379.03125 343.23126L380.09375 343.23126L380.09375 344.04376L379.03125 344.04376L379.03125 347.6844Q379.03125 348.1375 379.07812 348.2625Q379.14062 348.3875 379.26562 348.46564Q379.39062 348.54376 379.625 348.54376Q379.8125 348.54376 380.09375 348.5125Z" fill-rule="nonzero"/><path fill="#00ffff" d="M408.0 345.45C408.0 348.7637 405.31372 351.45 402.0 351.45C398.68628 351.45 396.0 348.7637 396.0 345.45C396.0 342.1363 398.68628 339.45 402.0 339.45C405.31372 339.45 408.0 342.1363 408.0 345.45Z" fill-rule="nonzero"/><path fill="#1a1a1a" d="M417.125 349.45L417.125 340.85626L418.25 340.85626L418.25 349.45L417.125 349.45ZM419.79688 349.45L419.79688 343.23126L420.73438 343.23126L420.73438 344.10626Q421.03125 343.6375 421.51562 343.3719Q422.0 343.09064 422.625 343.09064Q423.3125 343.09064 423.75 343.3719Q424.20312 343.65314 424.375 344.16876Q425.125 343.09064 426.29688 343.09064Q427.23438 343.09064 427.71875 343.60626Q428.21875 344.10626 428.21875 345.1844L428.21875 349.45L427.17188 349.45L427.17188 345.52814Q427.17188 344.90314 427.0625 344.6219Q426.96875 344.34064 426.70312 344.16876Q426.4375 343.9969 426.0625 343.9969Q425.40625 343.9969 424.96875 344.4344Q424.54688 344.8719 424.54688 345.84064L424.54688 349.45L423.48438 349.45L423.48438 345.40314Q423.48438 344.7 423.21875 344.35626Q422.96875 343.9969 422.39062 343.9969Q421.9375 343.9969 421.5625 344.23126Q421.1875 344.46564 421.01562 344.91876Q420.84375 345.3719 420.84375 346.21564L420.84375 349.45L419.79688 349.45ZM430.79688 351.84064L430.79688 343.23126L431.75 343.23126L431.75 344.02814Q432.09375 343.5594 432.51562 343.325Q432.95312 343.09064 433.5625 343.09064Q434.35938 343.09064 434.96875 343.4969Q435.57812 343.90314 435.875 344.65314Q436.1875 345.40314 436.1875 346.29376Q436.1875 347.2469 435.84375 348.0125Q435.51562 348.77814 434.85938 349.1844Q434.20312 349.59064 433.48438 349.59064Q432.95312 349.59064 432.53125 349.3719Q432.10938 349.1375 431.84375 348.8094L431.84375 351.84064L430.79688 351.84064ZM431.75 346.3719Q431.75 347.575 432.23438 348.15314Q432.71875 348.71564 433.40625 348.71564Q434.10938 348.71564 434.60938 348.1219Q435.10938 347.52814 435.10938 346.27814Q435.10938 345.09064 434.625 344.5125Q434.14062 343.91876 433.45312 343.91876Q432.78125 343.91876 432.26562 344.54376Q431.75 345.16876 431.75 346.3719ZM437.40625 346.34064Q437.40625 344.60626 438.35938 343.77814Q439.15625 343.09064 440.3125 343.09064Q441.59375 343.09064 442.40625 343.9344Q443.23438 344.7625 443.23438 346.2469Q443.23438 347.45 442.875 348.1375Q442.51562 348.825 441.8125 349.21564Q441.125 349.59064 440.3125 349.59064Q439.01562 349.59064 438.20312 348.7625Q437.40625 347.91876 437.40625 346.34064ZM438.48438 346.34064Q438.48438 347.52814 439.0 348.1219Q439.53125 348.71564 440.3125 348.71564Q441.10938 348.71564 441.625 348.1219Q442.14062 347.52814 442.14062 346.3094Q442.14062 345.15314 441.60938 344.5594Q441.09375 343.96564 440.3125 343.96564Q439.53125 343.96564 439.0 344.5594Q438.48438 345.1375 438.48438 346.34064ZM444.78125 349.45L444.78125 343.23126L445.73438 343.23126L445.73438 344.16876Q446.09375 343.5125 446.39062 343.3094Q446.70312 343.09064 447.07812 343.09064Q447.60938 343.09064 448.15625 343.41876L447.79688 344.40314Q447.40625 344.16876 447.03125 344.16876Q446.67188 344.16876 446.39062 344.3875Q446.125 344.59064 446.01562 344.96564Q445.82812 345.52814 445.82812 346.1844L445.82812 349.45L444.78125 349.45ZM451.09375 348.5125L451.25 349.4344Q450.79688 349.52814 450.45312 349.52814Q449.875 349.52814 449.5625 349.35626Q449.25 349.16876 449.10938 348.8719Q448.98438 348.575 448.98438 347.6219L448.98438 344.04376L448.21875 344.04376L448.21875 343.23126L448.98438 343.23126L448.98438 341.6844L450.03125 341.0594L450.03125 343.23126L451.09375 343.23126L451.09375 344.04376L450.03125 344.04376L450.03125 347.6844Q450.03125 348.1375 450.07812 348.2625Q450.14062 348.3875 450.26562 348.46564Q450.39062 348.54376 450.625 348.54376Q450.8125 348.54376 451.09375 348.5125ZM455.85938 348.6844Q455.26562 349.1844 454.71875 349.3875Q454.1875 349.59064 453.5625 349.59064Q452.53125 349.59064 451.98438 349.09064Q451.4375 348.59064 451.4375 347.8094Q451.4375 347.35626 451.64062 346.98126Q451.84375 346.59064 452.1875 346.3719Q452.53125 346.1375 452.95312 346.02814Q453.25 345.9344 453.89062 345.85626Q455.15625 345.71564 455.76562 345.4969Q455.76562 345.27814 455.76562 345.23126Q455.76562 344.575 455.46875 344.3094Q455.0625 343.96564 454.26562 343.96564Q453.53125 343.96564 453.17188 344.23126Q452.8125 344.48126 452.64062 345.1375L451.60938 344.9969Q451.75 344.34064 452.07812 343.9344Q452.40625 343.52814 453.01562 343.3094Q453.625 343.09064 454.42188 343.09064Q455.21875 343.09064 455.71875 343.27814Q456.21875 343.46564 456.45312 343.7469Q456.6875 344.02814 456.78125 344.46564Q456.82812 344.73126 456.82812 345.4344L456.82812 346.84064Q456.82812 348.3094 456.89062 348.7Q456.96875 349.09064 457.17188 349.45L456.0625 349.45Q455.90625 349.1219 455.85938 348.6844ZM455.76562 346.325Q455.1875 346.5594 454.04688 346.73126Q453.39062 346.825 453.125 346.95Q452.85938 347.0594 452.70312 347.27814Q452.5625 347.4969 452.5625 347.77814Q452.5625 348.2 452.875 348.48126Q453.20312 348.7625 453.8125 348.7625Q454.42188 348.7625 454.89062 348.4969Q455.375 348.23126 455.59375 347.7625Q455.76562 347.40314 455.76562 346.71564L455.76562 346.325ZM458.79688 349.45L458.79688 343.23126L459.73438 343.23126L459.73438 344.10626Q460.42188 343.09064 461.71875 343.09064Q462.28125 343.09064 462.75 343.29376Q463.23438 343.4969 463.46875 343.825Q463.70312 344.15314 463.79688 344.59064Q463.84375 344.8875 463.84375 345.6219L463.84375 349.45L462.79688 349.45L462.79688 345.66876Q462.79688 345.0125 462.67188 344.7Q462.54688 344.3875 462.23438 344.2Q461.92188 343.9969 461.5 343.9969Q460.82812 343.9969 460.32812 344.4344Q459.84375 344.85626 459.84375 346.04376L459.84375 349.45L458.79688 349.45ZM468.09375 348.5125L468.25 349.4344Q467.79688 349.52814 467.45312 349.52814Q466.875 349.52814 466.5625 349.35626Q466.25 349.16876 466.10938 348.8719Q465.98438 348.575 465.98438 347.6219L465.98438 344.04376L465.21875 344.04376L465.21875 343.23126L465.98438 343.23126L465.98438 341.6844L467.03125 341.0594L467.03125 343.23126L468.09375 343.23126L468.09375 344.04376L467.03125 344.04376L467.03125 347.6844Q467.03125 348.1375 467.07812 348.2625Q467.14062 348.3875 467.26562 348.46564Q467.39062 348.54376 467.625 348.54376Q467.8125 348.54376 468.09375 348.5125Z" fill-rule="nonzero"/><path fill="#000000" d="M95.953125 23.2375L101.234375 23.2375Q103.015625 23.2375 103.953125 23.503124Q105.21875 23.878124 106.109375 24.83125Q107.015625 25.76875 107.484375 27.14375Q107.953125 28.51875 107.953125 30.534374Q107.953125 32.3 107.515625 33.58125Q106.96875 35.14375 105.96875 36.096874Q105.21875 36.83125 103.9375 37.253124Q102.984375 37.55 101.390625 37.55L95.953125 37.55L95.953125 23.2375ZM98.84375 25.659374L98.84375 35.14375L101.0 35.14375Q102.203125 35.14375 102.75 35.003124Q103.453125 34.83125 103.90625 34.409374Q104.375 33.9875 104.65625 33.034374Q104.953125 32.065624 104.953125 30.39375Q104.953125 28.7375 104.65625 27.846874Q104.375 26.95625 103.84375 26.471874Q103.3125 25.971874 102.515625 25.784374Q101.90625 25.659374 100.140625 25.659374L98.84375 25.659374ZM111.984375 30.346874L109.5 29.89375Q109.921875 28.39375 110.9375 27.675Q111.96875 26.940624 113.984375 26.940624Q115.828125 26.940624 116.71875 27.378124Q117.625 27.815624 117.984375 28.4875Q118.359375 29.14375 118.359375 30.940624L118.328125 34.14375Q118.328125 35.503124 118.453125 36.159374Q118.59375 36.8 118.953125 37.55L116.234375 37.55Q116.125 37.26875 115.96875 36.7375Q115.90625 36.4875 115.875 36.409374Q115.171875 37.096874 114.359375 37.440624Q113.5625 37.784374 112.65625 37.784374Q111.0625 37.784374 110.140625 36.925Q109.21875 36.05 109.21875 34.721874Q109.21875 33.83125 109.625 33.14375Q110.046875 32.45625 110.796875 32.096874Q111.5625 31.721874 113.0 31.45625Q114.921875 31.096874 115.65625 30.784374L115.65625 30.503124Q115.65625 29.721874 115.265625 29.39375Q114.875 29.05 113.796875 29.05Q113.0625 29.05 112.640625 29.33125Q112.234375 29.6125 111.984375 30.346874ZM115.65625 32.565624Q115.125 32.7375 113.984375 32.9875Q112.84375 33.2375 112.5 33.471874Q111.953125 33.846874 111.953125 34.440624Q111.953125 35.003124 112.375 35.425Q112.8125 35.846874 113.484375 35.846874Q114.21875 35.846874 114.890625 35.3625Q115.390625 34.9875 115.546875 34.45625Q115.65625 34.096874 115.65625 33.1125L115.65625 32.565624ZM123.5625 37.55L120.8125 37.55L120.8125 27.175L123.375 27.175L123.375 28.659374Q124.015625 27.6125 124.53125 27.284374Q125.0625 26.940624 125.734375 26.940624Q126.671875 26.940624 127.53125 27.45625L126.6875 29.846874Q126.0 29.409374 125.40625 29.409374Q124.828125 29.409374 124.421875 29.721874Q124.015625 30.034374 123.78125 30.878124Q123.5625 31.70625 123.5625 34.346874L123.5625 37.55ZM128.9375 25.76875L128.9375 23.2375L131.6875 23.2375L131.6875 25.76875L128.9375 25.76875ZM128.9375 37.55L128.9375 27.175L131.6875 27.175L131.6875 37.55L128.9375 37.55ZM133.875 25.76875L133.875 23.2375L136.625 23.2375L136.625 25.76875L133.875 25.76875ZM136.625 27.175L136.625 37.221874Q136.625 39.20625 136.35938 40.01875Q136.10938 40.846874 135.35938 41.3Q134.625 41.753124 133.48438 41.753124Q133.07812 41.753124 132.59375 41.675Q132.125 41.6125 131.57812 41.471874L132.0625 39.128124Q132.25 39.159374 132.42188 39.175Q132.59375 39.20625 132.75 39.20625Q133.17188 39.20625 133.4375 39.01875Q133.70312 38.846874 133.78125 38.596874Q133.875 38.346874 133.875 37.065624L133.875 27.175L136.625 27.175ZM140.98438 30.346874L138.5 29.89375Q138.92188 28.39375 139.9375 27.675Q140.96875 26.940624 142.98438 26.940624Q144.82812 26.940624 145.71875 27.378124Q146.625 27.815624 146.98438 28.4875Q147.35938 29.14375 147.35938 30.940624L147.32812 34.14375Q147.32812 35.503124 147.45312 36.159374Q147.59375 36.8 147.95312 37.55L145.23438 37.55Q145.125 37.26875 144.96875 36.7375Q144.90625 36.4875 144.875 36.409374Q144.17188 37.096874 143.35938 37.440624Q142.5625 37.784374 141.65625 37.784374Q140.0625 37.784374 139.14062 36.925Q138.21875 36.05 138.21875 34.721874Q138.21875 33.83125 138.625 33.14375Q139.04688 32.45625 139.79688 32.096874Q140.5625 31.721874 142.0 31.45625Q143.92188 31.096874 144.65625 30.784374L144.65625 30.503124Q144.65625 29.721874 144.26562 29.39375Q143.875 29.05 142.79688 29.05Q142.0625 29.05 141.64062 29.33125Q141.23438 29.6125 140.98438 30.346874ZM144.65625 32.565624Q144.125 32.7375 142.98438 32.9875Q141.84375 33.2375 141.5 33.471874Q140.95312 33.846874 140.95312 34.440624Q140.95312 35.003124 141.375 35.425Q141.8125 35.846874 142.48438 35.846874Q143.21875 35.846874 143.89062 35.3625Q144.39062 34.9875 144.54688 34.45625Q144.65625 34.096874 144.65625 33.1125L144.65625 32.565624ZM155.875 37.55L155.875 23.2375L158.76562 23.2375L158.76562 37.55L155.875 37.55ZM160.73438 27.175L163.26562 27.175L163.26562 28.596874Q164.625 26.940624 166.5 26.940624Q167.48438 26.940624 168.21875 27.3625Q168.95312 27.76875 169.42188 28.596874Q170.10938 27.76875 170.89062 27.3625Q171.6875 26.940624 172.59375 26.940624Q173.73438 26.940624 174.51562 27.409374Q175.3125 27.878124 175.70312 28.76875Q175.98438 29.440624 175.98438 30.925L175.98438 37.55L173.23438 37.55L173.23438 31.628124Q173.23438 30.08125 172.95312 29.628124Q172.57812 29.05 171.78125 29.05Q171.20312 29.05 170.6875 29.409374Q170.1875 29.753124 169.96875 30.425Q169.75 31.096874 169.75 32.565624L169.75 37.55L167.0 37.55L167.0 31.8625Q167.0 30.346874 166.84375 29.909374Q166.70312 29.471874 166.39062 29.26875Q166.09375 29.05 165.5625 29.05Q164.9375 29.05 164.42188 29.39375Q163.92188 29.721874 163.6875 30.378124Q163.46875 31.01875 163.46875 32.503124L163.46875 37.55L160.73438 37.55L160.73438 27.175ZM177.85938 27.175L180.42188 27.175L180.42188 28.70625Q180.92188 27.925 181.76562 27.440624Q182.60938 26.940624 183.65625 26.940624Q185.45312 26.940624 186.70312 28.3625Q187.96875 29.76875 187.96875 32.3Q187.96875 34.909374 186.70312 36.346874Q185.4375 37.784374 183.625 37.784374Q182.76562 37.784374 182.0625 37.440624Q181.375 37.096874 180.60938 36.26875L180.60938 41.503124L177.85938 41.503124L177.85938 27.175ZM180.57812 32.190624Q180.57812 33.940624 181.26562 34.784374Q181.95312 35.6125 182.95312 35.6125Q183.90625 35.6125 184.54688 34.846874Q185.1875 34.065624 185.1875 32.33125Q185.1875 30.690624 184.53125 29.909374Q183.875 29.1125 182.90625 29.1125Q181.90625 29.1125 181.23438 29.89375Q180.57812 30.659374 180.57812 32.190624ZM189.29688 32.221874Q189.29688 30.846874 189.96875 29.565624Q190.65625 28.284374 191.89062 27.6125Q193.125 26.940624 194.64062 26.940624Q197.0 26.940624 198.5 28.471874Q200.0 30.003124 200.0 32.33125Q200.0 34.690624 198.48438 36.2375Q196.96875 37.784374 194.65625 37.784374Q193.23438 37.784374 191.9375 37.14375Q190.65625 36.4875 189.96875 35.253124Q189.29688 34.003124 189.29688 32.221874ZM192.10938 32.3625Q192.10938 33.909374 192.84375 34.7375Q193.57812 35.55 194.65625 35.55Q195.73438 35.55 196.45312 34.7375Q197.1875 33.909374 197.1875 32.346874Q197.1875 30.815624 196.45312 30.003124Q195.73438 29.175 194.65625 29.175Q193.57812 29.175 192.84375 30.003124Q192.10938 30.815624 192.10938 32.3625ZM204.5625 37.55L201.8125 37.55L201.8125 27.175L204.375 27.175L204.375 28.659374Q205.01562 27.6125 205.53125 27.284374Q206.0625 26.940624 206.73438 26.940624Q207.67188 26.940624 208.53125 27.45625L207.6875 29.846874Q207.0 29.409374 206.40625 29.409374Q205.82812 29.409374 205.42188 29.721874Q205.01562 30.034374 204.78125 30.878124Q204.5625 31.70625 204.5625 34.346874L204.5625 37.55ZM214.6875 27.175L214.6875 29.3625L212.8125 29.3625L212.8125 33.55Q212.8125 34.815624 212.85938 35.034374Q212.92188 35.2375 213.10938 35.378124Q213.3125 35.503124 213.57812 35.503124Q213.95312 35.503124 214.6875 35.2375L214.92188 37.378124Q213.95312 37.784374 212.75 37.784374Q212.0 37.784374 211.40625 37.534374Q210.8125 37.284374 210.53125 36.89375Q210.26562 36.4875 210.15625 35.815624Q210.0625 35.346874 210.0625 33.89375L210.0625 29.3625L208.79688 29.3625L208.79688 27.175L210.0625 27.175L210.0625 25.1125L212.8125 23.51875L212.8125 27.175L214.6875 27.175ZM218.98438 30.346874L216.5 29.89375Q216.92188 28.39375 217.9375 27.675Q218.96875 26.940624 220.98438 26.940624Q222.82812 26.940624 223.71875 27.378124Q224.625 27.815624 224.98438 28.4875Q225.35938 29.14375 225.35938 30.940624L225.32812 34.14375Q225.32812 35.503124 225.45312 36.159374Q225.59375 36.8 225.95312 37.55L223.23438 37.55Q223.125 37.26875 222.96875 36.7375Q222.90625 36.4875 222.875 36.409374Q222.17188 37.096874 221.35938 37.440624Q220.5625 37.784374 219.65625 37.784374Q218.0625 37.784374 217.14062 36.925Q216.21875 36.05 216.21875 34.721874Q216.21875 33.83125 216.625 33.14375Q217.04688 32.45625 217.79688 32.096874Q218.5625 31.721874 220.0 31.45625Q221.92188 31.096874 222.65625 30.784374L222.65625 30.503124Q222.65625 29.721874 222.26562 29.39375Q221.875 29.05 220.79688 29.05Q220.0625 29.05 219.64062 29.33125Q219.23438 29.6125 218.98438 30.346874ZM222.65625 32.565624Q222.125 32.7375 220.98438 32.9875Q219.84375 33.2375 219.5 33.471874Q218.95312 33.846874 218.95312 34.440624Q218.95312 35.003124 219.375 35.425Q219.8125 35.846874 220.48438 35.846874Q221.21875 35.846874 221.89062 35.3625Q222.39062 34.9875 222.54688 34.45625Q222.65625 34.096874 222.65625 33.1125L222.65625 32.565624ZM237.375 37.55L234.625 37.55L234.625 32.253124Q234.625 30.58125 234.45312 30.096874Q234.28125 29.596874 233.875 29.33125Q233.48438 29.05 232.92188 29.05Q232.21875 29.05 231.64062 29.440624Q231.07812 29.83125 230.85938 30.471874Q230.65625 31.1125 230.65625 32.846874L230.65625 37.55L227.92188 37.55L227.92188 27.175L230.46875 27.175L230.46875 28.70625Q231.82812 26.940624 233.89062 26.940624Q234.79688 26.940624 235.54688 27.26875Q236.29688 27.596874 236.67188 28.1125Q237.0625 28.6125 237.21875 29.26875Q237.375 29.909374 237.375 31.096874L237.375 37.55ZM248.98438 30.2375L246.28125 30.7375Q246.14062 29.925 245.65625 29.51875Q245.17188 29.096874 244.40625 29.096874Q243.375 29.096874 242.76562 29.815624Q242.15625 30.51875 242.15625 32.175Q242.15625 34.01875 242.76562 34.784374Q243.39062 35.55 244.4375 35.55Q245.21875 35.55 245.71875 35.1125Q246.21875 34.659374 246.42188 33.58125L249.10938 34.034374Q248.70312 35.89375 247.5 36.846874Q246.3125 37.784374 244.3125 37.784374Q242.03125 37.784374 240.67188 36.346874Q239.32812 34.909374 239.32812 32.378124Q239.32812 29.8 240.6875 28.378124Q242.04688 26.940624 244.35938 26.940624Q246.25 26.940624 247.35938 27.76875Q248.48438 28.58125 248.98438 30.2375ZM256.9375 34.253124L259.67188 34.70625Q259.15625 36.20625 258.01562 37.003124Q256.875 37.784374 255.17188 37.784374Q252.45312 37.784374 251.15625 36.01875Q250.14062 34.596874 250.14062 32.440624Q250.14062 29.8625 251.48438 28.409374Q252.82812 26.940624 254.89062 26.940624Q257.20312 26.940624 258.53125 28.471874Q259.875 30.003124 259.82812 33.159374L252.95312 33.159374Q252.98438 34.378124 253.60938 35.065624Q254.25 35.7375 255.1875 35.7375Q255.84375 35.7375 256.28125 35.39375Q256.71875 35.034374 256.9375 34.253124ZM257.09375 31.471874Q257.0625 30.284374 256.46875 29.675Q255.89062 29.05 255.0625 29.05Q254.15625 29.05 253.57812 29.690624Q252.98438 30.346874 253.0 31.471874L257.09375 31.471874ZM266.73438 27.175L268.26562 27.175L268.26562 26.39375Q268.26562 25.08125 268.53125 24.440624Q268.8125 23.8 269.5625 23.39375Q270.3125 22.9875 271.45312 22.9875Q272.625 22.9875 273.75 23.346874L273.375 25.253124Q272.71875 25.096874 272.10938 25.096874Q271.51562 25.096874 271.25 25.378124Q271.0 25.659374 271.0 26.440624L271.0 27.175L273.04688 27.175L273.04688 29.33125L271.0 29.33125L271.0 37.55L268.26562 37.55L268.26562 29.33125L266.73438 29.33125L266.73438 27.175ZM274.29688 32.221874Q274.29688 30.846874 274.96875 29.565624Q275.65625 28.284374 276.89062 27.6125Q278.125 26.940624 279.64062 26.940624Q282.0 26.940624 283.5 28.471874Q285.0 30.003124 285.0 32.33125Q285.0 34.690624 283.48438 36.2375Q281.96875 37.784374 279.65625 37.784374Q278.23438 37.784374 276.9375 37.14375Q275.65625 36.4875 274.96875 35.253124Q274.29688 34.003124 274.29688 32.221874ZM277.10938 32.3625Q277.10938 33.909374 277.84375 34.7375Q278.57812 35.55 279.65625 35.55Q280.73438 35.55 281.45312 34.7375Q282.1875 33.909374 282.1875 32.346874Q282.1875 30.815624 281.45312 30.003124Q280.73438 29.175 279.65625 29.175Q278.57812 29.175 277.84375 30.003124Q277.10938 30.815624 277.10938 32.3625ZM289.5625 37.55L286.8125 37.55L286.8125 27.175L289.375 27.175L289.375 28.659374Q290.01562 27.6125 290.53125 27.284374Q291.0625 26.940624 291.73438 26.940624Q292.67188 26.940624 293.53125 27.45625L292.6875 29.846874Q292.0 29.409374 291.40625 29.409374Q290.82812 29.409374 290.42188 29.721874Q290.01562 30.034374 289.78125 30.878124Q289.5625 31.70625 289.5625 34.346874L289.5625 37.55ZM305.6875 27.175L305.6875 29.3625L303.8125 29.3625L303.8125 33.55Q303.8125 34.815624 303.85938 35.034374Q303.92188 35.2375 304.10938 35.378124Q304.3125 35.503124 304.57812 35.503124Q304.95312 35.503124 305.6875 35.2375L305.92188 37.378124Q304.95312 37.784374 303.75 37.784374Q303.0 37.784374 302.40625 37.534374Q301.8125 37.284374 301.53125 36.89375Q301.26562 36.4875 301.15625 35.815624Q301.0625 35.346874 301.0625 33.89375L301.0625 29.3625L299.79688 29.3625L299.79688 27.175L301.0625 27.175L301.0625 25.1125L303.8125 23.51875L303.8125 27.175L305.6875 27.175ZM310.67188 23.2375L310.67188 28.503124Q312.0 26.940624 313.84375 26.940624Q314.79688 26.940624 315.54688 27.3Q316.3125 27.64375 316.70312 28.190624Q317.09375 28.7375 317.23438 29.409374Q317.375 30.065624 317.375 31.471874L317.375 37.55L314.625 37.55L314.625 32.065624Q314.625 30.440624 314.46875 30.003124Q314.3125 29.565624 313.90625 29.315624Q313.51562 29.05 312.92188 29.05Q312.25 29.05 311.70312 29.378124Q311.17188 29.70625 310.92188 30.378124Q310.67188 31.05 310.67188 32.346874L310.67188 37.55L307.92188 37.55L307.92188 23.2375L310.67188 23.2375ZM325.9375 34.253124L328.67188 34.70625Q328.15625 36.20625 327.01562 37.003124Q325.875 37.784374 324.17188 37.784374Q321.45312 37.784374 320.15625 36.01875Q319.14062 34.596874 319.14062 32.440624Q319.14062 29.8625 320.48438 28.409374Q321.82812 26.940624 323.89062 26.940624Q326.20312 26.940624 327.53125 28.471874Q328.875 30.003124 328.82812 33.159374L321.95312 33.159374Q321.98438 34.378124 322.60938 35.065624Q323.25 35.7375 324.1875 35.7375Q324.84375 35.7375 325.28125 35.39375Q325.71875 35.034374 325.9375 34.253124ZM326.09375 31.471874Q326.0625 30.284374 325.46875 29.675Q324.89062 29.05 324.0625 29.05Q323.15625 29.05 322.57812 29.690624Q321.98438 30.346874 322.0 31.471874L326.09375 31.471874ZM336.92188 37.55L336.92188 23.2375L341.25 23.2375L343.84375 33.003124L346.40625 23.2375L350.75 23.2375L350.75 37.55L348.0625 37.55L348.0625 26.284374L345.21875 37.55L342.4375 37.55L339.60938 26.284374L339.60938 37.55L336.92188 37.55ZM353.29688 32.221874Q353.29688 30.846874 353.96875 29.565624Q354.65625 28.284374 355.89062 27.6125Q357.125 26.940624 358.64062 26.940624Q361.0 26.940624 362.5 28.471874Q364.0 30.003124 364.0 32.33125Q364.0 34.690624 362.48438 36.2375Q360.96875 37.784374 358.65625 37.784374Q357.23438 37.784374 355.9375 37.14375Q354.65625 36.4875 353.96875 35.253124Q353.29688 34.003124 353.29688 32.221874ZM356.10938 32.3625Q356.10938 33.909374 356.84375 34.7375Q357.57812 35.55 358.65625 35.55Q359.73438 35.55 360.45312 34.7375Q361.1875 33.909374 361.1875 32.346874Q361.1875 30.815624 360.45312 30.003124Q359.73438 29.175 358.65625 29.175Q357.57812 29.175 356.84375 30.003124Q356.10938 30.815624 356.10938 32.3625ZM368.5625 37.55L365.8125 37.55L365.8125 27.175L368.375 27.175L368.375 28.659374Q369.01562 27.6125 369.53125 27.284374Q370.0625 26.940624 370.73438 26.940624Q371.67188 26.940624 372.53125 27.45625L371.6875 29.846874Q371.0 29.409374 370.40625 29.409374Q369.82812 29.409374 369.42188 29.721874Q369.01562 30.034374 368.78125 30.878124Q368.5625 31.70625 368.5625 34.346874L368.5625 37.55ZM373.29688 32.221874Q373.29688 30.846874 373.96875 29.565624Q374.65625 28.284374 375.89062 27.6125Q377.125 26.940624 378.64062 26.940624Q381.0 26.940624 382.5 28.471874Q384.0 30.003124 384.0 32.33125Q384.0 34.690624 382.48438 36.2375Q380.96875 37.784374 378.65625 37.784374Q377.23438 37.784374 375.9375 37.14375Q374.65625 36.4875 373.96875 35.253124Q373.29688 34.003124 373.29688 32.221874ZM376.10938 32.3625Q376.10938 33.909374 376.84375 34.7375Q377.57812 35.55 378.65625 35.55Q379.73438 35.55 380.45312 34.7375Q381.1875 33.909374 381.1875 32.346874Q381.1875 30.815624 380.45312 30.003124Q379.73438 29.175 378.65625 29.175Q377.57812 29.175 376.84375 30.003124Q376.10938 30.815624 376.10938 32.3625ZM394.98438 30.2375L392.28125 30.7375Q392.14062 29.925 391.65625 29.51875Q391.17188 29.096874 390.40625 29.096874Q389.375 29.096874 388.76562 29.815624Q388.15625 30.51875 388.15625 32.175Q388.15625 34.01875 388.76562 34.784374Q389.39062 35.55 390.4375 35.55Q391.21875 35.55 391.71875 35.1125Q392.21875 34.659374 392.42188 33.58125L395.10938 34.034374Q394.70312 35.89375 393.5 36.846874Q392.3125 37.784374 390.3125 37.784374Q388.03125 37.784374 386.67188 36.346874Q385.32812 34.909374 385.32812 32.378124Q385.32812 29.8 386.6875 28.378124Q388.04688 26.940624 390.35938 26.940624Q392.25 26.940624 393.35938 27.76875Q394.48438 28.58125 394.98438 30.2375ZM405.98438 30.2375L403.28125 30.7375Q403.14062 29.925 402.65625 29.51875Q402.17188 29.096874 401.40625 29.096874Q400.375 29.096874 399.76562 29.815624Q399.15625 30.51875 399.15625 32.175Q399.15625 34.01875 399.76562 34.784374Q400.39062 35.55 401.4375 35.55Q402.21875 35.55 402.71875 35.1125Q403.21875 34.659374 403.42188 33.58125L406.10938 34.034374Q405.70312 35.89375 404.5 36.846874Q403.3125 37.784374 401.3125 37.784374Q399.03125 37.784374 397.67188 36.346874Q396.32812 34.909374 396.32812 32.378124Q396.32812 29.8 397.6875 28.378124Q399.04688 26.940624 401.35938 26.940624Q403.25 26.940624 404.35938 27.76875Q405.48438 28.58125 405.98438 30.2375ZM409.98438 30.346874L407.5 29.89375Q407.92188 28.39375 408.9375 27.675Q409.96875 26.940624 411.98438 26.940624Q413.82812 26.940624 414.71875 27.378124Q415.625 27.815624 415.98438 28.4875Q416.35938 29.14375 416.35938 30.940624L416.32812 34.14375Q416.32812 35.503124 416.45312 36.159374Q416.59375 36.8 416.95312 37.55L414.23438 37.55Q414.125 37.26875 413.96875 36.7375Q413.90625 36.4875 413.875 36.409374Q413.17188 37.096874 412.35938 37.440624Q411.5625 37.784374 410.65625 37.784374Q409.0625 37.784374 408.14062 36.925Q407.21875 36.05 407.21875 34.721874Q407.21875 33.83125 407.625 33.14375Q408.04688 32.45625 408.79688 32.096874Q409.5625 31.721874 411.0 31.45625Q412.92188 31.096874 413.65625 30.784374L413.65625 30.503124Q413.65625 29.721874 413.26562 29.39375Q412.875 29.05 411.79688 29.05Q411.0625 29.05 410.64062 29.33125Q410.23438 29.6125 409.98438 30.346874ZM413.65625 32.565624Q413.125 32.7375 411.98438 32.9875Q410.84375 33.2375 410.5 33.471874Q409.95312 33.846874 409.95312 34.440624Q409.95312 35.003124 410.375 35.425Q410.8125 35.846874 411.48438 35.846874Q412.21875 35.846874 412.89062 35.3625Q413.39062 34.9875 413.54688 34.45625Q413.65625 34.096874 413.65625 33.1125L413.65625 32.565624ZM428.375 37.55L425.625 37.55L425.625 32.253124Q425.625 30.58125 425.45312 30.096874Q425.28125 29.596874 424.875 29.33125Q424.48438 29.05 423.92188 29.05Q423.21875 29.05 422.64062 29.440624Q422.07812 29.83125 421.85938 30.471874Q421.65625 31.1125 421.65625 32.846874L421.65625 37.55L418.92188 37.55L418.92188 27.175L421.46875 27.175L421.46875 28.70625Q422.82812 26.940624 424.89062 26.940624Q425.79688 26.940624 426.54688 27.26875Q427.29688 27.596874 427.67188 28.1125Q428.0625 28.6125 428.21875 29.26875Q428.375 29.909374 428.375 31.096874L428.375 37.55ZM436.875 37.55L436.875 23.2375L439.76562 23.2375L439.76562 37.55L436.875 37.55ZM451.45312 37.55L448.90625 37.55L448.90625 36.01875Q448.26562 36.909374 447.39062 37.346874Q446.53125 37.784374 445.65625 37.784374Q443.875 37.784374 442.59375 36.346874Q441.32812 34.909374 441.32812 32.33125Q441.32812 29.690624 442.5625 28.315624Q443.79688 26.940624 445.70312 26.940624Q447.4375 26.940624 448.70312 28.39375L448.70312 23.2375L451.45312 23.2375L451.45312 37.55ZM444.125 32.14375Q444.125 33.8 444.57812 34.534374Q445.25 35.6125 446.4375 35.6125Q447.39062 35.6125 448.04688 34.815624Q448.71875 34.003124 448.71875 32.409374Q448.71875 30.6125 448.0625 29.83125Q447.42188 29.05 446.42188 29.05Q445.4375 29.05 444.78125 29.83125Q444.125 30.596874 444.125 32.14375ZM459.9375 34.253124L462.67188 34.70625Q462.15625 36.20625 461.01562 37.003124Q459.875 37.784374 458.17188 37.784374Q455.45312 37.784374 454.15625 36.01875Q453.14062 34.596874 453.14062 32.440624Q453.14062 29.8625 454.48438 28.409374Q455.82812 26.940624 457.89062 26.940624Q460.20312 26.940624 461.53125 28.471874Q462.875 30.003124 462.82812 33.159374L455.95312 33.159374Q455.98438 34.378124 456.60938 35.065624Q457.25 35.7375 458.1875 35.7375Q458.84375 35.7375 459.28125 35.39375Q459.71875 35.034374 459.9375 34.253124ZM460.09375 31.471874Q460.0625 30.284374 459.46875 29.675Q458.89062 29.05 458.0625 29.05Q457.15625 29.05 456.57812 29.690624Q455.98438 30.346874 456.0 31.471874L460.09375 31.471874ZM474.375 37.55L471.625 37.55L471.625 32.253124Q471.625 30.58125 471.45312 30.096874Q471.28125 29.596874 470.875 29.33125Q470.48438 29.05 469.92188 29.05Q469.21875 29.05 468.64062 29.440624Q468.07812 29.83125 467.85938 30.471874Q467.65625 31.1125 467.65625 32.846874L467.65625 37.55L464.92188 37.55L464.92188 27.175L467.46875 27.175L467.46875 28.70625Q468.82812 26.940624 470.89062 26.940624Q471.79688 26.940624 472.54688 27.26875Q473.29688 27.596874 473.67188 28.1125Q474.0625 28.6125 474.21875 29.26875Q474.375 29.909374 474.375 31.096874L474.375 37.55ZM481.6875 27.175L481.6875 29.3625L479.8125 29.3625L479.8125 33.55Q479.8125 34.815624 479.85938 35.034374Q479.92188 35.2375 480.10938 35.378124Q480.3125 35.503124 480.57812 35.503124Q480.95312 35.503124 481.6875 35.2375L481.92188 37.378124Q480.95312 37.784374 479.75 37.784374Q479.0 37.784374 478.40625 37.534374Q477.8125 37.284374 477.53125 36.89375Q477.26562 36.4875 477.15625 35.815624Q477.0625 35.346874 477.0625 33.89375L477.0625 29.3625L475.79688 29.3625L475.79688 27.175L477.0625 27.175L477.0625 25.1125L479.8125 23.51875L479.8125 27.175L481.6875 27.175ZM483.9375 25.76875L483.9375 23.2375L486.6875 23.2375L486.6875 25.76875L483.9375 25.76875ZM483.9375 37.55L483.9375 27.175L486.6875 27.175L486.6875 37.55L483.9375 37.55ZM493.6875 27.175L493.6875 29.3625L491.8125 29.3625L491.8125 33.55Q491.8125 34.815624 491.85938 35.034374Q491.92188 35.2375 492.10938 35.378124Q492.3125 35.503124 492.57812 35.503124Q492.95312 35.503124 493.6875 35.2375L493.92188 37.378124Q492.95312 37.784374 491.75 37.784374Q491.0 37.784374 490.40625 37.534374Q489.8125 37.284374 489.53125 36.89375Q489.26562 36.4875 489.15625 35.815624Q489.0625 35.346874 489.0625 33.89375L489.0625 29.3625L487.79688 29.3625L487.79688 27.175L489.0625 27.175L489.0625 25.1125L491.8125 23.51875L491.8125 27.175L493.6875 27.175ZM494.64062 27.175L497.5625 27.175L500.03125 34.534374L502.45312 27.175L505.29688 27.175L501.64062 37.159374L500.98438 38.971874Q500.625 39.878124 500.29688 40.346874Q499.96875 40.83125 499.54688 41.128124Q499.125 41.425 498.5 41.58125Q497.875 41.753124 497.09375 41.753124Q496.3125 41.753124 495.54688 41.596874L495.29688 39.440624Q495.95312 39.565624 496.46875 39.565624Q497.42188 39.565624 497.875 39.003124Q498.34375 38.45625 498.57812 37.58125L494.64062 27.175Z" fill-rule="nonzero"/></svg>