<?xml version="1.0" encoding="utf-8"?>
<svg width="1267px" height="825px" viewBox="0 0 1267 825" version="1.1" xmlns:xlink="http://www.w3.org/1999/xlink" xmlns="http://www.w3.org/2000/svg">
  <defs>
    <path d="M1267 0L1267 0L1267 825L0 825L0 0L1267 0Z" id="path_1" />
    <path d="M0 0L13 0L13 1.9826L0 1.9826L0 0Z" id="path_2" />
    <path d="M0 0L1078 0L1078 89L0 89L0 0Z" id="path_3" />
    <path d="M468 0L468 0L468 78L0 78L0 0L468 0Z" id="path_4" />
    <path d="M0 0L399 0L399 21L0 21L0 0Z" id="path_5" />
    <clipPath id="clip_1">
      <use xlink:href="#path_1" clip-rule="evenodd" fill-rule="evenodd" />
    </clipPath>
    <clipPath id="clip_2">
      <use xlink:href="#path_2" clip-rule="evenodd" fill-rule="evenodd" />
    </clipPath>
    <clipPath id="clip_3">
      <use xlink:href="#path_3" clip-rule="evenodd" fill-rule="evenodd" />
    </clipPath>
    <clipPath id="clip_4">
      <use xlink:href="#path_4" clip-rule="evenodd" fill-rule="evenodd" />
    </clipPath>
    <clipPath id="clip_5">
      <use xlink:href="#path_5" clip-rule="evenodd" fill-rule="evenodd" />
    </clipPath>
  </defs>
  <g id="12">
    <path d="M1267 0L1267 0L1267 825L0 825L0 0L1267 0Z" id="12" fill="#FFFFFF" stroke="none" />
    <path d="M134.5 242L143 259L126 259L134.5 242Z" id="Triangle" fill="#757575" fill-rule="evenodd" stroke="none" clip-path="url(#clip_1)" />
    <g id="Group" transform="translate(100 627)" clip-path="url(#clip_1)">
      <path d="M24 7L44 7" id="Line" fill="none" fill-rule="evenodd" stroke="#757575" stroke-width="5" stroke-linecap="round" />
      <g id="14">
        <g transform="translate(0, 2.8977273)" id="14">
          <path d="M4.32528 2.89773L4.32528 11.625L2.74432 11.625L2.74432 4.43608L2.69318 4.43608L0.651989 5.74006L0.651989 4.29119L2.82102 2.89773L4.32528 2.89773ZM6.38778 10.0057L6.38778 8.74858L10.0909 2.89773L12.0597 2.89773L12.0597 8.70597L13.1761 8.70597L13.1761 10.0057L12.0597 10.0057L12.0597 11.625L10.5511 11.625L10.5511 10.0057L6.38778 10.0057ZM10.5682 8.70597L10.5682 4.6875L10.5 4.6875L8.0071 8.63778L8.0071 8.70597L10.5682 8.70597Z" />
        </g>
      </g>
    </g>
    <g id="Group" transform="translate(100 557)" clip-path="url(#clip_1)">
      <path d="M24 7L44 7" id="Line" fill="none" fill-rule="evenodd" stroke="#757575" stroke-width="5" stroke-linecap="round" />
      <g id="21">
        <g transform="translate(0, 2.8977273)" id="21">
          <path d="M0.775568 11.625L0.775568 10.483L3.8054 7.51278Q4.45312 6.85653 4.78125 6.39631Q5.10938 5.93608 5.10938 5.39063Q5.10938 4.77273 4.69602 4.4169Q4.28267 4.06108 3.66051 4.06108Q3.00852 4.06108 2.61861 4.45099Q2.22869 4.84091 2.22869 5.50994L0.724432 5.50994Q0.724432 4.67898 1.10369 4.06534Q1.48295 3.4517 2.14986 3.11506Q2.81676 2.77841 3.68182 2.77841Q4.55966 2.77841 5.2223 3.10653Q5.88494 3.43466 6.25568 4.00568Q6.62642 4.5767 6.62642 5.30966Q6.62642 5.79972 6.43892 6.27273Q6.25142 6.74574 5.78054 7.32315Q5.30966 7.90057 4.46165 8.71449L2.95739 10.2443L2.95739 10.304L6.75852 10.304L6.75852 11.625L0.775568 11.625ZM11.7827 2.89773L11.7827 11.625L10.2017 11.625L10.2017 4.43608L10.1506 4.43608L8.10938 5.74006L8.10938 4.29119L10.2784 2.89773L11.7827 2.89773Z" />
        </g>
      </g>
    </g>
    <g id="Group" transform="translate(100 487)" clip-path="url(#clip_1)">
      <path d="M24 7L44 7" id="Line" fill="none" fill-rule="evenodd" stroke="#757575" stroke-width="5" stroke-linecap="round" />
      <g id="28">
        <g transform="translate(0, 2.8977273)" id="28">
          <path d="M0.775568 11.625L0.775568 10.483L3.8054 7.51278Q4.45312 6.85653 4.78125 6.39631Q5.10938 5.93608 5.10938 5.39063Q5.10938 4.77273 4.69602 4.4169Q4.28267 4.06108 3.66051 4.06108Q3.00852 4.06108 2.61861 4.45099Q2.22869 4.84091 2.22869 5.50994L0.724432 5.50994Q0.724432 4.67898 1.10369 4.06534Q1.48295 3.4517 2.14986 3.11506Q2.81676 2.77841 3.68182 2.77841Q4.55966 2.77841 5.2223 3.10653Q5.88494 3.43466 6.25568 4.00568Q6.62642 4.5767 6.62642 5.30966Q6.62642 5.79972 6.43892 6.27273Q6.25142 6.74574 5.78054 7.32315Q5.30966 7.90057 4.46165 8.71449L2.95739 10.2443L2.95739 10.304L6.75852 10.304L6.75852 11.625L0.775568 11.625ZM11.3352 11.7443Q10.3849 11.7443 9.64986 11.4247Q8.91477 11.1051 8.50142 10.549Q8.08807 9.9929 8.08807 9.28551Q8.08807 8.74006 8.32884 8.2777Q8.5696 7.81534 8.98295 7.50639Q9.39631 7.19744 9.91193 7.11222L9.91193 7.05256Q9.23864 6.90341 8.82315 6.36435Q8.40767 5.82528 8.41193 5.1179Q8.41193 4.4446 8.78906 3.91619Q9.16619 3.38778 9.82884 3.0831Q10.4915 2.77841 11.3352 2.77841Q12.1747 2.77841 12.8331 3.0831Q13.4915 3.38778 13.8729 3.91619Q14.2543 4.4446 14.2543 5.1179Q14.25 5.82528 13.8324 6.36435Q13.4148 6.90341 12.7543 7.05256L12.7543 7.11222Q13.2614 7.19744 13.6747 7.50639Q14.0881 7.81534 14.3331 8.2777Q14.5781 8.74006 14.5781 9.28551Q14.5781 9.9929 14.1605 10.549Q13.7429 11.1051 13.0121 11.4247Q12.2813 11.7443 11.3352 11.7443ZM11.3352 10.5256Q12.0682 10.5256 12.5092 10.1527Q12.9503 9.77983 12.9545 9.17472Q12.9503 8.55256 12.4922 8.14986Q12.0341 7.74716 11.3352 7.74716Q10.6278 7.74716 10.1697 8.14773Q9.71165 8.5483 9.71591 9.17472Q9.71165 9.77983 10.1527 10.1527Q10.5938 10.5256 11.3352 10.5256ZM11.3352 6.54972Q11.9318 6.54972 12.3217 6.19389Q12.7116 5.83807 12.7159 5.26705Q12.7116 4.70455 12.3281 4.35938Q11.9446 4.0142 11.3352 4.0142Q10.7173 4.0142 10.3338 4.35938Q9.95028 4.70455 9.95455 5.26705Q9.95028 5.83381 10.3402 6.19176Q10.7301 6.54972 11.3352 6.54972Z" />
        </g>
      </g>
    </g>
    <g id="Group" transform="translate(100 417)" clip-path="url(#clip_1)">
      <path d="M24 7L44 7" id="Line" fill="none" fill-rule="evenodd" stroke="#757575" stroke-width="5" stroke-linecap="round" />
      <g id="35">
        <g transform="translate(0, 2.8977273)" id="35">
          <path d="M3.90767 11.7443Q2.98722 11.7443 2.27344 11.429Q1.55966 11.1136 1.14418 10.5511Q0.728693 9.98864 0.707386 9.25142L2.30966 9.25142Q2.33949 9.78409 2.79332 10.1016Q3.24716 10.419 3.90341 10.419Q4.60227 10.419 5.05398 10.0589Q5.50568 9.69886 5.50142 9.11932Q5.50568 8.52699 5.03906 8.15199Q4.57244 7.77699 3.74574 7.77699L2.97443 7.77699L2.97443 6.55824L3.74574 6.55824Q4.4233 6.55824 4.85156 6.20881Q5.27983 5.85938 5.27557 5.28835Q5.27983 4.73864 4.90696 4.39986Q4.53409 4.06108 3.92472 4.06108Q3.3196 4.06108 2.87642 4.38068Q2.43324 4.70028 2.41193 5.25L0.890625 5.25Q0.90767 4.51705 1.3125 3.96094Q1.71733 3.40483 2.40128 3.09162Q3.08523 2.77841 3.93324 2.77841Q4.80682 2.77841 5.45241 3.1044Q6.09801 3.4304 6.45384 3.98011Q6.80966 4.52983 6.8054 5.1946Q6.80966 5.92756 6.375 6.42827Q5.94034 6.92898 5.22869 7.08239L5.22869 7.15057Q6.14489 7.28267 6.6392 7.83239Q7.13352 8.3821 7.12926 9.20028Q7.13352 9.9375 6.71591 10.5128Q6.2983 11.0881 5.5696 11.4162Q4.84091 11.7443 3.90767 11.7443ZM11.6293 11.7443Q10.777 11.7443 10.1037 11.4226Q9.4304 11.1009 9.03409 10.5384Q8.63778 9.97585 8.61648 9.25142L10.1506 9.25142Q10.1932 9.78835 10.6151 10.1271Q11.0369 10.4659 11.6293 10.4659Q12.3281 10.4659 12.782 9.99716Q13.2358 9.52841 13.2315 8.79545Q13.2358 8.05398 12.7713 7.5767Q12.3068 7.09943 11.5866 7.09517Q11.1946 7.09091 10.8153 7.24006Q10.4361 7.3892 10.2145 7.6321L8.78693 7.39773L9.2429 2.89773L14.3054 2.89773L14.3054 4.21875L10.5511 4.21875L10.2997 6.53267L10.3509 6.53267Q10.5938 6.2429 11.0369 6.0554Q11.4801 5.8679 12.0085 5.8679Q12.8011 5.8679 13.4233 6.24077Q14.0455 6.61364 14.4034 7.26563Q14.7614 7.91761 14.7614 8.7571Q14.7614 9.62216 14.3629 10.2976Q13.9645 10.973 13.2592 11.3587Q12.554 11.7443 11.6293 11.7443Z" />
        </g>
      </g>
    </g>
    <g id="Group" transform="translate(100 347)" clip-path="url(#clip_1)">
      <path d="M24 7L44 7" id="Line" fill="none" fill-rule="evenodd" stroke="#757575" stroke-width="5" stroke-linecap="round" />
      <g id="42">
        <g transform="translate(0, 2.8977273)" id="42">
          <path d="M0.617898 10.0057L0.617898 8.74858L4.32102 2.89773L6.28977 2.89773L6.28977 8.70597L7.40625 8.70597L7.40625 10.0057L6.28977 10.0057L6.28977 11.625L4.78125 11.625L4.78125 10.0057L0.617898 10.0057ZM4.7983 8.70597L4.7983 4.6875L4.73011 4.6875L2.23722 8.63778L2.23722 8.70597L4.7983 8.70597ZM8.76563 11.625L8.76563 10.483L11.7955 7.51278Q12.4432 6.85653 12.7713 6.39631Q13.0994 5.93608 13.0994 5.39063Q13.0994 4.77273 12.6861 4.4169Q12.2727 4.06108 11.6506 4.06108Q10.9986 4.06108 10.6087 4.45099Q10.2188 4.84091 10.2188 5.50994L8.71449 5.50994Q8.71449 4.67898 9.09375 4.06534Q9.47301 3.4517 10.1399 3.11506Q10.8068 2.77841 11.6719 2.77841Q12.5497 2.77841 13.2124 3.10653Q13.875 3.43466 14.2457 4.00568Q14.6165 4.5767 14.6165 5.30966Q14.6165 5.79972 14.429 6.27273Q14.2415 6.74574 13.7706 7.32315Q13.2997 7.90057 12.4517 8.71449L10.9474 10.2443L10.9474 10.304L14.7486 10.304L14.7486 11.625L8.76563 11.625Z" />
        </g>
      </g>
    </g>
    <g id="Group" transform="translate(99 277)" clip-path="url(#clip_1)">
      <path d="M24 7L44 7" id="Line" fill="none" fill-rule="evenodd" stroke="#757575" stroke-width="5" stroke-linecap="round" />
      <g id="49">
        <g transform="translate(0, 2.8977273)" id="49">
          <path d="M0.617898 10.0057L0.617898 8.74858L4.32102 2.89773L6.28977 2.89773L6.28977 8.70597L7.40625 8.70597L7.40625 10.0057L6.28977 10.0057L6.28977 11.625L4.78125 11.625L4.78125 10.0057L0.617898 10.0057ZM4.7983 8.70597L4.7983 4.6875L4.73011 4.6875L2.23722 8.63778L2.23722 8.70597L4.7983 8.70597ZM11.7955 2.77841Q12.4219 2.78267 13.0163 2.99787Q13.6108 3.21307 14.0881 3.69673Q14.5653 4.1804 14.8466 4.99006Q15.1278 5.79972 15.1278 6.9929Q15.1321 8.4929 14.7124 9.55611Q14.2926 10.6193 13.5234 11.1818Q12.7543 11.7443 11.706 11.7443Q10.8793 11.7443 10.2422 11.4205Q9.60511 11.0966 9.21307 10.532Q8.82102 9.96733 8.73153 9.24716L10.2869 9.24716Q10.4063 9.76705 10.7727 10.0717Q11.1392 10.3764 11.706 10.3764Q12.6094 10.3764 13.0994 9.58594Q13.5895 8.79545 13.5938 7.39773L13.5341 7.39773Q13.2188 7.96023 12.6392 8.28196Q12.0597 8.60369 11.3523 8.60369Q10.5895 8.60369 9.97585 8.23722Q9.36222 7.87074 9.00639 7.23153Q8.65057 6.59233 8.64631 5.76989Q8.64631 4.91761 9.04048 4.23793Q9.43466 3.55824 10.142 3.16406Q10.8494 2.76989 11.7955 2.77841ZM11.7997 4.05682Q11.3395 4.05682 10.973 4.28054Q10.6065 4.50426 10.3935 4.88565Q10.1804 5.26705 10.1804 5.7358Q10.1847 6.20028 10.3913 6.57955Q10.598 6.95881 10.9581 7.1804Q11.3182 7.40199 11.7827 7.40199Q12.2429 7.40199 12.6136 7.16974Q12.9844 6.9375 13.2038 6.55611Q13.4233 6.17472 13.419 5.72301Q13.419 5.27557 13.2081 4.89631Q12.9972 4.51705 12.6328 4.28693Q12.2685 4.05682 11.7997 4.05682Z" />
        </g>
      </g>
    </g>
    <g id="Group" transform="translate(100 697)" clip-path="url(#clip_1)">
      <path d="M24 7L44 7" id="Line" fill="none" fill-rule="evenodd" stroke="#757575" stroke-width="5" stroke-linecap="round" />
      <g id="7">
        <g transform="translate(0, 2.8977273)" id="7">
          <path d="M1.09517 11.625L4.80682 4.27841L4.80682 4.21875L0.49858 4.21875L0.49858 2.89773L6.44318 2.89773L6.44318 4.24858L2.7358 11.625L1.09517 11.625Z" />
        </g>
      </g>
    </g>
    <path d="M134.5 259.432L134.5 773.5" id="Line" fill="none" fill-rule="evenodd" stroke="#757575" stroke-width="5" stroke-linecap="square" clip-path="url(#clip_1)" />
    <g id="Group" transform="translate(103 306)" clip-path="url(#clip_1)">
      <g id="Group">
        <path d="M134 0L214 0L214 466L134 466L134 0Z" id="Rectangle" fill="#00FFFF" fill-rule="evenodd" stroke="none" />
        <g id="46" transform="translate(155 215)">
          <g transform="translate(0, 7.244318)" id="47">
            <path d="M1.43821 25.2273L1.43821 21.5945L10.5469 7.24432L16.321 7.24432L16.321 21.5305L19.027 21.5305L19.027 25.2273L16.321 25.2273L16.321 29.0625L11.9105 29.0625L11.9105 25.2273L1.43821 25.2273ZM11.9957 21.5305L11.9957 12.2727L11.8253 12.2727L6.0831 21.3601L6.0831 21.5305L11.9957 21.5305ZM22.9688 29.0625L32.0135 11.1648L32.0135 11.0156L21.4773 11.0156L21.4773 7.24432L36.7862 7.24432L36.7862 11.0689L27.7308 29.0625L22.9688 29.0625Z" />
          </g>
        </g>
      </g>
    </g>
    <g id="Group" transform="translate(410 363)" clip-path="url(#clip_1)">
      <g id="Group">
        <path d="M0 0L80 0L80 411L0 411L0 0Z" id="Rectangle" fill="#FFFF00" fill-rule="evenodd" stroke="none" />
        <g id="44" transform="translate(20 187.00002)">
          <g transform="translate(0, 7.244318)" id="43">
            <path d="M1.43821 25.2273L1.43821 21.5945L10.5469 7.24432L16.321 7.24432L16.321 21.5305L19.027 21.5305L19.027 25.2273L16.321 25.2273L16.321 29.0625L11.9105 29.0625L11.9105 25.2273L1.43821 25.2273ZM11.9957 21.5305L11.9957 12.2727L11.8253 12.2727L6.0831 21.3601L6.0831 21.5305L11.9957 21.5305ZM30.1705 29.3608Q27.7734 29.3608 25.9197 28.5405Q24.0661 27.7202 23.0007 26.2607Q21.9354 24.8011 21.8928 22.8942L26.5376 22.8942Q26.6016 24.0874 27.6296 24.8224Q28.6577 25.5575 30.1811 25.5575Q31.7685 25.5575 32.7752 24.7425Q33.782 23.9276 33.7713 22.6278Q33.782 21.3068 32.7006 20.4705Q31.6193 19.6342 29.7656 19.6342L27.7308 19.6342L27.7308 16.2464L29.7656 16.2464Q31.3423 16.2464 32.3331 15.4528Q33.3239 14.6591 33.3132 13.37Q33.3239 12.1342 32.4663 11.3672Q31.6087 10.6001 30.2131 10.6001Q28.7962 10.6001 27.7947 11.3459Q26.7933 12.0916 26.7507 13.3381L22.3295 13.3381Q22.3615 11.4524 23.4055 10.0089Q24.4496 8.56534 26.2234 7.75568Q27.9972 6.94602 30.2344 6.94602Q32.4929 6.94602 34.1868 7.76633Q35.8807 8.58665 36.8235 9.97692Q37.7663 11.3672 37.7557 13.093Q37.7663 14.9254 36.6211 16.1506Q35.4759 17.3757 33.6435 17.706L33.6435 17.8764Q36.0511 18.1747 37.3136 19.5384Q38.576 20.902 38.5653 22.9368Q38.576 24.8011 37.4947 26.25Q36.4134 27.6989 34.517 28.5298Q32.6207 29.3608 30.1705 29.3608Z" />
          </g>
        </g>
      </g>
    </g>
    <g id="Group" transform="translate(583 639)" clip-path="url(#clip_1)">
      <g id="Group">
        <path d="M0 0L80 0L80 135L0 135L0 0Z" id="Rectangle" fill="#FF9500" fill-rule="evenodd" stroke="none" />
        <g id="43" transform="translate(23 49)">
          <g transform="translate(0, 7.244318)" id="14">
            <path d="M11.2607 7.24432L11.2607 29.0625L6.64773 29.0625L6.64773 11.6229L6.51989 11.6229L1.52344 14.755L1.52344 10.6641L6.92472 7.24432L11.2607 7.24432ZM16.1186 25.2273L16.1186 21.5945L25.2273 7.24432L31.0014 7.24432L31.0014 21.5305L33.7074 21.5305L33.7074 25.2273L31.0014 25.2273L31.0014 29.0625L26.5909 29.0625L26.5909 25.2273L16.1186 25.2273ZM26.6761 21.5305L26.6761 12.2727L26.5057 12.2727L20.7635 21.3601L20.7635 21.5305L26.6761 21.5305Z" />
          </g>
        </g>
      </g>
    </g>
    <g id="Group" transform="translate(756 648)" clip-path="url(#clip_1)">
      <g id="Group">
        <path d="M0 0L80 0L80 126L0 126L0 0Z" id="Rectangle" fill="#00FF2A" fill-rule="evenodd" stroke="none" />
      </g>
      <g id="Group" transform="translate(25 45)">
        <path d="M136 13L216 13L216 81L136 81L136 13Z" id="Rectangle" fill="#FF00D9" fill-rule="evenodd" stroke="none" />
        <g id="25" transform="translate(167 29)">
          <g transform="translate(0, 7.244318)" id="7">
            <path d="M2.63139 29.0625L11.6761 11.1648L11.6761 11.0156L1.13991 11.0156L1.13991 7.24432L16.4489 7.24432L16.4489 11.0689L7.39347 29.0625L2.63139 29.0625Z" />
          </g>
        </g>
        <g id="25">
          <g transform="translate(0, 7.244318)" id="13">
            <path d="M11.2607 7.24432L11.2607 29.0625L6.64773 29.0625L6.64773 11.6229L6.51989 11.6229L1.52344 14.755L1.52344 10.6641L6.92472 7.24432L11.2607 7.24432ZM24.5135 29.3608Q22.1165 29.3608 20.2628 28.5405Q18.4091 27.7202 17.3438 26.2607Q16.2784 24.8011 16.2358 22.8942L20.8807 22.8942Q20.9446 24.0874 21.9727 24.8224Q23.0007 25.5575 24.5241 25.5575Q26.1115 25.5575 27.1183 24.7425Q28.125 23.9276 28.1143 22.6278Q28.125 21.3068 27.0437 20.4705Q25.9624 19.6342 24.1087 19.6342L22.0739 19.6342L22.0739 16.2464L24.1087 16.2464Q25.6854 16.2464 26.6761 15.4528Q27.6669 14.6591 27.6563 13.37Q27.6669 12.1342 26.8093 11.3672Q25.9517 10.6001 24.5561 10.6001Q23.1392 10.6001 22.1378 11.3459Q21.1364 12.0916 21.0938 13.3381L16.6726 13.3381Q16.7045 11.4524 17.7486 10.0089Q18.7926 8.56534 20.5664 7.75568Q22.3402 6.94602 24.5774 6.94602Q26.8359 6.94602 28.5298 7.76633Q30.2237 8.58665 31.1665 9.97692Q32.1094 11.3672 32.0987 13.093Q32.1094 14.9254 30.9641 16.1506Q29.8189 17.3757 27.9865 17.706L27.9865 17.8764Q30.3942 18.1747 31.6566 19.5384Q32.919 20.902 32.9084 22.9368Q32.919 24.8011 31.8377 26.25Q30.7564 27.6989 28.8601 28.5298Q26.9638 29.3608 24.5135 29.3608Z" />
          </g>
        </g>
        <g id="8" clip-path="url(#clip_2)" transform="translate(170 63.321777)">
          <g transform="translate(2.534801, 2.8977273)" id="8">
            <path d="M3.96307 11.7443Q2.97869 11.7443 2.21378 11.4226Q1.44886 11.1009 1.0142 10.5426Q0.579545 9.98438 0.579545 9.27699Q0.579545 8.73153 0.828835 8.27344Q1.07813 7.81534 1.50852 7.51065Q1.93892 7.20597 2.47159 7.12074L2.47159 7.06108Q1.77699 6.92045 1.33807 6.38139Q0.899148 5.84233 0.903409 5.12642Q0.903409 4.44886 1.29972 3.91832Q1.69602 3.38778 2.38849 3.0831Q3.08097 2.77841 3.96307 2.77841Q4.84517 2.77841 5.53764 3.0831Q6.23011 3.38778 6.62855 3.91832Q7.02699 4.44886 7.02699 5.12642Q7.02273 5.84659 6.58381 6.38352Q6.14489 6.92045 5.45881 7.06108L5.45881 7.12074Q5.98295 7.20597 6.41122 7.51065Q6.83949 7.81534 7.09517 8.27344Q7.35085 8.73153 7.35085 9.27699Q7.35085 9.98438 6.91406 10.5426Q6.47727 11.1009 5.71236 11.4226Q4.94744 11.7443 3.96307 11.7443ZM3.96307 10.3892Q4.61932 10.3892 5.02415 10.0376Q5.42898 9.68608 5.42898 9.1321Q5.42898 8.56534 5.01349 8.19886Q4.59801 7.83239 3.96307 7.83239Q3.32813 7.83239 2.91264 8.19886Q2.49716 8.56534 2.49716 9.1321Q2.49716 9.68608 2.90199 10.0376Q3.30682 10.3892 3.96307 10.3892ZM3.96307 6.49006Q4.51278 6.49006 4.86861 6.16193Q5.22443 5.83381 5.22443 5.31818Q5.22443 4.81108 4.87287 4.48935Q4.52131 4.16761 3.96307 4.16761Q3.40483 4.16761 3.05327 4.48722Q2.7017 4.80682 2.7017 5.31818Q2.7017 5.83381 3.0554 6.16193Q3.40909 6.49006 3.96307 6.49006Z" />
          </g>
        </g>
      </g>
    </g>
    <path d="M1093 774L135 774" id="Line" fill="none" fill-rule="evenodd" stroke="#757575" stroke-width="5" stroke-linecap="square" clip-path="url(#clip_1)" />
    <g id="If-a-new-writing-system-for-Da" clip-path="url(#clip_3)" transform="translate(94 47)">
      <g transform="translate(178.93604, 8.693182)" id="Unsuitability-of-the-currently-used-scripts">
        <path d="M19.0866 8.69318L23.8295 8.69318L23.8295 25.7983Q23.8295 28.6108 22.5 30.7457Q21.1705 32.8807 18.7862 34.076Q16.402 35.2713 13.206 35.2713Q10.0099 35.2713 7.61932 34.076Q5.22869 32.8807 3.90554 30.7457Q2.58239 28.6108 2.58239 25.7983L2.58239 8.69318L7.32528 8.69318L7.32528 25.402Q7.32528 27.8693 8.9169 29.4545Q10.5085 31.0398 13.206 31.0398Q15.9034 31.0398 17.495 29.4545Q19.0866 27.8693 19.0866 25.402L19.0866 8.69318ZM33.4176 23.3693L33.4176 34.875L28.7898 34.875L28.7898 15.2386L33.2131 15.2386L33.2131 18.5753L33.4432 18.5753Q34.1207 16.9389 35.6101 15.9609Q37.0994 14.983 39.2983 14.983Q42.3409 14.983 44.1882 16.9134Q46.0355 18.8438 46.0227 22.3722L46.0227 34.875L41.3949 34.875L41.3949 23.0881Q41.3949 21.1193 40.3786 20.0071Q39.3622 18.8949 37.5724 18.8949Q35.7443 18.8949 34.581 20.0646Q33.4176 21.2344 33.4176 23.3693ZM66.2599 20.429L62.0412 20.8892Q61.7727 19.9176 60.897 19.1761Q60.0213 18.4347 58.4233 18.4347Q56.9787 18.4347 56.0007 19.0611Q55.0227 19.6875 55.0355 20.6847Q55.0227 21.5412 55.6683 22.0845Q56.3139 22.6278 57.8097 22.9602L61.1591 23.6761Q66.669 24.8778 66.6818 28.9943Q66.6818 30.848 65.608 32.2607Q64.5341 33.6733 62.642 34.4659Q60.75 35.2585 58.2955 35.2585Q54.6776 35.2585 52.4915 33.7372Q50.3054 32.2159 49.8707 29.5185L54.3835 29.0838Q54.9844 31.7685 58.2827 31.7685Q59.9318 31.7685 60.9354 31.0973Q61.9389 30.4261 61.9389 29.4162Q61.9389 27.767 59.2926 27.179L55.9432 26.4759Q53.1179 25.8878 51.7628 24.4879Q50.4077 23.0881 50.4205 20.9403Q50.4205 19.125 51.4176 17.7891Q52.4148 16.4531 54.2045 15.718Q55.9943 14.983 58.3594 14.983Q61.8111 14.983 63.799 16.4595Q65.7869 17.9361 66.2599 20.429ZM83.0199 26.6165L83.0199 15.2386L87.6477 15.2386L87.6477 34.875L83.1605 34.875L83.1605 31.3849L82.956 31.3849Q82.2912 33.0341 80.7763 34.0824Q79.2614 35.1307 77.0497 35.1307Q74.1605 35.1307 72.3324 33.2067Q70.5043 31.2827 70.5043 27.7415L70.5043 15.2386L75.1321 15.2386L75.1321 27.0256Q75.1321 28.892 76.1548 29.9915Q77.1776 31.0909 78.8395 31.0909Q79.8622 31.0909 80.821 30.5923Q81.7798 30.0938 82.3999 29.103Q83.0199 28.1122 83.0199 26.6165ZM92.4034 34.875L92.4034 15.2386L97.0313 15.2386L97.0313 34.875L92.4034 34.875ZM94.7301 12.4517Q93.6179 12.4517 92.8317 11.7166Q92.0455 10.9815 92.0455 9.94602Q92.0455 8.89773 92.8317 8.16264Q93.6179 7.42756 94.7301 7.42756Q95.8295 7.42756 96.6158 8.16264Q97.402 8.89773 97.402 9.94602Q97.402 10.9815 96.6158 11.7166Q95.8295 12.4517 94.7301 12.4517ZM111.592 15.2386L111.592 18.8182L107.719 18.8182L107.719 28.9688Q107.719 30.3622 108.332 30.8033Q108.946 31.2443 109.815 31.2443Q110.25 31.2443 110.614 31.1804Q110.979 31.1165 111.17 31.0653L111.95 34.6832Q111.58 34.8111 110.896 34.9645Q110.212 35.1179 109.227 35.1435Q106.619 35.2202 104.849 33.8651Q103.078 32.5099 103.091 29.7358L103.091 18.8182L100.304 18.8182L100.304 15.2386L103.091 15.2386L103.091 10.5341L107.719 10.5341L107.719 15.2386L111.592 15.2386ZM121.116 35.2713Q118.304 35.2713 116.425 33.7628Q114.545 32.2543 114.545 29.3651Q114.545 27.1534 115.613 25.9325Q116.68 24.7116 118.387 24.1555Q120.094 23.5994 121.999 23.3949Q124.594 23.1136 125.725 22.8707Q126.857 22.6278 126.857 21.6307L126.857 21.554Q126.857 20.1094 126 19.3168Q125.143 18.5241 123.533 18.5241Q121.832 18.5241 120.842 19.2656Q119.851 20.0071 119.506 21.017L115.185 20.4034Q115.952 17.7188 118.183 16.3509Q120.413 14.983 123.507 14.983Q124.913 14.983 126.32 15.3153Q127.726 15.6477 128.896 16.4148Q130.065 17.1818 130.775 18.4858Q131.484 19.7898 131.484 21.733L131.484 34.875L127.036 34.875L127.036 32.1776L126.882 32.1776Q126.256 33.4176 124.843 34.3445Q123.43 35.2713 121.116 35.2713ZM122.318 31.8707Q124.415 31.8707 125.642 30.669Q126.869 29.4673 126.869 27.831L126.869 25.517Q126.575 25.7599 125.789 25.9453Q125.003 26.1307 124.121 26.2585Q123.239 26.3864 122.625 26.4759Q121.078 26.6932 120.043 27.326Q119.007 27.9588 119.007 29.2884Q119.007 30.5668 119.94 31.2188Q120.874 31.8707 122.318 31.8707ZM136.355 34.875L136.355 8.69318L140.983 8.69318L140.983 18.4858L141.175 18.4858Q141.533 17.7699 142.178 16.9581Q142.824 16.1463 143.942 15.5646Q145.061 14.983 146.787 14.983Q149.063 14.983 150.897 16.1463Q152.732 17.3097 153.812 19.5597Q154.892 21.8097 154.892 25.0824Q154.892 28.3168 153.831 30.5795Q152.77 32.8423 150.942 34.0313Q149.114 35.2202 146.8 35.2202Q145.112 35.2202 144 34.6577Q142.888 34.0952 142.217 33.2962Q141.545 32.4972 141.175 31.7813L140.906 31.7813L140.906 34.875L136.355 34.875ZM140.893 25.0568Q140.893 27.9077 142.095 29.6655Q143.297 31.4233 145.509 31.4233Q147.797 31.4233 148.986 29.6207Q150.175 27.8182 150.175 25.0568Q150.175 22.3082 148.999 20.544Q147.822 18.7798 145.509 18.7798Q143.271 18.7798 142.082 20.4865Q140.893 22.1932 140.893 25.0568ZM158.842 34.875L158.842 15.2386L163.47 15.2386L163.47 34.875L158.842 34.875ZM161.169 12.4517Q160.057 12.4517 159.271 11.7166Q158.484 10.9815 158.484 9.94602Q158.484 8.89773 159.271 8.16264Q160.057 7.42756 161.169 7.42756Q162.268 7.42756 163.055 8.16264Q163.841 8.89773 163.841 9.94602Q163.841 10.9815 163.055 11.7166Q162.268 12.4517 161.169 12.4517ZM172.854 8.69318L172.854 34.875L168.226 34.875L168.226 8.69318L172.854 8.69318ZM177.609 34.875L177.609 15.2386L182.237 15.2386L182.237 34.875L177.609 34.875ZM179.936 12.4517Q178.824 12.4517 178.038 11.7166Q177.251 10.9815 177.251 9.94602Q177.251 8.89773 178.038 8.16264Q178.824 7.42756 179.936 7.42756Q181.036 7.42756 181.822 8.16264Q182.608 8.89773 182.608 9.94602Q182.608 10.9815 181.822 11.7166Q181.036 12.4517 179.936 12.4517ZM196.798 15.2386L196.798 18.8182L192.925 18.8182L192.925 28.9688Q192.925 30.3622 193.538 30.8033Q194.152 31.2443 195.021 31.2443Q195.456 31.2443 195.82 31.1804Q196.185 31.1165 196.376 31.0653L197.156 34.6832Q196.786 34.8111 196.102 34.9645Q195.418 35.1179 194.433 35.1435Q191.825 35.2202 190.055 33.8651Q188.284 32.5099 188.297 29.7358L188.297 18.8182L185.51 18.8182L185.51 15.2386L188.297 15.2386L188.297 10.5341L192.925 10.5341L192.925 15.2386L196.798 15.2386ZM203.548 42.2386Q202.602 42.2386 201.803 42.0916Q201.004 41.9446 200.531 41.7528L201.605 38.1477Q203.126 38.5824 204.162 38.3011Q205.197 38.0199 205.837 36.3452L206.233 35.2841L199.112 15.2386L204.021 15.2386L208.547 30.0682L208.751 30.0682L213.29 15.2386L218.212 15.2386L210.349 37.2528Q209.518 39.6051 207.889 40.9219Q206.259 42.2386 203.548 42.2386ZM238.909 35.2585Q236.033 35.2585 233.923 33.9929Q231.814 32.7273 230.657 30.4453Q229.5 28.1634 229.5 25.1335Q229.5 22.0909 230.657 19.8089Q231.814 17.527 233.923 16.255Q236.033 14.983 238.909 14.983Q241.786 14.983 243.901 16.255Q246.017 17.527 247.168 19.8089Q248.318 22.0909 248.318 25.1335Q248.318 28.1634 247.168 30.4453Q246.017 32.7273 243.901 33.9929Q241.786 35.2585 238.909 35.2585ZM238.935 31.5511Q240.507 31.5511 241.549 30.6946Q242.591 29.8381 243.109 28.3743Q243.626 26.9105 243.626 25.1207Q243.626 23.3182 243.109 21.8544Q242.591 20.3906 241.549 19.5213Q240.507 18.652 238.935 18.652Q237.349 18.652 236.295 19.5213Q235.24 20.3906 234.716 21.8544Q234.192 23.3182 234.192 25.1207Q234.192 26.9105 234.716 28.3743Q235.24 29.8381 236.295 30.6946Q237.349 31.5511 238.935 31.5511ZM262.176 15.2386L262.176 18.8182L258.098 18.8182L258.098 34.875L253.47 34.875L253.47 18.8182L250.568 18.8182L250.568 15.2386L253.47 15.2386L253.47 13.3849Q253.47 11.4034 254.295 10.0866Q255.119 8.76989 256.513 8.1179Q257.906 7.46591 259.607 7.46591Q260.808 7.46591 261.741 7.65767Q262.675 7.84944 263.122 8.00284L262.189 11.5824Q261.908 11.4929 261.46 11.397Q261.013 11.3011 260.463 11.3011Q259.172 11.3011 258.635 11.9212Q258.098 12.5412 258.098 13.6918L258.098 15.2386L262.176 15.2386ZM284.548 15.2386L284.548 18.8182L280.675 18.8182L280.675 28.9688Q280.675 30.3622 281.288 30.8033Q281.902 31.2443 282.771 31.2443Q283.206 31.2443 283.57 31.1804Q283.935 31.1165 284.126 31.0653L284.906 34.6832Q284.535 34.8111 283.852 34.9645Q283.168 35.1179 282.183 35.1435Q279.575 35.2202 277.805 33.8651Q276.034 32.5099 276.047 29.7358L276.047 18.8182L273.26 18.8182L273.26 15.2386L276.047 15.2386L276.047 10.5341L280.675 10.5341L280.675 15.2386L284.548 15.2386ZM293.459 23.3693L293.459 34.875L288.831 34.875L288.831 8.69318L293.357 8.69318L293.357 18.5753L293.587 18.5753Q294.264 16.9006 295.715 15.9418Q297.166 14.983 299.429 14.983Q302.484 14.983 304.338 16.9006Q306.192 18.8182 306.192 22.3722L306.192 34.875L301.564 34.875L301.564 23.0881Q301.564 21.1065 300.548 20.0007Q299.531 18.8949 297.703 18.8949Q295.849 18.8949 294.654 20.0646Q293.459 21.2344 293.459 23.3693ZM319.589 35.2585Q316.636 35.2585 314.495 34.0185Q312.354 32.7784 311.203 30.5156Q310.053 28.2528 310.053 25.1719Q310.053 22.142 311.203 19.8473Q312.354 17.5526 314.444 16.2678Q316.534 14.983 319.347 14.983Q321.763 14.983 323.808 16.0249Q325.854 17.0668 327.087 19.2592Q328.321 21.4517 328.321 24.9034L328.321 26.3224L314.642 26.3224Q314.68 28.8409 316.042 30.2472Q317.403 31.6534 319.653 31.6534Q321.149 31.6534 322.242 31.0078Q323.335 30.3622 323.808 29.1222L328.129 29.608Q327.516 32.1648 325.272 33.7116Q323.028 35.2585 319.589 35.2585ZM314.655 23.2031L323.885 23.2031Q323.872 21.196 322.638 19.892Q321.405 18.5881 319.411 18.5881Q317.339 18.5881 316.048 19.956Q314.757 21.3239 314.655 23.2031ZM349.734 35.2585Q346.807 35.2585 344.697 33.9673Q342.588 32.6761 341.457 30.3878Q340.325 28.0994 340.325 25.1335Q340.325 22.1293 341.476 19.8473Q342.626 17.5653 344.729 16.2741Q346.832 14.983 349.709 14.983Q352.112 14.983 353.953 15.8587Q355.794 16.7344 356.893 18.3196Q357.993 19.9048 358.146 22.0398L353.723 22.0398Q353.455 20.6207 352.451 19.6683Q351.447 18.7159 349.773 18.7159Q347.638 18.7159 346.327 20.397Q345.017 22.0781 345.017 25.0568Q345.017 28.0611 346.315 29.7741Q347.612 31.4872 349.773 31.4872Q351.294 31.4872 352.361 30.6179Q353.429 29.7486 353.723 28.1634L358.146 28.1634Q357.98 30.2472 356.919 31.8452Q355.858 33.4432 354.03 34.3509Q352.202 35.2585 349.734 35.2585ZM374.472 26.6165L374.472 15.2386L379.099 15.2386L379.099 34.875L374.612 34.875L374.612 31.3849L374.408 31.3849Q373.743 33.0341 372.228 34.0824Q370.713 35.1307 368.501 35.1307Q365.612 35.1307 363.784 33.2067Q361.956 31.2827 361.956 27.7415L361.956 15.2386L366.584 15.2386L366.584 27.0256Q366.584 28.892 367.607 29.9915Q368.629 31.0909 370.291 31.0909Q371.314 31.0909 372.273 30.5923Q373.232 30.0938 373.852 29.103Q374.472 28.1122 374.472 26.6165ZM383.855 34.875L383.855 15.2386L388.342 15.2386L388.342 18.5114L388.547 18.5114Q389.084 16.7983 390.394 15.8778Q391.704 14.9574 393.392 14.9574Q393.776 14.9574 394.255 14.9893Q394.734 15.0213 395.054 15.0852L395.054 19.3423Q394.76 19.2401 394.127 19.157Q393.494 19.0739 392.906 19.0739Q391.001 19.0739 389.742 20.2692Q388.483 21.4645 388.483 23.331L388.483 34.875L383.855 34.875ZM398.135 34.875L398.135 15.2386L402.622 15.2386L402.622 18.5114L402.827 18.5114Q403.364 16.7983 404.674 15.8778Q405.984 14.9574 407.672 14.9574Q408.055 14.9574 408.535 14.9893Q409.014 15.0213 409.334 15.0852L409.334 19.3423Q409.04 19.2401 408.407 19.157Q407.774 19.0739 407.186 19.0739Q405.281 19.0739 404.022 20.2692Q402.763 21.4645 402.763 23.331L402.763 34.875L398.135 34.875ZM420.29 35.2585Q417.337 35.2585 415.195 34.0185Q413.054 32.7784 411.903 30.5156Q410.753 28.2528 410.753 25.1719Q410.753 22.142 411.903 19.8473Q413.054 17.5526 415.144 16.2678Q417.234 14.983 420.047 14.983Q422.463 14.983 424.508 16.0249Q426.554 17.0668 427.788 19.2592Q429.021 21.4517 429.021 24.9034L429.021 26.3224L415.342 26.3224Q415.381 28.8409 416.742 30.2472Q418.104 31.6534 420.354 31.6534Q421.849 31.6534 422.942 31.0078Q424.035 30.3622 424.508 29.1222L428.829 29.608Q428.216 32.1648 425.972 33.7116Q423.729 35.2585 420.29 35.2585ZM415.355 23.2031L424.585 23.2031Q424.572 21.196 423.339 19.892Q422.105 18.5881 420.111 18.5881Q418.04 18.5881 416.749 19.956Q415.457 21.3239 415.355 23.2031ZM437.561 23.3693L437.561 34.875L432.933 34.875L432.933 15.2386L437.356 15.2386L437.356 18.5753L437.587 18.5753Q438.264 16.9389 439.753 15.9609Q441.243 14.983 443.442 14.983Q446.484 14.983 448.332 16.9134Q450.179 18.8438 450.166 22.3722L450.166 34.875L445.538 34.875L445.538 23.0881Q445.538 21.1193 444.522 20.0071Q443.506 18.8949 441.716 18.8949Q439.888 18.8949 438.724 20.0646Q437.561 21.2344 437.561 23.3693ZM464.689 15.2386L464.689 18.8182L460.815 18.8182L460.815 28.9688Q460.815 30.3622 461.429 30.8033Q462.043 31.2443 462.912 31.2443Q463.347 31.2443 463.711 31.1804Q464.075 31.1165 464.267 31.0653L465.047 34.6832Q464.676 34.8111 463.992 34.9645Q463.308 35.1179 462.324 35.1435Q459.716 35.2202 457.945 33.8651Q456.175 32.5099 456.187 29.7358L456.187 18.8182L453.401 18.8182L453.401 15.2386L456.187 15.2386L456.187 10.5341L460.815 10.5341L460.815 15.2386L464.689 15.2386ZM473.599 8.69318L473.599 34.875L468.972 34.875L468.972 8.69318L473.599 8.69318ZM481.231 42.2386Q480.285 42.2386 479.486 42.0916Q478.687 41.9446 478.214 41.7528L479.288 38.1477Q480.81 38.5824 481.845 38.3011Q482.881 38.0199 483.52 36.3452L483.916 35.2841L476.795 15.2386L481.704 15.2386L486.23 30.0682L486.435 30.0682L490.973 15.2386L495.895 15.2386L488.033 37.2528Q487.202 39.6051 485.572 40.9219Q483.942 42.2386 481.231 42.2386ZM520.543 26.6165L520.543 15.2386L525.17 15.2386L525.17 34.875L520.683 34.875L520.683 31.3849L520.479 31.3849Q519.814 33.0341 518.299 34.0824Q516.784 35.1307 514.572 35.1307Q511.683 35.1307 509.855 33.2067Q508.027 31.2827 508.027 27.7415L508.027 15.2386L512.655 15.2386L512.655 27.0256Q512.655 28.892 513.677 29.9915Q514.7 31.0909 516.362 31.0909Q517.385 31.0909 518.344 30.5923Q519.302 30.0938 519.922 29.103Q520.543 28.1122 520.543 26.6165ZM545.446 20.429L541.227 20.8892Q540.959 19.9176 540.083 19.1761Q539.207 18.4347 537.609 18.4347Q536.165 18.4347 535.187 19.0611Q534.209 19.6875 534.221 20.6847Q534.209 21.5412 534.854 22.0845Q535.5 22.6278 536.996 22.9602L540.345 23.6761Q545.855 24.8778 545.868 28.9943Q545.868 30.848 544.794 32.2607Q543.72 33.6733 541.828 34.4659Q539.936 35.2585 537.481 35.2585Q533.864 35.2585 531.677 33.7372Q529.491 32.2159 529.057 29.5185L533.57 29.0838Q534.17 31.7685 537.469 31.7685Q539.118 31.7685 540.121 31.0973Q541.125 30.4261 541.125 29.4162Q541.125 27.767 538.479 27.179L535.129 26.4759Q532.304 25.8878 530.949 24.4879Q529.594 23.0881 529.606 20.9403Q529.606 19.125 530.604 17.7891Q531.601 16.4531 533.391 15.718Q535.18 14.983 537.545 14.983Q540.997 14.983 542.985 16.4595Q544.973 17.9361 545.446 20.429ZM558.383 35.2585Q555.43 35.2585 553.289 34.0185Q551.148 32.7784 549.997 30.5156Q548.847 28.2528 548.847 25.1719Q548.847 22.142 549.997 19.8473Q551.148 17.5526 553.238 16.2678Q555.328 14.983 558.141 14.983Q560.557 14.983 562.602 16.0249Q564.648 17.0668 565.881 19.2592Q567.115 21.4517 567.115 24.9034L567.115 26.3224L553.436 26.3224Q553.474 28.8409 554.836 30.2472Q556.197 31.6534 558.447 31.6534Q559.943 31.6534 561.036 31.0078Q562.129 30.3622 562.602 29.1222L566.923 29.608Q566.31 32.1648 564.066 33.7116Q561.822 35.2585 558.383 35.2585ZM553.449 23.2031L562.679 23.2031Q562.666 21.196 561.432 19.892Q560.199 18.5881 558.204 18.5881Q556.133 18.5881 554.842 19.956Q553.551 21.3239 553.449 23.2031ZM578.314 35.2202Q576 35.2202 574.172 34.0313Q572.344 32.8423 571.283 30.5795Q570.222 28.3168 570.222 25.0824Q570.222 21.8097 571.302 19.5597Q572.382 17.3097 574.223 16.1463Q576.064 14.983 578.327 14.983Q580.065 14.983 581.171 15.5646Q582.277 16.1463 582.935 16.9581Q583.594 17.7699 583.939 18.4858L584.131 18.4858L584.131 8.69318L588.771 8.69318L588.771 34.875L584.22 34.875L584.22 31.7813L583.939 31.7813Q583.581 32.4972 582.903 33.2962Q582.226 34.0952 581.114 34.6577Q580.001 35.2202 578.314 35.2202ZM579.605 31.4233Q581.817 31.4233 583.018 29.6655Q584.22 27.9077 584.22 25.0568Q584.22 22.1932 583.031 20.4865Q581.842 18.7798 579.605 18.7798Q577.291 18.7798 576.115 20.544Q574.939 22.3082 574.939 25.0568Q574.939 27.8182 576.128 29.6207Q577.317 31.4233 579.605 31.4233ZM618.175 20.429L613.956 20.8892Q613.688 19.9176 612.812 19.1761Q611.936 18.4347 610.338 18.4347Q608.893 18.4347 607.915 19.0611Q606.938 19.6875 606.95 20.6847Q606.938 21.5412 607.583 22.0845Q608.229 22.6278 609.724 22.9602L613.074 23.6761Q618.584 24.8778 618.597 28.9943Q618.597 30.848 617.523 32.2607Q616.449 33.6733 614.557 34.4659Q612.665 35.2585 610.21 35.2585Q606.592 35.2585 604.406 33.7372Q602.22 32.2159 601.786 29.5185L606.298 29.0838Q606.899 31.7685 610.197 31.7685Q611.847 31.7685 612.85 31.0973Q613.854 30.4261 613.854 29.4162Q613.854 27.767 611.207 27.179L607.858 26.4759Q605.033 25.8878 603.678 24.4879Q602.322 23.0881 602.335 20.9403Q602.335 19.125 603.332 17.7891Q604.33 16.4531 606.119 15.718Q607.909 14.983 610.274 14.983Q613.726 14.983 615.714 16.4595Q617.702 17.9361 618.175 20.429ZM630.984 35.2585Q628.057 35.2585 625.947 33.9673Q623.838 32.6761 622.707 30.3878Q621.575 28.0994 621.575 25.1335Q621.575 22.1293 622.726 19.8473Q623.876 17.5653 625.979 16.2741Q628.082 14.983 630.959 14.983Q633.362 14.983 635.203 15.8587Q637.044 16.7344 638.143 18.3196Q639.243 19.9048 639.396 22.0398L634.973 22.0398Q634.705 20.6207 633.701 19.6683Q632.697 18.7159 631.023 18.7159Q628.888 18.7159 627.577 20.397Q626.267 22.0781 626.267 25.0568Q626.267 28.0611 627.565 29.7741Q628.862 31.4872 631.023 31.4872Q632.544 31.4872 633.612 30.6179Q634.679 29.7486 634.973 28.1634L639.396 28.1634Q639.23 30.2472 638.169 31.8452Q637.108 33.4432 635.28 34.3509Q633.452 35.2585 630.984 35.2585ZM643.206 34.875L643.206 15.2386L647.693 15.2386L647.693 18.5114L647.898 18.5114Q648.435 16.7983 649.745 15.8778Q651.055 14.9574 652.743 14.9574Q653.126 14.9574 653.606 14.9893Q654.085 15.0213 654.405 15.0852L654.405 19.3423Q654.111 19.2401 653.478 19.157Q652.845 19.0739 652.257 19.0739Q650.352 19.0739 649.093 20.2692Q647.834 21.4645 647.834 23.331L647.834 34.875L643.206 34.875ZM657.486 34.875L657.486 15.2386L662.114 15.2386L662.114 34.875L657.486 34.875ZM659.813 12.4517Q658.7 12.4517 657.914 11.7166Q657.128 10.9815 657.128 9.94602Q657.128 8.89773 657.914 8.16264Q658.7 7.42756 659.813 7.42756Q660.912 7.42756 661.698 8.16264Q662.484 8.89773 662.484 9.94602Q662.484 10.9815 661.698 11.7166Q660.912 12.4517 659.813 12.4517ZM666.869 42.2386L666.869 15.2386L671.42 15.2386L671.42 18.4858L671.689 18.4858Q672.047 17.7699 672.693 16.9581Q673.338 16.1463 674.457 15.5646Q675.575 14.983 677.301 14.983Q679.577 14.983 681.411 16.1463Q683.246 17.3097 684.326 19.5597Q685.406 21.8097 685.406 25.0824Q685.406 28.3168 684.345 30.5795Q683.284 32.8423 681.456 34.0313Q679.628 35.2202 677.314 35.2202Q675.626 35.2202 674.514 34.6577Q673.402 34.0952 672.731 33.2962Q672.06 32.4972 671.689 31.7813L671.497 31.7813L671.497 42.2386L666.869 42.2386ZM671.408 25.0568Q671.408 27.9077 672.609 29.6655Q673.811 31.4233 676.023 31.4233Q678.311 31.4233 679.5 29.6207Q680.689 27.8182 680.689 25.0568Q680.689 22.3082 679.513 20.544Q678.337 18.7798 676.023 18.7798Q673.786 18.7798 672.597 20.4865Q671.408 22.1932 671.408 25.0568ZM699.162 15.2386L699.162 18.8182L695.288 18.8182L695.288 28.9688Q695.288 30.3622 695.902 30.8033Q696.516 31.2443 697.385 31.2443Q697.82 31.2443 698.184 31.1804Q698.548 31.1165 698.74 31.0653L699.52 34.6832Q699.149 34.8111 698.465 34.9645Q697.781 35.1179 696.797 35.1435Q694.189 35.2202 692.418 33.8651Q690.648 32.5099 690.661 29.7358L690.661 18.8182L687.874 18.8182L687.874 15.2386L690.661 15.2386L690.661 10.5341L695.288 10.5341L695.288 15.2386L699.162 15.2386ZM718.261 20.429L714.043 20.8892Q713.774 19.9176 712.898 19.1761Q712.023 18.4347 710.425 18.4347Q708.98 18.4347 708.002 19.0611Q707.024 19.6875 707.037 20.6847Q707.024 21.5412 707.67 22.0845Q708.315 22.6278 709.811 22.9602L713.161 23.6761Q718.671 24.8778 718.683 28.9943Q718.683 30.848 717.609 32.2607Q716.536 33.6733 714.644 34.4659Q712.751 35.2585 710.297 35.2585Q706.679 35.2585 704.493 33.7372Q702.307 32.2159 701.872 29.5185L706.385 29.0838Q706.986 31.7685 710.284 31.7685Q711.933 31.7685 712.937 31.0973Q713.94 30.4261 713.94 29.4162Q713.94 27.767 711.294 27.179L707.945 26.4759Q705.119 25.8878 703.764 24.4879Q702.409 23.0881 702.422 20.9403Q702.422 19.125 703.419 17.7891Q704.416 16.4531 706.206 15.718Q707.996 14.983 710.361 14.983Q713.813 14.983 715.8 16.4595Q717.788 17.9361 718.261 20.429Z" />
      </g>
    </g>
    <g id="Number-of-Participants" transform="translate(91 213)" clip-path="url(#clip_1)">
      <g transform="translate(0, 4.346591)" id="Choices" fill="#757575">
        <path d="M12.4964 8.76349L10.1058 8.76349Q9.90128 7.58736 9.04474 6.94176Q8.18821 6.29617 6.9929 6.29616Q5.38849 6.29616 4.36577 7.48509Q3.34304 8.67401 3.34304 10.892Q3.34304 13.142 4.36896 14.315Q5.39489 15.4879 6.98651 15.4879Q8.16264 15.4879 9.02237 14.8647Q9.8821 14.2415 10.1058 13.0909L12.4964 13.1037Q12.3175 14.3565 11.5952 15.3793Q10.8729 16.402 9.69354 17.0092Q8.5142 17.6165 6.95455 17.6165Q5.22869 17.6165 3.87358 16.8143Q2.51847 16.0121 1.73864 14.5067Q0.958807 13.0014 0.958807 10.892Q0.958807 8.77628 1.74503 7.27095Q2.53125 5.76563 3.88956 4.96662Q5.24787 4.16761 6.95455 4.16761Q8.40554 4.16761 9.58487 4.71094Q10.7642 5.25426 11.5313 6.28018Q12.2983 7.30611 12.4964 8.76349ZM16.8878 11.6847L16.8878 17.4375L14.5739 17.4375L14.5739 4.34659L16.8366 4.34659L16.8366 9.28764L16.9517 9.28764Q17.2905 8.45028 18.016 7.97088Q18.7415 7.49148 19.8729 7.49148Q21.4006 7.49148 22.3274 8.45028Q23.2543 9.40909 23.2543 11.1861L23.2543 17.4375L20.9403 17.4375L20.9403 11.544Q20.9403 10.5533 20.4322 10.0004Q19.924 9.44744 19.0099 9.44744Q18.0831 9.44744 17.4854 10.0323Q16.8878 10.6172 16.8878 11.6847ZM29.8892 17.6293Q28.451 17.6293 27.3963 16.9964Q26.3416 16.3636 25.7631 15.2227Q25.1847 14.0817 25.1847 12.5668Q25.1847 11.0455 25.7631 9.90447Q26.3416 8.76349 27.3963 8.12749Q28.451 7.49148 29.8892 7.49148Q31.3274 7.49148 32.3853 8.12749Q33.4432 8.76349 34.0185 9.90447Q34.5938 11.0455 34.5938 12.5668Q34.5938 14.0817 34.0185 15.2227Q33.4432 16.3636 32.3853 16.9964Q31.3274 17.6293 29.8892 17.6293ZM29.902 15.7756Q30.6882 15.7756 31.2092 15.3473Q31.7301 14.919 31.989 14.1871Q32.2479 13.4553 32.2479 12.5604Q32.2479 11.6591 31.989 10.9272Q31.7301 10.1953 31.2092 9.76065Q30.6882 9.32599 29.902 9.32599Q29.1094 9.32599 28.582 9.76065Q28.0547 10.1953 27.7926 10.9272Q27.5305 11.6591 27.5305 12.5604Q27.5305 13.4553 27.7926 14.1871Q28.0547 14.919 28.582 15.3473Q29.1094 15.7756 29.902 15.7756ZM36.5497 17.4375L36.5497 7.61932L38.8636 7.61932L38.8636 17.4375L36.5497 17.4375ZM37.7131 6.22585Q37.157 6.22585 36.7638 5.85831Q36.3707 5.49077 36.3707 4.97301Q36.3707 4.44886 36.7638 4.08132Q37.157 3.71378 37.7131 3.71378Q38.2628 3.71378 38.6559 4.08132Q39.049 4.44886 39.049 4.97301Q39.049 5.49077 38.6559 5.85831Q38.2628 6.22585 37.7131 6.22585ZM45.5241 17.6293Q44.0604 17.6293 43.0057 16.9837Q41.951 16.3381 41.3853 15.1939Q40.8196 14.0497 40.8196 12.5668Q40.8196 11.0646 41.3949 9.92365Q41.9702 8.78267 43.0217 8.13707Q44.0732 7.49148 45.5114 7.49148Q46.7131 7.49148 47.6335 7.92933Q48.554 8.36719 49.1037 9.1598Q49.6534 9.95241 49.7301 11.0199L47.5185 11.0199Q47.3842 10.3104 46.8825 9.83416Q46.3807 9.35795 45.5433 9.35795Q44.4758 9.35795 43.8207 10.1985Q43.1655 11.0391 43.1655 12.5284Q43.1655 14.0305 43.8143 14.8871Q44.4631 15.7436 45.5433 15.7436Q46.304 15.7436 46.8377 15.3089Q47.3714 14.8743 47.5185 14.0817L49.7301 14.0817Q49.647 15.1236 49.1165 15.9226Q48.5859 16.7216 47.6719 17.1754Q46.7578 17.6293 45.5241 17.6293ZM55.9815 17.6293Q54.505 17.6293 53.4343 17.0092Q52.3636 16.3892 51.7884 15.2578Q51.2131 14.1264 51.2131 12.5859Q51.2131 11.071 51.7884 9.92365Q52.3636 8.77628 53.4087 8.13388Q54.4538 7.49148 55.8601 7.49148Q57.0682 7.49148 58.0909 8.01243Q59.1136 8.53338 59.7305 9.62962Q60.3473 10.7259 60.3473 12.4517L60.3473 13.1612L53.5078 13.1612Q53.527 14.4205 54.2077 15.1236Q54.8885 15.8267 56.0135 15.8267Q56.7614 15.8267 57.3079 15.5039Q57.8544 15.1811 58.0909 14.5611L60.2514 14.804Q59.9446 16.0824 58.8228 16.8558Q57.701 17.6293 55.9815 17.6293ZM53.5142 11.6016L58.1293 11.6016Q58.1229 10.598 57.506 9.94602Q56.8892 9.29403 55.892 9.29403Q54.8565 9.29403 54.2109 9.97798Q53.5653 10.6619 53.5142 11.6016ZM70.0632 10.2145L67.9538 10.4446Q67.8196 9.95881 67.3817 9.58807Q66.9439 9.21733 66.1449 9.21733Q65.4226 9.21733 64.9336 9.53054Q64.4446 9.84375 64.451 10.3423Q64.4446 10.7706 64.7674 11.0423Q65.0902 11.3139 65.8381 11.4801L67.5128 11.8381Q70.2678 12.4389 70.2741 14.4972Q70.2741 15.424 69.7372 16.1303Q69.2003 16.8366 68.2543 17.233Q67.3082 17.6293 66.081 17.6293Q64.272 17.6293 63.179 16.8686Q62.0859 16.108 61.8686 14.7592L64.125 14.5419Q64.4254 15.8842 66.0746 15.8842Q66.8991 15.8842 67.4009 15.5487Q67.9027 15.2131 67.9027 14.7081Q67.9027 13.8835 66.5795 13.5895L64.9048 13.2379Q63.4922 12.9439 62.8146 12.244Q62.1371 11.544 62.1435 10.4702Q62.1435 9.5625 62.642 8.89453Q63.1406 8.22656 64.0355 7.85902Q64.9304 7.49148 66.1129 7.49148Q67.8388 7.49148 68.8327 8.22976Q69.8267 8.96804 70.0632 10.2145Z" />
      </g>
    </g>
    <g id="Group" transform="translate(799 159)" clip-path="url(#clip_1)">
      <g id="Frame">
        <path d="M468 0L468 0L468 78L0 78L0 0L468 0Z" id="Frame" fill="#FFFFFF" stroke="none" />
        <path d="M15 39C15 27.9543 23.9543 19 35 19C46.0457 19 55 27.9543 55 39C55 50.0457 46.0457 59 35 59C23.9543 59 15 50.0457 15 39Z" id="Oval" fill="#00FFFF" fill-rule="evenodd" stroke="none" clip-path="url(#clip_4)" />
        <g id="Missing-sounds" clip-path="url(#clip_5)" transform="translate(65 28)">
          <g transform="translate(0, 3.3806818)" id="Missing-sounds">
            <path d="M1.23295 3.38068L2.70455 3.38068L6.16477 11.8324L6.28409 11.8324L9.74432 3.38068L11.2159 3.38068L11.2159 13.5625L10.0625 13.5625L10.0625 5.8267L9.96307 5.8267L6.78125 13.5625L5.66761 13.5625L2.4858 5.8267L2.38636 5.8267L2.38636 13.5625L1.23295 13.5625L1.23295 3.38068ZM13.5227 13.5625L13.5227 5.92614L14.696 5.92614L14.696 13.5625L13.5227 13.5625ZM14.1193 4.65341Q13.7763 4.65341 13.5302 4.41974Q13.2841 4.18608 13.2841 3.85795Q13.2841 3.52983 13.5302 3.29616Q13.7763 3.0625 14.1193 3.0625Q14.4624 3.0625 14.7085 3.29616Q14.9545 3.52983 14.9545 3.85795Q14.9545 4.18608 14.7085 4.41974Q14.4624 4.65341 14.1193 4.65341ZM22.2528 7.63636L21.1989 7.93466Q21.0447 7.53693 20.6818 7.18892Q20.3189 6.84091 19.5483 6.84091Q18.8473 6.84091 18.3825 7.16158Q17.9176 7.48224 17.9176 7.97443Q17.9176 8.41193 18.2358 8.66548Q18.554 8.91903 19.2301 9.08807L20.3636 9.36648Q22.392 9.86364 22.392 11.4347Q22.392 12.0909 22.0167 12.608Q21.6413 13.125 20.9702 13.4233Q20.299 13.7216 19.4091 13.7216Q18.2408 13.7216 17.4751 13.2145Q16.7095 12.7074 16.5057 11.733L17.6193 11.4545Q17.9325 12.6875 19.3892 12.6875Q20.2095 12.6875 20.6942 12.337Q21.179 11.9865 21.179 11.4943Q21.179 10.6839 20.0455 10.4205L18.7727 10.1222Q17.7237 9.87358 17.234 9.34908Q16.7443 8.82457 16.7443 8.03409Q16.7443 7.38778 17.1097 6.89063Q17.4751 6.39347 18.109 6.11008Q18.7429 5.82671 19.5483 5.8267Q20.6818 5.8267 21.3306 6.32386Q21.9794 6.82102 22.2528 7.63636ZM29.571 7.63636L28.517 7.93466Q28.3629 7.53693 28 7.18892Q27.6371 6.84091 26.8665 6.84091Q26.1655 6.84091 25.7006 7.16158Q25.2358 7.48224 25.2358 7.97443Q25.2358 8.41193 25.554 8.66548Q25.8722 8.91903 26.5483 9.08807L27.6818 9.36648Q29.7102 9.86364 29.7102 11.4347Q29.7102 12.0909 29.3349 12.608Q28.9595 13.125 28.2884 13.4233Q27.6172 13.7216 26.7273 13.7216Q25.5589 13.7216 24.7933 13.2145Q24.0277 12.7074 23.8239 11.733L24.9375 11.4545Q25.2507 12.6875 26.7074 12.6875Q27.5277 12.6875 28.0124 12.337Q28.4972 11.9865 28.4972 11.4943Q28.4972 10.6839 27.3636 10.4205L26.0909 10.1222Q25.0419 9.87358 24.5522 9.34908Q24.0625 8.82457 24.0625 8.03409Q24.0625 7.38778 24.4279 6.89063Q24.7933 6.39347 25.4272 6.11008Q26.0611 5.82671 26.8665 5.8267Q28 5.8267 28.6488 6.32386Q29.2976 6.82102 29.571 7.63636ZM31.4801 13.5625L31.4801 5.92614L32.6534 5.92614L32.6534 13.5625L31.4801 13.5625ZM32.0767 4.65341Q31.7337 4.65341 31.4876 4.41974Q31.2415 4.18608 31.2415 3.85795Q31.2415 3.52983 31.4876 3.29616Q31.7337 3.0625 32.0767 3.0625Q32.4197 3.0625 32.6658 3.29616Q32.9119 3.52983 32.9119 3.85795Q32.9119 4.18608 32.6658 4.41974Q32.4197 4.65341 32.0767 4.65341ZM35.9744 8.96875L35.9744 13.5625L34.8011 13.5625L34.8011 5.92614L35.9347 5.92614L35.9347 7.11932L36.0341 7.11932Q36.3026 6.53764 36.8494 6.18217Q37.3963 5.82671 38.2614 5.8267Q39.4197 5.8267 40.1332 6.53764Q40.8466 7.24858 40.8466 8.71023L40.8466 13.5625L39.6733 13.5625L39.6733 8.78977Q39.6733 7.88991 39.206 7.3853Q38.7386 6.88068 37.9233 6.88068Q37.0831 6.88068 36.5288 7.42507Q35.9744 7.96946 35.9744 8.96875ZM46.0767 16.5852Q44.799 16.5852 44.0558 16.1204Q43.3125 15.6555 42.9545 15.054L43.8892 14.3977Q44.0483 14.6065 44.2919 14.8775Q44.5355 15.1484 44.9606 15.3498Q45.3857 15.5511 46.0767 15.5511Q47.0014 15.5511 47.603 15.1037Q48.2045 14.6563 48.2045 13.7017L48.2045 12.1506L48.1051 12.1506Q47.9759 12.3594 47.7397 12.6651Q47.5036 12.9709 47.0636 13.207Q46.6236 13.4432 45.8778 13.4432Q44.9531 13.4432 44.2198 13.0057Q43.4865 12.5682 43.0614 11.733Q42.6364 10.8977 42.6364 9.70455Q42.6364 8.53125 43.049 7.65874Q43.4616 6.78622 44.1974 6.30646Q44.9332 5.8267 45.8977 5.8267Q46.6435 5.8267 47.0835 6.0728Q47.5234 6.31889 47.7596 6.62962Q47.9957 6.94034 48.125 7.1392L48.2443 7.1392L48.2443 5.92614L49.3778 5.92614L49.3778 13.7813Q49.3778 14.7656 48.9329 15.3846Q48.4879 16.0036 47.7397 16.2944Q46.9915 16.5852 46.0767 16.5852ZM46.0369 12.3892Q47.0959 12.3892 47.6602 11.6708Q48.2244 10.9524 48.2244 9.68466Q48.2244 8.44673 47.6676 7.66371Q47.1108 6.88068 46.0369 6.88068Q45.2912 6.88068 44.7965 7.25852Q44.3018 7.63636 44.0558 8.27273Q43.8097 8.90909 43.8097 9.68466Q43.8097 10.8778 44.3715 11.6335Q44.9332 12.3892 46.0369 12.3892ZM60.8722 7.63636L59.8182 7.93466Q59.6641 7.53693 59.3011 7.18892Q58.9382 6.84091 58.1676 6.84091Q57.4666 6.84091 57.0018 7.16158Q56.5369 7.48224 56.5369 7.97443Q56.5369 8.41193 56.8551 8.66548Q57.1733 8.91903 57.8494 9.08807L58.983 9.36648Q61.0114 9.86364 61.0114 11.4347Q61.0114 12.0909 60.636 12.608Q60.2607 13.125 59.5895 13.4233Q58.9183 13.7216 58.0284 13.7216Q56.8601 13.7216 56.0945 13.2145Q55.3288 12.7074 55.125 11.733L56.2386 11.4545Q56.5518 12.6875 58.0085 12.6875Q58.8288 12.6875 59.3136 12.337Q59.7983 11.9865 59.7983 11.4943Q59.7983 10.6839 58.6648 10.4205L57.392 10.1222Q56.343 9.87358 55.8533 9.34908Q55.3636 8.82457 55.3636 8.03409Q55.3636 7.38778 55.729 6.89063Q56.0945 6.39347 56.7283 6.11008Q57.3622 5.82671 58.1676 5.8267Q59.3011 5.8267 59.9499 6.32386Q60.5987 6.82102 60.8722 7.63636ZM65.8835 13.7216Q64.8494 13.7216 64.0714 13.2294Q63.2933 12.7372 62.8583 11.8523Q62.4233 10.9673 62.4233 9.78409Q62.4233 8.59091 62.8583 7.70099Q63.2933 6.81108 64.0714 6.31889Q64.8494 5.8267 65.8835 5.8267Q66.9176 5.8267 67.6957 6.31889Q68.4737 6.81108 68.9087 7.70099Q69.3438 8.59091 69.3438 9.78409Q69.3438 10.9673 68.9087 11.8523Q68.4737 12.7372 67.6957 13.2294Q66.9176 13.7216 65.8835 13.7216ZM65.8835 12.6676Q66.669 12.6676 67.1761 12.2649Q67.6832 11.8622 67.9268 11.206Q68.1705 10.5497 68.1705 9.78409Q68.1705 9.01847 67.9268 8.35724Q67.6832 7.69602 67.1761 7.28835Q66.669 6.88068 65.8835 6.88068Q65.098 6.88068 64.5909 7.28835Q64.0838 7.69602 63.8402 8.35724Q63.5966 9.01847 63.5966 9.78409Q63.5966 10.5497 63.8402 11.206Q64.0838 11.8622 64.5909 12.2649Q65.098 12.6676 65.8835 12.6676ZM75.946 10.4403L75.946 5.92614L77.1193 5.92614L77.1193 13.5625L75.946 13.5625L75.946 12.2699L75.8665 12.2699Q75.598 12.8516 75.0313 13.2567Q74.4645 13.6619 73.5994 13.6619Q72.5256 13.6619 71.8296 12.951Q71.1335 12.2401 71.1335 10.7784L71.1335 5.92614L72.3068 5.92614L72.3068 10.6989Q72.3068 11.5341 72.7766 12.0313Q73.2465 12.5284 73.9773 12.5284Q74.4148 12.5284 74.8697 12.3047Q75.3246 12.081 75.6353 11.6186Q75.946 11.1563 75.946 10.4403ZM80.4403 8.96875L80.4403 13.5625L79.267 13.5625L79.267 5.92614L80.4006 5.92614L80.4006 7.11932L80.5 7.11932Q80.7685 6.53764 81.3153 6.18217Q81.8622 5.82671 82.7273 5.8267Q83.8857 5.8267 84.5991 6.53764Q85.3125 7.24858 85.3125 8.71023L85.3125 13.5625L84.1392 13.5625L84.1392 8.78977Q84.1392 7.88991 83.6719 7.3853Q83.2045 6.88068 82.3892 6.88068Q81.549 6.88068 80.9947 7.42507Q80.4403 7.96946 80.4403 8.96875ZM90.3438 13.7216Q89.3892 13.7216 88.6584 13.2369Q87.9276 12.7521 87.5149 11.8647Q87.1023 10.9773 87.1023 9.7642Q87.1023 8.56108 87.5149 7.67614Q87.9276 6.79119 88.6634 6.30895Q89.3992 5.8267 90.3636 5.8267Q91.1094 5.8267 91.5444 6.0728Q91.9794 6.31889 92.2106 6.62962Q92.4418 6.94034 92.571 7.1392L92.6705 7.1392L92.6705 3.38068L93.8438 3.38068L93.8438 13.5625L92.7102 13.5625L92.7102 12.3892L92.571 12.3892Q92.4418 12.598 92.2031 12.9137Q91.9645 13.2294 91.522 13.4755Q91.0796 13.7216 90.3438 13.7216ZM90.5028 12.6676Q91.5618 12.6676 92.1261 11.8548Q92.6903 11.0419 92.6903 9.74432Q92.6903 8.46165 92.1335 7.67116Q91.5767 6.88068 90.5028 6.88068Q89.7571 6.88068 89.2624 7.26101Q88.7678 7.64134 88.5217 8.29013Q88.2756 8.93892 88.2756 9.74432Q88.2756 10.5597 88.5266 11.2234Q88.7777 11.8871 89.2724 12.2773Q89.7671 12.6676 90.5028 12.6676ZM101.56 7.63636L100.506 7.93466Q100.352 7.53693 99.9886 7.18892Q99.6257 6.84091 98.8551 6.84091Q98.1541 6.84091 97.6893 7.16158Q97.2244 7.48224 97.2244 7.97443Q97.2244 8.41193 97.5426 8.66548Q97.8608 8.91903 98.5369 9.08807L99.6705 9.36648Q101.699 9.86364 101.699 11.4347Q101.699 12.0909 101.324 12.608Q100.948 13.125 100.277 13.4233Q99.6058 13.7216 98.7159 13.7216Q97.5476 13.7216 96.782 13.2145Q96.0163 12.7074 95.8125 11.733L96.9261 11.4545Q97.2393 12.6875 98.696 12.6875Q99.5163 12.6875 100.001 12.337Q100.486 11.9865 100.486 11.4943Q100.486 10.6839 99.3523 10.4205L98.0795 10.1222Q97.0305 9.87358 96.5408 9.34908Q96.0511 8.82457 96.0511 8.03409Q96.0511 7.38778 96.4165 6.89063Q96.782 6.39347 97.4158 6.11008Q98.0497 5.82671 98.8551 5.8267Q99.9886 5.8267 100.637 6.32386Q101.286 6.82102 101.56 7.63636Z" />
          </g>
        </g>
      </g>
      <g id="Frame">
        <path d="M468 0L468 0L468 78L0 78L0 0L468 0Z" id="Frame" fill="none" stroke="none" transform="translate(0 58)" />
        <path d="M15 39C15 27.9543 23.9543 19 35 19C46.0457 19 55 27.9543 55 39C55 50.0457 46.0457 59 35 59C23.9543 59 15 50.0457 15 39Z" id="Oval" fill="#FFFF00" fill-rule="evenodd" stroke="none" clip-path="url(#clip_4)" transform="translate(0 58)" />
        <g id="The-current-scripts-are-suitab" clip-path="url(#clip_5)" transform="translate(0 58), translate(65 28)">
          <g transform="translate(0, 3.3806818)" id="The-current-scripts-are-suitable">
            <path d="M0.676136 4.47443L0.676136 3.38068L8.3125 3.38068L8.3125 4.47443L5.1108 4.47443L5.1108 13.5625L3.87784 13.5625L3.87784 4.47443L0.676136 4.47443ZM11.2358 8.96875L11.2358 13.5625L10.0625 13.5625L10.0625 3.38068L11.2358 3.38068L11.2358 7.11932L11.3352 7.11932Q11.6037 6.5277 12.1431 6.1772Q12.6825 5.82671 13.5824 5.8267Q14.7557 5.8267 15.4716 6.53267Q16.1875 7.23864 16.1875 8.71023L16.1875 13.5625L15.0142 13.5625L15.0142 8.78977Q15.0142 7.87997 14.5444 7.38033Q14.0746 6.88068 13.2443 6.88068Q12.3743 6.88068 11.805 7.42507Q11.2358 7.96946 11.2358 8.96875ZM21.5369 13.7216Q20.4332 13.7216 19.6353 13.2319Q18.8374 12.7422 18.4073 11.8597Q17.9773 10.9773 17.9773 9.80398Q17.9773 8.63068 18.4073 7.73331Q18.8374 6.83594 19.6104 6.33132Q20.3835 5.82671 21.4176 5.8267Q22.0142 5.8267 22.5959 6.02557Q23.1776 6.22443 23.6548 6.66939Q24.1321 7.11435 24.4155 7.84517Q24.6989 8.57599 24.6989 9.64489L24.6989 10.142L19.1555 10.142Q19.1953 11.3651 19.8491 12.0163Q20.5028 12.6676 21.5369 12.6676Q22.228 12.6676 22.7251 12.3693Q23.2223 12.071 23.446 11.4744L24.5795 11.7926Q24.3111 12.6577 23.5057 13.1896Q22.7003 13.7216 21.5369 13.7216ZM19.1555 9.12784L23.5057 9.12784Q23.5057 8.15838 22.9389 7.51953Q22.3722 6.88068 21.4176 6.88068Q20.7464 6.88068 20.2543 7.19389Q19.7621 7.5071 19.4787 8.02166Q19.1953 8.53622 19.1555 9.12784ZM33.5284 13.7216Q32.4545 13.7216 31.679 13.2145Q30.9034 12.7074 30.4858 11.8175Q30.0682 10.9276 30.0682 9.78409Q30.0682 8.62074 30.4982 7.72834Q30.9283 6.83594 31.7013 6.33132Q32.4744 5.82671 33.5085 5.8267Q34.3139 5.8267 34.9602 6.125Q35.6065 6.4233 36.0192 6.96023Q36.4318 7.49716 36.5313 8.21307L35.358 8.21307Q35.2237 7.69105 34.7638 7.28587Q34.304 6.88068 33.5284 6.88068Q32.4993 6.88068 31.8704 7.66371Q31.2415 8.44673 31.2415 9.74432Q31.2415 11.0717 31.8629 11.8697Q32.4844 12.6676 33.5284 12.6676Q34.2145 12.6676 34.7042 12.3146Q35.1939 11.9616 35.358 11.3352L36.5313 11.3352Q36.4318 12.0114 36.0415 12.5508Q35.6513 13.0902 35.0124 13.4059Q34.3736 13.7216 33.5284 13.7216ZM43.054 10.4403L43.054 5.92614L44.2273 5.92614L44.2273 13.5625L43.054 13.5625L43.054 12.2699L42.9744 12.2699Q42.706 12.8516 42.1392 13.2567Q41.5724 13.6619 40.7074 13.6619Q39.6335 13.6619 38.9375 12.951Q38.2415 12.2401 38.2415 10.7784L38.2415 5.92614L39.4148 5.92614L39.4148 10.6989Q39.4148 11.5341 39.8846 12.0313Q40.3544 12.5284 41.0852 12.5284Q41.5227 12.5284 41.9776 12.3047Q42.4325 12.081 42.7433 11.6186Q43.054 11.1563 43.054 10.4403ZM46.375 13.5625L46.375 5.92614L47.5085 5.92614L47.5085 7.07955L47.5881 7.07955Q47.7969 6.51278 48.3438 6.1598Q48.8906 5.80682 49.5767 5.80682Q49.706 5.80682 49.8999 5.81179Q50.0938 5.81676 50.1932 5.8267L50.1932 7.01989Q50.1335 7.00497 49.9222 6.97266Q49.7109 6.94034 49.4773 6.94034Q48.642 6.94034 48.0952 7.44744Q47.5483 7.95455 47.5483 8.73011L47.5483 13.5625L46.375 13.5625ZM51.5852 13.5625L51.5852 5.92614L52.7188 5.92614L52.7188 7.07955L52.7983 7.07955Q53.0071 6.51278 53.554 6.1598Q54.1009 5.80682 54.7869 5.80682Q54.9162 5.80682 55.1101 5.81179Q55.304 5.81676 55.4034 5.8267L55.4034 7.01989Q55.3438 7.00497 55.1325 6.97266Q54.9212 6.94034 54.6875 6.94034Q53.8523 6.94034 53.3054 7.44744Q52.7585 7.95455 52.7585 8.73011L52.7585 13.5625L51.5852 13.5625ZM59.7585 13.7216Q58.6548 13.7216 57.8569 13.2319Q57.0589 12.7422 56.6289 11.8597Q56.1989 10.9773 56.1989 9.80398Q56.1989 8.63068 56.6289 7.73331Q57.0589 6.83594 57.832 6.33132Q58.6051 5.82671 59.6392 5.8267Q60.2358 5.8267 60.8175 6.02557Q61.3991 6.22443 61.8764 6.66939Q62.3537 7.11435 62.6371 7.84517Q62.9205 8.57599 62.9205 9.64489L62.9205 10.142L57.3771 10.142Q57.4169 11.3651 58.0707 12.0163Q58.7244 12.6676 59.7585 12.6676Q60.4496 12.6676 60.9467 12.3693Q61.4439 12.071 61.6676 11.4744L62.8011 11.7926Q62.5327 12.6577 61.7273 13.1896Q60.9219 13.7216 59.7585 13.7216ZM57.3771 9.12784L61.7273 9.12784Q61.7273 8.15838 61.1605 7.51953Q60.5938 6.88068 59.6392 6.88068Q58.968 6.88068 58.4759 7.19389Q57.9837 7.5071 57.7003 8.02166Q57.4169 8.53622 57.3771 9.12784ZM65.8835 8.96875L65.8835 13.5625L64.7102 13.5625L64.7102 5.92614L65.8438 5.92614L65.8438 7.11932L65.9432 7.11932Q66.2116 6.53764 66.7585 6.18217Q67.3054 5.82671 68.1705 5.8267Q69.3288 5.8267 70.0423 6.53764Q70.7557 7.24858 70.7557 8.71023L70.7557 13.5625L69.5824 13.5625L69.5824 8.78977Q69.5824 7.88991 69.1151 7.3853Q68.6477 6.88068 67.8324 6.88068Q66.9922 6.88068 66.4379 7.42507Q65.8835 7.96946 65.8835 8.96875ZM76.2244 5.92614L76.2244 6.92045L74.5938 6.92045L74.5938 11.375Q74.5938 11.8722 74.7404 12.1183Q74.8871 12.3643 75.1182 12.4464Q75.3494 12.5284 75.608 12.5284Q75.8018 12.5284 75.9261 12.506Q76.0504 12.4837 76.125 12.4688L76.3636 13.5227Q76.2443 13.5675 76.0305 13.6147Q75.8168 13.6619 75.4886 13.6619Q74.9915 13.6619 74.5167 13.4482Q74.0419 13.2344 73.7312 12.7969Q73.4205 12.3594 73.4205 11.6932L73.4205 6.92045L72.267 6.92045L72.267 5.92614L73.4205 5.92614L73.4205 4.09659L74.5938 4.09659L74.5938 5.92614L76.2244 5.92614ZM87.3409 7.63636L86.2869 7.93466Q86.1328 7.53693 85.7699 7.18892Q85.407 6.84091 84.6364 6.84091Q83.9354 6.84091 83.4705 7.16158Q83.0057 7.48224 83.0057 7.97443Q83.0057 8.41193 83.3239 8.66548Q83.642 8.91903 84.3182 9.08807L85.4517 9.36648Q87.4801 9.86364 87.4801 11.4347Q87.4801 12.0909 87.1048 12.608Q86.7294 13.125 86.0582 13.4233Q85.3871 13.7216 84.4972 13.7216Q83.3288 13.7216 82.5632 13.2145Q81.7976 12.7074 81.5938 11.733L82.7074 11.4545Q83.0206 12.6875 84.4773 12.6875Q85.2976 12.6875 85.7823 12.337Q86.267 11.9865 86.267 11.4943Q86.267 10.6839 85.1335 10.4205L83.8608 10.1222Q82.8118 9.87358 82.3221 9.34908Q81.8324 8.82457 81.8324 8.03409Q81.8324 7.38778 82.1978 6.89063Q82.5632 6.39347 83.1971 6.11008Q83.831 5.82671 84.6364 5.8267Q85.7699 5.8267 86.4187 6.32386Q87.0675 6.82102 87.3409 7.63636ZM92.3523 13.7216Q91.2784 13.7216 90.5028 13.2145Q89.7273 12.7074 89.3097 11.8175Q88.8921 10.9276 88.8921 9.78409Q88.8921 8.62074 89.3221 7.72834Q89.7521 6.83594 90.5252 6.33132Q91.2983 5.82671 92.3324 5.8267Q93.1378 5.8267 93.7841 6.125Q94.4304 6.4233 94.843 6.96023Q95.2557 7.49716 95.3551 8.21307L94.1818 8.21307Q94.0476 7.69105 93.5877 7.28587Q93.1278 6.88068 92.3523 6.88068Q91.3232 6.88068 90.6943 7.66371Q90.0653 8.44673 90.0653 9.74432Q90.0653 11.0717 90.6868 11.8697Q91.3082 12.6676 92.3523 12.6676Q93.0384 12.6676 93.5281 12.3146Q94.0178 11.9616 94.1818 11.3352L95.3551 11.3352Q95.2557 12.0114 94.8654 12.5508Q94.4751 13.0902 93.8363 13.4059Q93.1974 13.7216 92.3523 13.7216ZM97.0653 13.5625L97.0653 5.92614L98.1989 5.92614L98.1989 7.07955L98.2784 7.07955Q98.4872 6.51278 99.0341 6.1598Q99.581 5.80682 100.267 5.80682Q100.396 5.80682 100.59 5.81179Q100.784 5.81676 100.884 5.8267L100.884 7.01989Q100.824 7.00497 100.613 6.97266Q100.401 6.94034 100.168 6.94034Q99.3324 6.94034 98.7855 7.44744Q98.2386 7.95455 98.2386 8.73011L98.2386 13.5625L97.0653 13.5625ZM102.276 13.5625L102.276 5.92614L103.449 5.92614L103.449 13.5625L102.276 13.5625ZM102.872 4.65341Q102.529 4.65341 102.283 4.41974Q102.037 4.18608 102.037 3.85795Q102.037 3.52983 102.283 3.29616Q102.529 3.0625 102.872 3.0625Q103.215 3.0625 103.461 3.29616Q103.707 3.52983 103.707 3.85795Q103.707 4.18608 103.461 4.41974Q103.215 4.65341 102.872 4.65341ZM105.597 16.4261L105.597 5.92614L106.73 5.92614L106.73 7.1392L106.869 7.1392Q106.999 6.94034 107.23 6.62962Q107.461 6.31889 107.896 6.0728Q108.331 5.8267 109.077 5.8267Q110.041 5.8267 110.777 6.30895Q111.513 6.79119 111.925 7.67614Q112.338 8.56108 112.338 9.7642Q112.338 10.9773 111.925 11.8647Q111.513 12.7521 110.782 13.2369Q110.051 13.7216 109.097 13.7216Q108.361 13.7216 107.918 13.4755Q107.476 13.2294 107.237 12.9137Q106.999 12.598 106.869 12.3892L106.77 12.3892L106.77 16.4261L105.597 16.4261ZM106.75 9.74432Q106.75 11.0419 107.314 11.8548Q107.879 12.6676 108.938 12.6676Q109.673 12.6676 110.168 12.2773Q110.663 11.8871 110.914 11.2234Q111.165 10.5597 111.165 9.74432Q111.165 8.93892 110.919 8.29013Q110.673 7.64134 110.178 7.26101Q109.683 6.88068 108.938 6.88068Q107.864 6.88068 107.307 7.67116Q106.75 8.46165 106.75 9.74432ZM117.449 5.92614L117.449 6.92045L115.818 6.92045L115.818 11.375Q115.818 11.8722 115.965 12.1183Q116.112 12.3643 116.343 12.4464Q116.574 12.5284 116.832 12.5284Q117.026 12.5284 117.151 12.506Q117.275 12.4837 117.349 12.4688L117.588 13.5227Q117.469 13.5675 117.255 13.6147Q117.041 13.6619 116.713 13.6619Q116.216 13.6619 115.741 13.4482Q115.266 13.2344 114.956 12.7969Q114.645 12.3594 114.645 11.6932L114.645 6.92045L113.491 6.92045L113.491 5.92614L114.645 5.92614L114.645 4.09659L115.818 4.09659L115.818 5.92614L117.449 5.92614ZM124.489 7.63636L123.435 7.93466Q123.281 7.53693 122.918 7.18892Q122.555 6.84091 121.784 6.84091Q121.083 6.84091 120.618 7.16158Q120.153 7.48224 120.153 7.97443Q120.153 8.41193 120.472 8.66548Q120.79 8.91903 121.466 9.08807L122.599 9.36648Q124.628 9.86364 124.628 11.4347Q124.628 12.0909 124.252 12.608Q123.877 13.125 123.206 13.4233Q122.535 13.7216 121.645 13.7216Q120.477 13.7216 119.711 13.2145Q118.945 12.7074 118.741 11.733L119.855 11.4545Q120.168 12.6875 121.625 12.6875Q122.445 12.6875 122.93 12.337Q123.415 11.9865 123.415 11.4943Q123.415 10.6839 122.281 10.4205L121.009 10.1222Q119.96 9.87358 119.47 9.34908Q118.98 8.82457 118.98 8.03409Q118.98 7.38778 119.346 6.89063Q119.711 6.39347 120.345 6.11008Q120.979 5.82671 121.784 5.8267Q122.918 5.8267 123.566 6.32386Q124.215 6.82102 124.489 7.63636ZM132.582 13.7415Q131.857 13.7415 131.265 13.4656Q130.673 13.1896 130.325 12.6651Q129.977 12.1406 129.977 11.3949Q129.977 10.7386 130.236 10.3285Q130.494 9.91832 130.927 9.68466Q131.359 9.45099 131.884 9.33416Q132.408 9.21733 132.94 9.14773Q133.636 9.05824 134.071 9.01101Q134.506 8.96378 134.708 8.84943Q134.909 8.73508 134.909 8.4517L134.909 8.41193Q134.909 7.67614 134.509 7.26847Q134.109 6.8608 133.298 6.8608Q132.458 6.8608 131.981 7.22869Q131.504 7.59659 131.31 8.0142L130.196 7.61648Q130.494 6.92045 130.994 6.53018Q131.494 6.13992 132.088 5.98331Q132.682 5.8267 133.259 5.8267Q133.626 5.8267 134.106 5.91371Q134.586 6.00071 135.036 6.26918Q135.486 6.53764 135.784 7.07955Q136.082 7.62145 136.082 8.53125L136.082 13.5625L134.909 13.5625L134.909 12.5284L134.849 12.5284Q134.73 12.777 134.452 13.0604Q134.173 13.3438 133.711 13.5426Q133.249 13.7415 132.582 13.7415ZM132.761 12.6875Q133.457 12.6875 133.937 12.4141Q134.417 12.1406 134.663 11.7081Q134.909 11.2756 134.909 10.7983L134.909 9.72443Q134.835 9.81392 134.583 9.88601Q134.332 9.9581 134.007 10.0103Q133.681 10.0625 133.375 10.0998Q133.07 10.1371 132.881 10.1619Q132.423 10.2216 132.028 10.3533Q131.633 10.4851 131.392 10.7461Q131.151 11.0071 131.151 11.4545Q131.151 12.0661 131.605 12.3768Q132.06 12.6875 132.761 12.6875ZM138.23 13.5625L138.23 5.92614L139.364 5.92614L139.364 7.07955L139.443 7.07955Q139.652 6.51278 140.199 6.1598Q140.746 5.80682 141.432 5.80682Q141.561 5.80682 141.755 5.81179Q141.949 5.81676 142.048 5.8267L142.048 7.01989Q141.989 7.00497 141.777 6.97266Q141.566 6.94034 141.332 6.94034Q140.497 6.94034 139.95 7.44744Q139.403 7.95455 139.403 8.73011L139.403 13.5625L138.23 13.5625ZM146.403 13.7216Q145.3 13.7216 144.502 13.2319Q143.704 12.7422 143.274 11.8597Q142.844 10.9773 142.844 9.80398Q142.844 8.63068 143.274 7.73331Q143.704 6.83594 144.477 6.33132Q145.25 5.82671 146.284 5.8267Q146.881 5.8267 147.462 6.02557Q148.044 6.22443 148.521 6.66939Q148.999 7.11435 149.282 7.84517Q149.565 8.57599 149.565 9.64489L149.565 10.142L144.022 10.142Q144.062 11.3651 144.716 12.0163Q145.369 12.6676 146.403 12.6676Q147.094 12.6676 147.592 12.3693Q148.089 12.071 148.313 11.4744L149.446 11.7926Q149.178 12.6577 148.372 13.1896Q147.567 13.7216 146.403 13.7216ZM144.022 9.12784L148.372 9.12784Q148.372 8.15838 147.805 7.51953Q147.239 6.88068 146.284 6.88068Q145.613 6.88068 145.121 7.19389Q144.629 7.5071 144.345 8.02166Q144.062 8.53622 144.022 9.12784ZM160.702 7.63636L159.648 7.93466Q159.494 7.53693 159.131 7.18892Q158.768 6.84091 157.997 6.84091Q157.296 6.84091 156.831 7.16158Q156.366 7.48224 156.366 7.97443Q156.366 8.41193 156.685 8.66548Q157.003 8.91903 157.679 9.08807L158.813 9.36648Q160.841 9.86364 160.841 11.4347Q160.841 12.0909 160.466 12.608Q160.09 13.125 159.419 13.4233Q158.748 13.7216 157.858 13.7216Q156.69 13.7216 155.924 13.2145Q155.158 12.7074 154.955 11.733L156.068 11.4545Q156.381 12.6875 157.838 12.6875Q158.658 12.6875 159.143 12.337Q159.628 11.9865 159.628 11.4943Q159.628 10.6839 158.494 10.4205L157.222 10.1222Q156.173 9.87358 155.683 9.34908Q155.193 8.82457 155.193 8.03409Q155.193 7.38778 155.559 6.89063Q155.924 6.39347 156.558 6.11008Q157.192 5.82671 157.997 5.8267Q159.131 5.8267 159.779 6.32386Q160.428 6.82102 160.702 7.63636ZM167.423 10.4403L167.423 5.92614L168.597 5.92614L168.597 13.5625L167.423 13.5625L167.423 12.2699L167.344 12.2699Q167.075 12.8516 166.509 13.2567Q165.942 13.6619 165.077 13.6619Q164.003 13.6619 163.307 12.951Q162.611 12.2401 162.611 10.7784L162.611 5.92614L163.784 5.92614L163.784 10.6989Q163.784 11.5341 164.254 12.0313Q164.724 12.5284 165.455 12.5284Q165.892 12.5284 166.347 12.3047Q166.802 12.081 167.113 11.6186Q167.423 11.1563 167.423 10.4403ZM170.744 13.5625L170.744 5.92614L171.918 5.92614L171.918 13.5625L170.744 13.5625ZM171.341 4.65341Q170.998 4.65341 170.752 4.41974Q170.506 4.18608 170.506 3.85795Q170.506 3.52983 170.752 3.29616Q170.998 3.0625 171.341 3.0625Q171.684 3.0625 171.93 3.29616Q172.176 3.52983 172.176 3.85795Q172.176 4.18608 171.93 4.41974Q171.684 4.65341 171.341 4.65341ZM177.386 5.92614L177.386 6.92045L175.756 6.92045L175.756 11.375Q175.756 11.8722 175.902 12.1183Q176.049 12.3643 176.28 12.4464Q176.511 12.5284 176.77 12.5284Q176.964 12.5284 177.088 12.506Q177.212 12.4837 177.287 12.4688L177.526 13.5227Q177.406 13.5675 177.192 13.6147Q176.979 13.6619 176.651 13.6619Q176.153 13.6619 175.679 13.4482Q175.204 13.2344 174.893 12.7969Q174.582 12.3594 174.582 11.6932L174.582 6.92045L173.429 6.92045L173.429 5.92614L174.582 5.92614L174.582 4.09659L175.756 4.09659L175.756 5.92614L177.386 5.92614ZM181.403 13.7415Q180.678 13.7415 180.086 13.4656Q179.494 13.1896 179.146 12.6651Q178.798 12.1406 178.798 11.3949Q178.798 10.7386 179.057 10.3285Q179.315 9.91832 179.748 9.68466Q180.18 9.45099 180.705 9.33416Q181.229 9.21733 181.761 9.14773Q182.457 9.05824 182.892 9.01101Q183.327 8.96378 183.529 8.84943Q183.73 8.73508 183.73 8.4517L183.73 8.41193Q183.73 7.67614 183.33 7.26847Q182.93 6.8608 182.119 6.8608Q181.279 6.8608 180.802 7.22869Q180.325 7.59659 180.131 8.0142L179.017 7.61648Q179.315 6.92045 179.815 6.53018Q180.315 6.13992 180.909 5.98331Q181.503 5.8267 182.08 5.8267Q182.447 5.8267 182.927 5.91371Q183.407 6.00071 183.857 6.26918Q184.307 6.53764 184.605 7.07955Q184.903 7.62145 184.903 8.53125L184.903 13.5625L183.73 13.5625L183.73 12.5284L183.67 12.5284Q183.551 12.777 183.273 13.0604Q182.994 13.3438 182.532 13.5426Q182.07 13.7415 181.403 13.7415ZM181.582 12.6875Q182.278 12.6875 182.758 12.4141Q183.238 12.1406 183.484 11.7081Q183.73 11.2756 183.73 10.7983L183.73 9.72443Q183.656 9.81392 183.404 9.88601Q183.153 9.9581 182.828 10.0103Q182.502 10.0625 182.196 10.0998Q181.891 10.1371 181.702 10.1619Q181.244 10.2216 180.849 10.3533Q180.454 10.4851 180.213 10.7461Q179.972 11.0071 179.972 11.4545Q179.972 12.0661 180.426 12.3768Q180.881 12.6875 181.582 12.6875ZM187.21 13.5625L187.21 3.38068L188.384 3.38068L188.384 7.1392L188.483 7.1392Q188.612 6.94034 188.843 6.62962Q189.075 6.31889 189.51 6.0728Q189.945 5.8267 190.69 5.8267Q191.655 5.8267 192.391 6.30895Q193.126 6.79119 193.539 7.67614Q193.952 8.56108 193.952 9.7642Q193.952 10.9773 193.539 11.8647Q193.126 12.7521 192.396 13.2369Q191.665 13.7216 190.71 13.7216Q189.974 13.7216 189.532 13.4755Q189.089 13.2294 188.851 12.9137Q188.612 12.598 188.483 12.3892L188.344 12.3892L188.344 13.5625L187.21 13.5625ZM188.364 9.74432Q188.364 11.0419 188.928 11.8548Q189.492 12.6676 190.551 12.6676Q191.287 12.6676 191.782 12.2773Q192.276 11.8871 192.527 11.2234Q192.778 10.5597 192.778 9.74432Q192.778 8.93892 192.532 8.29013Q192.286 7.64134 191.792 7.26101Q191.297 6.88068 190.551 6.88068Q189.477 6.88068 188.92 7.67116Q188.364 8.46165 188.364 9.74432ZM196.915 3.38068L196.915 13.5625L195.741 13.5625L195.741 3.38068L196.915 3.38068ZM202.264 13.7216Q201.161 13.7216 200.363 13.2319Q199.565 12.7422 199.135 11.8597Q198.705 10.9773 198.705 9.80398Q198.705 8.63068 199.135 7.73331Q199.565 6.83594 200.338 6.33132Q201.111 5.82671 202.145 5.8267Q202.741 5.8267 203.323 6.02557Q203.905 6.22443 204.382 6.66939Q204.859 7.11435 205.143 7.84517Q205.426 8.57599 205.426 9.64489L205.426 10.142L199.883 10.142Q199.923 11.3651 200.576 12.0163Q201.23 12.6676 202.264 12.6676Q202.955 12.6676 203.452 12.3693Q203.95 12.071 204.173 11.4744L205.307 11.7926Q205.038 12.6577 204.233 13.1896Q203.428 13.7216 202.264 13.7216ZM199.883 9.12784L204.233 9.12784Q204.233 8.15838 203.666 7.51953Q203.099 6.88068 202.145 6.88068Q201.474 6.88068 200.982 7.19389Q200.489 7.5071 200.206 8.02166Q199.923 8.53622 199.883 9.12784Z" />
          </g>
        </g>
      </g>
      <g id="Frame">
        <path d="M468 0L468 0L468 78L0 78L0 0L468 0Z" id="Frame" fill="none" stroke="none" transform="translate(0 176)" />
        <path d="M15 39C15 27.9543 23.9543 19 35 19C46.0457 19 55 27.9543 55 39C55 50.0457 46.0457 59 35 59C23.9543 59 15 50.0457 15 39Z" id="Oval" fill="#00FF2A" fill-rule="evenodd" stroke="none" clip-path="url(#clip_4)" transform="translate(0 176)" />
        <g id="Different-vocabulary" clip-path="url(#clip_5)" transform="translate(0 176), translate(65 28)">
          <g transform="translate(0, 3.3806818)" id="Different-vocabulary">
            <path d="M4.375 13.5625L1.23295 13.5625L1.23295 3.38068L4.5142 3.38068Q5.99574 3.38068 7.04972 3.9897Q8.10369 4.59872 8.66548 5.73473Q9.22727 6.87074 9.22727 8.4517Q9.22727 10.0426 8.66051 11.1886Q8.09375 12.3345 7.00994 12.9485Q5.92614 13.5625 4.375 13.5625ZM2.46591 12.4688L4.29545 12.4688Q6.18963 12.4688 7.11186 11.3924Q8.03409 10.3161 8.03409 8.4517Q8.03409 6.60227 7.12926 5.53835Q6.22443 4.47443 4.43466 4.47443L2.46591 4.47443L2.46591 12.4688ZM11.1364 13.5625L11.1364 5.92614L12.3097 5.92614L12.3097 13.5625L11.1364 13.5625ZM11.733 4.65341Q11.3899 4.65341 11.1438 4.41974Q10.8977 4.18608 10.8977 3.85795Q10.8977 3.52983 11.1438 3.29616Q11.3899 3.0625 11.733 3.0625Q12.076 3.0625 12.3221 3.29616Q12.5682 3.52983 12.5682 3.85795Q12.5682 4.18608 12.3221 4.41974Q12.076 4.65341 11.733 4.65341ZM17.858 5.92614L17.858 6.92045L16.1477 6.92045L16.1477 13.5625L14.9744 13.5625L14.9744 6.92045L13.7415 6.92045L13.7415 5.92614L14.9744 5.92614L14.9744 4.87216Q14.9744 4.21591 15.2827 3.77841Q15.5909 3.34091 16.0831 3.12216Q16.5753 2.90341 17.1222 2.90341Q17.5547 2.90341 17.8281 2.97301Q18.1016 3.04261 18.2358 3.10227L17.8977 4.11648Q17.8082 4.08665 17.6516 4.0419Q17.495 3.99716 17.2415 3.99716Q16.6598 3.99716 16.4038 4.29048Q16.1477 4.58381 16.1477 5.15057L16.1477 5.92614L17.858 5.92614ZM22.9091 5.92614L22.9091 6.92045L21.1989 6.92045L21.1989 13.5625L20.0256 13.5625L20.0256 6.92045L18.7926 6.92045L18.7926 5.92614L20.0256 5.92614L20.0256 4.87216Q20.0256 4.21591 20.3338 3.77841Q20.642 3.34091 21.1342 3.12216Q21.6264 2.90341 22.1733 2.90341Q22.6058 2.90341 22.8793 2.97301Q23.1527 3.04261 23.2869 3.10227L22.9489 4.11648Q22.8594 4.08665 22.7028 4.0419Q22.5462 3.99716 22.2926 3.99716Q21.7109 3.99716 21.4549 4.29048Q21.1989 4.58381 21.1989 5.15057L21.1989 5.92614L22.9091 5.92614ZM27.4432 13.7216Q26.3395 13.7216 25.5415 13.2319Q24.7436 12.7422 24.3136 11.8597Q23.8835 10.9773 23.8835 9.80398Q23.8835 8.63068 24.3136 7.73331Q24.7436 6.83594 25.5167 6.33132Q26.2898 5.82671 27.3239 5.8267Q27.9205 5.8267 28.5021 6.02557Q29.0838 6.22443 29.5611 6.66939Q30.0384 7.11435 30.3217 7.84517Q30.6051 8.57599 30.6051 9.64489L30.6051 10.142L25.0618 10.142Q25.1016 11.3651 25.7553 12.0163Q26.4091 12.6676 27.4432 12.6676Q28.1342 12.6676 28.6314 12.3693Q29.1286 12.071 29.3523 11.4744L30.4858 11.7926Q30.2173 12.6577 29.4119 13.1896Q28.6065 13.7216 27.4432 13.7216ZM25.0618 9.12784L29.4119 9.12784Q29.4119 8.15838 28.8452 7.51953Q28.2784 6.88068 27.3239 6.88068Q26.6527 6.88068 26.1605 7.19389Q25.6683 7.5071 25.3849 8.02166Q25.1016 8.53622 25.0618 9.12784ZM32.3949 13.5625L32.3949 5.92614L33.5284 5.92614L33.5284 7.07955L33.608 7.07955Q33.8168 6.51278 34.3636 6.1598Q34.9105 5.80682 35.5966 5.80682Q35.7259 5.80682 35.9197 5.81179Q36.1136 5.81676 36.2131 5.8267L36.2131 7.01989Q36.1534 7.00497 35.9421 6.97266Q35.7308 6.94034 35.4972 6.94034Q34.6619 6.94034 34.1151 7.44744Q33.5682 7.95455 33.5682 8.73011L33.5682 13.5625L32.3949 13.5625ZM40.5682 13.7216Q39.4645 13.7216 38.6665 13.2319Q37.8686 12.7422 37.4386 11.8597Q37.0085 10.9773 37.0085 9.80398Q37.0085 8.63068 37.4386 7.73331Q37.8686 6.83594 38.6417 6.33132Q39.4148 5.82671 40.4489 5.8267Q41.0455 5.8267 41.6271 6.02557Q42.2088 6.22443 42.6861 6.66939Q43.1634 7.11435 43.4467 7.84517Q43.7301 8.57599 43.7301 9.64489L43.7301 10.142L38.1868 10.142Q38.2266 11.3651 38.8803 12.0163Q39.5341 12.6676 40.5682 12.6676Q41.2592 12.6676 41.7564 12.3693Q42.2536 12.071 42.4773 11.4744L43.6108 11.7926Q43.3423 12.6577 42.5369 13.1896Q41.7315 13.7216 40.5682 13.7216ZM38.1868 9.12784L42.5369 9.12784Q42.5369 8.15838 41.9702 7.51953Q41.4034 6.88068 40.4489 6.88068Q39.7777 6.88068 39.2855 7.19389Q38.7933 7.5071 38.5099 8.02166Q38.2266 8.53622 38.1868 9.12784ZM46.6932 8.96875L46.6932 13.5625L45.5199 13.5625L45.5199 5.92614L46.6534 5.92614L46.6534 7.11932L46.7528 7.11932Q47.0213 6.53764 47.5682 6.18217Q48.1151 5.82671 48.9801 5.8267Q50.1385 5.8267 50.8519 6.53764Q51.5653 7.24858 51.5653 8.71023L51.5653 13.5625L50.392 13.5625L50.392 8.78977Q50.392 7.88991 49.9247 7.3853Q49.4574 6.88068 48.642 6.88068Q47.8018 6.88068 47.2475 7.42507Q46.6932 7.96946 46.6932 8.96875ZM57.0341 5.92614L57.0341 6.92045L55.4034 6.92045L55.4034 11.375Q55.4034 11.8722 55.5501 12.1183Q55.6967 12.3643 55.9279 12.4464Q56.1591 12.5284 56.4176 12.5284Q56.6115 12.5284 56.7358 12.506Q56.8601 12.4837 56.9347 12.4688L57.1733 13.5227Q57.054 13.5675 56.8402 13.6147Q56.6264 13.6619 56.2983 13.6619Q55.8011 13.6619 55.3264 13.4482Q54.8516 13.2344 54.5408 12.7969Q54.2301 12.3594 54.2301 11.6932L54.2301 6.92045L53.0767 6.92045L53.0767 5.92614L54.2301 5.92614L54.2301 4.09659L55.4034 4.09659L55.4034 5.92614L57.0341 5.92614ZM68.9858 5.92614L66.1619 13.5625L64.9688 13.5625L62.1449 5.92614L63.4176 5.92614L65.5256 12.0114L65.6051 12.0114L67.7131 5.92614L68.9858 5.92614ZM73.3608 13.7216Q72.3267 13.7216 71.5487 13.2294Q70.7706 12.7372 70.3356 11.8523Q69.9006 10.9673 69.9006 9.78409Q69.9006 8.59091 70.3356 7.70099Q70.7706 6.81108 71.5487 6.31889Q72.3267 5.8267 73.3608 5.8267Q74.3949 5.8267 75.1729 6.31889Q75.951 6.81108 76.386 7.70099Q76.821 8.59091 76.821 9.78409Q76.821 10.9673 76.386 11.8523Q75.951 12.7372 75.1729 13.2294Q74.3949 13.7216 73.3608 13.7216ZM73.3608 12.6676Q74.1463 12.6676 74.6534 12.2649Q75.1605 11.8622 75.4041 11.206Q75.6477 10.5497 75.6477 9.78409Q75.6477 9.01847 75.4041 8.35724Q75.1605 7.69602 74.6534 7.28835Q74.1463 6.88068 73.3608 6.88068Q72.5753 6.88068 72.0682 7.28835Q71.5611 7.69602 71.3175 8.35724Q71.0739 9.01847 71.0739 9.78409Q71.0739 10.5497 71.3175 11.206Q71.5611 11.8622 72.0682 12.2649Q72.5753 12.6676 73.3608 12.6676ZM81.7131 13.7216Q80.6392 13.7216 79.8636 13.2145Q79.0881 12.7074 78.6705 11.8175Q78.2528 10.9276 78.2528 9.78409Q78.2528 8.62074 78.6829 7.72834Q79.1129 6.83594 79.886 6.33132Q80.6591 5.82671 81.6932 5.8267Q82.4986 5.8267 83.1449 6.125Q83.7912 6.4233 84.2038 6.96023Q84.6165 7.49716 84.7159 8.21307L83.5426 8.21307Q83.4084 7.69105 82.9485 7.28587Q82.4886 6.88068 81.7131 6.88068Q80.684 6.88068 80.055 7.66371Q79.4261 8.44673 79.4261 9.74432Q79.4261 11.0717 80.0476 11.8697Q80.669 12.6676 81.7131 12.6676Q82.3991 12.6676 82.8889 12.3146Q83.3786 11.9616 83.5426 11.3352L84.7159 11.3352Q84.6165 12.0114 84.2262 12.5508Q83.8359 13.0902 83.1971 13.4059Q82.5582 13.7216 81.7131 13.7216ZM88.6733 13.7415Q87.9474 13.7415 87.3558 13.4656Q86.7642 13.1896 86.4162 12.6651Q86.0682 12.1406 86.0682 11.3949Q86.0682 10.7386 86.3267 10.3285Q86.5852 9.91832 87.0178 9.68466Q87.4503 9.45099 87.9748 9.33416Q88.4993 9.21733 89.0313 9.14773Q89.7273 9.05824 90.1623 9.01101Q90.5973 8.96378 90.7987 8.84943Q91 8.73508 91 8.4517L91 8.41193Q91 7.67614 90.5998 7.26847Q90.1996 6.8608 89.3892 6.8608Q88.549 6.8608 88.0717 7.22869Q87.5945 7.59659 87.4006 8.0142L86.2869 7.61648Q86.5852 6.92045 87.0849 6.53018Q87.5845 6.13992 88.1786 5.98331Q88.7727 5.8267 89.3494 5.8267Q89.7173 5.8267 90.1971 5.91371Q90.6768 6.00071 91.1268 6.26918Q91.5767 6.53764 91.875 7.07955Q92.1733 7.62145 92.1733 8.53125L92.1733 13.5625L91 13.5625L91 12.5284L90.9403 12.5284Q90.821 12.777 90.5426 13.0604Q90.2642 13.3438 89.8018 13.5426Q89.3395 13.7415 88.6733 13.7415ZM88.8523 12.6875Q89.5483 12.6875 90.0281 12.4141Q90.5078 12.1406 90.7539 11.7081Q91 11.2756 91 10.7983L91 9.72443Q90.9254 9.81392 90.6744 9.88601Q90.4233 9.9581 90.0977 10.0103Q89.772 10.0625 89.4663 10.0998Q89.1605 10.1371 88.9716 10.1619Q88.5142 10.2216 88.119 10.3533Q87.7237 10.4851 87.4826 10.7461Q87.2415 11.0071 87.2415 11.4545Q87.2415 12.0661 87.6964 12.3768Q88.1513 12.6875 88.8523 12.6875ZM94.4801 13.5625L94.4801 3.38068L95.6534 3.38068L95.6534 7.1392L95.7528 7.1392Q95.8821 6.94034 96.1133 6.62962Q96.3445 6.31889 96.7795 6.0728Q97.2145 5.8267 97.9602 5.8267Q98.9247 5.8267 99.6605 6.30895Q100.396 6.79119 100.809 7.67614Q101.222 8.56108 101.222 9.7642Q101.222 10.9773 100.809 11.8647Q100.396 12.7521 99.6655 13.2369Q98.9347 13.7216 97.9801 13.7216Q97.2443 13.7216 96.8018 13.4755Q96.3594 13.2294 96.1207 12.9137Q95.8821 12.598 95.7528 12.3892L95.6136 12.3892L95.6136 13.5625L94.4801 13.5625ZM95.6335 9.74432Q95.6335 11.0419 96.1978 11.8548Q96.7621 12.6676 97.821 12.6676Q98.5568 12.6676 99.0515 12.2773Q99.5462 11.8871 99.7972 11.2234Q100.048 10.5597 100.048 9.74432Q100.048 8.93892 99.8022 8.29013Q99.5561 7.64134 99.0614 7.26101Q98.5668 6.88068 97.821 6.88068Q96.7472 6.88068 96.1903 7.67116Q95.6335 8.46165 95.6335 9.74432ZM107.824 10.4403L107.824 5.92614L108.997 5.92614L108.997 13.5625L107.824 13.5625L107.824 12.2699L107.744 12.2699Q107.476 12.8516 106.909 13.2567Q106.342 13.6619 105.477 13.6619Q104.403 13.6619 103.707 12.951Q103.011 12.2401 103.011 10.7784L103.011 5.92614L104.185 5.92614L104.185 10.6989Q104.185 11.5341 104.654 12.0313Q105.124 12.5284 105.855 12.5284Q106.293 12.5284 106.748 12.3047Q107.202 12.081 107.513 11.6186Q107.824 11.1563 107.824 10.4403ZM112.318 3.38068L112.318 13.5625L111.145 13.5625L111.145 3.38068L112.318 3.38068ZM116.713 13.7415Q115.987 13.7415 115.396 13.4656Q114.804 13.1896 114.456 12.6651Q114.108 12.1406 114.108 11.3949Q114.108 10.7386 114.366 10.3285Q114.625 9.91832 115.058 9.68466Q115.49 9.45099 116.015 9.33416Q116.539 9.21733 117.071 9.14773Q117.767 9.05824 118.202 9.01101Q118.637 8.96378 118.838 8.84943Q119.04 8.73508 119.04 8.4517L119.04 8.41193Q119.04 7.67614 118.64 7.26847Q118.239 6.8608 117.429 6.8608Q116.589 6.8608 116.112 7.22869Q115.634 7.59659 115.44 8.0142L114.327 7.61648Q114.625 6.92045 115.125 6.53018Q115.624 6.13992 116.218 5.98331Q116.813 5.8267 117.389 5.8267Q117.757 5.8267 118.237 5.91371Q118.717 6.00071 119.167 6.26918Q119.616 6.53764 119.915 7.07955Q120.213 7.62145 120.213 8.53125L120.213 13.5625L119.04 13.5625L119.04 12.5284L118.98 12.5284Q118.861 12.777 118.582 13.0604Q118.304 13.3438 117.842 13.5426Q117.379 13.7415 116.713 13.7415ZM116.892 12.6875Q117.588 12.6875 118.068 12.4141Q118.548 12.1406 118.794 11.7081Q119.04 11.2756 119.04 10.7983L119.04 9.72443Q118.965 9.81392 118.714 9.88601Q118.463 9.9581 118.137 10.0103Q117.812 10.0625 117.506 10.0998Q117.2 10.1371 117.011 10.1619Q116.554 10.2216 116.159 10.3533Q115.763 10.4851 115.522 10.7461Q115.281 11.0071 115.281 11.4545Q115.281 12.0661 115.736 12.3768Q116.191 12.6875 116.892 12.6875ZM122.361 13.5625L122.361 5.92614L123.494 5.92614L123.494 7.07955L123.574 7.07955Q123.783 6.51278 124.33 6.1598Q124.876 5.80682 125.562 5.80682Q125.692 5.80682 125.886 5.81179Q126.08 5.81676 126.179 5.8267L126.179 7.01989Q126.119 7.00497 125.908 6.97266Q125.697 6.94034 125.463 6.94034Q124.628 6.94034 124.081 7.44744Q123.534 7.95455 123.534 8.73011L123.534 13.5625L122.361 13.5625ZM128.565 16.4261Q128.267 16.4261 128.033 16.3789Q127.8 16.3317 127.71 16.2869L128.009 15.2528Q128.436 15.3622 128.764 15.3324Q129.092 15.3026 129.348 15.0415Q129.604 14.7805 129.818 14.1989L130.037 13.6023L127.213 5.92614L128.486 5.92614L130.594 12.0114L130.673 12.0114L132.781 5.92614L134.054 5.92614L130.812 14.6761Q130.161 16.4261 128.565 16.4261Z" />
          </g>
        </g>
      </g>
      <g id="Frame">
        <path d="M468 0L468 0L468 78L0 78L0 0L468 0Z" id="Frame" fill="none" stroke="none" transform="translate(0 236)" />
        <path d="M15 39C15 27.9543 23.9543 19 35 19C46.0457 19 55 27.9543 55 39C55 50.0457 46.0457 59 35 59C23.9543 59 15 50.0457 15 39Z" id="Oval" fill="#FF00D9" fill-rule="evenodd" stroke="none" clip-path="url(#clip_4)" transform="translate(0 236)" />
        <g id="Compatible-with-existing-techn" clip-path="url(#clip_5)" transform="translate(0 236), translate(65 28)">
          <g transform="translate(0, 3.3806818)" id="Other">
            <path d="M9.82386 8.47159Q9.82386 10.0824 9.24219 11.2557Q8.66051 12.429 7.64631 13.0653Q6.6321 13.7017 5.32955 13.7017Q4.02699 13.7017 3.01278 13.0653Q1.99858 12.429 1.4169 11.2557Q0.835227 10.0824 0.835227 8.47159Q0.835227 6.8608 1.4169 5.6875Q1.99858 4.51421 3.01278 3.87784Q4.02699 3.24148 5.32955 3.24148Q6.6321 3.24148 7.64631 3.87784Q8.66051 4.51421 9.24219 5.6875Q9.82386 6.8608 9.82386 8.47159ZM8.63068 8.47159Q8.63068 7.14915 8.1907 6.23935Q7.75071 5.32955 7.00249 4.86222Q6.25426 4.39489 5.32955 4.39489Q4.40483 4.39489 3.65661 4.86222Q2.90838 5.32955 2.46839 6.23935Q2.02841 7.14915 2.02841 8.47159Q2.02841 9.79403 2.46839 10.7038Q2.90838 11.6136 3.65661 12.081Q4.40483 12.5483 5.32955 12.5483Q6.25426 12.5483 7.00249 12.081Q7.75071 11.6136 8.1907 10.7038Q8.63068 9.79403 8.63068 8.47159ZM15.054 5.92614L15.054 6.92045L13.4233 6.92045L13.4233 11.375Q13.4233 11.8722 13.57 12.1183Q13.7166 12.3643 13.9478 12.4464Q14.179 12.5284 14.4375 12.5284Q14.6314 12.5284 14.7557 12.506Q14.88 12.4837 14.9545 12.4688L15.1932 13.5227Q15.0739 13.5675 14.8601 13.6147Q14.6463 13.6619 14.3182 13.6619Q13.821 13.6619 13.3462 13.4482Q12.8714 13.2344 12.5607 12.7969Q12.25 12.3594 12.25 11.6932L12.25 6.92045L11.0966 6.92045L11.0966 5.92614L12.25 5.92614L12.25 4.09659L13.4233 4.09659L13.4233 5.92614L15.054 5.92614ZM18.1563 8.96875L18.1563 13.5625L16.983 13.5625L16.983 3.38068L18.1563 3.38068L18.1563 7.11932L18.2557 7.11932Q18.5241 6.5277 19.0636 6.1772Q19.603 5.82671 20.5028 5.8267Q21.6761 5.8267 22.392 6.53267Q23.108 7.23864 23.108 8.71023L23.108 13.5625L21.9347 13.5625L21.9347 8.78977Q21.9347 7.87997 21.4648 7.38033Q20.995 6.88068 20.1648 6.88068Q19.2947 6.88068 18.7255 7.42507Q18.1563 7.96946 18.1563 8.96875ZM28.4574 13.7216Q27.3537 13.7216 26.5558 13.2319Q25.7578 12.7422 25.3278 11.8597Q24.8977 10.9773 24.8977 9.80398Q24.8977 8.63068 25.3278 7.73331Q25.7578 6.83594 26.5309 6.33132Q27.304 5.82671 28.3381 5.8267Q28.9347 5.8267 29.5163 6.02557Q30.098 6.22443 30.5753 6.66939Q31.0526 7.11435 31.3359 7.84517Q31.6193 8.57599 31.6193 9.64489L31.6193 10.142L26.076 10.142Q26.1158 11.3651 26.7695 12.0163Q27.4233 12.6676 28.4574 12.6676Q29.1484 12.6676 29.6456 12.3693Q30.1428 12.071 30.3665 11.4744L31.5 11.7926Q31.2315 12.6577 30.4261 13.1896Q29.6207 13.7216 28.4574 13.7216ZM26.076 9.12784L30.4261 9.12784Q30.4261 8.15838 29.8594 7.51953Q29.2926 6.88068 28.3381 6.88068Q27.6669 6.88068 27.1747 7.19389Q26.6825 7.5071 26.3991 8.02166Q26.1158 8.53622 26.076 9.12784ZM33.4091 13.5625L33.4091 5.92614L34.5426 5.92614L34.5426 7.07955L34.6222 7.07955Q34.831 6.51278 35.3778 6.1598Q35.9247 5.80682 36.6108 5.80682Q36.7401 5.80682 36.9339 5.81179Q37.1278 5.81676 37.2273 5.8267L37.2273 7.01989Q37.1676 7.00497 36.9563 6.97266Q36.745 6.94034 36.5114 6.94034Q35.6761 6.94034 35.1293 7.44744Q34.5824 7.95455 34.5824 8.73011L34.5824 13.5625L33.4091 13.5625Z" />
          </g>
        </g>
      </g>
      <g id="Frame">
        <path d="M468 0L468 0L468 78L0 78L0 0L468 0Z" id="Frame" fill="none" stroke="none" transform="translate(0 118)" />
        <path d="M15 39C15 27.9543 23.9543 19 35 19C46.0457 19 55 27.9543 55 39C55 50.0457 46.0457 59 35 59C23.9543 59 15 50.0457 15 39Z" id="Oval" fill="#FF9500" fill-rule="evenodd" stroke="none" clip-path="url(#clip_4)" transform="translate(0 118)" />
        <g id="Hurts-the-Moroccan-identity" clip-path="url(#clip_5)" transform="translate(0 118), translate(65 28)">
          <g transform="translate(0, 3.3806818)" id="Hurts-the-Moroccan-identity">
            <path d="M1.23295 13.5625L1.23295 3.38068L2.46591 3.38068L2.46591 7.91477L7.89489 7.91477L7.89489 3.38068L9.12784 3.38068L9.12784 13.5625L7.89489 13.5625L7.89489 9.00852L2.46591 9.00852L2.46591 13.5625L1.23295 13.5625ZM16.2472 10.4403L16.2472 5.92614L17.4205 5.92614L17.4205 13.5625L16.2472 13.5625L16.2472 12.2699L16.1676 12.2699Q15.8991 12.8516 15.3324 13.2567Q14.7656 13.6619 13.9006 13.6619Q12.8267 13.6619 12.1307 12.951Q11.4347 12.2401 11.4347 10.7784L11.4347 5.92614L12.608 5.92614L12.608 10.6989Q12.608 11.5341 13.0778 12.0313Q13.5476 12.5284 14.2784 12.5284Q14.7159 12.5284 15.1708 12.3047Q15.6257 12.081 15.9364 11.6186Q16.2472 11.1563 16.2472 10.4403ZM19.5682 13.5625L19.5682 5.92614L20.7017 5.92614L20.7017 7.07955L20.7813 7.07955Q20.9901 6.51278 21.5369 6.1598Q22.0838 5.80682 22.7699 5.80682Q22.8991 5.80682 23.093 5.81179Q23.2869 5.81676 23.3864 5.8267L23.3864 7.01989Q23.3267 7.00497 23.1154 6.97266Q22.9041 6.94034 22.6705 6.94034Q21.8352 6.94034 21.2884 7.44744Q20.7415 7.95455 20.7415 8.73011L20.7415 13.5625L19.5682 13.5625ZM28.5767 5.92614L28.5767 6.92045L26.946 6.92045L26.946 11.375Q26.946 11.8722 27.0927 12.1183Q27.2393 12.3643 27.4705 12.4464Q27.7017 12.5284 27.9602 12.5284Q28.1541 12.5284 28.2784 12.506Q28.4027 12.4837 28.4773 12.4688L28.7159 13.5227Q28.5966 13.5675 28.3828 13.6147Q28.169 13.6619 27.8409 13.6619Q27.3438 13.6619 26.869 13.4482Q26.3942 13.2344 26.0835 12.7969Q25.7727 12.3594 25.7727 11.6932L25.7727 6.92045L24.6193 6.92045L24.6193 5.92614L25.7727 5.92614L25.7727 4.09659L26.946 4.09659L26.946 5.92614L28.5767 5.92614ZM35.6165 7.63636L34.5625 7.93466Q34.4084 7.53693 34.0455 7.18892Q33.6825 6.84091 32.9119 6.84091Q32.2109 6.84091 31.7461 7.16158Q31.2813 7.48224 31.2813 7.97443Q31.2813 8.41193 31.5994 8.66548Q31.9176 8.91903 32.5938 9.08807L33.7273 9.36648Q35.7557 9.86364 35.7557 11.4347Q35.7557 12.0909 35.3803 12.608Q35.005 13.125 34.3338 13.4233Q33.6626 13.7216 32.7727 13.7216Q31.6044 13.7216 30.8388 13.2145Q30.0732 12.7074 29.8693 11.733L30.983 11.4545Q31.2962 12.6875 32.7528 12.6875Q33.5732 12.6875 34.0579 12.337Q34.5426 11.9865 34.5426 11.4943Q34.5426 10.6839 33.4091 10.4205L32.1364 10.1222Q31.0874 9.87358 30.5977 9.34908Q30.108 8.82457 30.108 8.03409Q30.108 7.38778 30.4734 6.89063Q30.8388 6.39347 31.4727 6.11008Q32.1065 5.82671 32.9119 5.8267Q34.0455 5.8267 34.6942 6.32386Q35.343 6.82102 35.6165 7.63636ZM44.7841 5.92614L44.7841 6.92045L43.1534 6.92045L43.1534 11.375Q43.1534 11.8722 43.3001 12.1183Q43.4467 12.3643 43.6779 12.4464Q43.9091 12.5284 44.1676 12.5284Q44.3615 12.5284 44.4858 12.506Q44.6101 12.4837 44.6847 12.4688L44.9233 13.5227Q44.804 13.5675 44.5902 13.6147Q44.3764 13.6619 44.0483 13.6619Q43.5511 13.6619 43.0763 13.4482Q42.6016 13.2344 42.2908 12.7969Q41.9801 12.3594 41.9801 11.6932L41.9801 6.92045L40.8267 6.92045L40.8267 5.92614L41.9801 5.92614L41.9801 4.09659L43.1534 4.09659L43.1534 5.92614L44.7841 5.92614ZM47.8864 8.96875L47.8864 13.5625L46.7131 13.5625L46.7131 3.38068L47.8864 3.38068L47.8864 7.11932L47.9858 7.11932Q48.2543 6.5277 48.7937 6.1772Q49.3331 5.82671 50.233 5.8267Q51.4062 5.8267 52.1222 6.53267Q52.8381 7.23864 52.8381 8.71023L52.8381 13.5625L51.6648 13.5625L51.6648 8.78977Q51.6648 7.87997 51.195 7.38033Q50.7251 6.88068 49.8949 6.88068Q49.0249 6.88068 48.4556 7.42507Q47.8864 7.96946 47.8864 8.96875ZM58.1875 13.7216Q57.0838 13.7216 56.2859 13.2319Q55.4879 12.7422 55.0579 11.8597Q54.6278 10.9773 54.6278 9.80398Q54.6278 8.63068 55.0579 7.73331Q55.4879 6.83594 56.261 6.33132Q57.0341 5.82671 58.0682 5.8267Q58.6648 5.8267 59.2464 6.02557Q59.8281 6.22443 60.3054 6.66939Q60.7827 7.11435 61.0661 7.84517Q61.3494 8.57599 61.3494 9.64489L61.3494 10.142L55.8061 10.142Q55.8459 11.3651 56.4996 12.0163Q57.1534 12.6676 58.1875 12.6676Q58.8785 12.6676 59.3757 12.3693Q59.8729 12.071 60.0966 11.4744L61.2301 11.7926Q60.9616 12.6577 60.1563 13.1896Q59.3508 13.7216 58.1875 13.7216ZM55.8061 9.12784L60.1563 9.12784Q60.1562 8.15838 59.5895 7.51953Q59.0227 6.88068 58.0682 6.88068Q57.397 6.88068 56.9048 7.19389Q56.4126 7.5071 56.1293 8.02166Q55.8459 8.53622 55.8061 9.12784ZM67.2358 3.38068L68.7074 3.38068L72.1676 11.8324L72.2869 11.8324L75.7472 3.38068L77.2188 3.38068L77.2188 13.5625L76.0653 13.5625L76.0653 5.8267L75.9659 5.8267L72.7841 13.5625L71.6705 13.5625L68.4886 5.8267L68.3892 5.8267L68.3892 13.5625L67.2358 13.5625L67.2358 3.38068ZM82.6278 13.7216Q81.5937 13.7216 80.8157 13.2294Q80.0376 12.7372 79.6026 11.8523Q79.1676 10.9673 79.1676 9.78409Q79.1676 8.59091 79.6026 7.70099Q80.0376 6.81108 80.8157 6.31889Q81.5937 5.8267 82.6278 5.8267Q83.6619 5.8267 84.44 6.31889Q85.218 6.81108 85.653 7.70099Q86.0881 8.59091 86.0881 9.78409Q86.0881 10.9673 85.653 11.8523Q85.218 12.7372 84.44 13.2294Q83.6619 13.7216 82.6278 13.7216ZM82.6278 12.6676Q83.4133 12.6676 83.9204 12.2649Q84.4276 11.8622 84.6712 11.206Q84.9148 10.5497 84.9148 9.78409Q84.9148 9.01847 84.6712 8.35724Q84.4276 7.69602 83.9204 7.28835Q83.4133 6.88068 82.6278 6.88068Q81.8423 6.88068 81.3352 7.28835Q80.8281 7.69602 80.5845 8.35724Q80.3409 9.01847 80.3409 9.78409Q80.3409 10.5497 80.5845 11.206Q80.8281 11.8622 81.3352 12.2649Q81.8423 12.6676 82.6278 12.6676ZM87.8778 13.5625L87.8778 5.92614L89.0114 5.92614L89.0114 7.07955L89.0909 7.07955Q89.2997 6.51278 89.8466 6.1598Q90.3935 5.80682 91.0795 5.80682Q91.2088 5.80682 91.4027 5.81179Q91.5966 5.81676 91.696 5.8267L91.696 7.01989Q91.6364 7.00497 91.4251 6.97266Q91.2138 6.94034 90.9801 6.94034Q90.1449 6.94034 89.598 7.44744Q89.0511 7.95455 89.0511 8.73011L89.0511 13.5625L87.8778 13.5625ZM95.9517 13.7216Q94.9176 13.7216 94.1395 13.2294Q93.3615 12.7372 92.9265 11.8523Q92.4915 10.9673 92.4915 9.78409Q92.4915 8.59091 92.9265 7.70099Q93.3615 6.81108 94.1395 6.31889Q94.9176 5.8267 95.9517 5.8267Q96.9858 5.8267 97.7638 6.31889Q98.5419 6.81108 98.9769 7.70099Q99.4119 8.59091 99.4119 9.78409Q99.4119 10.9673 98.9769 11.8523Q98.5419 12.7372 97.7638 13.2294Q96.9858 13.7216 95.9517 13.7216ZM95.9517 12.6676Q96.7372 12.6676 97.2443 12.2649Q97.7514 11.8622 97.995 11.206Q98.2386 10.5497 98.2386 9.78409Q98.2386 9.01847 97.995 8.35724Q97.7514 7.69602 97.2443 7.28835Q96.7372 6.88068 95.9517 6.88068Q95.1662 6.88068 94.6591 7.28835Q94.152 7.69602 93.9084 8.35724Q93.6648 9.01847 93.6648 9.78409Q93.6648 10.5497 93.9084 11.206Q94.152 11.8622 94.6591 12.2649Q95.1662 12.6676 95.9517 12.6676ZM104.304 13.7216Q103.23 13.7216 102.455 13.2145Q101.679 12.7074 101.261 11.8175Q100.844 10.9276 100.844 9.78409Q100.844 8.62074 101.274 7.72834Q101.704 6.83594 102.477 6.33132Q103.25 5.82671 104.284 5.8267Q105.089 5.8267 105.736 6.125Q106.382 6.4233 106.795 6.96023Q107.207 7.49716 107.307 8.21307L106.134 8.21307Q105.999 7.69105 105.539 7.28587Q105.08 6.88068 104.304 6.88068Q103.275 6.88068 102.646 7.66371Q102.017 8.44673 102.017 9.74432Q102.017 11.0717 102.638 11.8697Q103.26 12.6676 104.304 12.6676Q104.99 12.6676 105.48 12.3146Q105.969 11.9616 106.134 11.3352L107.307 11.3352Q107.207 12.0114 106.817 12.5508Q106.427 13.0902 105.788 13.4059Q105.149 13.7216 104.304 13.7216ZM112.119 13.7216Q111.045 13.7216 110.27 13.2145Q109.494 12.7074 109.077 11.8175Q108.659 10.9276 108.659 9.78409Q108.659 8.62074 109.089 7.72834Q109.519 6.83594 110.292 6.33132Q111.065 5.82671 112.099 5.8267Q112.905 5.8267 113.551 6.125Q114.197 6.4233 114.61 6.96023Q115.023 7.49716 115.122 8.21307L113.949 8.21307Q113.815 7.69105 113.355 7.28587Q112.895 6.88068 112.119 6.88068Q111.09 6.88068 110.461 7.66371Q109.832 8.44673 109.832 9.74432Q109.832 11.0717 110.454 11.8697Q111.075 12.6676 112.119 12.6676Q112.805 12.6676 113.295 12.3146Q113.785 11.9616 113.949 11.3352L115.122 11.3352Q115.023 12.0114 114.632 12.5508Q114.242 13.0902 113.603 13.4059Q112.964 13.7216 112.119 13.7216ZM119.08 13.7415Q118.354 13.7415 117.762 13.4656Q117.17 13.1896 116.822 12.6651Q116.474 12.1406 116.474 11.3949Q116.474 10.7386 116.733 10.3285Q116.991 9.91832 117.424 9.68466Q117.857 9.45099 118.381 9.33416Q118.906 9.21733 119.437 9.14773Q120.134 9.05824 120.569 9.01101Q121.004 8.96378 121.205 8.84943Q121.406 8.73508 121.406 8.4517L121.406 8.41193Q121.406 7.67614 121.006 7.26847Q120.606 6.8608 119.795 6.8608Q118.955 6.8608 118.478 7.22869Q118.001 7.59659 117.807 8.0142L116.693 7.61648Q116.991 6.92045 117.491 6.53018Q117.991 6.13992 118.585 5.98331Q119.179 5.8267 119.756 5.8267Q120.124 5.8267 120.603 5.91371Q121.083 6.00071 121.533 6.26918Q121.983 6.53764 122.281 7.07955Q122.58 7.62145 122.58 8.53125L122.58 13.5625L121.406 13.5625L121.406 12.5284L121.347 12.5284Q121.227 12.777 120.949 13.0604Q120.67 13.3438 120.208 13.5426Q119.746 13.7415 119.08 13.7415ZM119.259 12.6875Q119.955 12.6875 120.434 12.4141Q120.914 12.1406 121.16 11.7081Q121.406 11.2756 121.406 10.7983L121.406 9.72443Q121.332 9.81392 121.081 9.88601Q120.83 9.9581 120.504 10.0103Q120.178 10.0625 119.872 10.0998Q119.567 10.1371 119.378 10.1619Q118.92 10.2216 118.525 10.3533Q118.13 10.4851 117.889 10.7461Q117.648 11.0071 117.648 11.4545Q117.648 12.0661 118.103 12.3768Q118.558 12.6875 119.259 12.6875ZM125.901 8.96875L125.901 13.5625L124.727 13.5625L124.727 5.92614L125.861 5.92614L125.861 7.11932L125.96 7.11932Q126.229 6.53764 126.776 6.18217Q127.322 5.82671 128.187 5.8267Q129.346 5.8267 130.059 6.53764Q130.773 7.24858 130.773 8.71023L130.773 13.5625L129.599 13.5625L129.599 8.78977Q129.599 7.88991 129.132 7.3853Q128.665 6.88068 127.849 6.88068Q127.009 6.88068 126.455 7.42507Q125.901 7.96946 125.901 8.96875ZM136.858 13.5625L136.858 5.92614L138.031 5.92614L138.031 13.5625L136.858 13.5625ZM137.455 4.65341Q137.111 4.65341 136.865 4.41974Q136.619 4.18608 136.619 3.85795Q136.619 3.52983 136.865 3.29616Q137.111 3.0625 137.455 3.0625Q137.798 3.0625 138.044 3.29616Q138.29 3.52983 138.29 3.85795Q138.29 4.18608 138.044 4.41974Q137.798 4.65341 137.455 4.65341ZM143.062 13.7216Q142.108 13.7216 141.377 13.2369Q140.646 12.7521 140.234 11.8647Q139.821 10.9773 139.821 9.7642Q139.821 8.56108 140.234 7.67614Q140.646 6.79119 141.382 6.30895Q142.118 5.8267 143.082 5.8267Q143.828 5.8267 144.263 6.0728Q144.698 6.31889 144.929 6.62962Q145.161 6.94034 145.29 7.1392L145.389 7.1392L145.389 3.38068L146.562 3.38068L146.562 13.5625L145.429 13.5625L145.429 12.3892L145.29 12.3892Q145.161 12.598 144.922 12.9137Q144.683 13.2294 144.241 13.4755Q143.798 13.7216 143.062 13.7216ZM143.222 12.6676Q144.281 12.6676 144.845 11.8548Q145.409 11.0419 145.409 9.74432Q145.409 8.46165 144.852 7.67116Q144.295 6.88068 143.222 6.88068Q142.476 6.88068 141.981 7.26101Q141.486 7.64134 141.24 8.29013Q140.994 8.93892 140.994 9.74432Q140.994 10.5597 141.245 11.2234Q141.496 11.8871 141.991 12.2773Q142.486 12.6676 143.222 12.6676ZM152.071 13.7216Q150.967 13.7216 150.169 13.2319Q149.371 12.7422 148.941 11.8597Q148.511 10.9773 148.511 9.80398Q148.511 8.63068 148.941 7.73331Q149.371 6.83594 150.145 6.33132Q150.918 5.82671 151.952 5.8267Q152.548 5.8267 153.13 6.02557Q153.712 6.22443 154.189 6.66939Q154.666 7.11435 154.95 7.84517Q155.233 8.57599 155.233 9.64489L155.233 10.142L149.69 10.142Q149.729 11.3651 150.383 12.0163Q151.037 12.6676 152.071 12.6676Q152.762 12.6676 153.259 12.3693Q153.756 12.071 153.98 11.4744L155.114 11.7926Q154.845 12.6577 154.04 13.1896Q153.234 13.7216 152.071 13.7216ZM149.69 9.12784L154.04 9.12784Q154.04 8.15838 153.473 7.51953Q152.906 6.88068 151.952 6.88068Q151.281 6.88068 150.788 7.19389Q150.296 7.5071 150.013 8.02166Q149.729 8.53622 149.69 9.12784ZM158.196 8.96875L158.196 13.5625L157.023 13.5625L157.023 5.92614L158.156 5.92614L158.156 7.11932L158.256 7.11932Q158.524 6.53764 159.071 6.18217Q159.618 5.82671 160.483 5.8267Q161.641 5.8267 162.355 6.53764Q163.068 7.24858 163.068 8.71023L163.068 13.5625L161.895 13.5625L161.895 8.78977Q161.895 7.88991 161.428 7.3853Q160.96 6.88068 160.145 6.88068Q159.305 6.88068 158.75 7.42507Q158.196 7.96946 158.196 8.96875ZM168.537 5.92614L168.537 6.92045L166.906 6.92045L166.906 11.375Q166.906 11.8722 167.053 12.1183Q167.2 12.3643 167.431 12.4464Q167.662 12.5284 167.92 12.5284Q168.114 12.5284 168.239 12.506Q168.363 12.4837 168.437 12.4688L168.676 13.5227Q168.557 13.5675 168.343 13.6147Q168.129 13.6619 167.801 13.6619Q167.304 13.6619 166.829 13.4482Q166.354 13.2344 166.044 12.7969Q165.733 12.3594 165.733 11.6932L165.733 6.92045L164.58 6.92045L164.58 5.92614L165.733 5.92614L165.733 4.09659L166.906 4.09659L166.906 5.92614L168.537 5.92614ZM170.307 13.5625L170.307 5.92614L171.48 5.92614L171.48 13.5625L170.307 13.5625ZM170.903 4.65341Q170.56 4.65341 170.314 4.41974Q170.068 4.18608 170.068 3.85795Q170.068 3.52983 170.314 3.29616Q170.56 3.0625 170.903 3.0625Q171.246 3.0625 171.493 3.29616Q171.739 3.52983 171.739 3.85795Q171.739 4.18608 171.493 4.41974Q171.246 4.65341 170.903 4.65341ZM176.949 5.92614L176.949 6.92045L175.318 6.92045L175.318 11.375Q175.318 11.8722 175.465 12.1183Q175.611 12.3643 175.843 12.4464Q176.074 12.5284 176.332 12.5284Q176.526 12.5284 176.651 12.506Q176.775 12.4837 176.849 12.4688L177.088 13.5227Q176.969 13.5675 176.755 13.6147Q176.541 13.6619 176.213 13.6619Q175.716 13.6619 175.241 13.4482Q174.766 13.2344 174.456 12.7969Q174.145 12.3594 174.145 11.6932L174.145 6.92045L172.991 6.92045L172.991 5.92614L174.145 5.92614L174.145 4.09659L175.318 4.09659L175.318 5.92614L176.949 5.92614ZM179.474 16.4261Q179.176 16.4261 178.942 16.3789Q178.709 16.3317 178.619 16.2869L178.918 15.2528Q179.345 15.3622 179.673 15.3324Q180.001 15.3026 180.257 15.0415Q180.513 14.7805 180.727 14.1989L180.946 13.6023L178.122 5.92614L179.395 5.92614L181.503 12.0114L181.582 12.0114L183.69 5.92614L184.963 5.92614L181.722 14.6761Q181.07 16.4261 179.474 16.4261Z" />
          </g>
        </g>
      </g>
    </g>
  </g>
</svg>